M48
;Layer_Color=9474304
;FILE_FORMAT=2:4
INCH,TZ
;TYPE=PLATED
T1F00S00C0.0120
T2F00S00C0.0160
%
T01
X2658Y3358
X3130
Y3830
X3602
Y4302
X3130
X2658
Y3830
X3602Y3358
T02
X700Y910
X730Y1980
X720Y3240
Y4400
X1790Y4930
X1310Y5680
X650Y6090
X2200Y1340
X1620Y330
X2550Y1340
X3480Y1040
X3110Y2060
X2870Y2420
X4330Y2690
X4540Y3320
X5350Y2860
X5760Y3400
Y3760
X7050Y3740
X7020Y6090
X4660Y6060
X4100Y5750
X4070Y5090
X4670Y4910
X4810Y4350
X3130Y5240
X2630
X2860Y6070
X5480Y1590
X6790
X7060Y350
X4680
M30
