%FSLAX24Y24*%
%MOIN*%
G70*
G01*
G75*
G04 Layer_Physical_Order=2*
G04 Layer_Color=16711680*
%ADD10C,0.0080*%
%ADD11O,0.0118X0.0335*%
%ADD12R,0.1457X0.1457*%
%ADD13O,0.0335X0.0118*%
%ADD14R,0.0200X0.0250*%
%ADD15R,0.0236X0.0472*%
%ADD16R,0.0250X0.0200*%
%ADD17R,0.0433X0.0472*%
%ADD18C,0.0100*%
%ADD19C,0.0060*%
%ADD20C,0.0200*%
%ADD21C,0.0320*%
%ADD22C,0.0240*%
D10*
X5069Y5591D02*
G03*
X5110Y5690I-99J99D01*
G01*
X5069Y5591D02*
G03*
X5110Y5690I-99J99D01*
G01*
X4277Y5230D02*
G03*
X3930Y4883I-207J-140D01*
G01*
X4370Y4950D02*
G03*
X4469Y4991I0J140D01*
G01*
X4370Y4950D02*
G03*
X4469Y4991I0J140D01*
G01*
X4670Y4190D02*
G03*
X4629Y4289I-140J0D01*
G01*
X4670Y4190D02*
G03*
X4629Y4289I-140J0D01*
G01*
X4210Y4883D02*
G03*
X4277Y4950I-140J207D01*
G01*
X3930Y4650D02*
G03*
X3971Y4551I140J0D01*
G01*
X3930Y4650D02*
G03*
X3971Y4551I140J0D01*
G01*
X4790Y3320D02*
G03*
X4670Y3534I-250J0D01*
G01*
X4493Y3075D02*
G03*
X4790Y3320I47J245D01*
G01*
X4390Y3520D02*
G03*
X4295Y3273I150J-200D01*
G01*
X3640Y2280D02*
G03*
X3739Y2321I0J140D01*
G01*
X3640Y2280D02*
G03*
X3739Y2321I0J140D01*
G01*
X3077Y2560D02*
G03*
X3077Y2280I-207J-140D01*
G01*
X5110Y6100D02*
X7310D01*
X5110Y6170D02*
X7310D01*
X5110Y6030D02*
X7310D01*
X5110Y6310D02*
X7310D01*
X5110Y6320D02*
X7310D01*
X5110Y6240D02*
X7310D01*
X5110Y5750D02*
X7310D01*
X5110Y5820D02*
X7310D01*
X5110Y5680D02*
X7310D01*
X5110Y5960D02*
X7310D01*
X5110Y5890D02*
X7310D01*
X5085Y5610D02*
X7310D01*
X5018Y5540D02*
X7310D01*
X4878Y5400D02*
X7310D01*
X4948Y5470D02*
X7310D01*
X4668Y5190D02*
X7310D01*
X4598Y5120D02*
X7310D01*
X4528Y5050D02*
X7310D01*
X4808Y5330D02*
X7310D01*
X4738Y5260D02*
X7310D01*
X4670Y4000D02*
X7310D01*
X4670Y4070D02*
X7310D01*
X4670Y3930D02*
X7310D01*
X4669Y4210D02*
X7310D01*
X4637Y4280D02*
X7310D01*
X4670Y4140D02*
X7310D01*
X4670Y3650D02*
X7310D01*
X4670Y3720D02*
X7310D01*
X4670Y3580D02*
X7310D01*
X4670Y3860D02*
X7310D01*
X4670Y3790D02*
X7310D01*
X4210Y4770D02*
X7310D01*
X4210Y4840D02*
X7310D01*
X4218Y4700D02*
X7310D01*
X4457Y4980D02*
X7310D01*
X4243Y4910D02*
X7310D01*
X4498Y4420D02*
X7310D01*
X4428Y4490D02*
X7310D01*
X4568Y4350D02*
X7310D01*
X4288Y4630D02*
X7310D01*
X4358Y4560D02*
X7310D01*
X5110Y5690D02*
Y6310D01*
X4830Y5748D02*
Y6310D01*
X4718Y5636D02*
Y6320D01*
X4648Y5566D02*
Y6320D01*
X4788Y5706D02*
Y6320D01*
X4578Y5496D02*
Y6320D01*
X4508Y5426D02*
Y6320D01*
X4469Y4991D02*
X5069Y5591D01*
X4368Y5286D02*
Y6320D01*
X4438Y5356D02*
Y6320D01*
X4158Y5324D02*
Y6320D01*
X4088Y5339D02*
Y6320D01*
X4140Y5330D02*
X4412D01*
X3948Y5308D02*
Y6320D01*
X4018Y5335D02*
Y6320D01*
X4312Y5230D02*
X4830Y5748D01*
X4298Y5230D02*
Y6320D01*
X3878Y5250D02*
Y6320D01*
X4228Y5284D02*
Y6320D01*
X4438Y4480D02*
Y4968D01*
X4368Y4550D02*
Y4950D01*
X4277Y5230D02*
X4312D01*
X4298Y4620D02*
Y4950D01*
X4648Y4266D02*
Y5170D01*
X4578Y4340D02*
Y5100D01*
X4508Y4410D02*
Y5030D01*
X4277Y4950D02*
X4370D01*
X4253Y5260D02*
X4342D01*
X4228Y4690D02*
Y4896D01*
X4210Y4708D02*
Y4883D01*
Y4708D02*
X4629Y4289D01*
X3971Y4551D02*
X4390Y4132D01*
X3930Y4650D02*
Y4883D01*
X6958Y120D02*
Y6320D01*
X6888Y120D02*
Y6320D01*
X7028Y120D02*
Y6320D01*
X6748Y120D02*
Y6320D01*
X6678Y120D02*
Y6320D01*
X6818Y120D02*
Y6320D01*
X7308Y120D02*
Y6320D01*
X7238Y120D02*
Y6320D01*
X7310Y120D02*
Y6320D01*
X7098Y120D02*
Y6320D01*
X7168Y120D02*
Y6320D01*
X5908Y120D02*
Y6320D01*
X5838Y120D02*
Y6320D01*
X5978Y120D02*
Y6320D01*
X5698Y120D02*
Y6320D01*
X5768Y120D02*
Y6320D01*
X6538Y120D02*
Y6320D01*
X6398Y120D02*
Y6320D01*
X6608Y120D02*
Y6320D01*
X6048Y120D02*
Y6320D01*
X6328Y120D02*
Y6320D01*
X4789Y3300D02*
X7310D01*
X4773Y3230D02*
X7310D01*
X4732Y3160D02*
X7310D01*
X4759Y3440D02*
X7310D01*
X4702Y3510D02*
X7310D01*
X4785Y3370D02*
X7310D01*
X6468Y120D02*
Y6320D01*
X6258Y120D02*
Y6320D01*
X4638Y3090D02*
X7310D01*
X6118Y120D02*
Y6320D01*
X6188Y120D02*
Y6320D01*
X4298Y2880D02*
X7310D01*
X4228Y2810D02*
X7310D01*
X4158Y2740D02*
X7310D01*
X4438Y3020D02*
X7310D01*
X4368Y2950D02*
X7310D01*
X3948Y2530D02*
X7310D01*
X3878Y2460D02*
X7310D01*
X3808Y2390D02*
X7310D01*
X4088Y2670D02*
X7310D01*
X4018Y2600D02*
X7310D01*
X5208Y120D02*
Y6320D01*
X5138Y120D02*
Y6320D01*
X5278Y120D02*
Y6320D01*
X5068Y120D02*
Y5590D01*
X4998Y120D02*
Y5520D01*
X4928Y120D02*
Y5450D01*
X5558Y120D02*
Y6320D01*
X5488Y120D02*
Y6320D01*
X5628Y120D02*
Y6320D01*
X5348Y120D02*
Y6320D01*
X5418Y120D02*
Y6320D01*
X4788Y3352D02*
Y5310D01*
X4718Y3496D02*
Y5240D01*
X4298Y3382D02*
Y4224D01*
X4158Y3136D02*
Y4364D01*
X4228Y3206D02*
Y4294D01*
X4858Y120D02*
Y5380D01*
X4018Y2996D02*
Y4504D01*
X4088Y3066D02*
Y4434D01*
X3878Y2856D02*
Y4930D01*
X3948Y2926D02*
Y4582D01*
X4788Y120D02*
Y3288D01*
X4670Y3534D02*
Y4190D01*
X4368Y3501D02*
Y4154D01*
X4390Y3520D02*
Y4132D01*
X4718Y120D02*
Y3144D01*
X4648Y120D02*
Y3094D01*
X4578Y120D02*
Y3073D01*
X4508Y120D02*
Y3072D01*
X4438Y120D02*
Y3020D01*
X4368Y120D02*
Y2950D01*
X4298Y120D02*
Y2880D01*
X4228Y120D02*
Y2810D01*
X4158Y120D02*
Y2740D01*
X4088Y120D02*
Y2670D01*
X4018Y120D02*
Y2600D01*
X3948Y120D02*
Y2530D01*
X3878Y120D02*
Y2460D01*
X3808Y120D02*
Y2390D01*
X519Y5610D02*
X4692D01*
X519Y5680D02*
X4762D01*
X519Y5540D02*
X4622D01*
X519Y5400D02*
X4482D01*
X519Y5470D02*
X4552D01*
X519Y5330D02*
X4000D01*
X519Y4280D02*
X4242D01*
X519Y4350D02*
X4172D01*
X519Y4210D02*
X4312D01*
X519Y4490D02*
X4032D01*
X519Y4420D02*
X4102D01*
X519Y6310D02*
X4830D01*
X519Y6320D02*
X4830D01*
X519Y6240D02*
X4830D01*
X519Y6170D02*
X4830D01*
X519Y6100D02*
X4830D01*
X519Y5820D02*
X4830D01*
X519Y5890D02*
X4830D01*
X519Y5750D02*
X4830D01*
X519Y6030D02*
X4830D01*
X519Y5960D02*
X4830D01*
X519Y3790D02*
X4390D01*
X519Y3860D02*
X4390D01*
X519Y3720D02*
X4390D01*
X519Y4070D02*
X4390D01*
X519Y4140D02*
X4382D01*
X519Y4000D02*
X4390D01*
X3739Y2321D02*
X4493Y3075D01*
X519Y3580D02*
X4390D01*
X3738Y2320D02*
X7310D01*
X519Y3650D02*
X4390D01*
X3582Y2560D02*
X4295Y3273D01*
X519Y3510D02*
X4378D01*
X519Y3930D02*
X4390D01*
X519Y3440D02*
X4321D01*
X519Y3370D02*
X4295D01*
X519Y3300D02*
X4291D01*
X519Y3160D02*
X4182D01*
X519Y3230D02*
X4252D01*
X519Y3090D02*
X4112D01*
X519Y3020D02*
X4042D01*
X519Y2950D02*
X3972D01*
X3738Y2716D02*
Y6320D01*
X3668Y2646D02*
Y6320D01*
X3808Y2786D02*
Y6320D01*
X3528Y2560D02*
Y6320D01*
X3458Y2560D02*
Y6320D01*
X3598Y2576D02*
Y6320D01*
X3318Y2560D02*
Y6320D01*
X3248Y2560D02*
Y6320D01*
X3388Y2560D02*
Y6320D01*
X3108Y2560D02*
Y6320D01*
X3178Y2560D02*
Y6320D01*
X519Y5190D02*
X3841D01*
X519Y5260D02*
X3887D01*
X519Y5050D02*
X3823D01*
X2898Y2668D02*
Y6320D01*
X519Y5120D02*
X3822D01*
X2968Y2650D02*
Y6320D01*
X2828Y2666D02*
Y6320D01*
X3038Y2605D02*
Y6320D01*
X2688Y2591D02*
Y6320D01*
X2758Y2643D02*
Y6320D01*
X519Y4630D02*
X3931D01*
X519Y4700D02*
X3930D01*
X519Y4560D02*
X3963D01*
X519Y4910D02*
X3897D01*
X519Y4980D02*
X3846D01*
X519Y2880D02*
X3902D01*
X2870Y2670D02*
X3692D01*
X3077Y2280D02*
X3640D01*
X3043Y2600D02*
X3622D01*
X3077Y2560D02*
X3582D01*
X519Y4770D02*
X3930D01*
X519Y4840D02*
X3930D01*
X519Y2810D02*
X3832D01*
X519Y2740D02*
X3762D01*
X519Y2670D02*
X2870D01*
X519Y2530D02*
X2646D01*
X519Y2600D02*
X2697D01*
X519Y2320D02*
X2641D01*
X519Y2460D02*
X2623D01*
X519Y2390D02*
X2622D01*
X3738Y120D02*
Y2320D01*
X3053Y2250D02*
X7310D01*
X3668Y120D02*
Y2283D01*
X3598Y120D02*
Y2280D01*
X3528Y120D02*
Y2280D01*
X3388Y120D02*
Y2280D01*
X3318Y120D02*
Y2280D01*
X3458Y120D02*
Y2280D01*
X3178Y120D02*
Y2280D01*
X3248Y120D02*
Y2280D01*
X519Y1970D02*
X7310D01*
X519Y2040D02*
X7310D01*
X519Y1900D02*
X7310D01*
X2940Y2180D02*
X7310D01*
X519Y2110D02*
X7310D01*
X519Y1620D02*
X7310D01*
X519Y1690D02*
X7310D01*
X519Y1550D02*
X7310D01*
X519Y1830D02*
X7310D01*
X519Y1760D02*
X7310D01*
X519Y500D02*
X7310D01*
X519Y570D02*
X7310D01*
X519Y430D02*
X7310D01*
X519Y710D02*
X7310D01*
X519Y780D02*
X7310D01*
X519Y640D02*
X7310D01*
X519Y150D02*
X7310D01*
X519Y220D02*
X7310D01*
X519Y120D02*
X7310D01*
X519Y360D02*
X7310D01*
X519Y290D02*
X7310D01*
X519Y1270D02*
X7310D01*
X519Y1340D02*
X7310D01*
X519Y1200D02*
X7310D01*
X519Y1480D02*
X7310D01*
X519Y1410D02*
X7310D01*
X519Y920D02*
X7310D01*
X519Y990D02*
X7310D01*
X519Y850D02*
X7310D01*
X519Y1130D02*
X7310D01*
X519Y1060D02*
X7310D01*
X2198Y120D02*
Y6320D01*
X2128Y120D02*
Y6320D01*
X2268Y120D02*
Y6320D01*
X1988Y120D02*
Y6320D01*
X1918Y120D02*
Y6320D01*
X2058Y120D02*
Y6320D01*
X2548Y120D02*
Y6320D01*
X2478Y120D02*
Y6320D01*
X2618Y120D02*
Y6320D01*
X2338Y120D02*
Y6320D01*
X2408Y120D02*
Y6320D01*
X868Y120D02*
Y6320D01*
X798Y120D02*
Y6320D01*
X938Y120D02*
Y6320D01*
X519Y120D02*
Y6320D01*
X728Y120D02*
Y6320D01*
X1778Y120D02*
Y6320D01*
X1708Y120D02*
Y6320D01*
X1848Y120D02*
Y6320D01*
X1568Y120D02*
Y6320D01*
X1638Y120D02*
Y6320D01*
X3108Y120D02*
Y2280D01*
X3038Y120D02*
Y2235D01*
X2968Y120D02*
Y2190D01*
X2898Y120D02*
Y2172D01*
X2758Y120D02*
Y2197D01*
X2688Y120D02*
Y2249D01*
X2828Y120D02*
Y2174D01*
X1428Y120D02*
Y6320D01*
X1498Y120D02*
Y6320D01*
X1358Y120D02*
Y6320D01*
X519Y2250D02*
X2687D01*
X519Y2180D02*
X2800D01*
X1148Y120D02*
Y6320D01*
X1218Y120D02*
Y6320D01*
X1078Y120D02*
Y6320D01*
X1008Y120D02*
Y6320D01*
X1288Y120D02*
Y6320D01*
X588Y120D02*
Y6320D01*
X658Y120D02*
Y6320D01*
D18*
X4970Y5690D02*
Y6310D01*
X4530Y3310D02*
Y4190D01*
X4370Y5090D02*
X4970Y5690D01*
X4070Y5090D02*
X4370D01*
X2870Y2420D02*
X3640D01*
X4530Y3310D01*
X4070Y4650D02*
X4530Y4190D01*
X4070Y4650D02*
Y5080D01*
D21*
X4680Y350D02*
D03*
X7060D02*
D03*
X7050Y3740D02*
D03*
X7020Y6090D02*
D03*
X4660Y6060D02*
D03*
X2860Y6070D02*
D03*
X4100Y5750D02*
D03*
X700Y910D02*
D03*
X720Y4400D02*
D03*
Y3240D02*
D03*
X730Y1980D02*
D03*
X4810Y4350D02*
D03*
X6790Y1590D02*
D03*
X2630Y5240D02*
D03*
X5760Y3400D02*
D03*
X5350Y2860D02*
D03*
X1310Y5680D02*
D03*
X4070Y5090D02*
D03*
X3480Y1040D02*
D03*
X4540Y3320D02*
D03*
X3110Y2060D02*
D03*
X1620Y330D02*
D03*
X650Y6090D02*
D03*
X3130Y5240D02*
D03*
X4670Y4910D02*
D03*
X2550Y1340D02*
D03*
X2200D02*
D03*
X5480Y1590D02*
D03*
X5760Y3760D02*
D03*
X2870Y2420D02*
D03*
X4330Y2690D02*
D03*
X1790Y4930D02*
D03*
D22*
X3602Y4302D02*
D03*
Y3830D02*
D03*
X3130D02*
D03*
Y4302D02*
D03*
X3602Y3358D02*
D03*
X3130D02*
D03*
X2658Y3830D02*
D03*
Y4302D02*
D03*
Y3358D02*
D03*
M02*
