%FSLAX24Y24*%
%MOIN*%
G70*
G01*
G75*
G04 Layer_Physical_Order=1*
G04 Layer_Color=255*
%ADD10C,0.0080*%
%ADD11O,0.0118X0.0335*%
%ADD12R,0.1457X0.1457*%
%ADD13O,0.0335X0.0118*%
%ADD14R,0.0200X0.0250*%
%ADD15R,0.0236X0.0472*%
%ADD16R,0.0250X0.0200*%
%ADD17R,0.0433X0.0472*%
%ADD18C,0.0100*%
%ADD19C,0.0060*%
%ADD20C,0.0200*%
%ADD21C,0.0320*%
%ADD22C,0.0240*%
D10*
X4433Y4313D02*
G03*
X4468Y4398I-85J85D01*
G01*
X4433Y4313D02*
G03*
X4468Y4398I-85J85D01*
G01*
X4324Y4213D02*
G03*
X4355Y4235I-54J107D01*
G01*
X4324Y4213D02*
G03*
X4355Y4235I-54J107D01*
G01*
X4352Y4125D02*
G03*
X4324Y4213I-149J0D01*
G01*
X4315Y4027D02*
G03*
X4352Y4125I-112J98D01*
G01*
Y3928D02*
G03*
X4315Y4027I-149J0D01*
G01*
X4332Y3855D02*
G03*
X4352Y3928I-130J74D01*
G01*
X6230Y1890D02*
G03*
X6315Y1925I0J120D01*
G01*
X6230Y1890D02*
G03*
X6315Y1925I0J120D01*
G01*
X5724Y1924D02*
G03*
X5825Y1890I85J85D01*
G01*
X4295Y2565D02*
G03*
X4210Y2600I-85J-85D01*
G01*
X4295Y2565D02*
G03*
X4210Y2600I-85J-85D01*
G01*
X4650Y1503D02*
G03*
X4615Y1585I-120J-3D01*
G01*
X4650Y1503D02*
G03*
X4615Y1585I-120J-3D01*
G01*
X4820Y1550D02*
G03*
X4735Y1515I0J-120D01*
G01*
X4820Y1550D02*
G03*
X4735Y1515I0J-120D01*
G01*
X4200Y1710D02*
G03*
X4235Y1625I120J0D01*
G01*
X4200Y1710D02*
G03*
X4235Y1625I120J0D01*
G01*
X4228Y5284D02*
G03*
X4020Y5335I-158J-194D01*
G01*
X3130Y5015D02*
G03*
X2933Y5015I-98J-112D01*
G01*
D02*
G03*
X2736Y5015I-98J-112D01*
G01*
X3197Y5048D02*
G03*
X3130Y5015I32J-146D01*
G01*
X2736Y5015D02*
G03*
X2539Y5015I-98J-112D01*
G01*
D02*
G03*
X2398Y5046I-98J-112D01*
G01*
X1833Y4665D02*
G03*
X1798Y4580I85J-85D01*
G01*
X1833Y4665D02*
G03*
X1798Y4580I85J-85D01*
G01*
X3872Y2618D02*
G03*
X3968Y2757I-53J139D01*
G01*
X2970Y2191D02*
G03*
X3107Y2341I-100J229D01*
G01*
X2929Y2001D02*
G03*
X2970Y2100I-99J99D01*
G01*
X2929Y2001D02*
G03*
X2970Y2100I-99J99D01*
G01*
X2720Y1840D02*
G03*
X2809Y1881I-10J140D01*
G01*
X2720Y1840D02*
G03*
X2809Y1881I-10J140D01*
G01*
X6398Y5136D02*
Y6320D01*
X6468Y5136D02*
Y6320D01*
X6171Y5136D02*
X6525D01*
X6328D02*
Y6320D01*
X6525Y5050D02*
X7310D01*
X6525Y4980D02*
X7310D01*
X6525Y5120D02*
X7310D01*
X6188Y5136D02*
Y6320D01*
X6258Y5136D02*
Y6320D01*
X6048Y5136D02*
Y6320D01*
X6109Y5136D02*
X6171D01*
X6118D02*
Y6320D01*
X6109Y5136D02*
X6171D01*
X6525Y4910D02*
X7310D01*
X6958Y2685D02*
Y6320D01*
X6525Y4840D02*
X7310D01*
X6525Y4770D02*
X7310D01*
X6525Y4630D02*
X7310D01*
X6525Y4560D02*
X7310D01*
X6525Y4700D02*
X7310D01*
X6818Y2685D02*
Y6320D01*
X6888Y2685D02*
Y6320D01*
X6748Y2685D02*
Y6320D01*
X6608Y2685D02*
Y6320D01*
X6678Y2685D02*
Y6320D01*
X6525Y4484D02*
Y5136D01*
X4468Y5820D02*
X7310D01*
X4468Y5750D02*
X7310D01*
X4468Y5960D02*
X7310D01*
X4468Y5890D02*
X7310D01*
X4468Y5610D02*
X7310D01*
X4468Y5540D02*
X7310D01*
X4468Y5680D02*
X7310D01*
X4468Y6310D02*
X7310D01*
X4468Y6240D02*
X7310D01*
X4468Y6320D02*
X7310D01*
X4468Y6100D02*
X7310D01*
X4468Y6030D02*
X7310D01*
X4468Y6170D02*
X7310D01*
X4468Y5400D02*
X7310D01*
X4468Y5330D02*
X7310D01*
X4468Y5470D02*
X7310D01*
X4468Y5190D02*
X7310D01*
X5755Y5136D02*
X6109D01*
X4468Y5260D02*
X7310D01*
X5908Y5136D02*
Y6320D01*
X5978Y5136D02*
Y6320D01*
X5838Y5136D02*
Y6320D01*
X5768Y5136D02*
Y6320D01*
X4468Y4700D02*
X5755D01*
X4468Y4630D02*
X5755D01*
X6525Y4490D02*
X7310D01*
X6600Y2685D02*
X6980D01*
X6171Y4484D02*
X6525D01*
X5552Y4000D02*
X7310D01*
X6980Y2670D02*
X7310D01*
X6171Y2656D02*
X6525D01*
X5680Y2670D02*
X6600D01*
X6109Y4484D02*
X6171D01*
X6109D02*
X6171D01*
X5755D02*
X6109D01*
X6398Y2656D02*
Y4484D01*
X6468Y2656D02*
Y4484D01*
X6188Y2656D02*
Y4484D01*
X6258Y2656D02*
Y4484D01*
X6328Y2656D02*
Y4484D01*
X6109Y2656D02*
X6171D01*
X6118D02*
Y4484D01*
X6109Y2656D02*
X6171D01*
X6980Y2600D02*
X7310D01*
X5755Y2656D02*
X6109D01*
X5978D02*
Y4484D01*
X6048Y2656D02*
Y4484D01*
X5908Y2656D02*
Y4484D01*
X5768Y2656D02*
Y4484D01*
X5838Y2656D02*
Y4484D01*
X5680Y2600D02*
X5755D01*
X5552Y3860D02*
X7310D01*
X5552Y3790D02*
X7310D01*
X5552Y4070D02*
X7310D01*
X5552Y3930D02*
X7310D01*
X5552Y3650D02*
X7310D01*
X5552Y3580D02*
X7310D01*
X5552Y3720D02*
X7310D01*
X4468Y4560D02*
X5755D01*
X4468Y4420D02*
X7310D01*
X4458Y4350D02*
X7310D01*
X4400Y4280D02*
X7310D01*
X4351Y4140D02*
X7310D01*
X4325Y4210D02*
X7310D01*
X5545Y3090D02*
X7310D01*
X4988Y2950D02*
X7310D01*
X4918Y3020D02*
X7310D01*
X5128Y2810D02*
X7310D01*
X5198Y2740D02*
X7310D01*
X5058Y2880D02*
X7310D01*
X5552Y3510D02*
X7310D01*
X5552Y3440D02*
X7310D01*
X5545Y3370D02*
X7310D01*
X5545Y3230D02*
X7310D01*
X5545Y3160D02*
X7310D01*
X5545Y3300D02*
X7310D01*
X5418Y4120D02*
Y6320D01*
X5488Y4120D02*
Y6320D01*
X5208Y4120D02*
Y6320D01*
X5348Y4120D02*
Y6320D01*
X5755Y4484D02*
Y5136D01*
X5278Y4120D02*
Y6320D01*
X5122Y4120D02*
X5552D01*
X4788D02*
Y6320D01*
X4858Y4120D02*
Y6320D01*
X4718Y4120D02*
Y6320D01*
X4998Y4120D02*
Y6320D01*
X5138Y4120D02*
Y6320D01*
X4928Y4120D02*
Y6320D01*
X5628Y2685D02*
Y6320D01*
X5698Y2600D02*
Y6320D01*
X5552Y3770D02*
Y4120D01*
X5558Y2685D02*
Y6320D01*
X5122Y3770D02*
Y4120D01*
X5052Y4000D02*
X5122D01*
X4648Y4120D02*
Y6320D01*
X5068Y2870D02*
Y6320D01*
X4622Y4120D02*
X5052D01*
Y4070D02*
X5122D01*
X5052Y3770D02*
Y4120D01*
X4622Y3901D02*
Y4120D01*
X4468Y4980D02*
X5755D01*
X4468Y4910D02*
X5755D01*
X4468Y5120D02*
X5755D01*
X4468Y5050D02*
X5755D01*
X4468Y4770D02*
X5755D01*
X4468Y4490D02*
X5755D01*
X4468Y4840D02*
X5755D01*
X4228Y5284D02*
Y6320D01*
X4468Y4398D02*
Y6320D01*
X4158Y5324D02*
Y6320D01*
X4228Y5284D02*
Y6320D01*
X4140Y5330D02*
X4228D01*
X4578Y3858D02*
Y6320D01*
X4508Y3855D02*
Y6320D01*
X4355Y4235D02*
X4433Y4313D01*
X4438Y3855D02*
Y4319D01*
X4341Y4070D02*
X4622D01*
X4368Y3855D02*
Y4248D01*
X5552Y3390D02*
Y3740D01*
X5545Y3040D02*
Y3390D01*
X5115Y3040D02*
X5545D01*
X5122Y3420D02*
Y3740D01*
X5052Y3580D02*
X5122D01*
X5115Y3040D02*
Y3420D01*
X5418Y2685D02*
Y3040D01*
X5488Y2685D02*
Y3040D01*
X5300Y2685D02*
X5680D01*
Y2600D02*
Y2685D01*
X5755Y2600D02*
Y2656D01*
X5680Y2600D02*
X5755D01*
X5348Y2685D02*
Y3040D01*
X5278Y2660D02*
Y3040D01*
X5138Y2800D02*
Y3040D01*
X5268Y2670D02*
X5300D01*
Y2638D02*
Y2685D01*
X5208Y2730D02*
Y3040D01*
X5052Y3790D02*
X5122D01*
X5052Y3720D02*
X5122D01*
X5052Y3930D02*
X5122D01*
X5052Y3860D02*
X5122D01*
X5052Y3510D02*
X5122D01*
X5052Y3440D02*
X5122D01*
X5052Y3650D02*
X5122D01*
X4334Y4000D02*
X4622D01*
X4352Y3930D02*
X4622D01*
X4335Y3860D02*
X4580D01*
X4575Y3855D02*
X4622Y3901D01*
X4332Y3855D02*
X4575D01*
X5045Y3300D02*
X5115D01*
X5045Y3230D02*
X5115D01*
X5045Y3370D02*
X5115D01*
X5045Y3160D02*
X5115D01*
X5045Y3090D02*
X5115D01*
X4898Y3040D02*
X5300Y2638D01*
X5052Y3390D02*
Y3740D01*
X5045Y3040D02*
Y3390D01*
X4898Y3040D02*
X5045D01*
X4928Y3010D02*
Y3040D01*
X4998Y2940D02*
Y3040D01*
X4088Y2600D02*
Y2820D01*
X6980Y2460D02*
X7310D01*
X6980Y2390D02*
X7310D01*
X6980Y2530D02*
X7310D01*
X6980Y2255D02*
Y2685D01*
Y2180D02*
X7310D01*
X6980Y2110D02*
X7310D01*
X6980Y2320D02*
X7310D01*
X6678Y2185D02*
Y2255D01*
X6748Y2185D02*
Y2255D01*
X6608Y2185D02*
Y2255D01*
X6888Y2185D02*
Y2255D01*
X6958Y2185D02*
Y2255D01*
X6818Y2185D02*
Y2255D01*
X7308Y120D02*
Y6320D01*
X7310Y120D02*
Y6320D01*
X7098Y120D02*
Y6320D01*
X7238Y120D02*
Y6320D01*
X6980Y2040D02*
X7310D01*
X7168Y120D02*
Y6320D01*
X6980Y1970D02*
X7310D01*
X6980Y1755D02*
Y2185D01*
X7028Y120D02*
Y6320D01*
X6525Y2600D02*
X6600D01*
Y2580D02*
Y2685D01*
X6525Y2580D02*
X6600D01*
X6525Y2340D02*
X6600D01*
Y2255D02*
X6980D01*
X6600Y2185D02*
X6980D01*
X6525Y2250D02*
X7310D01*
X6538Y2580D02*
Y6320D01*
X6600Y2255D02*
Y2340D01*
X6525Y2580D02*
Y2656D01*
Y2180D02*
X6600D01*
X6525Y2110D02*
X6600D01*
X6525Y2320D02*
X6600D01*
Y1755D02*
Y2185D01*
X6538Y120D02*
Y2340D01*
X6525Y2004D02*
Y2340D01*
Y2040D02*
X6600D01*
X6393Y2004D02*
X6525D01*
X6360Y1970D02*
X6600D01*
X6398Y120D02*
Y2004D01*
X6468Y120D02*
Y2004D01*
X6315Y1925D02*
X6385Y1995D01*
X5680Y1968D02*
X5724Y1924D01*
X6980Y1900D02*
X7310D01*
X6980Y1830D02*
X7310D01*
X6980Y1760D02*
X7310D01*
X6600Y1755D02*
X6980D01*
X6888Y120D02*
Y1755D01*
X6958Y120D02*
Y1755D01*
X6608Y120D02*
Y1755D01*
X5680D02*
Y1968D01*
X6278Y1900D02*
X6600D01*
X5825Y1890D02*
X6230D01*
X6258Y120D02*
Y1893D01*
X6328Y120D02*
Y1938D01*
X6118Y120D02*
Y1890D01*
X6188Y120D02*
Y1890D01*
X6748Y120D02*
Y1755D01*
X6818Y120D02*
Y1755D01*
X6678Y120D02*
Y1755D01*
X5768Y120D02*
Y1896D01*
X5838Y120D02*
Y1890D01*
X5698Y120D02*
Y1950D01*
X5978Y120D02*
Y1890D01*
X6048Y120D02*
Y1890D01*
X5908Y120D02*
Y1890D01*
X5310Y1550D02*
X7310D01*
X5310Y1480D02*
X7310D01*
X4510Y1690D02*
X7310D01*
X5310Y1620D02*
X7310D01*
X5310Y1340D02*
X7310D01*
X5310Y1270D02*
X7310D01*
X5310Y1410D02*
X7310D01*
X5680Y1830D02*
X6600D01*
X5680Y1760D02*
X6600D01*
X5680Y1900D02*
X5759D01*
X5310Y1755D02*
X5680D01*
X4930Y1695D02*
X5310D01*
X4930Y1625D02*
X5310D01*
Y1200D02*
X7310D01*
X5628Y120D02*
Y1755D01*
X4967Y1130D02*
X7310D01*
X4967Y990D02*
X7310D01*
X4967Y920D02*
X7310D01*
X4967Y1060D02*
X7310D01*
X5488Y120D02*
Y1755D01*
X5558Y120D02*
Y1755D01*
X5418Y120D02*
Y1755D01*
X5310Y1195D02*
Y1625D01*
X5348Y120D02*
Y1755D01*
X4967Y1195D02*
X5310D01*
X5068Y2125D02*
Y2372D01*
X5208Y2125D02*
Y2232D01*
X4967Y2320D02*
X5120D01*
X4967Y2250D02*
X5190D01*
X4967Y2180D02*
X5260D01*
X5278Y2125D02*
Y2162D01*
X4967Y2125D02*
X5300D01*
X4788Y2443D02*
Y2652D01*
X4858Y2443D02*
Y2582D01*
X4718Y2443D02*
Y2722D01*
X4967Y2390D02*
X5050D01*
X4998Y2125D02*
Y2442D01*
X4928Y2443D02*
Y2512D01*
X5138Y2125D02*
Y2302D01*
X4967Y2125D02*
Y2443D01*
X5310Y1695D02*
Y1755D01*
X4930Y1695D02*
Y1791D01*
X4718Y1503D02*
Y1791D01*
X4858Y1550D02*
Y1791D01*
X4928Y1550D02*
Y1791D01*
X4788Y1546D02*
Y1791D01*
X4578Y2443D02*
Y2820D01*
X4648Y2443D02*
Y2792D01*
X4210Y2600D02*
X4840D01*
X4508Y2443D02*
Y2820D01*
X4330Y2530D02*
X4910D01*
X4400Y2460D02*
X4980D01*
X4295Y2565D02*
X4405Y2455D01*
X4298Y2562D02*
Y2820D01*
X4368Y2492D02*
Y2820D01*
X4158Y2600D02*
Y2820D01*
X4228Y2599D02*
Y2820D01*
X4620D02*
X5300Y2140D01*
X4440Y1791D02*
X4930D01*
X4415Y2443D02*
X4967D01*
X4440Y1760D02*
X4930D01*
X4648Y1522D02*
Y1791D01*
X4440Y1760D02*
X4615Y1585D01*
X4508Y1692D02*
Y1791D01*
X4578Y1622D02*
Y1791D01*
X4438Y2443D02*
Y2820D01*
X4440Y1760D02*
Y1791D01*
X4200Y1710D02*
Y1791D01*
X4158Y1503D02*
Y1791D01*
X5208Y1625D02*
Y1695D01*
X5278Y1625D02*
Y1695D01*
X5068Y1625D02*
Y1695D01*
X5138Y1625D02*
Y1695D01*
X4998Y1625D02*
Y1695D01*
X4820Y1550D02*
X4930D01*
X4820D02*
X4930D01*
Y1625D01*
X4639Y1550D02*
X4820D01*
X4998Y120D02*
Y1195D01*
X5068Y120D02*
Y1195D01*
X4967Y850D02*
Y1195D01*
X5208Y120D02*
Y1195D01*
X5278Y120D02*
Y1195D01*
X5138Y120D02*
Y1195D01*
X4858Y120D02*
Y850D01*
X4928Y120D02*
Y850D01*
X4650Y1503D02*
X4723D01*
X4718Y120D02*
Y850D01*
X4788Y120D02*
Y850D01*
X4648Y120D02*
Y850D01*
X4580Y1620D02*
X4930D01*
X4265Y1410D02*
X4353D01*
X4235Y1625D02*
X4357Y1503D01*
X4265Y1480D02*
X4353D01*
X4265Y1060D02*
X4353D01*
X4265Y990D02*
X4353D01*
X4265Y1340D02*
X4353D01*
X4228Y1503D02*
Y1633D01*
X4265Y1200D02*
X4353D01*
X4265Y1130D02*
X4353D01*
X4265Y1270D02*
X4353D01*
X4368Y120D02*
Y850D01*
X4438Y120D02*
Y850D01*
X4265Y920D02*
X4353D01*
X4508Y120D02*
Y850D01*
X4578Y120D02*
Y850D01*
X4353D02*
X4967D01*
X4353D02*
Y1503D01*
X4298Y120D02*
Y1562D01*
X4265Y850D02*
Y1503D01*
X4158Y120D02*
Y850D01*
X4228Y120D02*
Y850D01*
X4088Y120D02*
Y850D01*
X3740Y6240D02*
X4228D01*
X3740Y6195D02*
X4020D01*
X3740Y6320D02*
X4228D01*
X3740Y6310D02*
X4228D01*
X4020Y6100D02*
X4228D01*
X4020Y6030D02*
X4228D01*
X4020Y6170D02*
X4228D01*
X3948Y6195D02*
Y6320D01*
X4018Y6195D02*
Y6320D01*
X3878Y6195D02*
Y6320D01*
X3808Y6195D02*
Y6320D01*
X3740Y6195D02*
Y6320D01*
X4020Y5765D02*
Y6195D01*
X4088Y5339D02*
Y6320D01*
X3388Y5240D02*
Y6320D01*
X4020Y5960D02*
X4228D01*
X4020Y5890D02*
X4228D01*
X3178Y5043D02*
Y6320D01*
X3108Y5031D02*
Y6320D01*
X3038Y5052D02*
Y6320D01*
X3388Y5240D02*
Y6320D01*
X3318Y5170D02*
Y6320D01*
X3248Y5100D02*
Y6320D01*
X2398Y6240D02*
X3388D01*
X2398Y6170D02*
X3388D01*
X2398Y6320D02*
X3388D01*
X2398Y6310D02*
X3388D01*
X2398Y5960D02*
X3388D01*
X2398Y5890D02*
X3388D01*
X2398Y6100D02*
X3388D01*
X529Y6310D02*
X1930D01*
X529Y6100D02*
X1930D01*
X529Y6320D02*
X1930D01*
X529Y6030D02*
X1930D01*
X2398D02*
X3388D01*
X529Y5960D02*
X1930D01*
X2688Y5043D02*
Y6320D01*
X2758Y5031D02*
Y6320D01*
X2618Y5051D02*
Y6320D01*
X2898Y5038D02*
Y6320D01*
X2968Y5038D02*
Y6320D01*
X2828Y5052D02*
Y6320D01*
X2478Y5047D02*
Y6320D01*
X2548Y5022D02*
Y6320D01*
X2408Y5048D02*
Y6320D01*
X2398Y5046D02*
Y6320D01*
X1930Y4762D02*
Y6320D01*
X529Y5890D02*
X1930D01*
X4020Y5820D02*
X4228D01*
X4020Y5680D02*
X4228D01*
X3740Y5765D02*
X4020D01*
X3740Y5750D02*
X4228D01*
X4020Y5540D02*
X4228D01*
X4020Y5470D02*
X4228D01*
X4020Y5610D02*
X4228D01*
X3808Y5695D02*
Y5765D01*
X3878Y5695D02*
Y5765D01*
X3740Y5695D02*
Y5765D01*
X3948Y5695D02*
Y5765D01*
X4018Y5695D02*
Y5765D01*
X3740Y5695D02*
X4020D01*
Y5400D02*
X4228D01*
X4020Y5335D02*
Y5695D01*
X3197Y5048D02*
X3388Y5240D01*
X3055Y5050D02*
X3198D01*
X2858D02*
X3008D01*
X2662D02*
X2811D01*
X2398Y5680D02*
X3388D01*
X2398Y5610D02*
X3388D01*
X2398Y5820D02*
X3388D01*
X2398Y5750D02*
X3388D01*
X2398Y5470D02*
X3388D01*
X2398Y5400D02*
X3388D01*
X2398Y5540D02*
X3388D01*
X529Y5750D02*
X1930D01*
X529Y5680D02*
X1930D01*
X529Y5820D02*
X1930D01*
X1670Y5540D02*
X1930D01*
X1670Y5400D02*
X1930D01*
X529Y5610D02*
X1930D01*
X2398Y5260D02*
X3388D01*
X2398Y5190D02*
X3338D01*
X2398Y5330D02*
X3388D01*
X2465Y5050D02*
X2614D01*
X2398Y5120D02*
X3268D01*
X1670Y5260D02*
X1930D01*
X1670Y5190D02*
X1930D01*
X1670Y5330D02*
X1930D01*
X1833Y4665D02*
X1930Y4762D01*
X1670Y5120D02*
X1930D01*
X1638Y5545D02*
Y6320D01*
X1670Y5115D02*
Y5545D01*
X1320D02*
X1670D01*
X1568D02*
Y6320D01*
X1670Y5470D02*
X1930D01*
X1320Y5115D02*
X1670D01*
X1428Y5545D02*
Y6320D01*
X1498Y5545D02*
Y6320D01*
X1288Y5545D02*
Y6320D01*
X1358Y5545D02*
Y6320D01*
X1918Y4750D02*
Y6320D01*
X1848Y4680D02*
Y6320D01*
X1708Y4580D02*
Y6320D01*
X1778Y4580D02*
Y6320D01*
X1638Y5045D02*
Y5115D01*
X1670Y4615D02*
Y5045D01*
X1320D02*
X1670D01*
X1288D02*
Y5115D01*
X1358Y5045D02*
Y5115D01*
X1218Y5045D02*
Y5115D01*
X1498Y5045D02*
Y5115D01*
X1568Y5045D02*
Y5115D01*
X1428Y5045D02*
Y5115D01*
X1148Y5545D02*
Y6320D01*
X1218Y5545D02*
Y6320D01*
X529Y6240D02*
X1930D01*
X529Y6170D02*
X1930D01*
X940Y5545D02*
X1290D01*
X1008D02*
Y6320D01*
X1078Y5545D02*
Y6320D01*
X529Y5540D02*
X940D01*
X529Y5400D02*
X940D01*
X529Y5330D02*
X940D01*
X529Y5470D02*
X940D01*
X1148Y5045D02*
Y5115D01*
X940D02*
X1290D01*
X940Y5045D02*
X1290D01*
X1078D02*
Y5115D01*
X529Y5050D02*
X1930D01*
X529Y5260D02*
X940D01*
Y5115D02*
Y5545D01*
X529Y5190D02*
X940D01*
X1008Y5045D02*
Y5115D01*
X940Y4615D02*
Y5045D01*
X529Y5120D02*
X940D01*
X1670Y4840D02*
X1930D01*
X1670Y4770D02*
X1930D01*
X1670Y4980D02*
X1930D01*
X1670Y4910D02*
X1930D01*
X1670Y4700D02*
X1868D01*
X1670Y4630D02*
X1809D01*
X1470Y4615D02*
X1670D01*
X529Y4630D02*
X940D01*
X1498Y4580D02*
Y4615D01*
X1568Y4580D02*
Y4615D01*
X940D02*
X1090D01*
X1470Y4580D02*
Y4615D01*
X1638Y4580D02*
Y4615D01*
X1090Y4580D02*
Y4615D01*
X1078Y4580D02*
Y4615D01*
X1470Y4580D02*
X1798D01*
X980D02*
X1090D01*
X1008D02*
Y4615D01*
X529Y3440D02*
X980D01*
X529Y3370D02*
X980D01*
X529Y3230D02*
X980D01*
X529Y2950D02*
X980D01*
X529Y3300D02*
X980D01*
X529Y4350D02*
X980D01*
X529Y4280D02*
X980D01*
X529Y4490D02*
X980D01*
X529Y4420D02*
X980D01*
X529Y4140D02*
X980D01*
X529Y4070D02*
X980D01*
X529Y4210D02*
X980D01*
X529Y4910D02*
X940D01*
X529Y4840D02*
X940D01*
X529Y4980D02*
X940D01*
X529Y4700D02*
X940D01*
X529Y4560D02*
X980D01*
X529Y4770D02*
X940D01*
X529Y3510D02*
X980D01*
X529Y3160D02*
X980D01*
X529Y3580D02*
X980D01*
X529Y3020D02*
X980D01*
X529Y2880D02*
X980D01*
X529Y3090D02*
X980D01*
X529Y3930D02*
X980D01*
X529Y3860D02*
X980D01*
X529Y4000D02*
X980D01*
X529Y3720D02*
X980D01*
X529Y3650D02*
X980D01*
X529Y3790D02*
X980D01*
X3968Y2820D02*
X4620D01*
X4018Y2600D02*
Y2820D01*
X3968Y2810D02*
X4630D01*
X3967Y2740D02*
X4700D01*
X3940Y2670D02*
X4770D01*
X3890Y2600D02*
X4210D01*
X3968Y2757D02*
Y2820D01*
X3948Y2600D02*
Y2682D01*
X3528Y2125D02*
Y2392D01*
X3598Y2125D02*
Y2322D01*
X3653Y2125D02*
Y2267D01*
X3545Y2375D02*
X3653Y2267D01*
X3948Y1503D02*
Y1791D01*
X4018Y1503D02*
Y1791D01*
X3808Y1503D02*
Y1791D01*
X3878Y1503D02*
Y1791D01*
X3660D02*
X4200D01*
X4088Y1503D02*
Y1791D01*
X3660Y1760D02*
X4200D01*
X3660Y1791D02*
Y1830D01*
X3668Y1503D02*
Y1791D01*
X3653Y2070D02*
Y2125D01*
X3660Y1695D02*
Y1791D01*
X3738Y1503D02*
Y1791D01*
X3598Y1625D02*
Y1695D01*
X3226Y2460D02*
X3460D01*
X3342Y2578D02*
X3540Y2380D01*
X3156Y2390D02*
X3530D01*
X3099Y2320D02*
X3600D01*
X3053Y2250D02*
X3653D01*
X3280Y2125D02*
X3653D01*
X2970Y2180D02*
X3653D01*
X3318Y2125D02*
Y2551D01*
X3388Y2125D02*
Y2532D01*
X3107Y2341D02*
X3327Y2561D01*
X3296Y2530D02*
X3390D01*
X3458Y2125D02*
Y2462D01*
X2970Y2110D02*
X3280D01*
X3318Y1625D02*
Y1695D01*
X3388Y1625D02*
Y1695D01*
X2720Y1830D02*
X3280D01*
X3458Y1625D02*
Y1695D01*
X3528Y1625D02*
Y1695D01*
X3280D02*
X3660D01*
X3280D02*
Y2125D01*
X3248Y120D02*
Y2481D01*
X2956Y2040D02*
X3280D01*
X2898Y1970D02*
X3280D01*
X2828Y1900D02*
X3280D01*
X2720Y1760D02*
X3280D01*
X3660Y1503D02*
X4265D01*
X3660Y1620D02*
X4240D01*
X3660Y1550D02*
X4310D01*
X3660Y1503D02*
Y1625D01*
X3280D02*
X3660D01*
X3280Y1195D02*
X3652D01*
X3808Y120D02*
Y850D01*
X3878Y120D02*
Y850D01*
X3668Y120D02*
Y850D01*
X3738Y120D02*
Y850D01*
X3948Y120D02*
Y850D01*
X4018Y120D02*
Y850D01*
X3652D02*
X4265D01*
X3388Y120D02*
Y1195D01*
X3458Y120D02*
Y1195D01*
X3318Y120D02*
Y1195D01*
X3652Y850D02*
Y1195D01*
X3598Y120D02*
Y1195D01*
X3528Y120D02*
Y1195D01*
X2720Y1690D02*
X4202D01*
X2720Y1550D02*
X3280D01*
X2050Y1480D02*
X3280D01*
X2050Y1130D02*
X3652D01*
X2050Y990D02*
X3652D01*
X2050Y920D02*
X3652D01*
X2050Y1060D02*
X3652D01*
X2720Y1620D02*
X3280D01*
Y1195D02*
Y1625D01*
X2050Y1410D02*
X3280D01*
X2050Y1270D02*
X3280D01*
X2050Y1200D02*
X3280D01*
X2050Y1340D02*
X3280D01*
X529Y360D02*
X7310D01*
X529Y290D02*
X7310D01*
X529Y430D02*
X7310D01*
X529Y150D02*
X7310D01*
X529Y120D02*
X7310D01*
X529Y220D02*
X7310D01*
X2050Y850D02*
X7310D01*
X1820Y780D02*
X7310D01*
X1820Y710D02*
X7310D01*
X1820Y570D02*
X7310D01*
X1820Y500D02*
X7310D01*
X1820Y640D02*
X7310D01*
X2970Y2100D02*
Y2191D01*
X2809Y1881D02*
X2929Y2001D01*
X980Y1600D02*
Y4580D01*
X938Y1600D02*
Y6320D01*
X2370Y1515D02*
X2720D01*
X3108Y120D02*
Y2341D01*
X3178Y120D02*
Y2411D01*
X2968Y120D02*
Y2076D01*
X3038Y120D02*
Y2235D01*
X2828Y120D02*
Y1900D01*
X2898Y120D02*
Y1970D01*
X2758Y120D02*
Y1848D01*
X2720Y1515D02*
Y1840D01*
X2688Y120D02*
Y1515D01*
X2618Y120D02*
Y1515D01*
X2058Y120D02*
Y1515D01*
X2268Y120D02*
Y1515D01*
X2050Y830D02*
Y1515D01*
X529Y2250D02*
X980D01*
X529Y2180D02*
X980D01*
X529Y2390D02*
X980D01*
X529Y2320D02*
X980D01*
X529Y2040D02*
X980D01*
X529Y1970D02*
X980D01*
X529Y2110D02*
X980D01*
X529Y2740D02*
X980D01*
X529Y2670D02*
X980D01*
X529Y2810D02*
X980D01*
X529Y2530D02*
X980D01*
X529Y2460D02*
X980D01*
X529Y2600D02*
X980D01*
X529Y1830D02*
X980D01*
X529Y1760D02*
X980D01*
X529Y1900D02*
X980D01*
X529Y1620D02*
X980D01*
X529Y1600D02*
X980D01*
X529Y1690D02*
X980D01*
X588Y1600D02*
Y6320D01*
X658Y1600D02*
Y6320D01*
X529Y1600D02*
Y6320D01*
X798Y1600D02*
Y6320D01*
X868Y1600D02*
Y6320D01*
X728Y1600D02*
Y6320D01*
X2478Y120D02*
Y1515D01*
X2548Y120D02*
Y1515D01*
X2050D02*
X2340D01*
X2198Y120D02*
Y1515D01*
X1918Y120D02*
Y830D01*
X1988Y120D02*
Y830D01*
X1820D02*
X2050D01*
X1820Y465D02*
Y830D01*
X1440Y465D02*
Y830D01*
Y465D02*
X1820D01*
X2338Y120D02*
Y1515D01*
X2408Y120D02*
Y1515D01*
X2128Y120D02*
Y1515D01*
X1778Y120D02*
Y465D01*
X1848Y120D02*
Y830D01*
X1708Y120D02*
Y465D01*
X1358Y120D02*
Y830D01*
X1428Y120D02*
Y830D01*
X1288Y120D02*
Y830D01*
X1568Y120D02*
Y465D01*
X1638Y120D02*
Y465D01*
X1498Y120D02*
Y465D01*
X529Y1130D02*
X980D01*
Y830D02*
X1440D01*
X529Y1060D02*
X980D01*
X529Y780D02*
X1440D01*
X529Y640D02*
X1440D01*
X529Y570D02*
X1440D01*
X529Y710D02*
X1440D01*
X529Y1220D02*
X980D01*
Y830D02*
Y1220D01*
X529Y1200D02*
X980D01*
X529Y920D02*
X980D01*
X529Y850D02*
X980D01*
X529Y990D02*
X980D01*
X1008Y120D02*
Y830D01*
X1078Y120D02*
Y830D01*
X938Y120D02*
Y1220D01*
X1148Y120D02*
Y830D01*
X1218Y120D02*
Y830D01*
X529Y500D02*
X1440D01*
X588Y120D02*
Y1220D01*
X658Y120D02*
Y1220D01*
X529Y120D02*
Y1220D01*
X798Y120D02*
Y1220D01*
X868Y120D02*
Y1220D01*
X728Y120D02*
Y1220D01*
D11*
X3819Y4795D02*
D03*
X3228Y2865D02*
D03*
X3032D02*
D03*
X3819D02*
D03*
X2441Y4795D02*
D03*
X2638D02*
D03*
X2835D02*
D03*
X3032D02*
D03*
X3228D02*
D03*
X3425D02*
D03*
X3622D02*
D03*
X2441Y2865D02*
D03*
X2638D02*
D03*
X2835D02*
D03*
X3425D02*
D03*
X3622D02*
D03*
D12*
X3130Y3830D02*
D03*
D13*
X2165Y4125D02*
D03*
X4095D02*
D03*
X2165Y4322D02*
D03*
Y4519D02*
D03*
X4095Y3141D02*
D03*
Y4322D02*
D03*
Y3928D02*
D03*
Y3338D02*
D03*
Y3535D02*
D03*
Y3732D02*
D03*
Y4519D02*
D03*
X2165Y3928D02*
D03*
Y3732D02*
D03*
Y3535D02*
D03*
Y3338D02*
D03*
Y3141D02*
D03*
D14*
X6790Y2470D02*
D03*
Y1970D02*
D03*
X5490Y2470D02*
D03*
Y1970D02*
D03*
X5120Y1910D02*
D03*
Y1410D02*
D03*
X3470D02*
D03*
Y1910D02*
D03*
X2530Y2230D02*
D03*
Y1730D02*
D03*
X1630Y3880D02*
D03*
Y3380D02*
D03*
X1280Y4430D02*
D03*
Y3930D02*
D03*
X1480Y5330D02*
D03*
Y4830D02*
D03*
X1130Y5330D02*
D03*
Y4830D02*
D03*
X1630Y2980D02*
D03*
Y2480D02*
D03*
Y1580D02*
D03*
Y2080D02*
D03*
Y1180D02*
D03*
Y680D02*
D03*
X3830Y5980D02*
D03*
Y5480D02*
D03*
X2180Y2230D02*
D03*
Y1730D02*
D03*
D15*
X6317Y2330D02*
D03*
X5963D02*
D03*
Y4810D02*
D03*
X6317D02*
D03*
D16*
X5337Y3930D02*
D03*
X4837D02*
D03*
X5337Y3580D02*
D03*
X4837D02*
D03*
X5330Y3230D02*
D03*
X4830D02*
D03*
D17*
X4660Y2117D02*
D03*
X3960D02*
D03*
X4660Y1177D02*
D03*
X3959D02*
D03*
D18*
X5337Y3930D02*
Y4080D01*
Y3930D02*
X5512D01*
X5162D02*
X5337D01*
Y3580D02*
X5512D01*
X5330Y3230D02*
X5505D01*
X5162Y3580D02*
X5337D01*
X5155Y3230D02*
X5330D01*
Y3080D02*
Y3230D01*
X6790Y1970D02*
Y2145D01*
Y1970D02*
X6940D01*
X6790Y1795D02*
Y1970D01*
X6640D02*
X6790D01*
X5490D02*
X5640D01*
X5490Y1795D02*
Y1970D01*
X5120Y1910D02*
Y2085D01*
X4660Y2117D02*
X4927D01*
X5120Y1735D02*
Y1910D01*
X4660Y1831D02*
Y2117D01*
Y2403D01*
X3830Y5980D02*
Y6155D01*
Y5805D02*
Y5980D01*
X3980D01*
X4095Y4125D02*
X4312D01*
X4095Y3928D02*
X4312D01*
X3032Y4795D02*
Y5012D01*
X1480Y5330D02*
X1630D01*
X1480D02*
Y5505D01*
Y5155D02*
Y5330D01*
X980D02*
X1130D01*
Y5505D01*
Y5155D02*
Y5330D01*
X3959Y1177D02*
Y1463D01*
Y1177D02*
X4225D01*
X3959Y890D02*
Y1177D01*
X3692D02*
X3959D01*
X3470Y1410D02*
Y1585D01*
X3320Y1410D02*
X3470D01*
Y1235D02*
Y1410D01*
X2180Y1555D02*
Y1730D01*
X2530D02*
X2680D01*
X2530Y1555D02*
Y1730D01*
X1630Y680D02*
X1780D01*
X1480D02*
X1630D01*
Y505D02*
Y680D01*
X2710Y1980D02*
X2830Y2100D01*
X2290Y1980D02*
X2710D01*
X2210Y2060D02*
X2290Y1980D01*
X3810Y5270D02*
Y5480D01*
Y5270D02*
X3990Y5090D01*
X4145Y3341D02*
X4669D01*
X2860Y2420D02*
X2988D01*
X2830Y2100D02*
Y2910D01*
X2210Y2060D02*
Y2230D01*
X3230Y2865D02*
X3230Y2870D01*
X3228Y2660D02*
X3230Y2865D01*
X2988Y2420D02*
X3228Y2660D01*
X3820Y4810D02*
Y4920D01*
X3990Y5090D01*
X3030Y4290D02*
Y4860D01*
X3660Y3920D02*
X4140D01*
X3620Y4120D02*
X4110D01*
X3430Y4430D02*
Y4880D01*
X1630Y1200D02*
Y1560D01*
X1620Y1190D02*
X1630Y1200D01*
X1280Y1400D02*
X1630D01*
X3740Y4430D02*
X3830Y4520D01*
X4090D01*
X2642Y3338D02*
X2660Y3320D01*
X2165Y3338D02*
X2642D01*
X2640Y2900D02*
Y3260D01*
X1280Y3930D02*
X1630D01*
X1640Y3920D01*
X1630Y2090D02*
Y2500D01*
X1620Y2080D02*
X1630Y2090D01*
X1617Y3380D02*
X1778Y3541D01*
X1620Y2990D02*
X1630Y3000D01*
Y3380D01*
X2200Y2320D02*
Y3106D01*
X1778Y3541D02*
X2158D01*
X1617Y3880D02*
X1759Y3738D01*
X2158D01*
X1600Y1530D02*
X1620Y1550D01*
D19*
X5288Y2480D02*
X5490D01*
X5808Y2010D02*
X6230D01*
X6300Y2080D01*
X5608Y2210D02*
X5809Y2009D01*
X5400Y2210D02*
X5608D01*
X4348Y4398D02*
Y6330D01*
X4270Y4320D02*
X4348Y4398D01*
X3508Y5190D02*
Y6330D01*
X3230Y4800D02*
Y4912D01*
X3508Y5190D01*
X2278Y4932D02*
Y6330D01*
Y4932D02*
X2430Y4780D01*
X1918Y4260D02*
Y4580D01*
X2050Y4712D01*
X3620Y4790D02*
Y6330D01*
X2810Y2480D02*
X2870Y2420D01*
X4670Y2940D02*
X5400Y2210D01*
X4718Y3050D02*
X5288Y2480D01*
X2165Y4519D02*
Y6330D01*
X2050Y4712D02*
Y6330D01*
X2053Y4125D02*
X2165D01*
X1918Y4260D02*
X2053Y4125D01*
X3810Y2900D02*
X3850Y2940D01*
X4670D01*
X4360Y3050D02*
X4718D01*
X4270Y3140D02*
X4360Y3050D01*
X4060Y3140D02*
X4270D01*
X4080Y4320D02*
X4270D01*
X4070Y4330D02*
X4080Y4320D01*
X4530Y1330D02*
Y1500D01*
X1970Y3930D02*
X2170D01*
X1120Y4830D02*
X1460D01*
X1280Y4430D02*
X1470D01*
X1460Y4830D02*
X1470Y4840D01*
X1290Y4440D02*
Y4830D01*
X1470Y4430D02*
X1970Y3930D01*
X3620Y2700D02*
Y2890D01*
X4320Y1710D02*
X4530Y1500D01*
X4320Y1710D02*
Y2370D01*
X4210Y2480D02*
X4320Y2370D01*
X3420Y2670D02*
Y2870D01*
X3630Y2460D02*
X3850Y2240D01*
X2430Y2280D02*
X2540Y2170D01*
X2430Y2280D02*
Y2380D01*
Y2870D01*
X2420Y2880D02*
X2430Y2870D01*
X5960Y2480D02*
X5980Y2460D01*
X5510Y2480D02*
X5960D01*
X6340Y2380D02*
X6420Y2460D01*
X6780D01*
X6300Y2080D02*
Y2160D01*
X3850Y1950D02*
X4010Y2110D01*
X4700Y1310D02*
X4820Y1430D01*
X5140D01*
X3510Y1950D02*
X3850D01*
X4780Y3230D02*
X4837D01*
X2035Y3935D02*
X2158D01*
Y3147D02*
X2200Y3106D01*
X4669Y3341D02*
X4780Y3230D01*
X4825Y3592D02*
X4837Y3580D01*
X4412Y3592D02*
X4825D01*
X4820Y3930D02*
X4837D01*
X4625Y3735D02*
X4820Y3930D01*
X4145Y3735D02*
X4625D01*
X4358Y3538D02*
X4412Y3592D01*
X4145Y3538D02*
X4358D01*
X2790Y2480D02*
X2810D01*
X3420Y2670D02*
X3625Y2465D01*
X3620Y2700D02*
X3840Y2480D01*
X4210D01*
X3460Y1900D02*
X3510Y1950D01*
D20*
X350Y1410D02*
X1540D01*
D21*
X4680Y350D02*
D03*
X7060D02*
D03*
X7050Y3740D02*
D03*
X7020Y6090D02*
D03*
X4660Y6060D02*
D03*
X2860Y6070D02*
D03*
X4100Y5750D02*
D03*
X700Y910D02*
D03*
X720Y4400D02*
D03*
Y3240D02*
D03*
X730Y1980D02*
D03*
X4810Y4350D02*
D03*
X6790Y1590D02*
D03*
X2630Y5240D02*
D03*
X5760Y3400D02*
D03*
X5350Y2860D02*
D03*
X1310Y5680D02*
D03*
X4070Y5090D02*
D03*
X3480Y1040D02*
D03*
X4540Y3320D02*
D03*
X3110Y2060D02*
D03*
X1620Y330D02*
D03*
X650Y6090D02*
D03*
X3130Y5240D02*
D03*
X4670Y4910D02*
D03*
X2550Y1340D02*
D03*
X2200D02*
D03*
X5480Y1590D02*
D03*
X5760Y3760D02*
D03*
X2870Y2420D02*
D03*
X4330Y2690D02*
D03*
X1790Y4930D02*
D03*
D22*
X3602Y4302D02*
D03*
Y3830D02*
D03*
X3130D02*
D03*
Y4302D02*
D03*
X3602Y3358D02*
D03*
X3130D02*
D03*
X2658Y3830D02*
D03*
Y4302D02*
D03*
Y3358D02*
D03*
M02*
