%FSLAX24Y24*%
%MOIN*%
G70*
G01*
G75*
G04 Layer_Color=8388736*
%ADD10C,0.0080*%
%ADD11O,0.0118X0.0335*%
%ADD12R,0.1457X0.1457*%
%ADD13O,0.0335X0.0118*%
%ADD14R,0.0200X0.0250*%
%ADD15R,0.0236X0.0472*%
%ADD16R,0.0250X0.0200*%
%ADD17R,0.0433X0.0472*%
%ADD18C,0.0100*%
%ADD19C,0.0060*%
%ADD20C,0.0200*%
%ADD21C,0.0320*%
%ADD22C,0.0240*%
%ADD23C,0.0098*%
%ADD24C,0.0050*%
%ADD25C,0.0079*%
%ADD26O,0.0178X0.0395*%
%ADD27O,0.0395X0.0178*%
%ADD28R,0.0280X0.0330*%
%ADD29R,0.0316X0.0552*%
%ADD30R,0.0330X0.0280*%
%ADD31R,0.0513X0.0552*%
D12*
X3130Y3830D02*
D03*
D26*
X3819Y4795D02*
D03*
X3228Y2865D02*
D03*
X3032D02*
D03*
X3819D02*
D03*
X2441Y4795D02*
D03*
X2638D02*
D03*
X2835D02*
D03*
X3032D02*
D03*
X3228D02*
D03*
X3425D02*
D03*
X3622D02*
D03*
X2441Y2865D02*
D03*
X2638D02*
D03*
X2835D02*
D03*
X3425D02*
D03*
X3622D02*
D03*
D27*
X2165Y4125D02*
D03*
X4095D02*
D03*
X2165Y4322D02*
D03*
Y4519D02*
D03*
X4095Y3141D02*
D03*
Y4322D02*
D03*
Y3928D02*
D03*
Y3338D02*
D03*
Y3535D02*
D03*
Y3732D02*
D03*
Y4519D02*
D03*
X2165Y3928D02*
D03*
Y3732D02*
D03*
Y3535D02*
D03*
Y3338D02*
D03*
Y3141D02*
D03*
D28*
X6790Y2470D02*
D03*
Y1970D02*
D03*
X5490Y2470D02*
D03*
Y1970D02*
D03*
X5120Y1910D02*
D03*
Y1410D02*
D03*
X3470D02*
D03*
Y1910D02*
D03*
X2530Y2230D02*
D03*
Y1730D02*
D03*
X1630Y3880D02*
D03*
Y3380D02*
D03*
X1280Y4430D02*
D03*
Y3930D02*
D03*
X1480Y5330D02*
D03*
Y4830D02*
D03*
X1130Y5330D02*
D03*
Y4830D02*
D03*
X1630Y2980D02*
D03*
Y2480D02*
D03*
Y1580D02*
D03*
Y2080D02*
D03*
Y1180D02*
D03*
Y680D02*
D03*
X3830Y5980D02*
D03*
Y5480D02*
D03*
X2180Y2230D02*
D03*
Y1730D02*
D03*
D29*
X6317Y2330D02*
D03*
X5963D02*
D03*
Y4810D02*
D03*
X6317D02*
D03*
D30*
X5337Y3930D02*
D03*
X4837D02*
D03*
X5337Y3580D02*
D03*
X4837D02*
D03*
X5330Y3230D02*
D03*
X4830D02*
D03*
D31*
X4660Y2117D02*
D03*
X3960D02*
D03*
X4660Y1177D02*
D03*
X3959D02*
D03*
M02*
