*
*
G04 PADS Layout (Build Number 2006.45.1) generated Gerber (RS-274-X) file*
G04 PC Version=2.1*
*
%IN "DC1276B.pcb"*%
*
%MOIN*%
*
%FSLAX35Y35*%
*
*
*
*
G04 PC Standard Apertures*
*
*
G04 Thermal Relief Aperture macro.*
%AMTER*
1,1,$1,0,0*
1,0,$1-$2,0,0*
21,0,$3,$4,0,0,45*
21,0,$3,$4,0,0,135*
%
*
*
G04 Annular Aperture macro.*
%AMANN*
1,1,$1,0,0*
1,0,$2,0,0*
%
*
*
G04 Odd Aperture macro.*
%AMODD*
1,1,$1,0,0*
1,0,$1-0.005,0,0*
%
*
*
G04 PC Custom Aperture Macros*
*
*
*
*
*
*
G04 PC Aperture Table*
*
%ADD010C,0.01*%
%ADD012C,0.15*%
%ADD032C,0.015*%
%ADD034C,0.012*%
%ADD036C,0.008*%
%ADD037C,0.05*%
%ADD038C,0.024*%
%ADD040C,0.025*%
%ADD082R,0.055X0.055*%
%ADD083C,0.055*%
%ADD119C,0.11*%
%ADD141C,0.28*%
%ADD211C,0.045*%
*
*
*
*
G04 PC Copper Outlines (0)*
G04 Layer Name DC1276B.pcb - dark (0)*
%LPD*%
*
*
G04 PC Area=ANP000188*
G75*
G36*
G01*
X2148600Y1479685D02*
Y1776885D01*
X1851400D01*
Y1479685D01*
X2148600D01*
G37*
G74*
*
*
G04 PC Void Outlines (0)*
G04 Layer Name DC1276B.pcb - clear (0)*
%LPC*%
*
*
G04 PC Area=ANP000188*
G75*
G36*
G01*
X2142500Y1766385D02*
G03*
X2142500I0J4400D01*
G37*
G74*
*
G75*
G36*
G01*
X2127500Y1564885D02*
G03*
X2127500I0J8400D01*
G37*
G74*
*
G75*
G36*
G01*
Y1602385D02*
G03*
X2127500I0J8400D01*
G37*
G74*
*
G75*
G36*
G01*
Y1674885D02*
G03*
X2127500I0J8400D01*
G37*
G74*
*
G75*
G36*
G01*
X2114100Y1694685D02*
Y1543137D01*
G02*
X2113573Y1541864I-1800J-0D01*
G01*
X2108461Y1536753D01*
G02*
X2107334Y1540717I-3461J1158D01*
G01*
X2110500Y1543883D01*
Y1693939D01*
X2065750Y1738690D01*
G02*
X2068295Y1741235I150J2395D01*
G01*
X2113573Y1695958D01*
G02*
X2114100Y1694685I-1273J-1273D01*
G37*
G74*
*
G75*
G36*
G01*
X2050000Y1721635D02*
G03*
X2050000I0J3650D01*
G37*
G74*
*
G75*
G36*
G01*
Y1729535D02*
G03*
X2050000I0J3650D01*
G37*
G74*
*
G75*
G36*
G01*
Y1737435D02*
G03*
X2050000I0J3650D01*
G37*
G74*
*
G75*
G36*
G01*
X2039914Y1729645D02*
G02*
X2042346Y1726985I2386J-260D01*
G01*
X2028673Y1713312D01*
G02*
X2027400Y1712785I-1273J1273D01*
G01*
X2020487D01*
G02*
X2017100Y1712997I-1587J1800D01*
G01*
Y1652485D01*
G02*
X2016573Y1651212I-1800J0D01*
G01*
X2007700Y1642339D01*
Y1641885D01*
G02*
X2007173Y1640612I-1800J0D01*
G01*
X2005677Y1639117D01*
G02*
X2002090Y1636435I-1277J-2032D01*
X2000426Y1640878I-490J2350D01*
X2004228Y1643751I2074J1207D01*
X2004627Y1644358I1672J-666D01*
G01*
X2013500Y1653231D01*
Y1717139D01*
X2000972Y1729667D01*
G02*
X1996482Y1734157I-972J3518D01*
G01*
X1992827Y1737812D01*
G02*
X1992300Y1739085I1273J1273D01*
G01*
Y1749885D01*
G02*
X1992827Y1751158I1800J0D01*
G01*
X1994384Y1752715D01*
G02*
X1996930Y1750169I5616J3070D01*
G01*
X1995900Y1749139D01*
Y1739831D01*
X1996661Y1739069D01*
G02*
X1997984Y1737746I3339J2016D01*
G01*
X1999028Y1736703D01*
G02*
X2003518Y1732213I972J-3518D01*
G01*
X2016573Y1719158D01*
G02*
X2017100Y1717885I-1273J-1273D01*
G01*
Y1716173D01*
G02*
X2020487Y1716385I1800J-1588D01*
G01*
X2026654D01*
X2039914Y1729645D01*
G37*
G74*
*
G75*
G36*
G01*
X2044384Y1752715D02*
G02*
X2046930Y1750169I5616J3070D01*
G01*
X2044200Y1747439D01*
Y1738372D01*
G02*
X2040600I-1800J-1587D01*
G01*
Y1748185D01*
G02*
X2041127Y1749458I1800J0D01*
G01*
X2044384Y1752715D01*
G37*
G74*
*
G75*
G36*
G01*
X2033000Y1730885D02*
G03*
X2033000I0J2400D01*
G37*
G74*
*
G75*
G36*
G01*
X1947500Y1749385D02*
G03*
X1947500I0J6400D01*
G37*
G74*
*
G75*
G36*
G01*
X1872500Y1664385D02*
G03*
X1872500I0J6400D01*
G37*
G74*
*
G75*
G36*
G01*
Y1704385D02*
G03*
X1872500I0J6400D01*
G37*
G74*
*
G75*
G36*
G01*
X1857500Y1481385D02*
G03*
X1857500I0J4400D01*
G37*
G74*
*
G75*
G36*
G01*
X1982750Y1637480D02*
G02*
X1980205Y1634935I-150J-2395D01*
G01*
X1946054Y1669085D01*
X1913487D01*
G02*
Y1672685I-1587J1800D01*
G01*
X1946800D01*
G02*
X1948073Y1672158I0J-1800D01*
G01*
X1982750Y1637480D01*
G37*
G74*
*
G75*
G36*
G01*
X1898780Y1552715D02*
G02*
X1902665Y1545385I1820J-3730D01*
X1902480Y1538085I-2065J-3600D01*
X1898720I-1880J-3700D01*
X1898535Y1545385I1880J3700D01*
X1896767Y1550576I2065J3600D01*
X1895500Y1550335I-1267J3209D01*
G01*
X1892000D01*
G02*
X1888550Y1553785I0J3450D01*
G01*
Y1557285D01*
G02*
X1892000Y1560735I3450J0D01*
G01*
X1892050D01*
Y1600556D01*
X1884221Y1608385D01*
X1880137D01*
G02*
Y1615285I-1337J3450D01*
G01*
X1885650D01*
G02*
X1888090Y1614275I0J-3450D01*
G01*
X1897940Y1604425D01*
G02*
X1898950Y1601985I-2440J-2440D01*
G01*
Y1557285D01*
Y1553785D01*
G02*
X1898780Y1552715I-3450J0D01*
G37*
G74*
*
G75*
G36*
G01*
X1985413Y1628585D02*
G02*
Y1624985I1587J-1800D01*
G01*
X1945000D01*
G02*
X1943727Y1625512I0J1800D01*
G01*
X1903727Y1665512D01*
G02*
X1903200Y1666785I1273J1273D01*
G01*
Y1709198D01*
G02*
X1906800I1800J1587D01*
G01*
Y1667531D01*
X1945746Y1628585D01*
X1985413D01*
G37*
G74*
*
G75*
G36*
G01*
X1905000Y1723185D02*
G03*
X1905000I0J2400D01*
G37*
G74*
*
G75*
G36*
G01*
X1872264Y1534474D02*
G03*
X1872264I-0J2650D01*
G37*
G74*
*
G75*
G36*
G01*
Y1551796D02*
G03*
X1872264I-0J2650D01*
G37*
G74*
*
G75*
G36*
G01*
X1998808Y1728735D02*
G02*
Y1721835I1192J-3450D01*
G01*
X1987600D01*
G02*
X1985160Y1722845I0J3450D01*
G01*
X1970371Y1737635D01*
X1948692D01*
G02*
X1946308I-1192J3450D01*
G01*
X1898850D01*
Y1648685D01*
G02*
X1897840Y1646245I-3450J0D01*
G01*
X1880355Y1628761D01*
G02*
X1875476Y1633640I-7855J-2976D01*
G01*
X1891950Y1650114D01*
Y1741085D01*
G02*
X1895400Y1744535I3450J0D01*
G01*
X1946308D01*
G02*
X1948692I1192J-3450D01*
G01*
X1971800D01*
G02*
X1974240Y1743525I0J-3450D01*
G01*
X1989029Y1728735D01*
X1998808D01*
G37*
G74*
*
G75*
G36*
G01*
X2046930Y1506401D02*
G02*
X2044384Y1503855I3070J-5616D01*
G01*
X2043827Y1504412D01*
G02*
X2043300Y1505685I1273J1273D01*
G01*
Y1525885D01*
G02*
X2043827Y1527158I1800J0D01*
G01*
X2046482Y1529813D01*
G02*
X2049028Y1527267I3518J972D01*
G01*
X2047984Y1526224D01*
G02*
X2046900Y1520519I2016J-3339D01*
G01*
Y1506431D01*
X2046930Y1506401D01*
G37*
G74*
*
G75*
G36*
G01*
X1996930D02*
G02*
X1994384Y1503855I3070J-5616D01*
G01*
X1993027Y1505212D01*
G02*
X1992500Y1506485I1273J1273D01*
G01*
Y1525085D01*
G02*
X1993027Y1526358I1800J0D01*
G01*
X1996482Y1529813D01*
G02*
X1999028Y1527267I3518J972D01*
G01*
X1997984Y1526224D01*
G02*
X1996100Y1522867I2016J-3339D01*
G01*
Y1507231D01*
X1996930Y1506401D01*
G37*
G74*
*
G75*
G36*
G01*
X2108650Y1556409D02*
Y1550909D01*
G02*
X2107750Y1550009I-900J0D01*
G01*
X2102250D01*
G02*
X2101684Y1550209I0J900D01*
G01*
X2086803D01*
X2072840Y1536245D01*
G02*
X2070400Y1535235I-2440J2440D01*
G01*
X2051192D01*
G02*
X2048808I-1192J3450D01*
G01*
X2001192D01*
G02*
X1998808I-1192J3450D01*
G01*
X1948692D01*
G02*
Y1542135I-1192J3450D01*
G01*
X1997550D01*
Y1557370D01*
X1994400Y1560520D01*
Y1546372D01*
G02*
X1990800I-1800J-1587D01*
G01*
Y1607052D01*
G02*
X1989850Y1606790I-1100J2133D01*
G01*
X1943500Y1560439D01*
Y1537331D01*
X1946528Y1534303D01*
G02*
Y1527267I972J-3518D01*
G01*
X1945484Y1526224D01*
G02*
X1944161Y1524901I2016J-3339D01*
G01*
X1943100Y1523839D01*
Y1507731D01*
X1944430Y1506401D01*
G02*
X1941884Y1503855I3070J-5616D01*
G01*
X1940027Y1505712D01*
G02*
X1939500Y1506985I1273J1273D01*
G01*
Y1524585D01*
G02*
X1940027Y1525858I1800J0D01*
G01*
X1943982Y1529813D01*
G02*
Y1531757I3518J972D01*
G01*
X1940427Y1535312D01*
G02*
X1939900Y1536585I1273J1273D01*
G01*
Y1561185D01*
G02*
X1940427Y1562458I1800J0D01*
G01*
X1987305Y1609335D01*
G02*
X1990800Y1611318I2395J-150D01*
G01*
Y1619585D01*
G02*
X1990900Y1620177I1800J0D01*
G01*
Y1628738D01*
G02*
X1989479Y1633301I-500J2347D01*
X1986805Y1635535I-279J2384D01*
G01*
X1954527Y1667812D01*
G02*
X1954000Y1669085I1273J1273D01*
G01*
Y1724139D01*
X1950839Y1727301D01*
G02*
X1949516Y1728624I-3339J-2016D01*
G01*
X1948472Y1729667D01*
G02*
X1951018Y1732213I-972J3518D01*
G01*
X1957073Y1726158D01*
G02*
X1957600Y1724885I-1273J-1273D01*
G01*
Y1669831D01*
X1989350Y1638080D01*
G02*
X1990000Y1637948I-150J-2395D01*
G01*
Y1695785D01*
G02*
X1990527Y1697058I1800J0D01*
G01*
X2008552Y1715083D01*
G02*
X2010750Y1712190I2348J-498D01*
G01*
X1993600Y1695039D01*
Y1637948D01*
G02*
X1996100Y1633991I800J-2263D01*
G01*
Y1631485D01*
G02*
X1995602Y1630283I-1700J0D01*
G01*
X1994300Y1628981D01*
Y1620177D01*
G02*
X1994400Y1619585I-1700J-592D01*
G01*
Y1618250D01*
X1995568Y1619417D01*
X2000968Y1624817D01*
G02*
X2002700Y1625535I1732J-1732D01*
G01*
X2007468D01*
X2010947Y1629097D01*
G02*
X2014453Y1625673I1753J-1712D01*
G01*
X2010253Y1621373D01*
G02*
X2008500Y1620635I-1753J1712D01*
G01*
X2006604D01*
G02*
X2002095Y1619015I-2204J-950D01*
G01*
X1999032Y1615953D01*
X1998250Y1615170D01*
Y1610329D01*
G02*
X2000687Y1609885I850J-2244D01*
G01*
X2005900D01*
G02*
X2007173Y1609358I0J-1800D01*
G01*
X2023746Y1592785D01*
X2038800D01*
G02*
X2040073Y1592258I0J-1800D01*
G01*
X2061673Y1570658D01*
G02*
X2062200Y1569385I-1273J-1273D01*
G01*
Y1546972D01*
G02*
X2058600I-1800J-1587D01*
G01*
Y1568639D01*
X2038054Y1589185D01*
X2023000D01*
G02*
X2021727Y1589712I0J1800D01*
G01*
X2005154Y1606285D01*
X2000687D01*
G02*
X1998250Y1605841I-1587J1800D01*
G01*
Y1563600D01*
X2001732Y1560117D01*
G02*
X2002450Y1558385I-1732J-1732D01*
G01*
Y1542135D01*
X2048808D01*
G02*
X2051192I1192J-3450D01*
G01*
X2068971D01*
X2082934Y1556099D01*
G02*
X2085374Y1557109I2440J-2440D01*
G01*
X2101684D01*
G02*
X2102250Y1557309I566J-700D01*
G01*
X2107750D01*
G02*
X2108650Y1556409I0J-900D01*
G37*
G74*
*
*
G04 PC Copper Outlines (1)*
G04 Layer Name DC1276B.pcb - dark (1)*
%LPD*%
*
*
G04 PC Area=ANP000187*
G75*
G36*
G01*
X1996100Y1522903D02*
G02*
X1996661Y1524901I3900J-18D01*
G01*
X1996100Y1524339D01*
Y1522903D01*
G37*
G74*
*
*
G04 PC Copper Outlines (2)*
G04 Layer Name DC1276B.pcb - dark (2)*
%LPD*%
*
*
G04 PC Area=Custom_Thermal*
*
G04 PC Custom Flashes*
G04 Layer Name DC1276B.pcb - flashes*
%LPD*%
*
*
G04 PC Circuitry*
G04 Layer Name DC1276B.pcb - circuitry*
%LPD*%
*
G54D10*
G01X1852500Y1431035D02*
Y1425785D01*
Y1431035D02*
X1853773D01*
X1854318Y1430785*
X1854682Y1430285*
X1854864Y1429785*
X1855045Y1429035*
Y1427785*
X1854864Y1427035*
X1854682Y1426535*
X1854318Y1426035*
X1853773Y1425785*
X1852500*
X1856682Y1427785D02*
X1858864D01*
Y1428285*
X1858682Y1428785*
X1858500Y1429035*
X1858136Y1429285*
X1857591*
X1857227Y1429035*
X1856864Y1428535*
X1856682Y1427785*
Y1427285*
X1856864Y1426535*
X1857227Y1426035*
X1857591Y1425785*
X1858136*
X1858500Y1426035*
X1858864Y1426535*
X1860500Y1429285D02*
Y1425785D01*
Y1428285D02*
X1861045Y1429035D01*
X1861409Y1429285*
X1861955*
X1862318Y1429035*
X1862500Y1428285*
Y1425785*
Y1428285D02*
X1863045Y1429035D01*
X1863409Y1429285*
X1863955*
X1864318Y1429035*
X1864500Y1428285*
Y1425785*
X1867045Y1429285D02*
X1866682Y1429035D01*
X1866318Y1428535*
X1866136Y1427785*
Y1427285*
X1866318Y1426535*
X1866682Y1426035*
X1867045Y1425785*
X1867591*
X1867955Y1426035*
X1868318Y1426535*
X1868500Y1427285*
Y1427785*
X1868318Y1428535*
X1867955Y1429035*
X1867591Y1429285*
X1867045*
X1877045Y1429785D02*
X1876864Y1430285D01*
X1876500Y1430785*
X1876136Y1431035*
X1875409*
X1875045Y1430785*
X1874682Y1430285*
X1874500Y1429785*
X1874318Y1429035*
Y1427785*
X1874500Y1427035*
X1874682Y1426535*
X1875045Y1426035*
X1875409Y1425785*
X1876136*
X1876500Y1426035*
X1876864Y1426535*
X1877045Y1427035*
X1878682Y1431035D02*
X1878864Y1430785D01*
X1879045Y1431035*
X1878864Y1431285*
X1878682Y1431035*
X1878864Y1429285D02*
Y1425785D01*
X1880682Y1429285D02*
Y1425785D01*
Y1427785D02*
X1880864Y1428535D01*
X1881227Y1429035*
X1881591Y1429285*
X1882136*
X1885955Y1428535D02*
X1885591Y1429035D01*
X1885227Y1429285*
X1884682*
X1884318Y1429035*
X1883955Y1428535*
X1883773Y1427785*
Y1427285*
X1883955Y1426535*
X1884318Y1426035*
X1884682Y1425785*
X1885227*
X1885591Y1426035*
X1885955Y1426535*
X1887591Y1429285D02*
Y1426785D01*
X1887773Y1426035*
X1888136Y1425785*
X1888682*
X1889045Y1426035*
X1889591Y1426785*
Y1429285D02*
Y1425785D01*
X1891227Y1431035D02*
X1891409Y1430785D01*
X1891591Y1431035*
X1891409Y1431285*
X1891227Y1431035*
X1891409Y1429285D02*
Y1425785D01*
X1893773Y1431035D02*
Y1426785D01*
X1893955Y1426035*
X1894318Y1425785*
X1894682*
X1893227Y1429285D02*
X1894500D01*
X1900500Y1430035D02*
X1900864Y1430285D01*
X1901409Y1431035*
Y1425785*
X1903227Y1429785D02*
Y1430035D01*
X1903409Y1430535*
X1903591Y1430785*
X1903955Y1431035*
X1904682*
X1905045Y1430785*
X1905227Y1430535*
X1905409Y1430035*
Y1429535*
X1905227Y1429035*
X1904864Y1428285*
X1903045Y1425785*
X1905591*
X1909773Y1431035D02*
X1907955Y1425785D01*
X1907227Y1431035D02*
X1909773D01*
X1913591Y1430285D02*
X1913409Y1430785D01*
X1912864Y1431035*
X1912500*
X1911955Y1430785*
X1911591Y1430035*
X1911409Y1428785*
Y1427535*
X1911591Y1426535*
X1911955Y1426035*
X1912500Y1425785*
X1912682*
X1913227Y1426035*
X1913591Y1426535*
X1913773Y1427285*
Y1427535*
X1913591Y1428285*
X1913227Y1428785*
X1912682Y1429035*
X1912500*
X1911955Y1428785*
X1911591Y1428285*
X1911409Y1427535*
X1915409Y1431035D02*
Y1425785D01*
Y1431035D02*
X1917045D01*
X1917591Y1430785*
X1917773Y1430535*
X1917955Y1430035*
Y1429535*
X1917773Y1429035*
X1917591Y1428785*
X1917045Y1428535*
X1915409D02*
X1917045D01*
X1917591Y1428285*
X1917773Y1428035*
X1917955Y1427535*
Y1426785*
X1917773Y1426285*
X1917591Y1426035*
X1917045Y1425785*
X1915409*
X1852500Y1441035D02*
Y1435785D01*
X1854682*
X1856318Y1441035D02*
X1856500Y1440785D01*
X1856682Y1441035*
X1856500Y1441285*
X1856318Y1441035*
X1856500Y1439285D02*
Y1435785D01*
X1858318Y1439285D02*
Y1435785D01*
Y1438285D02*
X1858864Y1439035D01*
X1859227Y1439285*
X1859773*
X1860136Y1439035*
X1860318Y1438285*
Y1435785*
X1861955Y1437785D02*
X1864136D01*
Y1438285*
X1863955Y1438785*
X1863773Y1439035*
X1863409Y1439285*
X1862864*
X1862500Y1439035*
X1862136Y1438535*
X1861955Y1437785*
Y1437285*
X1862136Y1436535*
X1862500Y1436035*
X1862864Y1435785*
X1863409*
X1863773Y1436035*
X1864136Y1436535*
X1867955Y1439285D02*
Y1435785D01*
Y1438535D02*
X1867591Y1439035D01*
X1867227Y1439285*
X1866682*
X1866318Y1439035*
X1865955Y1438535*
X1865773Y1437785*
Y1437285*
X1865955Y1436535*
X1866318Y1436035*
X1866682Y1435785*
X1867227*
X1867591Y1436035*
X1867955Y1436535*
X1869591Y1439285D02*
Y1435785D01*
Y1437785D02*
X1869773Y1438535D01*
X1870136Y1439035*
X1870500Y1439285*
X1871045*
X1878136Y1441035D02*
Y1435785D01*
X1876864Y1441035D02*
X1879409D01*
X1881045Y1437785D02*
X1883227D01*
Y1438285*
X1883045Y1438785*
X1882864Y1439035*
X1882500Y1439285*
X1881955*
X1881591Y1439035*
X1881227Y1438535*
X1881045Y1437785*
Y1437285*
X1881227Y1436535*
X1881591Y1436035*
X1881955Y1435785*
X1882500*
X1882864Y1436035*
X1883227Y1436535*
X1887045Y1438535D02*
X1886682Y1439035D01*
X1886318Y1439285*
X1885773*
X1885409Y1439035*
X1885045Y1438535*
X1884864Y1437785*
Y1437285*
X1885045Y1436535*
X1885409Y1436035*
X1885773Y1435785*
X1886318*
X1886682Y1436035*
X1887045Y1436535*
X1888682Y1441035D02*
Y1435785D01*
Y1438285D02*
X1889227Y1439035D01*
X1889591Y1439285*
X1890136*
X1890500Y1439035*
X1890682Y1438285*
Y1435785*
X1892500Y1436285D02*
X1892318Y1436035D01*
X1892500Y1435785*
X1892682Y1436035*
X1892500Y1436285*
X1901227Y1439785D02*
X1901045Y1440285D01*
X1900682Y1440785*
X1900318Y1441035*
X1899591*
X1899227Y1440785*
X1898864Y1440285*
X1898682Y1439785*
X1898500Y1439035*
Y1437785*
X1898682Y1437035*
X1898864Y1436535*
X1899227Y1436035*
X1899591Y1435785*
X1900318*
X1900682Y1436035*
X1901045Y1436535*
X1901227Y1437035*
X1903773Y1439285D02*
X1903409Y1439035D01*
X1903045Y1438535*
X1902864Y1437785*
Y1437285*
X1903045Y1436535*
X1903409Y1436035*
X1903773Y1435785*
X1904318*
X1904682Y1436035*
X1905045Y1436535*
X1905227Y1437285*
Y1437785*
X1905045Y1438535*
X1904682Y1439035*
X1904318Y1439285*
X1903773*
X1906864D02*
Y1435785D01*
Y1437785D02*
X1907045Y1438535D01*
X1907409Y1439035*
X1907773Y1439285*
X1908318*
X1909955D02*
Y1434035D01*
Y1438535D02*
X1910318Y1439035D01*
X1910682Y1439285*
X1911227*
X1911591Y1439035*
X1911955Y1438535*
X1912136Y1437785*
Y1437285*
X1911955Y1436535*
X1911591Y1436035*
X1911227Y1435785*
X1910682*
X1910318Y1436035*
X1909955Y1436535*
X1913955Y1436285D02*
X1913773Y1436035D01*
X1913955Y1435785*
X1914136Y1436035*
X1913955Y1436285*
X1970800Y1439547D02*
Y1432985D01*
X1973527*
X1978300Y1437360D02*
Y1432985D01*
Y1436422D02*
X1977845Y1437047D01*
X1977845D02*
X1977391Y1437360D01*
X1976709*
X1976255Y1437047*
X1976255D02*
X1975800Y1436422D01*
X1975800D02*
X1975573Y1435485D01*
Y1434860*
X1975800Y1433922*
X1975800D02*
X1976255Y1433297D01*
X1976255D02*
X1976709Y1432985D01*
X1977391*
X1977845Y1433297*
X1977845D02*
X1978300Y1433922D01*
X1980573Y1437360D02*
X1981936Y1432985D01*
X1983300Y1437360D02*
X1981936Y1432985D01*
X1981482Y1431735*
X1981027Y1431110*
X1980573Y1430797*
X1980573D02*
X1980345D01*
X1985345Y1435485D02*
X1988073D01*
Y1436110*
X1987845Y1436735*
X1987618Y1437047*
X1987618D02*
X1987164Y1437360D01*
X1986482*
X1986027Y1437047*
X1986027D02*
X1985573Y1436422D01*
X1985573D02*
X1985345Y1435485D01*
Y1434860*
X1985573Y1433922*
X1985573D02*
X1986027Y1433297D01*
X1986027D02*
X1986482Y1432985D01*
X1987164*
X1987618Y1433297*
X1987618D02*
X1988073Y1433922D01*
X1990118Y1437360D02*
Y1432985D01*
Y1435485D02*
X1990345Y1436422D01*
X1990345D02*
X1990800Y1437047D01*
X1990800D02*
X1991255Y1437360D01*
X1991936*
X1994436Y1439547D02*
X1996936D01*
X1996936D02*
X1995573Y1437047D01*
X1995573D02*
X1996255D01*
X1996255D02*
X1996709Y1436735D01*
X1996936Y1436422*
X1996936D02*
X1997164Y1435485D01*
Y1434860*
X1996936Y1433922*
X1996936D02*
X1996482Y1433297D01*
X1996482D02*
X1995800Y1432985D01*
X1995118*
X1994436Y1433297*
X1994436D02*
X1994209Y1433610D01*
X1993982Y1434235*
X1992600Y1619585D02*
Y1629685D01*
X1994400Y1631485*
Y1635685*
G54D12*
X1872500Y1625785D03*
X2127500Y1535785D03*
Y1645785D03*
X2090000Y1500785D03*
X1872500Y1580785D03*
X2127500Y1720785D03*
G54D32*
X2002758Y1738327D02*
X2001945Y1739140D01*
X2002758Y1743843D02*
X2001945Y1743030D01*
X1997242Y1743843D02*
X1998055Y1743030D01*
X2047242Y1520127D02*
X2048055Y1520940D01*
X2052758Y1520127D02*
X2051945Y1520940D01*
X2052758Y1525643D02*
X2051945Y1524830D01*
X1997242Y1520127D02*
X1998055Y1520940D01*
X2002758Y1520127D02*
X2001945Y1520940D01*
X2002758Y1525643D02*
X2001945Y1524830D01*
X1944742Y1520127D02*
X1945555Y1520940D01*
X1950258Y1520127D02*
X1949445Y1520940D01*
X1950258Y1525643D02*
X1949445Y1524830D01*
X1944742Y1728043D02*
X1945555Y1727230D01*
X1944742Y1722527D02*
X1945555Y1723340D01*
X1950258Y1722527D02*
X1949445Y1723340D01*
G54D34*
X1994300Y1506485D02*
Y1525085D01*
X2000000Y1530785*
X1994300Y1506485D02*
X2000000Y1500785D01*
X1941300Y1524585D02*
Y1506985D01*
X1947500Y1500785*
X1941300Y1524585D02*
X1947500Y1530785D01*
X2045100Y1525885D02*
Y1505685D01*
X2050000Y1500785*
X2045100Y1525885D02*
X2050000Y1530785D01*
X2105000Y1537911D02*
X2107074D01*
X2112300Y1543137*
X1941700Y1561185D02*
Y1536585D01*
X1947500Y1530785*
X1941700Y1561185D02*
X1989700Y1609185D01*
X1999100Y1608085D02*
X2005900D01*
X2023000Y1590985*
X2038800*
X2060400Y1569385*
Y1545385*
X1992600Y1619585D02*
Y1544785D01*
X1990400Y1631085D02*
X1991800Y1632485D01*
Y1695785*
X2010600Y1714585*
X2010900*
X2001600Y1638785D02*
X2002800D01*
X2005900Y1641885*
Y1643085*
X2015300Y1652485*
Y1717885*
X1911900Y1670885D02*
X1946800D01*
X1982600Y1635085*
X1905000Y1710785D02*
Y1666785D01*
X1945000Y1626785*
X1987000*
X2018900Y1714585D02*
X2027400D01*
X2042200Y1729385*
X2042300*
X1947500Y1733185D02*
X1955800Y1724885D01*
Y1669085*
X1989200Y1635685*
X1994100Y1739085D02*
Y1749885D01*
X2000000Y1755785*
X1994100Y1739085D02*
X2000000Y1733185D01*
X2015300Y1717885*
X2042400Y1736785D02*
Y1748185D01*
X2050000Y1755785*
X2065900Y1741085D02*
X2112300Y1694685D01*
Y1543137*
G54D36*
X2146900Y1770785D02*
G75*
G03X2146900I-4400J0D01*
G01X2135900Y1573285D02*
G03X2135900I-8400J0D01*
G01Y1610785D02*
G03X2135900I-8400J0D01*
G01Y1683285D02*
G03X2135900I-8400J0D01*
G01X2053650Y1725285D02*
G03X2053650I-3650J0D01*
G01Y1733185D02*
G03X2053650I-3650J0D01*
G01Y1741085D02*
G03X2053650I-3650J0D01*
G01X2035400Y1733285D02*
G03X2035400I-2400J0D01*
G01X1953900Y1755785D02*
G03X1953900I-6400J0D01*
G01X1878900Y1670785D02*
G03X1878900I-6400J0D01*
G01Y1710785D02*
G03X1878900I-6400J0D01*
G01X1861900Y1485785D02*
G03X1861900I-4400J0D01*
G01X1907400Y1725585D02*
G03X1907400I-2400J0D01*
G01X1874914Y1537124D02*
G03X1874914I-2650J0D01*
G01Y1554446D02*
G03X1874914I-2650J0D01*
G01X2148600Y1479685D02*
Y1776885D01*
X1851400*
Y1479685*
X2148600*
X1996661Y1524901D02*
G03X1996100Y1522903I3339J-2016D01*
G01X1996661Y1524901D02*
X1996100Y1524339D01*
Y1522903*
X2146900Y1770785D02*
G03X2146900I-4400J0D01*
G01X2135900Y1573285D02*
G03X2135900I-8400J0D01*
G01Y1610785D02*
G03X2135900I-8400J0D01*
G01Y1683285D02*
G03X2135900I-8400J0D01*
G01X2114100Y1694685D02*
Y1543137D01*
X2113573Y1541864D02*
G03X2114100Y1543137I-1273J1273D01*
G01X2113573Y1541864D02*
X2108461Y1536753D01*
X2107334Y1540717D02*
G03X2108461Y1536753I-2334J-2806D01*
G01X2107334Y1540717D02*
X2110500Y1543883D01*
Y1693939*
X2065750Y1738690*
X2068295Y1741235D02*
G03X2065750Y1738690I-2395J-150D01*
G01X2068295Y1741235D02*
X2113573Y1695958D01*
X2114100Y1694685D02*
G03X2113573Y1695958I-1800J0D01*
G01X2053650Y1725285D02*
G03X2053650I-3650J0D01*
G01Y1733185D02*
G03X2053650I-3650J0D01*
G01Y1741085D02*
G03X2053650I-3650J0D01*
G01X2042346Y1726985D02*
G03X2039914Y1729645I-46J2400D01*
G01X2042346Y1726985D02*
X2028673Y1713312D01*
X2027400Y1712785D02*
G03X2028673Y1713312I0J1800D01*
G01X2027400Y1712785D02*
X2020487D01*
X2017100Y1712997D02*
G03X2020487Y1712785I1800J1588D01*
G01X2017100Y1712997D02*
Y1652485D01*
X2016573Y1651212D02*
G03X2017100Y1652485I-1273J1273D01*
G01X2016573Y1651212D02*
X2007700Y1642339D01*
Y1641885*
X2007173Y1640612D02*
G03X2007700Y1641885I-1273J1273D01*
G01X2007173Y1640612D02*
X2005677Y1639117D01*
X2002090Y1636435D02*
G03X2005677Y1639117I2310J650D01*
G01X2000426Y1640878D02*
G03X2002090Y1636435I1174J-2093D01*
G01X2004228Y1643751D02*
G03X2000426Y1640878I-1728J-1666D01*
G01X2004627Y1644358D02*
G03X2004228Y1643751I1273J-1273D01*
G01X2004627Y1644358D02*
X2013500Y1653231D01*
Y1717139*
X2000972Y1729667*
X1996482Y1734157D02*
G03X2000972Y1729667I3518J-972D01*
G01X1996482Y1734157D02*
X1992827Y1737812D01*
X1992300Y1739085D02*
G03X1992827Y1737812I1800J0D01*
G01X1992300Y1739085D02*
Y1749885D01*
X1992827Y1751158D02*
G03X1992300Y1749885I1273J-1273D01*
G01X1992827Y1751158D02*
X1994384Y1752715D01*
X1996930Y1750169D02*
G03X1994384Y1752715I3070J5616D01*
G01X1996930Y1750169D02*
X1995900Y1749139D01*
Y1739831*
X1996661Y1739069*
X1997984Y1737746D02*
G03X1996661Y1739069I2016J3339D01*
G01X1997984Y1737746D02*
X1999028Y1736703D01*
X2003518Y1732213D02*
G03X1999028Y1736703I-3518J972D01*
G01X2003518Y1732213D02*
X2016573Y1719158D01*
X2017100Y1717885D02*
G03X2016573Y1719158I-1800J0D01*
G01X2017100Y1717885D02*
Y1716173D01*
X2020487Y1716385D02*
G03X2017100Y1716173I-1587J-1800D01*
G01X2020487Y1716385D02*
X2026654D01*
X2039914Y1729645*
X2046930Y1750169D02*
G03X2044384Y1752715I3070J5616D01*
G01X2046930Y1750169D02*
X2044200Y1747439D01*
Y1738372*
X2040600D02*
G03X2044200I1800J-1587D01*
G01X2040600D02*
Y1748185D01*
X2041127Y1749458D02*
G03X2040600Y1748185I1273J-1273D01*
G01X2041127Y1749458D02*
X2044384Y1752715D01*
X2035400Y1733285D02*
G03X2035400I-2400J0D01*
G01X1953900Y1755785D02*
G03X1953900I-6400J0D01*
G01X1878900Y1670785D02*
G03X1878900I-6400J0D01*
G01Y1710785D02*
G03X1878900I-6400J0D01*
G01X1861900Y1485785D02*
G03X1861900I-4400J0D01*
G01X1980205Y1634935D02*
G03X1982750Y1637480I2395J150D01*
G01X1980205Y1634935D02*
X1946054Y1669085D01*
X1913487*
Y1672685D02*
G03Y1669085I-1587J-1800D01*
G01Y1672685D02*
X1946800D01*
X1948073Y1672158D02*
G03X1946800Y1672685I-1273J-1273D01*
G01X1948073Y1672158D02*
X1982750Y1637480D01*
X1902665Y1545385D02*
G03X1898780Y1552715I-2065J3600D01*
G01X1902480Y1538085D02*
G03X1902665Y1545385I-1880J3700D01*
G01X1898720Y1538085D02*
G03X1902480I1880J-3700D01*
G01X1898535Y1545385D02*
G03X1898720Y1538085I2065J-3600D01*
G01X1896767Y1550576D02*
G03X1898535Y1545385I3833J-1591D01*
G01X1895500Y1550335D02*
G03X1896767Y1550576I0J3450D01*
G01X1895500Y1550335D02*
X1892000D01*
X1888550Y1553785D02*
G03X1892000Y1550335I3450J0D01*
G01X1888550Y1553785D02*
Y1557285D01*
X1892000Y1560735D02*
G03X1888550Y1557285I0J-3450D01*
G01X1892000Y1560735D02*
X1892050D01*
Y1600556*
X1884221Y1608385*
X1880137*
Y1615285D02*
G03Y1608385I-1337J-3450D01*
G01Y1615285D02*
X1885650D01*
X1888090Y1614275D02*
G03X1885650Y1615285I-2440J-2440D01*
G01X1888090Y1614275D02*
X1897940Y1604425D01*
X1898950Y1601985D02*
G03X1897940Y1604425I-3450J0D01*
G01X1898950Y1601985D02*
Y1557285D01*
Y1553785*
X1898780Y1552715D02*
G03X1898950Y1553785I-3280J1070D01*
G01X1985413Y1624985D02*
G03Y1628585I1587J1800D01*
G01Y1624985D02*
X1945000D01*
X1943727Y1625512D02*
G03X1945000Y1624985I1273J1273D01*
G01X1943727Y1625512D02*
X1903727Y1665512D01*
X1903200Y1666785D02*
G03X1903727Y1665512I1800J0D01*
G01X1903200Y1666785D02*
Y1709198D01*
X1906800D02*
G03X1903200I-1800J1587D01*
G01X1906800D02*
Y1667531D01*
X1945746Y1628585*
X1985413*
X1907400Y1725585D02*
G03X1907400I-2400J0D01*
G01X1874914Y1537124D02*
G03X1874914I-2650J0D01*
G01Y1554446D02*
G03X1874914I-2650J0D01*
G01X1998808Y1721835D02*
G03Y1728735I1192J3450D01*
G01Y1721835D02*
X1987600D01*
X1985160Y1722845D02*
G03X1987600Y1721835I2440J2440D01*
G01X1985160Y1722845D02*
X1970371Y1737635D01*
X1948692*
X1946308D02*
G03X1948692I1192J3450D01*
G01X1946308D02*
X1898850D01*
Y1648685*
X1897840Y1646245D02*
G03X1898850Y1648685I-2440J2440D01*
G01X1897840Y1646245D02*
X1880355Y1628761D01*
X1875476Y1633640D02*
G03X1880355Y1628761I-2976J-7855D01*
G01X1875476Y1633640D02*
X1891950Y1650114D01*
Y1741085*
X1895400Y1744535D02*
G03X1891950Y1741085I0J-3450D01*
G01X1895400Y1744535D02*
X1946308D01*
X1948692D02*
G03X1946308I-1192J-3450D01*
G01X1948692D02*
X1971800D01*
X1974240Y1743525D02*
G03X1971800Y1744535I-2440J-2440D01*
G01X1974240Y1743525D02*
X1989029Y1728735D01*
X1998808*
X2044384Y1503855D02*
G03X2046930Y1506401I5616J-3070D01*
G01X2044384Y1503855D02*
X2043827Y1504412D01*
X2043300Y1505685D02*
G03X2043827Y1504412I1800J0D01*
G01X2043300Y1505685D02*
Y1525885D01*
X2043827Y1527158D02*
G03X2043300Y1525885I1273J-1273D01*
G01X2043827Y1527158D02*
X2046482Y1529813D01*
X2049028Y1527267D02*
G03X2046482Y1529813I972J3518D01*
G01X2049028Y1527267D02*
X2047984Y1526224D01*
X2046900Y1520519D02*
G03X2047984Y1526224I3100J2366D01*
G01X2046900Y1520519D02*
Y1506431D01*
X2046930Y1506401*
X1994384Y1503855D02*
G03X1996930Y1506401I5616J-3070D01*
G01X1994384Y1503855D02*
X1993027Y1505212D01*
X1992500Y1506485D02*
G03X1993027Y1505212I1800J0D01*
G01X1992500Y1506485D02*
Y1525085D01*
X1993027Y1526358D02*
G03X1992500Y1525085I1273J-1273D01*
G01X1993027Y1526358D02*
X1996482Y1529813D01*
X1999028Y1527267D02*
G03X1996482Y1529813I972J3518D01*
G01X1999028Y1527267D02*
X1997984Y1526224D01*
X1996100Y1522867D02*
G03X1997984Y1526224I3900J18D01*
G01X1996100Y1522867D02*
Y1507231D01*
X1996930Y1506401*
X2108650Y1556409D02*
Y1550909D01*
X2107750Y1550009D02*
G03X2108650Y1550909I0J900D01*
G01X2107750Y1550009D02*
X2102250D01*
X2101684Y1550209D02*
G03X2102250Y1550009I566J700D01*
G01X2101684Y1550209D02*
X2086803D01*
X2072840Y1536245*
X2070400Y1535235D02*
G03X2072840Y1536245I0J3450D01*
G01X2070400Y1535235D02*
X2051192D01*
X2048808D02*
G03X2051192I1192J3450D01*
G01X2048808D02*
X2001192D01*
X1998808D02*
G03X2001192I1192J3450D01*
G01X1998808D02*
X1948692D01*
Y1542135D02*
G03Y1535235I-1192J-3450D01*
G01Y1542135D02*
X1997550D01*
Y1557370*
X1994400Y1560520*
Y1546372*
X1990800D02*
G03X1994400I1800J-1587D01*
G01X1990800D02*
Y1607052D01*
X1989850Y1606790D02*
G03X1990800Y1607052I-150J2395D01*
G01X1989850Y1606790D02*
X1943500Y1560439D01*
Y1537331*
X1946528Y1534303*
Y1527267D02*
G03Y1534303I972J3518D01*
G01Y1527267D02*
X1945484Y1526224D01*
X1944161Y1524901D02*
G03X1945484Y1526224I3339J-2016D01*
G01X1944161Y1524901D02*
X1943100Y1523839D01*
Y1507731*
X1944430Y1506401*
X1941884Y1503855D02*
G03X1944430Y1506401I5616J-3070D01*
G01X1941884Y1503855D02*
X1940027Y1505712D01*
X1939500Y1506985D02*
G03X1940027Y1505712I1800J0D01*
G01X1939500Y1506985D02*
Y1524585D01*
X1940027Y1525858D02*
G03X1939500Y1524585I1273J-1273D01*
G01X1940027Y1525858D02*
X1943982Y1529813D01*
Y1531757D02*
G03Y1529813I3518J-972D01*
G01Y1531757D02*
X1940427Y1535312D01*
X1939900Y1536585D02*
G03X1940427Y1535312I1800J0D01*
G01X1939900Y1536585D02*
Y1561185D01*
X1940427Y1562458D02*
G03X1939900Y1561185I1273J-1273D01*
G01X1940427Y1562458D02*
X1987305Y1609335D01*
X1990800Y1611318D02*
G03X1987305Y1609335I-1100J-2133D01*
G01X1990800Y1611318D02*
Y1619585D01*
X1990900Y1620177D02*
G03X1990800Y1619585I1700J-592D01*
G01X1990900Y1620177D02*
Y1628738D01*
X1989479Y1633301D02*
G03X1990900Y1628738I921J-2216D01*
G01X1986805Y1635535D02*
G03X1989479Y1633301I2395J150D01*
G01X1986805Y1635535D02*
X1954527Y1667812D01*
X1954000Y1669085D02*
G03X1954527Y1667812I1800J0D01*
G01X1954000Y1669085D02*
Y1724139D01*
X1950839Y1727301*
X1949516Y1728624D02*
G03X1950839Y1727301I-2016J-3339D01*
G01X1949516Y1728624D02*
X1948472Y1729667D01*
X1951018Y1732213D02*
G03X1948472Y1729667I-3518J972D01*
G01X1951018Y1732213D02*
X1957073Y1726158D01*
X1957600Y1724885D02*
G03X1957073Y1726158I-1800J0D01*
G01X1957600Y1724885D02*
Y1669831D01*
X1989350Y1638080*
X1990000Y1637948D02*
G03X1989350Y1638080I-800J-2263D01*
G01X1990000Y1637948D02*
Y1695785D01*
X1990527Y1697058D02*
G03X1990000Y1695785I1273J-1273D01*
G01X1990527Y1697058D02*
X2008552Y1715083D01*
X2010750Y1712190D02*
G03X2008552Y1715083I150J2395D01*
G01X2010750Y1712190D02*
X1993600Y1695039D01*
Y1637948*
X1996100Y1633991D02*
G03X1993600Y1637948I-1700J1694D01*
G01X1996100Y1633991D02*
Y1631485D01*
X1995602Y1630283D02*
G03X1996100Y1631485I-1202J1202D01*
G01X1995602Y1630283D02*
X1994300Y1628981D01*
Y1620177*
X1994400Y1619585D02*
G03X1994300Y1620177I-1800J0D01*
G01X1994400Y1619585D02*
Y1618250D01*
X1995568Y1619417*
X2000968Y1624817*
X2002700Y1625535D02*
G03X2000968Y1624817I0J-2450D01*
G01X2002700Y1625535D02*
X2007468D01*
X2010947Y1629097*
X2014453Y1625673D02*
G03X2010947Y1629097I-1753J1712D01*
G01X2014453Y1625673D02*
X2010253Y1621373D01*
X2008500Y1620635D02*
G03X2010253Y1621373I0J2450D01*
G01X2008500Y1620635D02*
X2006604D01*
X2002095Y1619015D02*
G03X2006604Y1620635I2305J670D01*
G01X2002095Y1619015D02*
X1999032Y1615953D01*
X1998250Y1615170*
Y1610329*
X2000687Y1609885D02*
G03X1998250Y1610329I-1587J-1800D01*
G01X2000687Y1609885D02*
X2005900D01*
X2007173Y1609358D02*
G03X2005900Y1609885I-1273J-1273D01*
G01X2007173Y1609358D02*
X2023746Y1592785D01*
X2038800*
X2040073Y1592258D02*
G03X2038800Y1592785I-1273J-1273D01*
G01X2040073Y1592258D02*
X2061673Y1570658D01*
X2062200Y1569385D02*
G03X2061673Y1570658I-1800J0D01*
G01X2062200Y1569385D02*
Y1546972D01*
X2058600D02*
G03X2062200I1800J-1587D01*
G01X2058600D02*
Y1568639D01*
X2038054Y1589185*
X2023000*
X2021727Y1589712D02*
G03X2023000Y1589185I1273J1273D01*
G01X2021727Y1589712D02*
X2005154Y1606285D01*
X2000687*
X1998250Y1605841D02*
G03X2000687Y1606285I850J2244D01*
G01X1998250Y1605841D02*
Y1563600D01*
X2001732Y1560117*
X2002450Y1558385D02*
G03X2001732Y1560117I-2450J0D01*
G01X2002450Y1558385D02*
Y1542135D01*
X2048808*
X2051192D02*
G03X2048808I-1192J-3450D01*
G01X2051192D02*
X2068971D01*
X2082934Y1556099*
X2085374Y1557109D02*
G03X2082934Y1556099I0J-3450D01*
G01X2085374Y1557109D02*
X2101684D01*
X2102250Y1557309D02*
G03X2101684Y1557109I0J-900D01*
G01X2102250Y1557309D02*
X2107750D01*
X2108650Y1556409D02*
G03X2107750Y1557309I-900J0D01*
G01X1850000Y1478285D02*
X2150000D01*
Y1778285*
X1850000*
Y1478285*
X1953310Y1441915D02*
X2067510D01*
Y1421715*
X1953310*
Y1441915*
G54D37*
X1878800Y1611835D03*
G54D38*
X1955700Y1523485D03*
X2006900D03*
X2060500D03*
X1992600Y1544785D03*
X2060400Y1545385D03*
X1892000Y1557285D03*
Y1553785D03*
X1895500D03*
Y1557285D03*
X1981000Y1611185D03*
X2002500Y1601185D03*
X1999100Y1608085D03*
X1989700Y1609185D03*
X1986200Y1619785D03*
X1987000Y1626785D03*
X1998100Y1630185D03*
X2001900Y1626385D03*
Y1630185D03*
X1990400Y1631085D03*
X2000000Y1628285D03*
X1998100Y1626385D03*
X1997300Y1617685D03*
X2012700Y1627385D03*
X1982600Y1635085D03*
X1994400Y1635685D03*
X1989200D03*
X2001600Y1638785D03*
X1911900Y1670885D03*
X1905000Y1710785D03*
X2018900Y1714585D03*
X2010900D03*
X2042300Y1729385D03*
X2057700Y1715885D03*
X1895400Y1741085D03*
X2042400Y1736785D03*
X2065900Y1741085D03*
G54D40*
X1995800Y1562585D02*
Y1616185D01*
X1997300Y1617685*
X1995800Y1562585D02*
X2000000Y1558385D01*
Y1538685*
X1995800Y1616185D02*
Y1562585D01*
X2000000Y1558385*
Y1538685*
X1995800Y1616185D02*
X1997300Y1617685D01*
X2002700Y1623085*
X2008500*
X2012700Y1627385*
G54D82*
X2105000Y1553659D03*
G54D83*
X1947500Y1725285D03*
Y1733185D03*
Y1741085D03*
Y1522885D03*
Y1530785D03*
Y1538685D03*
X2000000Y1522885D03*
Y1530785D03*
Y1538685D03*
X2050000Y1522885D03*
Y1530785D03*
Y1538685D03*
X2000000Y1741085D03*
Y1733185D03*
Y1725285D03*
X2105000Y1545785D03*
Y1537911D03*
G54D119*
X1947500Y1500785D03*
X2000000D03*
X2050000D03*
X2000000Y1755785D03*
X2050000D03*
G54D141*
X2127500D03*
X1872500D03*
X2127500Y1500785D03*
X1872500D03*
G54D211*
X1947500Y1538685D02*
X2000000D01*
X2050000*
X2070400*
X2085374Y1553659*
X2105000*
X1892000Y1557285D02*
X1895500D01*
Y1553785D02*
X1892000D01*
Y1557285*
X1895500D02*
Y1553785D01*
Y1557285*
X1878800Y1611835D02*
X1885650D01*
X1895500Y1601985*
Y1557285*
X1872500Y1625785D02*
X1895400Y1648685D01*
Y1741085*
X1947500*
X1971800*
X1987600Y1725285*
X2000000*
G74*
X0Y0D02*
M02*
