*
*
G04 PADS Layout (Build Number 2006.45.1) generated Gerber (RS-274-X) file*
G04 PC Version=2.1*
*
%IN "DC1276B.pcb"*%
*
%MOIN*%
*
%FSLAX35Y35*%
*
*
*
*
G04 PC Standard Apertures*
*
*
G04 Thermal Relief Aperture macro.*
%AMTER*
1,1,$1,0,0*
1,0,$1-$2,0,0*
21,0,$3,$4,0,0,45*
21,0,$3,$4,0,0,135*
%
*
*
G04 Annular Aperture macro.*
%AMANN*
1,1,$1,0,0*
1,0,$2,0,0*
%
*
*
G04 Odd Aperture macro.*
%AMODD*
1,1,$1,0,0*
1,0,$1-0.005,0,0*
%
*
*
G04 PC Custom Aperture Macros*
*
*
*
*
*
*
G04 PC Aperture Table*
*
%ADD010C,0.01*%
%ADD012C,0.15*%
%ADD032C,0.015*%
%ADD036C,0.008*%
%ADD038C,0.024*%
%ADD083C,0.055*%
%ADD141C,0.28*%
*
*
*
*
G04 PC Copper Outlines (0)*
G04 Layer Name DC1276B.pcb - dark (0)*
%LPD*%
*
*
G04 PC Area=ANP000000*
G75*
G36*
G01*
X2147100Y1481185D02*
Y1775385D01*
X1852900D01*
Y1481185D01*
X2147100D01*
G37*
G74*
*
*
G04 PC Void Outlines (0)*
G04 Layer Name DC1276B.pcb - clear (0)*
%LPC*%
*
*
G04 PC Area=ANP000000*
G75*
G36*
G01*
X2142500Y1766385D02*
G03*
X2142500I0J4400D01*
G37*
G74*
*
G75*
G36*
G01*
X2127500Y1564885D02*
G03*
X2127500I0J8400D01*
G37*
G74*
*
G75*
G36*
G01*
Y1602385D02*
G03*
X2127500I0J8400D01*
G37*
G74*
*
G75*
G36*
G01*
Y1674885D02*
G03*
X2127500I0J8400D01*
G37*
G74*
*
G75*
G36*
G01*
X2105000Y1534261D02*
G03*
X2105000I0J3650D01*
G37*
G74*
*
G75*
G36*
G01*
X2108650Y1556909D02*
Y1550409D01*
G02*
X2108250Y1550009I-400J0D01*
G01*
X2101750D01*
G02*
X2101350Y1550409I0J400D01*
G01*
Y1556909D01*
G02*
X2101750Y1557309I400J0D01*
G01*
X2108250D01*
G02*
X2108650Y1556909I0J-400D01*
G37*
G74*
*
G75*
G36*
G01*
X2065900Y1738685D02*
G03*
X2065900I0J2400D01*
G37*
G74*
*
G75*
G36*
G01*
X2060400Y1542985D02*
G03*
X2060400I0J2400D01*
G37*
G74*
*
G75*
G36*
G01*
X2050000Y1494385D02*
G03*
X2050000I0J6400D01*
G37*
G74*
*
G75*
G36*
G01*
Y1518985D02*
G03*
X2050000I0J3900D01*
G37*
G74*
*
G75*
G36*
G01*
Y1527135D02*
G03*
X2050000I0J3650D01*
G37*
G74*
*
G75*
G36*
G01*
Y1535035D02*
G03*
X2050000I0J3650D01*
G37*
G74*
*
G75*
G36*
G01*
Y1721635D02*
G03*
X2050000I0J3650D01*
G37*
G74*
*
G75*
G36*
G01*
Y1729535D02*
G03*
X2050000I0J3650D01*
G37*
G74*
*
G75*
G36*
G01*
Y1737435D02*
G03*
X2050000I0J3650D01*
G37*
G74*
*
G75*
G36*
G01*
X2042300Y1726985D02*
G03*
X2042300I0J2400D01*
G37*
G74*
*
G75*
G36*
G01*
X2042400Y1734385D02*
G03*
X2042400I0J2400D01*
G37*
G74*
*
G75*
G36*
G01*
X2050000Y1749385D02*
G03*
X2050000I0J6400D01*
G37*
G74*
*
G75*
G36*
G01*
X2033000Y1730885D02*
G03*
X2033000I0J2400D01*
G37*
G74*
*
G75*
G36*
G01*
X2018900Y1712185D02*
G03*
X2018900I0J2400D01*
G37*
G74*
*
G75*
G36*
G01*
X2012700Y1624985D02*
G03*
X2012700I0J2400D01*
G37*
G74*
*
G75*
G36*
G01*
X2010900Y1712185D02*
G03*
X2010900I0J2400D01*
G37*
G74*
*
G75*
G36*
G01*
X2000000Y1494385D02*
G03*
X2000000I0J6400D01*
G37*
G74*
*
G75*
G36*
G01*
Y1518985D02*
G03*
X2000000I0J3900D01*
G37*
G74*
*
G75*
G36*
G01*
Y1527135D02*
G03*
X2000000I0J3650D01*
G37*
G74*
*
G75*
G36*
G01*
Y1535035D02*
G03*
X2000000I0J3650D01*
G37*
G74*
*
G75*
G36*
G01*
X2004400Y1617285D02*
G03*
X2004400I0J2400D01*
G37*
G74*
*
G75*
G36*
G01*
X1999100Y1605685D02*
G03*
X1999100I0J2400D01*
G37*
G74*
*
G75*
G36*
G01*
X1992600Y1542385D02*
G03*
X1992600I0J2400D01*
G37*
G74*
*
G75*
G36*
G01*
X1997300Y1615285D02*
G03*
X1997300I0J2400D01*
G37*
G74*
*
G75*
G36*
G01*
X2003910Y1639435D02*
G02*
X2002090Y1636435I490J-2350D01*
X2000426Y1640878I-490J2350D01*
X2003674Y1639992I2074J1207D01*
X2003910Y1639435I-2074J-1207D01*
G37*
G74*
*
G75*
G36*
G01*
X1989700Y1606785D02*
G03*
X1989700I0J2400D01*
G37*
G74*
*
G75*
G36*
G01*
X1987000Y1624385D02*
G03*
X1987000I0J2400D01*
G37*
G74*
*
G75*
G36*
G01*
X1990121Y1633469D02*
G02*
X1989479Y1633301I279J-2384D01*
X1990121Y1633469I-279J2384D01*
G37*
G74*
*
G75*
G36*
G01*
X1994400Y1633285D02*
G03*
X1994400I0J2400D01*
G37*
G74*
*
G75*
G36*
G01*
X2000000Y1721635D02*
G03*
X2000000I0J3650D01*
G37*
G74*
*
G75*
G36*
G01*
Y1729535D02*
G03*
X2000000I0J3650D01*
G37*
G74*
*
G75*
G36*
G01*
Y1737185D02*
G03*
X2000000I0J3900D01*
G37*
G74*
*
G75*
G36*
G01*
Y1749385D02*
G03*
X2000000I0J6400D01*
G37*
G74*
*
G75*
G36*
G01*
X1982600Y1632685D02*
G03*
X1982600I0J2400D01*
G37*
G74*
*
G75*
G36*
G01*
X1947500Y1494385D02*
G03*
X1947500I0J6400D01*
G37*
G74*
*
G75*
G36*
G01*
Y1518985D02*
G03*
X1947500I0J3900D01*
G37*
G74*
*
G75*
G36*
G01*
Y1527135D02*
G03*
X1947500I0J3650D01*
G37*
G74*
*
G75*
G36*
G01*
Y1535035D02*
G03*
X1947500I0J3650D01*
G37*
G74*
*
G75*
G36*
G01*
Y1721385D02*
G03*
X1947500I0J3900D01*
G37*
G74*
*
G75*
G36*
G01*
Y1729535D02*
G03*
X1947500I0J3650D01*
G37*
G74*
*
G75*
G36*
G01*
Y1737435D02*
G03*
X1947500I0J3650D01*
G37*
G74*
*
G75*
G36*
G01*
Y1749385D02*
G03*
X1947500I0J6400D01*
G37*
G74*
*
G75*
G36*
G01*
X1911900Y1668485D02*
G03*
X1911900I0J2400D01*
G37*
G74*
*
G75*
G36*
G01*
X1898535Y1545385D02*
G02*
X1902665I2065J3600D01*
X1902480Y1538085I-2065J-3600D01*
X1898720I-1880J-3700D01*
X1898535Y1545385I1880J3700D01*
G37*
G74*
*
G75*
G36*
G01*
X1905000Y1708385D02*
G03*
X1905000I0J2400D01*
G37*
G74*
*
G75*
G36*
G01*
Y1723185D02*
G03*
X1905000I0J2400D01*
G37*
G74*
*
G75*
G36*
G01*
X1893750Y1558927D02*
G02*
X1897142Y1555535I1750J-1642D01*
X1893750Y1552143I-1642J-1750D01*
X1890358Y1555535I-1750J1642D01*
X1893750Y1558927I1642J1750D01*
G37*
G74*
*
G75*
G36*
G01*
X1895400Y1738685D02*
G03*
X1895400I0J2400D01*
G37*
G74*
*
G75*
G36*
G01*
X1878800Y1608135D02*
G03*
X1878800I0J3700D01*
G37*
G74*
*
G75*
G36*
G01*
X1872264Y1534474D02*
G03*
X1872264I-0J2650D01*
G37*
G74*
*
G75*
G36*
G01*
Y1551796D02*
G03*
X1872264I-0J2650D01*
G37*
G74*
*
G75*
G36*
G01*
X1872500Y1617385D02*
G03*
X1872500I0J8400D01*
G37*
G74*
*
G75*
G36*
G01*
Y1664385D02*
G03*
X1872500I0J6400D01*
G37*
G74*
*
G75*
G36*
G01*
Y1704385D02*
G03*
X1872500I0J6400D01*
G37*
G74*
*
G75*
G36*
G01*
X1857500Y1481385D02*
G03*
X1857500I0J4400D01*
G37*
G74*
*
*
G04 PC Copper Outlines (1)*
G04 Layer Name DC1276B.pcb - dark (1)*
%LPD*%
*
*
G04 PC Area=Custom_Thermal*
*
G04 PC Custom Flashes*
G04 Layer Name DC1276B.pcb - flashes*
%LPD*%
*
*
G04 PC Circuitry*
G04 Layer Name DC1276B.pcb - circuitry*
%LPD*%
*
G54D10*
G01X1852500Y1431035D02*
Y1425785D01*
Y1431035D02*
X1853773D01*
X1854318Y1430785*
X1854682Y1430285*
X1854864Y1429785*
X1855045Y1429035*
Y1427785*
X1854864Y1427035*
X1854682Y1426535*
X1854318Y1426035*
X1853773Y1425785*
X1852500*
X1856682Y1427785D02*
X1858864D01*
Y1428285*
X1858682Y1428785*
X1858500Y1429035*
X1858136Y1429285*
X1857591*
X1857227Y1429035*
X1856864Y1428535*
X1856682Y1427785*
Y1427285*
X1856864Y1426535*
X1857227Y1426035*
X1857591Y1425785*
X1858136*
X1858500Y1426035*
X1858864Y1426535*
X1860500Y1429285D02*
Y1425785D01*
Y1428285D02*
X1861045Y1429035D01*
X1861409Y1429285*
X1861955*
X1862318Y1429035*
X1862500Y1428285*
Y1425785*
Y1428285D02*
X1863045Y1429035D01*
X1863409Y1429285*
X1863955*
X1864318Y1429035*
X1864500Y1428285*
Y1425785*
X1867045Y1429285D02*
X1866682Y1429035D01*
X1866318Y1428535*
X1866136Y1427785*
Y1427285*
X1866318Y1426535*
X1866682Y1426035*
X1867045Y1425785*
X1867591*
X1867955Y1426035*
X1868318Y1426535*
X1868500Y1427285*
Y1427785*
X1868318Y1428535*
X1867955Y1429035*
X1867591Y1429285*
X1867045*
X1877045Y1429785D02*
X1876864Y1430285D01*
X1876500Y1430785*
X1876136Y1431035*
X1875409*
X1875045Y1430785*
X1874682Y1430285*
X1874500Y1429785*
X1874318Y1429035*
Y1427785*
X1874500Y1427035*
X1874682Y1426535*
X1875045Y1426035*
X1875409Y1425785*
X1876136*
X1876500Y1426035*
X1876864Y1426535*
X1877045Y1427035*
X1878682Y1431035D02*
X1878864Y1430785D01*
X1879045Y1431035*
X1878864Y1431285*
X1878682Y1431035*
X1878864Y1429285D02*
Y1425785D01*
X1880682Y1429285D02*
Y1425785D01*
Y1427785D02*
X1880864Y1428535D01*
X1881227Y1429035*
X1881591Y1429285*
X1882136*
X1885955Y1428535D02*
X1885591Y1429035D01*
X1885227Y1429285*
X1884682*
X1884318Y1429035*
X1883955Y1428535*
X1883773Y1427785*
Y1427285*
X1883955Y1426535*
X1884318Y1426035*
X1884682Y1425785*
X1885227*
X1885591Y1426035*
X1885955Y1426535*
X1887591Y1429285D02*
Y1426785D01*
X1887773Y1426035*
X1888136Y1425785*
X1888682*
X1889045Y1426035*
X1889591Y1426785*
Y1429285D02*
Y1425785D01*
X1891227Y1431035D02*
X1891409Y1430785D01*
X1891591Y1431035*
X1891409Y1431285*
X1891227Y1431035*
X1891409Y1429285D02*
Y1425785D01*
X1893773Y1431035D02*
Y1426785D01*
X1893955Y1426035*
X1894318Y1425785*
X1894682*
X1893227Y1429285D02*
X1894500D01*
X1900500Y1430035D02*
X1900864Y1430285D01*
X1901409Y1431035*
Y1425785*
X1903227Y1429785D02*
Y1430035D01*
X1903409Y1430535*
X1903591Y1430785*
X1903955Y1431035*
X1904682*
X1905045Y1430785*
X1905227Y1430535*
X1905409Y1430035*
Y1429535*
X1905227Y1429035*
X1904864Y1428285*
X1903045Y1425785*
X1905591*
X1909773Y1431035D02*
X1907955Y1425785D01*
X1907227Y1431035D02*
X1909773D01*
X1913591Y1430285D02*
X1913409Y1430785D01*
X1912864Y1431035*
X1912500*
X1911955Y1430785*
X1911591Y1430035*
X1911409Y1428785*
Y1427535*
X1911591Y1426535*
X1911955Y1426035*
X1912500Y1425785*
X1912682*
X1913227Y1426035*
X1913591Y1426535*
X1913773Y1427285*
Y1427535*
X1913591Y1428285*
X1913227Y1428785*
X1912682Y1429035*
X1912500*
X1911955Y1428785*
X1911591Y1428285*
X1911409Y1427535*
X1915409Y1431035D02*
Y1425785D01*
Y1431035D02*
X1917045D01*
X1917591Y1430785*
X1917773Y1430535*
X1917955Y1430035*
Y1429535*
X1917773Y1429035*
X1917591Y1428785*
X1917045Y1428535*
X1915409D02*
X1917045D01*
X1917591Y1428285*
X1917773Y1428035*
X1917955Y1427535*
Y1426785*
X1917773Y1426285*
X1917591Y1426035*
X1917045Y1425785*
X1915409*
X1852500Y1441035D02*
Y1435785D01*
X1854682*
X1856318Y1441035D02*
X1856500Y1440785D01*
X1856682Y1441035*
X1856500Y1441285*
X1856318Y1441035*
X1856500Y1439285D02*
Y1435785D01*
X1858318Y1439285D02*
Y1435785D01*
Y1438285D02*
X1858864Y1439035D01*
X1859227Y1439285*
X1859773*
X1860136Y1439035*
X1860318Y1438285*
Y1435785*
X1861955Y1437785D02*
X1864136D01*
Y1438285*
X1863955Y1438785*
X1863773Y1439035*
X1863409Y1439285*
X1862864*
X1862500Y1439035*
X1862136Y1438535*
X1861955Y1437785*
Y1437285*
X1862136Y1436535*
X1862500Y1436035*
X1862864Y1435785*
X1863409*
X1863773Y1436035*
X1864136Y1436535*
X1867955Y1439285D02*
Y1435785D01*
Y1438535D02*
X1867591Y1439035D01*
X1867227Y1439285*
X1866682*
X1866318Y1439035*
X1865955Y1438535*
X1865773Y1437785*
Y1437285*
X1865955Y1436535*
X1866318Y1436035*
X1866682Y1435785*
X1867227*
X1867591Y1436035*
X1867955Y1436535*
X1869591Y1439285D02*
Y1435785D01*
Y1437785D02*
X1869773Y1438535D01*
X1870136Y1439035*
X1870500Y1439285*
X1871045*
X1878136Y1441035D02*
Y1435785D01*
X1876864Y1441035D02*
X1879409D01*
X1881045Y1437785D02*
X1883227D01*
Y1438285*
X1883045Y1438785*
X1882864Y1439035*
X1882500Y1439285*
X1881955*
X1881591Y1439035*
X1881227Y1438535*
X1881045Y1437785*
Y1437285*
X1881227Y1436535*
X1881591Y1436035*
X1881955Y1435785*
X1882500*
X1882864Y1436035*
X1883227Y1436535*
X1887045Y1438535D02*
X1886682Y1439035D01*
X1886318Y1439285*
X1885773*
X1885409Y1439035*
X1885045Y1438535*
X1884864Y1437785*
Y1437285*
X1885045Y1436535*
X1885409Y1436035*
X1885773Y1435785*
X1886318*
X1886682Y1436035*
X1887045Y1436535*
X1888682Y1441035D02*
Y1435785D01*
Y1438285D02*
X1889227Y1439035D01*
X1889591Y1439285*
X1890136*
X1890500Y1439035*
X1890682Y1438285*
Y1435785*
X1892500Y1436285D02*
X1892318Y1436035D01*
X1892500Y1435785*
X1892682Y1436035*
X1892500Y1436285*
X1901227Y1439785D02*
X1901045Y1440285D01*
X1900682Y1440785*
X1900318Y1441035*
X1899591*
X1899227Y1440785*
X1898864Y1440285*
X1898682Y1439785*
X1898500Y1439035*
Y1437785*
X1898682Y1437035*
X1898864Y1436535*
X1899227Y1436035*
X1899591Y1435785*
X1900318*
X1900682Y1436035*
X1901045Y1436535*
X1901227Y1437035*
X1903773Y1439285D02*
X1903409Y1439035D01*
X1903045Y1438535*
X1902864Y1437785*
Y1437285*
X1903045Y1436535*
X1903409Y1436035*
X1903773Y1435785*
X1904318*
X1904682Y1436035*
X1905045Y1436535*
X1905227Y1437285*
Y1437785*
X1905045Y1438535*
X1904682Y1439035*
X1904318Y1439285*
X1903773*
X1906864D02*
Y1435785D01*
Y1437785D02*
X1907045Y1438535D01*
X1907409Y1439035*
X1907773Y1439285*
X1908318*
X1909955D02*
Y1434035D01*
Y1438535D02*
X1910318Y1439035D01*
X1910682Y1439285*
X1911227*
X1911591Y1439035*
X1911955Y1438535*
X1912136Y1437785*
Y1437285*
X1911955Y1436535*
X1911591Y1436035*
X1911227Y1435785*
X1910682*
X1910318Y1436035*
X1909955Y1436535*
X1913955Y1436285D02*
X1913773Y1436035D01*
X1913955Y1435785*
X1914136Y1436035*
X1913955Y1436285*
X1970800Y1439547D02*
Y1432985D01*
X1973527*
X1978300Y1437360D02*
Y1432985D01*
Y1436422D02*
X1977845Y1437047D01*
X1977845D02*
X1977391Y1437360D01*
X1976709*
X1976255Y1437047*
X1976255D02*
X1975800Y1436422D01*
X1975800D02*
X1975573Y1435485D01*
Y1434860*
X1975800Y1433922*
X1975800D02*
X1976255Y1433297D01*
X1976255D02*
X1976709Y1432985D01*
X1977391*
X1977845Y1433297*
X1977845D02*
X1978300Y1433922D01*
X1980573Y1437360D02*
X1981936Y1432985D01*
X1983300Y1437360D02*
X1981936Y1432985D01*
X1981482Y1431735*
X1981027Y1431110*
X1980573Y1430797*
X1980573D02*
X1980345D01*
X1985345Y1435485D02*
X1988073D01*
Y1436110*
X1987845Y1436735*
X1987618Y1437047*
X1987618D02*
X1987164Y1437360D01*
X1986482*
X1986027Y1437047*
X1986027D02*
X1985573Y1436422D01*
X1985573D02*
X1985345Y1435485D01*
Y1434860*
X1985573Y1433922*
X1985573D02*
X1986027Y1433297D01*
X1986027D02*
X1986482Y1432985D01*
X1987164*
X1987618Y1433297*
X1987618D02*
X1988073Y1433922D01*
X1990118Y1437360D02*
Y1432985D01*
Y1435485D02*
X1990345Y1436422D01*
X1990345D02*
X1990800Y1437047D01*
X1990800D02*
X1991255Y1437360D01*
X1991936*
X1994209Y1437985D02*
Y1438297D01*
X1994209D02*
X1994436Y1438922D01*
X1994436D02*
X1994664Y1439235D01*
X1995118Y1439547*
X1995118D02*
X1996027D01*
X1996027D02*
X1996482Y1439235D01*
X1996709Y1438922*
X1996709D02*
X1996936Y1438297D01*
X1996936D02*
Y1437672D01*
X1996936D02*
X1996709Y1437047D01*
X1996709D02*
X1996255Y1436110D01*
X1993982Y1432985*
X1997164*
G54D12*
X2127500Y1535785D03*
Y1645785D03*
X2090000Y1500785D03*
X1872500Y1580785D03*
X2127500Y1720785D03*
G54D32*
X2002758Y1738327D02*
X2001945Y1739140D01*
X2002758Y1743843D02*
X2001945Y1743030D01*
X1997242Y1743843D02*
X1998055Y1743030D01*
X1997242Y1738327D02*
X1998055Y1739140D01*
X2047242Y1525643D02*
X2048055Y1524830D01*
X2047242Y1520127D02*
X2048055Y1520940D01*
X2052758Y1520127D02*
X2051945Y1520940D01*
X2052758Y1525643D02*
X2051945Y1524830D01*
X1997242Y1525643D02*
X1998055Y1524830D01*
X1997242Y1520127D02*
X1998055Y1520940D01*
X2002758Y1520127D02*
X2001945Y1520940D01*
X2002758Y1525643D02*
X2001945Y1524830D01*
X1944742Y1525643D02*
X1945555Y1524830D01*
X1944742Y1520127D02*
X1945555Y1520940D01*
X1950258Y1520127D02*
X1949445Y1520940D01*
X1950258Y1525643D02*
X1949445Y1524830D01*
X1944742Y1728043D02*
X1945555Y1727230D01*
X1944742Y1722527D02*
X1945555Y1723340D01*
X1950258Y1722527D02*
X1949445Y1723340D01*
X1950258Y1728043D02*
X1949445Y1727230D01*
G54D36*
X2146900Y1770785D02*
G75*
G03X2146900I-4400J0D01*
G01X2135900Y1573285D02*
G03X2135900I-8400J0D01*
G01Y1610785D02*
G03X2135900I-8400J0D01*
G01Y1683285D02*
G03X2135900I-8400J0D01*
G01X2108650Y1537911D02*
G03X2108650I-3650J0D01*
G01X2068300Y1741085D02*
G03X2068300I-2400J0D01*
G01X2062800Y1545385D02*
G03X2062800I-2400J0D01*
G01X2056400Y1500785D02*
G03X2056400I-6400J0D01*
G01X2053900Y1522885D02*
G03X2053900I-3900J0D01*
G01X2053650Y1530785D02*
G03X2053650I-3650J0D01*
G01Y1538685D02*
G03X2053650I-3650J0D01*
G01Y1725285D02*
G03X2053650I-3650J0D01*
G01Y1733185D02*
G03X2053650I-3650J0D01*
G01Y1741085D02*
G03X2053650I-3650J0D01*
G01X2044700Y1729385D02*
G03X2044700I-2400J0D01*
G01X2044800Y1736785D02*
G03X2044800I-2400J0D01*
G01X2056400Y1755785D02*
G03X2056400I-6400J0D01*
G01X2035400Y1733285D02*
G03X2035400I-2400J0D01*
G01X2021300Y1714585D02*
G03X2021300I-2400J0D01*
G01X2015100Y1627385D02*
G03X2015100I-2400J0D01*
G01X2013300Y1714585D02*
G03X2013300I-2400J0D01*
G01X2006400Y1500785D02*
G03X2006400I-6400J0D01*
G01X2003900Y1522885D02*
G03X2003900I-3900J0D01*
G01X2003650Y1530785D02*
G03X2003650I-3650J0D01*
G01Y1538685D02*
G03X2003650I-3650J0D01*
G01X2006800Y1619685D02*
G03X2006800I-2400J0D01*
G01X2001500Y1608085D02*
G03X2001500I-2400J0D01*
G01X1995000Y1544785D02*
G03X1995000I-2400J0D01*
G01X1999700Y1617685D02*
G03X1999700I-2400J0D01*
G01X1992100Y1609185D02*
G03X1992100I-2400J0D01*
G01X1989400Y1626785D02*
G03X1989400I-2400J0D01*
G01X1996800Y1635685D02*
G03X1996800I-2400J0D01*
G01X2003650Y1725285D02*
G03X2003650I-3650J0D01*
G01Y1733185D02*
G03X2003650I-3650J0D01*
G01X2003900Y1741085D02*
G03X2003900I-3900J0D01*
G01X2006400Y1755785D02*
G03X2006400I-6400J0D01*
G01X1985000Y1635085D02*
G03X1985000I-2400J0D01*
G01X1953900Y1500785D02*
G03X1953900I-6400J0D01*
G01X1951400Y1522885D02*
G03X1951400I-3900J0D01*
G01X1951150Y1530785D02*
G03X1951150I-3650J0D01*
G01Y1538685D02*
G03X1951150I-3650J0D01*
G01X1951400Y1725285D02*
G03X1951400I-3900J0D01*
G01X1951150Y1733185D02*
G03X1951150I-3650J0D01*
G01Y1741085D02*
G03X1951150I-3650J0D01*
G01X1953900Y1755785D02*
G03X1953900I-6400J0D01*
G01X1914300Y1670885D02*
G03X1914300I-2400J0D01*
G01X1907400Y1710785D02*
G03X1907400I-2400J0D01*
G01Y1725585D02*
G03X1907400I-2400J0D01*
G01X1897800Y1741085D02*
G03X1897800I-2400J0D01*
G01X1882500Y1611835D02*
G03X1882500I-3700J0D01*
G01X1874914Y1537124D02*
G03X1874914I-2650J0D01*
G01Y1554446D02*
G03X1874914I-2650J0D01*
G01X1880900Y1625785D02*
G03X1880900I-8400J0D01*
G01X1878900Y1670785D02*
G03X1878900I-6400J0D01*
G01Y1710785D02*
G03X1878900I-6400J0D01*
G01X1861900Y1485785D02*
G03X1861900I-4400J0D01*
G01X2147100Y1481185D02*
Y1775385D01*
X1852900*
Y1481185*
X2147100*
X2146900Y1770785D02*
G03X2146900I-4400J0D01*
G01X2135900Y1573285D02*
G03X2135900I-8400J0D01*
G01Y1610785D02*
G03X2135900I-8400J0D01*
G01Y1683285D02*
G03X2135900I-8400J0D01*
G01X2108650Y1537911D02*
G03X2108650I-3650J0D01*
G01Y1556909D02*
Y1550409D01*
X2108250Y1550009D02*
G03X2108650Y1550409I0J400D01*
G01X2108250Y1550009D02*
X2101750D01*
X2101350Y1550409D02*
G03X2101750Y1550009I400J0D01*
G01X2101350Y1550409D02*
Y1556909D01*
X2101750Y1557309D02*
G03X2101350Y1556909I0J-400D01*
G01X2101750Y1557309D02*
X2108250D01*
X2108650Y1556909D02*
G03X2108250Y1557309I-400J0D01*
G01X2068300Y1741085D02*
G03X2068300I-2400J0D01*
G01X2062800Y1545385D02*
G03X2062800I-2400J0D01*
G01X2056400Y1500785D02*
G03X2056400I-6400J0D01*
G01X2053900Y1522885D02*
G03X2053900I-3900J0D01*
G01X2053650Y1530785D02*
G03X2053650I-3650J0D01*
G01Y1538685D02*
G03X2053650I-3650J0D01*
G01Y1725285D02*
G03X2053650I-3650J0D01*
G01Y1733185D02*
G03X2053650I-3650J0D01*
G01Y1741085D02*
G03X2053650I-3650J0D01*
G01X2044700Y1729385D02*
G03X2044700I-2400J0D01*
G01X2044800Y1736785D02*
G03X2044800I-2400J0D01*
G01X2056400Y1755785D02*
G03X2056400I-6400J0D01*
G01X2035400Y1733285D02*
G03X2035400I-2400J0D01*
G01X2021300Y1714585D02*
G03X2021300I-2400J0D01*
G01X2015100Y1627385D02*
G03X2015100I-2400J0D01*
G01X2013300Y1714585D02*
G03X2013300I-2400J0D01*
G01X2006400Y1500785D02*
G03X2006400I-6400J0D01*
G01X2003900Y1522885D02*
G03X2003900I-3900J0D01*
G01X2003650Y1530785D02*
G03X2003650I-3650J0D01*
G01Y1538685D02*
G03X2003650I-3650J0D01*
G01X2006800Y1619685D02*
G03X2006800I-2400J0D01*
G01X2001500Y1608085D02*
G03X2001500I-2400J0D01*
G01X1995000Y1544785D02*
G03X1995000I-2400J0D01*
G01X1999700Y1617685D02*
G03X1999700I-2400J0D01*
G01X2002090Y1636435D02*
G03X2003910Y1639435I2310J650D01*
G01X2000426Y1640878D02*
G03X2002090Y1636435I1174J-2093D01*
G01X2003674Y1639992D02*
G03X2000426Y1640878I-1174J2093D01*
G01X2003910Y1639435D02*
G03X2003674Y1639992I-2310J-650D01*
G01X1992100Y1609185D02*
G03X1992100I-2400J0D01*
G01X1989400Y1626785D02*
G03X1989400I-2400J0D01*
G01X1989479Y1633301D02*
G03X1990121Y1633469I921J-2216D01*
X1989479Y1633301I-921J2216*
G01X1996800Y1635685D02*
G03X1996800I-2400J0D01*
G01X2003650Y1725285D02*
G03X2003650I-3650J0D01*
G01Y1733185D02*
G03X2003650I-3650J0D01*
G01X2003900Y1741085D02*
G03X2003900I-3900J0D01*
G01X2006400Y1755785D02*
G03X2006400I-6400J0D01*
G01X1985000Y1635085D02*
G03X1985000I-2400J0D01*
G01X1953900Y1500785D02*
G03X1953900I-6400J0D01*
G01X1951400Y1522885D02*
G03X1951400I-3900J0D01*
G01X1951150Y1530785D02*
G03X1951150I-3650J0D01*
G01Y1538685D02*
G03X1951150I-3650J0D01*
G01X1951400Y1725285D02*
G03X1951400I-3900J0D01*
G01X1951150Y1733185D02*
G03X1951150I-3650J0D01*
G01Y1741085D02*
G03X1951150I-3650J0D01*
G01X1953900Y1755785D02*
G03X1953900I-6400J0D01*
G01X1914300Y1670885D02*
G03X1914300I-2400J0D01*
G01X1902665Y1545385D02*
G03X1898535I-2065J3600D01*
G01X1902480Y1538085D02*
G03X1902665Y1545385I-1880J3700D01*
G01X1898720Y1538085D02*
G03X1902480I1880J-3700D01*
G01X1898535Y1545385D02*
G03X1898720Y1538085I2065J-3600D01*
G01X1907400Y1710785D02*
G03X1907400I-2400J0D01*
G01Y1725585D02*
G03X1907400I-2400J0D01*
G01X1897142Y1555535D02*
G03X1893750Y1558927I-1642J1750D01*
G01Y1552143D02*
G03X1897142Y1555535I1750J1642D01*
G01X1890358D02*
G03X1893750Y1552143I1642J-1750D01*
G01Y1558927D02*
G03X1890358Y1555535I-1750J-1642D01*
G01X1897800Y1741085D02*
G03X1897800I-2400J0D01*
G01X1882500Y1611835D02*
G03X1882500I-3700J0D01*
G01X1874914Y1537124D02*
G03X1874914I-2650J0D01*
G01Y1554446D02*
G03X1874914I-2650J0D01*
G01X1880900Y1625785D02*
G03X1880900I-8400J0D01*
G01X1878900Y1670785D02*
G03X1878900I-6400J0D01*
G01Y1710785D02*
G03X1878900I-6400J0D01*
G01X1861900Y1485785D02*
G03X1861900I-4400J0D01*
G01X1850000Y1478285D02*
X2150000D01*
Y1778285*
X1850000*
Y1478285*
X1953310Y1441915D02*
X2067510D01*
Y1421715*
X1953310*
Y1441915*
G54D38*
X1955700Y1523485D03*
X2006900D03*
X2060500D03*
X1981000Y1611185D03*
X2002500Y1601185D03*
X1986200Y1619785D03*
X1998100Y1630185D03*
X2001900Y1626385D03*
Y1630185D03*
X2000000Y1628285D03*
X1998100Y1626385D03*
X2057700Y1715885D03*
G54D83*
X1947500Y1725285D03*
Y1522885D03*
X2000000D03*
X2050000D03*
X2000000Y1741085D03*
X2105000Y1545785D03*
G54D141*
X2127500Y1755785D03*
X1872500D03*
X2127500Y1500785D03*
X1872500D03*
G74*
X0Y0D02*
M02*
