*
*
G04 PADS Layout (Build Number 2006.45.1) generated Gerber (RS-274-X) file*
G04 PC Version=2.1*
*
%IN "DC1276B.pcb"*%
*
%MOIN*%
*
%FSLAX35Y35*%
*
*
*
*
G04 PC Standard Apertures*
*
*
G04 Thermal Relief Aperture macro.*
%AMTER*
1,1,$1,0,0*
1,0,$1-$2,0,0*
21,0,$3,$4,0,0,45*
21,0,$3,$4,0,0,135*
%
*
*
G04 Annular Aperture macro.*
%AMANN*
1,1,$1,0,0*
1,0,$2,0,0*
%
*
*
G04 Odd Aperture macro.*
%AMODD*
1,1,$1,0,0*
1,0,$1-0.005,0,0*
%
*
*
G04 PC Custom Aperture Macros*
*
*
*
*
*
*
G04 PC Aperture Table*
*
%ADD010C,0.01*%
%ADD012C,0.15*%
%ADD019R,0.03X0.03*%
%ADD033C,0.03*%
%ADD034C,0.012*%
%ADD035C,0.02*%
%ADD036C,0.008*%
%ADD037C,0.05*%
%ADD038C,0.024*%
%ADD040C,0.025*%
%ADD061R,0.02X0.02*%
%ADD082R,0.055X0.055*%
%ADD083C,0.055*%
%ADD087C,0.065*%
%ADD090C,0.07*%
%ADD119C,0.11*%
%ADD141C,0.28*%
%ADD181C,0.01969*%
%ADD211C,0.045*%
*
*
*
*
G04 PC Copper Outlines (0)*
G04 Layer Name DC1276B.pcb - dark (0)*
%LPD*%
*
*
G04 PC Area=ANP000122*
G75*
G36*
G01*
X2147100Y1481985D02*
Y1766809D01*
G03*
X2145747Y1767387I-800J-0D01*
G02*
X2139102Y1774032I-3247J3398D01*
G03*
X2138524Y1775385I-578J553D01*
G01*
X1853700D01*
G03*
X1852900Y1774585I0J-800D01*
G01*
Y1489761D01*
G03*
X1854253Y1489183I800J0D01*
G02*
X1860898Y1482538I3247J-3398D01*
G03*
X1861476Y1481185I578J-553D01*
G01*
X2146300D01*
G03*
X2147100Y1481985I0J800D01*
G37*
G74*
*
*
G04 PC Void Outlines (0)*
G04 Layer Name DC1276B.pcb - clear (0)*
%LPC*%
*
*
G04 PC Area=ANP000122*
G75*
G36*
G01*
X2127500Y1564885D02*
G03*
X2127500I0J8400D01*
G37*
G74*
*
G75*
G36*
G01*
Y1602385D02*
G03*
X2127500I0J8400D01*
G37*
G74*
*
G75*
G36*
G01*
Y1674885D02*
G03*
X2127500I0J8400D01*
G37*
G74*
*
G75*
G36*
G01*
X2105000Y1534261D02*
G03*
X2105000I0J3650D01*
G37*
G74*
*
G75*
G36*
G01*
X2108650Y1556409D02*
Y1550909D01*
G02*
X2107750Y1550009I-900J0D01*
G01*
X2102250D01*
G02*
X2101350Y1550909I0J900D01*
G01*
Y1556409D01*
G02*
X2102250Y1557309I900J0D01*
G01*
X2107750D01*
G02*
X2108650Y1556409I0J-900D01*
G37*
G74*
*
G75*
G36*
G01*
X2050000Y1494385D02*
G03*
X2050000I0J6400D01*
G37*
G74*
*
G75*
G36*
G01*
X2058450Y1543986D02*
G02*
X2062350I1950J1399D01*
G03*
X2062200Y1543520I650J-466D01*
G01*
Y1532609D01*
G03*
X2062247Y1532339I800J0D01*
G02*
X2062300Y1532035I-847J-304D01*
G01*
Y1529535D01*
G02*
X2061400Y1528635I-900J0D01*
G01*
X2059400D01*
G02*
X2058853Y1528820I0J900D01*
G03*
X2058367Y1528985I-486J-635D01*
G01*
X2053611D01*
G03*
X2052962Y1528652I0J-800D01*
G02*
X2048319Y1534025I-2962J2133D01*
G03*
Y1535445I-368J710D01*
G02*
X2051681I1681J3240D01*
G03*
Y1534025I368J-710D01*
G02*
X2052962Y1532918I-1681J-3240D01*
G03*
X2053611Y1532585I649J467D01*
G01*
X2057800D01*
G03*
X2058600Y1533385I-0J800D01*
G01*
Y1543520D01*
G03*
X2058450Y1543986I-800J-0D01*
G37*
G74*
*
G75*
G36*
G01*
X2064501Y1743035D02*
G02*
Y1739135I1399J-1950D01*
G03*
X2064035Y1739285I-466J-650D01*
G01*
X2064024D01*
G03*
X2063754Y1739238I0J-800D01*
G02*
X2063450Y1739185I-304J847D01*
G01*
X2060950D01*
G02*
X2060394Y1739377I0J900D01*
G03*
X2059406I-494J-629D01*
G02*
X2058850Y1739185I-556J708D01*
G01*
X2056350D01*
G02*
X2056046Y1739238I0J900D01*
G03*
X2055776Y1739285I-270J-753D01*
G01*
X2053611D01*
G03*
X2052962Y1738952I0J-800D01*
G02*
X2051681Y1737845I-2962J2133D01*
G03*
Y1736425I368J-710D01*
G02*
X2052304Y1730354I-1681J-3240D01*
G03*
X2052781Y1728934I505J-620D01*
G02*
X2053650Y1728035I-31J-899D01*
G01*
Y1727885D01*
G03*
X2054450Y1727085I800J0D01*
G01*
X2055876D01*
G03*
X2056146Y1727132I-0J800D01*
G02*
X2056450Y1727185I304J-847D01*
G01*
X2058950D01*
G02*
X2059506Y1726993I0J-900D01*
G03*
X2060494I494J629D01*
G02*
X2061050Y1727185I556J-708D01*
G01*
X2063550D01*
G02*
X2064450Y1726285I0J-900D01*
G01*
Y1724285D01*
G02*
X2064265Y1723738I-900J0D01*
G03*
X2064100Y1723252I635J-486D01*
G01*
Y1721118D01*
G03*
X2064265Y1720632I800J0D01*
G02*
X2064450Y1720085I-715J-547D01*
G01*
Y1718085D01*
G02*
X2063550Y1717185I-900J0D01*
G01*
X2061050D01*
G02*
X2060150Y1718085I0J900D01*
G01*
Y1720085D01*
G02*
X2060335Y1720632I900J0D01*
G03*
X2060500Y1721118I-635J486D01*
G01*
Y1722759D01*
G03*
X2059347Y1723477I-800J0D01*
G02*
X2058950Y1723385I-397J808D01*
G01*
X2056450D01*
G02*
X2056146Y1723438I0J900D01*
G03*
X2055876Y1723485I-270J-753D01*
G01*
X2054450D01*
G03*
X2053650Y1722685I0J-800D01*
G01*
Y1722535D01*
G02*
X2052750Y1721635I-900J0D01*
G01*
X2047250D01*
G02*
X2046350Y1722535I0J900D01*
G01*
Y1728035D01*
G02*
X2047219Y1728934I900J0D01*
G03*
X2047696Y1730354I-28J800D01*
G02*
X2046980Y1731134I2304J2831D01*
G03*
X2046319Y1731485I-661J-449D01*
G01*
X2045224D01*
G03*
X2044493Y1730360I0J-800D01*
G02*
X2040090Y1730321I-2193J-975D01*
G03*
X2039164Y1731411I-736J313D01*
G02*
X2038950Y1731385I-214J874D01*
G01*
X2036450D01*
G02*
X2036146Y1731438I0J900D01*
G03*
X2035876Y1731485I-270J-753D01*
G01*
X2034865D01*
G03*
X2034399Y1731335I0J-800D01*
G02*
Y1735235I-1399J1950D01*
G03*
X2034865Y1735085I466J650D01*
G01*
X2035876D01*
G03*
X2036146Y1735132I-0J800D01*
G02*
X2036450Y1735185I304J-847D01*
G01*
X2038950D01*
G02*
X2039142Y1735164I0J-900D01*
G03*
X2040084Y1736156I170J782D01*
G02*
X2044703Y1736110I2316J629D01*
G03*
X2045471Y1735085I768J-225D01*
G01*
X2046463D01*
G03*
X2047099Y1735400I-0J800D01*
G02*
X2048319Y1736425I2901J-2215D01*
G03*
Y1737845I-368J710D01*
G02*
X2052962Y1743218I1681J3240D01*
G03*
X2053611Y1742885I649J467D01*
G01*
X2055776D01*
G03*
X2056046Y1742932I-0J800D01*
G02*
X2056350Y1742985I304J-847D01*
G01*
X2058850D01*
G02*
X2059406Y1742793I0J-900D01*
G03*
X2060394I494J629D01*
G02*
X2060950Y1742985I556J-708D01*
G01*
X2063450D01*
G02*
X2063754Y1742932I0J-900D01*
G03*
X2064024Y1742885I270J753D01*
G01*
X2064035D01*
G03*
X2064501Y1743035I-0J800D01*
G37*
G74*
*
G75*
G36*
G01*
X2050000Y1749385D02*
G03*
X2050000I0J6400D01*
G37*
G74*
*
G75*
G36*
G01*
X2012700Y1624985D02*
G03*
X2012700I0J2400D01*
G37*
G74*
*
G75*
G36*
G01*
X2000000Y1494385D02*
G03*
X2000000I0J6400D01*
G37*
G74*
*
G75*
G36*
G01*
X2008891Y1531626D02*
G02*
X2008892Y1529946I-1591J-841D01*
G03*
X2008800Y1529573I708J-373D01*
G01*
Y1529435D01*
G02*
X2007900Y1528535I-900J0D01*
G01*
X2005900D01*
G02*
X2005290Y1528773I0J900D01*
G03*
X2004748Y1528985I-542J-588D01*
G01*
X2003611D01*
G03*
X2002962Y1528652I0J-800D01*
G02*
X1998319Y1534025I-2962J2133D01*
G03*
Y1535445I-368J710D01*
G02*
X2001681I1681J3240D01*
G03*
Y1534025I368J-710D01*
G02*
X2002962Y1532918I-1681J-3240D01*
G03*
X2003611Y1532585I649J467D01*
G01*
X2005013D01*
G03*
X2005430Y1532703I-0J800D01*
G02*
X2005900Y1532835I470J-768D01*
G01*
X2007900D01*
G02*
X2008799Y1531969I0J-900D01*
G03*
X2008891Y1531626I800J31D01*
G37*
G74*
*
G75*
G36*
G01*
X2017501Y1716535D02*
G02*
Y1712635I1399J-1950D01*
G03*
X2017035Y1712785I-466J-650D01*
G01*
X2012765D01*
G03*
X2012299Y1712635I0J-800D01*
G02*
Y1716535I-1399J1950D01*
G03*
X2012765Y1716385I466J650D01*
G01*
X2017035D01*
G03*
X2017501Y1716535I-0J800D01*
G37*
G74*
*
G75*
G36*
G01*
X1992600Y1542385D02*
G03*
X1992600I0J2400D01*
G37*
G74*
*
G75*
G36*
G01*
X2002348Y1618441D02*
G02*
X2006350Y1618286I2052J1244D01*
G03*
X2006200Y1617820I650J-466D01*
G01*
Y1617085D01*
G02*
X2005673Y1615812I-1800J0D01*
G01*
X2000786Y1610925D01*
G03*
X2000788Y1609791I565J-566D01*
G02*
X1996907Y1607110I-1688J-1706D01*
G03*
X1996176Y1607585I-731J-325D01*
G01*
X1991817D01*
G03*
X1991287Y1607385I-0J-800D01*
G02*
X1987769Y1610610I-1587J1800D01*
G03*
X1987396Y1611838I-644J475D01*
G02*
X1987276Y1611891I304J847D01*
G03*
X1986900Y1611985I-376J-706D01*
G01*
X1985600D01*
G02*
X1984639Y1612206I0J2200D01*
G03*
X1984318Y1612286I-349J-720D01*
G02*
X1983450Y1613185I32J899D01*
G01*
Y1613640D01*
G03*
X1983437Y1613785I-800J-0D01*
G02*
Y1614585I2163J400D01*
G03*
X1983450Y1614730I-787J145D01*
G01*
Y1615185D01*
G02*
X1984318Y1616084I900J0D01*
G03*
X1984639Y1616164I-28J800D01*
G02*
X1985600Y1616385I961J-1979D01*
G01*
X1986900D01*
G03*
X1987276Y1616479I-0J800D01*
G02*
X1987700Y1616585I424J-794D01*
G01*
X1990700D01*
G02*
X1991574Y1615898I0J-900D01*
G03*
X1993151Y1616063I778J190D01*
G02*
X1993868Y1617717I2449J-78D01*
G01*
X1995568Y1619417D01*
G02*
X1999654Y1617006I1732J-1732D01*
G03*
X2000989Y1616219I769J-221D01*
G01*
X2002229Y1617460D01*
G03*
X2002348Y1618441I-565J566D01*
G37*
G74*
*
G75*
G36*
G01*
X2007500Y1646235D02*
Y1643735D01*
G02*
X2007308Y1643179I-900J0D01*
G03*
Y1642191I629J-494D01*
G02*
X2007500Y1641635I-708J-556D01*
G01*
Y1639135D01*
G02*
X2007447Y1638831I-900J0D01*
G03*
X2007400Y1638561I753J-270D01*
G01*
Y1638185D01*
G02*
X2006941Y1636984I-1800J0D01*
G03*
X2006752Y1636609I595J-534D01*
G02*
X2002280Y1635960I-2352J476D01*
G03*
X2001580Y1636385I-707J-375D01*
G02*
X1999980Y1640556I20J2400D01*
G03*
X2000205Y1641381I-539J591D01*
G02*
X2000550Y1643484I2295J704D01*
G03*
X2000700Y1643950I-650J466D01*
G01*
Y1656782D01*
G03*
X2000300Y1657474I-800J-0D01*
G02*
X2004700I2200J3811D01*
G03*
X2004300Y1656782I400J-692D01*
G01*
Y1647935D01*
G03*
X2005100Y1647135I800J0D01*
G01*
X2006600D01*
G02*
X2007500Y1646235I0J-900D01*
G37*
G74*
*
G75*
G36*
G01*
X1992450Y1637084D02*
G02*
X1993452Y1633480I1950J-1399D01*
G03*
X1992452Y1632330I-316J-735D01*
G02*
X1990097Y1628704I-2052J-1245D01*
G03*
X1989247Y1627629I-101J-793D01*
G02*
X1987303Y1629166I-2247J-844D01*
G03*
X1988153Y1630241I101J793D01*
G02*
X1988395Y1632404I2247J844D01*
G03*
X1988095Y1633554I-668J440D01*
G02*
X1991150Y1637084I1105J2131D01*
G03*
X1992450I650J467D01*
G37*
G74*
*
G75*
G36*
G01*
X1998319Y1729945D02*
G02*
X2001681I1681J3240D01*
G03*
Y1728525I368J-710D01*
G02*
X1998319I-1681J-3240D01*
G03*
Y1729945I-368J710D01*
G37*
G74*
*
G75*
G36*
G01*
X2000000Y1749385D02*
G03*
X2000000I0J6400D01*
G37*
G74*
*
G75*
G36*
G01*
X1982600Y1632685D02*
G03*
X1982600I0J2400D01*
G37*
G74*
*
G75*
G36*
G01*
X1947500Y1494385D02*
G03*
X1947500I0J6400D01*
G37*
G74*
*
G75*
G36*
G01*
X1957600Y1532035D02*
Y1529535D01*
G02*
X1956700Y1528635I-900J0D01*
G01*
X1954700D01*
G02*
X1954153Y1528820I0J900D01*
G03*
X1953667Y1528985I-486J-635D01*
G01*
X1951111D01*
G03*
X1950462Y1528652I0J-800D01*
G02*
X1945819Y1534025I-2962J2133D01*
G03*
Y1535445I-368J710D01*
G02*
X1949181I1681J3240D01*
G03*
Y1534025I368J-710D01*
G02*
X1950462Y1532918I-1681J-3240D01*
G03*
X1951111Y1532585I649J467D01*
G01*
X1953667D01*
G03*
X1954153Y1532750I-0J800D01*
G02*
X1954700Y1532935I547J-715D01*
G01*
X1956700D01*
G02*
X1957600Y1532035I0J-900D01*
G37*
G74*
*
G75*
G36*
G01*
X1945819Y1737845D02*
G02*
X1949181I1681J3240D01*
G03*
Y1736425I368J-710D01*
G02*
X1945819I-1681J-3240D01*
G03*
Y1737845I-368J710D01*
G37*
G74*
*
G75*
G36*
G01*
X1947500Y1749385D02*
G03*
X1947500I0J6400D01*
G37*
G74*
*
G75*
G36*
G01*
X1899000Y1552814D02*
G02*
X1903448Y1545967I1600J-3829D01*
G03*
Y1544803I549J-582D01*
G02*
X1903357Y1538683I-2848J-3018D01*
G03*
Y1537487I531J-598D01*
G02*
X1897843I-2757J-3102D01*
G03*
Y1538683I-531J598D01*
G02*
X1897752Y1544803I2757J3102D01*
G03*
Y1545967I-549J582D01*
G02*
X1896681Y1550350I2848J3018D01*
G03*
X1895819Y1551406I-756J263D01*
G02*
X1894187Y1551776I-319J2379D01*
G03*
X1893313I-437J-670D01*
G02*
X1889991Y1555098I-1313J2009D01*
G03*
Y1555972I-670J437D01*
G02*
X1893313Y1559294I2009J1313D01*
G03*
X1894187I437J670D01*
G02*
X1897509Y1555972I1313J-2009D01*
G03*
Y1555098I670J-437D01*
G02*
X1897894Y1553610I-2009J-1313D01*
G03*
X1899000Y1552814I798J-58D01*
G37*
G74*
*
G75*
G36*
G01*
X1872264Y1534174D02*
G03*
X1872264I-0J2950D01*
G37*
G74*
*
G75*
G36*
G01*
Y1551496D02*
G03*
X1872264I-0J2950D01*
G37*
G74*
*
G75*
G36*
G01*
X1877584Y1615329D02*
G02*
Y1608341I1216J-3494D01*
G03*
X1877321Y1608385I-263J-756D01*
G01*
X1875693D01*
G03*
X1874897Y1607514I0J-800D01*
G02*
X1874900Y1607435I-897J-79D01*
G01*
Y1603635D01*
G02*
X1874794Y1603211I-900J0D01*
G03*
X1874700Y1602835I706J-376D01*
G01*
Y1598285D01*
G02*
X1874479Y1597324I-2200J0D01*
G03*
X1874399Y1597003I720J-349D01*
G02*
X1873500Y1596135I-899J32D01*
G01*
X1873045D01*
G03*
X1872900Y1596122I0J-800D01*
G02*
X1872100I-400J2163D01*
G03*
X1871955Y1596135I-145J-787D01*
G01*
X1871500D01*
G02*
X1870601Y1597003I0J900D01*
G03*
X1870521Y1597324I-800J-28D01*
G02*
X1870300Y1598285I1979J961D01*
G01*
Y1602835D01*
G03*
X1870206Y1603211I-800J-0D01*
G02*
X1870100Y1603635I794J424D01*
G01*
Y1607435D01*
G02*
X1870340Y1608047I900J0D01*
G03*
X1870271Y1609202I-586J544D01*
G02*
X1869659Y1613792I2229J2633D01*
G03*
X1869800Y1614246I-659J454D01*
G01*
Y1617277D01*
G03*
X1869304Y1618017I-800J-0D01*
G02*
X1875696I3196J7768D01*
G03*
X1875200Y1617277I304J-740D01*
G01*
Y1616085D01*
G03*
X1876000Y1615285I800J0D01*
G01*
X1877321D01*
G03*
X1877584Y1615329I-0J800D01*
G37*
G74*
*
G75*
G36*
G01*
X1910402Y1672760D02*
G02*
X1910612Y1668860I1498J-1875D01*
G03*
X1910182Y1668985I-430J-675D01*
G01*
X1879214D01*
G03*
X1878468Y1668474I0J-800D01*
G02*
Y1673096I-5968J2311D01*
G03*
X1879214Y1672585I746J289D01*
G01*
X1909902D01*
G03*
X1910402Y1672760I0J800D01*
G37*
G74*
*
G75*
G36*
G01*
X1902750Y1724750D02*
G02*
X1907250I2250J835D01*
G03*
X1907200Y1724471I750J-279D01*
G01*
Y1723785D01*
G03*
X1907294Y1723409I800J0D01*
G02*
X1907400Y1722985I-794J-424D01*
G01*
Y1719985D01*
G02*
X1906504Y1719085I-900J0D01*
G03*
Y1717485I4J-800D01*
G02*
X1907400Y1716585I-4J-900D01*
G01*
Y1713585D01*
G02*
X1907160Y1712973I-900J0D01*
G03*
X1907059Y1712017I586J-545D01*
G02*
X1903601Y1708835I-2059J-1232D01*
G03*
X1903135Y1708985I-466J-650D01*
G01*
X1879214D01*
G03*
X1878468Y1708474I0J-800D01*
G02*
Y1713096I-5968J2311D01*
G03*
X1879214Y1712585I746J289D01*
G01*
X1901812D01*
G03*
X1902606Y1713479I-0J800D01*
G02*
X1902600Y1713585I894J106D01*
G01*
Y1716585D01*
G02*
X1903496Y1717485I900J0D01*
G03*
Y1719085I-4J800D01*
G02*
X1902600Y1719985I4J900D01*
G01*
Y1722985D01*
G02*
X1902706Y1723409I900J0D01*
G03*
X1902800Y1723785I-706J376D01*
G01*
Y1724471D01*
G03*
X1902750Y1724750I-800J0D01*
G37*
G74*
*
G75*
G36*
G01*
X1895400Y1738685D02*
G03*
X1895400I0J2400D01*
G37*
G74*
*
*
G04 PC Copper Outlines (1)*
G04 Layer Name DC1276B.pcb - dark (1)*
%LPD*%
*
*
G04 PC Area=Custom_Thermal*
*
G04 PC Custom Flashes*
G04 Layer Name DC1276B.pcb - flashes*
%LPD*%
*
*
G04 PC Circuitry*
G04 Layer Name DC1276B.pcb - circuitry*
%LPD*%
*
G54D10*
G01X1852500Y1431035D02*
Y1425785D01*
Y1431035D02*
X1853773D01*
X1854318Y1430785*
X1854682Y1430285*
X1854864Y1429785*
X1855045Y1429035*
Y1427785*
X1854864Y1427035*
X1854682Y1426535*
X1854318Y1426035*
X1853773Y1425785*
X1852500*
X1856682Y1427785D02*
X1858864D01*
Y1428285*
X1858682Y1428785*
X1858500Y1429035*
X1858136Y1429285*
X1857591*
X1857227Y1429035*
X1856864Y1428535*
X1856682Y1427785*
Y1427285*
X1856864Y1426535*
X1857227Y1426035*
X1857591Y1425785*
X1858136*
X1858500Y1426035*
X1858864Y1426535*
X1860500Y1429285D02*
Y1425785D01*
Y1428285D02*
X1861045Y1429035D01*
X1861409Y1429285*
X1861955*
X1862318Y1429035*
X1862500Y1428285*
Y1425785*
Y1428285D02*
X1863045Y1429035D01*
X1863409Y1429285*
X1863955*
X1864318Y1429035*
X1864500Y1428285*
Y1425785*
X1867045Y1429285D02*
X1866682Y1429035D01*
X1866318Y1428535*
X1866136Y1427785*
Y1427285*
X1866318Y1426535*
X1866682Y1426035*
X1867045Y1425785*
X1867591*
X1867955Y1426035*
X1868318Y1426535*
X1868500Y1427285*
Y1427785*
X1868318Y1428535*
X1867955Y1429035*
X1867591Y1429285*
X1867045*
X1877045Y1429785D02*
X1876864Y1430285D01*
X1876500Y1430785*
X1876136Y1431035*
X1875409*
X1875045Y1430785*
X1874682Y1430285*
X1874500Y1429785*
X1874318Y1429035*
Y1427785*
X1874500Y1427035*
X1874682Y1426535*
X1875045Y1426035*
X1875409Y1425785*
X1876136*
X1876500Y1426035*
X1876864Y1426535*
X1877045Y1427035*
X1878682Y1431035D02*
X1878864Y1430785D01*
X1879045Y1431035*
X1878864Y1431285*
X1878682Y1431035*
X1878864Y1429285D02*
Y1425785D01*
X1880682Y1429285D02*
Y1425785D01*
Y1427785D02*
X1880864Y1428535D01*
X1881227Y1429035*
X1881591Y1429285*
X1882136*
X1885955Y1428535D02*
X1885591Y1429035D01*
X1885227Y1429285*
X1884682*
X1884318Y1429035*
X1883955Y1428535*
X1883773Y1427785*
Y1427285*
X1883955Y1426535*
X1884318Y1426035*
X1884682Y1425785*
X1885227*
X1885591Y1426035*
X1885955Y1426535*
X1887591Y1429285D02*
Y1426785D01*
X1887773Y1426035*
X1888136Y1425785*
X1888682*
X1889045Y1426035*
X1889591Y1426785*
Y1429285D02*
Y1425785D01*
X1891227Y1431035D02*
X1891409Y1430785D01*
X1891591Y1431035*
X1891409Y1431285*
X1891227Y1431035*
X1891409Y1429285D02*
Y1425785D01*
X1893773Y1431035D02*
Y1426785D01*
X1893955Y1426035*
X1894318Y1425785*
X1894682*
X1893227Y1429285D02*
X1894500D01*
X1900500Y1430035D02*
X1900864Y1430285D01*
X1901409Y1431035*
Y1425785*
X1903227Y1429785D02*
Y1430035D01*
X1903409Y1430535*
X1903591Y1430785*
X1903955Y1431035*
X1904682*
X1905045Y1430785*
X1905227Y1430535*
X1905409Y1430035*
Y1429535*
X1905227Y1429035*
X1904864Y1428285*
X1903045Y1425785*
X1905591*
X1909773Y1431035D02*
X1907955Y1425785D01*
X1907227Y1431035D02*
X1909773D01*
X1913591Y1430285D02*
X1913409Y1430785D01*
X1912864Y1431035*
X1912500*
X1911955Y1430785*
X1911591Y1430035*
X1911409Y1428785*
Y1427535*
X1911591Y1426535*
X1911955Y1426035*
X1912500Y1425785*
X1912682*
X1913227Y1426035*
X1913591Y1426535*
X1913773Y1427285*
Y1427535*
X1913591Y1428285*
X1913227Y1428785*
X1912682Y1429035*
X1912500*
X1911955Y1428785*
X1911591Y1428285*
X1911409Y1427535*
X1915409Y1431035D02*
Y1425785D01*
Y1431035D02*
X1917045D01*
X1917591Y1430785*
X1917773Y1430535*
X1917955Y1430035*
Y1429535*
X1917773Y1429035*
X1917591Y1428785*
X1917045Y1428535*
X1915409D02*
X1917045D01*
X1917591Y1428285*
X1917773Y1428035*
X1917955Y1427535*
Y1426785*
X1917773Y1426285*
X1917591Y1426035*
X1917045Y1425785*
X1915409*
X1852500Y1441035D02*
Y1435785D01*
X1854682*
X1856318Y1441035D02*
X1856500Y1440785D01*
X1856682Y1441035*
X1856500Y1441285*
X1856318Y1441035*
X1856500Y1439285D02*
Y1435785D01*
X1858318Y1439285D02*
Y1435785D01*
Y1438285D02*
X1858864Y1439035D01*
X1859227Y1439285*
X1859773*
X1860136Y1439035*
X1860318Y1438285*
Y1435785*
X1861955Y1437785D02*
X1864136D01*
Y1438285*
X1863955Y1438785*
X1863773Y1439035*
X1863409Y1439285*
X1862864*
X1862500Y1439035*
X1862136Y1438535*
X1861955Y1437785*
Y1437285*
X1862136Y1436535*
X1862500Y1436035*
X1862864Y1435785*
X1863409*
X1863773Y1436035*
X1864136Y1436535*
X1867955Y1439285D02*
Y1435785D01*
Y1438535D02*
X1867591Y1439035D01*
X1867227Y1439285*
X1866682*
X1866318Y1439035*
X1865955Y1438535*
X1865773Y1437785*
Y1437285*
X1865955Y1436535*
X1866318Y1436035*
X1866682Y1435785*
X1867227*
X1867591Y1436035*
X1867955Y1436535*
X1869591Y1439285D02*
Y1435785D01*
Y1437785D02*
X1869773Y1438535D01*
X1870136Y1439035*
X1870500Y1439285*
X1871045*
X1878136Y1441035D02*
Y1435785D01*
X1876864Y1441035D02*
X1879409D01*
X1881045Y1437785D02*
X1883227D01*
Y1438285*
X1883045Y1438785*
X1882864Y1439035*
X1882500Y1439285*
X1881955*
X1881591Y1439035*
X1881227Y1438535*
X1881045Y1437785*
Y1437285*
X1881227Y1436535*
X1881591Y1436035*
X1881955Y1435785*
X1882500*
X1882864Y1436035*
X1883227Y1436535*
X1887045Y1438535D02*
X1886682Y1439035D01*
X1886318Y1439285*
X1885773*
X1885409Y1439035*
X1885045Y1438535*
X1884864Y1437785*
Y1437285*
X1885045Y1436535*
X1885409Y1436035*
X1885773Y1435785*
X1886318*
X1886682Y1436035*
X1887045Y1436535*
X1888682Y1441035D02*
Y1435785D01*
Y1438285D02*
X1889227Y1439035D01*
X1889591Y1439285*
X1890136*
X1890500Y1439035*
X1890682Y1438285*
Y1435785*
X1892500Y1436285D02*
X1892318Y1436035D01*
X1892500Y1435785*
X1892682Y1436035*
X1892500Y1436285*
X1901227Y1439785D02*
X1901045Y1440285D01*
X1900682Y1440785*
X1900318Y1441035*
X1899591*
X1899227Y1440785*
X1898864Y1440285*
X1898682Y1439785*
X1898500Y1439035*
Y1437785*
X1898682Y1437035*
X1898864Y1436535*
X1899227Y1436035*
X1899591Y1435785*
X1900318*
X1900682Y1436035*
X1901045Y1436535*
X1901227Y1437035*
X1903773Y1439285D02*
X1903409Y1439035D01*
X1903045Y1438535*
X1902864Y1437785*
Y1437285*
X1903045Y1436535*
X1903409Y1436035*
X1903773Y1435785*
X1904318*
X1904682Y1436035*
X1905045Y1436535*
X1905227Y1437285*
Y1437785*
X1905045Y1438535*
X1904682Y1439035*
X1904318Y1439285*
X1903773*
X1906864D02*
Y1435785D01*
Y1437785D02*
X1907045Y1438535D01*
X1907409Y1439035*
X1907773Y1439285*
X1908318*
X1909955D02*
Y1434035D01*
Y1438535D02*
X1910318Y1439035D01*
X1910682Y1439285*
X1911227*
X1911591Y1439035*
X1911955Y1438535*
X1912136Y1437785*
Y1437285*
X1911955Y1436535*
X1911591Y1436035*
X1911227Y1435785*
X1910682*
X1910318Y1436035*
X1909955Y1436535*
X1913955Y1436285D02*
X1913773Y1436035D01*
X1913955Y1435785*
X1914136Y1436035*
X1913955Y1436285*
X1970800Y1439547D02*
Y1432985D01*
X1973527*
X1978300Y1437360D02*
Y1432985D01*
Y1436422D02*
X1977845Y1437047D01*
X1977845D02*
X1977391Y1437360D01*
X1976709*
X1976255Y1437047*
X1976255D02*
X1975800Y1436422D01*
X1975800D02*
X1975573Y1435485D01*
Y1434860*
X1975800Y1433922*
X1975800D02*
X1976255Y1433297D01*
X1976255D02*
X1976709Y1432985D01*
X1977391*
X1977845Y1433297*
X1977845D02*
X1978300Y1433922D01*
X1980573Y1437360D02*
X1981936Y1432985D01*
X1983300Y1437360D02*
X1981936Y1432985D01*
X1981482Y1431735*
X1981027Y1431110*
X1980573Y1430797*
X1980573D02*
X1980345D01*
X1985345Y1435485D02*
X1988073D01*
Y1436110*
X1987845Y1436735*
X1987618Y1437047*
X1987618D02*
X1987164Y1437360D01*
X1986482*
X1986027Y1437047*
X1986027D02*
X1985573Y1436422D01*
X1985573D02*
X1985345Y1435485D01*
Y1434860*
X1985573Y1433922*
X1985573D02*
X1986027Y1433297D01*
X1986027D02*
X1986482Y1432985D01*
X1987164*
X1987618Y1433297*
X1987618D02*
X1988073Y1433922D01*
X1990118Y1437360D02*
Y1432985D01*
Y1435485D02*
X1990345Y1436422D01*
X1990345D02*
X1990800Y1437047D01*
X1990800D02*
X1991255Y1437360D01*
X1991936*
X1996255Y1439547D02*
X1993982Y1435172D01*
X1993982D02*
X1997391D01*
X1996255Y1439547D02*
Y1432985D01*
G54D12*
X1872500Y1625785D03*
X2127500Y1535785D03*
Y1573285D03*
Y1610785D03*
Y1645785D03*
Y1683285D03*
X2090000Y1500785D03*
X1872500Y1580785D03*
X2127500Y1720785D03*
G54D19*
X1989200Y1614185D03*
X1995600D03*
X1872500Y1612235D02*
Y1611435D01*
Y1605935D02*
Y1605135D01*
X1905000Y1721485D03*
Y1715085D03*
G54D33*
X1872500Y1611835D02*
Y1625785D01*
G54D34*
X1947500Y1530785D02*
X1955700D01*
Y1523485D02*
Y1526185D01*
X2006900Y1523485D02*
Y1526085D01*
Y1530685D02*
X2007300Y1530785D01*
X2000000*
X2060500Y1523485D02*
Y1526185D01*
X2060400*
Y1545385D02*
Y1530785D01*
X2050000*
X1872500Y1580785D02*
Y1593685D01*
X1981000Y1611185D02*
Y1614185D01*
X1989700Y1609185D02*
Y1609385D01*
X1996700*
X2004400Y1617085*
Y1619685*
Y1637085D02*
X2004500D01*
X2005600Y1638185*
Y1640385*
X2002500Y1642085D02*
X2002600Y1642185D01*
Y1644985*
X2005600*
X2002500Y1642085D02*
Y1661285D01*
X1872500Y1670785D02*
X1911800D01*
X1911900Y1670885*
X1872500Y1710785D02*
X1905000D01*
Y1715385*
X2010900Y1714585D02*
X2018900D01*
X2042300Y1729385D02*
Y1733285D01*
X2057700Y1715885D02*
Y1719085D01*
X2062300D02*
Y1725285D01*
X2057700D02*
X2050000D01*
X2033000Y1733285D02*
X2037700D01*
X2042300D02*
X2042400Y1733385D01*
Y1736785*
X2057600Y1741085D02*
X2050000D01*
X2062200D02*
X2065900D01*
X2050000Y1733185D02*
X2049900Y1733285D01*
X2042300*
G54D35*
X1872500Y1598285D02*
Y1604185D01*
X1989200Y1614185D02*
X1985600D01*
X1905000Y1721485D02*
Y1725585D01*
G54D36*
X2135900Y1573285D02*
G75*
G03X2135900I-8400J0D01*
G01Y1610785D02*
G03X2135900I-8400J0D01*
G01Y1683285D02*
G03X2135900I-8400J0D01*
G01X2108650Y1537911D02*
G03X2108650I-3650J0D01*
G01X2056400Y1500785D02*
G03X2056400I-6400J0D01*
G01Y1755785D02*
G03X2056400I-6400J0D01*
G01X2015100Y1627385D02*
G03X2015100I-2400J0D01*
G01X2006400Y1500785D02*
G03X2006400I-6400J0D01*
G01X1995000Y1544785D02*
G03X1995000I-2400J0D01*
G01X2006400Y1755785D02*
G03X2006400I-6400J0D01*
G01X1985000Y1635085D02*
G03X1985000I-2400J0D01*
G01X1953900Y1500785D02*
G03X1953900I-6400J0D01*
G01Y1755785D02*
G03X1953900I-6400J0D01*
G01X1875214Y1537124D02*
G03X1875214I-2950J0D01*
G01Y1554446D02*
G03X1875214I-2950J0D01*
G01X1897800Y1741085D02*
G03X1897800I-2400J0D01*
G01X2147100Y1481985D02*
Y1766809D01*
G03X2145747Y1767387I-800J-0*
G01X2139102Y1774032D02*
G03X2145747Y1767387I3398J-3247D01*
G01X2139102Y1774032D02*
G03X2138524Y1775385I-578J553D01*
G01X1853700*
G03X1852900Y1774585I0J-800*
G01Y1489761*
G03X1854253Y1489183I800J0*
G01X1860898Y1482538D02*
G03X1854253Y1489183I-3398J3247D01*
G01X1860898Y1482538D02*
G03X1861476Y1481185I578J-553D01*
G01X2146300*
G03X2147100Y1481985I0J800*
G01X2135900Y1573285D02*
G03X2135900I-8400J0D01*
G01Y1610785D02*
G03X2135900I-8400J0D01*
G01Y1683285D02*
G03X2135900I-8400J0D01*
G01X2108650Y1537911D02*
G03X2108650I-3650J0D01*
G01Y1556409D02*
Y1550909D01*
X2107750Y1550009D02*
G03X2108650Y1550909I0J900D01*
G01X2107750Y1550009D02*
X2102250D01*
X2101350Y1550909D02*
G03X2102250Y1550009I900J0D01*
G01X2101350Y1550909D02*
Y1556409D01*
X2102250Y1557309D02*
G03X2101350Y1556409I0J-900D01*
G01X2102250Y1557309D02*
X2107750D01*
X2108650Y1556409D02*
G03X2107750Y1557309I-900J0D01*
G01X2056400Y1500785D02*
G03X2056400I-6400J0D01*
G01X2062350Y1543986D02*
G03X2058450I-1950J1399D01*
G01X2062350D02*
G03X2062200Y1543520I650J-466D01*
G01Y1532609*
G03X2062247Y1532339I800J0*
G01X2062300Y1532035D02*
G03X2062247Y1532339I-900J0D01*
G01X2062300Y1532035D02*
Y1529535D01*
X2061400Y1528635D02*
G03X2062300Y1529535I0J900D01*
G01X2061400Y1528635D02*
X2059400D01*
X2058853Y1528820D02*
G03X2059400Y1528635I547J715D01*
G01X2058853Y1528820D02*
G03X2058367Y1528985I-486J-635D01*
G01X2053611*
G03X2052962Y1528652I0J-800*
G01X2048319Y1534025D02*
G03X2052962Y1528652I1681J-3240D01*
G01X2048319Y1534025D02*
G03Y1535445I-368J710D01*
G01X2051681D02*
G03X2048319I-1681J3240D01*
G01X2051681D02*
G03Y1534025I368J-710D01*
G01X2052962Y1532918D02*
G03X2051681Y1534025I-2962J-2133D01*
G01X2052962Y1532918D02*
G03X2053611Y1532585I649J467D01*
G01X2057800*
G03X2058600Y1533385I-0J800*
G01Y1543520*
G03X2058450Y1543986I-800J-0*
G01X2064501Y1739135D02*
G03Y1743035I1399J1950D01*
G01Y1739135D02*
G03X2064035Y1739285I-466J-650D01*
G01X2064024*
G03X2063754Y1739238I0J-800*
G01X2063450Y1739185D02*
G03X2063754Y1739238I0J900D01*
G01X2063450Y1739185D02*
X2060950D01*
X2060394Y1739377D02*
G03X2060950Y1739185I556J708D01*
G01X2060394Y1739377D02*
G03X2059406I-494J-629D01*
G01X2058850Y1739185D02*
G03X2059406Y1739377I0J900D01*
G01X2058850Y1739185D02*
X2056350D01*
X2056046Y1739238D02*
G03X2056350Y1739185I304J847D01*
G01X2056046Y1739238D02*
G03X2055776Y1739285I-270J-753D01*
G01X2053611*
G03X2052962Y1738952I0J-800*
G01X2051681Y1737845D02*
G03X2052962Y1738952I-1681J3240D01*
G01X2051681Y1737845D02*
G03Y1736425I368J-710D01*
G01X2052304Y1730354D02*
G03X2051681Y1736425I-2304J2831D01*
G01X2052304Y1730354D02*
G03X2052781Y1728934I505J-620D01*
G01X2053650Y1728035D02*
G03X2052781Y1728934I-900J0D01*
G01X2053650Y1728035D02*
Y1727885D01*
G03X2054450Y1727085I800J0*
G01X2055876*
G03X2056146Y1727132I-0J800*
G01X2056450Y1727185D02*
G03X2056146Y1727132I0J-900D01*
G01X2056450Y1727185D02*
X2058950D01*
X2059506Y1726993D02*
G03X2058950Y1727185I-556J-708D01*
G01X2059506Y1726993D02*
G03X2060494I494J629D01*
G01X2061050Y1727185D02*
G03X2060494Y1726993I0J-900D01*
G01X2061050Y1727185D02*
X2063550D01*
X2064450Y1726285D02*
G03X2063550Y1727185I-900J0D01*
G01X2064450Y1726285D02*
Y1724285D01*
X2064265Y1723738D02*
G03X2064450Y1724285I-715J547D01*
G01X2064265Y1723738D02*
G03X2064100Y1723252I635J-486D01*
G01Y1721118*
G03X2064265Y1720632I800J0*
G01X2064450Y1720085D02*
G03X2064265Y1720632I-900J0D01*
G01X2064450Y1720085D02*
Y1718085D01*
X2063550Y1717185D02*
G03X2064450Y1718085I0J900D01*
G01X2063550Y1717185D02*
X2061050D01*
X2060150Y1718085D02*
G03X2061050Y1717185I900J0D01*
G01X2060150Y1718085D02*
Y1720085D01*
X2060335Y1720632D02*
G03X2060150Y1720085I715J-547D01*
G01X2060335Y1720632D02*
G03X2060500Y1721118I-635J486D01*
G01Y1722759*
G03X2059347Y1723477I-800J0*
G01X2058950Y1723385D02*
G03X2059347Y1723477I0J900D01*
G01X2058950Y1723385D02*
X2056450D01*
X2056146Y1723438D02*
G03X2056450Y1723385I304J847D01*
G01X2056146Y1723438D02*
G03X2055876Y1723485I-270J-753D01*
G01X2054450*
G03X2053650Y1722685I0J-800*
G01Y1722535*
X2052750Y1721635D02*
G03X2053650Y1722535I0J900D01*
G01X2052750Y1721635D02*
X2047250D01*
X2046350Y1722535D02*
G03X2047250Y1721635I900J0D01*
G01X2046350Y1722535D02*
Y1728035D01*
X2047219Y1728934D02*
G03X2046350Y1728035I31J-899D01*
G01X2047219Y1728934D02*
G03X2047696Y1730354I-28J800D01*
G01X2046980Y1731134D02*
G03X2047696Y1730354I3020J2051D01*
G01X2046980Y1731134D02*
G03X2046319Y1731485I-661J-449D01*
G01X2045224*
G03X2044493Y1730360I0J-800*
G01X2040090Y1730321D02*
G03X2044493Y1730360I2210J-936D01*
G01X2040090Y1730321D02*
G03X2039164Y1731411I-736J313D01*
G01X2038950Y1731385D02*
G03X2039164Y1731411I0J900D01*
G01X2038950Y1731385D02*
X2036450D01*
X2036146Y1731438D02*
G03X2036450Y1731385I304J847D01*
G01X2036146Y1731438D02*
G03X2035876Y1731485I-270J-753D01*
G01X2034865*
G03X2034399Y1731335I0J-800*
G01Y1735235D02*
G03Y1731335I-1399J-1950D01*
G01Y1735235D02*
G03X2034865Y1735085I466J650D01*
G01X2035876*
G03X2036146Y1735132I-0J800*
G01X2036450Y1735185D02*
G03X2036146Y1735132I0J-900D01*
G01X2036450Y1735185D02*
X2038950D01*
X2039142Y1735164D02*
G03X2038950Y1735185I-192J-879D01*
G01X2039142Y1735164D02*
G03X2040084Y1736156I170J782D01*
G01X2044703Y1736110D02*
G03X2040084Y1736156I-2303J675D01*
G01X2044703Y1736110D02*
G03X2045471Y1735085I768J-225D01*
G01X2046463*
G03X2047099Y1735400I-0J800*
G01X2048319Y1736425D02*
G03X2047099Y1735400I1681J-3240D01*
G01X2048319Y1736425D02*
G03Y1737845I-368J710D01*
G01X2052962Y1743218D02*
G03X2048319Y1737845I-2962J-2133D01*
G01X2052962Y1743218D02*
G03X2053611Y1742885I649J467D01*
G01X2055776*
G03X2056046Y1742932I-0J800*
G01X2056350Y1742985D02*
G03X2056046Y1742932I0J-900D01*
G01X2056350Y1742985D02*
X2058850D01*
X2059406Y1742793D02*
G03X2058850Y1742985I-556J-708D01*
G01X2059406Y1742793D02*
G03X2060394I494J629D01*
G01X2060950Y1742985D02*
G03X2060394Y1742793I0J-900D01*
G01X2060950Y1742985D02*
X2063450D01*
X2063754Y1742932D02*
G03X2063450Y1742985I-304J-847D01*
G01X2063754Y1742932D02*
G03X2064024Y1742885I270J753D01*
G01X2064035*
G03X2064501Y1743035I-0J800*
G01X2056400Y1755785D02*
G03X2056400I-6400J0D01*
G01X2015100Y1627385D02*
G03X2015100I-2400J0D01*
G01X2006400Y1500785D02*
G03X2006400I-6400J0D01*
G01X2008892Y1529946D02*
G03X2008891Y1531626I-1592J839D01*
G01X2008892Y1529946D02*
G03X2008800Y1529573I708J-373D01*
G01Y1529435*
X2007900Y1528535D02*
G03X2008800Y1529435I0J900D01*
G01X2007900Y1528535D02*
X2005900D01*
X2005290Y1528773D02*
G03X2005900Y1528535I610J662D01*
G01X2005290Y1528773D02*
G03X2004748Y1528985I-542J-588D01*
G01X2003611*
G03X2002962Y1528652I0J-800*
G01X1998319Y1534025D02*
G03X2002962Y1528652I1681J-3240D01*
G01X1998319Y1534025D02*
G03Y1535445I-368J710D01*
G01X2001681D02*
G03X1998319I-1681J3240D01*
G01X2001681D02*
G03Y1534025I368J-710D01*
G01X2002962Y1532918D02*
G03X2001681Y1534025I-2962J-2133D01*
G01X2002962Y1532918D02*
G03X2003611Y1532585I649J467D01*
G01X2005013*
G03X2005430Y1532703I-0J800*
G01X2005900Y1532835D02*
G03X2005430Y1532703I0J-900D01*
G01X2005900Y1532835D02*
X2007900D01*
X2008799Y1531969D02*
G03X2007900Y1532835I-899J-34D01*
G01X2008799Y1531969D02*
G03X2008891Y1531626I800J31D01*
G01X2017501Y1712635D02*
G03Y1716535I1399J1950D01*
G01Y1712635D02*
G03X2017035Y1712785I-466J-650D01*
G01X2012765*
G03X2012299Y1712635I0J-800*
G01Y1716535D02*
G03Y1712635I-1399J-1950D01*
G01Y1716535D02*
G03X2012765Y1716385I466J650D01*
G01X2017035*
G03X2017501Y1716535I-0J800*
G01X1995000Y1544785D02*
G03X1995000I-2400J0D01*
G01X2006350Y1618286D02*
G03X2002348Y1618441I-1950J1399D01*
G01X2006350Y1618286D02*
G03X2006200Y1617820I650J-466D01*
G01Y1617085*
X2005673Y1615812D02*
G03X2006200Y1617085I-1273J1273D01*
G01X2005673Y1615812D02*
X2000786Y1610925D01*
G03X2000788Y1609791I565J-566*
G01X1996907Y1607110D02*
G03X2000788Y1609791I2193J975D01*
G01X1996907Y1607110D02*
G03X1996176Y1607585I-731J-325D01*
G01X1991817*
G03X1991287Y1607385I-0J-800*
G01X1987769Y1610610D02*
G03X1991287Y1607385I1931J-1425D01*
G01X1987769Y1610610D02*
G03X1987396Y1611838I-644J475D01*
G01X1987276Y1611891D02*
G03X1987396Y1611838I424J794D01*
G01X1987276Y1611891D02*
G03X1986900Y1611985I-376J-706D01*
G01X1985600*
X1984639Y1612206D02*
G03X1985600Y1611985I961J1979D01*
G01X1984639Y1612206D02*
G03X1984318Y1612286I-349J-720D01*
G01X1983450Y1613185D02*
G03X1984318Y1612286I900J0D01*
G01X1983450Y1613185D02*
Y1613640D01*
G03X1983437Y1613785I-800J-0*
G01Y1614585D02*
G03Y1613785I2163J-400D01*
G01Y1614585D02*
G03X1983450Y1614730I-787J145D01*
G01Y1615185*
X1984318Y1616084D02*
G03X1983450Y1615185I32J-899D01*
G01X1984318Y1616084D02*
G03X1984639Y1616164I-28J800D01*
G01X1985600Y1616385D02*
G03X1984639Y1616164I0J-2200D01*
G01X1985600Y1616385D02*
X1986900D01*
G03X1987276Y1616479I-0J800*
G01X1987700Y1616585D02*
G03X1987276Y1616479I0J-900D01*
G01X1987700Y1616585D02*
X1990700D01*
X1991574Y1615898D02*
G03X1990700Y1616585I-874J-213D01*
G01X1991574Y1615898D02*
G03X1993151Y1616063I778J190D01*
G01X1993868Y1617717D02*
G03X1993151Y1616063I1732J-1732D01*
G01X1993868Y1617717D02*
X1995568Y1619417D01*
X1999654Y1617006D02*
G03X1995568Y1619417I-2354J679D01*
G01X1999654Y1617006D02*
G03X2000989Y1616219I769J-221D01*
G01X2002229Y1617460*
G03X2002348Y1618441I-565J566*
G01X2007500Y1646235D02*
Y1643735D01*
X2007308Y1643179D02*
G03X2007500Y1643735I-708J556D01*
G01X2007308Y1643179D02*
G03Y1642191I629J-494D01*
G01X2007500Y1641635D02*
G03X2007308Y1642191I-900J0D01*
G01X2007500Y1641635D02*
Y1639135D01*
X2007447Y1638831D02*
G03X2007500Y1639135I-847J304D01*
G01X2007447Y1638831D02*
G03X2007400Y1638561I753J-270D01*
G01Y1638185*
X2006941Y1636984D02*
G03X2007400Y1638185I-1341J1201D01*
G01X2006941Y1636984D02*
G03X2006752Y1636609I595J-534D01*
G01X2002280Y1635960D02*
G03X2006752Y1636609I2120J1125D01*
G01X2002280Y1635960D02*
G03X2001580Y1636385I-707J-375D01*
G01X1999980Y1640556D02*
G03X2001580Y1636385I1620J-1771D01*
G01X1999980Y1640556D02*
G03X2000205Y1641381I-539J591D01*
G01X2000550Y1643484D02*
G03X2000205Y1641381I1950J-1399D01*
G01X2000550Y1643484D02*
G03X2000700Y1643950I-650J466D01*
G01Y1656782*
G03X2000300Y1657474I-800J-0*
G01X2004700D02*
G03X2000300I-2200J3811D01*
G01X2004700D02*
G03X2004300Y1656782I400J-692D01*
G01Y1647935*
G03X2005100Y1647135I800J0*
G01X2006600*
X2007500Y1646235D02*
G03X2006600Y1647135I-900J0D01*
G01X1993452Y1633480D02*
G03X1992450Y1637084I948J2205D01*
G01X1993452Y1633480D02*
G03X1992452Y1632330I-316J-735D01*
G01X1990097Y1628704D02*
G03X1992452Y1632330I303J2381D01*
G01X1990097Y1628704D02*
G03X1989247Y1627629I-101J-793D01*
G01X1987303Y1629166D02*
G03X1989247Y1627629I-303J-2381D01*
G01X1987303Y1629166D02*
G03X1988153Y1630241I101J793D01*
G01X1988395Y1632404D02*
G03X1988153Y1630241I2005J-1319D01*
G01X1988395Y1632404D02*
G03X1988095Y1633554I-668J440D01*
G01X1991150Y1637084D02*
G03X1988095Y1633554I-1950J-1399D01*
G01X1991150Y1637084D02*
G03X1992450I650J467D01*
G01X2001681Y1729945D02*
G03X1998319I-1681J3240D01*
G01X2001681D02*
G03Y1728525I368J-710D01*
G01X1998319D02*
G03X2001681I1681J-3240D01*
G01X1998319D02*
G03Y1729945I-368J710D01*
G01X2006400Y1755785D02*
G03X2006400I-6400J0D01*
G01X1985000Y1635085D02*
G03X1985000I-2400J0D01*
G01X1953900Y1500785D02*
G03X1953900I-6400J0D01*
G01X1957600Y1532035D02*
Y1529535D01*
X1956700Y1528635D02*
G03X1957600Y1529535I0J900D01*
G01X1956700Y1528635D02*
X1954700D01*
X1954153Y1528820D02*
G03X1954700Y1528635I547J715D01*
G01X1954153Y1528820D02*
G03X1953667Y1528985I-486J-635D01*
G01X1951111*
G03X1950462Y1528652I0J-800*
G01X1945819Y1534025D02*
G03X1950462Y1528652I1681J-3240D01*
G01X1945819Y1534025D02*
G03Y1535445I-368J710D01*
G01X1949181D02*
G03X1945819I-1681J3240D01*
G01X1949181D02*
G03Y1534025I368J-710D01*
G01X1950462Y1532918D02*
G03X1949181Y1534025I-2962J-2133D01*
G01X1950462Y1532918D02*
G03X1951111Y1532585I649J467D01*
G01X1953667*
G03X1954153Y1532750I-0J800*
G01X1954700Y1532935D02*
G03X1954153Y1532750I0J-900D01*
G01X1954700Y1532935D02*
X1956700D01*
X1957600Y1532035D02*
G03X1956700Y1532935I-900J0D01*
G01X1949181Y1737845D02*
G03X1945819I-1681J3240D01*
G01X1949181D02*
G03Y1736425I368J-710D01*
G01X1945819D02*
G03X1949181I1681J-3240D01*
G01X1945819D02*
G03Y1737845I-368J710D01*
G01X1953900Y1755785D02*
G03X1953900I-6400J0D01*
G01X1903448Y1545967D02*
G03X1899000Y1552814I-2848J3018D01*
G01X1903448Y1545967D02*
G03Y1544803I549J-582D01*
G01X1903357Y1538683D02*
G03X1903448Y1544803I-2757J3102D01*
G01X1903357Y1538683D02*
G03Y1537487I531J-598D01*
G01X1897843D02*
G03X1903357I2757J-3102D01*
G01X1897843D02*
G03Y1538683I-531J598D01*
G01X1897752Y1544803D02*
G03X1897843Y1538683I2848J-3018D01*
G01X1897752Y1544803D02*
G03Y1545967I-549J582D01*
G01X1896681Y1550350D02*
G03X1897752Y1545967I3919J-1365D01*
G01X1896681Y1550350D02*
G03X1895819Y1551406I-756J263D01*
G01X1894187Y1551776D02*
G03X1895819Y1551406I1313J2009D01*
G01X1894187Y1551776D02*
G03X1893313I-437J-670D01*
G01X1889991Y1555098D02*
G03X1893313Y1551776I2009J-1313D01*
G01X1889991Y1555098D02*
G03Y1555972I-670J437D01*
G01X1893313Y1559294D02*
G03X1889991Y1555972I-1313J-2009D01*
G01X1893313Y1559294D02*
G03X1894187I437J670D01*
G01X1897509Y1555972D02*
G03X1894187Y1559294I-2009J1313D01*
G01X1897509Y1555972D02*
G03Y1555098I670J-437D01*
G01X1897894Y1553611D02*
G03X1897509Y1555098I-2394J174D01*
G01X1897894Y1553610D02*
G03X1899000Y1552814I798J-58D01*
G01X1875214Y1537124D02*
G03X1875214I-2950J0D01*
G01Y1554446D02*
G03X1875214I-2950J0D01*
G01X1877584Y1608341D02*
G03Y1615329I1216J3494D01*
G01Y1608341D02*
G03X1877321Y1608385I-263J-756D01*
G01X1875693*
G03X1874897Y1607514I0J-800*
G01X1874900Y1607435D02*
G03X1874897Y1607514I-900J0D01*
G01X1874900Y1607435D02*
Y1603635D01*
X1874794Y1603211D02*
G03X1874900Y1603635I-794J424D01*
G01X1874794Y1603211D02*
G03X1874700Y1602835I706J-376D01*
G01Y1598285*
X1874479Y1597324D02*
G03X1874700Y1598285I-1979J961D01*
G01X1874479Y1597324D02*
G03X1874399Y1597003I720J-349D01*
G01X1873500Y1596135D02*
G03X1874399Y1597003I0J900D01*
G01X1873500Y1596135D02*
X1873045D01*
G03X1872900Y1596122I0J-800*
G01X1872100D02*
G03X1872900I400J2163D01*
G01X1872100D02*
G03X1871955Y1596135I-145J-787D01*
G01X1871500*
X1870601Y1597003D02*
G03X1871500Y1596135I899J32D01*
G01X1870601Y1597003D02*
G03X1870521Y1597324I-800J-28D01*
G01X1870300Y1598285D02*
G03X1870521Y1597324I2200J0D01*
G01X1870300Y1598285D02*
Y1602835D01*
G03X1870206Y1603211I-800J-0*
G01X1870100Y1603635D02*
G03X1870206Y1603211I900J0D01*
G01X1870100Y1603635D02*
Y1607435D01*
X1870340Y1608047D02*
G03X1870100Y1607435I660J-612D01*
G01X1870340Y1608047D02*
G03X1870271Y1609202I-586J544D01*
G01X1869659Y1613792D02*
G03X1870271Y1609202I2841J-1957D01*
G01X1869659Y1613792D02*
G03X1869800Y1614246I-659J454D01*
G01Y1617277*
G03X1869304Y1618017I-800J-0*
G01X1875696D02*
G03X1869304I-3196J7768D01*
G01X1875696D02*
G03X1875200Y1617277I304J-740D01*
G01Y1616085*
G03X1876000Y1615285I800J0*
G01X1877321*
G03X1877584Y1615329I-0J800*
G01X1910612Y1668860D02*
G03X1910402Y1672760I1288J2025D01*
G01X1910612Y1668860D02*
G03X1910182Y1668985I-430J-675D01*
G01X1879214*
G03X1878468Y1668474I0J-800*
G01Y1673096D02*
G03Y1668474I-5968J-2311D01*
G01Y1673096D02*
G03X1879214Y1672585I746J289D01*
G01X1909902*
G03X1910402Y1672760I0J800*
G01X1907250Y1724750D02*
G03X1902750I-2250J835D01*
G01X1907250D02*
G03X1907200Y1724471I750J-279D01*
G01Y1723785*
G03X1907294Y1723409I800J0*
G01X1907400Y1722985D02*
G03X1907294Y1723409I-900J0D01*
G01X1907400Y1722985D02*
Y1719985D01*
X1906504Y1719085D02*
G03X1907400Y1719985I-4J900D01*
G01X1906504Y1719085D02*
G03Y1717485I4J-800D01*
G01X1907400Y1716585D02*
G03X1906504Y1717485I-900J0D01*
G01X1907400Y1716585D02*
Y1713585D01*
X1907160Y1712973D02*
G03X1907400Y1713585I-660J612D01*
G01X1907160Y1712973D02*
G03X1907059Y1712017I586J-545D01*
G01X1903601Y1708835D02*
G03X1907059Y1712017I1399J1950D01*
G01X1903601Y1708835D02*
G03X1903135Y1708985I-466J-650D01*
G01X1879214*
G03X1878468Y1708474I0J-800*
G01Y1713096D02*
G03Y1708474I-5968J-2311D01*
G01Y1713096D02*
G03X1879214Y1712585I746J289D01*
G01X1901812*
G03X1902606Y1713479I-0J800*
G01X1902600Y1713585D02*
G03X1902606Y1713479I900J0D01*
G01X1902600Y1713585D02*
Y1716585D01*
X1903496Y1717485D02*
G03X1902600Y1716585I4J-900D01*
G01X1903496Y1717485D02*
G03Y1719085I-4J800D01*
G01X1902600Y1719985D02*
G03X1903496Y1719085I900J0D01*
G01X1902600Y1719985D02*
Y1722985D01*
X1902706Y1723409D02*
G03X1902600Y1722985I794J-424D01*
G01X1902706Y1723409D02*
G03X1902800Y1723785I-706J376D01*
G01Y1724471*
G03X1902750Y1724750I-800J0*
G01X1897800Y1741085D02*
G03X1897800I-2400J0D01*
G01X1850000Y1478285D02*
X2150000D01*
Y1778285*
X1850000*
Y1478285*
X1953310Y1441915D02*
X2067510D01*
Y1421715*
X1953310*
Y1441915*
G54D37*
X1878800Y1611835D03*
G54D38*
X1955700Y1523485D03*
X2006900D03*
X2060500D03*
X1992600Y1544785D03*
X2060400Y1545385D03*
X1892000Y1557285D03*
Y1553785D03*
X1895500D03*
Y1557285D03*
X1981000Y1611185D03*
X2002500Y1601185D03*
X1999100Y1608085D03*
X1989700Y1609185D03*
X1986200Y1619785D03*
X1987000Y1626785D03*
X1998100Y1630185D03*
X2001900Y1626385D03*
Y1630185D03*
X1990400Y1631085D03*
X2004400Y1619685D03*
X2000000Y1628285D03*
X1998100Y1626385D03*
X1997300Y1617685D03*
X2012700Y1627385D03*
X1982600Y1635085D03*
X2004400Y1637085D03*
X2002500Y1642085D03*
X1994400Y1635685D03*
X1989200D03*
X2001600Y1638785D03*
X1911900Y1670885D03*
X1905000Y1710785D03*
Y1725585D03*
X2018900Y1714585D03*
X2010900D03*
X2042300Y1729385D03*
X2057700Y1715885D03*
X1895400Y1741085D03*
X2042400Y1736785D03*
X2033000Y1733285D03*
X2065900Y1741085D03*
G54D40*
X1995600Y1614185D02*
Y1615985D01*
X1997300Y1617685*
G54D61*
X2005600Y1645235D02*
Y1644735D01*
Y1640635D02*
Y1640135D01*
X1955700Y1525935D02*
Y1526435D01*
Y1530535D02*
Y1531035D01*
X2057450Y1725285D02*
X2057950D01*
X2062050D02*
X2062550D01*
X2006900Y1525835D02*
Y1526335D01*
Y1530435D02*
Y1530935D01*
X2060400Y1525935D02*
Y1526435D01*
Y1530535D02*
Y1531035D01*
X2057450Y1719085D02*
X2057950D01*
X2062050D02*
X2062550D01*
X1985850Y1614185D02*
X1985350D01*
X1981250D02*
X1980750D01*
X2037450Y1733285D02*
X2037950D01*
X2042050D02*
X2042550D01*
X2062450Y1741085D02*
X2061950D01*
X2057850D02*
X2057350D01*
X1872500Y1593435D02*
Y1593935D01*
Y1598035D02*
Y1598535D01*
G54D82*
X1947500Y1725285D03*
Y1522885D03*
X2000000D03*
X2050000D03*
X2000000Y1741085D03*
X2050000Y1725285D03*
X2105000Y1553659D03*
G54D83*
X1947500Y1733185D03*
Y1741085D03*
Y1530785D03*
Y1538685D03*
X2000000Y1530785D03*
Y1538685D03*
X2050000Y1530785D03*
Y1538685D03*
X2000000Y1733185D03*
Y1725285D03*
X2050000Y1733185D03*
Y1741085D03*
X2105000Y1545785D03*
Y1537911D03*
G54D87*
X1900600Y1548985D03*
Y1541785D03*
Y1534385D03*
G54D90*
X2142500Y1770785D03*
X1857500Y1485785D03*
X2002500Y1661285D03*
G54D119*
X1947500Y1755785D03*
Y1500785D03*
X2000000D03*
X2050000D03*
X2000000Y1755785D03*
X2050000D03*
X1872500Y1710785D03*
Y1670785D03*
G54D141*
X2127500Y1755785D03*
X1872500D03*
X2127500Y1500785D03*
X1872500D03*
G54D181*
X1872264Y1554446D03*
Y1537124D03*
G54D211*
X1872500Y1611835D02*
X1878500D01*
G74*
X0Y0D02*
M02*
