%
T1C.01F095S3
X-0108Y-0071
X-0108Y-00745
X-01045Y-00745
X-01045Y-0071
X-00443Y-01048
X-00074Y-00835
X00069Y-01048
X00604Y-00829
X00605Y-01048
X00127Y-00009
X00044Y-00086
X00025Y-00271
X00019Y-00019
X00019Y00019
X0Y0
X-00009Y-00202
X-00019Y00019
X-00019Y-00019
X-00027Y-00106
X-00056Y00074
X-00096Y00028
X-00103Y-00191
X-00108Y00074
X-0013Y-00015
X-00138Y-00085
X-00174Y00068
X-0019Y-00171
X-00881Y00426
X00016Y00105
X00025Y00138
X00044Y00088
X00659Y01128
X00577Y00876
X00424Y01085
X00423Y01011
X0033Y0105
X00189Y00863
X00109Y00863
X-0095Y00973
X-0095Y00825
X-01046Y01128
T2C.03F197S55
X-01212Y-001645
T3C.031F197S55
X-00525Y-01054
X-00525Y-00975
X0Y-01054
X0Y-00975
X005Y-01054
X005Y-00975
X005Y-00896
X0Y-00896
X-00525Y-00896
X-00525Y01049
X-00525Y0097
X0Y01049
X0Y0097
X005Y0097
X005Y01049
X005Y01128
X0Y01128
X-00525Y01128
T4C.0311F197S55
X0105Y-007463
X0105Y-00825
X0105Y-009037
T5C.035F197S55
X-00994Y-00939
X-00994Y-00865
X-00994Y-00793
T6C.035F197S55
X-012774Y-007384
X-012774Y-009116
T7C.063F089S55
X-00525Y-01275
X0Y-01275
X005Y-01275
X-01275Y00425
X-01275Y00825
X-00525Y01275
X0Y01275
X005Y01275
T8C.07F081S55
X-01425Y-01425
X01425Y01425
T9C.094F066S55
X-01275Y-00475
X009Y-01275
X01275Y-0055
X01275Y-00925
X01275Y-00175
X01275Y00175
X01275Y0055
X-01275Y-00025
X01275Y00925
T10C.19F035S1033
X-01275Y-01275
X01275Y-01275
X01275Y01275
X-01275Y01275
M30
