*
*
G04 PADS Layout (Build Number 2006.45.1) generated Gerber (RS-274-X) file*
G04 PC Version=2.1*
*
%IN "DC1276B.pcb"*%
*
%MOIN*%
*
%FSLAX35Y35*%
*
*
*
*
G04 PC Standard Apertures*
*
*
G04 Thermal Relief Aperture macro.*
%AMTER*
1,1,$1,0,0*
1,0,$1-$2,0,0*
21,0,$3,$4,0,0,45*
21,0,$3,$4,0,0,135*
%
*
*
G04 Annular Aperture macro.*
%AMANN*
1,1,$1,0,0*
1,0,$2,0,0*
%
*
*
G04 Odd Aperture macro.*
%AMODD*
1,1,$1,0,0*
1,0,$1-0.005,0,0*
%
*
*
G04 PC Custom Aperture Macros*
*
*
*
*
*
*
G04 PC Aperture Table*
*
%ADD010C,0.01*%
%ADD014R,0.06X0.06*%
%ADD015R,0.05X0.05*%
%ADD019R,0.03X0.03*%
%ADD036C,0.008*%
%ADD039R,0.07874X0.07874*%
%ADD061R,0.02X0.02*%
%ADD070R,0.04X0.04*%
%ADD092R,0.01969X0.01969*%
%ADD093R,0.00984X0.00984*%
%ADD114R,0.06X0.05*%
%ADD192R,0.0374X0.0374*%
%ADD230R,0.06496X0.06496*%
%ADD237R,0.00886X0.00886*%
*
*
*
*
G04 PC Copper Outlines (0)*
G04 Layer Name DC1276B.pcb - dark (0)*
%LPD*%
*
*
G04 PC Area=_PSI_PAC_QFN(20)(UD)3MMX3MM.1_015_P162000000*
G75*
G36*
G01*
X1993110Y1630942D02*
Y1631927D01*
X1995177D01*
X1995866Y1631238D01*
Y1630942D01*
X1993110D01*
G37*
G74*
*
*
G04 PC Area=_PSI_PAC_QFN(20)(UD)3MMX3MM.1_019_P162000000*
G75*
G36*
G01*
X1993110Y1625628D02*
Y1624643D01*
X1995177D01*
X1995866Y1625332D01*
Y1625628D01*
X1993110D01*
G37*
G74*
*
*
G04 PC Area=_PSI_PAC_QFN(20)(UD)3MMX3MM.1_014_P162000000*
G75*
G36*
G01*
X1997343Y1635175D02*
X1996358D01*
Y1633108D01*
X1997047Y1632419D01*
X1997343D01*
Y1635175D01*
G37*
G74*
*
*
G04 PC Area=_PSI_PAC_QFN(20)(UD)3MMX3MM.1_000_P162000000*
G75*
G36*
G01*
X1997343Y1621395D02*
X1996358D01*
Y1623462D01*
X1997047Y1624151D01*
X1997343D01*
Y1621395D01*
G37*
G74*
*
*
G04 PC Area=_PSI_PAC_QFN(20)(UD)3MMX3MM.1_004_P162000000*
G75*
G36*
G01*
X2002657Y1621395D02*
X2003642D01*
Y1623462D01*
X2002953Y1624151D01*
X2002657D01*
Y1621395D01*
G37*
G74*
*
*
G04 PC Area=_PSI_PAC_QFN(20)(UD)3MMX3MM.1_010_P162000000*
G75*
G36*
G01*
X2002657Y1635175D02*
X2003642D01*
Y1633108D01*
X2002953Y1632419D01*
X2002657D01*
Y1635175D01*
G37*
G74*
*
*
G04 PC Area=_PSI_PAC_QFN(20)(UD)3MMX3MM.1_005_P162000000*
G75*
G36*
G01*
X2006890Y1625628D02*
Y1624643D01*
X2004823D01*
X2004134Y1625332D01*
Y1625628D01*
X2006890D01*
G37*
G74*
*
*
G04 PC Area=_PSI_PAC_QFN(20)(UD)3MMX3MM.1_009_P162000000*
G75*
G36*
G01*
X2006890Y1630942D02*
Y1631927D01*
X2004823D01*
X2004134Y1631238D01*
Y1630942D01*
X2006890D01*
G37*
G74*
*
*
G04 PC Copper Outlines (1)*
G04 Layer Name DC1276B.pcb - dark (1)*
%LPD*%
*
*
G04 PC Area=Custom_Thermal*
*
G04 PC Custom Flashes*
G04 Layer Name DC1276B.pcb - flashes*
%LPD*%
*
*
G04 PC Circuitry*
G04 Layer Name DC1276B.pcb - circuitry*
%LPD*%
*
G54D10*
G01X1852500Y1431035D02*
Y1425785D01*
Y1431035D02*
X1853773D01*
X1854318Y1430785*
X1854682Y1430285*
X1854864Y1429785*
X1855045Y1429035*
Y1427785*
X1854864Y1427035*
X1854682Y1426535*
X1854318Y1426035*
X1853773Y1425785*
X1852500*
X1856682Y1427785D02*
X1858864D01*
Y1428285*
X1858682Y1428785*
X1858500Y1429035*
X1858136Y1429285*
X1857591*
X1857227Y1429035*
X1856864Y1428535*
X1856682Y1427785*
Y1427285*
X1856864Y1426535*
X1857227Y1426035*
X1857591Y1425785*
X1858136*
X1858500Y1426035*
X1858864Y1426535*
X1860500Y1429285D02*
Y1425785D01*
Y1428285D02*
X1861045Y1429035D01*
X1861409Y1429285*
X1861955*
X1862318Y1429035*
X1862500Y1428285*
Y1425785*
Y1428285D02*
X1863045Y1429035D01*
X1863409Y1429285*
X1863955*
X1864318Y1429035*
X1864500Y1428285*
Y1425785*
X1867045Y1429285D02*
X1866682Y1429035D01*
X1866318Y1428535*
X1866136Y1427785*
Y1427285*
X1866318Y1426535*
X1866682Y1426035*
X1867045Y1425785*
X1867591*
X1867955Y1426035*
X1868318Y1426535*
X1868500Y1427285*
Y1427785*
X1868318Y1428535*
X1867955Y1429035*
X1867591Y1429285*
X1867045*
X1877045Y1429785D02*
X1876864Y1430285D01*
X1876500Y1430785*
X1876136Y1431035*
X1875409*
X1875045Y1430785*
X1874682Y1430285*
X1874500Y1429785*
X1874318Y1429035*
Y1427785*
X1874500Y1427035*
X1874682Y1426535*
X1875045Y1426035*
X1875409Y1425785*
X1876136*
X1876500Y1426035*
X1876864Y1426535*
X1877045Y1427035*
X1878682Y1431035D02*
X1878864Y1430785D01*
X1879045Y1431035*
X1878864Y1431285*
X1878682Y1431035*
X1878864Y1429285D02*
Y1425785D01*
X1880682Y1429285D02*
Y1425785D01*
Y1427785D02*
X1880864Y1428535D01*
X1881227Y1429035*
X1881591Y1429285*
X1882136*
X1885955Y1428535D02*
X1885591Y1429035D01*
X1885227Y1429285*
X1884682*
X1884318Y1429035*
X1883955Y1428535*
X1883773Y1427785*
Y1427285*
X1883955Y1426535*
X1884318Y1426035*
X1884682Y1425785*
X1885227*
X1885591Y1426035*
X1885955Y1426535*
X1887591Y1429285D02*
Y1426785D01*
X1887773Y1426035*
X1888136Y1425785*
X1888682*
X1889045Y1426035*
X1889591Y1426785*
Y1429285D02*
Y1425785D01*
X1891227Y1431035D02*
X1891409Y1430785D01*
X1891591Y1431035*
X1891409Y1431285*
X1891227Y1431035*
X1891409Y1429285D02*
Y1425785D01*
X1893773Y1431035D02*
Y1426785D01*
X1893955Y1426035*
X1894318Y1425785*
X1894682*
X1893227Y1429285D02*
X1894500D01*
X1900500Y1430035D02*
X1900864Y1430285D01*
X1901409Y1431035*
Y1425785*
X1903227Y1429785D02*
Y1430035D01*
X1903409Y1430535*
X1903591Y1430785*
X1903955Y1431035*
X1904682*
X1905045Y1430785*
X1905227Y1430535*
X1905409Y1430035*
Y1429535*
X1905227Y1429035*
X1904864Y1428285*
X1903045Y1425785*
X1905591*
X1909773Y1431035D02*
X1907955Y1425785D01*
X1907227Y1431035D02*
X1909773D01*
X1913591Y1430285D02*
X1913409Y1430785D01*
X1912864Y1431035*
X1912500*
X1911955Y1430785*
X1911591Y1430035*
X1911409Y1428785*
Y1427535*
X1911591Y1426535*
X1911955Y1426035*
X1912500Y1425785*
X1912682*
X1913227Y1426035*
X1913591Y1426535*
X1913773Y1427285*
Y1427535*
X1913591Y1428285*
X1913227Y1428785*
X1912682Y1429035*
X1912500*
X1911955Y1428785*
X1911591Y1428285*
X1911409Y1427535*
X1915409Y1431035D02*
Y1425785D01*
Y1431035D02*
X1917045D01*
X1917591Y1430785*
X1917773Y1430535*
X1917955Y1430035*
Y1429535*
X1917773Y1429035*
X1917591Y1428785*
X1917045Y1428535*
X1915409D02*
X1917045D01*
X1917591Y1428285*
X1917773Y1428035*
X1917955Y1427535*
Y1426785*
X1917773Y1426285*
X1917591Y1426035*
X1917045Y1425785*
X1915409*
X1852500Y1441035D02*
Y1435785D01*
X1854682*
X1856318Y1441035D02*
X1856500Y1440785D01*
X1856682Y1441035*
X1856500Y1441285*
X1856318Y1441035*
X1856500Y1439285D02*
Y1435785D01*
X1858318Y1439285D02*
Y1435785D01*
Y1438285D02*
X1858864Y1439035D01*
X1859227Y1439285*
X1859773*
X1860136Y1439035*
X1860318Y1438285*
Y1435785*
X1861955Y1437785D02*
X1864136D01*
Y1438285*
X1863955Y1438785*
X1863773Y1439035*
X1863409Y1439285*
X1862864*
X1862500Y1439035*
X1862136Y1438535*
X1861955Y1437785*
Y1437285*
X1862136Y1436535*
X1862500Y1436035*
X1862864Y1435785*
X1863409*
X1863773Y1436035*
X1864136Y1436535*
X1867955Y1439285D02*
Y1435785D01*
Y1438535D02*
X1867591Y1439035D01*
X1867227Y1439285*
X1866682*
X1866318Y1439035*
X1865955Y1438535*
X1865773Y1437785*
Y1437285*
X1865955Y1436535*
X1866318Y1436035*
X1866682Y1435785*
X1867227*
X1867591Y1436035*
X1867955Y1436535*
X1869591Y1439285D02*
Y1435785D01*
Y1437785D02*
X1869773Y1438535D01*
X1870136Y1439035*
X1870500Y1439285*
X1871045*
X1878136Y1441035D02*
Y1435785D01*
X1876864Y1441035D02*
X1879409D01*
X1881045Y1437785D02*
X1883227D01*
Y1438285*
X1883045Y1438785*
X1882864Y1439035*
X1882500Y1439285*
X1881955*
X1881591Y1439035*
X1881227Y1438535*
X1881045Y1437785*
Y1437285*
X1881227Y1436535*
X1881591Y1436035*
X1881955Y1435785*
X1882500*
X1882864Y1436035*
X1883227Y1436535*
X1887045Y1438535D02*
X1886682Y1439035D01*
X1886318Y1439285*
X1885773*
X1885409Y1439035*
X1885045Y1438535*
X1884864Y1437785*
Y1437285*
X1885045Y1436535*
X1885409Y1436035*
X1885773Y1435785*
X1886318*
X1886682Y1436035*
X1887045Y1436535*
X1888682Y1441035D02*
Y1435785D01*
Y1438285D02*
X1889227Y1439035D01*
X1889591Y1439285*
X1890136*
X1890500Y1439035*
X1890682Y1438285*
Y1435785*
X1892500Y1436285D02*
X1892318Y1436035D01*
X1892500Y1435785*
X1892682Y1436035*
X1892500Y1436285*
X1901227Y1439785D02*
X1901045Y1440285D01*
X1900682Y1440785*
X1900318Y1441035*
X1899591*
X1899227Y1440785*
X1898864Y1440285*
X1898682Y1439785*
X1898500Y1439035*
Y1437785*
X1898682Y1437035*
X1898864Y1436535*
X1899227Y1436035*
X1899591Y1435785*
X1900318*
X1900682Y1436035*
X1901045Y1436535*
X1901227Y1437035*
X1903773Y1439285D02*
X1903409Y1439035D01*
X1903045Y1438535*
X1902864Y1437785*
Y1437285*
X1903045Y1436535*
X1903409Y1436035*
X1903773Y1435785*
X1904318*
X1904682Y1436035*
X1905045Y1436535*
X1905227Y1437285*
Y1437785*
X1905045Y1438535*
X1904682Y1439035*
X1904318Y1439285*
X1903773*
X1906864D02*
Y1435785D01*
Y1437785D02*
X1907045Y1438535D01*
X1907409Y1439035*
X1907773Y1439285*
X1908318*
X1909955D02*
Y1434035D01*
Y1438535D02*
X1910318Y1439035D01*
X1910682Y1439285*
X1911227*
X1911591Y1439035*
X1911955Y1438535*
X1912136Y1437785*
Y1437285*
X1911955Y1436535*
X1911591Y1436035*
X1911227Y1435785*
X1910682*
X1910318Y1436035*
X1909955Y1436535*
X1913955Y1436285D02*
X1913773Y1436035D01*
X1913955Y1435785*
X1914136Y1436035*
X1913955Y1436285*
X1970800Y1431347D02*
Y1424785D01*
Y1431347D02*
X1972845D01*
X1972845D02*
X1973527Y1431035D01*
X1973755Y1430722*
X1973755D02*
X1973982Y1430097D01*
X1973982D02*
Y1429160D01*
X1973755Y1428535*
X1973527Y1428222*
X1973527D02*
X1972845Y1427910D01*
X1970800*
X1978755Y1429160D02*
Y1424785D01*
Y1428222D02*
X1978300Y1428847D01*
X1978300D02*
X1977845Y1429160D01*
X1977164*
X1976709Y1428847*
X1976709D02*
X1976255Y1428222D01*
X1976255D02*
X1976027Y1427285D01*
Y1426660*
X1976255Y1425722*
X1976255D02*
X1976709Y1425097D01*
X1976709D02*
X1977164Y1424785D01*
X1977845*
X1978300Y1425097*
X1978300D02*
X1978755Y1425722D01*
X1983300Y1428222D02*
X1983073Y1428847D01*
X1983073D02*
X1982391Y1429160D01*
X1981709*
X1981027Y1428847*
X1981027D02*
X1980800Y1428222D01*
X1980800D02*
X1981027Y1427597D01*
X1981027D02*
X1981482Y1427285D01*
X1982618Y1426972*
X1982618D02*
X1983073Y1426660D01*
X1983300Y1426035*
Y1425722*
X1983300D02*
X1983073Y1425097D01*
X1983073D02*
X1982391Y1424785D01*
X1981709*
X1981027Y1425097*
X1981027D02*
X1980800Y1425722D01*
X1986027Y1431347D02*
Y1426035D01*
X1986255Y1425097*
X1986255D02*
X1986709Y1424785D01*
X1987164*
X1985345Y1429160D02*
X1986936D01*
X1989209Y1427285D02*
X1991936D01*
Y1427910*
X1991709Y1428535*
X1991482Y1428847*
X1991482D02*
X1991027Y1429160D01*
X1990345*
X1989891Y1428847*
X1989891D02*
X1989436Y1428222D01*
X1989436D02*
X1989209Y1427285D01*
Y1426660*
X1989436Y1425722*
X1989436D02*
X1989891Y1425097D01*
X1989891D02*
X1990345Y1424785D01*
X1991027*
X1991482Y1425097*
X1991482D02*
X1991936Y1425722D01*
X1993982Y1431347D02*
Y1424785D01*
Y1431347D02*
X1995800Y1424785D01*
X1997618Y1431347D02*
X1995800Y1424785D01*
X1997618Y1431347D02*
Y1424785D01*
X2002391Y1429160D02*
Y1424785D01*
Y1428222D02*
X2001936Y1428847D01*
X2001936D02*
X2001482Y1429160D01*
X2000800*
X2000345Y1428847*
X2000345D02*
X1999891Y1428222D01*
X1999891D02*
X1999664Y1427285D01*
Y1426660*
X1999891Y1425722*
X1999891D02*
X2000345Y1425097D01*
X2000345D02*
X2000800Y1424785D01*
X2001482*
X2001936Y1425097*
X2001936D02*
X2002391Y1425722D01*
X2006936Y1428222D02*
X2006709Y1428847D01*
X2006709D02*
X2006027Y1429160D01*
X2005345*
X2004664Y1428847*
X2004664D02*
X2004436Y1428222D01*
X2004436D02*
X2004664Y1427597D01*
X2004664D02*
X2005118Y1427285D01*
X2006255Y1426972*
X2006255D02*
X2006709Y1426660D01*
X2006936Y1426035*
Y1425722*
X2006936D02*
X2006709Y1425097D01*
X2006709D02*
X2006027Y1424785D01*
X2005345*
X2004664Y1425097*
X2004664D02*
X2004436Y1425722D01*
X2008982Y1431347D02*
Y1424785D01*
X2011255Y1429160D02*
X2008982Y1426035D01*
X2009891Y1427285D02*
X2011482Y1424785D01*
X2020345Y1431347D02*
Y1424785D01*
X2018755Y1431347D02*
X2021936D01*
X2025118Y1429160D02*
X2024664Y1428847D01*
X2024664D02*
X2024209Y1428222D01*
X2024209D02*
X2023982Y1427285D01*
Y1426660*
X2024209Y1425722*
X2024209D02*
X2024664Y1425097D01*
X2024664D02*
X2025118Y1424785D01*
X2025800*
X2026255Y1425097*
X2026255D02*
X2026709Y1425722D01*
X2026709D02*
X2026936Y1426660D01*
Y1427285*
X2026709Y1428222*
X2026709D02*
X2026255Y1428847D01*
X2026255D02*
X2025800Y1429160D01*
X2025118*
X2028982D02*
Y1422597D01*
Y1428222D02*
X2029436Y1428847D01*
X2029436D02*
X2029891Y1429160D01*
X2030573*
X2031027Y1428847*
X2031027D02*
X2031482Y1428222D01*
X2031482D02*
X2031709Y1427285D01*
Y1426660*
X2031482Y1425722*
X2031482D02*
X2031027Y1425097D01*
X2031027D02*
X2030573Y1424785D01*
X2029891*
X2029436Y1425097*
X2029436D02*
X2028982Y1425722D01*
G54D14*
X1904850Y1730985D02*
X1905150D01*
G54D15*
X2026000Y1647285D02*
Y1646285D01*
Y1638285D02*
Y1637285D01*
G54D19*
Y1609835D02*
Y1610635D01*
Y1616135D02*
Y1616935D01*
G54D36*
X1850000Y1478285D02*
X2150000D01*
Y1778285*
X1850000*
Y1478285*
X1953310Y1441915D02*
X2067510D01*
Y1421715*
X1953310*
Y1441915*
G54D39*
X1881122Y1563305D02*
X1883091D01*
X1881122Y1528265D02*
X1883091D01*
X1859469Y1563305D02*
X1861437D01*
X1859469Y1528265D02*
X1861437D01*
G54D61*
X1995600Y1646935D02*
Y1646435D01*
Y1642335D02*
Y1641835D01*
X1999500Y1646935D02*
Y1646435D01*
Y1642335D02*
Y1641835D01*
X1987700Y1643635D02*
Y1643135D01*
Y1639035D02*
Y1638535D01*
X1984700D02*
Y1639035D01*
Y1643135D02*
Y1643635D01*
X1982450Y1631585D02*
X1982950D01*
X1987050D02*
X1987550D01*
X1995450Y1638785D02*
X1994950D01*
X1990850D02*
X1990350D01*
X2007400Y1616635D02*
X2006900D01*
X2002800D02*
X2002300D01*
X1991700Y1641835D02*
Y1642335D01*
Y1646435D02*
Y1646935D01*
X2007350Y1613485D02*
X2006850D01*
X2002750D02*
X2002250D01*
X1987950Y1646785D02*
X1987450D01*
X1983350D02*
X1982850D01*
X1990600Y1619485D02*
Y1619985D01*
Y1623985D02*
Y1624485D01*
X2002500Y1605635D02*
Y1606135D01*
Y1610235D02*
Y1610735D01*
G54D70*
X1905000Y1742335D02*
Y1739635D01*
G54D92*
X1878957Y1552084D02*
X1886043D01*
X1878957Y1548935D02*
X1886043D01*
X1878957Y1545785D02*
X1886043D01*
X1878957Y1542635D02*
X1886043D01*
X1878957Y1539486D02*
X1886043D01*
G54D93*
X1998425Y1621887D02*
Y1623659D01*
X2000000Y1621887D02*
Y1623659D01*
X2001575Y1621887D02*
Y1623659D01*
X2003150Y1621887D02*
Y1623659D01*
X2006398Y1625135D02*
X2004626D01*
X2006398Y1626710D02*
X2004626D01*
X2006398Y1628285D02*
X2004626D01*
X2006398Y1629860D02*
X2004626D01*
X2006398Y1631435D02*
X2004626D01*
X2003150Y1632911D02*
Y1634683D01*
X2001575Y1632911D02*
Y1634683D01*
X2000000Y1632911D02*
Y1634683D01*
X1998425Y1632911D02*
Y1634683D01*
X1996850Y1632911D02*
Y1634683D01*
X1995374Y1631435D02*
X1993602D01*
X1995374Y1629860D02*
X1993602D01*
X1995374Y1628285D02*
X1993602D01*
X1995374Y1626710D02*
X1993602D01*
X1995374Y1625135D02*
X1993602D01*
G54D114*
X2026500Y1626785D03*
X2017500D03*
G54D192*
X2016587Y1618718D02*
X2015406D01*
X2016591Y1607852D02*
X2015409D01*
X2012513Y1634852D02*
X2013694D01*
X2012509Y1645718D02*
X2013691D01*
G54D230*
X2000000Y1628285D03*
G54D237*
X1996850Y1621838D02*
Y1623708D01*
X0Y0D02*
M02*
