*
*
G04 PADS Layout (Build Number 2006.45.1) generated Gerber (RS-274-X) file*
G04 PC Version=2.1*
*
%IN "DC1276B.pcb"*%
*
%MOIN*%
*
%FSLAX35Y35*%
*
*
*
*
G04 PC Standard Apertures*
*
*
G04 Thermal Relief Aperture macro.*
%AMTER*
1,1,$1,0,0*
1,0,$1-$2,0,0*
21,0,$3,$4,0,0,45*
21,0,$3,$4,0,0,135*
%
*
*
G04 Annular Aperture macro.*
%AMANN*
1,1,$1,0,0*
1,0,$2,0,0*
%
*
*
G04 Odd Aperture macro.*
%AMODD*
1,1,$1,0,0*
1,0,$1-0.005,0,0*
%
*
*
G04 PC Custom Aperture Macros*
*
*
*
*
*
*
G04 PC Aperture Table*
*
%ADD010C,0.01*%
%ADD036C,0.008*%
%ADD140C,0.009*%
*
*
*
*
G04 PC Copper Outlines (0)*
G04 Layer Name DC1276B.pcb - dark (0)*
%LPD*%
*
*
G04 PC Area=Custom_Thermal*
*
G04 PC Custom Flashes*
G04 Layer Name DC1276B.pcb - flashes*
%LPD*%
*
*
G04 PC Circuitry*
G04 Layer Name DC1276B.pcb - circuitry*
%LPD*%
*
G54D10*
G01X2070000Y1770707D02*
Y1765785D01*
X2067955*
X2065227Y1770707D02*
Y1765785D01*
X2066420Y1770707D02*
X2064034D01*
X2059943Y1769535D02*
X2060114Y1770004D01*
X2060455Y1770472*
X2060455D02*
X2060795Y1770707D01*
X2061477*
X2061818Y1770472*
X2061818D02*
X2062159Y1770004D01*
X2062330Y1769535*
X2062500Y1768832*
Y1767660*
X2062330Y1766957*
X2062159Y1766488*
X2061818Y1766019*
X2061477Y1765785*
X2060795*
X2060455Y1766019*
X2060114Y1766488*
X2059943Y1766957*
X2051932Y1769535D02*
X2052102Y1770004D01*
X2052443Y1770472*
X2052443D02*
X2052784Y1770707D01*
X2053466*
X2053807Y1770472*
X2053807D02*
X2054148Y1770004D01*
X2054318Y1769535*
X2054489Y1768832*
Y1767660*
X2054318Y1766957*
X2054148Y1766488*
X2053807Y1766019*
X2053466Y1765785*
X2052784*
X2052443Y1766019*
X2052102Y1766488*
X2051932Y1766957*
X2049545Y1769066D02*
X2049886Y1768832D01*
X2050227Y1768363*
X2050398Y1767660*
Y1767191*
X2050227Y1766488*
X2049886Y1766019*
X2049545Y1765785*
X2049034*
X2048693Y1766019*
X2048352Y1766488*
X2048182Y1767191*
Y1767660*
X2048352Y1768363*
X2048693Y1768832*
X2049034Y1769066*
X2049545*
X2046648D02*
Y1765785D01*
Y1768129D02*
X2046136Y1768832D01*
X2045795Y1769066*
X2045284*
X2044943Y1768832*
X2044773Y1768129*
Y1765785*
X2041875Y1770707D02*
X2042216D01*
X2042557Y1770472*
X2042557D02*
X2042727Y1769769D01*
Y1765785*
X2043239Y1769066D02*
X2042045D01*
X2040341Y1770707D02*
X2040170Y1770472D01*
X2040170D02*
X2040000Y1770707D01*
X2040170Y1770941*
X2040341Y1770707*
X2040170Y1769066D02*
Y1765785D01*
X2036420Y1770707D02*
Y1765785D01*
Y1768363D02*
X2036761Y1768832D01*
X2037102Y1769066*
X2037614*
X2037955Y1768832*
X2038295Y1768363*
X2038466Y1767660*
Y1767191*
X2038295Y1766488*
X2037955Y1766019*
X2037614Y1765785*
X2037102*
X2036761Y1766019*
X2036420Y1766488*
X2034886Y1767660D02*
X2032841D01*
Y1768129*
X2033011Y1768597*
X2033011D02*
X2033182Y1768832D01*
X2033523Y1769066*
X2034034*
X2034375Y1768832*
X2034716Y1768363*
X2034886Y1767660*
Y1767191*
X2034716Y1766488*
X2034375Y1766019*
X2034034Y1765785*
X2033523*
X2033182Y1766019*
X2032841Y1766488*
X2031307Y1769066D02*
Y1765785D01*
Y1768129D02*
X2030795Y1768832D01*
X2030455Y1769066*
X2029943*
X2029602Y1768832*
X2029432Y1768129*
Y1765785*
X2027386Y1770707D02*
Y1766722D01*
X2027386D02*
X2027216Y1766019D01*
X2026875Y1765785*
X2026534*
X2027898Y1769066D02*
X2026705D01*
X2025000Y1770707D02*
X2024830Y1770472D01*
X2024830D02*
X2024659Y1770707D01*
X2024830Y1770941*
X2025000Y1770707*
X2024830Y1769066D02*
Y1765785D01*
X2021080Y1769066D02*
Y1765785D01*
Y1768363D02*
X2021420Y1768832D01*
X2021761Y1769066*
X2022273*
X2022614Y1768832*
X2022955Y1768363*
X2023125Y1767660*
Y1767191*
X2022955Y1766488*
X2022614Y1766019*
X2022273Y1765785*
X2021761*
X2021420Y1766019*
X2021080Y1766488*
X2019545Y1770707D02*
Y1765785D01*
X2014091Y1767894D02*
X2011023D01*
X2005568Y1770707D02*
Y1765785D01*
Y1770707D02*
X2003352D01*
X2005568Y1768363D02*
X2004205D01*
X2000966Y1769066D02*
X2001307Y1768832D01*
X2001648Y1768363*
X2001818Y1767660*
Y1767191*
X2001648Y1766488*
X2001307Y1766019*
X2000966Y1765785*
X2000455*
X2000114Y1766019*
X1999773Y1766488*
X1999602Y1767191*
Y1767660*
X1999773Y1768363*
X2000114Y1768832*
X2000455Y1769066*
X2000966*
X1998068D02*
Y1765785D01*
Y1767660D02*
X1997898Y1768363D01*
X1997557Y1768832*
X1997216Y1769066*
X1996705*
X1988693Y1769535D02*
X1988864Y1770004D01*
X1989205Y1770472*
X1989205D02*
X1989545Y1770707D01*
X1990227*
X1990568Y1770472*
X1990568D02*
X1990909Y1770004D01*
X1991080Y1769535*
X1991250Y1768832*
Y1767660*
X1991080Y1766957*
X1990909Y1766488*
X1990568Y1766019*
X1990227Y1765785*
X1989545*
X1989205Y1766019*
X1988864Y1766488*
X1988693Y1766957*
X1987159Y1769066D02*
Y1766722D01*
X1987159D02*
X1986989Y1766019D01*
X1986648Y1765785*
X1986136*
X1985795Y1766019*
X1985284Y1766722*
Y1769066D02*
Y1765785D01*
X1981875Y1768363D02*
X1982045Y1768832D01*
X1982557Y1769066*
X1983068*
X1983580Y1768832*
X1983750Y1768363*
X1983580Y1767894*
X1983239Y1767660*
X1982386Y1767426*
X1982045Y1767191*
X1981875Y1766722*
X1981875D02*
Y1766488D01*
X1982045Y1766019*
X1982557Y1765785*
X1983068*
X1983580Y1766019*
X1983750Y1766488*
X1979830Y1770707D02*
Y1766722D01*
X1979830D02*
X1979659Y1766019D01*
X1979318Y1765785*
X1978977*
X1980341Y1769066D02*
X1979148D01*
X1976591D02*
X1976932Y1768832D01*
X1977273Y1768363*
X1977443Y1767660*
Y1767191*
X1977273Y1766488*
X1976932Y1766019*
X1976591Y1765785*
X1976080*
X1975739Y1766019*
X1975398Y1766488*
X1975227Y1767191*
Y1767660*
X1975398Y1768363*
X1975739Y1768832*
X1976080Y1769066*
X1976591*
X1973693D02*
Y1765785D01*
Y1768129D02*
X1973182Y1768832D01*
X1972841Y1769066*
X1972330*
X1971989Y1768832*
X1971818Y1768129*
Y1765785*
Y1768129D02*
X1971307Y1768832D01*
X1970966Y1769066*
X1970455*
X1970114Y1768832*
X1969943Y1768129*
Y1765785*
X1968409Y1767660D02*
X1966364D01*
Y1768129*
X1966534Y1768597*
X1966534D02*
X1966705Y1768832D01*
X1967045Y1769066*
X1967557*
X1967898Y1768832*
X1968239Y1768363*
X1968409Y1767660*
Y1767191*
X1968239Y1766488*
X1967898Y1766019*
X1967557Y1765785*
X1967045*
X1966705Y1766019*
X1966364Y1766488*
X1964830Y1769066D02*
Y1765785D01*
Y1767660D02*
X1964659Y1768363D01*
X1964318Y1768832*
X1963977Y1769066*
X1963466*
X1958011Y1770707D02*
Y1767191D01*
X1957841Y1766488*
X1957500Y1766019*
X1956989Y1765785*
X1956648*
X1956136Y1766019*
X1955795Y1766488*
X1955625Y1767191*
Y1770707*
X1952216Y1768363D02*
X1952386Y1768832D01*
X1952898Y1769066*
X1953409*
X1953920Y1768832*
X1954091Y1768363*
X1953920Y1767894*
X1953580Y1767660*
X1952727Y1767426*
X1952386Y1767191*
X1952216Y1766722*
X1952216D02*
Y1766488D01*
X1952386Y1766019*
X1952898Y1765785*
X1953409*
X1953920Y1766019*
X1954091Y1766488*
X1950682Y1767660D02*
X1948636D01*
Y1768129*
X1948807Y1768597*
X1948807D02*
X1948977Y1768832D01*
X1949318Y1769066*
X1949830*
X1950170Y1768832*
X1950511Y1768363*
X1950682Y1767660*
Y1767191*
X1950511Y1766488*
X1950170Y1766019*
X1949830Y1765785*
X1949318*
X1948977Y1766019*
X1948636Y1766488*
X1942159Y1770707D02*
X1942500Y1770472D01*
X1942500D02*
X1942841Y1770004D01*
X1943011Y1769535*
X1943182Y1768832*
Y1767660*
X1943011Y1766957*
X1942841Y1766488*
X1942500Y1766019*
X1942159Y1765785*
X1941477*
X1941136Y1766019*
X1940795Y1766488*
X1940625Y1766957*
X1940455Y1767660*
Y1768832*
X1940625Y1769535*
X1940795Y1770004*
X1941136Y1770472*
X1941136D02*
X1941477Y1770707D01*
X1942159*
X1938920Y1769066D02*
Y1765785D01*
Y1768129D02*
X1938409Y1768832D01*
X1938068Y1769066*
X1937557*
X1937216Y1768832*
X1937045Y1768129*
Y1765785*
X1935511Y1770707D02*
Y1765785D01*
X1933807Y1769066D02*
X1932784Y1765785D01*
X1931761Y1769066D02*
X1932784Y1765785D01*
X1933125Y1764847*
X1933125D02*
X1933466Y1764379D01*
X1933807Y1764144*
X1933977*
X1852500Y1431035D02*
Y1425785D01*
Y1431035D02*
X1853773D01*
X1854318Y1430785*
X1854682Y1430285*
X1854864Y1429785*
X1855045Y1429035*
Y1427785*
X1854864Y1427035*
X1854682Y1426535*
X1854318Y1426035*
X1853773Y1425785*
X1852500*
X1856682Y1427785D02*
X1858864D01*
Y1428285*
X1858682Y1428785*
X1858500Y1429035*
X1858136Y1429285*
X1857591*
X1857227Y1429035*
X1856864Y1428535*
X1856682Y1427785*
Y1427285*
X1856864Y1426535*
X1857227Y1426035*
X1857591Y1425785*
X1858136*
X1858500Y1426035*
X1858864Y1426535*
X1860500Y1429285D02*
Y1425785D01*
Y1428285D02*
X1861045Y1429035D01*
X1861409Y1429285*
X1861955*
X1862318Y1429035*
X1862500Y1428285*
Y1425785*
Y1428285D02*
X1863045Y1429035D01*
X1863409Y1429285*
X1863955*
X1864318Y1429035*
X1864500Y1428285*
Y1425785*
X1867045Y1429285D02*
X1866682Y1429035D01*
X1866318Y1428535*
X1866136Y1427785*
Y1427285*
X1866318Y1426535*
X1866682Y1426035*
X1867045Y1425785*
X1867591*
X1867955Y1426035*
X1868318Y1426535*
X1868500Y1427285*
Y1427785*
X1868318Y1428535*
X1867955Y1429035*
X1867591Y1429285*
X1867045*
X1877045Y1429785D02*
X1876864Y1430285D01*
X1876500Y1430785*
X1876136Y1431035*
X1875409*
X1875045Y1430785*
X1874682Y1430285*
X1874500Y1429785*
X1874318Y1429035*
Y1427785*
X1874500Y1427035*
X1874682Y1426535*
X1875045Y1426035*
X1875409Y1425785*
X1876136*
X1876500Y1426035*
X1876864Y1426535*
X1877045Y1427035*
X1878682Y1431035D02*
X1878864Y1430785D01*
X1879045Y1431035*
X1878864Y1431285*
X1878682Y1431035*
X1878864Y1429285D02*
Y1425785D01*
X1880682Y1429285D02*
Y1425785D01*
Y1427785D02*
X1880864Y1428535D01*
X1881227Y1429035*
X1881591Y1429285*
X1882136*
X1885955Y1428535D02*
X1885591Y1429035D01*
X1885227Y1429285*
X1884682*
X1884318Y1429035*
X1883955Y1428535*
X1883773Y1427785*
Y1427285*
X1883955Y1426535*
X1884318Y1426035*
X1884682Y1425785*
X1885227*
X1885591Y1426035*
X1885955Y1426535*
X1887591Y1429285D02*
Y1426785D01*
X1887773Y1426035*
X1888136Y1425785*
X1888682*
X1889045Y1426035*
X1889591Y1426785*
Y1429285D02*
Y1425785D01*
X1891227Y1431035D02*
X1891409Y1430785D01*
X1891591Y1431035*
X1891409Y1431285*
X1891227Y1431035*
X1891409Y1429285D02*
Y1425785D01*
X1893773Y1431035D02*
Y1426785D01*
X1893955Y1426035*
X1894318Y1425785*
X1894682*
X1893227Y1429285D02*
X1894500D01*
X1900500Y1430035D02*
X1900864Y1430285D01*
X1901409Y1431035*
Y1425785*
X1903227Y1429785D02*
Y1430035D01*
X1903409Y1430535*
X1903591Y1430785*
X1903955Y1431035*
X1904682*
X1905045Y1430785*
X1905227Y1430535*
X1905409Y1430035*
Y1429535*
X1905227Y1429035*
X1904864Y1428285*
X1903045Y1425785*
X1905591*
X1909773Y1431035D02*
X1907955Y1425785D01*
X1907227Y1431035D02*
X1909773D01*
X1913591Y1430285D02*
X1913409Y1430785D01*
X1912864Y1431035*
X1912500*
X1911955Y1430785*
X1911591Y1430035*
X1911409Y1428785*
Y1427535*
X1911591Y1426535*
X1911955Y1426035*
X1912500Y1425785*
X1912682*
X1913227Y1426035*
X1913591Y1426535*
X1913773Y1427285*
Y1427535*
X1913591Y1428285*
X1913227Y1428785*
X1912682Y1429035*
X1912500*
X1911955Y1428785*
X1911591Y1428285*
X1911409Y1427535*
X1915409Y1431035D02*
Y1425785D01*
Y1431035D02*
X1917045D01*
X1917591Y1430785*
X1917773Y1430535*
X1917955Y1430035*
Y1429535*
X1917773Y1429035*
X1917591Y1428785*
X1917045Y1428535*
X1915409D02*
X1917045D01*
X1917591Y1428285*
X1917773Y1428035*
X1917955Y1427535*
Y1426785*
X1917773Y1426285*
X1917591Y1426035*
X1917045Y1425785*
X1915409*
X1852500Y1441035D02*
Y1435785D01*
X1854682*
X1856318Y1441035D02*
X1856500Y1440785D01*
X1856682Y1441035*
X1856500Y1441285*
X1856318Y1441035*
X1856500Y1439285D02*
Y1435785D01*
X1858318Y1439285D02*
Y1435785D01*
Y1438285D02*
X1858864Y1439035D01*
X1859227Y1439285*
X1859773*
X1860136Y1439035*
X1860318Y1438285*
Y1435785*
X1861955Y1437785D02*
X1864136D01*
Y1438285*
X1863955Y1438785*
X1863773Y1439035*
X1863409Y1439285*
X1862864*
X1862500Y1439035*
X1862136Y1438535*
X1861955Y1437785*
Y1437285*
X1862136Y1436535*
X1862500Y1436035*
X1862864Y1435785*
X1863409*
X1863773Y1436035*
X1864136Y1436535*
X1867955Y1439285D02*
Y1435785D01*
Y1438535D02*
X1867591Y1439035D01*
X1867227Y1439285*
X1866682*
X1866318Y1439035*
X1865955Y1438535*
X1865773Y1437785*
Y1437285*
X1865955Y1436535*
X1866318Y1436035*
X1866682Y1435785*
X1867227*
X1867591Y1436035*
X1867955Y1436535*
X1869591Y1439285D02*
Y1435785D01*
Y1437785D02*
X1869773Y1438535D01*
X1870136Y1439035*
X1870500Y1439285*
X1871045*
X1878136Y1441035D02*
Y1435785D01*
X1876864Y1441035D02*
X1879409D01*
X1881045Y1437785D02*
X1883227D01*
Y1438285*
X1883045Y1438785*
X1882864Y1439035*
X1882500Y1439285*
X1881955*
X1881591Y1439035*
X1881227Y1438535*
X1881045Y1437785*
Y1437285*
X1881227Y1436535*
X1881591Y1436035*
X1881955Y1435785*
X1882500*
X1882864Y1436035*
X1883227Y1436535*
X1887045Y1438535D02*
X1886682Y1439035D01*
X1886318Y1439285*
X1885773*
X1885409Y1439035*
X1885045Y1438535*
X1884864Y1437785*
Y1437285*
X1885045Y1436535*
X1885409Y1436035*
X1885773Y1435785*
X1886318*
X1886682Y1436035*
X1887045Y1436535*
X1888682Y1441035D02*
Y1435785D01*
Y1438285D02*
X1889227Y1439035D01*
X1889591Y1439285*
X1890136*
X1890500Y1439035*
X1890682Y1438285*
Y1435785*
X1892500Y1436285D02*
X1892318Y1436035D01*
X1892500Y1435785*
X1892682Y1436035*
X1892500Y1436285*
X1901227Y1439785D02*
X1901045Y1440285D01*
X1900682Y1440785*
X1900318Y1441035*
X1899591*
X1899227Y1440785*
X1898864Y1440285*
X1898682Y1439785*
X1898500Y1439035*
Y1437785*
X1898682Y1437035*
X1898864Y1436535*
X1899227Y1436035*
X1899591Y1435785*
X1900318*
X1900682Y1436035*
X1901045Y1436535*
X1901227Y1437035*
X1903773Y1439285D02*
X1903409Y1439035D01*
X1903045Y1438535*
X1902864Y1437785*
Y1437285*
X1903045Y1436535*
X1903409Y1436035*
X1903773Y1435785*
X1904318*
X1904682Y1436035*
X1905045Y1436535*
X1905227Y1437285*
Y1437785*
X1905045Y1438535*
X1904682Y1439035*
X1904318Y1439285*
X1903773*
X1906864D02*
Y1435785D01*
Y1437785D02*
X1907045Y1438535D01*
X1907409Y1439035*
X1907773Y1439285*
X1908318*
X1909955D02*
Y1434035D01*
Y1438535D02*
X1910318Y1439035D01*
X1910682Y1439285*
X1911227*
X1911591Y1439035*
X1911955Y1438535*
X1912136Y1437785*
Y1437285*
X1911955Y1436535*
X1911591Y1436035*
X1911227Y1435785*
X1910682*
X1910318Y1436035*
X1909955Y1436535*
X1913955Y1436285D02*
X1913773Y1436035D01*
X1913955Y1435785*
X1914136Y1436035*
X1913955Y1436285*
X1973882Y1430410D02*
X1973427Y1431035D01*
X1972745Y1431347*
X1972745D02*
X1971836D01*
X1971836D02*
X1971155Y1431035D01*
X1970700Y1430410*
Y1429785*
X1970927Y1429160*
X1971155Y1428847*
X1971155D02*
X1971609Y1428535D01*
X1972973Y1427910*
X1973427Y1427597*
X1973427D02*
X1973655Y1427285D01*
X1973882Y1426660*
Y1425722*
X1973882D02*
X1973427Y1425097D01*
X1973427D02*
X1972745Y1424785D01*
X1971836*
X1971155Y1425097*
X1971155D02*
X1970700Y1425722D01*
X1975927Y1431347D02*
X1976155Y1431035D01*
X1976382Y1431347*
X1976382D02*
X1976155Y1431660D01*
X1975927Y1431347*
X1976155Y1429160D02*
Y1424785D01*
X1978427Y1431347D02*
Y1424785D01*
X1980473Y1431347D02*
Y1424785D01*
X1982745Y1429160D02*
X1980473Y1426035D01*
X1981382Y1427285D02*
X1982973Y1424785D01*
X1987518Y1428222D02*
X1987291Y1428847D01*
X1987291D02*
X1986609Y1429160D01*
X1985927*
X1985245Y1428847*
X1985245D02*
X1985018Y1428222D01*
X1985018D02*
X1985245Y1427597D01*
X1985245D02*
X1985700Y1427285D01*
X1986836Y1426972*
X1986836D02*
X1987291Y1426660D01*
X1987518Y1426035*
Y1425722*
X1987518D02*
X1987291Y1425097D01*
X1987291D02*
X1986609Y1424785D01*
X1985927*
X1985245Y1425097*
X1985245D02*
X1985018Y1425722D01*
X1992291Y1428222D02*
X1991836Y1428847D01*
X1991836D02*
X1991382Y1429160D01*
X1990700*
X1990245Y1428847*
X1990245D02*
X1989791Y1428222D01*
X1989791D02*
X1989564Y1427285D01*
Y1426660*
X1989791Y1425722*
X1989791D02*
X1990245Y1425097D01*
X1990245D02*
X1990700Y1424785D01*
X1991382*
X1991836Y1425097*
X1991836D02*
X1992291Y1425722D01*
X1994336Y1429160D02*
Y1424785D01*
Y1427285D02*
X1994564Y1428222D01*
X1994564D02*
X1995018Y1428847D01*
X1995018D02*
X1995473Y1429160D01*
X1996155*
X1998200Y1427285D02*
X2000927D01*
Y1427910*
X2000700Y1428535*
X2000473Y1428847*
X2000473D02*
X2000018Y1429160D01*
X1999336*
X1998882Y1428847*
X1998882D02*
X1998427Y1428222D01*
X1998427D02*
X1998200Y1427285D01*
Y1426660*
X1998427Y1425722*
X1998427D02*
X1998882Y1425097D01*
X1998882D02*
X1999336Y1424785D01*
X2000018*
X2000473Y1425097*
X2000473D02*
X2000927Y1425722D01*
X2002973Y1427285D02*
X2005700D01*
Y1427910*
X2005473Y1428535*
X2005245Y1428847*
X2005245D02*
X2004791Y1429160D01*
X2004109*
X2003655Y1428847*
X2003655D02*
X2003200Y1428222D01*
X2003200D02*
X2002973Y1427285D01*
Y1426660*
X2003200Y1425722*
X2003200D02*
X2003655Y1425097D01*
X2003655D02*
X2004109Y1424785D01*
X2004791*
X2005245Y1425097*
X2005245D02*
X2005700Y1425722D01*
X2007745Y1429160D02*
Y1424785D01*
Y1427910D02*
X2008427Y1428847D01*
X2008427D02*
X2008882Y1429160D01*
X2009564*
X2010018Y1428847*
X2010018D02*
X2010245Y1427910D01*
Y1424785*
X2017518Y1431347D02*
Y1424785D01*
Y1431347D02*
X2019564D01*
X2019564D02*
X2020245Y1431035D01*
X2020473Y1430722*
X2020473D02*
X2020700Y1430097D01*
X2020700D02*
Y1429472D01*
X2020700D02*
X2020473Y1428847D01*
X2020473D02*
X2020245Y1428535D01*
X2019564Y1428222*
X2017518D02*
X2019564D01*
X2019564D02*
X2020245Y1427910D01*
X2020473Y1427597*
X2020473D02*
X2020700Y1426972D01*
X2020700D02*
Y1426035D01*
X2020473Y1425410*
X2020245Y1425097*
X2020245D02*
X2019564Y1424785D01*
X2017518*
X2023882Y1429160D02*
X2023427Y1428847D01*
X2023427D02*
X2022973Y1428222D01*
X2022973D02*
X2022745Y1427285D01*
Y1426660*
X2022973Y1425722*
X2022973D02*
X2023427Y1425097D01*
X2023427D02*
X2023882Y1424785D01*
X2024564*
X2025018Y1425097*
X2025018D02*
X2025473Y1425722D01*
X2025473D02*
X2025700Y1426660D01*
Y1427285*
X2025473Y1428222*
X2025473D02*
X2025018Y1428847D01*
X2025018D02*
X2024564Y1429160D01*
X2023882*
X2028427Y1431347D02*
Y1426035D01*
X2028655Y1425097*
X2028655D02*
X2029109Y1424785D01*
X2029564*
X2027745Y1429160D02*
X2029336D01*
X2032291Y1431347D02*
Y1426035D01*
X2032518Y1425097*
X2032518D02*
X2032973Y1424785D01*
X2033427*
X2031609Y1429160D02*
X2033200D01*
X2036609D02*
X2036155Y1428847D01*
X2036155D02*
X2035700Y1428222D01*
X2035700D02*
X2035473Y1427285D01*
Y1426660*
X2035700Y1425722*
X2035700D02*
X2036155Y1425097D01*
X2036155D02*
X2036609Y1424785D01*
X2037291*
X2037745Y1425097*
X2037745D02*
X2038200Y1425722D01*
X2038200D02*
X2038427Y1426660D01*
Y1427285*
X2038200Y1428222*
X2038200D02*
X2037745Y1428847D01*
X2037745D02*
X2037291Y1429160D01*
X2036609*
X2040473D02*
Y1424785D01*
Y1427910D02*
X2041155Y1428847D01*
X2041155D02*
X2041609Y1429160D01*
X2042291*
X2042745Y1428847*
X2042745D02*
X2042973Y1427910D01*
Y1424785*
Y1427910D02*
X2043655Y1428847D01*
X2043655D02*
X2044109Y1429160D01*
X2044791*
X2045245Y1428847*
X2045245D02*
X2045473Y1427910D01*
Y1424785*
X2077500Y1582879D02*
Y1578285D01*
Y1582879D02*
X2076227Y1578285D01*
X2074955Y1582879D02*
X2076227Y1578285D01*
X2074955Y1582879D02*
Y1578285D01*
X2072568Y1582879D02*
X2072886Y1582660D01*
X2073205Y1582222*
X2073205D02*
X2073364Y1581785D01*
X2073523Y1581129*
Y1580035*
X2073364Y1579379*
X2073205Y1578941*
X2072886Y1578504*
X2072568Y1578285*
X2071932*
X2071614Y1578504*
X2071295Y1578941*
X2071136Y1579379*
X2070977Y1580035*
Y1581129*
X2071136Y1581785*
X2071295Y1582222*
X2071295D02*
X2071614Y1582660D01*
X2071932Y1582879*
X2072568*
X2069545D02*
Y1578285D01*
Y1582879D02*
X2068432D01*
X2067955Y1582660*
X2067636Y1582222*
X2067636D02*
X2067477Y1581785D01*
X2067318Y1581129*
Y1580035*
X2067477Y1579379*
X2067636Y1578941*
X2067955Y1578504*
X2068432Y1578285*
X2069545*
X2065886Y1582879D02*
Y1578285D01*
Y1582879D02*
X2063818D01*
X2065886Y1580691D02*
X2064614D01*
X2065886Y1578285D02*
X2063818D01*
X2045500Y1582879D02*
Y1578285D01*
Y1582879D02*
X2044068D01*
X2043591Y1582660*
X2043432Y1582441*
X2043273Y1582004*
Y1581566*
X2043432Y1581129*
X2043591Y1580910*
X2044068Y1580691*
X2045500D02*
X2044068D01*
X2043591Y1580472*
X2043591D02*
X2043432Y1580254D01*
X2043273Y1579816*
Y1579160*
X2043432Y1578722*
X2043432D02*
X2043591Y1578504D01*
X2044068Y1578285*
X2045500*
X2041841Y1582879D02*
Y1579597D01*
X2041841D02*
X2041682Y1578941D01*
X2041364Y1578504*
X2040886Y1578285*
X2040568*
X2040091Y1578504*
X2039773Y1578941*
X2039614Y1579597*
X2039614D02*
Y1582879D01*
X2035795Y1581785D02*
X2035955Y1582222D01*
X2035955D02*
X2036273Y1582660D01*
X2036591Y1582879*
X2037227*
X2037545Y1582660*
X2037864Y1582222*
X2037864D02*
X2038023Y1581785D01*
X2038182Y1581129*
Y1580035*
X2038023Y1579379*
X2037864Y1578941*
X2037545Y1578504*
X2037227Y1578285*
X2036591*
X2036273Y1578504*
X2035955Y1578941*
X2035795Y1579379*
X2034364Y1582879D02*
Y1578285D01*
X2032136Y1582879D02*
X2034364Y1579816D01*
X2033568Y1580910D02*
X2032136Y1578285D01*
X2012500Y1582879D02*
Y1578285D01*
Y1582879D02*
X2011068D01*
X2010591Y1582660*
X2010432Y1582441*
X2010273Y1582004*
Y1581566*
X2010432Y1581129*
X2010591Y1580910*
X2011068Y1580691*
X2012500D02*
X2011068D01*
X2010591Y1580472*
X2010591D02*
X2010432Y1580254D01*
X2010273Y1579816*
Y1579160*
X2010432Y1578722*
X2010432D02*
X2010591Y1578504D01*
X2011068Y1578285*
X2012500*
X2008841Y1582879D02*
Y1579597D01*
X2008841D02*
X2008682Y1578941D01*
X2008364Y1578504*
X2007886Y1578285*
X2007568*
X2007091Y1578504*
X2006773Y1578941*
X2006614Y1579597*
X2006614D02*
Y1582879D01*
X2002795Y1581785D02*
X2002955Y1582222D01*
X2002955D02*
X2003273Y1582660D01*
X2003591Y1582879*
X2004227*
X2004545Y1582660*
X2004864Y1582222*
X2004864D02*
X2005023Y1581785D01*
X2005182Y1581129*
Y1580035*
X2005023Y1579379*
X2004864Y1578941*
X2004545Y1578504*
X2004227Y1578285*
X2003591*
X2003273Y1578504*
X2002955Y1578941*
X2002795Y1579379*
X2001364Y1582879D02*
Y1578285D01*
X1999136Y1582879D02*
X2001364Y1579816D01*
X2000568Y1580910D02*
X1999136Y1578285D01*
X1997705Y1580254D02*
X1994841D01*
X1993409Y1582879D02*
Y1578285D01*
Y1582879D02*
X1991977D01*
X1991500Y1582660*
X1991341Y1582441*
X1991182Y1582004*
Y1581566*
X1991341Y1581129*
X1991500Y1580910*
X1991977Y1580691*
X1993409D02*
X1991977D01*
X1991500Y1580472*
X1991500D02*
X1991341Y1580254D01*
X1991182Y1579816*
Y1579160*
X1991341Y1578722*
X1991341D02*
X1991500Y1578504D01*
X1991977Y1578285*
X1993409*
X1988795Y1582879D02*
X1989114Y1582660D01*
X1989432Y1582222*
X1989432D02*
X1989591Y1581785D01*
X1989750Y1581129*
Y1580035*
X1989591Y1579379*
X1989432Y1578941*
X1989114Y1578504*
X1988795Y1578285*
X1988159*
X1987841Y1578504*
X1987523Y1578941*
X1987364Y1579379*
X1987205Y1580035*
Y1581129*
X1987364Y1581785*
X1987523Y1582222*
X1987523D02*
X1987841Y1582660D01*
X1988159Y1582879*
X1988795*
X1984818D02*
X1985136Y1582660D01*
X1985455Y1582222*
X1985455D02*
X1985614Y1581785D01*
X1985773Y1581129*
Y1580035*
X1985614Y1579379*
X1985455Y1578941*
X1985136Y1578504*
X1984818Y1578285*
X1984182*
X1983864Y1578504*
X1983545Y1578941*
X1983386Y1579379*
X1983227Y1580035*
Y1581129*
X1983386Y1581785*
X1983545Y1582222*
X1983545D02*
X1983864Y1582660D01*
X1984182Y1582879*
X1984818*
X1979568Y1582222D02*
X1979886Y1582660D01*
X1980364Y1582879*
X1981000*
X1981477Y1582660*
X1981795Y1582222*
X1981795D02*
Y1581785D01*
X1981636Y1581347*
X1981636D02*
X1981477Y1581129D01*
X1981159Y1580910*
X1980205Y1580472*
X1980205D02*
X1979886Y1580254D01*
X1979727Y1580035*
X1979568Y1579597*
X1979568D02*
Y1578941D01*
X1979886Y1578504*
X1980364Y1578285*
X1981000*
X1981477Y1578504*
X1981795Y1578941*
X1977023Y1582879D02*
Y1578285D01*
X1978136Y1582879D02*
X1975909D01*
X2070000Y1572004D02*
X2069682Y1572222D01*
X2069682D02*
X2069205Y1572879D01*
Y1568285*
X2069045Y1562879D02*
X2069523Y1562660D01*
X2069841Y1562004*
X2070000Y1560910*
Y1560254*
X2069841Y1559160*
X2069523Y1558504*
X2069045Y1558285*
X2068727*
X2068250Y1558504*
X2067932Y1559160*
X2067773Y1560254*
Y1560910*
X2067932Y1562004*
X2068250Y1562660*
X2068727Y1562879*
X2069045*
X2047500Y1572879D02*
Y1568285D01*
Y1572879D02*
X2046068D01*
X2045591Y1572660*
X2045432Y1572441*
X2045273Y1572004*
Y1571566*
X2045432Y1571129*
X2045591Y1570910*
X2046068Y1570691*
X2047500D02*
X2046068D01*
X2045591Y1570472*
X2045591D02*
X2045432Y1570254D01*
X2045273Y1569816*
Y1569160*
X2045432Y1568722*
X2045432D02*
X2045591Y1568504D01*
X2046068Y1568285*
X2047500*
X2043841Y1572879D02*
Y1569597D01*
X2043841D02*
X2043682Y1568941D01*
X2043364Y1568504*
X2042886Y1568285*
X2042568*
X2042091Y1568504*
X2041773Y1568941*
X2041614Y1569597*
X2041614D02*
Y1572879D01*
X2040182D02*
Y1568285D01*
Y1572879D02*
X2038750D01*
X2038273Y1572660*
X2038114Y1572441*
X2037955Y1572004*
Y1571566*
X2038114Y1571129*
X2038273Y1570910*
X2038750Y1570691*
X2040182*
X2039068D02*
X2037955Y1568285D01*
X2034295Y1572222D02*
X2034614Y1572660D01*
X2035091Y1572879*
X2035727*
X2036205Y1572660*
X2036523Y1572222*
X2036523D02*
Y1571785D01*
X2036364Y1571347*
X2036364D02*
X2036205Y1571129D01*
X2035886Y1570910*
X2034932Y1570472*
X2034932D02*
X2034614Y1570254D01*
X2034455Y1570035*
X2034295Y1569597*
X2034295D02*
Y1568941D01*
X2034614Y1568504*
X2035091Y1568285*
X2035727*
X2036205Y1568504*
X2036523Y1568941*
X2031750Y1572879D02*
Y1568285D01*
X2032864Y1572879D02*
X2030636D01*
X2055000Y1562879D02*
Y1558285D01*
Y1562879D02*
X2053568D01*
X2053091Y1562660*
X2052932Y1562441*
X2052773Y1562004*
Y1561347*
X2052773D02*
X2052932Y1560910D01*
X2053091Y1560691*
X2053568Y1560472*
X2053568D02*
X2055000D01*
X2051341Y1562879D02*
Y1559597D01*
X2051341D02*
X2051182Y1558941D01*
X2050864Y1558504*
X2050386Y1558285*
X2050068*
X2049591Y1558504*
X2049273Y1558941*
X2049114Y1559597*
X2049114D02*
Y1562879D01*
X2047682D02*
Y1558285D01*
X2045773*
X2042114Y1562222D02*
X2042432Y1562660D01*
X2042909Y1562879*
X2043545*
X2044023Y1562660*
X2044341Y1562222*
X2044341D02*
Y1561785D01*
X2044182Y1561347*
X2044182D02*
X2044023Y1561129D01*
X2043705Y1560910*
X2042750Y1560472*
X2042750D02*
X2042432Y1560254D01*
X2042273Y1560035*
X2042114Y1559597*
X2042114D02*
Y1558941D01*
X2042432Y1558504*
X2042909Y1558285*
X2043545*
X2044023Y1558504*
X2044341Y1558941*
X2040682Y1562879D02*
Y1558285D01*
Y1562879D02*
X2038614D01*
X2040682Y1560691D02*
X2039409D01*
X2040682Y1558285D02*
X2038614D01*
X2031295Y1562222D02*
X2031614Y1562660D01*
X2032091Y1562879*
X2032727*
X2033205Y1562660*
X2033523Y1562222*
X2033523D02*
Y1561785D01*
X2033364Y1561347*
X2033364D02*
X2033205Y1561129D01*
X2032886Y1560910*
X2031932Y1560472*
X2031932D02*
X2031614Y1560254D01*
X2031455Y1560035*
X2031295Y1559597*
X2031295D02*
Y1558941D01*
X2031614Y1558504*
X2032091Y1558285*
X2032727*
X2033205Y1558504*
X2033523Y1558941*
X2029864Y1562879D02*
Y1558285D01*
X2027636Y1562879D02*
X2029864Y1559816D01*
X2029068Y1560910D02*
X2027636Y1558285D01*
X2026205Y1562879D02*
Y1558285D01*
X2024773Y1562879D02*
Y1558285D01*
Y1562879D02*
X2023341D01*
X2022864Y1562660*
X2022705Y1562441*
X2022545Y1562004*
Y1561347*
X2022545D02*
X2022705Y1560910D01*
X2022864Y1560691*
X2023341Y1560472*
X2023341D02*
X2024773D01*
X2001500Y1572879D02*
Y1568285D01*
Y1572879D02*
X2000068D01*
X1999591Y1572660*
X1999432Y1572441*
X1999273Y1572004*
Y1571566*
X1999432Y1571129*
X1999591Y1570910*
X2000068Y1570691*
X2001500D02*
X2000068D01*
X1999591Y1570472*
X1999591D02*
X1999432Y1570254D01*
X1999273Y1569816*
Y1569160*
X1999432Y1568722*
X1999432D02*
X1999591Y1568504D01*
X2000068Y1568285*
X2001500*
X1997841Y1572879D02*
Y1569597D01*
X1997841D02*
X1997682Y1568941D01*
X1997364Y1568504*
X1996886Y1568285*
X1996568*
X1996091Y1568504*
X1995773Y1568941*
X1995614Y1569597*
X1995614D02*
Y1572879D01*
X1994182D02*
Y1568285D01*
Y1572879D02*
X1992750D01*
X1992273Y1572660*
X1992114Y1572441*
X1991955Y1572004*
Y1571566*
X1992114Y1571129*
X1992273Y1570910*
X1992750Y1570691*
X1994182*
X1993068D02*
X1991955Y1568285D01*
X1988295Y1572222D02*
X1988614Y1572660D01*
X1989091Y1572879*
X1989727*
X1990205Y1572660*
X1990523Y1572222*
X1990523D02*
Y1571785D01*
X1990364Y1571347*
X1990364D02*
X1990205Y1571129D01*
X1989886Y1570910*
X1988932Y1570472*
X1988932D02*
X1988614Y1570254D01*
X1988455Y1570035*
X1988295Y1569597*
X1988295D02*
Y1568941D01*
X1988614Y1568504*
X1989091Y1568285*
X1989727*
X1990205Y1568504*
X1990523Y1568941*
X1985750Y1572879D02*
Y1568285D01*
X1986864Y1572879D02*
X1984636D01*
X1998500Y1563379D02*
Y1558785D01*
Y1563379D02*
X1997068D01*
X1996591Y1563160*
X1996432Y1562941*
X1996273Y1562504*
Y1561847*
X1996273D02*
X1996432Y1561410D01*
X1996591Y1561191*
X1997068Y1560972*
X1997068D02*
X1998500D01*
X1994841Y1563379D02*
X1994045Y1558785D01*
X1993250Y1563379D02*
X1994045Y1558785D01*
X1993250Y1563379D02*
X1992455Y1558785D01*
X1991659Y1563379D02*
X1992455Y1558785D01*
X1990227Y1563379D02*
Y1558785D01*
Y1563379D02*
X1988955Y1558785D01*
X1987682Y1563379D02*
X1988955Y1558785D01*
X1987682Y1563379D02*
Y1558785D01*
X1892336Y1495047D02*
X1891655Y1494735D01*
X1891427Y1494110*
Y1493485*
X1891655Y1492860*
X1892109Y1492547*
X1892109D02*
X1893018Y1492235D01*
X1893700Y1491922*
X1893700D02*
X1894155Y1491297D01*
X1894155D02*
X1894382Y1490672D01*
X1894382D02*
Y1489735D01*
X1894155Y1489110*
X1893927Y1488797*
X1893927D02*
X1893245Y1488485D01*
X1892336*
X1891655Y1488797*
X1891655D02*
X1891427Y1489110D01*
X1891200Y1489735*
Y1490672*
X1891200D02*
X1891427Y1491297D01*
X1891427D02*
X1891882Y1491922D01*
X1891882D02*
X1892564Y1492235D01*
X1893473Y1492547*
X1893473D02*
X1893927Y1492860D01*
X1894155Y1493485*
Y1494110*
X1893927Y1494735*
X1893245Y1495047*
X1893245D02*
X1892336D01*
X1897564D02*
X1896882Y1494735D01*
X1896655Y1494110*
Y1493485*
X1896882Y1492860*
X1897336Y1492547*
X1897336D02*
X1898245Y1492235D01*
X1898927Y1491922*
X1898927D02*
X1899382Y1491297D01*
X1899382D02*
X1899609Y1490672D01*
X1899609D02*
Y1489735D01*
X1899382Y1489110*
X1899155Y1488797*
X1899155D02*
X1898473Y1488485D01*
X1897564*
X1896882Y1488797*
X1896882D02*
X1896655Y1489110D01*
X1896427Y1489735*
Y1490672*
X1896427D02*
X1896655Y1491297D01*
X1896655D02*
X1897109Y1491922D01*
X1897109D02*
X1897791Y1492235D01*
X1898700Y1492547*
X1898700D02*
X1899155Y1492860D01*
X1899382Y1493485*
Y1494110*
X1899155Y1494735*
X1898473Y1495047*
X1898473D02*
X1897564D01*
X1902791D02*
X1902109Y1494735D01*
X1901882Y1494110*
Y1493485*
X1902109Y1492860*
X1902564Y1492547*
X1902564D02*
X1903473Y1492235D01*
X1904155Y1491922*
X1904155D02*
X1904609Y1491297D01*
X1904609D02*
X1904836Y1490672D01*
X1904836D02*
Y1489735D01*
X1904609Y1489110*
X1904382Y1488797*
X1904382D02*
X1903700Y1488485D01*
X1902791*
X1902109Y1488797*
X1902109D02*
X1901882Y1489110D01*
X1901655Y1489735*
Y1490672*
X1901655D02*
X1901882Y1491297D01*
X1901882D02*
X1902336Y1491922D01*
X1902336D02*
X1903018Y1492235D01*
X1903927Y1492547*
X1903927D02*
X1904382Y1492860D01*
X1904609Y1493485*
Y1494110*
X1904382Y1494735*
X1903700Y1495047*
X1903700D02*
X1902791D01*
X1908018D02*
X1907336Y1494735D01*
X1907109Y1494110*
Y1493485*
X1907336Y1492860*
X1907791Y1492547*
X1907791D02*
X1908700Y1492235D01*
X1909382Y1491922*
X1909382D02*
X1909836Y1491297D01*
X1909836D02*
X1910064Y1490672D01*
X1910064D02*
Y1489735D01*
X1909836Y1489110*
X1909609Y1488797*
X1909609D02*
X1908927Y1488485D01*
X1908018*
X1907336Y1488797*
X1907336D02*
X1907109Y1489110D01*
X1906882Y1489735*
Y1490672*
X1906882D02*
X1907109Y1491297D01*
X1907109D02*
X1907564Y1491922D01*
X1907564D02*
X1908245Y1492235D01*
X1909155Y1492547*
X1909155D02*
X1909609Y1492860D01*
X1909836Y1493485*
Y1494110*
X1909609Y1494735*
X1908927Y1495047*
X1908927D02*
X1908018D01*
X2075509Y1593979D02*
Y1590479D01*
X2075668Y1589822*
X2075668D02*
X2075827Y1589604D01*
X2076145Y1589385*
X2076464*
X2076782Y1589604*
X2076941Y1589822*
X2076941D02*
X2077100Y1590479D01*
Y1590916*
X2074077Y1593979D02*
Y1589385D01*
Y1593979D02*
X2072645D01*
X2072168Y1593760*
X2072009Y1593541*
X2071850Y1593104*
Y1592447*
X2071850D02*
X2072009Y1592010D01*
X2072168Y1591791*
X2072645Y1591572*
X2072645D02*
X2074077D01*
X2068509Y1593322D02*
X2068668Y1593760D01*
X2069145Y1593979*
X2069464*
X2069941Y1593760*
X2070259Y1593104*
X2070418Y1592010*
Y1590916*
X2070259Y1590041*
X2069941Y1589604*
X2069464Y1589385*
X2069305*
X2068827Y1589604*
X2068509Y1590041*
X2068350Y1590697*
X2068350D02*
Y1590916D01*
X2068509Y1591572*
X2068509D02*
X2068827Y1592010D01*
X2069305Y1592229*
X2069464*
X2069941Y1592010*
X2070259Y1591572*
X2070259D02*
X2070418Y1590916D01*
X2061032Y1593322D02*
X2061350Y1593760D01*
X2061827Y1593979*
X2062464*
X2062941Y1593760*
X2063259Y1593322*
X2063259D02*
Y1592885D01*
X2063100Y1592447*
X2063100D02*
X2062941Y1592229D01*
X2062623Y1592010*
X2061668Y1591572*
X2061668D02*
X2061350Y1591354D01*
X2061191Y1591135*
X2061032Y1590697*
X2061032D02*
Y1590041D01*
X2061350Y1589604*
X2061827Y1589385*
X2062464*
X2062941Y1589604*
X2063259Y1590041*
X2059600Y1593979D02*
Y1589385D01*
Y1593979D02*
X2057532D01*
X2059600Y1591791D02*
X2058327D01*
X2059600Y1589385D02*
X2057532D01*
X2054986Y1593979D02*
Y1589385D01*
X2056100Y1593979D02*
X2053873D01*
X2051327D02*
Y1589385D01*
X2052441Y1593979D02*
X2050214D01*
X2048782D02*
Y1589385D01*
X2047350Y1593979D02*
Y1589385D01*
Y1593979D02*
X2045123Y1589385D01*
Y1593979D02*
Y1589385D01*
X2041305Y1592885D02*
X2041464Y1593322D01*
X2041464D02*
X2041782Y1593760D01*
X2042100Y1593979*
X2042736*
X2043055Y1593760*
X2043373Y1593322*
X2043373D02*
X2043532Y1592885D01*
X2043691Y1592229*
Y1591135*
X2043532Y1590479*
X2043373Y1590041*
X2043055Y1589604*
X2042736Y1589385*
X2042100*
X2041782Y1589604*
X2041464Y1590041*
X2041305Y1590479*
Y1591135*
X2042100D02*
X2041305D01*
X2037645Y1593322D02*
X2037964Y1593760D01*
X2038441Y1593979*
X2039077*
X2039555Y1593760*
X2039873Y1593322*
X2039873D02*
Y1592885D01*
X2039714Y1592447*
X2039714D02*
X2039555Y1592229D01*
X2039236Y1592010*
X2038282Y1591572*
X2038282D02*
X2037964Y1591354D01*
X2037805Y1591135*
X2037645Y1590697*
X2037645D02*
Y1590041D01*
X2037964Y1589604*
X2038441Y1589385*
X2039077*
X2039555Y1589604*
X2039873Y1590041*
G54D36*
X2004025Y1643866D02*
Y1641504D01*
X2007175Y1643866D02*
Y1641504D01*
X1958200Y1523485D02*
Y1533485D01*
X1953200*
Y1523485*
X1958200*
X2055000Y1722785D02*
X2065000D01*
Y1727785*
X2055000*
Y1722785*
X2009400Y1523385D02*
Y1533385D01*
X2004400*
Y1523385*
X2009400*
X2062900Y1523485D02*
Y1533485D01*
X2057900*
Y1523485*
X2062900*
X2055000Y1716585D02*
X2065000D01*
Y1721585*
X2055000*
Y1716585*
X1984481Y1615760D02*
X1982119D01*
X1984481Y1612610D02*
X1982119D01*
X1870100Y1607435D02*
Y1602685D01*
X1874900*
Y1607435*
Y1609935D02*
Y1614685D01*
X1870100*
Y1609935*
X2035000Y1730785D02*
X2045000D01*
Y1735785*
X2035000*
Y1730785*
X2064900Y1743585D02*
X2054900D01*
Y1738585*
X2064900*
Y1743585*
X1875000Y1590985D02*
Y1600985D01*
X1870000*
Y1590985*
X1875000*
X1850000Y1478285D02*
X2150000D01*
Y1778285*
X1850000*
Y1478285*
X1953310Y1441915D02*
X2067510D01*
Y1421715*
X1953310*
Y1441915*
X2080000Y1585785D02*
X1972500D01*
Y1555785*
X2080000*
Y1585785*
Y1575785D02*
X1972500D01*
X2080000Y1565785D02*
X1972500D01*
X2060000Y1585785D02*
Y1555785D01*
X2020000Y1585785D02*
Y1555785D01*
G54D140*
X1993650Y1615748D02*
X1991150D01*
X1993650Y1612622D02*
X1991150D01*
X1906563Y1717035D02*
Y1719535D01*
X1903437Y1717035D02*
Y1719535D01*
X1992884Y1620435D02*
X1993032Y1620841D01*
X1993327Y1621247*
X1993623Y1621451*
X1994214*
X1994509Y1621247*
X1994805Y1620841*
X1994952Y1620435*
X1995100Y1619826*
Y1618810*
X1994952Y1618201*
X1994805Y1617794*
X1994509Y1617388*
X1994214Y1617185*
X1993623*
X1993327Y1617388*
X1993032Y1617794*
X1992884Y1618201*
X1989634Y1620029D02*
X1989782Y1619419D01*
X1990077Y1619013*
X1990520Y1618810*
X1990668*
X1991111Y1619013*
X1991407Y1619419*
X1991555Y1620029*
Y1620232*
X1991407Y1620841*
X1991111Y1621247*
X1990668Y1621451*
X1990520*
X1990077Y1621247*
X1989782Y1620841*
X1989634Y1620029*
Y1619013*
X1989782Y1617997*
X1990077Y1617388*
X1990520Y1617185*
X1990816*
X1991259Y1617388*
X1991407Y1617794*
X2012466Y1639185D02*
X2008200D01*
X2012466D02*
Y1640515D01*
X2012262Y1640958*
X2012059Y1641105*
X2011653Y1641253*
X2011247*
X2010841Y1641105*
X2010637Y1640958*
X2010434Y1640515*
Y1639185*
Y1640219D02*
X2008200Y1641253D01*
X2011653Y1642583D02*
X2011856Y1642878D01*
X2012466Y1643321*
X2008200*
X2012466Y1646128D02*
X2009622Y1644651D01*
Y1646867*
X2012466Y1646128D02*
X2008200D01*
X1964766Y1526385D02*
X1960500D01*
X1964766D02*
Y1527715D01*
X1964562Y1528158*
X1964562D02*
X1964359Y1528305D01*
X1963953Y1528453*
X1963547*
X1963141Y1528305*
X1962937Y1528158*
X1962937D02*
X1962734Y1527715D01*
Y1526385*
Y1527419D02*
X1960500Y1528453D01*
X1964766Y1531851D02*
X1960500Y1530374D01*
X1964766Y1529783D02*
Y1531851D01*
X2074400Y1727451D02*
Y1723185D01*
Y1727451D02*
X2073070D01*
X2072627Y1727247*
X2072627D02*
X2072480Y1727044D01*
X2072332Y1726638*
Y1726232*
X2072480Y1725826*
X2072627Y1725622*
X2072627D02*
X2073070Y1725419D01*
X2074400*
X2073366D02*
X2072332Y1723185D01*
X2069525Y1727451D02*
X2071002Y1724607D01*
X2068786*
X2069525Y1727451D02*
Y1723185D01*
X2016166Y1525585D02*
X2011900D01*
X2016166D02*
Y1526915D01*
X2015962Y1527358*
X2015962D02*
X2015759Y1527505D01*
X2015353Y1527653*
X2014947*
X2014541Y1527505*
X2014337Y1527358*
X2014337D02*
X2014134Y1526915D01*
Y1525585*
Y1526619D02*
X2011900Y1527653D01*
X2016166Y1529721D02*
X2015962Y1529278D01*
X2015962D02*
X2015556Y1529130D01*
X2015150*
X2014744Y1529278*
X2014541Y1529574*
X2014337Y1530165*
X2014337D02*
X2014134Y1530608D01*
X2013728Y1530903*
X2013322Y1531051*
X2012712*
X2012712D02*
X2012306Y1530903D01*
X2012103Y1530755*
X2011900Y1530312*
Y1529721*
X2012103Y1529278*
X2012306Y1529130*
X2012712Y1528983*
X2012712D02*
X2013322D01*
X2013728Y1529130*
X2014134Y1529426*
X2014337Y1529869*
X2014337D02*
X2014541Y1530460D01*
X2014744Y1530755*
X2015150Y1530903*
X2015556*
X2015962Y1530755*
X2015962D02*
X2016166Y1530312D01*
Y1529721*
X2069166Y1525785D02*
X2064900D01*
X2069166D02*
Y1527115D01*
X2068962Y1527558*
X2068962D02*
X2068759Y1527705D01*
X2068353Y1527853*
X2067947*
X2067541Y1527705*
X2067337Y1527558*
X2067337D02*
X2067134Y1527115D01*
Y1525785*
Y1526819D02*
X2064900Y1527853D01*
X2067744Y1531103D02*
X2067134Y1530955D01*
X2066728Y1530660*
X2066525Y1530217*
Y1530069*
X2066728Y1529626*
X2067134Y1529330*
X2067744Y1529183*
X2067947*
X2068556Y1529330*
X2068962Y1529626*
X2068962D02*
X2069166Y1530069D01*
Y1530217*
X2068962Y1530660*
X2068962D02*
X2068556Y1530955D01*
X2067744Y1531103*
X2066728*
X2065712Y1530955*
X2065712D02*
X2065103Y1530660D01*
X2064900Y1530217*
Y1529921*
X2065103Y1529478*
X2065509Y1529330*
X2074400Y1720251D02*
Y1715985D01*
Y1720251D02*
X2073070D01*
X2072627Y1720047*
X2072627D02*
X2072480Y1719844D01*
X2072332Y1719438*
Y1719032*
X2072480Y1718626*
X2072627Y1718422*
X2072627D02*
X2073070Y1718219D01*
X2074400*
X2073366D02*
X2072332Y1715985D01*
X2070707Y1720251D02*
X2069082D01*
X2069968Y1718626*
X2069525*
X2069230Y1718422*
X2069230D02*
X2069082Y1718219D01*
X2068934Y1717610*
Y1717204*
X2069082Y1716594*
X2069377Y1716188*
X2069820Y1715985*
X2070264*
X2070707Y1716188*
X2070855Y1716391*
X2071002Y1716797*
X1977600Y1616451D02*
Y1612185D01*
Y1616451D02*
X1976270D01*
X1975827Y1616247*
X1975827D02*
X1975680Y1616044D01*
X1975532Y1615638*
Y1615232*
X1975680Y1614826*
X1975827Y1614622*
X1975827D02*
X1976270Y1614419D01*
X1977600*
X1976566D02*
X1975532Y1612185D01*
X1974202Y1615638D02*
X1973907Y1615841D01*
X1973464Y1616451*
Y1612185*
X1970066Y1616451D02*
X1971543Y1612185D01*
X1972134Y1616451D02*
X1970066D01*
X1867450Y1608101D02*
X1867856Y1607953D01*
X1868262Y1607658*
X1868262D02*
X1868466Y1607362D01*
Y1606771*
X1868262Y1606476*
X1868262D02*
X1867856Y1606180D01*
X1867450Y1606033*
X1866841Y1605885*
X1865825*
X1865216Y1606033*
X1864809Y1606180*
X1864403Y1606476*
X1864200Y1606771*
Y1607362*
X1864403Y1607658*
X1864809Y1607953*
X1865216Y1608101*
X1867653Y1609430D02*
X1867856Y1609726D01*
X1868466Y1610169*
X1864200*
X2033000Y1735551D02*
Y1731285D01*
Y1735551D02*
X2031670D01*
X2031227Y1735348*
X2031227D02*
X2031080Y1735144D01*
X2030932Y1734738*
Y1734332*
X2031080Y1733926*
X2031227Y1733723*
X2031227D02*
X2031670Y1733519D01*
X2033000*
X2031966D02*
X2030932Y1731285D01*
X2029455Y1734535D02*
Y1734738D01*
X2029307Y1735144*
X2029159Y1735348*
X2029159D02*
X2028864Y1735551D01*
X2028273*
X2027977Y1735348*
X2027977D02*
X2027830Y1735144D01*
X2027682Y1734738*
Y1734332*
X2027830Y1733926*
X2028125Y1733316*
X2029602Y1731285*
X2027534*
X2072700Y1742951D02*
Y1738685D01*
Y1742951D02*
X2071370D01*
X2070927Y1742747*
X2070927D02*
X2070780Y1742544D01*
X2070632Y1742138*
Y1741732*
X2070780Y1741326*
X2070927Y1741122*
X2070927D02*
X2071370Y1740919D01*
X2072700*
X2071666D02*
X2070632Y1738685D01*
X2067382Y1742951D02*
X2068859D01*
X2069007Y1741122*
X2069007D02*
X2068859Y1741326D01*
X2068416Y1741529*
X2067973*
X2067530Y1741326*
X2067234Y1740919*
X2067086Y1740310*
X2067234Y1739904*
X2067382Y1739294*
X2067677Y1738888*
X2068120Y1738685*
X2068564*
X2069007Y1738888*
X2069155Y1739091*
X2069302Y1739497*
X1868466Y1593885D02*
X1864200D01*
X1868466D02*
Y1595215D01*
X1868262Y1595658*
X1868262D02*
X1868059Y1595805D01*
X1867653Y1595953*
X1867247*
X1866841Y1595805*
X1866637Y1595658*
X1866637D02*
X1866434Y1595215D01*
Y1593885*
Y1594919D02*
X1864200Y1595953D01*
X1867653Y1597283D02*
X1867856Y1597578D01*
X1868466Y1598021*
X1864200*
X1901637Y1714985D02*
X1897700D01*
X1901637D02*
Y1716212D01*
X1901637D02*
X1901450Y1716621D01*
X1901262Y1716758*
X1901262D02*
X1900887Y1716894D01*
X1900887D02*
X1900512D01*
X1900512D02*
X1900137Y1716758D01*
X1900137D02*
X1899950Y1716621D01*
X1899762Y1716212*
X1899762D02*
Y1714985D01*
Y1715940D02*
X1897700Y1716894D01*
X1900887Y1718121D02*
X1901075Y1718394D01*
X1901637Y1718803*
X1901637D02*
X1897700D01*
X1901637Y1720712D02*
X1901450Y1720303D01*
X1901075Y1720167*
X1900700*
X1900325Y1720303*
X1900137Y1720576*
X1900137D02*
X1899950Y1721121D01*
X1899762Y1721530*
X1899762D02*
X1899387Y1721803D01*
X1899387D02*
X1899012Y1721940D01*
X1899012D02*
X1898450D01*
X1898075Y1721803*
X1897887Y1721667*
X1897887D02*
X1897700Y1721258D01*
Y1720712*
X1897887Y1720303*
X1897887D02*
X1898075Y1720167D01*
X1898450Y1720030*
X1899012*
X1899012D02*
X1899387Y1720167D01*
X1899387D02*
X1899762Y1720440D01*
X1899762D02*
X1899950Y1720849D01*
X1900137Y1721394*
X1900137D02*
X1900325Y1721667D01*
X1900700Y1721803*
X1901075*
X1901450Y1721667*
X1901637Y1721258*
X1901637D02*
Y1720712D01*
X2015566Y1663751D02*
Y1659485D01*
X2016600Y1663751D02*
X2014532D01*
X2013202D02*
Y1659485D01*
Y1663751D02*
X2011873D01*
X2011430Y1663547*
X2011430D02*
X2011282Y1663344D01*
X2011134Y1662938*
Y1662329*
X2011282Y1661922*
X2011282D02*
X2011430Y1661719D01*
X2011873Y1661516*
X2013202*
X2008327Y1663751D02*
X2009805Y1660907D01*
X2007589*
X2008327Y1663751D02*
Y1659485D01*
X0Y0D02*
M02*
