%FSLAX24Y24*%
%MOIN*%
G70*
G01*
G75*
G04 Layer_Physical_Order=1*
G04 Layer_Color=255*
%ADD10R,0.0197X0.0256*%
%ADD11R,0.0197X0.0236*%
%ADD12R,0.0236X0.0197*%
%ADD13R,0.0217X0.0236*%
G04:AMPARAMS|DCode=14|XSize=19.7mil|YSize=23.6mil|CornerRadius=0mil|HoleSize=0mil|Usage=FLASHONLY|Rotation=225.000|XOffset=0mil|YOffset=0mil|HoleType=Round|Shape=Rectangle|*
%AMROTATEDRECTD14*
4,1,4,-0.0014,0.0153,0.0153,-0.0014,0.0014,-0.0153,-0.0153,0.0014,-0.0014,0.0153,0.0*
%
%ADD14ROTATEDRECTD14*%

%ADD15R,0.0315X0.0295*%
%ADD16R,0.1850X0.1850*%
%ADD17O,0.0079X0.0256*%
%ADD18O,0.0256X0.0079*%
G04:AMPARAMS|DCode=19|XSize=47.2mil|YSize=43.3mil|CornerRadius=0mil|HoleSize=0mil|Usage=FLASHONLY|Rotation=225.000|XOffset=0mil|YOffset=0mil|HoleType=Round|Shape=Rectangle|*
%AMROTATEDRECTD19*
4,1,4,0.0014,0.0320,0.0320,0.0014,-0.0014,-0.0320,-0.0320,-0.0014,0.0014,0.0320,0.0*
%
%ADD19ROTATEDRECTD19*%

%ADD20R,0.0295X0.0315*%
%ADD21R,0.0400X0.0370*%
%ADD22C,0.0090*%
%ADD23C,0.0080*%
%ADD24C,0.0060*%
%ADD25C,0.0370*%
%ADD26C,0.0150*%
%ADD27C,0.0240*%
%ADD28C,0.0260*%
G36*
X-1008Y1281D02*
X-1008Y1280D01*
Y1102D01*
X-997Y1048D01*
X-1025Y1025D01*
D01*
D01*
D01*
D01*
X-1025Y1025D01*
X-1025Y1025D01*
D01*
D01*
X-1048Y997D01*
X-1102Y1008D01*
X-1124D01*
X-1333Y1217D01*
Y1492D01*
D01*
Y1492D01*
X-1333Y1492D01*
Y1528D01*
X-1333D01*
Y1540D01*
X-1286Y1559D01*
X-1008Y1281D01*
D02*
G37*
G36*
X-1473Y2023D02*
X-1540D01*
Y1776D01*
X-1590D01*
Y1726D01*
X-1847D01*
Y1528D01*
X-1847Y1528D01*
X-1847Y1492D01*
X-1847D01*
Y1463D01*
X-1886Y1432D01*
X-1950Y1444D01*
X-2004Y1434D01*
X-2043Y1465D01*
Y1492D01*
D01*
Y1492D01*
X-2043Y1492D01*
Y1528D01*
X-2043D01*
Y2023D01*
X-2067D01*
X-2099Y2062D01*
X-2086Y2130D01*
X-2103Y2216D01*
X-2151Y2289D01*
X-2224Y2337D01*
X-2310Y2354D01*
X-2396Y2337D01*
X-2469Y2289D01*
X-2517Y2216D01*
X-2534Y2130D01*
X-2521Y2062D01*
X-2553Y2023D01*
X-2557D01*
Y1742D01*
X-2651Y1648D01*
X-2697Y1667D01*
Y3526D01*
X-1473D01*
Y2023D01*
D02*
G37*
G36*
X2668Y1288D02*
X2547D01*
Y1090D01*
Y892D01*
X2668D01*
Y-2427D01*
X1503D01*
Y-1397D01*
X1595Y-1304D01*
X1642Y-1324D01*
Y-1415D01*
X1790D01*
Y-1197D01*
X1890D01*
Y-1415D01*
X2120D01*
Y-1197D01*
X2170D01*
Y-1147D01*
X2368D01*
Y-1070D01*
X2430D01*
Y892D01*
X2447D01*
Y1090D01*
Y1288D01*
X2430D01*
Y1500D01*
X1990D01*
Y1674D01*
X2510D01*
X2534Y1679D01*
X2668D01*
Y1288D01*
D02*
G37*
G36*
X-2226Y-880D02*
X-2234Y-920D01*
X-2217Y-1006D01*
X-2169Y-1079D01*
X-2096Y-1127D01*
X-2010Y-1144D01*
X-1995Y-1141D01*
X-1948D01*
X-1918Y-1165D01*
Y-1267D01*
X-1522D01*
Y-1141D01*
Y-1014D01*
X-1181D01*
X-1152Y-1008D01*
X-1102D01*
D01*
X-1025Y-1025D01*
D01*
D01*
D01*
D01*
X-997Y-1048D01*
D01*
D01*
X-997Y-1048D01*
X-1008Y-1102D01*
Y-1141D01*
X-866D01*
Y-1191D01*
X-851D01*
Y-1280D01*
X-840Y-1334D01*
X-837Y-1338D01*
X-831Y-1368D01*
X-816Y-1390D01*
Y-1412D01*
X-812Y-1411D01*
X-808Y-1408D01*
X-802Y-1411D01*
X-802Y-1411D01*
X-802Y-1411D01*
X-762Y-1451D01*
Y-2427D01*
X-2697D01*
Y-841D01*
X-2258D01*
X-2226Y-880D01*
D02*
G37*
G36*
X860Y-2235D02*
X877D01*
Y-2427D01*
X713D01*
Y-2235D01*
X760D01*
Y-2017D01*
X860D01*
Y-2235D01*
D02*
G37*
G36*
X2668Y2169D02*
X2534D01*
X2510Y2174D01*
X1948D01*
Y2269D01*
X1988D01*
Y2437D01*
X1592D01*
Y2269D01*
X1632D01*
Y1981D01*
X1620Y1924D01*
X1625Y1899D01*
X1594Y1860D01*
X1488D01*
Y1867D01*
X1290D01*
Y1967D01*
X1488D01*
Y2135D01*
X1278D01*
X1259Y2181D01*
X1264Y2186D01*
X1292Y2229D01*
X1303Y2280D01*
Y2360D01*
X1303Y2360D01*
X1303Y2360D01*
Y2360D01*
X1303D01*
X1303Y2360D01*
X1293Y2406D01*
X1410Y2523D01*
X1186Y2746D01*
X1257Y2817D01*
X1481Y2593D01*
X1545Y2658D01*
X1592Y2639D01*
Y2537D01*
X1740D01*
Y2705D01*
X1658D01*
X1639Y2751D01*
X1683Y2796D01*
X1558Y2921D01*
X1578Y2941D01*
X1424Y3095D01*
X1459Y3131D01*
X1424Y3166D01*
X1564Y3306D01*
X1445Y3425D01*
X1391Y3479D01*
X1410Y3526D01*
X2668D01*
Y2169D01*
D02*
G37*
G36*
X692Y3479D02*
X372Y3160D01*
Y3160D01*
X170Y2957D01*
X394Y2734D01*
X323Y2663D01*
X99Y2887D01*
X-103Y2684D01*
X22Y2559D01*
X12Y2549D01*
X166Y2395D01*
X131Y2359D01*
X166Y2324D01*
X26Y2184D01*
X56Y2153D01*
X32Y2129D01*
X186Y1975D01*
X115Y1904D01*
X-39Y2058D01*
X-46Y2051D01*
X-247Y2253D01*
Y3526D01*
X673D01*
X692Y3479D01*
D02*
G37*
%LPC*%
G36*
X-1522Y-1367D02*
X-1670D01*
Y-1535D01*
X-1522D01*
Y-1367D01*
D02*
G37*
G36*
X-1770D02*
X-1918D01*
Y-1535D01*
X-1770D01*
Y-1367D01*
D02*
G37*
G36*
X1635Y3236D02*
X1530Y3131D01*
X1649Y3012D01*
X1754Y3117D01*
X1635Y3236D01*
D02*
G37*
G36*
X1988Y2705D02*
X1840D01*
Y2537D01*
X1988D01*
Y2705D01*
D02*
G37*
G36*
X-59Y2478D02*
X-164Y2373D01*
X-45Y2254D01*
X60Y2359D01*
X-59Y2478D01*
D02*
G37*
G36*
X-1640Y2023D02*
X-1847D01*
Y1826D01*
X-1640D01*
Y2023D01*
D02*
G37*
G36*
X2368Y-1247D02*
X2220D01*
Y-1415D01*
X2368D01*
Y-1247D01*
D02*
G37*
G36*
X-916Y-1241D02*
X-1008D01*
Y-1280D01*
X-997Y-1334D01*
X-967Y-1380D01*
X-921Y-1411D01*
X-916Y-1412D01*
Y-1241D01*
D02*
G37*
%LPD*%
D10*
X1790Y347D02*
D03*
Y-27D02*
D03*
X2070Y-103D02*
D03*
Y-477D02*
D03*
X1790Y1767D02*
D03*
Y1393D02*
D03*
X-2640Y773D02*
D03*
Y1147D02*
D03*
D11*
X1790Y1067D02*
D03*
Y673D02*
D03*
X2170Y-1197D02*
D03*
Y-803D02*
D03*
X1790Y2487D02*
D03*
Y2093D02*
D03*
X1290Y1917D02*
D03*
Y1523D02*
D03*
X-1720Y-1317D02*
D03*
Y-923D02*
D03*
X1840Y-1197D02*
D03*
Y-803D02*
D03*
D12*
X2497Y1090D02*
D03*
X2103D02*
D03*
D13*
X810Y-2017D02*
D03*
Y-1623D02*
D03*
D14*
X131Y2359D02*
D03*
X409Y2081D02*
D03*
X151Y1939D02*
D03*
X429Y1661D02*
D03*
X1459Y3131D02*
D03*
X1181Y3409D02*
D03*
D15*
X-1590Y1776D02*
D03*
Y1244D02*
D03*
X-2300Y1776D02*
D03*
Y1244D02*
D03*
D16*
X-0Y0D02*
D03*
D17*
X-866Y1191D02*
D03*
X-709D02*
D03*
X-551D02*
D03*
X-394D02*
D03*
X-236D02*
D03*
X-79D02*
D03*
X79D02*
D03*
X236D02*
D03*
X394D02*
D03*
X551D02*
D03*
X709D02*
D03*
X866D02*
D03*
Y-1191D02*
D03*
X709D02*
D03*
X551D02*
D03*
X394D02*
D03*
X236D02*
D03*
X79D02*
D03*
X-79D02*
D03*
X-236D02*
D03*
X-394D02*
D03*
X-551D02*
D03*
X-709D02*
D03*
X-866D02*
D03*
D18*
X1191Y866D02*
D03*
Y709D02*
D03*
Y551D02*
D03*
Y394D02*
D03*
Y236D02*
D03*
Y79D02*
D03*
Y-79D02*
D03*
Y-236D02*
D03*
Y-394D02*
D03*
Y-551D02*
D03*
Y-709D02*
D03*
Y-866D02*
D03*
X-1191D02*
D03*
Y-709D02*
D03*
Y-551D02*
D03*
Y-394D02*
D03*
Y-236D02*
D03*
Y-79D02*
D03*
Y79D02*
D03*
Y236D02*
D03*
Y394D02*
D03*
Y551D02*
D03*
Y709D02*
D03*
Y866D02*
D03*
D19*
X358Y2698D02*
D03*
X748Y2308D02*
D03*
X832Y3171D02*
D03*
X1221Y2782D02*
D03*
D20*
X-2306Y800D02*
D03*
X-1774D02*
D03*
D21*
X2510Y1924D02*
D03*
D22*
X1790Y1067D02*
Y1393D01*
X1793Y1070D02*
X2133D01*
X1181Y79D02*
X1684D01*
X1181Y236D02*
X1679D01*
X1790Y347D02*
Y683D01*
X1684Y79D02*
X1866Y-103D01*
X1679Y236D02*
X1790Y347D01*
X1866Y-103D02*
X2070D01*
X1790Y2487D02*
Y2840D01*
X-920Y-1482D02*
X-866Y-1428D01*
Y-1191D01*
X1290Y2150D02*
X1390Y2250D01*
X1290Y1917D02*
Y2150D01*
X-866Y-866D02*
X0Y0D01*
X-866Y-1181D02*
Y-866D01*
X551Y551D02*
X1181D01*
X394Y394D02*
X1181D01*
X-1699Y709D02*
X-1181Y709D01*
X-1770Y780D02*
X-1699Y709D01*
X1181Y1414D02*
X1290Y1523D01*
X1181Y709D02*
Y1414D01*
X-1996Y-866D02*
X-1181D01*
X-2310Y1780D02*
Y2130D01*
X-2630Y783D02*
X-2313D01*
X-2640Y1147D02*
Y1450D01*
X-2310Y1780D01*
X1221Y2782D02*
Y2893D01*
X1459Y3131D01*
X1020Y1650D02*
X1163D01*
X1290Y1523D01*
X-1545Y1220D02*
X-1191Y866D01*
X-1950Y1220D02*
X-1545D01*
X-2310Y1240D02*
Y1310D01*
X1410Y2250D02*
Y2593D01*
X1221Y2782D02*
X1410Y2593D01*
X1390Y2250D02*
X1410D01*
X1420D01*
X1706Y-1197D02*
X1840D01*
X1590Y-1313D02*
X1706Y-1197D01*
X1590Y-1420D02*
Y-1313D01*
X-1590Y1776D02*
X-1215Y1425D01*
D23*
X1181Y-79D02*
X1368D01*
X1766Y-477D01*
X2070D02*
X2120Y-527D01*
Y-803D02*
Y-527D01*
X1766Y-477D02*
X2070D01*
X429Y1661D02*
X551Y1539D01*
Y1181D02*
Y1539D01*
D24*
X1010Y-2440D02*
Y-1193D01*
X1130Y-2440D02*
Y-1243D01*
X1250Y-2440D02*
Y-1293D01*
X1370Y-2440D02*
Y-1342D01*
X-394Y-1191D02*
Y-1181D01*
X-79Y-1191D02*
Y-1181D01*
X79Y-1321D02*
Y-1191D01*
X79D02*
Y-1181D01*
X236Y-1333D02*
Y-1191D01*
X236D02*
Y-1181D01*
X394Y-1346D02*
Y-1191D01*
X394D02*
Y-1181D01*
X220Y-1519D02*
X394Y-1346D01*
X220Y-2440D02*
Y-1519D01*
X551Y-1358D02*
Y-1191D01*
X340Y-2440D02*
Y-1569D01*
X551Y-1191D02*
Y-1181D01*
X340Y-1569D02*
X551Y-1358D01*
X709Y-1371D02*
Y-1191D01*
X460Y-2440D02*
Y-1619D01*
X709Y-1191D02*
Y-1181D01*
X460Y-1619D02*
X709Y-1371D01*
X866Y-1383D02*
Y-1191D01*
X866D02*
Y-1181D01*
X580Y-2440D02*
Y-1669D01*
X866Y-1383D01*
X-79Y-1308D02*
Y-1191D01*
X91Y-2440D02*
Y-1478D01*
X236Y-1333D01*
X-29Y-2440D02*
Y-1428D01*
X79Y-1321D01*
X-150Y-2440D02*
Y-1379D01*
X-79Y-1308D01*
X-270Y-1329D02*
X-236Y-1296D01*
X-270Y-2440D02*
Y-1329D01*
X-236Y-1296D02*
Y-1191D01*
X-394Y-1278D02*
Y-1191D01*
Y-1278D02*
X-390Y-1282D01*
Y-2440D02*
Y-1282D01*
X-551Y-1305D02*
Y-1191D01*
Y-1305D02*
X-510Y-1347D01*
Y-2440D02*
Y-1347D01*
X-709Y-1317D02*
Y-1191D01*
Y-1317D02*
X-630Y-1396D01*
Y-2440D02*
Y-1396D01*
X-709Y-1191D02*
Y-1181D01*
X-2700Y-709D02*
X-1181D01*
X-2700Y-551D02*
X-1181D01*
X-2700Y-394D02*
X-1181D01*
X-2700Y-236D02*
X-1181D01*
X-2700Y-79D02*
X-1181D01*
X-2700Y79D02*
X-1181D01*
X-2700Y236D02*
X-1181D01*
X-2700Y394D02*
X-1181D01*
X1181Y-1022D02*
Y-866D01*
X-2700Y550D02*
X-1220D01*
X1010Y-1193D02*
X1181Y-1022D01*
X-709Y1181D02*
Y1339D01*
X-551Y1181D02*
Y1351D01*
X-394Y1181D02*
Y1363D01*
X-236Y1181D02*
Y1375D01*
X-79Y1181D02*
Y1388D01*
X79Y1181D02*
Y1400D01*
X236Y1181D02*
Y1412D01*
X394Y1181D02*
Y1424D01*
X-866Y1181D02*
Y1326D01*
X-1340Y1800D02*
X-866Y1326D01*
X-1340Y1800D02*
Y3533D01*
X-1220Y1850D02*
X-709Y1339D01*
X-1220Y1850D02*
Y3533D01*
X-1100Y1900D02*
X-551Y1351D01*
X-1100Y1900D02*
Y3533D01*
X-980Y1949D02*
X-394Y1363D01*
X-980Y1949D02*
Y3533D01*
X-860Y1999D02*
X-236Y1375D01*
X-860Y1999D02*
Y3533D01*
X-740Y2049D02*
X-79Y1388D01*
X-740Y2049D02*
Y3533D01*
X-620Y2099D02*
X79Y1400D01*
X-620Y2099D02*
Y3533D01*
X-500Y2148D02*
X236Y1412D01*
X-500Y2148D02*
Y3533D01*
X-380Y2198D02*
X394Y1424D01*
X-380Y2198D02*
Y3533D01*
X810Y2720D02*
X1170Y2360D01*
X810Y2720D02*
Y3038D01*
X1181Y3409D01*
X409Y2081D02*
X618Y2290D01*
X1170Y2280D02*
Y2360D01*
X618Y2290D02*
X709D01*
X709Y1191D02*
Y1411D01*
X709Y1181D02*
Y1191D01*
Y2269D02*
Y2290D01*
Y2269D02*
X748Y2308D01*
X681Y2241D02*
X709Y2269D01*
X681Y1439D02*
X709Y1411D01*
X681Y1439D02*
Y2241D01*
X866Y1191D02*
Y1424D01*
X801Y1489D02*
X866Y1424D01*
X801Y1489D02*
Y1911D01*
X1170Y2280D01*
X1181Y-709D02*
X1305D01*
X1409Y-964D02*
Y-813D01*
X1130Y-1243D02*
X1409Y-964D01*
X1305Y-709D02*
X1409Y-813D01*
X1181Y-551D02*
X1317D01*
X1250Y-1293D02*
X1529Y-1014D01*
Y-763D01*
X1317Y-551D02*
X1529Y-763D01*
X1181Y-394D02*
X1329D01*
X1370Y-1342D02*
X1649Y-1064D01*
Y-713D01*
X1329Y-394D02*
X1649Y-713D01*
X1181Y-236D02*
X1342D01*
X1840Y-735D01*
Y-803D02*
Y-735D01*
D25*
X1870Y1924D02*
X2510D01*
D26*
X-2300Y1244D02*
X-1769Y1776D01*
X-1590D01*
D27*
X2550Y700D02*
D03*
X-880Y-2310D02*
D03*
X1620D02*
D03*
X2550D02*
D03*
X790Y-2342D02*
D03*
X2550Y2290D02*
D03*
Y1550D02*
D03*
X1730Y2880D02*
D03*
X-2610Y2130D02*
D03*
X2070Y3400D02*
D03*
X-2580Y3410D02*
D03*
X-2020Y-1320D02*
D03*
X1410Y2250D02*
D03*
X-1120Y-1200D02*
D03*
X1020Y1650D02*
D03*
X-70Y2190D02*
D03*
X-2010Y-920D02*
D03*
X-1590Y2130D02*
D03*
X1620Y-1480D02*
D03*
X2550Y-1480D02*
D03*
X-1950Y1220D02*
D03*
X-2310Y2130D02*
D03*
X40Y2980D02*
D03*
X-1590Y3410D02*
D03*
X-2580Y-2310D02*
D03*
X-2580Y-960D02*
D03*
X-1200Y1290D02*
D03*
D28*
X709Y-709D02*
D03*
X236D02*
D03*
X-236D02*
D03*
X-709D02*
D03*
X709Y-236D02*
D03*
X236D02*
D03*
X-236D02*
D03*
X-709D02*
D03*
X709Y236D02*
D03*
X236D02*
D03*
X-236D02*
D03*
X-709D02*
D03*
X709Y709D02*
D03*
X236D02*
D03*
X-236D02*
D03*
X-709D02*
D03*
M02*
