G75*
%MOIN*%
%OFA0B0*%
%FSLAX25Y25*%
%IPPOS*%
%LPD*%
%AMOC8*
5,1,8,0,0,1.08239X$1,22.5*
%
%ADD10R,0.10950X0.10950*%
%ADD11R,0.16000X0.16000*%
%ADD12C,0.06000*%
%ADD13R,0.03543X0.02756*%
%ADD14R,0.01575X0.03543*%
%ADD15C,0.00700*%
%ADD16C,0.02800*%
%ADD17C,0.03962*%
%ADD18C,0.03569*%
%ADD19C,0.01000*%
%ADD20C,0.01600*%
D10*
X0168400Y0036300D03*
X0168400Y0136300D03*
D11*
X0168400Y0086300D03*
D12*
X0155300Y0019500D03*
X0165300Y0018500D03*
X0175300Y0019500D03*
X0185300Y0018500D03*
X0195300Y0019500D03*
X0205300Y0018500D03*
D13*
X0233400Y0080359D03*
X0233400Y0075241D03*
D14*
X0267573Y0034449D03*
X0275447Y0034449D03*
X0281353Y0034449D03*
X0289227Y0034449D03*
D15*
X0233400Y0075241D02*
X0249200Y0075141D01*
X0252400Y0075200D01*
X0263500Y0013200D02*
X0219100Y0013200D01*
X0191500Y0059700D02*
X0181500Y0059700D01*
X0253700Y0057600D02*
X0242100Y0057600D01*
X0242100Y0057500D01*
X0210800Y0072500D02*
X0210800Y0077900D01*
X0198000Y0077900D01*
D16*
X0252400Y0075200D03*
X0033900Y0038500D03*
X0063900Y0039000D03*
X0079100Y0039000D03*
X0119000Y0038300D03*
X0088700Y0038900D03*
X0054900Y0146500D03*
X0119200Y0120700D03*
X0244600Y0093100D03*
X0266500Y0099900D03*
X0074300Y0121900D03*
X0182300Y0094000D03*
X0201600Y0093900D03*
X0209500Y0148900D03*
X0260000Y0115300D03*
X0219400Y0118500D03*
X0231800Y0118500D03*
X0131300Y0067700D03*
X0171500Y0056900D03*
X0268600Y0130200D03*
X0212700Y0026100D03*
X0191500Y0043400D03*
X0294300Y0047500D03*
X0296000Y0020700D03*
X0247200Y0040900D03*
X0270300Y0060600D03*
X0232900Y0066300D03*
X0084300Y0056300D03*
X0084300Y0047900D03*
X0263500Y0013200D03*
X0219100Y0013200D03*
X0099200Y0098100D03*
X0112900Y0098100D03*
X0136300Y0099800D03*
X0123900Y0099800D03*
X0079900Y0157200D03*
X0126000Y0156759D03*
X0102500Y0156759D03*
X0079300Y0163400D03*
X0095800Y0163400D03*
X0114800Y0163300D03*
X0190100Y0094600D03*
X0190100Y0101000D03*
X0191500Y0059700D03*
X0181500Y0059700D03*
X0304300Y0069400D03*
X0300500Y0165400D03*
X0242100Y0057500D03*
X0253700Y0057600D03*
X0210800Y0072500D03*
X0198000Y0077900D03*
D17*
X0271500Y0042500D03*
X0155400Y0078100D03*
X0155800Y0063100D03*
X0156400Y0033000D03*
X0155800Y0048100D03*
X0288300Y0017600D03*
X0079100Y0019700D03*
D18*
X0177500Y0145900D03*
D19*
X0291781Y0016908D02*
X0291781Y0018292D01*
X0291251Y0019572D01*
X0290272Y0020551D01*
X0288992Y0021081D01*
X0287608Y0021081D01*
X0286328Y0020551D01*
X0285349Y0019572D01*
X0284819Y0018292D01*
X0284819Y0016908D01*
X0285349Y0015628D01*
X0286000Y0014977D01*
X0286000Y0007600D01*
X0081300Y0007600D01*
X0081300Y0016977D01*
X0082051Y0017728D01*
X0082581Y0019008D01*
X0082581Y0020392D01*
X0082051Y0021672D01*
X0081072Y0022651D01*
X0079792Y0023181D01*
X0078408Y0023181D01*
X0077128Y0022651D01*
X0076149Y0021672D01*
X0075619Y0020392D01*
X0075619Y0019008D01*
X0076149Y0017728D01*
X0076700Y0017177D01*
X0076700Y0004976D01*
X0007756Y0004999D01*
X0006652Y0005637D01*
X0005637Y0006652D01*
X0005000Y0007754D01*
X0005000Y0055000D01*
X0050000Y0055000D01*
X0050000Y0170000D01*
X0303275Y0169405D01*
X0303348Y0169363D01*
X0304363Y0168348D01*
X0304737Y0167701D01*
X0304198Y0167700D01*
X0302301Y0167700D01*
X0302143Y0167858D01*
X0301077Y0168300D01*
X0299923Y0168300D01*
X0298857Y0167858D01*
X0298041Y0167043D01*
X0297600Y0165977D01*
X0297600Y0164823D01*
X0298041Y0163757D01*
X0298857Y0162941D01*
X0299923Y0162500D01*
X0301077Y0162500D01*
X0301903Y0162842D01*
X0301998Y0071199D01*
X0301841Y0071043D01*
X0301400Y0069977D01*
X0301400Y0068823D01*
X0301841Y0067757D01*
X0302657Y0066941D01*
X0303723Y0066500D01*
X0304877Y0066500D01*
X0305413Y0066722D01*
X0305307Y0008737D01*
X0305081Y0007895D01*
X0304363Y0006652D01*
X0303348Y0005637D01*
X0302105Y0004919D01*
X0302039Y0004901D01*
X0290600Y0004905D01*
X0290600Y0014977D01*
X0291251Y0015628D01*
X0291781Y0016908D01*
X0213700Y0071923D02*
X0213700Y0073077D01*
X0213258Y0074143D01*
X0212650Y0074751D01*
X0212650Y0078666D01*
X0211566Y0079750D01*
X0200251Y0079750D01*
X0199643Y0080358D01*
X0198577Y0080800D01*
X0197423Y0080800D01*
X0196357Y0080358D01*
X0195541Y0079543D01*
X0195100Y0078477D01*
X0195100Y0077323D01*
X0195541Y0076257D01*
X0196357Y0075441D01*
X0197423Y0075000D01*
X0198577Y0075000D01*
X0199643Y0075441D01*
X0200251Y0076050D01*
X0208950Y0076050D01*
X0208950Y0074751D01*
X0208341Y0074143D01*
X0207900Y0073077D01*
X0207900Y0071923D01*
X0208341Y0070857D01*
X0209157Y0070041D01*
X0210223Y0069600D01*
X0211377Y0069600D01*
X0212443Y0070041D01*
X0213258Y0070857D01*
X0213700Y0071923D01*
X0256600Y0057023D02*
X0256600Y0058177D01*
X0256158Y0059243D01*
X0255343Y0060058D01*
X0254277Y0060500D01*
X0253123Y0060500D01*
X0252057Y0060058D01*
X0251449Y0059450D01*
X0244251Y0059450D01*
X0243743Y0059958D01*
X0242677Y0060400D01*
X0241523Y0060400D01*
X0240457Y0059958D01*
X0239641Y0059143D01*
X0239200Y0058077D01*
X0239200Y0056923D01*
X0239641Y0055857D01*
X0240457Y0055041D01*
X0241523Y0054600D01*
X0242677Y0054600D01*
X0243743Y0055041D01*
X0244451Y0055750D01*
X0251449Y0055750D01*
X0252057Y0055141D01*
X0253123Y0054700D01*
X0254277Y0054700D01*
X0255343Y0055141D01*
X0256158Y0055957D01*
X0256600Y0057023D01*
X0098001Y0165300D02*
X0097443Y0165858D01*
X0096377Y0166300D01*
X0095223Y0166300D01*
X0094157Y0165858D01*
X0093699Y0165400D01*
X0081401Y0165400D01*
X0080943Y0165858D01*
X0079877Y0166300D01*
X0078723Y0166300D01*
X0077657Y0165858D01*
X0076841Y0165043D01*
X0076400Y0163977D01*
X0076400Y0162823D01*
X0076841Y0161757D01*
X0077657Y0160941D01*
X0078723Y0160500D01*
X0079877Y0160500D01*
X0080943Y0160941D01*
X0081401Y0161400D01*
X0093699Y0161400D01*
X0094157Y0160941D01*
X0095223Y0160500D01*
X0096377Y0160500D01*
X0097443Y0160941D01*
X0097801Y0161300D01*
X0112699Y0161300D01*
X0113157Y0160841D01*
X0114223Y0160400D01*
X0115377Y0160400D01*
X0116443Y0160841D01*
X0117258Y0161657D01*
X0117700Y0162723D01*
X0117700Y0163877D01*
X0117258Y0164943D01*
X0116443Y0165758D01*
X0115377Y0166200D01*
X0114223Y0166200D01*
X0113157Y0165758D01*
X0112699Y0165300D01*
X0098001Y0165300D01*
X0086300Y0054199D02*
X0086758Y0054657D01*
X0087200Y0055723D01*
X0087200Y0056877D01*
X0086758Y0057943D01*
X0085943Y0058758D01*
X0084877Y0059200D01*
X0083723Y0059200D01*
X0082657Y0058758D01*
X0081841Y0057943D01*
X0081400Y0056877D01*
X0081400Y0055723D01*
X0081841Y0054657D01*
X0082300Y0054199D01*
X0082300Y0050001D01*
X0081841Y0049543D01*
X0081400Y0048477D01*
X0081400Y0047323D01*
X0081841Y0046257D01*
X0082657Y0045441D01*
X0083723Y0045000D01*
X0084877Y0045000D01*
X0085943Y0045441D01*
X0086758Y0046257D01*
X0087200Y0047323D01*
X0087200Y0048477D01*
X0086758Y0049543D01*
X0086300Y0050001D01*
X0086300Y0054199D01*
X0030799Y0018578D02*
X0030799Y0021422D01*
X0030063Y0024168D01*
X0028642Y0026631D01*
X0026631Y0028642D01*
X0024168Y0030063D01*
X0021422Y0030799D01*
X0018578Y0030799D01*
X0015832Y0030063D01*
X0013369Y0028642D01*
X0011358Y0026631D01*
X0009937Y0024168D01*
X0009201Y0021422D01*
X0009201Y0018578D01*
X0009937Y0015832D01*
X0011358Y0013369D01*
X0013369Y0011358D01*
X0015832Y0009937D01*
X0018578Y0009201D01*
X0021422Y0009201D01*
X0024168Y0009937D01*
X0026631Y0011358D01*
X0028642Y0013369D01*
X0030063Y0015832D01*
X0030799Y0018578D01*
X0174496Y0043275D02*
X0162304Y0043275D01*
X0161425Y0042396D01*
X0161425Y0030204D01*
X0162304Y0029325D01*
X0174496Y0029325D01*
X0175375Y0030204D01*
X0175375Y0042396D01*
X0174496Y0043275D01*
X0159800Y0018605D02*
X0159800Y0020395D01*
X0159115Y0022049D01*
X0157849Y0023315D01*
X0156195Y0024000D01*
X0154405Y0024000D01*
X0152751Y0023315D01*
X0151485Y0022049D01*
X0150800Y0020395D01*
X0150800Y0018605D01*
X0151485Y0016951D01*
X0152751Y0015685D01*
X0154405Y0015000D01*
X0156195Y0015000D01*
X0157849Y0015685D01*
X0159115Y0016951D01*
X0159800Y0018605D01*
X0169800Y0017605D02*
X0169800Y0019395D01*
X0169115Y0021049D01*
X0167849Y0022315D01*
X0166195Y0023000D01*
X0164405Y0023000D01*
X0162751Y0022315D01*
X0161485Y0021049D01*
X0160800Y0019395D01*
X0160800Y0017605D01*
X0161485Y0015951D01*
X0162751Y0014685D01*
X0164405Y0014000D01*
X0166195Y0014000D01*
X0167849Y0014685D01*
X0169115Y0015951D01*
X0169800Y0017605D01*
X0189800Y0017605D02*
X0189800Y0019395D01*
X0189115Y0021049D01*
X0187849Y0022315D01*
X0186195Y0023000D01*
X0184405Y0023000D01*
X0182751Y0022315D01*
X0181485Y0021049D01*
X0180800Y0019395D01*
X0180800Y0017605D01*
X0181485Y0015951D01*
X0182751Y0014685D01*
X0184405Y0014000D01*
X0186195Y0014000D01*
X0187849Y0014685D01*
X0189115Y0015951D01*
X0189800Y0017605D01*
X0199800Y0018605D02*
X0199800Y0020395D01*
X0199115Y0022049D01*
X0197849Y0023315D01*
X0196195Y0024000D01*
X0194405Y0024000D01*
X0192751Y0023315D01*
X0191485Y0022049D01*
X0190800Y0020395D01*
X0190800Y0018605D01*
X0191485Y0016951D01*
X0192751Y0015685D01*
X0194405Y0015000D01*
X0196195Y0015000D01*
X0197849Y0015685D01*
X0199115Y0016951D01*
X0199800Y0018605D01*
X0209800Y0017605D02*
X0209800Y0019395D01*
X0209115Y0021049D01*
X0207849Y0022315D01*
X0206195Y0023000D01*
X0204405Y0023000D01*
X0202751Y0022315D01*
X0201485Y0021049D01*
X0200800Y0019395D01*
X0200800Y0017605D01*
X0201485Y0015951D01*
X0202751Y0014685D01*
X0204405Y0014000D01*
X0206195Y0014000D01*
X0207849Y0014685D01*
X0209115Y0015951D01*
X0209800Y0017605D01*
X0231007Y0072363D02*
X0235793Y0072363D01*
X0236672Y0073242D01*
X0236672Y0073370D01*
X0248449Y0073296D01*
X0248468Y0073277D01*
X0249211Y0073291D01*
X0249955Y0073286D01*
X0249974Y0073305D01*
X0250190Y0073309D01*
X0250757Y0072741D01*
X0251823Y0072300D01*
X0252977Y0072300D01*
X0254043Y0072741D01*
X0254858Y0073557D01*
X0255300Y0074623D01*
X0255300Y0075777D01*
X0254858Y0076843D01*
X0254043Y0077658D01*
X0252977Y0078100D01*
X0251823Y0078100D01*
X0250757Y0077658D01*
X0250107Y0077008D01*
X0249189Y0076991D01*
X0236672Y0077070D01*
X0236672Y0077240D01*
X0235793Y0078119D01*
X0231007Y0078119D01*
X0230128Y0077240D01*
X0230128Y0073242D01*
X0231007Y0072363D01*
X0266164Y0031177D02*
X0268982Y0031177D01*
X0269861Y0032056D01*
X0269861Y0036842D01*
X0268982Y0037720D01*
X0266164Y0037720D01*
X0265286Y0036842D01*
X0265286Y0032056D01*
X0266164Y0031177D01*
X0274039Y0031177D02*
X0276856Y0031177D01*
X0277735Y0032056D01*
X0277735Y0036842D01*
X0276856Y0037720D01*
X0274039Y0037720D01*
X0273160Y0036842D01*
X0273160Y0032056D01*
X0274039Y0031177D01*
X0287818Y0031177D02*
X0290635Y0031177D01*
X0291514Y0032056D01*
X0291514Y0032449D01*
X0298428Y0032449D01*
X0299600Y0033620D01*
X0299600Y0161628D01*
X0298428Y0162800D01*
X0158872Y0162800D01*
X0157700Y0161628D01*
X0157700Y0112772D01*
X0158872Y0111600D01*
X0166400Y0111600D01*
X0166400Y0095800D01*
X0159779Y0095800D01*
X0158900Y0094921D01*
X0158900Y0077679D01*
X0159779Y0076800D01*
X0177021Y0076800D01*
X0177900Y0077679D01*
X0177900Y0094921D01*
X0177021Y0095800D01*
X0170400Y0095800D01*
X0170400Y0114428D01*
X0169228Y0115600D01*
X0161700Y0115600D01*
X0161700Y0129929D01*
X0162304Y0129325D01*
X0174496Y0129325D01*
X0175375Y0130204D01*
X0175375Y0142396D01*
X0174496Y0143275D01*
X0162304Y0143275D01*
X0161700Y0142671D01*
X0161700Y0158800D01*
X0295600Y0158800D01*
X0295600Y0036449D01*
X0291514Y0036449D01*
X0291514Y0036842D01*
X0290635Y0037720D01*
X0287818Y0037720D01*
X0286939Y0036842D01*
X0286939Y0032056D01*
X0287818Y0031177D01*
X0266400Y0012623D02*
X0266400Y0013777D01*
X0265958Y0014843D01*
X0265143Y0015658D01*
X0264077Y0016100D01*
X0262923Y0016100D01*
X0261857Y0015658D01*
X0261249Y0015050D01*
X0221351Y0015050D01*
X0220743Y0015658D01*
X0219677Y0016100D01*
X0218523Y0016100D01*
X0217457Y0015658D01*
X0216641Y0014843D01*
X0216200Y0013777D01*
X0216200Y0012623D01*
X0216641Y0011557D01*
X0217457Y0010741D01*
X0218523Y0010300D01*
X0219677Y0010300D01*
X0220743Y0010741D01*
X0221351Y0011350D01*
X0261249Y0011350D01*
X0261857Y0010741D01*
X0262923Y0010300D01*
X0264077Y0010300D01*
X0265143Y0010741D01*
X0265958Y0011557D01*
X0266400Y0012623D01*
X0101301Y0100100D02*
X0100843Y0100558D01*
X0099777Y0101000D01*
X0098623Y0101000D01*
X0097557Y0100558D01*
X0096741Y0099743D01*
X0096300Y0098677D01*
X0096300Y0097523D01*
X0096741Y0096457D01*
X0097557Y0095641D01*
X0098623Y0095200D01*
X0099777Y0095200D01*
X0100843Y0095641D01*
X0101301Y0096100D01*
X0110799Y0096100D01*
X0111257Y0095641D01*
X0112323Y0095200D01*
X0113477Y0095200D01*
X0114543Y0095641D01*
X0115358Y0096457D01*
X0115800Y0097523D01*
X0115800Y0098677D01*
X0115358Y0099743D01*
X0114543Y0100558D01*
X0113477Y0101000D01*
X0112323Y0101000D01*
X0111257Y0100558D01*
X0110799Y0100100D01*
X0101301Y0100100D01*
X0134199Y0097800D02*
X0134657Y0097341D01*
X0135723Y0096900D01*
X0136877Y0096900D01*
X0137943Y0097341D01*
X0138758Y0098157D01*
X0139200Y0099223D01*
X0139200Y0100377D01*
X0138758Y0101443D01*
X0137943Y0102258D01*
X0136877Y0102700D01*
X0135723Y0102700D01*
X0134657Y0102258D01*
X0134199Y0101800D01*
X0126001Y0101800D01*
X0125543Y0102258D01*
X0124477Y0102700D01*
X0123323Y0102700D01*
X0122257Y0102258D01*
X0121441Y0101443D01*
X0121000Y0100377D01*
X0121000Y0099223D01*
X0121441Y0098157D01*
X0122257Y0097341D01*
X0123323Y0096900D01*
X0124477Y0096900D01*
X0125543Y0097341D01*
X0126001Y0097800D01*
X0134199Y0097800D01*
X0123899Y0154759D02*
X0124357Y0154301D01*
X0125423Y0153859D01*
X0126577Y0153859D01*
X0127643Y0154301D01*
X0128458Y0155116D01*
X0128900Y0156182D01*
X0128900Y0157336D01*
X0128458Y0158402D01*
X0127643Y0159218D01*
X0126577Y0159659D01*
X0125423Y0159659D01*
X0124357Y0159218D01*
X0123899Y0158759D01*
X0104601Y0158759D01*
X0104143Y0159218D01*
X0103077Y0159659D01*
X0101923Y0159659D01*
X0100857Y0159218D01*
X0100399Y0158759D01*
X0082393Y0158759D01*
X0082358Y0158843D01*
X0081543Y0159658D01*
X0080477Y0160100D01*
X0079323Y0160100D01*
X0078257Y0159658D01*
X0077441Y0158843D01*
X0077000Y0157777D01*
X0077000Y0156623D01*
X0077441Y0155557D01*
X0078257Y0154741D01*
X0079323Y0154300D01*
X0080477Y0154300D01*
X0081543Y0154741D01*
X0081560Y0154759D01*
X0100399Y0154759D01*
X0100857Y0154301D01*
X0101923Y0153859D01*
X0103077Y0153859D01*
X0104143Y0154301D01*
X0104601Y0154759D01*
X0123899Y0154759D01*
X0188100Y0096701D02*
X0187641Y0096243D01*
X0187200Y0095177D01*
X0187200Y0094023D01*
X0187641Y0092957D01*
X0188457Y0092141D01*
X0189523Y0091700D01*
X0190677Y0091700D01*
X0191743Y0092141D01*
X0192558Y0092957D01*
X0193000Y0094023D01*
X0193000Y0095177D01*
X0192558Y0096243D01*
X0192100Y0096701D01*
X0192100Y0098899D01*
X0192558Y0099357D01*
X0193000Y0100423D01*
X0193000Y0101577D01*
X0192558Y0102643D01*
X0191743Y0103458D01*
X0190677Y0103900D01*
X0189523Y0103900D01*
X0188457Y0103458D01*
X0187641Y0102643D01*
X0187200Y0101577D01*
X0187200Y0100423D01*
X0187641Y0099357D01*
X0188100Y0098899D01*
X0188100Y0096701D01*
X0183143Y0062158D02*
X0182077Y0062600D01*
X0180923Y0062600D01*
X0179857Y0062158D01*
X0179041Y0061343D01*
X0178600Y0060277D01*
X0178600Y0059123D01*
X0179041Y0058057D01*
X0179857Y0057241D01*
X0180923Y0056800D01*
X0182077Y0056800D01*
X0183143Y0057241D01*
X0183751Y0057850D01*
X0189249Y0057850D01*
X0189857Y0057241D01*
X0190923Y0056800D01*
X0192077Y0056800D01*
X0193143Y0057241D01*
X0193958Y0058057D01*
X0194400Y0059123D01*
X0194400Y0060277D01*
X0193958Y0061343D01*
X0193143Y0062158D01*
X0192077Y0062600D01*
X0190923Y0062600D01*
X0189857Y0062158D01*
X0189249Y0061550D01*
X0183751Y0061550D01*
X0183143Y0062158D01*
X0076700Y0004993D02*
X0027338Y0004993D01*
X0290600Y0004993D02*
X0302233Y0004993D01*
X0076700Y0005991D02*
X0006297Y0005991D01*
X0290600Y0005991D02*
X0303703Y0005991D01*
X0076700Y0006990D02*
X0005442Y0006990D01*
X0290600Y0006990D02*
X0304558Y0006990D01*
X0076700Y0007988D02*
X0005000Y0007988D01*
X0081300Y0007988D02*
X0286000Y0007988D01*
X0290600Y0007988D02*
X0305106Y0007988D01*
X0076700Y0008987D02*
X0005000Y0008987D01*
X0081300Y0008987D02*
X0286000Y0008987D01*
X0290600Y0008987D02*
X0305307Y0008987D01*
X0015748Y0009985D02*
X0005000Y0009985D01*
X0024252Y0009985D02*
X0076700Y0009985D01*
X0081300Y0009985D02*
X0286000Y0009985D01*
X0290600Y0009985D02*
X0305309Y0009985D01*
X0014018Y0010984D02*
X0005000Y0010984D01*
X0025982Y0010984D02*
X0076700Y0010984D01*
X0081300Y0010984D02*
X0217215Y0010984D01*
X0220985Y0010984D02*
X0261615Y0010984D01*
X0265385Y0010984D02*
X0286000Y0010984D01*
X0290600Y0010984D02*
X0305311Y0010984D01*
X0012745Y0011982D02*
X0005000Y0011982D01*
X0027255Y0011982D02*
X0076700Y0011982D01*
X0081300Y0011982D02*
X0216466Y0011982D01*
X0266134Y0011982D02*
X0286000Y0011982D01*
X0290600Y0011982D02*
X0305313Y0011982D01*
X0011747Y0012981D02*
X0005000Y0012981D01*
X0028253Y0012981D02*
X0076700Y0012981D01*
X0081300Y0012981D02*
X0216200Y0012981D01*
X0266400Y0012981D02*
X0286000Y0012981D01*
X0290600Y0012981D02*
X0305315Y0012981D01*
X0011006Y0013979D02*
X0005000Y0013979D01*
X0028994Y0013979D02*
X0076700Y0013979D01*
X0081300Y0013979D02*
X0216284Y0013979D01*
X0266316Y0013979D02*
X0286000Y0013979D01*
X0290600Y0013979D02*
X0305317Y0013979D01*
X0010430Y0014978D02*
X0005000Y0014978D01*
X0029570Y0014978D02*
X0076700Y0014978D01*
X0081300Y0014978D02*
X0162458Y0014978D01*
X0168142Y0014978D02*
X0182458Y0014978D01*
X0188142Y0014978D02*
X0202458Y0014978D01*
X0208142Y0014978D02*
X0216776Y0014978D01*
X0265824Y0014978D02*
X0285999Y0014978D01*
X0290601Y0014978D02*
X0305318Y0014978D01*
X0009898Y0015976D02*
X0005000Y0015976D01*
X0030102Y0015976D02*
X0076700Y0015976D01*
X0081300Y0015976D02*
X0152460Y0015976D01*
X0158140Y0015976D02*
X0161475Y0015976D01*
X0169125Y0015976D02*
X0181475Y0015976D01*
X0189125Y0015976D02*
X0192460Y0015976D01*
X0198140Y0015976D02*
X0201475Y0015976D01*
X0209125Y0015976D02*
X0218224Y0015976D01*
X0219976Y0015976D02*
X0262624Y0015976D01*
X0264376Y0015976D02*
X0285205Y0015976D01*
X0291395Y0015976D02*
X0305320Y0015976D01*
X0009630Y0016975D02*
X0005000Y0016975D01*
X0030370Y0016975D02*
X0076700Y0016975D01*
X0081300Y0016975D02*
X0151475Y0016975D01*
X0159125Y0016975D02*
X0161061Y0016975D01*
X0169539Y0016975D02*
X0181061Y0016975D01*
X0189539Y0016975D02*
X0191475Y0016975D01*
X0199125Y0016975D02*
X0201061Y0016975D01*
X0209539Y0016975D02*
X0284819Y0016975D01*
X0291781Y0016975D02*
X0305322Y0016975D01*
X0009363Y0017973D02*
X0005000Y0017973D01*
X0030637Y0017973D02*
X0076047Y0017973D01*
X0082153Y0017973D02*
X0151062Y0017973D01*
X0159538Y0017973D02*
X0160800Y0017973D01*
X0169800Y0017973D02*
X0180800Y0017973D01*
X0189800Y0017973D02*
X0191062Y0017973D01*
X0199538Y0017973D02*
X0200800Y0017973D01*
X0209800Y0017973D02*
X0284819Y0017973D01*
X0291781Y0017973D02*
X0305324Y0017973D01*
X0009201Y0018972D02*
X0005000Y0018972D01*
X0030799Y0018972D02*
X0075634Y0018972D01*
X0082566Y0018972D02*
X0150800Y0018972D01*
X0159800Y0018972D02*
X0160800Y0018972D01*
X0169800Y0018972D02*
X0180800Y0018972D01*
X0189800Y0018972D02*
X0190800Y0018972D01*
X0199800Y0018972D02*
X0200800Y0018972D01*
X0209800Y0018972D02*
X0285100Y0018972D01*
X0291500Y0018972D02*
X0305326Y0018972D01*
X0009201Y0019970D02*
X0005000Y0019970D01*
X0030799Y0019970D02*
X0075619Y0019970D01*
X0082581Y0019970D02*
X0150800Y0019970D01*
X0159800Y0019970D02*
X0161038Y0019970D01*
X0169562Y0019970D02*
X0181038Y0019970D01*
X0189562Y0019970D02*
X0190800Y0019970D01*
X0199800Y0019970D02*
X0201038Y0019970D01*
X0209562Y0019970D02*
X0285747Y0019970D01*
X0290853Y0019970D02*
X0305327Y0019970D01*
X0009201Y0020969D02*
X0005000Y0020969D01*
X0030799Y0020969D02*
X0075858Y0020969D01*
X0082342Y0020969D02*
X0151038Y0020969D01*
X0159562Y0020969D02*
X0161452Y0020969D01*
X0169148Y0020969D02*
X0181452Y0020969D01*
X0189148Y0020969D02*
X0191038Y0020969D01*
X0199562Y0020969D02*
X0201452Y0020969D01*
X0209148Y0020969D02*
X0287336Y0020969D01*
X0289264Y0020969D02*
X0305329Y0020969D01*
X0009347Y0021967D02*
X0005000Y0021967D01*
X0030653Y0021967D02*
X0076444Y0021967D01*
X0081756Y0021967D02*
X0151451Y0021967D01*
X0159149Y0021967D02*
X0162403Y0021967D01*
X0168197Y0021967D02*
X0182403Y0021967D01*
X0188197Y0021967D02*
X0191451Y0021967D01*
X0199149Y0021967D02*
X0202403Y0021967D01*
X0208197Y0021967D02*
X0305331Y0021967D01*
X0009615Y0022966D02*
X0005000Y0022966D01*
X0030385Y0022966D02*
X0077888Y0022966D01*
X0080312Y0022966D02*
X0152402Y0022966D01*
X0158198Y0022966D02*
X0164322Y0022966D01*
X0166278Y0022966D02*
X0184322Y0022966D01*
X0186278Y0022966D02*
X0192402Y0022966D01*
X0198198Y0022966D02*
X0204322Y0022966D01*
X0206278Y0022966D02*
X0305333Y0022966D01*
X0009882Y0023964D02*
X0005000Y0023964D01*
X0030118Y0023964D02*
X0154319Y0023964D01*
X0156281Y0023964D02*
X0194319Y0023964D01*
X0196281Y0023964D02*
X0305335Y0023964D01*
X0010395Y0024963D02*
X0005000Y0024963D01*
X0029605Y0024963D02*
X0305337Y0024963D01*
X0010972Y0025961D02*
X0005000Y0025961D01*
X0029028Y0025961D02*
X0305338Y0025961D01*
X0011687Y0026960D02*
X0005000Y0026960D01*
X0028313Y0026960D02*
X0305340Y0026960D01*
X0012686Y0027958D02*
X0005000Y0027958D01*
X0027314Y0027958D02*
X0305342Y0027958D01*
X0013915Y0028957D02*
X0005000Y0028957D01*
X0026085Y0028957D02*
X0305344Y0028957D01*
X0015645Y0029955D02*
X0005000Y0029955D01*
X0024355Y0029955D02*
X0161673Y0029955D01*
X0175127Y0029955D02*
X0305346Y0029955D01*
X0161425Y0030954D02*
X0005000Y0030954D01*
X0175375Y0030954D02*
X0305348Y0030954D01*
X0161425Y0031952D02*
X0005000Y0031952D01*
X0175375Y0031952D02*
X0265389Y0031952D01*
X0269757Y0031952D02*
X0273263Y0031952D01*
X0277631Y0031952D02*
X0287043Y0031952D01*
X0291411Y0031952D02*
X0305349Y0031952D01*
X0161425Y0032951D02*
X0005000Y0032951D01*
X0175375Y0032951D02*
X0265286Y0032951D01*
X0269861Y0032951D02*
X0273160Y0032951D01*
X0277735Y0032951D02*
X0286939Y0032951D01*
X0298930Y0032951D02*
X0305351Y0032951D01*
X0161425Y0033949D02*
X0005000Y0033949D01*
X0175375Y0033949D02*
X0265286Y0033949D01*
X0269861Y0033949D02*
X0273160Y0033949D01*
X0277735Y0033949D02*
X0286939Y0033949D01*
X0299600Y0033949D02*
X0305353Y0033949D01*
X0161425Y0034948D02*
X0005000Y0034948D01*
X0175375Y0034948D02*
X0265286Y0034948D01*
X0269861Y0034948D02*
X0273160Y0034948D01*
X0277735Y0034948D02*
X0286939Y0034948D01*
X0299600Y0034948D02*
X0305355Y0034948D01*
X0161425Y0035946D02*
X0005000Y0035946D01*
X0175375Y0035946D02*
X0265286Y0035946D01*
X0269861Y0035946D02*
X0273160Y0035946D01*
X0277735Y0035946D02*
X0286939Y0035946D01*
X0299600Y0035946D02*
X0305357Y0035946D01*
X0161425Y0036945D02*
X0005000Y0036945D01*
X0175375Y0036945D02*
X0265389Y0036945D01*
X0269757Y0036945D02*
X0273263Y0036945D01*
X0277632Y0036945D02*
X0287042Y0036945D01*
X0291411Y0036945D02*
X0295600Y0036945D01*
X0299600Y0036945D02*
X0305358Y0036945D01*
X0161425Y0037943D02*
X0005000Y0037943D01*
X0175375Y0037943D02*
X0295600Y0037943D01*
X0299600Y0037943D02*
X0305360Y0037943D01*
X0161425Y0038942D02*
X0005000Y0038942D01*
X0175375Y0038942D02*
X0295600Y0038942D01*
X0299600Y0038942D02*
X0305362Y0038942D01*
X0161425Y0039940D02*
X0005000Y0039940D01*
X0175375Y0039940D02*
X0295600Y0039940D01*
X0299600Y0039940D02*
X0305364Y0039940D01*
X0161425Y0040939D02*
X0005000Y0040939D01*
X0175375Y0040939D02*
X0295600Y0040939D01*
X0299600Y0040939D02*
X0305366Y0040939D01*
X0161425Y0041937D02*
X0005000Y0041937D01*
X0175375Y0041937D02*
X0295600Y0041937D01*
X0299600Y0041937D02*
X0305368Y0041937D01*
X0161965Y0042936D02*
X0005000Y0042936D01*
X0174835Y0042936D02*
X0295600Y0042936D01*
X0299600Y0042936D02*
X0305369Y0042936D01*
X0295600Y0043934D02*
X0005000Y0043934D01*
X0299600Y0043934D02*
X0305371Y0043934D01*
X0295600Y0044933D02*
X0005000Y0044933D01*
X0299600Y0044933D02*
X0305373Y0044933D01*
X0082167Y0045932D02*
X0005000Y0045932D01*
X0086433Y0045932D02*
X0295600Y0045932D01*
X0299600Y0045932D02*
X0305375Y0045932D01*
X0081563Y0046930D02*
X0005000Y0046930D01*
X0087037Y0046930D02*
X0295600Y0046930D01*
X0299600Y0046930D02*
X0305377Y0046930D01*
X0081400Y0047929D02*
X0005000Y0047929D01*
X0087200Y0047929D02*
X0295600Y0047929D01*
X0299600Y0047929D02*
X0305378Y0047929D01*
X0081586Y0048927D02*
X0005000Y0048927D01*
X0087014Y0048927D02*
X0295600Y0048927D01*
X0299600Y0048927D02*
X0305380Y0048927D01*
X0082224Y0049926D02*
X0005000Y0049926D01*
X0086376Y0049926D02*
X0295600Y0049926D01*
X0299600Y0049926D02*
X0305382Y0049926D01*
X0082300Y0050924D02*
X0005000Y0050924D01*
X0086300Y0050924D02*
X0295600Y0050924D01*
X0299600Y0050924D02*
X0305384Y0050924D01*
X0082300Y0051923D02*
X0005000Y0051923D01*
X0086300Y0051923D02*
X0295600Y0051923D01*
X0299600Y0051923D02*
X0305386Y0051923D01*
X0082300Y0052921D02*
X0005000Y0052921D01*
X0086300Y0052921D02*
X0295600Y0052921D01*
X0299600Y0052921D02*
X0305388Y0052921D01*
X0082300Y0053920D02*
X0005000Y0053920D01*
X0086300Y0053920D02*
X0295600Y0053920D01*
X0299600Y0053920D02*
X0305389Y0053920D01*
X0081733Y0054918D02*
X0005000Y0054918D01*
X0086867Y0054918D02*
X0240755Y0054918D01*
X0243445Y0054918D02*
X0252597Y0054918D01*
X0254803Y0054918D02*
X0295600Y0054918D01*
X0299600Y0054918D02*
X0305391Y0054918D01*
X0081400Y0055917D02*
X0050000Y0055917D01*
X0087200Y0055917D02*
X0239617Y0055917D01*
X0256118Y0055917D02*
X0295600Y0055917D01*
X0299600Y0055917D02*
X0305393Y0055917D01*
X0081416Y0056915D02*
X0050000Y0056915D01*
X0087184Y0056915D02*
X0180645Y0056915D01*
X0182355Y0056915D02*
X0190645Y0056915D01*
X0192355Y0056915D02*
X0239203Y0056915D01*
X0256555Y0056915D02*
X0295600Y0056915D01*
X0299600Y0056915D02*
X0305395Y0056915D01*
X0081829Y0057914D02*
X0050000Y0057914D01*
X0086771Y0057914D02*
X0179185Y0057914D01*
X0193815Y0057914D02*
X0239200Y0057914D01*
X0256600Y0057914D02*
X0295600Y0057914D01*
X0299600Y0057914D02*
X0305397Y0057914D01*
X0083028Y0058912D02*
X0050000Y0058912D01*
X0085572Y0058912D02*
X0178687Y0058912D01*
X0194313Y0058912D02*
X0239546Y0058912D01*
X0256295Y0058912D02*
X0295600Y0058912D01*
X0299600Y0058912D02*
X0305398Y0058912D01*
X0178600Y0059911D02*
X0050000Y0059911D01*
X0194400Y0059911D02*
X0240409Y0059911D01*
X0243791Y0059911D02*
X0251909Y0059911D01*
X0255491Y0059911D02*
X0295600Y0059911D01*
X0299600Y0059911D02*
X0305400Y0059911D01*
X0178862Y0060909D02*
X0050000Y0060909D01*
X0194138Y0060909D02*
X0295600Y0060909D01*
X0299600Y0060909D02*
X0305402Y0060909D01*
X0179606Y0061908D02*
X0050000Y0061908D01*
X0183394Y0061908D02*
X0189606Y0061908D01*
X0193394Y0061908D02*
X0295600Y0061908D01*
X0299600Y0061908D02*
X0305404Y0061908D01*
X0295600Y0062906D02*
X0050000Y0062906D01*
X0299600Y0062906D02*
X0305406Y0062906D01*
X0295600Y0063905D02*
X0050000Y0063905D01*
X0299600Y0063905D02*
X0305408Y0063905D01*
X0295600Y0064903D02*
X0050000Y0064903D01*
X0299600Y0064903D02*
X0305409Y0064903D01*
X0295600Y0065902D02*
X0050000Y0065902D01*
X0299600Y0065902D02*
X0305411Y0065902D01*
X0295600Y0066900D02*
X0050000Y0066900D01*
X0299600Y0066900D02*
X0302757Y0066900D01*
X0295600Y0067899D02*
X0050000Y0067899D01*
X0299600Y0067899D02*
X0301783Y0067899D01*
X0295600Y0068897D02*
X0050000Y0068897D01*
X0299600Y0068897D02*
X0301400Y0068897D01*
X0209509Y0069896D02*
X0050000Y0069896D01*
X0212091Y0069896D02*
X0295600Y0069896D01*
X0299600Y0069896D02*
X0301400Y0069896D01*
X0208326Y0070894D02*
X0050000Y0070894D01*
X0213274Y0070894D02*
X0295600Y0070894D01*
X0299600Y0070894D02*
X0301780Y0070894D01*
X0207913Y0071893D02*
X0050000Y0071893D01*
X0213687Y0071893D02*
X0295600Y0071893D01*
X0299600Y0071893D02*
X0301997Y0071893D01*
X0207900Y0072891D02*
X0050000Y0072891D01*
X0213700Y0072891D02*
X0230479Y0072891D01*
X0236321Y0072891D02*
X0250607Y0072891D01*
X0254193Y0072891D02*
X0295600Y0072891D01*
X0299600Y0072891D02*
X0301996Y0072891D01*
X0208237Y0073890D02*
X0050000Y0073890D01*
X0213363Y0073890D02*
X0230128Y0073890D01*
X0254996Y0073890D02*
X0295600Y0073890D01*
X0299600Y0073890D02*
X0301995Y0073890D01*
X0208950Y0074888D02*
X0050000Y0074888D01*
X0212650Y0074888D02*
X0230128Y0074888D01*
X0255300Y0074888D02*
X0295600Y0074888D01*
X0299600Y0074888D02*
X0301994Y0074888D01*
X0195912Y0075887D02*
X0050000Y0075887D01*
X0200088Y0075887D02*
X0208950Y0075887D01*
X0212650Y0075887D02*
X0230128Y0075887D01*
X0255254Y0075887D02*
X0295600Y0075887D01*
X0299600Y0075887D02*
X0301993Y0075887D01*
X0159693Y0076885D02*
X0050000Y0076885D01*
X0177107Y0076885D02*
X0195281Y0076885D01*
X0212650Y0076885D02*
X0230128Y0076885D01*
X0254816Y0076885D02*
X0295600Y0076885D01*
X0299600Y0076885D02*
X0301992Y0076885D01*
X0158900Y0077884D02*
X0050000Y0077884D01*
X0177900Y0077884D02*
X0195100Y0077884D01*
X0212650Y0077884D02*
X0230772Y0077884D01*
X0236028Y0077884D02*
X0251301Y0077884D01*
X0253499Y0077884D02*
X0295600Y0077884D01*
X0299600Y0077884D02*
X0301991Y0077884D01*
X0158900Y0078882D02*
X0050000Y0078882D01*
X0177900Y0078882D02*
X0195268Y0078882D01*
X0212434Y0078882D02*
X0295600Y0078882D01*
X0299600Y0078882D02*
X0301990Y0078882D01*
X0158900Y0079881D02*
X0050000Y0079881D01*
X0177900Y0079881D02*
X0195880Y0079881D01*
X0200120Y0079881D02*
X0295600Y0079881D01*
X0299600Y0079881D02*
X0301989Y0079881D01*
X0158900Y0080879D02*
X0050000Y0080879D01*
X0177900Y0080879D02*
X0295600Y0080879D01*
X0299600Y0080879D02*
X0301988Y0080879D01*
X0158900Y0081878D02*
X0050000Y0081878D01*
X0177900Y0081878D02*
X0295600Y0081878D01*
X0299600Y0081878D02*
X0301987Y0081878D01*
X0158900Y0082876D02*
X0050000Y0082876D01*
X0177900Y0082876D02*
X0295600Y0082876D01*
X0299600Y0082876D02*
X0301986Y0082876D01*
X0158900Y0083875D02*
X0050000Y0083875D01*
X0177900Y0083875D02*
X0295600Y0083875D01*
X0299600Y0083875D02*
X0301985Y0083875D01*
X0158900Y0084873D02*
X0050000Y0084873D01*
X0177900Y0084873D02*
X0295600Y0084873D01*
X0299600Y0084873D02*
X0301984Y0084873D01*
X0158900Y0085872D02*
X0050000Y0085872D01*
X0177900Y0085872D02*
X0295600Y0085872D01*
X0299600Y0085872D02*
X0301983Y0085872D01*
X0158900Y0086870D02*
X0050000Y0086870D01*
X0177900Y0086870D02*
X0295600Y0086870D01*
X0299600Y0086870D02*
X0301982Y0086870D01*
X0158900Y0087869D02*
X0050000Y0087869D01*
X0177900Y0087869D02*
X0295600Y0087869D01*
X0299600Y0087869D02*
X0301981Y0087869D01*
X0158900Y0088868D02*
X0050000Y0088868D01*
X0177900Y0088868D02*
X0295600Y0088868D01*
X0299600Y0088868D02*
X0301980Y0088868D01*
X0158900Y0089866D02*
X0050000Y0089866D01*
X0177900Y0089866D02*
X0295600Y0089866D01*
X0299600Y0089866D02*
X0301979Y0089866D01*
X0158900Y0090865D02*
X0050000Y0090865D01*
X0177900Y0090865D02*
X0295600Y0090865D01*
X0299600Y0090865D02*
X0301978Y0090865D01*
X0158900Y0091863D02*
X0050000Y0091863D01*
X0177900Y0091863D02*
X0189130Y0091863D01*
X0191070Y0091863D02*
X0295600Y0091863D01*
X0299600Y0091863D02*
X0301977Y0091863D01*
X0158900Y0092862D02*
X0050000Y0092862D01*
X0177900Y0092862D02*
X0187737Y0092862D01*
X0192463Y0092862D02*
X0295600Y0092862D01*
X0299600Y0092862D02*
X0301976Y0092862D01*
X0158900Y0093860D02*
X0050000Y0093860D01*
X0177900Y0093860D02*
X0187268Y0093860D01*
X0192932Y0093860D02*
X0295600Y0093860D01*
X0299600Y0093860D02*
X0301975Y0093860D01*
X0158900Y0094859D02*
X0050000Y0094859D01*
X0177900Y0094859D02*
X0187200Y0094859D01*
X0193000Y0094859D02*
X0295600Y0094859D01*
X0299600Y0094859D02*
X0301973Y0094859D01*
X0097342Y0095857D02*
X0050000Y0095857D01*
X0101058Y0095857D02*
X0111042Y0095857D01*
X0114758Y0095857D02*
X0166400Y0095857D01*
X0170400Y0095857D02*
X0187482Y0095857D01*
X0192718Y0095857D02*
X0295600Y0095857D01*
X0299600Y0095857D02*
X0301972Y0095857D01*
X0096577Y0096856D02*
X0050000Y0096856D01*
X0115523Y0096856D02*
X0166400Y0096856D01*
X0170400Y0096856D02*
X0188100Y0096856D01*
X0192100Y0096856D02*
X0295600Y0096856D01*
X0299600Y0096856D02*
X0301971Y0096856D01*
X0096300Y0097854D02*
X0050000Y0097854D01*
X0115800Y0097854D02*
X0121745Y0097854D01*
X0138455Y0097854D02*
X0166400Y0097854D01*
X0170400Y0097854D02*
X0188100Y0097854D01*
X0192100Y0097854D02*
X0295600Y0097854D01*
X0299600Y0097854D02*
X0301970Y0097854D01*
X0096373Y0098853D02*
X0050000Y0098853D01*
X0115727Y0098853D02*
X0121153Y0098853D01*
X0139047Y0098853D02*
X0166400Y0098853D01*
X0170400Y0098853D02*
X0188100Y0098853D01*
X0192100Y0098853D02*
X0295600Y0098853D01*
X0299600Y0098853D02*
X0301969Y0098853D01*
X0096850Y0099851D02*
X0050000Y0099851D01*
X0115250Y0099851D02*
X0121000Y0099851D01*
X0139200Y0099851D02*
X0166400Y0099851D01*
X0170400Y0099851D02*
X0187437Y0099851D01*
X0192763Y0099851D02*
X0295600Y0099851D01*
X0299600Y0099851D02*
X0301968Y0099851D01*
X0098260Y0100850D02*
X0050000Y0100850D01*
X0100140Y0100850D02*
X0111960Y0100850D01*
X0113840Y0100850D02*
X0121196Y0100850D01*
X0139004Y0100850D02*
X0166400Y0100850D01*
X0170400Y0100850D02*
X0187200Y0100850D01*
X0193000Y0100850D02*
X0295600Y0100850D01*
X0299600Y0100850D02*
X0301967Y0100850D01*
X0121847Y0101848D02*
X0050000Y0101848D01*
X0125953Y0101848D02*
X0134247Y0101848D01*
X0138353Y0101848D02*
X0166400Y0101848D01*
X0170400Y0101848D02*
X0187312Y0101848D01*
X0192888Y0101848D02*
X0295600Y0101848D01*
X0299600Y0101848D02*
X0301966Y0101848D01*
X0166400Y0102847D02*
X0050000Y0102847D01*
X0170400Y0102847D02*
X0187845Y0102847D01*
X0192355Y0102847D02*
X0295600Y0102847D01*
X0299600Y0102847D02*
X0301965Y0102847D01*
X0166400Y0103845D02*
X0050000Y0103845D01*
X0170400Y0103845D02*
X0189391Y0103845D01*
X0190809Y0103845D02*
X0295600Y0103845D01*
X0299600Y0103845D02*
X0301964Y0103845D01*
X0166400Y0104844D02*
X0050000Y0104844D01*
X0170400Y0104844D02*
X0295600Y0104844D01*
X0299600Y0104844D02*
X0301963Y0104844D01*
X0166400Y0105842D02*
X0050000Y0105842D01*
X0170400Y0105842D02*
X0295600Y0105842D01*
X0299600Y0105842D02*
X0301962Y0105842D01*
X0166400Y0106841D02*
X0050000Y0106841D01*
X0170400Y0106841D02*
X0295600Y0106841D01*
X0299600Y0106841D02*
X0301961Y0106841D01*
X0166400Y0107839D02*
X0050000Y0107839D01*
X0170400Y0107839D02*
X0295600Y0107839D01*
X0299600Y0107839D02*
X0301960Y0107839D01*
X0166400Y0108838D02*
X0050000Y0108838D01*
X0170400Y0108838D02*
X0295600Y0108838D01*
X0299600Y0108838D02*
X0301959Y0108838D01*
X0166400Y0109836D02*
X0050000Y0109836D01*
X0170400Y0109836D02*
X0295600Y0109836D01*
X0299600Y0109836D02*
X0301958Y0109836D01*
X0166400Y0110835D02*
X0050000Y0110835D01*
X0170400Y0110835D02*
X0295600Y0110835D01*
X0299600Y0110835D02*
X0301957Y0110835D01*
X0158638Y0111833D02*
X0050000Y0111833D01*
X0170400Y0111833D02*
X0295600Y0111833D01*
X0299600Y0111833D02*
X0301956Y0111833D01*
X0157700Y0112832D02*
X0050000Y0112832D01*
X0170400Y0112832D02*
X0295600Y0112832D01*
X0299600Y0112832D02*
X0301955Y0112832D01*
X0157700Y0113830D02*
X0050000Y0113830D01*
X0170400Y0113830D02*
X0295600Y0113830D01*
X0299600Y0113830D02*
X0301954Y0113830D01*
X0157700Y0114829D02*
X0050000Y0114829D01*
X0170000Y0114829D02*
X0295600Y0114829D01*
X0299600Y0114829D02*
X0301953Y0114829D01*
X0157700Y0115827D02*
X0050000Y0115827D01*
X0161700Y0115827D02*
X0295600Y0115827D01*
X0299600Y0115827D02*
X0301952Y0115827D01*
X0157700Y0116826D02*
X0050000Y0116826D01*
X0161700Y0116826D02*
X0295600Y0116826D01*
X0299600Y0116826D02*
X0301951Y0116826D01*
X0157700Y0117824D02*
X0050000Y0117824D01*
X0161700Y0117824D02*
X0295600Y0117824D01*
X0299600Y0117824D02*
X0301950Y0117824D01*
X0157700Y0118823D02*
X0050000Y0118823D01*
X0161700Y0118823D02*
X0295600Y0118823D01*
X0299600Y0118823D02*
X0301949Y0118823D01*
X0157700Y0119821D02*
X0050000Y0119821D01*
X0161700Y0119821D02*
X0295600Y0119821D01*
X0299600Y0119821D02*
X0301947Y0119821D01*
X0157700Y0120820D02*
X0050000Y0120820D01*
X0161700Y0120820D02*
X0295600Y0120820D01*
X0299600Y0120820D02*
X0301946Y0120820D01*
X0157700Y0121818D02*
X0050000Y0121818D01*
X0161700Y0121818D02*
X0295600Y0121818D01*
X0299600Y0121818D02*
X0301945Y0121818D01*
X0157700Y0122817D02*
X0050000Y0122817D01*
X0161700Y0122817D02*
X0295600Y0122817D01*
X0299600Y0122817D02*
X0301944Y0122817D01*
X0157700Y0123815D02*
X0050000Y0123815D01*
X0161700Y0123815D02*
X0295600Y0123815D01*
X0299600Y0123815D02*
X0301943Y0123815D01*
X0157700Y0124814D02*
X0050000Y0124814D01*
X0161700Y0124814D02*
X0295600Y0124814D01*
X0299600Y0124814D02*
X0301942Y0124814D01*
X0157700Y0125812D02*
X0050000Y0125812D01*
X0161700Y0125812D02*
X0295600Y0125812D01*
X0299600Y0125812D02*
X0301941Y0125812D01*
X0157700Y0126811D02*
X0050000Y0126811D01*
X0161700Y0126811D02*
X0295600Y0126811D01*
X0299600Y0126811D02*
X0301940Y0126811D01*
X0157700Y0127809D02*
X0050000Y0127809D01*
X0161700Y0127809D02*
X0295600Y0127809D01*
X0299600Y0127809D02*
X0301939Y0127809D01*
X0157700Y0128808D02*
X0050000Y0128808D01*
X0161700Y0128808D02*
X0295600Y0128808D01*
X0299600Y0128808D02*
X0301938Y0128808D01*
X0157700Y0129806D02*
X0050000Y0129806D01*
X0161700Y0129806D02*
X0161822Y0129806D01*
X0174978Y0129806D02*
X0295600Y0129806D01*
X0299600Y0129806D02*
X0301937Y0129806D01*
X0157700Y0130805D02*
X0050000Y0130805D01*
X0175375Y0130805D02*
X0295600Y0130805D01*
X0299600Y0130805D02*
X0301936Y0130805D01*
X0157700Y0131803D02*
X0050000Y0131803D01*
X0175375Y0131803D02*
X0295600Y0131803D01*
X0299600Y0131803D02*
X0301935Y0131803D01*
X0157700Y0132802D02*
X0050000Y0132802D01*
X0175375Y0132802D02*
X0295600Y0132802D01*
X0299600Y0132802D02*
X0301934Y0132802D01*
X0157700Y0133801D02*
X0050000Y0133801D01*
X0175375Y0133801D02*
X0295600Y0133801D01*
X0299600Y0133801D02*
X0301933Y0133801D01*
X0157700Y0134799D02*
X0050000Y0134799D01*
X0175375Y0134799D02*
X0295600Y0134799D01*
X0299600Y0134799D02*
X0301932Y0134799D01*
X0157700Y0135798D02*
X0050000Y0135798D01*
X0175375Y0135798D02*
X0295600Y0135798D01*
X0299600Y0135798D02*
X0301931Y0135798D01*
X0157700Y0136796D02*
X0050000Y0136796D01*
X0175375Y0136796D02*
X0295600Y0136796D01*
X0299600Y0136796D02*
X0301930Y0136796D01*
X0157700Y0137795D02*
X0050000Y0137795D01*
X0175375Y0137795D02*
X0295600Y0137795D01*
X0299600Y0137795D02*
X0301929Y0137795D01*
X0157700Y0138793D02*
X0050000Y0138793D01*
X0175375Y0138793D02*
X0295600Y0138793D01*
X0299600Y0138793D02*
X0301928Y0138793D01*
X0157700Y0139792D02*
X0050000Y0139792D01*
X0175375Y0139792D02*
X0295600Y0139792D01*
X0299600Y0139792D02*
X0301927Y0139792D01*
X0157700Y0140790D02*
X0050000Y0140790D01*
X0175375Y0140790D02*
X0295600Y0140790D01*
X0299600Y0140790D02*
X0301926Y0140790D01*
X0157700Y0141789D02*
X0050000Y0141789D01*
X0175375Y0141789D02*
X0295600Y0141789D01*
X0299600Y0141789D02*
X0301925Y0141789D01*
X0157700Y0142787D02*
X0050000Y0142787D01*
X0161700Y0142787D02*
X0161816Y0142787D01*
X0174984Y0142787D02*
X0295600Y0142787D01*
X0299600Y0142787D02*
X0301924Y0142787D01*
X0157700Y0143786D02*
X0050000Y0143786D01*
X0161700Y0143786D02*
X0295600Y0143786D01*
X0299600Y0143786D02*
X0301923Y0143786D01*
X0157700Y0144784D02*
X0050000Y0144784D01*
X0161700Y0144784D02*
X0295600Y0144784D01*
X0299600Y0144784D02*
X0301921Y0144784D01*
X0157700Y0145783D02*
X0050000Y0145783D01*
X0161700Y0145783D02*
X0295600Y0145783D01*
X0299600Y0145783D02*
X0301920Y0145783D01*
X0157700Y0146781D02*
X0050000Y0146781D01*
X0161700Y0146781D02*
X0295600Y0146781D01*
X0299600Y0146781D02*
X0301919Y0146781D01*
X0157700Y0147780D02*
X0050000Y0147780D01*
X0161700Y0147780D02*
X0295600Y0147780D01*
X0299600Y0147780D02*
X0301918Y0147780D01*
X0157700Y0148778D02*
X0050000Y0148778D01*
X0161700Y0148778D02*
X0295600Y0148778D01*
X0299600Y0148778D02*
X0301917Y0148778D01*
X0157700Y0149777D02*
X0050000Y0149777D01*
X0161700Y0149777D02*
X0295600Y0149777D01*
X0299600Y0149777D02*
X0301916Y0149777D01*
X0157700Y0150775D02*
X0050000Y0150775D01*
X0161700Y0150775D02*
X0295600Y0150775D01*
X0299600Y0150775D02*
X0301915Y0150775D01*
X0157700Y0151774D02*
X0050000Y0151774D01*
X0161700Y0151774D02*
X0295600Y0151774D01*
X0299600Y0151774D02*
X0301914Y0151774D01*
X0157700Y0152772D02*
X0050000Y0152772D01*
X0161700Y0152772D02*
X0295600Y0152772D01*
X0299600Y0152772D02*
X0301913Y0152772D01*
X0157700Y0153771D02*
X0050000Y0153771D01*
X0161700Y0153771D02*
X0295600Y0153771D01*
X0299600Y0153771D02*
X0301912Y0153771D01*
X0078230Y0154769D02*
X0050000Y0154769D01*
X0128111Y0154769D02*
X0157700Y0154769D01*
X0161700Y0154769D02*
X0295600Y0154769D01*
X0299600Y0154769D02*
X0301911Y0154769D01*
X0077354Y0155768D02*
X0050000Y0155768D01*
X0128728Y0155768D02*
X0157700Y0155768D01*
X0161700Y0155768D02*
X0295600Y0155768D01*
X0299600Y0155768D02*
X0301910Y0155768D01*
X0077000Y0156766D02*
X0050000Y0156766D01*
X0128900Y0156766D02*
X0157700Y0156766D01*
X0161700Y0156766D02*
X0295600Y0156766D01*
X0299600Y0156766D02*
X0301909Y0156766D01*
X0077000Y0157765D02*
X0050000Y0157765D01*
X0128722Y0157765D02*
X0157700Y0157765D01*
X0161700Y0157765D02*
X0295600Y0157765D01*
X0299600Y0157765D02*
X0301908Y0157765D01*
X0077409Y0158763D02*
X0050000Y0158763D01*
X0082391Y0158763D02*
X0100403Y0158763D01*
X0104597Y0158763D02*
X0123903Y0158763D01*
X0128097Y0158763D02*
X0157700Y0158763D01*
X0161700Y0158763D02*
X0295600Y0158763D01*
X0299600Y0158763D02*
X0301907Y0158763D01*
X0078507Y0159762D02*
X0050000Y0159762D01*
X0081293Y0159762D02*
X0157700Y0159762D01*
X0299600Y0159762D02*
X0301906Y0159762D01*
X0078095Y0160760D02*
X0050000Y0160760D01*
X0080505Y0160760D02*
X0094595Y0160760D01*
X0097005Y0160760D02*
X0113353Y0160760D01*
X0116247Y0160760D02*
X0157700Y0160760D01*
X0299600Y0160760D02*
X0301905Y0160760D01*
X0076841Y0161759D02*
X0050000Y0161759D01*
X0117301Y0161759D02*
X0157830Y0161759D01*
X0299470Y0161759D02*
X0301904Y0161759D01*
X0076427Y0162757D02*
X0050000Y0162757D01*
X0117700Y0162757D02*
X0158829Y0162757D01*
X0298471Y0162757D02*
X0299302Y0162757D01*
X0301698Y0162757D02*
X0301903Y0162757D01*
X0076400Y0163756D02*
X0050000Y0163756D01*
X0117700Y0163756D02*
X0298043Y0163756D01*
X0076722Y0164754D02*
X0050000Y0164754D01*
X0117337Y0164754D02*
X0297628Y0164754D01*
X0077552Y0165753D02*
X0050000Y0165753D01*
X0081048Y0165753D02*
X0094052Y0165753D01*
X0097548Y0165753D02*
X0113152Y0165753D01*
X0116448Y0165753D02*
X0297600Y0165753D01*
X0297921Y0166751D02*
X0050000Y0166751D01*
X0050000Y0167750D02*
X0298749Y0167750D01*
X0302251Y0167750D02*
X0304709Y0167750D01*
X0303963Y0168748D02*
X0050000Y0168748D01*
X0050000Y0169747D02*
X0157809Y0169747D01*
X0084300Y0056300D02*
X0084300Y0047900D01*
X0099200Y0098100D02*
X0112900Y0098100D01*
X0123900Y0099800D02*
X0136300Y0099800D01*
X0079900Y0157200D02*
X0079900Y0156759D01*
X0102500Y0156759D01*
X0126000Y0156759D01*
X0095800Y0163400D02*
X0095800Y0163300D01*
X0114800Y0163300D01*
X0095800Y0163400D02*
X0079300Y0163400D01*
X0190100Y0101000D02*
X0190100Y0094600D01*
X0289227Y0034449D02*
X0297600Y0034449D01*
X0297600Y0160800D01*
X0159700Y0160800D01*
X0159700Y0113600D01*
X0168400Y0113600D01*
X0168400Y0086300D01*
D20*
X0288300Y0017600D02*
X0288300Y0005300D01*
X0079000Y0005300D01*
X0079000Y0019700D01*
X0079100Y0019700D01*
X0304300Y0069400D02*
X0304200Y0165400D01*
X0300500Y0165400D01*
M02*
