G75*
%MOIN*%
%OFA0B0*%
%FSLAX25Y25*%
%IPPOS*%
%LPD*%
%AMOC8*
5,1,8,0,0,1.08239X$1,22.5*
%
%ADD10C,0.00000*%
D10*
X0013701Y0020000D02*
X0013703Y0020158D01*
X0013709Y0020316D01*
X0013719Y0020474D01*
X0013733Y0020632D01*
X0013751Y0020789D01*
X0013772Y0020946D01*
X0013798Y0021102D01*
X0013828Y0021258D01*
X0013861Y0021413D01*
X0013899Y0021566D01*
X0013940Y0021719D01*
X0013985Y0021871D01*
X0014034Y0022022D01*
X0014087Y0022171D01*
X0014143Y0022319D01*
X0014203Y0022465D01*
X0014267Y0022610D01*
X0014335Y0022753D01*
X0014406Y0022895D01*
X0014480Y0023035D01*
X0014558Y0023172D01*
X0014640Y0023308D01*
X0014724Y0023442D01*
X0014813Y0023573D01*
X0014904Y0023702D01*
X0014999Y0023829D01*
X0015096Y0023954D01*
X0015197Y0024076D01*
X0015301Y0024195D01*
X0015408Y0024312D01*
X0015518Y0024426D01*
X0015631Y0024537D01*
X0015746Y0024646D01*
X0015864Y0024751D01*
X0015985Y0024853D01*
X0016108Y0024953D01*
X0016234Y0025049D01*
X0016362Y0025142D01*
X0016492Y0025232D01*
X0016625Y0025318D01*
X0016760Y0025402D01*
X0016896Y0025481D01*
X0017035Y0025558D01*
X0017176Y0025630D01*
X0017318Y0025700D01*
X0017462Y0025765D01*
X0017608Y0025827D01*
X0017755Y0025885D01*
X0017904Y0025940D01*
X0018054Y0025991D01*
X0018205Y0026038D01*
X0018357Y0026081D01*
X0018510Y0026120D01*
X0018665Y0026156D01*
X0018820Y0026187D01*
X0018976Y0026215D01*
X0019132Y0026239D01*
X0019289Y0026259D01*
X0019447Y0026275D01*
X0019604Y0026287D01*
X0019763Y0026295D01*
X0019921Y0026299D01*
X0020079Y0026299D01*
X0020237Y0026295D01*
X0020396Y0026287D01*
X0020553Y0026275D01*
X0020711Y0026259D01*
X0020868Y0026239D01*
X0021024Y0026215D01*
X0021180Y0026187D01*
X0021335Y0026156D01*
X0021490Y0026120D01*
X0021643Y0026081D01*
X0021795Y0026038D01*
X0021946Y0025991D01*
X0022096Y0025940D01*
X0022245Y0025885D01*
X0022392Y0025827D01*
X0022538Y0025765D01*
X0022682Y0025700D01*
X0022824Y0025630D01*
X0022965Y0025558D01*
X0023104Y0025481D01*
X0023240Y0025402D01*
X0023375Y0025318D01*
X0023508Y0025232D01*
X0023638Y0025142D01*
X0023766Y0025049D01*
X0023892Y0024953D01*
X0024015Y0024853D01*
X0024136Y0024751D01*
X0024254Y0024646D01*
X0024369Y0024537D01*
X0024482Y0024426D01*
X0024592Y0024312D01*
X0024699Y0024195D01*
X0024803Y0024076D01*
X0024904Y0023954D01*
X0025001Y0023829D01*
X0025096Y0023702D01*
X0025187Y0023573D01*
X0025276Y0023442D01*
X0025360Y0023308D01*
X0025442Y0023172D01*
X0025520Y0023035D01*
X0025594Y0022895D01*
X0025665Y0022753D01*
X0025733Y0022610D01*
X0025797Y0022465D01*
X0025857Y0022319D01*
X0025913Y0022171D01*
X0025966Y0022022D01*
X0026015Y0021871D01*
X0026060Y0021719D01*
X0026101Y0021566D01*
X0026139Y0021413D01*
X0026172Y0021258D01*
X0026202Y0021102D01*
X0026228Y0020946D01*
X0026249Y0020789D01*
X0026267Y0020632D01*
X0026281Y0020474D01*
X0026291Y0020316D01*
X0026297Y0020158D01*
X0026299Y0020000D01*
X0026297Y0019842D01*
X0026291Y0019684D01*
X0026281Y0019526D01*
X0026267Y0019368D01*
X0026249Y0019211D01*
X0026228Y0019054D01*
X0026202Y0018898D01*
X0026172Y0018742D01*
X0026139Y0018587D01*
X0026101Y0018434D01*
X0026060Y0018281D01*
X0026015Y0018129D01*
X0025966Y0017978D01*
X0025913Y0017829D01*
X0025857Y0017681D01*
X0025797Y0017535D01*
X0025733Y0017390D01*
X0025665Y0017247D01*
X0025594Y0017105D01*
X0025520Y0016965D01*
X0025442Y0016828D01*
X0025360Y0016692D01*
X0025276Y0016558D01*
X0025187Y0016427D01*
X0025096Y0016298D01*
X0025001Y0016171D01*
X0024904Y0016046D01*
X0024803Y0015924D01*
X0024699Y0015805D01*
X0024592Y0015688D01*
X0024482Y0015574D01*
X0024369Y0015463D01*
X0024254Y0015354D01*
X0024136Y0015249D01*
X0024015Y0015147D01*
X0023892Y0015047D01*
X0023766Y0014951D01*
X0023638Y0014858D01*
X0023508Y0014768D01*
X0023375Y0014682D01*
X0023240Y0014598D01*
X0023104Y0014519D01*
X0022965Y0014442D01*
X0022824Y0014370D01*
X0022682Y0014300D01*
X0022538Y0014235D01*
X0022392Y0014173D01*
X0022245Y0014115D01*
X0022096Y0014060D01*
X0021946Y0014009D01*
X0021795Y0013962D01*
X0021643Y0013919D01*
X0021490Y0013880D01*
X0021335Y0013844D01*
X0021180Y0013813D01*
X0021024Y0013785D01*
X0020868Y0013761D01*
X0020711Y0013741D01*
X0020553Y0013725D01*
X0020396Y0013713D01*
X0020237Y0013705D01*
X0020079Y0013701D01*
X0019921Y0013701D01*
X0019763Y0013705D01*
X0019604Y0013713D01*
X0019447Y0013725D01*
X0019289Y0013741D01*
X0019132Y0013761D01*
X0018976Y0013785D01*
X0018820Y0013813D01*
X0018665Y0013844D01*
X0018510Y0013880D01*
X0018357Y0013919D01*
X0018205Y0013962D01*
X0018054Y0014009D01*
X0017904Y0014060D01*
X0017755Y0014115D01*
X0017608Y0014173D01*
X0017462Y0014235D01*
X0017318Y0014300D01*
X0017176Y0014370D01*
X0017035Y0014442D01*
X0016896Y0014519D01*
X0016760Y0014598D01*
X0016625Y0014682D01*
X0016492Y0014768D01*
X0016362Y0014858D01*
X0016234Y0014951D01*
X0016108Y0015047D01*
X0015985Y0015147D01*
X0015864Y0015249D01*
X0015746Y0015354D01*
X0015631Y0015463D01*
X0015518Y0015574D01*
X0015408Y0015688D01*
X0015301Y0015805D01*
X0015197Y0015924D01*
X0015096Y0016046D01*
X0014999Y0016171D01*
X0014904Y0016298D01*
X0014813Y0016427D01*
X0014724Y0016558D01*
X0014640Y0016692D01*
X0014558Y0016828D01*
X0014480Y0016965D01*
X0014406Y0017105D01*
X0014335Y0017247D01*
X0014267Y0017390D01*
X0014203Y0017535D01*
X0014143Y0017681D01*
X0014087Y0017829D01*
X0014034Y0017978D01*
X0013985Y0018129D01*
X0013940Y0018281D01*
X0013899Y0018434D01*
X0013861Y0018587D01*
X0013828Y0018742D01*
X0013798Y0018898D01*
X0013772Y0019054D01*
X0013751Y0019211D01*
X0013733Y0019368D01*
X0013719Y0019526D01*
X0013709Y0019684D01*
X0013703Y0019842D01*
X0013701Y0020000D01*
X0013701Y0155000D02*
X0013703Y0155158D01*
X0013709Y0155316D01*
X0013719Y0155474D01*
X0013733Y0155632D01*
X0013751Y0155789D01*
X0013772Y0155946D01*
X0013798Y0156102D01*
X0013828Y0156258D01*
X0013861Y0156413D01*
X0013899Y0156566D01*
X0013940Y0156719D01*
X0013985Y0156871D01*
X0014034Y0157022D01*
X0014087Y0157171D01*
X0014143Y0157319D01*
X0014203Y0157465D01*
X0014267Y0157610D01*
X0014335Y0157753D01*
X0014406Y0157895D01*
X0014480Y0158035D01*
X0014558Y0158172D01*
X0014640Y0158308D01*
X0014724Y0158442D01*
X0014813Y0158573D01*
X0014904Y0158702D01*
X0014999Y0158829D01*
X0015096Y0158954D01*
X0015197Y0159076D01*
X0015301Y0159195D01*
X0015408Y0159312D01*
X0015518Y0159426D01*
X0015631Y0159537D01*
X0015746Y0159646D01*
X0015864Y0159751D01*
X0015985Y0159853D01*
X0016108Y0159953D01*
X0016234Y0160049D01*
X0016362Y0160142D01*
X0016492Y0160232D01*
X0016625Y0160318D01*
X0016760Y0160402D01*
X0016896Y0160481D01*
X0017035Y0160558D01*
X0017176Y0160630D01*
X0017318Y0160700D01*
X0017462Y0160765D01*
X0017608Y0160827D01*
X0017755Y0160885D01*
X0017904Y0160940D01*
X0018054Y0160991D01*
X0018205Y0161038D01*
X0018357Y0161081D01*
X0018510Y0161120D01*
X0018665Y0161156D01*
X0018820Y0161187D01*
X0018976Y0161215D01*
X0019132Y0161239D01*
X0019289Y0161259D01*
X0019447Y0161275D01*
X0019604Y0161287D01*
X0019763Y0161295D01*
X0019921Y0161299D01*
X0020079Y0161299D01*
X0020237Y0161295D01*
X0020396Y0161287D01*
X0020553Y0161275D01*
X0020711Y0161259D01*
X0020868Y0161239D01*
X0021024Y0161215D01*
X0021180Y0161187D01*
X0021335Y0161156D01*
X0021490Y0161120D01*
X0021643Y0161081D01*
X0021795Y0161038D01*
X0021946Y0160991D01*
X0022096Y0160940D01*
X0022245Y0160885D01*
X0022392Y0160827D01*
X0022538Y0160765D01*
X0022682Y0160700D01*
X0022824Y0160630D01*
X0022965Y0160558D01*
X0023104Y0160481D01*
X0023240Y0160402D01*
X0023375Y0160318D01*
X0023508Y0160232D01*
X0023638Y0160142D01*
X0023766Y0160049D01*
X0023892Y0159953D01*
X0024015Y0159853D01*
X0024136Y0159751D01*
X0024254Y0159646D01*
X0024369Y0159537D01*
X0024482Y0159426D01*
X0024592Y0159312D01*
X0024699Y0159195D01*
X0024803Y0159076D01*
X0024904Y0158954D01*
X0025001Y0158829D01*
X0025096Y0158702D01*
X0025187Y0158573D01*
X0025276Y0158442D01*
X0025360Y0158308D01*
X0025442Y0158172D01*
X0025520Y0158035D01*
X0025594Y0157895D01*
X0025665Y0157753D01*
X0025733Y0157610D01*
X0025797Y0157465D01*
X0025857Y0157319D01*
X0025913Y0157171D01*
X0025966Y0157022D01*
X0026015Y0156871D01*
X0026060Y0156719D01*
X0026101Y0156566D01*
X0026139Y0156413D01*
X0026172Y0156258D01*
X0026202Y0156102D01*
X0026228Y0155946D01*
X0026249Y0155789D01*
X0026267Y0155632D01*
X0026281Y0155474D01*
X0026291Y0155316D01*
X0026297Y0155158D01*
X0026299Y0155000D01*
X0026297Y0154842D01*
X0026291Y0154684D01*
X0026281Y0154526D01*
X0026267Y0154368D01*
X0026249Y0154211D01*
X0026228Y0154054D01*
X0026202Y0153898D01*
X0026172Y0153742D01*
X0026139Y0153587D01*
X0026101Y0153434D01*
X0026060Y0153281D01*
X0026015Y0153129D01*
X0025966Y0152978D01*
X0025913Y0152829D01*
X0025857Y0152681D01*
X0025797Y0152535D01*
X0025733Y0152390D01*
X0025665Y0152247D01*
X0025594Y0152105D01*
X0025520Y0151965D01*
X0025442Y0151828D01*
X0025360Y0151692D01*
X0025276Y0151558D01*
X0025187Y0151427D01*
X0025096Y0151298D01*
X0025001Y0151171D01*
X0024904Y0151046D01*
X0024803Y0150924D01*
X0024699Y0150805D01*
X0024592Y0150688D01*
X0024482Y0150574D01*
X0024369Y0150463D01*
X0024254Y0150354D01*
X0024136Y0150249D01*
X0024015Y0150147D01*
X0023892Y0150047D01*
X0023766Y0149951D01*
X0023638Y0149858D01*
X0023508Y0149768D01*
X0023375Y0149682D01*
X0023240Y0149598D01*
X0023104Y0149519D01*
X0022965Y0149442D01*
X0022824Y0149370D01*
X0022682Y0149300D01*
X0022538Y0149235D01*
X0022392Y0149173D01*
X0022245Y0149115D01*
X0022096Y0149060D01*
X0021946Y0149009D01*
X0021795Y0148962D01*
X0021643Y0148919D01*
X0021490Y0148880D01*
X0021335Y0148844D01*
X0021180Y0148813D01*
X0021024Y0148785D01*
X0020868Y0148761D01*
X0020711Y0148741D01*
X0020553Y0148725D01*
X0020396Y0148713D01*
X0020237Y0148705D01*
X0020079Y0148701D01*
X0019921Y0148701D01*
X0019763Y0148705D01*
X0019604Y0148713D01*
X0019447Y0148725D01*
X0019289Y0148741D01*
X0019132Y0148761D01*
X0018976Y0148785D01*
X0018820Y0148813D01*
X0018665Y0148844D01*
X0018510Y0148880D01*
X0018357Y0148919D01*
X0018205Y0148962D01*
X0018054Y0149009D01*
X0017904Y0149060D01*
X0017755Y0149115D01*
X0017608Y0149173D01*
X0017462Y0149235D01*
X0017318Y0149300D01*
X0017176Y0149370D01*
X0017035Y0149442D01*
X0016896Y0149519D01*
X0016760Y0149598D01*
X0016625Y0149682D01*
X0016492Y0149768D01*
X0016362Y0149858D01*
X0016234Y0149951D01*
X0016108Y0150047D01*
X0015985Y0150147D01*
X0015864Y0150249D01*
X0015746Y0150354D01*
X0015631Y0150463D01*
X0015518Y0150574D01*
X0015408Y0150688D01*
X0015301Y0150805D01*
X0015197Y0150924D01*
X0015096Y0151046D01*
X0014999Y0151171D01*
X0014904Y0151298D01*
X0014813Y0151427D01*
X0014724Y0151558D01*
X0014640Y0151692D01*
X0014558Y0151828D01*
X0014480Y0151965D01*
X0014406Y0152105D01*
X0014335Y0152247D01*
X0014267Y0152390D01*
X0014203Y0152535D01*
X0014143Y0152681D01*
X0014087Y0152829D01*
X0014034Y0152978D01*
X0013985Y0153129D01*
X0013940Y0153281D01*
X0013899Y0153434D01*
X0013861Y0153587D01*
X0013828Y0153742D01*
X0013798Y0153898D01*
X0013772Y0154054D01*
X0013751Y0154211D01*
X0013733Y0154368D01*
X0013719Y0154526D01*
X0013709Y0154684D01*
X0013703Y0154842D01*
X0013701Y0155000D01*
X0010000Y0000000D02*
X0300000Y0000000D01*
X0300242Y0000003D01*
X0300483Y0000012D01*
X0300724Y0000026D01*
X0300965Y0000047D01*
X0301205Y0000073D01*
X0301445Y0000105D01*
X0301684Y0000143D01*
X0301921Y0000186D01*
X0302158Y0000236D01*
X0302393Y0000291D01*
X0302627Y0000351D01*
X0302859Y0000418D01*
X0303090Y0000489D01*
X0303319Y0000567D01*
X0303546Y0000650D01*
X0303771Y0000738D01*
X0303994Y0000832D01*
X0304214Y0000931D01*
X0304432Y0001036D01*
X0304647Y0001145D01*
X0304860Y0001260D01*
X0305070Y0001380D01*
X0305276Y0001505D01*
X0305480Y0001635D01*
X0305681Y0001770D01*
X0305878Y0001910D01*
X0306072Y0002054D01*
X0306262Y0002203D01*
X0306448Y0002357D01*
X0306631Y0002515D01*
X0306810Y0002677D01*
X0306985Y0002844D01*
X0307156Y0003015D01*
X0307323Y0003190D01*
X0307485Y0003369D01*
X0307643Y0003552D01*
X0307797Y0003738D01*
X0307946Y0003928D01*
X0308090Y0004122D01*
X0308230Y0004319D01*
X0308365Y0004520D01*
X0308495Y0004724D01*
X0308620Y0004930D01*
X0308740Y0005140D01*
X0308855Y0005353D01*
X0308964Y0005568D01*
X0309069Y0005786D01*
X0309168Y0006006D01*
X0309262Y0006229D01*
X0309350Y0006454D01*
X0309433Y0006681D01*
X0309511Y0006910D01*
X0309582Y0007141D01*
X0309649Y0007373D01*
X0309709Y0007607D01*
X0309764Y0007842D01*
X0309814Y0008079D01*
X0309857Y0008316D01*
X0309895Y0008555D01*
X0309927Y0008795D01*
X0309953Y0009035D01*
X0309974Y0009276D01*
X0309988Y0009517D01*
X0309997Y0009758D01*
X0310000Y0010000D01*
X0310000Y0165000D01*
X0309997Y0165242D01*
X0309988Y0165483D01*
X0309974Y0165724D01*
X0309953Y0165965D01*
X0309927Y0166205D01*
X0309895Y0166445D01*
X0309857Y0166684D01*
X0309814Y0166921D01*
X0309764Y0167158D01*
X0309709Y0167393D01*
X0309649Y0167627D01*
X0309582Y0167859D01*
X0309511Y0168090D01*
X0309433Y0168319D01*
X0309350Y0168546D01*
X0309262Y0168771D01*
X0309168Y0168994D01*
X0309069Y0169214D01*
X0308964Y0169432D01*
X0308855Y0169647D01*
X0308740Y0169860D01*
X0308620Y0170070D01*
X0308495Y0170276D01*
X0308365Y0170480D01*
X0308230Y0170681D01*
X0308090Y0170878D01*
X0307946Y0171072D01*
X0307797Y0171262D01*
X0307643Y0171448D01*
X0307485Y0171631D01*
X0307323Y0171810D01*
X0307156Y0171985D01*
X0306985Y0172156D01*
X0306810Y0172323D01*
X0306631Y0172485D01*
X0306448Y0172643D01*
X0306262Y0172797D01*
X0306072Y0172946D01*
X0305878Y0173090D01*
X0305681Y0173230D01*
X0305480Y0173365D01*
X0305276Y0173495D01*
X0305070Y0173620D01*
X0304860Y0173740D01*
X0304647Y0173855D01*
X0304432Y0173964D01*
X0304214Y0174069D01*
X0303994Y0174168D01*
X0303771Y0174262D01*
X0303546Y0174350D01*
X0303319Y0174433D01*
X0303090Y0174511D01*
X0302859Y0174582D01*
X0302627Y0174649D01*
X0302393Y0174709D01*
X0302158Y0174764D01*
X0301921Y0174814D01*
X0301684Y0174857D01*
X0301445Y0174895D01*
X0301205Y0174927D01*
X0300965Y0174953D01*
X0300724Y0174974D01*
X0300483Y0174988D01*
X0300242Y0174997D01*
X0300000Y0175000D01*
X0010000Y0175000D01*
X0009758Y0174997D01*
X0009517Y0174988D01*
X0009276Y0174974D01*
X0009035Y0174953D01*
X0008795Y0174927D01*
X0008555Y0174895D01*
X0008316Y0174857D01*
X0008079Y0174814D01*
X0007842Y0174764D01*
X0007607Y0174709D01*
X0007373Y0174649D01*
X0007141Y0174582D01*
X0006910Y0174511D01*
X0006681Y0174433D01*
X0006454Y0174350D01*
X0006229Y0174262D01*
X0006006Y0174168D01*
X0005786Y0174069D01*
X0005568Y0173964D01*
X0005353Y0173855D01*
X0005140Y0173740D01*
X0004930Y0173620D01*
X0004724Y0173495D01*
X0004520Y0173365D01*
X0004319Y0173230D01*
X0004122Y0173090D01*
X0003928Y0172946D01*
X0003738Y0172797D01*
X0003552Y0172643D01*
X0003369Y0172485D01*
X0003190Y0172323D01*
X0003015Y0172156D01*
X0002844Y0171985D01*
X0002677Y0171810D01*
X0002515Y0171631D01*
X0002357Y0171448D01*
X0002203Y0171262D01*
X0002054Y0171072D01*
X0001910Y0170878D01*
X0001770Y0170681D01*
X0001635Y0170480D01*
X0001505Y0170276D01*
X0001380Y0170070D01*
X0001260Y0169860D01*
X0001145Y0169647D01*
X0001036Y0169432D01*
X0000931Y0169214D01*
X0000832Y0168994D01*
X0000738Y0168771D01*
X0000650Y0168546D01*
X0000567Y0168319D01*
X0000489Y0168090D01*
X0000418Y0167859D01*
X0000351Y0167627D01*
X0000291Y0167393D01*
X0000236Y0167158D01*
X0000186Y0166921D01*
X0000143Y0166684D01*
X0000105Y0166445D01*
X0000073Y0166205D01*
X0000047Y0165965D01*
X0000026Y0165724D01*
X0000012Y0165483D01*
X0000003Y0165242D01*
X0000000Y0165000D01*
X0000000Y0010000D01*
X0000003Y0009758D01*
X0000012Y0009517D01*
X0000026Y0009276D01*
X0000047Y0009035D01*
X0000073Y0008795D01*
X0000105Y0008555D01*
X0000143Y0008316D01*
X0000186Y0008079D01*
X0000236Y0007842D01*
X0000291Y0007607D01*
X0000351Y0007373D01*
X0000418Y0007141D01*
X0000489Y0006910D01*
X0000567Y0006681D01*
X0000650Y0006454D01*
X0000738Y0006229D01*
X0000832Y0006006D01*
X0000931Y0005786D01*
X0001036Y0005568D01*
X0001145Y0005353D01*
X0001260Y0005140D01*
X0001380Y0004930D01*
X0001505Y0004724D01*
X0001635Y0004520D01*
X0001770Y0004319D01*
X0001910Y0004122D01*
X0002054Y0003928D01*
X0002203Y0003738D01*
X0002357Y0003552D01*
X0002515Y0003369D01*
X0002677Y0003190D01*
X0002844Y0003015D01*
X0003015Y0002844D01*
X0003190Y0002677D01*
X0003369Y0002515D01*
X0003552Y0002357D01*
X0003738Y0002203D01*
X0003928Y0002054D01*
X0004122Y0001910D01*
X0004319Y0001770D01*
X0004520Y0001635D01*
X0004724Y0001505D01*
X0004930Y0001380D01*
X0005140Y0001260D01*
X0005353Y0001145D01*
X0005568Y0001036D01*
X0005786Y0000931D01*
X0006006Y0000832D01*
X0006229Y0000738D01*
X0006454Y0000650D01*
X0006681Y0000567D01*
X0006910Y0000489D01*
X0007141Y0000418D01*
X0007373Y0000351D01*
X0007607Y0000291D01*
X0007842Y0000236D01*
X0008079Y0000186D01*
X0008316Y0000143D01*
X0008555Y0000105D01*
X0008795Y0000073D01*
X0009035Y0000047D01*
X0009276Y0000026D01*
X0009517Y0000012D01*
X0009758Y0000003D01*
X0010000Y0000000D01*
M02*
