G75*
%MOIN*%
%OFA0B0*%
%FSLAX25Y25*%
%IPPOS*%
%LPD*%
%AMOC8*
5,1,8,0,0,1.08239X$1,22.5*
%
%ADD10R,0.02559X0.03150*%
%ADD11R,0.05906X0.01181*%
%ADD12R,0.01181X0.05906*%
%ADD13R,0.02756X0.00787*%
%ADD14R,0.00787X0.02756*%
%ADD15R,0.06496X0.06496*%
%ADD16R,0.08661X0.09843*%
%ADD17R,0.07874X0.01969*%
%ADD18R,0.03937X0.07874*%
%ADD19R,0.01772X0.01772*%
%ADD20R,0.10950X0.10950*%
%ADD21C,0.06000*%
%ADD22R,0.05118X0.05906*%
%ADD23R,0.02756X0.03543*%
%ADD24R,0.03543X0.02756*%
%ADD25R,0.05906X0.05118*%
%ADD26R,0.04724X0.02559*%
%ADD27R,0.19000X0.20000*%
%ADD28R,0.01400X0.03000*%
%ADD29R,0.09055X0.06299*%
%ADD30R,0.08661X0.05118*%
%ADD31R,0.05000X0.02500*%
%ADD32R,0.07098X0.06299*%
%ADD33C,0.00700*%
%ADD34C,0.02800*%
%ADD35C,0.00800*%
%ADD36C,0.01000*%
%ADD37C,0.03962*%
%ADD38C,0.03569*%
%ADD39C,0.01600*%
D10*
X0119213Y0126339D03*
X0114213Y0126339D03*
X0109213Y0126339D03*
X0104213Y0126339D03*
X0099213Y0126339D03*
X0094213Y0126339D03*
X0089213Y0126339D03*
X0084213Y0126339D03*
X0079213Y0126339D03*
X0074213Y0126339D03*
X0069213Y0126339D03*
X0064213Y0126339D03*
X0059213Y0126339D03*
X0054213Y0126339D03*
X0049213Y0126339D03*
X0044213Y0126339D03*
X0039213Y0126339D03*
X0034213Y0126339D03*
X0034213Y0043661D03*
X0039213Y0043661D03*
X0044213Y0043661D03*
X0049213Y0043661D03*
X0054213Y0043661D03*
X0059213Y0043661D03*
X0064213Y0043661D03*
X0069213Y0043661D03*
X0074213Y0043661D03*
X0079213Y0043661D03*
X0084213Y0043661D03*
X0089213Y0043661D03*
X0094213Y0043661D03*
X0099213Y0043661D03*
X0104213Y0043661D03*
X0109213Y0043661D03*
X0114213Y0043661D03*
X0119213Y0043661D03*
D11*
X0168462Y0109764D03*
X0168462Y0107795D03*
X0168462Y0105827D03*
X0168462Y0103858D03*
X0168462Y0101890D03*
X0168462Y0099921D03*
X0168462Y0097953D03*
X0168462Y0095984D03*
X0168462Y0094016D03*
X0168462Y0092047D03*
X0168462Y0090079D03*
X0168462Y0088110D03*
X0168462Y0086142D03*
X0168462Y0084173D03*
X0168462Y0082205D03*
X0168462Y0080236D03*
X0213738Y0080236D03*
X0213738Y0082205D03*
X0213738Y0084173D03*
X0213738Y0086142D03*
X0213738Y0088110D03*
X0213738Y0090079D03*
X0213738Y0092047D03*
X0213738Y0094016D03*
X0213738Y0095984D03*
X0213738Y0097953D03*
X0213738Y0099921D03*
X0213738Y0101890D03*
X0213738Y0103858D03*
X0213738Y0105827D03*
X0213738Y0107795D03*
X0213738Y0109764D03*
D12*
X0176336Y0072362D03*
X0178305Y0072362D03*
X0180273Y0072362D03*
X0182242Y0072362D03*
X0184210Y0072362D03*
X0186179Y0072362D03*
X0188147Y0072362D03*
X0190116Y0072362D03*
X0192084Y0072362D03*
X0194053Y0072362D03*
X0196021Y0072362D03*
X0197990Y0072362D03*
X0199958Y0072362D03*
X0201927Y0072362D03*
X0203895Y0072362D03*
X0205864Y0072362D03*
X0205864Y0117638D03*
X0203895Y0117638D03*
X0201927Y0117638D03*
X0199958Y0117638D03*
X0197990Y0117638D03*
X0196021Y0117638D03*
X0194053Y0117638D03*
X0192084Y0117638D03*
X0190116Y0117638D03*
X0188147Y0117638D03*
X0186179Y0117638D03*
X0184210Y0117638D03*
X0182242Y0117638D03*
X0180273Y0117638D03*
X0178305Y0117638D03*
X0176336Y0117638D03*
D13*
X0265988Y0045650D03*
X0265988Y0044075D03*
X0265988Y0042500D03*
X0265988Y0040925D03*
X0265988Y0039350D03*
X0277012Y0039350D03*
X0277012Y0040925D03*
X0277012Y0042500D03*
X0277012Y0044075D03*
X0277012Y0045650D03*
D14*
X0268350Y0036988D03*
X0269925Y0036988D03*
X0271500Y0036988D03*
X0273075Y0036988D03*
X0274650Y0036988D03*
X0274650Y0048012D03*
X0273075Y0048012D03*
X0271500Y0048012D03*
X0269925Y0048012D03*
X0268350Y0048012D03*
D15*
X0271500Y0042500D03*
D16*
X0277326Y0080165D03*
X0277326Y0113235D03*
X0298192Y0080165D03*
X0298192Y0113235D03*
D17*
X0276342Y0090401D03*
X0276342Y0093550D03*
X0276342Y0096700D03*
X0276342Y0099850D03*
X0276342Y0102999D03*
D18*
X0268588Y0137589D03*
X0284612Y0137589D03*
X0268588Y0161211D03*
X0284612Y0161211D03*
X0228688Y0137089D03*
X0244712Y0137089D03*
X0228688Y0160711D03*
X0244712Y0160711D03*
D19*
X0071473Y0141127D03*
X0068127Y0141127D03*
X0068127Y0144473D03*
X0071473Y0144473D03*
X0094873Y0141327D03*
X0091527Y0141327D03*
X0091527Y0144673D03*
X0094873Y0144673D03*
X0118073Y0140427D03*
X0114727Y0140427D03*
X0114727Y0143773D03*
X0118073Y0143773D03*
D20*
X0168400Y0036300D03*
X0168400Y0136300D03*
D21*
X0155300Y0019500D03*
X0165300Y0018500D03*
X0175300Y0019500D03*
X0185300Y0018500D03*
X0195300Y0019500D03*
X0205300Y0018500D03*
D22*
X0264840Y0064600D03*
X0257360Y0064600D03*
X0247460Y0020600D03*
X0254940Y0020600D03*
X0179960Y0138600D03*
X0187440Y0138600D03*
X0288360Y0026700D03*
X0295840Y0026700D03*
D23*
X0285441Y0063800D03*
X0290559Y0063800D03*
X0256159Y0035100D03*
X0251041Y0035100D03*
X0280341Y0053100D03*
X0285459Y0053100D03*
X0264959Y0057600D03*
X0259841Y0057600D03*
X0265059Y0070700D03*
X0259941Y0070700D03*
X0259941Y0075100D03*
X0265059Y0075100D03*
X0256159Y0029400D03*
X0251041Y0029400D03*
X0251041Y0040900D03*
X0256159Y0040900D03*
X0290559Y0041400D03*
X0285441Y0041400D03*
X0290559Y0047500D03*
X0285441Y0047500D03*
X0290459Y0036300D03*
X0285341Y0036300D03*
X0290559Y0058100D03*
X0285441Y0058100D03*
X0239359Y0091700D03*
X0234241Y0091700D03*
X0182341Y0145900D03*
X0187459Y0145900D03*
X0181041Y0132000D03*
X0186159Y0132000D03*
X0054241Y0025200D03*
X0059359Y0025200D03*
X0261441Y0090400D03*
X0266559Y0090400D03*
D24*
X0298000Y0041459D03*
X0298000Y0036341D03*
X0137300Y0086659D03*
X0137300Y0081541D03*
X0131300Y0091759D03*
X0131300Y0086641D03*
X0209500Y0143359D03*
X0209500Y0138241D03*
X0131300Y0072941D03*
X0131300Y0078059D03*
X0171500Y0062041D03*
X0171500Y0067159D03*
X0191500Y0048941D03*
X0191500Y0054059D03*
X0114300Y0031659D03*
X0114300Y0026541D03*
X0109200Y0031659D03*
X0109200Y0026541D03*
X0104200Y0031659D03*
X0104200Y0026541D03*
X0099000Y0031659D03*
X0099000Y0026541D03*
X0054900Y0141159D03*
X0054900Y0136041D03*
X0045700Y0141159D03*
X0045700Y0136041D03*
X0253400Y0154541D03*
X0253400Y0159659D03*
X0253400Y0138141D03*
X0253400Y0143259D03*
X0293300Y0155241D03*
X0293300Y0160359D03*
X0293200Y0138641D03*
X0293200Y0143759D03*
X0114800Y0156659D03*
X0114800Y0151541D03*
X0120400Y0156759D03*
X0120400Y0151641D03*
X0109000Y0156759D03*
X0109000Y0151641D03*
X0091500Y0156859D03*
X0091500Y0151741D03*
X0097300Y0156759D03*
X0097300Y0151641D03*
X0085900Y0156959D03*
X0085900Y0151841D03*
X0068100Y0157059D03*
X0068100Y0151941D03*
X0073800Y0156959D03*
X0073800Y0151841D03*
X0062000Y0157059D03*
X0062000Y0151941D03*
X0266000Y0115341D03*
X0266000Y0120459D03*
X0259900Y0110559D03*
X0259900Y0105441D03*
X0214600Y0119241D03*
X0214600Y0124359D03*
X0231900Y0112959D03*
X0231900Y0107841D03*
X0237000Y0029641D03*
X0237000Y0034759D03*
X0242700Y0029641D03*
X0242700Y0034759D03*
D25*
X0233200Y0061140D03*
X0233200Y0053660D03*
X0039200Y0141240D03*
X0039200Y0133760D03*
X0079200Y0032740D03*
X0079200Y0025260D03*
X0238800Y0013260D03*
X0238800Y0020740D03*
D26*
X0265200Y0031513D03*
X0265200Y0020687D03*
X0278700Y0028513D03*
X0278700Y0017687D03*
D27*
X0205200Y0044900D03*
D28*
X0197700Y0029900D03*
X0202700Y0029900D03*
X0207700Y0029900D03*
X0212700Y0029900D03*
X0212700Y0059900D03*
X0207700Y0059900D03*
X0202700Y0059900D03*
X0197700Y0059900D03*
D29*
X0249400Y0105420D03*
X0249400Y0120380D03*
D30*
X0223500Y0124368D03*
X0223500Y0107832D03*
D31*
X0149600Y0088100D03*
X0149600Y0083100D03*
X0149600Y0078100D03*
X0149600Y0073100D03*
X0149600Y0068100D03*
X0149600Y0063100D03*
X0149600Y0058100D03*
X0149600Y0053100D03*
X0149600Y0048100D03*
X0149600Y0043100D03*
X0149600Y0038100D03*
X0149600Y0033100D03*
D32*
X0242100Y0075598D03*
X0242100Y0064402D03*
X0224200Y0054698D03*
X0224200Y0043502D03*
D33*
X0271500Y0048012D02*
X0271500Y0057600D01*
X0264959Y0057600D01*
X0252400Y0075200D02*
X0259941Y0075200D01*
X0259941Y0075100D01*
X0277012Y0040925D02*
X0271500Y0040925D01*
X0271500Y0042500D01*
X0181041Y0132000D02*
X0181041Y0137519D01*
X0179960Y0138600D01*
X0181041Y0138600D02*
X0181200Y0138759D01*
X0181200Y0142700D01*
X0182341Y0142700D01*
X0182341Y0145900D01*
X0177500Y0145900D01*
X0228688Y0137089D02*
X0228688Y0129700D01*
X0231800Y0129700D01*
X0231800Y0118500D01*
X0268588Y0137589D02*
X0268588Y0130200D01*
X0268600Y0130200D01*
X0192084Y0072362D02*
X0192084Y0066900D01*
X0187900Y0066900D01*
X0187900Y0048941D01*
X0212700Y0029900D02*
X0212700Y0026100D01*
X0191500Y0043400D02*
X0191500Y0048941D01*
X0187900Y0048841D02*
X0187900Y0048941D01*
X0191500Y0048941D01*
X0290559Y0047500D02*
X0294300Y0047500D01*
X0295840Y0026700D02*
X0296040Y0022800D01*
X0296000Y0020700D01*
X0251041Y0040900D02*
X0247200Y0040900D01*
X0242700Y0040900D01*
X0242700Y0034759D01*
X0247200Y0020860D02*
X0247202Y0020829D01*
X0247208Y0020798D01*
X0247217Y0020768D01*
X0247230Y0020739D01*
X0247246Y0020712D01*
X0247265Y0020688D01*
X0247288Y0020665D01*
X0247312Y0020646D01*
X0247339Y0020630D01*
X0247368Y0020617D01*
X0247398Y0020608D01*
X0247429Y0020602D01*
X0247460Y0020600D01*
X0247200Y0020860D02*
X0247200Y0040900D01*
X0265988Y0045650D02*
X0265988Y0045600D01*
X0267700Y0045600D01*
X0267900Y0045400D01*
X0269900Y0045400D01*
X0271500Y0043800D01*
X0271500Y0042500D01*
X0259841Y0057600D02*
X0259841Y0060600D01*
X0264859Y0060600D01*
X0270300Y0060600D01*
X0264859Y0060600D02*
X0264840Y0064600D01*
X0233200Y0061140D02*
X0232900Y0061140D01*
X0232900Y0066300D01*
X0247200Y0020860D02*
X0238800Y0020860D01*
X0238800Y0020740D01*
X0273075Y0048012D02*
X0273075Y0070700D01*
X0265059Y0070700D01*
X0265059Y0075100D01*
X0229200Y0076800D02*
X0229200Y0069200D01*
X0248900Y0069200D01*
X0248900Y0054500D01*
X0269900Y0054500D01*
X0269900Y0048012D01*
X0269925Y0048012D01*
X0229200Y0076800D02*
X0207600Y0076800D01*
X0207600Y0080800D01*
X0190116Y0080800D01*
X0190116Y0072362D01*
X0274650Y0048012D02*
X0274650Y0073700D01*
X0271500Y0073700D01*
X0271500Y0078200D01*
X0249000Y0078200D01*
X0249000Y0071100D01*
X0230800Y0071000D01*
X0230800Y0078500D01*
X0188147Y0072362D02*
X0188100Y0072362D01*
X0230800Y0078500D02*
X0209300Y0078500D01*
X0209300Y0082400D01*
X0188147Y0082400D01*
X0188147Y0072362D01*
X0273075Y0036988D02*
X0273075Y0028513D01*
X0278700Y0028513D01*
X0274650Y0036988D02*
X0274650Y0031000D01*
X0282300Y0031000D01*
X0282300Y0017687D01*
X0278700Y0017687D01*
X0268350Y0036988D02*
X0265200Y0036988D01*
X0265200Y0031513D01*
X0290459Y0036300D02*
X0298000Y0036300D01*
X0298000Y0036341D01*
X0277012Y0039350D02*
X0280500Y0039350D01*
X0280500Y0036400D01*
X0285341Y0036400D01*
X0285341Y0036300D01*
X0285441Y0041400D02*
X0285341Y0041400D01*
X0285341Y0036300D01*
X0285341Y0031700D01*
X0288200Y0031700D01*
X0288360Y0026700D02*
X0290400Y0026600D01*
X0288200Y0031700D02*
X0288200Y0026700D01*
X0288360Y0026700D01*
X0290559Y0058100D02*
X0290559Y0063800D01*
X0285441Y0063800D02*
X0280341Y0063800D01*
X0280341Y0053100D01*
X0280341Y0044075D01*
X0277012Y0044075D01*
X0301700Y0013300D02*
X0301700Y0067400D01*
X0278600Y0067400D01*
X0278600Y0057000D01*
X0276200Y0057000D01*
X0276200Y0048000D01*
X0277100Y0048000D01*
X0277100Y0045650D01*
X0277012Y0045650D01*
X0271400Y0013200D02*
X0269900Y0013200D01*
X0269925Y0036988D02*
X0269900Y0036988D01*
X0269900Y0026100D01*
X0269900Y0013200D01*
X0271500Y0036988D02*
X0271500Y0013300D01*
X0271400Y0013200D01*
X0265988Y0039350D02*
X0261300Y0039350D01*
X0261300Y0026100D01*
X0269900Y0026100D01*
X0237800Y0034600D02*
X0237000Y0034759D01*
X0271400Y0013200D02*
X0301700Y0013300D01*
X0269900Y0013200D02*
X0263500Y0013200D01*
X0237000Y0034600D02*
X0219100Y0034600D01*
X0219100Y0013200D01*
X0237000Y0034600D02*
X0237000Y0034759D01*
X0233400Y0053460D02*
X0233200Y0053660D01*
X0265988Y0044075D02*
X0262700Y0044075D01*
X0262700Y0048300D01*
X0233200Y0048300D01*
X0219100Y0048300D01*
X0219100Y0034600D01*
X0233200Y0048300D02*
X0233200Y0053660D01*
X0187440Y0138600D02*
X0187440Y0145881D01*
X0187459Y0145900D01*
X0184210Y0072362D02*
X0184210Y0029900D01*
X0197700Y0029900D01*
X0199958Y0072362D02*
X0199958Y0064700D01*
X0207600Y0064700D01*
X0207600Y0059900D01*
X0207700Y0059900D01*
X0203895Y0072362D02*
X0203895Y0066700D01*
X0210300Y0066700D01*
X0210300Y0056800D01*
X0217300Y0056800D01*
X0217300Y0023400D01*
X0202700Y0023400D01*
X0202700Y0029900D01*
X0212700Y0059900D02*
X0212700Y0068400D01*
X0205900Y0068400D01*
X0205900Y0072362D01*
X0205864Y0072362D01*
X0284612Y0137589D02*
X0284612Y0143759D01*
X0293200Y0143759D01*
X0244712Y0137089D02*
X0244712Y0143259D01*
X0253400Y0143259D01*
X0256159Y0040900D02*
X0256159Y0035100D01*
X0256159Y0029400D01*
X0256159Y0040900D02*
X0256159Y0040925D01*
X0265988Y0040925D01*
X0251041Y0035100D02*
X0251041Y0029400D01*
X0194053Y0072362D02*
X0194053Y0064400D01*
X0191700Y0064400D01*
X0191700Y0059700D01*
X0191500Y0059700D01*
X0191500Y0059900D01*
X0197700Y0059900D01*
X0191500Y0059700D02*
X0191500Y0054059D01*
X0180273Y0072362D02*
X0180273Y0059700D01*
X0181500Y0059700D01*
X0265200Y0020687D02*
X0265200Y0020600D01*
X0254940Y0020600D01*
X0254940Y0025600D02*
X0251200Y0025600D01*
X0251200Y0029400D01*
X0251041Y0029400D01*
X0254940Y0025600D02*
X0254940Y0020600D01*
X0196021Y0072362D02*
X0196021Y0063200D01*
X0202700Y0063200D01*
X0202700Y0059900D01*
X0186179Y0072362D02*
X0186179Y0032800D01*
X0207700Y0032800D01*
X0207700Y0029900D01*
X0290559Y0041400D02*
X0298000Y0041400D01*
X0298000Y0041459D01*
X0277012Y0042500D02*
X0282100Y0042500D01*
X0282100Y0044400D01*
X0285441Y0044400D01*
X0285441Y0047500D01*
X0290559Y0041400D02*
X0290559Y0044400D01*
X0285441Y0044400D01*
X0285441Y0047500D02*
X0285441Y0053100D01*
X0285459Y0053100D01*
X0285459Y0058100D01*
X0285441Y0058100D01*
X0242700Y0029641D02*
X0237000Y0029641D01*
X0265988Y0042500D02*
X0260800Y0042500D01*
X0260800Y0044900D01*
X0224200Y0044900D01*
X0224200Y0043502D01*
X0242100Y0064402D02*
X0242100Y0057500D01*
X0242100Y0052200D01*
X0268300Y0052200D01*
X0268300Y0048012D01*
X0268350Y0048012D01*
X0257360Y0064600D02*
X0253700Y0064600D01*
X0253700Y0057600D01*
X0259941Y0070700D02*
X0257360Y0070700D01*
X0257360Y0064600D01*
X0224200Y0054698D02*
X0224200Y0072500D01*
X0210800Y0072500D01*
X0198000Y0077900D02*
X0198000Y0072362D01*
X0197990Y0072362D01*
D34*
X0252400Y0075200D03*
X0033900Y0038500D03*
X0063900Y0039000D03*
X0079100Y0039000D03*
X0119000Y0038300D03*
X0088700Y0038900D03*
X0054900Y0146500D03*
X0119200Y0120700D03*
X0244600Y0093100D03*
X0266500Y0099900D03*
X0074300Y0121900D03*
X0182300Y0094000D03*
X0201600Y0093900D03*
X0209500Y0148900D03*
X0260000Y0115300D03*
X0219400Y0118500D03*
X0231800Y0118500D03*
X0131300Y0067700D03*
X0171500Y0056900D03*
X0268600Y0130200D03*
X0212700Y0026100D03*
X0191500Y0043400D03*
X0294300Y0047500D03*
X0296000Y0020700D03*
X0247200Y0040900D03*
X0270300Y0060600D03*
X0232900Y0066300D03*
X0084300Y0056300D03*
X0084300Y0047900D03*
X0263500Y0013200D03*
X0219100Y0013200D03*
X0099200Y0098100D03*
X0112900Y0098100D03*
X0136300Y0099800D03*
X0123900Y0099800D03*
X0079900Y0157200D03*
X0126000Y0156759D03*
X0102500Y0156759D03*
X0079300Y0163400D03*
X0095800Y0163400D03*
X0114800Y0163300D03*
X0190100Y0094600D03*
X0190100Y0101000D03*
X0191500Y0059700D03*
X0181500Y0059700D03*
X0304300Y0069400D03*
X0300500Y0165400D03*
X0242100Y0057500D03*
X0253700Y0057600D03*
X0210800Y0072500D03*
X0198000Y0077900D03*
D35*
X0079213Y0031559D02*
X0079200Y0032740D01*
X0079100Y0031559D01*
X0099000Y0026541D02*
X0104200Y0026541D01*
X0109200Y0026541D01*
X0114300Y0026541D01*
D36*
X0034213Y0043661D02*
X0034213Y0038500D01*
X0033900Y0038500D01*
X0064213Y0043661D02*
X0064213Y0039000D01*
X0063900Y0039000D01*
X0079213Y0043661D02*
X0079213Y0039000D01*
X0079100Y0039000D01*
X0079100Y0031559D01*
X0119213Y0043661D02*
X0119213Y0038300D01*
X0119000Y0038300D01*
X0089213Y0043661D02*
X0089213Y0038900D01*
X0088700Y0038900D01*
X0179960Y0138600D02*
X0181041Y0138600D01*
X0054900Y0146500D02*
X0054900Y0141159D01*
X0045700Y0141159D01*
X0119213Y0126339D02*
X0119213Y0120700D01*
X0119200Y0120700D01*
X0239359Y0091700D02*
X0244600Y0091700D01*
X0244600Y0093100D01*
X0276342Y0102999D02*
X0266500Y0102999D01*
X0266500Y0099900D01*
X0276342Y0099900D01*
X0276342Y0099850D01*
X0074213Y0126339D02*
X0074300Y0126339D01*
X0074300Y0121900D01*
X0168462Y0094016D02*
X0178400Y0094016D01*
X0182300Y0094000D01*
X0213738Y0095984D02*
X0201600Y0095984D01*
X0201600Y0093900D01*
X0209500Y0143359D02*
X0209500Y0148900D01*
X0266500Y0100941D02*
X0266500Y0099900D01*
X0259900Y0110559D02*
X0260000Y0110559D01*
X0260000Y0115300D01*
X0266000Y0115300D01*
X0266000Y0115341D01*
X0214600Y0119241D02*
X0214600Y0118500D01*
X0219400Y0118500D01*
X0231900Y0112959D02*
X0231900Y0118500D01*
X0231800Y0118500D01*
X0131300Y0072941D02*
X0131300Y0067700D01*
X0149600Y0078100D02*
X0155400Y0078100D01*
X0155800Y0063100D02*
X0149600Y0063100D01*
X0149600Y0033100D02*
X0156400Y0033100D01*
X0156400Y0033000D01*
X0155800Y0048100D02*
X0149600Y0048100D01*
X0034213Y0126339D02*
X0034213Y0141240D01*
X0039200Y0141240D01*
X0039200Y0141159D01*
X0045700Y0141159D01*
X0171500Y0062041D02*
X0171500Y0056900D01*
X0034101Y0038500D02*
X0033900Y0038500D01*
X0182242Y0072362D02*
X0182300Y0072362D01*
X0182300Y0094000D01*
X0039200Y0133760D02*
X0039200Y0126339D01*
X0039213Y0126339D01*
X0079200Y0025260D02*
X0079200Y0025200D01*
X0084213Y0043661D02*
X0084213Y0025260D01*
X0079200Y0025260D01*
X0059359Y0025200D02*
X0059359Y0025260D01*
X0079200Y0025260D01*
X0084300Y0047900D02*
X0084300Y0043661D01*
X0084213Y0043661D01*
X0039213Y0126339D02*
X0039213Y0116000D01*
X0084200Y0116000D01*
X0084200Y0056300D01*
X0084300Y0056300D01*
X0099000Y0026541D02*
X0099000Y0025260D01*
X0084213Y0025260D01*
X0168400Y0080236D02*
X0168462Y0080236D01*
X0167100Y0080236D01*
X0167100Y0050600D01*
X0168400Y0050600D01*
X0168400Y0036300D01*
X0168400Y0023600D01*
X0170300Y0021700D01*
X0170300Y0009200D01*
X0219100Y0009200D01*
X0219100Y0013200D01*
X0131300Y0091759D02*
X0131300Y0102800D01*
X0139500Y0102800D01*
X0139500Y0097953D01*
X0168462Y0097953D01*
X0187440Y0138600D02*
X0192084Y0138600D01*
X0192084Y0117638D01*
X0131300Y0086641D02*
X0131300Y0078059D01*
X0126700Y0078059D01*
X0126700Y0013800D01*
X0155300Y0013800D01*
X0155300Y0019500D01*
X0137300Y0086659D02*
X0131300Y0086659D01*
X0131300Y0086641D01*
X0185300Y0018500D02*
X0185300Y0027400D01*
X0178400Y0027400D01*
X0178400Y0072362D01*
X0178305Y0072362D01*
X0176336Y0072362D02*
X0176336Y0025000D01*
X0180000Y0025000D01*
X0180000Y0012200D01*
X0195300Y0012200D01*
X0195300Y0019500D01*
X0054900Y0136041D02*
X0054900Y0130600D01*
X0089200Y0130600D01*
X0089200Y0126339D01*
X0089213Y0126339D01*
X0058800Y0169200D02*
X0058800Y0135900D01*
X0054900Y0135900D01*
X0054900Y0136041D01*
X0205864Y0117638D02*
X0205864Y0169200D01*
X0058800Y0169200D01*
X0044213Y0126339D02*
X0044213Y0131300D01*
X0045700Y0131300D01*
X0045700Y0136041D01*
X0039213Y0043661D02*
X0039213Y0051800D01*
X0093200Y0051800D01*
X0093200Y0113700D01*
X0176300Y0113700D01*
X0176300Y0117638D01*
X0176336Y0117638D01*
X0118073Y0140427D02*
X0130100Y0140427D01*
X0130100Y0128500D01*
X0188147Y0128500D01*
X0188147Y0117638D01*
X0094873Y0141327D02*
X0094873Y0136300D01*
X0126500Y0136300D01*
X0126500Y0125600D01*
X0186100Y0125600D01*
X0186100Y0117638D01*
X0186179Y0117638D01*
X0071473Y0141127D02*
X0071473Y0133100D01*
X0123400Y0133100D01*
X0123400Y0122800D01*
X0184200Y0122800D01*
X0184200Y0117638D01*
X0184210Y0117638D01*
X0109200Y0031659D02*
X0109200Y0043661D01*
X0109213Y0043661D01*
X0109213Y0109700D01*
X0145800Y0109700D01*
X0145800Y0103858D01*
X0168462Y0103858D01*
X0099000Y0031659D02*
X0099000Y0043661D01*
X0099213Y0043661D01*
X0099213Y0098100D01*
X0099200Y0098100D01*
X0112900Y0098100D02*
X0112900Y0107600D01*
X0143600Y0107600D01*
X0143600Y0101890D01*
X0168462Y0101890D01*
X0114300Y0031659D02*
X0114300Y0043661D01*
X0114213Y0043661D01*
X0114213Y0094400D01*
X0117900Y0094400D01*
X0168462Y0099921D02*
X0141500Y0099921D01*
X0141500Y0105500D01*
X0117900Y0105500D01*
X0117900Y0094400D01*
X0054213Y0043661D02*
X0054241Y0043661D01*
X0054241Y0025200D01*
X0054300Y0026400D01*
X0168462Y0095984D02*
X0136300Y0095984D01*
X0136300Y0099800D01*
X0123900Y0099800D02*
X0122600Y0099800D01*
X0122700Y0015300D01*
X0054241Y0015300D01*
X0054241Y0025200D01*
X0104200Y0031659D02*
X0104200Y0043661D01*
X0104213Y0043661D01*
X0104213Y0095200D01*
X0104200Y0095300D01*
X0104200Y0111600D01*
X0173700Y0111600D01*
X0173700Y0097953D01*
X0213738Y0097953D01*
X0213738Y0099921D02*
X0237700Y0099921D01*
X0237700Y0125600D01*
X0293200Y0125600D01*
X0293200Y0138641D01*
X0276342Y0096700D02*
X0251700Y0096700D01*
X0251700Y0088100D01*
X0213738Y0088100D01*
X0213738Y0088110D01*
X0213738Y0086142D02*
X0254400Y0086142D01*
X0254400Y0093500D01*
X0276342Y0093500D01*
X0276342Y0093550D01*
X0276342Y0090401D02*
X0276342Y0090400D01*
X0266559Y0090400D01*
X0266559Y0081500D01*
X0242100Y0081500D01*
X0242100Y0075598D01*
X0213743Y0082200D02*
X0213741Y0082201D01*
X0213739Y0082203D01*
X0213738Y0082205D01*
X0223700Y0082205D01*
X0223700Y0082700D01*
X0223700Y0084100D01*
X0261441Y0084100D01*
X0261441Y0090400D01*
X0213738Y0080236D02*
X0223700Y0080236D01*
X0223700Y0082205D01*
X0293200Y0143759D02*
X0293200Y0155241D01*
X0293300Y0155241D01*
X0253400Y0154541D02*
X0253400Y0143259D01*
X0213738Y0101890D02*
X0235700Y0101890D01*
X0235700Y0127900D01*
X0253400Y0127900D01*
X0253400Y0138141D01*
X0068127Y0141127D02*
X0062000Y0141127D01*
X0062000Y0151941D01*
X0071473Y0144473D02*
X0073800Y0144473D01*
X0073800Y0151841D01*
X0068127Y0144473D02*
X0068100Y0144473D01*
X0068100Y0151941D01*
X0091527Y0141327D02*
X0085900Y0141327D01*
X0085900Y0151841D01*
X0094873Y0144673D02*
X0097300Y0144673D01*
X0097300Y0151641D01*
X0091500Y0151741D02*
X0091527Y0151741D01*
X0091527Y0144673D01*
X0114727Y0140427D02*
X0109000Y0140427D01*
X0109000Y0151641D01*
X0118073Y0143773D02*
X0120400Y0143773D01*
X0120400Y0151641D01*
X0114727Y0143773D02*
X0114800Y0143773D01*
X0114800Y0151541D01*
X0109000Y0156759D02*
X0109000Y0166800D01*
X0197990Y0117638D02*
X0198000Y0117638D01*
X0062000Y0157059D02*
X0062000Y0166700D01*
X0085900Y0166700D01*
X0109000Y0166800D01*
X0085900Y0166700D02*
X0085900Y0156959D01*
X0109000Y0166800D02*
X0197990Y0166800D01*
X0197990Y0117638D01*
X0126000Y0156759D02*
X0120400Y0156759D01*
X0073800Y0156959D02*
X0073800Y0157200D01*
X0079900Y0157200D01*
X0097300Y0156759D02*
X0102500Y0156759D01*
X0126000Y0156759D02*
X0194053Y0156759D01*
X0194053Y0117638D01*
X0114800Y0156659D02*
X0114800Y0163300D01*
X0068100Y0157059D02*
X0068100Y0163400D01*
X0079300Y0163400D01*
X0091500Y0156859D02*
X0091500Y0163400D01*
X0095800Y0163400D01*
X0114800Y0163300D02*
X0196021Y0163300D01*
X0196021Y0117638D01*
X0186159Y0132000D02*
X0190116Y0132000D01*
X0190116Y0117638D01*
X0213738Y0090000D02*
X0213738Y0090079D01*
X0229500Y0090079D01*
X0229500Y0091800D01*
X0234241Y0091800D01*
X0234241Y0091700D01*
X0209500Y0138241D02*
X0209500Y0129600D01*
X0209500Y0112700D01*
X0190100Y0112700D01*
X0190100Y0117638D01*
X0190116Y0117638D01*
X0207700Y0084173D02*
X0207700Y0090100D01*
X0213738Y0090100D01*
X0213738Y0090079D01*
X0213738Y0084173D02*
X0207700Y0084173D01*
X0137300Y0081600D02*
X0137300Y0081541D01*
X0171500Y0067159D02*
X0171500Y0076800D01*
X0173800Y0076800D01*
X0173800Y0078800D01*
X0180300Y0078800D01*
X0180300Y0072362D01*
X0180273Y0072362D01*
X0168462Y0092047D02*
X0173800Y0092047D01*
X0173800Y0078800D01*
X0207700Y0090100D02*
X0190100Y0090100D01*
X0190100Y0094600D01*
X0190100Y0101000D02*
X0190100Y0112700D01*
X0293300Y0160359D02*
X0293300Y0165600D01*
X0293300Y0167100D01*
X0253400Y0167100D01*
X0222500Y0167100D01*
X0222500Y0129600D01*
X0209500Y0129600D01*
X0253400Y0159659D02*
X0253400Y0167100D01*
X0149600Y0088100D02*
X0149600Y0092047D01*
X0168462Y0092047D01*
X0300500Y0165400D02*
X0300500Y0165600D01*
X0293300Y0165600D01*
X0238900Y0013260D02*
X0238800Y0013260D01*
X0213738Y0092047D02*
X0222300Y0092047D01*
X0222300Y0095900D01*
X0249400Y0095900D01*
X0249400Y0105420D01*
X0259900Y0105420D01*
X0259900Y0105441D01*
X0249400Y0120380D02*
X0240000Y0120380D01*
X0240000Y0097900D01*
X0220000Y0097900D01*
X0220000Y0094000D01*
X0213738Y0094000D01*
X0213738Y0094016D01*
X0266000Y0120459D02*
X0249400Y0120459D01*
X0249400Y0120380D01*
X0168462Y0090079D02*
X0154500Y0090079D01*
X0154500Y0083000D01*
X0149600Y0083000D01*
X0149600Y0083100D01*
X0168462Y0088110D02*
X0158800Y0088110D01*
X0158800Y0068100D01*
X0149600Y0068100D01*
X0168462Y0086142D02*
X0161100Y0086142D01*
X0161100Y0053200D01*
X0149600Y0053200D01*
X0149600Y0053100D01*
X0168462Y0084173D02*
X0163700Y0084173D01*
X0163700Y0049100D01*
X0160300Y0049100D01*
X0160300Y0038100D01*
X0149600Y0038100D01*
X0213738Y0107795D02*
X0223500Y0107795D01*
X0223500Y0107832D01*
X0231900Y0107832D01*
X0231900Y0107841D01*
X0223500Y0124368D02*
X0214600Y0124368D01*
X0214600Y0124359D01*
X0223500Y0124368D02*
X0223500Y0112500D01*
X0213800Y0112500D01*
X0213800Y0109764D01*
X0213738Y0109764D01*
D37*
X0271500Y0042500D03*
X0155400Y0078100D03*
X0155800Y0063100D03*
X0156400Y0033000D03*
X0155800Y0048100D03*
X0288300Y0017600D03*
X0079100Y0019700D03*
D38*
X0177500Y0145900D03*
D39*
X0288360Y0026700D02*
X0288360Y0017600D01*
X0288300Y0017600D01*
X0079100Y0019700D02*
X0079100Y0025260D01*
X0079200Y0025260D01*
X0165200Y0018500D02*
X0165300Y0018500D01*
X0165300Y0027700D01*
X0143400Y0027700D01*
X0143400Y0043100D01*
X0143400Y0058200D01*
X0143400Y0073100D01*
X0149600Y0073100D01*
X0149600Y0058100D02*
X0149600Y0058200D01*
X0143400Y0058200D01*
X0143400Y0043100D02*
X0149600Y0043100D01*
X0143400Y0073100D02*
X0143400Y0081300D01*
X0143400Y0088100D01*
X0149600Y0088100D01*
X0137300Y0081541D02*
X0137300Y0081300D01*
X0143400Y0081300D01*
X0254940Y0020600D02*
X0255297Y0020600D01*
X0165200Y0018500D02*
X0165200Y0006900D01*
X0238900Y0006900D01*
X0254940Y0006900D01*
X0300200Y0006900D01*
X0300326Y0006902D01*
X0300452Y0006908D01*
X0300578Y0006917D01*
X0300704Y0006931D01*
X0300829Y0006949D01*
X0300953Y0006970D01*
X0301077Y0006995D01*
X0301200Y0007024D01*
X0301322Y0007057D01*
X0301443Y0007093D01*
X0301563Y0007133D01*
X0301681Y0007177D01*
X0301798Y0007224D01*
X0301914Y0007275D01*
X0302028Y0007330D01*
X0302140Y0007388D01*
X0302250Y0007449D01*
X0302358Y0007514D01*
X0302465Y0007582D01*
X0302569Y0007654D01*
X0302671Y0007728D01*
X0302770Y0007806D01*
X0302868Y0007886D01*
X0302962Y0007970D01*
X0303054Y0008057D01*
X0303143Y0008146D01*
X0303230Y0008238D01*
X0303314Y0008332D01*
X0303394Y0008430D01*
X0303472Y0008529D01*
X0303546Y0008631D01*
X0303618Y0008735D01*
X0303686Y0008842D01*
X0303751Y0008950D01*
X0303812Y0009060D01*
X0303870Y0009172D01*
X0303925Y0009286D01*
X0303976Y0009402D01*
X0304023Y0009519D01*
X0304067Y0009637D01*
X0304107Y0009757D01*
X0304143Y0009878D01*
X0304176Y0010000D01*
X0304205Y0010123D01*
X0304230Y0010247D01*
X0304251Y0010371D01*
X0304269Y0010496D01*
X0304283Y0010622D01*
X0304292Y0010748D01*
X0304298Y0010874D01*
X0304300Y0011000D01*
X0304300Y0069400D01*
X0238900Y0013260D02*
X0238900Y0006900D01*
X0254940Y0006900D02*
X0254940Y0020600D01*
M02*
