G75*
%MOIN*%
%OFA0B0*%
%FSLAX25Y25*%
%IPPOS*%
%LPD*%
%AMOC8*
5,1,8,0,0,1.08239X$1,22.5*
%
%ADD10C,0.00400*%
%ADD11C,0.00500*%
%ADD12C,0.00800*%
%ADD13C,0.00200*%
D10*
X0144002Y0164200D02*
X0142467Y0164200D01*
X0141700Y0164967D01*
X0141700Y0166502D01*
X0142467Y0167269D01*
X0144002Y0167269D01*
X0144769Y0166502D01*
X0144769Y0165735D01*
X0141700Y0165735D01*
X0146304Y0168804D02*
X0147071Y0168804D01*
X0147071Y0164200D01*
X0146304Y0164200D02*
X0147839Y0164200D01*
X0151675Y0164200D02*
X0150141Y0164200D01*
X0149373Y0164967D01*
X0149373Y0166502D01*
X0150141Y0167269D01*
X0151675Y0167269D01*
X0152442Y0166502D01*
X0152442Y0165735D01*
X0149373Y0165735D01*
X0157046Y0167269D02*
X0154744Y0167269D01*
X0153977Y0166502D01*
X0153977Y0164967D01*
X0154744Y0164200D01*
X0157046Y0164200D01*
X0158581Y0166502D02*
X0161650Y0166502D01*
X0163185Y0167269D02*
X0163185Y0164200D01*
X0163185Y0165735D02*
X0164720Y0167269D01*
X0165487Y0167269D01*
X0169324Y0164200D02*
X0167789Y0164200D01*
X0167022Y0164967D01*
X0167022Y0166502D01*
X0167789Y0167269D01*
X0169324Y0167269D01*
X0170091Y0166502D01*
X0170091Y0165735D01*
X0167022Y0165735D01*
X0172393Y0167269D02*
X0173927Y0167269D01*
X0174695Y0166502D01*
X0174695Y0164200D01*
X0172393Y0164200D01*
X0171626Y0164967D01*
X0172393Y0165735D01*
X0174695Y0165735D01*
X0176229Y0168804D02*
X0176997Y0168804D01*
X0176997Y0164200D01*
X0177764Y0164200D02*
X0176229Y0164200D01*
X0179299Y0164200D02*
X0179299Y0164967D01*
X0180066Y0164967D01*
X0180066Y0164200D01*
X0179299Y0164200D01*
X0184670Y0167269D02*
X0182368Y0167269D01*
X0181601Y0166502D01*
X0181601Y0164967D01*
X0182368Y0164200D01*
X0184670Y0164200D01*
X0186972Y0164200D02*
X0188507Y0164200D01*
X0189274Y0164967D01*
X0189274Y0166502D01*
X0188507Y0167269D01*
X0186972Y0167269D01*
X0186205Y0166502D01*
X0186205Y0164967D01*
X0186972Y0164200D01*
X0190809Y0164200D02*
X0190809Y0167269D01*
X0191576Y0167269D01*
X0192343Y0166502D01*
X0192343Y0164200D01*
X0192343Y0166502D02*
X0193110Y0167269D01*
X0193878Y0166502D01*
X0193878Y0164200D01*
X0144769Y0160537D02*
X0144002Y0161304D01*
X0142467Y0161304D01*
X0141700Y0160537D01*
X0141700Y0157467D01*
X0142467Y0156700D01*
X0144002Y0156700D01*
X0144769Y0157467D01*
X0146304Y0159769D02*
X0146304Y0157467D01*
X0147071Y0156700D01*
X0149373Y0156700D01*
X0149373Y0159769D02*
X0149373Y0155933D01*
X0148606Y0155165D01*
X0147839Y0155165D01*
X0155512Y0161304D02*
X0155512Y0156700D01*
X0157814Y0156700D01*
X0158581Y0157467D01*
X0158581Y0160537D01*
X0157814Y0161304D01*
X0155512Y0161304D01*
X0160116Y0159769D02*
X0160116Y0156700D01*
X0160116Y0158235D02*
X0161650Y0159769D01*
X0162418Y0159769D01*
X0164720Y0156700D02*
X0166254Y0156700D01*
X0167022Y0157467D01*
X0167022Y0159002D01*
X0166254Y0159769D01*
X0164720Y0159769D01*
X0163952Y0159002D01*
X0163952Y0157467D01*
X0164720Y0156700D01*
X0168556Y0161304D02*
X0169324Y0161304D01*
X0169324Y0156700D01*
X0170091Y0156700D02*
X0168556Y0156700D01*
X0171626Y0161304D02*
X0172393Y0161304D01*
X0172393Y0156700D01*
X0171626Y0156700D02*
X0173160Y0156700D01*
X0174695Y0159769D02*
X0175462Y0159769D01*
X0175462Y0156700D01*
X0174695Y0156700D02*
X0176229Y0156700D01*
X0175462Y0161304D02*
X0175462Y0162071D01*
X0177764Y0156700D02*
X0177764Y0159769D01*
X0180066Y0159769D01*
X0180833Y0159002D01*
X0180833Y0156700D01*
X0183903Y0155165D02*
X0184670Y0155165D01*
X0185437Y0155933D01*
X0185437Y0159769D01*
X0183135Y0159769D01*
X0182368Y0159002D01*
X0182368Y0157467D01*
X0183135Y0156700D01*
X0185437Y0156700D01*
X0189274Y0156700D02*
X0187739Y0156700D01*
X0186972Y0157467D01*
X0186972Y0159002D01*
X0187739Y0159769D01*
X0189274Y0159769D01*
X0190041Y0159002D01*
X0190041Y0158235D01*
X0186972Y0158235D01*
X0191576Y0159769D02*
X0191576Y0156700D01*
X0191576Y0158235D02*
X0193110Y0159769D01*
X0193878Y0159769D01*
X0141700Y0153037D02*
X0142467Y0153804D01*
X0144002Y0153804D01*
X0144769Y0153037D01*
X0144769Y0152269D01*
X0144002Y0151502D01*
X0144769Y0150735D01*
X0144769Y0149967D01*
X0144002Y0149200D01*
X0142467Y0149200D01*
X0141700Y0149967D01*
X0141700Y0150735D01*
X0142467Y0151502D01*
X0141700Y0152269D01*
X0141700Y0153037D01*
X0142467Y0151502D02*
X0144002Y0151502D01*
X0146304Y0149200D02*
X0149373Y0153804D01*
X0150908Y0152269D02*
X0152442Y0153804D01*
X0152442Y0149200D01*
X0150908Y0149200D02*
X0153977Y0149200D01*
X0158581Y0153804D02*
X0155512Y0153804D01*
X0155512Y0151502D01*
X0157046Y0152269D01*
X0157814Y0152269D01*
X0158581Y0151502D01*
X0158581Y0149967D01*
X0157814Y0149200D01*
X0156279Y0149200D01*
X0155512Y0149967D01*
X0160883Y0154571D02*
X0160883Y0153037D01*
X0160116Y0152269D01*
X0071661Y0075915D02*
X0067057Y0075915D01*
X0068591Y0077450D01*
X0067057Y0078984D01*
X0071661Y0078984D01*
X0067057Y0082821D02*
X0067057Y0081286D01*
X0067824Y0080519D01*
X0070893Y0080519D01*
X0071661Y0081286D01*
X0071661Y0082821D01*
X0070893Y0083588D01*
X0067824Y0083588D01*
X0067057Y0082821D01*
X0067057Y0085123D02*
X0071661Y0085123D01*
X0071661Y0087425D01*
X0070893Y0088192D01*
X0067824Y0088192D01*
X0067057Y0087425D01*
X0067057Y0085123D01*
X0068591Y0089727D02*
X0067057Y0091261D01*
X0071661Y0091261D01*
X0071661Y0089727D02*
X0071661Y0092796D01*
X0200309Y0122259D02*
X0201844Y0122259D01*
X0201077Y0122259D02*
X0201077Y0126863D01*
X0201844Y0126863D02*
X0200309Y0126863D01*
X0206448Y0126096D02*
X0205681Y0126863D01*
X0204146Y0126863D01*
X0203379Y0126096D01*
X0203379Y0123026D01*
X0204146Y0122259D01*
X0205681Y0122259D01*
X0206448Y0123026D01*
X0211052Y0122259D02*
X0207983Y0122259D01*
X0211052Y0125328D01*
X0211052Y0126096D01*
X0210285Y0126863D01*
X0208750Y0126863D01*
X0207983Y0126096D01*
X0267134Y0050166D02*
X0268668Y0050166D01*
X0267901Y0050166D02*
X0267901Y0054770D01*
X0267134Y0054770D02*
X0268668Y0054770D01*
X0273272Y0054003D02*
X0272505Y0054770D01*
X0270970Y0054770D01*
X0270203Y0054003D01*
X0270203Y0050933D01*
X0270970Y0050166D01*
X0272505Y0050166D01*
X0273272Y0050933D01*
X0274807Y0053235D02*
X0276342Y0054770D01*
X0276342Y0050166D01*
X0277876Y0050166D02*
X0274807Y0050166D01*
X0310204Y0081716D02*
X0275156Y0081716D01*
X0275156Y0086683D01*
X0275156Y0086684D02*
X0275158Y0086756D01*
X0275163Y0086829D01*
X0275172Y0086901D01*
X0275185Y0086973D01*
X0275202Y0087043D01*
X0275222Y0087113D01*
X0275245Y0087182D01*
X0275272Y0087250D01*
X0275303Y0087316D01*
X0275336Y0087380D01*
X0275373Y0087443D01*
X0275413Y0087504D01*
X0275456Y0087562D01*
X0275502Y0087619D01*
X0275551Y0087673D01*
X0275602Y0087724D01*
X0275656Y0087773D01*
X0275713Y0087819D01*
X0275771Y0087862D01*
X0275832Y0087902D01*
X0275895Y0087939D01*
X0275959Y0087972D01*
X0276025Y0088003D01*
X0276093Y0088030D01*
X0276162Y0088053D01*
X0276232Y0088073D01*
X0276302Y0088090D01*
X0276374Y0088103D01*
X0276446Y0088112D01*
X0276519Y0088117D01*
X0276591Y0088119D01*
X0278689Y0088119D01*
X0278854Y0105283D02*
X0276536Y0105283D01*
X0276464Y0105285D01*
X0276392Y0105291D01*
X0276320Y0105300D01*
X0276249Y0105313D01*
X0276179Y0105330D01*
X0276110Y0105350D01*
X0276042Y0105375D01*
X0275975Y0105402D01*
X0275910Y0105433D01*
X0275846Y0105468D01*
X0275784Y0105506D01*
X0275725Y0105547D01*
X0275668Y0105591D01*
X0275613Y0105637D01*
X0275560Y0105687D01*
X0275510Y0105740D01*
X0275464Y0105795D01*
X0275420Y0105852D01*
X0275379Y0105911D01*
X0275341Y0105973D01*
X0275306Y0106037D01*
X0275275Y0106102D01*
X0275248Y0106169D01*
X0275223Y0106237D01*
X0275203Y0106306D01*
X0275186Y0106376D01*
X0275173Y0106447D01*
X0275164Y0106519D01*
X0275158Y0106591D01*
X0275156Y0106663D01*
X0275156Y0111686D01*
X0295964Y0111686D01*
X0310204Y0111686D01*
X0310204Y0081716D01*
X0275156Y0111686D02*
X0275156Y0115384D01*
X0275158Y0115432D01*
X0275163Y0115479D01*
X0275172Y0115526D01*
X0275185Y0115572D01*
X0275202Y0115617D01*
X0275222Y0115660D01*
X0275245Y0115702D01*
X0275271Y0115741D01*
X0275301Y0115779D01*
X0275333Y0115814D01*
X0275368Y0115846D01*
X0275406Y0115876D01*
X0275446Y0115902D01*
X0275487Y0115926D01*
X0275531Y0115945D01*
X0275575Y0115962D01*
X0275621Y0115975D01*
X0275668Y0115984D01*
X0275716Y0115989D01*
X0275763Y0115991D01*
X0275764Y0115991D01*
X0275763Y0115991D02*
X0275812Y0115989D01*
X0275862Y0115984D01*
X0275910Y0115974D01*
X0275958Y0115962D01*
X0276005Y0115945D01*
X0276050Y0115925D01*
X0276094Y0115902D01*
X0276136Y0115876D01*
X0276176Y0115847D01*
X0276213Y0115814D01*
X0276248Y0115779D01*
X0276281Y0115742D01*
X0276310Y0115702D01*
X0276336Y0115660D01*
X0276359Y0115616D01*
X0276379Y0115571D01*
X0276396Y0115524D01*
X0276408Y0115476D01*
X0276418Y0115428D01*
X0276423Y0115378D01*
X0276425Y0115329D01*
X0276426Y0115329D02*
X0276426Y0114722D01*
X0276425Y0114721D02*
X0276427Y0114663D01*
X0276432Y0114606D01*
X0276442Y0114549D01*
X0276455Y0114492D01*
X0276472Y0114437D01*
X0276492Y0114383D01*
X0276516Y0114330D01*
X0276543Y0114279D01*
X0276573Y0114230D01*
X0276607Y0114183D01*
X0276644Y0114139D01*
X0276683Y0114096D01*
X0276726Y0114057D01*
X0276770Y0114020D01*
X0276817Y0113986D01*
X0276866Y0113956D01*
X0276917Y0113929D01*
X0276970Y0113905D01*
X0277024Y0113885D01*
X0277079Y0113868D01*
X0277136Y0113855D01*
X0277193Y0113845D01*
X0277250Y0113840D01*
X0277308Y0113838D01*
X0277309Y0113839D02*
X0277419Y0113839D01*
X0277477Y0113841D01*
X0277534Y0113847D01*
X0277591Y0113856D01*
X0277648Y0113869D01*
X0277703Y0113886D01*
X0277757Y0113906D01*
X0277810Y0113930D01*
X0277861Y0113957D01*
X0277910Y0113988D01*
X0277957Y0114021D01*
X0278001Y0114058D01*
X0278043Y0114098D01*
X0278083Y0114140D01*
X0278120Y0114184D01*
X0278153Y0114231D01*
X0278184Y0114281D01*
X0278211Y0114331D01*
X0278235Y0114384D01*
X0278255Y0114438D01*
X0278272Y0114493D01*
X0278285Y0114550D01*
X0278294Y0114607D01*
X0278300Y0114664D01*
X0278302Y0114722D01*
X0278302Y0115384D01*
X0278304Y0115432D01*
X0278309Y0115479D01*
X0278319Y0115526D01*
X0278332Y0115572D01*
X0278348Y0115616D01*
X0278368Y0115660D01*
X0278391Y0115701D01*
X0278418Y0115741D01*
X0278447Y0115778D01*
X0278480Y0115813D01*
X0278515Y0115846D01*
X0278552Y0115875D01*
X0278592Y0115902D01*
X0278633Y0115925D01*
X0278677Y0115945D01*
X0278721Y0115961D01*
X0278767Y0115974D01*
X0278814Y0115984D01*
X0278861Y0115989D01*
X0278909Y0115991D01*
X0278958Y0115989D01*
X0279008Y0115984D01*
X0279056Y0115974D01*
X0279104Y0115962D01*
X0279151Y0115945D01*
X0279196Y0115925D01*
X0279240Y0115902D01*
X0279282Y0115876D01*
X0279322Y0115847D01*
X0279359Y0115814D01*
X0279394Y0115779D01*
X0279427Y0115742D01*
X0279456Y0115702D01*
X0279482Y0115660D01*
X0279505Y0115616D01*
X0279525Y0115571D01*
X0279542Y0115524D01*
X0279554Y0115476D01*
X0279564Y0115428D01*
X0279569Y0115378D01*
X0279571Y0115329D01*
X0279572Y0115329D02*
X0279572Y0111907D01*
X0295964Y0111686D02*
X0295964Y0115384D01*
X0295966Y0115431D01*
X0295971Y0115479D01*
X0295980Y0115526D01*
X0295993Y0115572D01*
X0296010Y0115617D01*
X0296030Y0115660D01*
X0296053Y0115702D01*
X0296079Y0115741D01*
X0296109Y0115779D01*
X0296141Y0115814D01*
X0296176Y0115846D01*
X0296214Y0115876D01*
X0296254Y0115902D01*
X0296295Y0115926D01*
X0296339Y0115946D01*
X0296384Y0115962D01*
X0296430Y0115975D01*
X0296477Y0115984D01*
X0296524Y0115989D01*
X0296572Y0115991D01*
X0296571Y0115991D01*
X0296620Y0115989D01*
X0296670Y0115984D01*
X0296718Y0115974D01*
X0296766Y0115962D01*
X0296813Y0115945D01*
X0296858Y0115925D01*
X0296902Y0115902D01*
X0296944Y0115876D01*
X0296984Y0115847D01*
X0297021Y0115814D01*
X0297056Y0115779D01*
X0297089Y0115742D01*
X0297118Y0115702D01*
X0297144Y0115660D01*
X0297167Y0115616D01*
X0297187Y0115571D01*
X0297204Y0115524D01*
X0297216Y0115476D01*
X0297226Y0115428D01*
X0297231Y0115378D01*
X0297233Y0115329D01*
X0297233Y0114722D01*
X0297233Y0114721D02*
X0297235Y0114663D01*
X0297240Y0114606D01*
X0297250Y0114549D01*
X0297263Y0114492D01*
X0297280Y0114437D01*
X0297300Y0114383D01*
X0297324Y0114330D01*
X0297351Y0114279D01*
X0297381Y0114230D01*
X0297415Y0114183D01*
X0297452Y0114139D01*
X0297491Y0114096D01*
X0297534Y0114057D01*
X0297578Y0114020D01*
X0297625Y0113986D01*
X0297674Y0113956D01*
X0297725Y0113929D01*
X0297778Y0113905D01*
X0297832Y0113885D01*
X0297887Y0113868D01*
X0297944Y0113855D01*
X0298001Y0113845D01*
X0298058Y0113840D01*
X0298116Y0113838D01*
X0298117Y0113839D02*
X0298227Y0113839D01*
X0298228Y0113838D02*
X0298285Y0113840D01*
X0298343Y0113846D01*
X0298400Y0113855D01*
X0298456Y0113868D01*
X0298512Y0113885D01*
X0298566Y0113905D01*
X0298618Y0113929D01*
X0298669Y0113956D01*
X0298718Y0113987D01*
X0298765Y0114020D01*
X0298810Y0114057D01*
X0298852Y0114097D01*
X0298892Y0114139D01*
X0298929Y0114184D01*
X0298962Y0114231D01*
X0298993Y0114280D01*
X0299020Y0114331D01*
X0299044Y0114383D01*
X0299064Y0114437D01*
X0299081Y0114493D01*
X0299094Y0114549D01*
X0299103Y0114606D01*
X0299109Y0114664D01*
X0299111Y0114721D01*
X0299110Y0114722D02*
X0299110Y0115384D01*
X0299112Y0115432D01*
X0299117Y0115479D01*
X0299127Y0115526D01*
X0299140Y0115572D01*
X0299156Y0115616D01*
X0299176Y0115660D01*
X0299199Y0115701D01*
X0299226Y0115741D01*
X0299255Y0115778D01*
X0299288Y0115813D01*
X0299323Y0115846D01*
X0299360Y0115875D01*
X0299400Y0115902D01*
X0299441Y0115925D01*
X0299485Y0115945D01*
X0299529Y0115961D01*
X0299575Y0115974D01*
X0299622Y0115984D01*
X0299669Y0115989D01*
X0299717Y0115991D01*
X0299766Y0115989D01*
X0299816Y0115984D01*
X0299864Y0115974D01*
X0299912Y0115962D01*
X0299959Y0115945D01*
X0300004Y0115925D01*
X0300048Y0115902D01*
X0300090Y0115876D01*
X0300130Y0115847D01*
X0300167Y0115814D01*
X0300202Y0115779D01*
X0300235Y0115742D01*
X0300264Y0115702D01*
X0300290Y0115660D01*
X0300313Y0115616D01*
X0300333Y0115571D01*
X0300350Y0115524D01*
X0300362Y0115476D01*
X0300372Y0115428D01*
X0300377Y0115378D01*
X0300379Y0115329D01*
X0300380Y0115329D02*
X0300380Y0111907D01*
X0300379Y0081717D02*
X0300379Y0078019D01*
X0300379Y0078018D02*
X0300377Y0077971D01*
X0300372Y0077923D01*
X0300363Y0077876D01*
X0300350Y0077830D01*
X0300333Y0077785D01*
X0300313Y0077742D01*
X0300290Y0077700D01*
X0300264Y0077661D01*
X0300234Y0077623D01*
X0300202Y0077588D01*
X0300167Y0077556D01*
X0300129Y0077526D01*
X0300089Y0077500D01*
X0300048Y0077476D01*
X0300004Y0077456D01*
X0299959Y0077440D01*
X0299913Y0077427D01*
X0299866Y0077418D01*
X0299819Y0077413D01*
X0299771Y0077411D01*
X0299772Y0077411D02*
X0299772Y0077411D01*
X0299772Y0077412D02*
X0299723Y0077414D01*
X0299673Y0077419D01*
X0299625Y0077429D01*
X0299577Y0077441D01*
X0299530Y0077458D01*
X0299485Y0077478D01*
X0299441Y0077501D01*
X0299399Y0077527D01*
X0299359Y0077556D01*
X0299322Y0077589D01*
X0299287Y0077624D01*
X0299254Y0077661D01*
X0299225Y0077701D01*
X0299199Y0077743D01*
X0299176Y0077787D01*
X0299156Y0077832D01*
X0299139Y0077879D01*
X0299127Y0077927D01*
X0299117Y0077975D01*
X0299112Y0078025D01*
X0299110Y0078074D01*
X0299110Y0078681D01*
X0299110Y0078680D02*
X0299108Y0078738D01*
X0299103Y0078795D01*
X0299093Y0078852D01*
X0299080Y0078909D01*
X0299063Y0078964D01*
X0299043Y0079018D01*
X0299019Y0079071D01*
X0298992Y0079122D01*
X0298961Y0079171D01*
X0298928Y0079218D01*
X0298891Y0079262D01*
X0298852Y0079305D01*
X0298809Y0079344D01*
X0298765Y0079381D01*
X0298718Y0079414D01*
X0298669Y0079445D01*
X0298618Y0079472D01*
X0298565Y0079496D01*
X0298511Y0079516D01*
X0298456Y0079533D01*
X0298399Y0079546D01*
X0298342Y0079556D01*
X0298285Y0079561D01*
X0298227Y0079563D01*
X0298227Y0079564D02*
X0298116Y0079564D01*
X0298116Y0079563D02*
X0298058Y0079561D01*
X0298001Y0079556D01*
X0297944Y0079546D01*
X0297887Y0079533D01*
X0297832Y0079516D01*
X0297778Y0079496D01*
X0297725Y0079472D01*
X0297674Y0079445D01*
X0297625Y0079414D01*
X0297578Y0079381D01*
X0297534Y0079344D01*
X0297491Y0079305D01*
X0297452Y0079262D01*
X0297415Y0079218D01*
X0297382Y0079171D01*
X0297351Y0079122D01*
X0297324Y0079071D01*
X0297300Y0079018D01*
X0297280Y0078964D01*
X0297263Y0078909D01*
X0297250Y0078852D01*
X0297240Y0078795D01*
X0297235Y0078738D01*
X0297233Y0078680D01*
X0297233Y0078681D02*
X0297233Y0078019D01*
X0297231Y0077971D01*
X0297226Y0077924D01*
X0297216Y0077877D01*
X0297203Y0077831D01*
X0297187Y0077787D01*
X0297167Y0077743D01*
X0297144Y0077702D01*
X0297117Y0077662D01*
X0297088Y0077625D01*
X0297055Y0077590D01*
X0297020Y0077557D01*
X0296983Y0077528D01*
X0296943Y0077501D01*
X0296902Y0077478D01*
X0296858Y0077458D01*
X0296814Y0077442D01*
X0296768Y0077429D01*
X0296721Y0077419D01*
X0296674Y0077414D01*
X0296626Y0077412D01*
X0296577Y0077414D01*
X0296527Y0077419D01*
X0296479Y0077429D01*
X0296431Y0077441D01*
X0296384Y0077458D01*
X0296339Y0077478D01*
X0296295Y0077501D01*
X0296253Y0077527D01*
X0296213Y0077556D01*
X0296176Y0077589D01*
X0296141Y0077624D01*
X0296108Y0077661D01*
X0296079Y0077701D01*
X0296053Y0077743D01*
X0296030Y0077787D01*
X0296010Y0077832D01*
X0295993Y0077879D01*
X0295981Y0077927D01*
X0295971Y0077975D01*
X0295966Y0078025D01*
X0295964Y0078074D01*
X0295964Y0081496D01*
X0279571Y0081717D02*
X0279571Y0078019D01*
X0279572Y0078019D02*
X0279570Y0077971D01*
X0279565Y0077923D01*
X0279555Y0077877D01*
X0279543Y0077831D01*
X0279526Y0077786D01*
X0279506Y0077742D01*
X0279483Y0077701D01*
X0279456Y0077661D01*
X0279427Y0077623D01*
X0279394Y0077588D01*
X0279359Y0077556D01*
X0279322Y0077526D01*
X0279282Y0077500D01*
X0279240Y0077477D01*
X0279197Y0077457D01*
X0279152Y0077440D01*
X0279106Y0077427D01*
X0279059Y0077418D01*
X0279012Y0077413D01*
X0278964Y0077411D01*
X0278964Y0077411D01*
X0278964Y0077412D02*
X0278915Y0077414D01*
X0278865Y0077419D01*
X0278817Y0077429D01*
X0278769Y0077441D01*
X0278722Y0077458D01*
X0278677Y0077478D01*
X0278633Y0077501D01*
X0278591Y0077527D01*
X0278551Y0077556D01*
X0278514Y0077589D01*
X0278479Y0077624D01*
X0278446Y0077661D01*
X0278417Y0077701D01*
X0278391Y0077743D01*
X0278368Y0077787D01*
X0278348Y0077832D01*
X0278331Y0077879D01*
X0278319Y0077927D01*
X0278309Y0077975D01*
X0278304Y0078025D01*
X0278302Y0078074D01*
X0278302Y0078681D01*
X0278300Y0078739D01*
X0278294Y0078796D01*
X0278285Y0078853D01*
X0278272Y0078910D01*
X0278255Y0078965D01*
X0278235Y0079019D01*
X0278211Y0079072D01*
X0278184Y0079123D01*
X0278153Y0079172D01*
X0278120Y0079219D01*
X0278083Y0079263D01*
X0278043Y0079305D01*
X0278001Y0079345D01*
X0277957Y0079382D01*
X0277910Y0079415D01*
X0277861Y0079446D01*
X0277810Y0079473D01*
X0277757Y0079497D01*
X0277703Y0079517D01*
X0277648Y0079534D01*
X0277591Y0079547D01*
X0277534Y0079556D01*
X0277477Y0079562D01*
X0277419Y0079564D01*
X0277308Y0079564D01*
X0277251Y0079562D01*
X0277193Y0079556D01*
X0277136Y0079547D01*
X0277080Y0079534D01*
X0277024Y0079517D01*
X0276970Y0079497D01*
X0276918Y0079473D01*
X0276867Y0079446D01*
X0276818Y0079415D01*
X0276771Y0079382D01*
X0276726Y0079345D01*
X0276684Y0079305D01*
X0276644Y0079263D01*
X0276607Y0079218D01*
X0276574Y0079171D01*
X0276543Y0079122D01*
X0276516Y0079071D01*
X0276492Y0079019D01*
X0276472Y0078965D01*
X0276455Y0078909D01*
X0276442Y0078853D01*
X0276433Y0078796D01*
X0276427Y0078738D01*
X0276425Y0078681D01*
X0276425Y0078019D01*
X0276423Y0077971D01*
X0276418Y0077924D01*
X0276408Y0077877D01*
X0276395Y0077831D01*
X0276379Y0077787D01*
X0276359Y0077743D01*
X0276336Y0077702D01*
X0276309Y0077662D01*
X0276280Y0077625D01*
X0276247Y0077590D01*
X0276212Y0077557D01*
X0276175Y0077528D01*
X0276135Y0077501D01*
X0276094Y0077478D01*
X0276050Y0077458D01*
X0276006Y0077442D01*
X0275960Y0077429D01*
X0275913Y0077419D01*
X0275866Y0077414D01*
X0275818Y0077412D01*
X0275769Y0077414D01*
X0275719Y0077419D01*
X0275671Y0077429D01*
X0275623Y0077441D01*
X0275576Y0077458D01*
X0275531Y0077478D01*
X0275487Y0077501D01*
X0275445Y0077527D01*
X0275405Y0077556D01*
X0275368Y0077589D01*
X0275333Y0077624D01*
X0275300Y0077661D01*
X0275271Y0077701D01*
X0275245Y0077743D01*
X0275222Y0077787D01*
X0275202Y0077832D01*
X0275185Y0077879D01*
X0275173Y0077927D01*
X0275163Y0077975D01*
X0275158Y0078025D01*
X0275156Y0078074D01*
X0275156Y0081772D01*
X0305512Y0081937D02*
X0305512Y0088008D01*
X0305513Y0088009D02*
X0305511Y0088081D01*
X0305505Y0088153D01*
X0305496Y0088225D01*
X0305483Y0088296D01*
X0305466Y0088366D01*
X0305446Y0088435D01*
X0305421Y0088503D01*
X0305394Y0088570D01*
X0305363Y0088635D01*
X0305328Y0088699D01*
X0305290Y0088761D01*
X0305249Y0088820D01*
X0305205Y0088877D01*
X0305159Y0088932D01*
X0305109Y0088985D01*
X0305056Y0089035D01*
X0305001Y0089081D01*
X0304944Y0089125D01*
X0304885Y0089166D01*
X0304823Y0089204D01*
X0304759Y0089239D01*
X0304694Y0089270D01*
X0304627Y0089297D01*
X0304559Y0089322D01*
X0304490Y0089342D01*
X0304420Y0089359D01*
X0304349Y0089372D01*
X0304277Y0089381D01*
X0304205Y0089387D01*
X0304133Y0089389D01*
X0304132Y0089388D02*
X0303967Y0089388D01*
X0289506Y0090050D01*
X0289458Y0090051D01*
X0289411Y0090047D01*
X0289364Y0090039D01*
X0289317Y0090028D01*
X0289272Y0090012D01*
X0289228Y0089993D01*
X0289186Y0089971D01*
X0289145Y0089945D01*
X0289107Y0089915D01*
X0289072Y0089883D01*
X0289039Y0089848D01*
X0289010Y0089811D01*
X0288983Y0089771D01*
X0288960Y0089729D01*
X0288941Y0089685D01*
X0288925Y0089640D01*
X0288913Y0089593D01*
X0288905Y0089546D01*
X0288901Y0089499D01*
X0288900Y0089451D01*
X0288904Y0089403D01*
X0288912Y0089356D01*
X0288923Y0089309D01*
X0288938Y0089264D01*
X0288957Y0089220D01*
X0288980Y0089178D01*
X0289006Y0089137D01*
X0289035Y0089099D01*
X0289067Y0089064D01*
X0289102Y0089031D01*
X0289139Y0089001D01*
X0289179Y0088975D01*
X0289221Y0088952D01*
X0289265Y0088932D01*
X0289310Y0088916D01*
X0289356Y0088904D01*
X0289404Y0088896D01*
X0289451Y0088892D01*
X0289451Y0088891D02*
X0302808Y0088008D01*
X0302869Y0088002D01*
X0302930Y0087992D01*
X0302990Y0087978D01*
X0303050Y0087960D01*
X0303108Y0087939D01*
X0303164Y0087914D01*
X0303219Y0087885D01*
X0303272Y0087853D01*
X0303322Y0087818D01*
X0303371Y0087780D01*
X0303416Y0087738D01*
X0303459Y0087694D01*
X0303499Y0087647D01*
X0303536Y0087597D01*
X0303570Y0087546D01*
X0303601Y0087492D01*
X0303627Y0087436D01*
X0303651Y0087379D01*
X0303670Y0087320D01*
X0303686Y0087261D01*
X0303698Y0087200D01*
X0303706Y0087139D01*
X0303710Y0087077D01*
X0303711Y0087015D01*
X0303707Y0086954D01*
X0303699Y0086892D01*
X0303688Y0086832D01*
X0303672Y0086772D01*
X0303653Y0086713D01*
X0303630Y0086656D01*
X0303604Y0086600D01*
X0303574Y0086546D01*
X0303540Y0086494D01*
X0303504Y0086444D01*
X0303464Y0086397D01*
X0303421Y0086353D01*
X0303376Y0086311D01*
X0303328Y0086272D01*
X0303277Y0086236D01*
X0303225Y0086204D01*
X0303170Y0086175D01*
X0303114Y0086149D01*
X0303056Y0086128D01*
X0302997Y0086110D01*
X0302937Y0086095D01*
X0302876Y0086085D01*
X0302814Y0086079D01*
X0302753Y0086076D01*
X0289341Y0085193D01*
X0289300Y0085189D01*
X0289260Y0085181D01*
X0289221Y0085169D01*
X0289183Y0085155D01*
X0289146Y0085137D01*
X0289111Y0085116D01*
X0289078Y0085092D01*
X0289047Y0085065D01*
X0289019Y0085035D01*
X0288993Y0085004D01*
X0288970Y0084970D01*
X0288950Y0084934D01*
X0288933Y0084897D01*
X0288919Y0084859D01*
X0288909Y0084819D01*
X0288903Y0084779D01*
X0288899Y0084738D01*
X0288900Y0084697D01*
X0288899Y0084697D02*
X0288899Y0081937D01*
X0289065Y0092423D02*
X0288993Y0092425D01*
X0288922Y0092431D01*
X0288851Y0092441D01*
X0288780Y0092454D01*
X0288711Y0092471D01*
X0288642Y0092493D01*
X0288575Y0092517D01*
X0288509Y0092546D01*
X0288445Y0092578D01*
X0288382Y0092613D01*
X0288322Y0092652D01*
X0288263Y0092693D01*
X0288208Y0092738D01*
X0288154Y0092786D01*
X0288103Y0092837D01*
X0288055Y0092891D01*
X0288010Y0092946D01*
X0287969Y0093005D01*
X0287930Y0093065D01*
X0287895Y0093128D01*
X0287863Y0093192D01*
X0287834Y0093258D01*
X0287810Y0093325D01*
X0287788Y0093394D01*
X0287771Y0093463D01*
X0287758Y0093534D01*
X0287748Y0093605D01*
X0287742Y0093676D01*
X0287740Y0093748D01*
X0289065Y0092424D02*
X0304905Y0091596D01*
X0304950Y0091595D01*
X0304994Y0091599D01*
X0305038Y0091606D01*
X0305082Y0091616D01*
X0305124Y0091631D01*
X0305165Y0091649D01*
X0305204Y0091670D01*
X0305241Y0091695D01*
X0305276Y0091722D01*
X0305308Y0091753D01*
X0305338Y0091786D01*
X0305365Y0091822D01*
X0305389Y0091859D01*
X0305409Y0091899D01*
X0305426Y0091940D01*
X0305440Y0091983D01*
X0305450Y0092026D01*
X0305456Y0092070D01*
X0305458Y0092115D01*
X0305457Y0092159D01*
X0305451Y0092204D01*
X0305442Y0092247D01*
X0305430Y0092290D01*
X0305414Y0092331D01*
X0305394Y0092371D01*
X0305371Y0092410D01*
X0305345Y0092446D01*
X0305316Y0092479D01*
X0305284Y0092511D01*
X0305249Y0092539D01*
X0305213Y0092564D01*
X0305174Y0092586D01*
X0305134Y0092605D01*
X0305092Y0092620D01*
X0305049Y0092632D01*
X0305005Y0092640D01*
X0304961Y0092644D01*
X0304960Y0092644D02*
X0292707Y0093307D01*
X0292626Y0093309D01*
X0292544Y0093315D01*
X0292463Y0093324D01*
X0292383Y0093338D01*
X0292304Y0093355D01*
X0292225Y0093376D01*
X0292147Y0093401D01*
X0292071Y0093430D01*
X0291996Y0093462D01*
X0291923Y0093497D01*
X0291852Y0093536D01*
X0291782Y0093579D01*
X0291715Y0093624D01*
X0291649Y0093673D01*
X0291587Y0093725D01*
X0291526Y0093780D01*
X0291469Y0093837D01*
X0291414Y0093898D01*
X0291362Y0093960D01*
X0291313Y0094026D01*
X0291268Y0094093D01*
X0291225Y0094163D01*
X0291186Y0094234D01*
X0291151Y0094307D01*
X0291119Y0094382D01*
X0291090Y0094458D01*
X0291065Y0094536D01*
X0291044Y0094615D01*
X0291027Y0094694D01*
X0291013Y0094774D01*
X0291004Y0094855D01*
X0290998Y0094937D01*
X0290996Y0095018D01*
X0290996Y0098495D01*
X0290998Y0098574D01*
X0291003Y0098652D01*
X0291013Y0098731D01*
X0291026Y0098808D01*
X0291043Y0098885D01*
X0291063Y0098962D01*
X0291087Y0099037D01*
X0291115Y0099110D01*
X0291146Y0099183D01*
X0291180Y0099254D01*
X0291218Y0099323D01*
X0291259Y0099390D01*
X0291303Y0099456D01*
X0291350Y0099519D01*
X0291400Y0099579D01*
X0291453Y0099638D01*
X0291509Y0099694D01*
X0291568Y0099747D01*
X0291628Y0099797D01*
X0291691Y0099844D01*
X0291757Y0099888D01*
X0291824Y0099929D01*
X0291893Y0099967D01*
X0291964Y0100001D01*
X0292037Y0100032D01*
X0292110Y0100060D01*
X0292185Y0100084D01*
X0292262Y0100104D01*
X0292339Y0100121D01*
X0292416Y0100134D01*
X0292495Y0100144D01*
X0292573Y0100149D01*
X0292652Y0100151D01*
X0292928Y0100151D01*
X0304905Y0100703D01*
X0304906Y0100704D02*
X0304952Y0100708D01*
X0304998Y0100716D01*
X0305043Y0100728D01*
X0305087Y0100743D01*
X0305130Y0100763D01*
X0305171Y0100786D01*
X0305209Y0100812D01*
X0305246Y0100841D01*
X0305279Y0100874D01*
X0305310Y0100909D01*
X0305338Y0100947D01*
X0305362Y0100986D01*
X0305383Y0101028D01*
X0305401Y0101072D01*
X0305414Y0101116D01*
X0305424Y0101162D01*
X0305430Y0101208D01*
X0305432Y0101255D01*
X0305430Y0101302D01*
X0305424Y0101348D01*
X0305414Y0101394D01*
X0305401Y0101438D01*
X0305383Y0101482D01*
X0305362Y0101524D01*
X0305338Y0101563D01*
X0305310Y0101601D01*
X0305279Y0101636D01*
X0305246Y0101669D01*
X0305209Y0101698D01*
X0305171Y0101724D01*
X0305130Y0101747D01*
X0305087Y0101767D01*
X0305043Y0101782D01*
X0304998Y0101794D01*
X0304952Y0101802D01*
X0304906Y0101806D01*
X0304905Y0101806D02*
X0289175Y0100979D01*
X0289100Y0100977D01*
X0289025Y0100971D01*
X0288951Y0100961D01*
X0288877Y0100948D01*
X0288804Y0100930D01*
X0288732Y0100909D01*
X0288661Y0100884D01*
X0288591Y0100855D01*
X0288524Y0100823D01*
X0288458Y0100787D01*
X0288393Y0100747D01*
X0288332Y0100705D01*
X0288272Y0100659D01*
X0288215Y0100610D01*
X0288160Y0100559D01*
X0288109Y0100504D01*
X0288060Y0100447D01*
X0288014Y0100387D01*
X0287972Y0100326D01*
X0287932Y0100262D01*
X0287896Y0100195D01*
X0287864Y0100128D01*
X0287835Y0100058D01*
X0287810Y0099987D01*
X0287789Y0099915D01*
X0287771Y0099842D01*
X0287758Y0099768D01*
X0287748Y0099694D01*
X0287742Y0099619D01*
X0287740Y0099544D01*
X0287740Y0093748D01*
X0305512Y0105394D02*
X0305512Y0111465D01*
X0305511Y0105394D02*
X0305509Y0105321D01*
X0305503Y0105249D01*
X0305494Y0105178D01*
X0305481Y0105107D01*
X0305464Y0105037D01*
X0305443Y0104967D01*
X0305419Y0104899D01*
X0305392Y0104833D01*
X0305361Y0104767D01*
X0305326Y0104704D01*
X0305288Y0104642D01*
X0305247Y0104583D01*
X0305203Y0104525D01*
X0305157Y0104471D01*
X0305107Y0104418D01*
X0305054Y0104368D01*
X0305000Y0104322D01*
X0304942Y0104278D01*
X0304883Y0104237D01*
X0304821Y0104199D01*
X0304758Y0104164D01*
X0304692Y0104133D01*
X0304626Y0104106D01*
X0304558Y0104082D01*
X0304488Y0104061D01*
X0304418Y0104044D01*
X0304347Y0104031D01*
X0304276Y0104022D01*
X0304204Y0104016D01*
X0304131Y0104014D01*
X0304132Y0104014D02*
X0303967Y0104014D01*
X0289506Y0103352D01*
X0289506Y0103353D02*
X0289458Y0103352D01*
X0289411Y0103356D01*
X0289364Y0103364D01*
X0289317Y0103375D01*
X0289272Y0103391D01*
X0289228Y0103410D01*
X0289186Y0103432D01*
X0289145Y0103458D01*
X0289107Y0103488D01*
X0289072Y0103520D01*
X0289039Y0103555D01*
X0289010Y0103592D01*
X0288983Y0103632D01*
X0288960Y0103674D01*
X0288941Y0103718D01*
X0288925Y0103763D01*
X0288913Y0103810D01*
X0288905Y0103857D01*
X0288901Y0103904D01*
X0288900Y0103952D01*
X0288904Y0104000D01*
X0288912Y0104047D01*
X0288923Y0104094D01*
X0288938Y0104139D01*
X0288957Y0104183D01*
X0288980Y0104225D01*
X0289006Y0104266D01*
X0289035Y0104304D01*
X0289067Y0104339D01*
X0289102Y0104372D01*
X0289139Y0104402D01*
X0289179Y0104428D01*
X0289221Y0104451D01*
X0289265Y0104471D01*
X0289310Y0104487D01*
X0289356Y0104499D01*
X0289404Y0104507D01*
X0289451Y0104511D01*
X0302807Y0105394D01*
X0302808Y0105394D02*
X0302869Y0105400D01*
X0302930Y0105410D01*
X0302990Y0105424D01*
X0303050Y0105442D01*
X0303108Y0105463D01*
X0303164Y0105488D01*
X0303219Y0105517D01*
X0303272Y0105549D01*
X0303322Y0105584D01*
X0303371Y0105622D01*
X0303416Y0105664D01*
X0303459Y0105708D01*
X0303499Y0105755D01*
X0303536Y0105805D01*
X0303570Y0105856D01*
X0303601Y0105910D01*
X0303627Y0105966D01*
X0303651Y0106023D01*
X0303670Y0106082D01*
X0303686Y0106141D01*
X0303698Y0106202D01*
X0303706Y0106263D01*
X0303710Y0106325D01*
X0303711Y0106387D01*
X0303707Y0106448D01*
X0303699Y0106510D01*
X0303688Y0106570D01*
X0303672Y0106630D01*
X0303653Y0106689D01*
X0303630Y0106746D01*
X0303604Y0106802D01*
X0303574Y0106856D01*
X0303540Y0106908D01*
X0303504Y0106958D01*
X0303464Y0107005D01*
X0303421Y0107049D01*
X0303376Y0107091D01*
X0303328Y0107130D01*
X0303277Y0107166D01*
X0303225Y0107198D01*
X0303170Y0107227D01*
X0303114Y0107253D01*
X0303056Y0107274D01*
X0302997Y0107292D01*
X0302937Y0107307D01*
X0302876Y0107317D01*
X0302814Y0107323D01*
X0302753Y0107326D01*
X0302752Y0107326D02*
X0289341Y0108209D01*
X0289300Y0108213D01*
X0289260Y0108221D01*
X0289221Y0108233D01*
X0289183Y0108247D01*
X0289146Y0108265D01*
X0289111Y0108286D01*
X0289078Y0108310D01*
X0289047Y0108337D01*
X0289019Y0108367D01*
X0288993Y0108398D01*
X0288970Y0108432D01*
X0288950Y0108468D01*
X0288933Y0108505D01*
X0288919Y0108543D01*
X0288909Y0108583D01*
X0288903Y0108623D01*
X0288899Y0108664D01*
X0288900Y0108705D01*
X0288899Y0108706D02*
X0288899Y0111465D01*
X0286569Y0113500D02*
X0283500Y0118104D01*
X0286569Y0118104D02*
X0283500Y0113500D01*
X0288104Y0116569D02*
X0289639Y0118104D01*
X0289639Y0113500D01*
X0291173Y0113500D02*
X0288104Y0113500D01*
X0272069Y0151137D02*
X0271302Y0151904D01*
X0269767Y0151904D01*
X0269000Y0151137D01*
X0269000Y0150369D01*
X0269767Y0149602D01*
X0271302Y0149602D01*
X0272069Y0148835D01*
X0272069Y0148067D01*
X0271302Y0147300D01*
X0269767Y0147300D01*
X0269000Y0148067D01*
X0273604Y0151904D02*
X0273604Y0147300D01*
X0275139Y0148835D01*
X0276673Y0147300D01*
X0276673Y0151904D01*
X0278208Y0148067D02*
X0278208Y0151137D01*
X0278975Y0151904D01*
X0280510Y0151904D01*
X0281277Y0151137D01*
X0281277Y0148067D01*
X0280510Y0147300D01*
X0278975Y0147300D01*
X0278208Y0148067D01*
X0281277Y0151137D01*
X0232369Y0150637D02*
X0231602Y0151404D01*
X0230067Y0151404D01*
X0229300Y0150637D01*
X0229300Y0149869D01*
X0230067Y0149102D01*
X0231602Y0149102D01*
X0232369Y0148335D01*
X0232369Y0147567D01*
X0231602Y0146800D01*
X0230067Y0146800D01*
X0229300Y0147567D01*
X0233904Y0151404D02*
X0233904Y0146800D01*
X0235439Y0148335D01*
X0236973Y0146800D01*
X0236973Y0151404D01*
X0238508Y0149869D02*
X0240042Y0151404D01*
X0240042Y0146800D01*
X0238508Y0146800D02*
X0241577Y0146800D01*
X0065071Y0137517D02*
X0065071Y0132913D01*
X0068140Y0132913D01*
X0072744Y0137517D02*
X0069675Y0137517D01*
X0069675Y0132913D01*
X0072744Y0132913D01*
X0071209Y0135215D02*
X0069675Y0135215D01*
X0074279Y0137517D02*
X0074279Y0132913D01*
X0076581Y0132913D01*
X0077348Y0133681D01*
X0077348Y0136750D01*
X0076581Y0137517D01*
X0074279Y0137517D01*
X0078883Y0133681D02*
X0078883Y0136750D01*
X0079650Y0137517D01*
X0081185Y0137517D01*
X0081952Y0136750D01*
X0081952Y0133681D01*
X0081185Y0132913D01*
X0079650Y0132913D01*
X0078883Y0133681D01*
X0081952Y0136750D01*
X0088071Y0137717D02*
X0088071Y0133113D01*
X0091140Y0133113D01*
X0095744Y0137717D02*
X0092675Y0137717D01*
X0092675Y0133113D01*
X0095744Y0133113D01*
X0094209Y0135415D02*
X0092675Y0135415D01*
X0097279Y0137717D02*
X0097279Y0133113D01*
X0099581Y0133113D01*
X0100348Y0133881D01*
X0100348Y0136950D01*
X0099581Y0137717D01*
X0097279Y0137717D01*
X0101883Y0136183D02*
X0103417Y0137717D01*
X0103417Y0133113D01*
X0101883Y0133113D02*
X0104952Y0133113D01*
X0109971Y0137117D02*
X0109971Y0132513D01*
X0113040Y0132513D01*
X0117644Y0137117D02*
X0114575Y0137117D01*
X0114575Y0132513D01*
X0117644Y0132513D01*
X0116109Y0134815D02*
X0114575Y0134815D01*
X0119179Y0137117D02*
X0119179Y0132513D01*
X0121481Y0132513D01*
X0122248Y0133281D01*
X0122248Y0136350D01*
X0121481Y0137117D01*
X0119179Y0137117D01*
X0126852Y0132513D02*
X0123783Y0132513D01*
X0126852Y0135583D01*
X0126852Y0136350D01*
X0126085Y0137117D01*
X0124550Y0137117D01*
X0123783Y0136350D01*
X0149300Y0026167D02*
X0150067Y0025400D01*
X0150835Y0025400D01*
X0151602Y0026167D01*
X0151602Y0030004D01*
X0150835Y0030004D02*
X0152369Y0030004D01*
X0153904Y0025400D02*
X0153904Y0030004D01*
X0156206Y0030004D01*
X0156973Y0029237D01*
X0156973Y0027702D01*
X0156206Y0026935D01*
X0153904Y0026935D01*
X0158508Y0028469D02*
X0160042Y0030004D01*
X0160042Y0025400D01*
X0158508Y0025400D02*
X0161577Y0025400D01*
X0268657Y0065937D02*
X0267890Y0066704D01*
X0266356Y0066704D01*
X0265588Y0065937D01*
X0265588Y0062867D01*
X0266356Y0062100D01*
X0267890Y0062100D01*
X0268657Y0062867D01*
X0270192Y0065169D02*
X0271727Y0066704D01*
X0271727Y0062100D01*
X0273261Y0062100D02*
X0270192Y0062100D01*
X0274796Y0065169D02*
X0276331Y0066704D01*
X0276331Y0062100D01*
X0277865Y0062100D02*
X0274796Y0062100D01*
X0299269Y0067937D02*
X0298502Y0068704D01*
X0296967Y0068704D01*
X0296200Y0067937D01*
X0296200Y0064867D01*
X0296967Y0064100D01*
X0298502Y0064100D01*
X0299269Y0064867D01*
X0300804Y0067169D02*
X0302339Y0068704D01*
X0302339Y0064100D01*
X0303873Y0064100D02*
X0300804Y0064100D01*
X0308477Y0064100D02*
X0305408Y0064100D01*
X0308477Y0067169D01*
X0308477Y0067937D01*
X0307710Y0068704D01*
X0306175Y0068704D01*
X0305408Y0067937D01*
X0244663Y0032469D02*
X0243896Y0031702D01*
X0243896Y0030167D01*
X0244663Y0029400D01*
X0247733Y0029400D01*
X0248500Y0030167D01*
X0248500Y0031702D01*
X0247733Y0032469D01*
X0245431Y0034004D02*
X0243896Y0035539D01*
X0248500Y0035539D01*
X0248500Y0037073D02*
X0248500Y0034004D01*
X0244663Y0038608D02*
X0243896Y0039375D01*
X0243896Y0040910D01*
X0244663Y0041677D01*
X0245431Y0041677D01*
X0246198Y0040910D01*
X0246198Y0040142D01*
X0246198Y0040910D02*
X0246965Y0041677D01*
X0247733Y0041677D01*
X0248500Y0040910D01*
X0248500Y0039375D01*
X0247733Y0038608D01*
X0262469Y0016737D02*
X0261702Y0017504D01*
X0260167Y0017504D01*
X0259400Y0016737D01*
X0259400Y0013667D01*
X0260167Y0012900D01*
X0261702Y0012900D01*
X0262469Y0013667D01*
X0264004Y0015969D02*
X0265539Y0017504D01*
X0265539Y0012900D01*
X0267073Y0012900D02*
X0264004Y0012900D01*
X0270910Y0012900D02*
X0270910Y0017504D01*
X0268608Y0015202D01*
X0271677Y0015202D01*
X0302463Y0033257D02*
X0301696Y0032490D01*
X0301696Y0030956D01*
X0302463Y0030188D01*
X0305533Y0030188D01*
X0306300Y0030956D01*
X0306300Y0032490D01*
X0305533Y0033257D01*
X0303231Y0034792D02*
X0301696Y0036327D01*
X0306300Y0036327D01*
X0306300Y0037861D02*
X0306300Y0034792D01*
X0301696Y0042465D02*
X0301696Y0039396D01*
X0303998Y0039396D01*
X0303231Y0040931D01*
X0303231Y0041698D01*
X0303998Y0042465D01*
X0305533Y0042465D01*
X0306300Y0041698D01*
X0306300Y0040163D01*
X0305533Y0039396D01*
X0293669Y0055237D02*
X0292902Y0056004D01*
X0291367Y0056004D01*
X0290600Y0055237D01*
X0290600Y0052167D01*
X0291367Y0051400D01*
X0292902Y0051400D01*
X0293669Y0052167D01*
X0295204Y0054469D02*
X0296739Y0056004D01*
X0296739Y0051400D01*
X0298273Y0051400D02*
X0295204Y0051400D01*
X0302877Y0056004D02*
X0301342Y0055237D01*
X0299808Y0053702D01*
X0299808Y0052167D01*
X0300575Y0051400D01*
X0302110Y0051400D01*
X0302877Y0052167D01*
X0302877Y0052935D01*
X0302110Y0053702D01*
X0299808Y0053702D01*
X0229969Y0070037D02*
X0229202Y0070804D01*
X0227667Y0070804D01*
X0226900Y0070037D01*
X0226900Y0066967D01*
X0227667Y0066200D01*
X0229202Y0066200D01*
X0229969Y0066967D01*
X0231504Y0069269D02*
X0233039Y0070804D01*
X0233039Y0066200D01*
X0234573Y0066200D02*
X0231504Y0066200D01*
X0236108Y0070804D02*
X0239177Y0070804D01*
X0239177Y0070037D01*
X0236108Y0066967D01*
X0236108Y0066200D01*
X0266988Y0054600D02*
X0266988Y0059204D01*
X0269290Y0059204D01*
X0270057Y0058437D01*
X0270057Y0056902D01*
X0269290Y0056135D01*
X0266988Y0056135D01*
X0268523Y0056135D02*
X0270057Y0054600D01*
X0271592Y0057669D02*
X0273127Y0059204D01*
X0273127Y0054600D01*
X0274661Y0054600D02*
X0271592Y0054600D01*
X0276196Y0057669D02*
X0277731Y0059204D01*
X0277731Y0054600D01*
X0279265Y0054600D02*
X0276196Y0054600D01*
X0268922Y0070746D02*
X0268922Y0075350D01*
X0271224Y0075350D01*
X0271991Y0074583D01*
X0271991Y0073048D01*
X0271224Y0072281D01*
X0268922Y0072281D01*
X0270456Y0072281D02*
X0271991Y0070746D01*
X0273526Y0073816D02*
X0275060Y0075350D01*
X0275060Y0070746D01*
X0273526Y0070746D02*
X0276595Y0070746D01*
X0281199Y0070746D02*
X0278130Y0070746D01*
X0281199Y0073816D01*
X0281199Y0074583D01*
X0280432Y0075350D01*
X0278897Y0075350D01*
X0278130Y0074583D01*
X0256834Y0077807D02*
X0256834Y0082411D01*
X0259136Y0082411D01*
X0259903Y0081644D01*
X0259903Y0080109D01*
X0259136Y0079342D01*
X0256834Y0079342D01*
X0258369Y0079342D02*
X0259903Y0077807D01*
X0261438Y0080876D02*
X0262973Y0082411D01*
X0262973Y0077807D01*
X0264507Y0077807D02*
X0261438Y0077807D01*
X0266042Y0081644D02*
X0266809Y0082411D01*
X0268344Y0082411D01*
X0269111Y0081644D01*
X0269111Y0080876D01*
X0268344Y0080109D01*
X0267577Y0080109D01*
X0268344Y0080109D02*
X0269111Y0079342D01*
X0269111Y0078574D01*
X0268344Y0077807D01*
X0266809Y0077807D01*
X0266042Y0078574D01*
X0245588Y0023500D02*
X0245588Y0028104D01*
X0247890Y0028104D01*
X0248657Y0027337D01*
X0248657Y0025802D01*
X0247890Y0025035D01*
X0245588Y0025035D01*
X0247123Y0025035D02*
X0248657Y0023500D01*
X0250192Y0026569D02*
X0251727Y0028104D01*
X0251727Y0023500D01*
X0253261Y0023500D02*
X0250192Y0023500D01*
X0257865Y0028104D02*
X0254796Y0028104D01*
X0254796Y0025802D01*
X0256331Y0026569D01*
X0257098Y0026569D01*
X0257865Y0025802D01*
X0257865Y0024267D01*
X0257098Y0023500D01*
X0255563Y0023500D01*
X0254796Y0024267D01*
X0247500Y0043600D02*
X0247500Y0048204D01*
X0249802Y0048204D01*
X0250569Y0047437D01*
X0250569Y0045902D01*
X0249802Y0045135D01*
X0247500Y0045135D01*
X0249035Y0045135D02*
X0250569Y0043600D01*
X0252104Y0046669D02*
X0253639Y0048204D01*
X0253639Y0043600D01*
X0255173Y0043600D02*
X0252104Y0043600D01*
X0259777Y0048204D02*
X0258242Y0047437D01*
X0256708Y0045902D01*
X0256708Y0044367D01*
X0257475Y0043600D01*
X0259010Y0043600D01*
X0259777Y0044367D01*
X0259777Y0045135D01*
X0259010Y0045902D01*
X0256708Y0045902D01*
X0295000Y0046500D02*
X0295000Y0051104D01*
X0297302Y0051104D01*
X0298069Y0050337D01*
X0298069Y0048802D01*
X0297302Y0048035D01*
X0295000Y0048035D01*
X0296535Y0048035D02*
X0298069Y0046500D01*
X0299604Y0049569D02*
X0301139Y0051104D01*
X0301139Y0046500D01*
X0302673Y0046500D02*
X0299604Y0046500D01*
X0304208Y0050337D02*
X0304975Y0051104D01*
X0306510Y0051104D01*
X0307277Y0050337D01*
X0307277Y0049569D01*
X0306510Y0048802D01*
X0307277Y0048035D01*
X0307277Y0047267D01*
X0306510Y0046500D01*
X0304975Y0046500D01*
X0304208Y0047267D01*
X0304208Y0048035D01*
X0304975Y0048802D01*
X0304208Y0049569D01*
X0304208Y0050337D01*
X0304975Y0048802D02*
X0306510Y0048802D01*
X0283500Y0030100D02*
X0283500Y0034704D01*
X0285802Y0034704D01*
X0286569Y0033937D01*
X0286569Y0032402D01*
X0285802Y0031635D01*
X0283500Y0031635D01*
X0285035Y0031635D02*
X0286569Y0030100D01*
X0288104Y0033169D02*
X0289639Y0034704D01*
X0289639Y0030100D01*
X0291173Y0030100D02*
X0288104Y0030100D01*
X0292708Y0030867D02*
X0293475Y0030100D01*
X0295010Y0030100D01*
X0295777Y0030867D01*
X0295777Y0033937D01*
X0295010Y0034704D01*
X0293475Y0034704D01*
X0292708Y0033937D01*
X0292708Y0033169D01*
X0293475Y0032402D01*
X0295777Y0032402D01*
X0295800Y0057100D02*
X0295800Y0061704D01*
X0298102Y0061704D01*
X0298869Y0060937D01*
X0298869Y0059402D01*
X0298102Y0058635D01*
X0295800Y0058635D01*
X0297335Y0058635D02*
X0298869Y0057100D01*
X0303473Y0057100D02*
X0300404Y0057100D01*
X0303473Y0060169D01*
X0303473Y0060937D01*
X0302706Y0061704D01*
X0301171Y0061704D01*
X0300404Y0060937D01*
X0305008Y0057867D02*
X0305008Y0060937D01*
X0305775Y0061704D01*
X0307310Y0061704D01*
X0308077Y0060937D01*
X0308077Y0057867D01*
X0307310Y0057100D01*
X0305775Y0057100D01*
X0305008Y0057867D01*
X0308077Y0060937D01*
X0262796Y0018288D02*
X0267400Y0018288D01*
X0267400Y0021357D01*
X0264331Y0022892D02*
X0262796Y0024427D01*
X0267400Y0024427D01*
X0267400Y0025961D02*
X0267400Y0022892D01*
X0264331Y0027496D02*
X0262796Y0029031D01*
X0267400Y0029031D01*
X0267400Y0030565D02*
X0267400Y0027496D01*
X0276396Y0018200D02*
X0281000Y0018200D01*
X0281000Y0021269D01*
X0277931Y0022804D02*
X0276396Y0024339D01*
X0281000Y0024339D01*
X0281000Y0025873D02*
X0281000Y0022804D01*
X0281000Y0030477D02*
X0281000Y0027408D01*
X0277931Y0030477D01*
X0277163Y0030477D01*
X0276396Y0029710D01*
X0276396Y0028175D01*
X0277163Y0027408D01*
X0139300Y0086400D02*
X0139300Y0091004D01*
X0141602Y0091004D01*
X0142369Y0090237D01*
X0142369Y0088702D01*
X0141602Y0087935D01*
X0139300Y0087935D01*
X0140835Y0087935D02*
X0142369Y0086400D01*
X0146973Y0086400D02*
X0143904Y0086400D01*
X0146973Y0089469D01*
X0146973Y0090237D01*
X0146206Y0091004D01*
X0144671Y0091004D01*
X0143904Y0090237D01*
X0148508Y0089469D02*
X0150042Y0091004D01*
X0150042Y0086400D01*
X0148508Y0086400D02*
X0151577Y0086400D01*
X0133500Y0092500D02*
X0133500Y0097104D01*
X0135802Y0097104D01*
X0136569Y0096337D01*
X0136569Y0094802D01*
X0135802Y0094035D01*
X0133500Y0094035D01*
X0135035Y0094035D02*
X0136569Y0092500D01*
X0141173Y0092500D02*
X0138104Y0092500D01*
X0141173Y0095569D01*
X0141173Y0096337D01*
X0140406Y0097104D01*
X0138871Y0097104D01*
X0138104Y0096337D01*
X0145777Y0092500D02*
X0142708Y0092500D01*
X0145777Y0095569D01*
X0145777Y0096337D01*
X0145010Y0097104D01*
X0143475Y0097104D01*
X0142708Y0096337D01*
X0208063Y0149369D02*
X0207296Y0148602D01*
X0207296Y0147067D01*
X0208063Y0146300D01*
X0211133Y0146300D01*
X0211900Y0147067D01*
X0211900Y0148602D01*
X0211133Y0149369D01*
X0211900Y0153973D02*
X0211900Y0150904D01*
X0208831Y0153973D01*
X0208063Y0153973D01*
X0207296Y0153206D01*
X0207296Y0151671D01*
X0208063Y0150904D01*
X0208831Y0155508D02*
X0207296Y0157042D01*
X0211900Y0157042D01*
X0211900Y0155508D02*
X0211900Y0158577D01*
X0136569Y0073737D02*
X0135802Y0074504D01*
X0134267Y0074504D01*
X0133500Y0073737D01*
X0133500Y0070667D01*
X0134267Y0069900D01*
X0135802Y0069900D01*
X0136569Y0070667D01*
X0141173Y0069900D02*
X0138104Y0069900D01*
X0141173Y0072969D01*
X0141173Y0073737D01*
X0140406Y0074504D01*
X0138871Y0074504D01*
X0138104Y0073737D01*
X0145777Y0069900D02*
X0142708Y0069900D01*
X0145777Y0072969D01*
X0145777Y0073737D01*
X0145010Y0074504D01*
X0143475Y0074504D01*
X0142708Y0073737D01*
X0176969Y0068237D02*
X0176202Y0069004D01*
X0174667Y0069004D01*
X0173900Y0068237D01*
X0173900Y0065167D01*
X0174667Y0064400D01*
X0176202Y0064400D01*
X0176969Y0065167D01*
X0181573Y0064400D02*
X0178504Y0064400D01*
X0181573Y0067469D01*
X0181573Y0068237D01*
X0180806Y0069004D01*
X0179271Y0069004D01*
X0178504Y0068237D01*
X0183108Y0068237D02*
X0183875Y0069004D01*
X0185410Y0069004D01*
X0186177Y0068237D01*
X0186177Y0067469D01*
X0185410Y0066702D01*
X0184642Y0066702D01*
X0185410Y0066702D02*
X0186177Y0065935D01*
X0186177Y0065167D01*
X0185410Y0064400D01*
X0183875Y0064400D01*
X0183108Y0065167D01*
X0188275Y0062013D02*
X0187227Y0061732D01*
X0186460Y0060403D01*
X0186741Y0059355D01*
X0189399Y0057820D01*
X0190447Y0058101D01*
X0191214Y0059430D01*
X0190934Y0060478D01*
X0193900Y0064082D02*
X0192365Y0061424D01*
X0191242Y0065616D01*
X0190577Y0066000D01*
X0189529Y0065719D01*
X0188762Y0064390D01*
X0189043Y0063342D01*
X0195818Y0067404D02*
X0191831Y0069706D01*
X0192674Y0066562D01*
X0194208Y0069220D01*
X0244557Y0094237D02*
X0243790Y0095004D01*
X0242256Y0095004D01*
X0241488Y0094237D01*
X0241488Y0091167D01*
X0242256Y0090400D01*
X0243790Y0090400D01*
X0244557Y0091167D01*
X0249161Y0090400D02*
X0246092Y0090400D01*
X0249161Y0093469D01*
X0249161Y0094237D01*
X0248394Y0095004D01*
X0246859Y0095004D01*
X0246092Y0094237D01*
X0253765Y0095004D02*
X0250696Y0095004D01*
X0250696Y0092702D01*
X0252231Y0093469D01*
X0252998Y0093469D01*
X0253765Y0092702D01*
X0253765Y0091167D01*
X0252998Y0090400D01*
X0251463Y0090400D01*
X0250696Y0091167D01*
X0192569Y0148137D02*
X0191802Y0148904D01*
X0190267Y0148904D01*
X0189500Y0148137D01*
X0189500Y0145067D01*
X0190267Y0144300D01*
X0191802Y0144300D01*
X0192569Y0145067D01*
X0197173Y0144300D02*
X0194104Y0144300D01*
X0197173Y0147369D01*
X0197173Y0148137D01*
X0196406Y0148904D01*
X0194871Y0148904D01*
X0194104Y0148137D01*
X0201777Y0148904D02*
X0200242Y0148137D01*
X0198708Y0146602D01*
X0198708Y0145067D01*
X0199475Y0144300D01*
X0201010Y0144300D01*
X0201777Y0145067D01*
X0201777Y0145835D01*
X0201010Y0146602D01*
X0198708Y0146602D01*
X0191569Y0140237D02*
X0190802Y0141004D01*
X0189267Y0141004D01*
X0188500Y0140237D01*
X0188500Y0137167D01*
X0189267Y0136400D01*
X0190802Y0136400D01*
X0191569Y0137167D01*
X0196173Y0136400D02*
X0193104Y0136400D01*
X0196173Y0139469D01*
X0196173Y0140237D01*
X0195406Y0141004D01*
X0193871Y0141004D01*
X0193104Y0140237D01*
X0197708Y0141004D02*
X0200777Y0141004D01*
X0200777Y0140237D01*
X0197708Y0137167D01*
X0197708Y0136400D01*
X0191569Y0133937D02*
X0190802Y0134704D01*
X0189267Y0134704D01*
X0188500Y0133937D01*
X0188500Y0130867D01*
X0189267Y0130100D01*
X0190802Y0130100D01*
X0191569Y0130867D01*
X0196173Y0130100D02*
X0193104Y0130100D01*
X0196173Y0133169D01*
X0196173Y0133937D01*
X0195406Y0134704D01*
X0193871Y0134704D01*
X0193104Y0133937D01*
X0197708Y0133937D02*
X0198475Y0134704D01*
X0200010Y0134704D01*
X0200777Y0133937D01*
X0200777Y0133169D01*
X0200010Y0132402D01*
X0200777Y0131635D01*
X0200777Y0130867D01*
X0200010Y0130100D01*
X0198475Y0130100D01*
X0197708Y0130867D01*
X0197708Y0131635D01*
X0198475Y0132402D01*
X0197708Y0133169D01*
X0197708Y0133937D01*
X0198475Y0132402D02*
X0200010Y0132402D01*
X0118000Y0009788D02*
X0113396Y0009788D01*
X0113396Y0012090D01*
X0114163Y0012857D01*
X0115698Y0012857D01*
X0116465Y0012090D01*
X0116465Y0009788D01*
X0116465Y0011323D02*
X0118000Y0012857D01*
X0118000Y0014392D02*
X0113396Y0014392D01*
X0114931Y0015927D01*
X0113396Y0017461D01*
X0118000Y0017461D01*
X0114163Y0018996D02*
X0113396Y0019763D01*
X0113396Y0021298D01*
X0114163Y0022065D01*
X0114931Y0022065D01*
X0115698Y0021298D01*
X0115698Y0020531D01*
X0115698Y0021298D02*
X0116465Y0022065D01*
X0117233Y0022065D01*
X0118000Y0021298D01*
X0118000Y0019763D01*
X0117233Y0018996D01*
X0112300Y0009688D02*
X0107696Y0009688D01*
X0107696Y0011990D01*
X0108463Y0012757D01*
X0109998Y0012757D01*
X0110765Y0011990D01*
X0110765Y0009688D01*
X0110765Y0011223D02*
X0112300Y0012757D01*
X0112300Y0014292D02*
X0107696Y0014292D01*
X0109231Y0015827D01*
X0107696Y0017361D01*
X0112300Y0017361D01*
X0112300Y0021198D02*
X0107696Y0021198D01*
X0109998Y0018896D01*
X0109998Y0021965D01*
X0106600Y0009788D02*
X0101996Y0009788D01*
X0101996Y0012090D01*
X0102763Y0012857D01*
X0104298Y0012857D01*
X0105065Y0012090D01*
X0105065Y0009788D01*
X0105065Y0011323D02*
X0106600Y0012857D01*
X0106600Y0014392D02*
X0101996Y0014392D01*
X0103531Y0015927D01*
X0101996Y0017461D01*
X0106600Y0017461D01*
X0101996Y0022065D02*
X0101996Y0018996D01*
X0104298Y0018996D01*
X0103531Y0020531D01*
X0103531Y0021298D01*
X0104298Y0022065D01*
X0105833Y0022065D01*
X0106600Y0021298D01*
X0106600Y0019763D01*
X0105833Y0018996D01*
X0101000Y0009588D02*
X0096396Y0009588D01*
X0096396Y0011890D01*
X0097163Y0012657D01*
X0098698Y0012657D01*
X0099465Y0011890D01*
X0099465Y0009588D01*
X0099465Y0011123D02*
X0101000Y0012657D01*
X0101000Y0014192D02*
X0096396Y0014192D01*
X0097931Y0015727D01*
X0096396Y0017261D01*
X0101000Y0017261D01*
X0096396Y0021865D02*
X0097163Y0020331D01*
X0098698Y0018796D01*
X0100233Y0018796D01*
X0101000Y0019563D01*
X0101000Y0021098D01*
X0100233Y0021865D01*
X0099465Y0021865D01*
X0098698Y0021098D01*
X0098698Y0018796D01*
X0054200Y0145627D02*
X0050213Y0147929D01*
X0051364Y0149922D01*
X0052412Y0150203D01*
X0053741Y0149436D01*
X0054022Y0148388D01*
X0052871Y0146394D01*
X0053638Y0147723D02*
X0055735Y0148285D01*
X0056502Y0149614D02*
X0052515Y0151916D01*
X0054611Y0152478D01*
X0054049Y0154574D01*
X0058037Y0152272D01*
X0056146Y0155136D02*
X0055584Y0157232D01*
X0059571Y0154930D01*
X0058804Y0153601D02*
X0060339Y0156259D01*
X0045454Y0145493D02*
X0041466Y0147795D01*
X0042617Y0149788D01*
X0043666Y0150069D01*
X0044995Y0149302D01*
X0045276Y0148254D01*
X0044125Y0146260D01*
X0044892Y0147589D02*
X0046988Y0148151D01*
X0047756Y0149480D02*
X0043768Y0151782D01*
X0045865Y0152344D01*
X0045303Y0154440D01*
X0049290Y0152138D01*
X0051592Y0156125D02*
X0050057Y0153467D01*
X0048934Y0157660D01*
X0048270Y0158043D01*
X0047221Y0157763D01*
X0046454Y0156433D01*
X0046735Y0155385D01*
X0035225Y0150900D02*
X0034177Y0150619D01*
X0033410Y0149290D01*
X0033691Y0148241D01*
X0036349Y0146707D01*
X0037397Y0146988D01*
X0038164Y0148317D01*
X0037884Y0149365D01*
X0039315Y0150310D02*
X0035328Y0152612D01*
X0037425Y0153174D01*
X0036863Y0155270D01*
X0040850Y0152968D01*
X0038959Y0155832D02*
X0038397Y0157928D01*
X0042385Y0155626D01*
X0041617Y0154297D02*
X0043152Y0156955D01*
X0078063Y0010357D02*
X0077296Y0009590D01*
X0077296Y0008056D01*
X0078063Y0007288D01*
X0081133Y0007288D01*
X0081900Y0008056D01*
X0081900Y0009590D01*
X0081133Y0010357D01*
X0081900Y0011892D02*
X0077296Y0011892D01*
X0078831Y0013427D01*
X0077296Y0014961D01*
X0081900Y0014961D01*
X0081900Y0019565D02*
X0081900Y0016496D01*
X0078831Y0019565D01*
X0078063Y0019565D01*
X0077296Y0018798D01*
X0077296Y0017263D01*
X0078063Y0016496D01*
X0055000Y0027900D02*
X0055000Y0032504D01*
X0057302Y0032504D01*
X0058069Y0031737D01*
X0058069Y0030202D01*
X0057302Y0029435D01*
X0055000Y0029435D01*
X0056535Y0029435D02*
X0058069Y0027900D01*
X0059604Y0027900D02*
X0059604Y0032504D01*
X0061139Y0030969D01*
X0062673Y0032504D01*
X0062673Y0027900D01*
X0064208Y0032504D02*
X0067277Y0032504D01*
X0067277Y0031737D01*
X0064208Y0028667D01*
X0064208Y0027900D01*
X0261700Y0093100D02*
X0261700Y0097704D01*
X0264002Y0097704D01*
X0264769Y0096937D01*
X0264769Y0095402D01*
X0264002Y0094635D01*
X0261700Y0094635D01*
X0263235Y0094635D02*
X0264769Y0093100D01*
X0269373Y0093100D02*
X0266304Y0093100D01*
X0269373Y0096169D01*
X0269373Y0096937D01*
X0268606Y0097704D01*
X0267071Y0097704D01*
X0266304Y0096937D01*
X0270908Y0093867D02*
X0270908Y0096937D01*
X0271675Y0097704D01*
X0273210Y0097704D01*
X0273977Y0096937D01*
X0273977Y0093867D01*
X0273210Y0093100D01*
X0271675Y0093100D01*
X0270908Y0093867D01*
X0273977Y0096937D01*
X0278581Y0097704D02*
X0277046Y0096937D01*
X0275512Y0095402D01*
X0275512Y0093867D01*
X0276279Y0093100D01*
X0277814Y0093100D01*
X0278581Y0093867D01*
X0278581Y0094635D01*
X0277814Y0095402D01*
X0275512Y0095402D01*
X0249000Y0163900D02*
X0249000Y0168504D01*
X0251302Y0168504D01*
X0252069Y0167737D01*
X0252069Y0166202D01*
X0251302Y0165435D01*
X0249000Y0165435D01*
X0250535Y0165435D02*
X0252069Y0163900D01*
X0256673Y0163900D02*
X0253604Y0163900D01*
X0256673Y0166969D01*
X0256673Y0167737D01*
X0255906Y0168504D01*
X0254371Y0168504D01*
X0253604Y0167737D01*
X0258208Y0164667D02*
X0258208Y0167737D01*
X0258975Y0168504D01*
X0260510Y0168504D01*
X0261277Y0167737D01*
X0261277Y0164667D01*
X0260510Y0163900D01*
X0258975Y0163900D01*
X0258208Y0164667D01*
X0261277Y0167737D01*
X0265114Y0163900D02*
X0265114Y0168504D01*
X0262812Y0166202D01*
X0265881Y0166202D01*
X0249600Y0146700D02*
X0249600Y0151304D01*
X0251902Y0151304D01*
X0252669Y0150537D01*
X0252669Y0149002D01*
X0251902Y0148235D01*
X0249600Y0148235D01*
X0251135Y0148235D02*
X0252669Y0146700D01*
X0257273Y0146700D02*
X0254204Y0146700D01*
X0257273Y0149769D01*
X0257273Y0150537D01*
X0256506Y0151304D01*
X0254971Y0151304D01*
X0254204Y0150537D01*
X0258808Y0147467D02*
X0258808Y0150537D01*
X0259575Y0151304D01*
X0261110Y0151304D01*
X0261877Y0150537D01*
X0261877Y0147467D01*
X0261110Y0146700D01*
X0259575Y0146700D01*
X0258808Y0147467D01*
X0261877Y0150537D01*
X0266481Y0151304D02*
X0263412Y0151304D01*
X0263412Y0149002D01*
X0264946Y0149769D01*
X0265714Y0149769D01*
X0266481Y0149002D01*
X0266481Y0147467D01*
X0265714Y0146700D01*
X0264179Y0146700D01*
X0263412Y0147467D01*
X0290600Y0164200D02*
X0290600Y0168804D01*
X0292902Y0168804D01*
X0293669Y0168037D01*
X0293669Y0166502D01*
X0292902Y0165735D01*
X0290600Y0165735D01*
X0292135Y0165735D02*
X0293669Y0164200D01*
X0298273Y0164200D02*
X0295204Y0164200D01*
X0298273Y0167269D01*
X0298273Y0168037D01*
X0297506Y0168804D01*
X0295971Y0168804D01*
X0295204Y0168037D01*
X0299808Y0164967D02*
X0299808Y0168037D01*
X0300575Y0168804D01*
X0302110Y0168804D01*
X0302877Y0168037D01*
X0302877Y0164967D01*
X0302110Y0164200D01*
X0300575Y0164200D01*
X0299808Y0164967D01*
X0302877Y0168037D01*
X0307481Y0164200D02*
X0304412Y0164200D01*
X0307481Y0167269D01*
X0307481Y0168037D01*
X0306714Y0168804D01*
X0305179Y0168804D01*
X0304412Y0168037D01*
X0291200Y0147100D02*
X0291200Y0151704D01*
X0293502Y0151704D01*
X0294269Y0150937D01*
X0294269Y0149402D01*
X0293502Y0148635D01*
X0291200Y0148635D01*
X0292735Y0148635D02*
X0294269Y0147100D01*
X0298873Y0147100D02*
X0295804Y0147100D01*
X0298873Y0150169D01*
X0298873Y0150937D01*
X0298106Y0151704D01*
X0296571Y0151704D01*
X0295804Y0150937D01*
X0300408Y0147867D02*
X0300408Y0150937D01*
X0301175Y0151704D01*
X0302710Y0151704D01*
X0303477Y0150937D01*
X0303477Y0147867D01*
X0302710Y0147100D01*
X0301175Y0147100D01*
X0300408Y0147867D01*
X0303477Y0150937D01*
X0305012Y0150937D02*
X0305779Y0151704D01*
X0307314Y0151704D01*
X0308081Y0150937D01*
X0308081Y0150169D01*
X0307314Y0149402D01*
X0306546Y0149402D01*
X0307314Y0149402D02*
X0308081Y0148635D01*
X0308081Y0147867D01*
X0307314Y0147100D01*
X0305779Y0147100D01*
X0305012Y0147867D01*
X0113840Y0158730D02*
X0109853Y0161032D01*
X0111004Y0163026D01*
X0112052Y0163307D01*
X0113381Y0162539D01*
X0113662Y0161491D01*
X0112511Y0159498D01*
X0113278Y0160827D02*
X0115375Y0161388D01*
X0117677Y0165376D02*
X0116142Y0162717D01*
X0115019Y0166910D01*
X0114354Y0167294D01*
X0113306Y0167013D01*
X0112539Y0165684D01*
X0112820Y0164636D01*
X0117780Y0167088D02*
X0115121Y0168623D01*
X0114841Y0169671D01*
X0115608Y0171000D01*
X0116656Y0171281D01*
X0119314Y0169746D01*
X0119595Y0168698D01*
X0118828Y0167369D01*
X0117780Y0167088D01*
X0116656Y0171281D01*
X0118088Y0172226D02*
X0117526Y0174323D01*
X0121513Y0172021D01*
X0120746Y0170692D02*
X0122281Y0173350D01*
X0122121Y0159904D02*
X0118133Y0162206D01*
X0119284Y0164199D01*
X0120333Y0164480D01*
X0121662Y0163713D01*
X0121942Y0162664D01*
X0120792Y0160671D01*
X0121559Y0162000D02*
X0123655Y0162562D01*
X0125957Y0166549D02*
X0124423Y0163891D01*
X0123299Y0168083D01*
X0122635Y0168467D01*
X0121586Y0168186D01*
X0120819Y0166857D01*
X0121100Y0165809D01*
X0126060Y0168261D02*
X0127108Y0168542D01*
X0127875Y0169871D01*
X0127595Y0170920D01*
X0124937Y0172454D01*
X0123888Y0172173D01*
X0123121Y0170844D01*
X0123402Y0169796D01*
X0124066Y0169412D01*
X0125115Y0169693D01*
X0126266Y0171687D01*
X0106667Y0159923D02*
X0102680Y0162225D01*
X0103831Y0164219D01*
X0104879Y0164500D01*
X0106208Y0163732D01*
X0106489Y0162684D01*
X0105338Y0160691D01*
X0106105Y0162020D02*
X0108202Y0162581D01*
X0110504Y0166568D02*
X0108969Y0163910D01*
X0107845Y0168103D01*
X0107181Y0168487D01*
X0106133Y0168206D01*
X0105365Y0166877D01*
X0105646Y0165829D01*
X0107948Y0169816D02*
X0107667Y0170864D01*
X0108435Y0172193D01*
X0109483Y0172474D01*
X0110147Y0172090D01*
X0110428Y0171042D01*
X0111476Y0171323D01*
X0112141Y0170939D01*
X0112422Y0169891D01*
X0111655Y0168562D01*
X0110606Y0168281D01*
X0109942Y0168665D01*
X0109661Y0169713D01*
X0108613Y0169432D01*
X0107948Y0169816D01*
X0109661Y0169713D02*
X0110428Y0171042D01*
X0091077Y0159860D02*
X0087090Y0162162D01*
X0088241Y0164155D01*
X0089289Y0164436D01*
X0090618Y0163669D01*
X0090899Y0162621D01*
X0089748Y0160627D01*
X0090515Y0161956D02*
X0092611Y0162518D01*
X0094913Y0166505D02*
X0093379Y0163847D01*
X0092255Y0168040D01*
X0091591Y0168423D01*
X0090543Y0168142D01*
X0089775Y0166813D01*
X0090056Y0165765D01*
X0095016Y0168218D02*
X0092358Y0169752D01*
X0092077Y0170800D01*
X0092845Y0172130D01*
X0093893Y0172410D01*
X0096551Y0170876D01*
X0096832Y0169828D01*
X0096064Y0168499D01*
X0095016Y0168218D01*
X0093893Y0172410D01*
X0094660Y0173739D02*
X0094379Y0174788D01*
X0095147Y0176117D01*
X0096195Y0176397D01*
X0096859Y0176014D01*
X0097140Y0174966D01*
X0098188Y0175247D01*
X0098853Y0174863D01*
X0099134Y0173815D01*
X0098366Y0172486D01*
X0097318Y0172205D01*
X0096654Y0172588D01*
X0096373Y0173637D01*
X0095325Y0173356D01*
X0094660Y0173739D01*
X0096373Y0173637D02*
X0097140Y0174966D01*
X0098757Y0158960D02*
X0094770Y0161262D01*
X0095921Y0163255D01*
X0096969Y0163536D01*
X0098298Y0162769D01*
X0098579Y0161721D01*
X0097428Y0159727D01*
X0098195Y0161056D02*
X0100292Y0161618D01*
X0102594Y0165605D02*
X0101059Y0162947D01*
X0099936Y0167140D01*
X0099271Y0167523D01*
X0098223Y0167242D01*
X0097456Y0165913D01*
X0097737Y0164865D01*
X0102697Y0167318D02*
X0100038Y0168852D01*
X0099758Y0169900D01*
X0100525Y0171230D01*
X0101573Y0171510D01*
X0104231Y0169976D01*
X0104512Y0168928D01*
X0103745Y0167599D01*
X0102697Y0167318D01*
X0101573Y0171510D01*
X0101676Y0173223D02*
X0103211Y0175881D01*
X0103875Y0175497D01*
X0104999Y0171305D01*
X0105663Y0170921D01*
X0084080Y0161346D02*
X0080093Y0163648D01*
X0081244Y0165642D01*
X0082292Y0165923D01*
X0083621Y0165155D01*
X0083902Y0164107D01*
X0082751Y0162114D01*
X0083519Y0163443D02*
X0085615Y0164004D01*
X0087917Y0167992D02*
X0086382Y0165334D01*
X0085259Y0169526D01*
X0084594Y0169910D01*
X0083546Y0169629D01*
X0082779Y0168300D01*
X0083060Y0167252D01*
X0086232Y0174281D02*
X0086129Y0172568D01*
X0086691Y0170472D01*
X0088020Y0169704D01*
X0089068Y0169985D01*
X0089835Y0171314D01*
X0089554Y0172362D01*
X0088890Y0172746D01*
X0087842Y0172465D01*
X0086691Y0170472D01*
X0067277Y0161213D02*
X0063290Y0163515D01*
X0064441Y0165509D01*
X0065489Y0165790D01*
X0066818Y0165022D01*
X0067099Y0163974D01*
X0065948Y0161981D01*
X0066715Y0163310D02*
X0068811Y0163871D01*
X0071113Y0167859D02*
X0069579Y0165200D01*
X0068455Y0169393D01*
X0067791Y0169777D01*
X0066743Y0169496D01*
X0065975Y0168167D01*
X0066256Y0167119D01*
X0069428Y0174148D02*
X0067894Y0171490D01*
X0069887Y0170339D01*
X0069990Y0172051D01*
X0070374Y0172716D01*
X0071422Y0172997D01*
X0072751Y0172229D01*
X0073032Y0171181D01*
X0072264Y0169852D01*
X0071216Y0169571D01*
X0073667Y0160604D02*
X0069680Y0162906D01*
X0070831Y0164899D01*
X0071879Y0165180D01*
X0073208Y0164413D01*
X0073489Y0163364D01*
X0072338Y0161371D01*
X0073105Y0162700D02*
X0075202Y0163262D01*
X0077504Y0167249D02*
X0075969Y0164591D01*
X0074845Y0168783D01*
X0074181Y0169167D01*
X0073133Y0168886D01*
X0072365Y0167557D01*
X0072646Y0166509D01*
X0079422Y0170571D02*
X0075435Y0172873D01*
X0076277Y0169729D01*
X0077812Y0172387D01*
X0059727Y0161820D02*
X0055740Y0164122D01*
X0056891Y0166115D01*
X0057939Y0166396D01*
X0059268Y0165629D01*
X0059549Y0164580D01*
X0058398Y0162587D01*
X0059165Y0163916D02*
X0061261Y0164478D01*
X0063563Y0168465D02*
X0062029Y0165807D01*
X0060905Y0169999D01*
X0060241Y0170383D01*
X0059193Y0170102D01*
X0058425Y0168773D01*
X0058706Y0167725D01*
X0061008Y0171712D02*
X0060727Y0172760D01*
X0061495Y0174089D01*
X0062543Y0174370D01*
X0063207Y0173987D01*
X0063488Y0172938D01*
X0063104Y0172274D01*
X0063488Y0172938D02*
X0064536Y0173219D01*
X0065201Y0172836D01*
X0065482Y0171787D01*
X0064714Y0170458D01*
X0063666Y0170177D01*
X0205400Y0064400D02*
X0206935Y0064400D01*
X0206167Y0064400D02*
X0206167Y0069004D01*
X0205400Y0069004D02*
X0206935Y0069004D01*
X0211539Y0068237D02*
X0210771Y0069004D01*
X0209237Y0069004D01*
X0208469Y0068237D01*
X0208469Y0065167D01*
X0209237Y0064400D01*
X0210771Y0064400D01*
X0211539Y0065167D01*
X0213073Y0068237D02*
X0213841Y0069004D01*
X0215375Y0069004D01*
X0216142Y0068237D01*
X0216142Y0067469D01*
X0215375Y0066702D01*
X0214608Y0066702D01*
X0215375Y0066702D02*
X0216142Y0065935D01*
X0216142Y0065167D01*
X0215375Y0064400D01*
X0213841Y0064400D01*
X0213073Y0065167D01*
X0271569Y0125037D02*
X0270802Y0125804D01*
X0269267Y0125804D01*
X0268500Y0125037D01*
X0268500Y0121967D01*
X0269267Y0121200D01*
X0270802Y0121200D01*
X0271569Y0121967D01*
X0275406Y0121200D02*
X0275406Y0125804D01*
X0273104Y0123502D01*
X0276173Y0123502D01*
X0265369Y0110237D02*
X0264602Y0111004D01*
X0263067Y0111004D01*
X0262300Y0110237D01*
X0262300Y0107167D01*
X0263067Y0106400D01*
X0264602Y0106400D01*
X0265369Y0107167D01*
X0266904Y0110237D02*
X0267671Y0111004D01*
X0269206Y0111004D01*
X0269973Y0110237D01*
X0269973Y0109469D01*
X0269206Y0108702D01*
X0268439Y0108702D01*
X0269206Y0108702D02*
X0269973Y0107935D01*
X0269973Y0107167D01*
X0269206Y0106400D01*
X0267671Y0106400D01*
X0266904Y0107167D01*
X0215569Y0132737D02*
X0214802Y0133504D01*
X0213267Y0133504D01*
X0212500Y0132737D01*
X0212500Y0129667D01*
X0213267Y0128900D01*
X0214802Y0128900D01*
X0215569Y0129667D01*
X0217104Y0131969D02*
X0218639Y0133504D01*
X0218639Y0128900D01*
X0220173Y0128900D02*
X0217104Y0128900D01*
X0230763Y0119169D02*
X0229996Y0118402D01*
X0229996Y0116867D01*
X0230763Y0116100D01*
X0233833Y0116100D01*
X0234600Y0116867D01*
X0234600Y0118402D01*
X0233833Y0119169D01*
X0234600Y0123773D02*
X0234600Y0120704D01*
X0231531Y0123773D01*
X0230763Y0123773D01*
X0229996Y0123006D01*
X0229996Y0121471D01*
X0230763Y0120704D01*
X0238700Y0080500D02*
X0238700Y0085104D01*
X0241002Y0085104D01*
X0241769Y0084337D01*
X0241769Y0082802D01*
X0241002Y0082035D01*
X0238700Y0082035D01*
X0240235Y0082035D02*
X0241769Y0080500D01*
X0243304Y0083569D02*
X0244839Y0085104D01*
X0244839Y0080500D01*
X0246373Y0080500D02*
X0243304Y0080500D01*
X0220500Y0059700D02*
X0220500Y0064304D01*
X0222802Y0064304D01*
X0223569Y0063537D01*
X0223569Y0062002D01*
X0222802Y0061235D01*
X0220500Y0061235D01*
X0222035Y0061235D02*
X0223569Y0059700D01*
X0228173Y0059700D02*
X0225104Y0059700D01*
X0228173Y0062769D01*
X0228173Y0063537D01*
X0227406Y0064304D01*
X0225871Y0064304D01*
X0225104Y0063537D01*
X0303969Y0028137D02*
X0303202Y0028904D01*
X0301667Y0028904D01*
X0300900Y0028137D01*
X0300900Y0025067D01*
X0301667Y0024300D01*
X0303202Y0024300D01*
X0303969Y0025067D01*
X0308573Y0028904D02*
X0305504Y0028904D01*
X0305504Y0026602D01*
X0307039Y0027369D01*
X0307806Y0027369D01*
X0308573Y0026602D01*
X0308573Y0025067D01*
X0307806Y0024300D01*
X0306271Y0024300D01*
X0305504Y0025067D01*
X0247169Y0017737D02*
X0246402Y0018504D01*
X0244867Y0018504D01*
X0244100Y0017737D01*
X0244100Y0014667D01*
X0244867Y0013900D01*
X0246402Y0013900D01*
X0247169Y0014667D01*
X0251773Y0018504D02*
X0250239Y0017737D01*
X0248704Y0016202D01*
X0248704Y0014667D01*
X0249471Y0013900D01*
X0251006Y0013900D01*
X0251773Y0014667D01*
X0251773Y0015435D01*
X0251006Y0016202D01*
X0248704Y0016202D01*
X0238700Y0038900D02*
X0234096Y0038900D01*
X0234096Y0041202D01*
X0234863Y0041969D01*
X0236398Y0041969D01*
X0237165Y0041202D01*
X0237165Y0038900D01*
X0237165Y0040435D02*
X0238700Y0041969D01*
X0234863Y0043504D02*
X0234096Y0044271D01*
X0234096Y0045806D01*
X0234863Y0046573D01*
X0235631Y0046573D01*
X0236398Y0045806D01*
X0236398Y0045039D01*
X0236398Y0045806D02*
X0237165Y0046573D01*
X0237933Y0046573D01*
X0238700Y0045806D01*
X0238700Y0044271D01*
X0237933Y0043504D01*
X0240963Y0045069D02*
X0240196Y0044302D01*
X0240196Y0042767D01*
X0240963Y0042000D01*
X0244033Y0042000D01*
X0244800Y0042767D01*
X0244800Y0044302D01*
X0244033Y0045069D01*
X0240196Y0046604D02*
X0240196Y0049673D01*
X0240963Y0049673D01*
X0244033Y0046604D01*
X0244800Y0046604D01*
D11*
X0120610Y0126339D02*
X0126024Y0126339D01*
X0126024Y0043661D01*
X0120610Y0043661D01*
X0032520Y0126339D02*
X0003976Y0126339D01*
X0003976Y0043661D01*
X0032520Y0043661D01*
X0175352Y0113701D02*
X0208801Y0113701D01*
X0208861Y0113699D01*
X0208922Y0113694D01*
X0208981Y0113685D01*
X0209040Y0113672D01*
X0209099Y0113656D01*
X0209156Y0113636D01*
X0209211Y0113613D01*
X0209266Y0113586D01*
X0209318Y0113557D01*
X0209369Y0113524D01*
X0209418Y0113488D01*
X0209464Y0113450D01*
X0209508Y0113408D01*
X0209550Y0113364D01*
X0209588Y0113318D01*
X0209624Y0113269D01*
X0209657Y0113218D01*
X0209686Y0113166D01*
X0209713Y0113111D01*
X0209736Y0113056D01*
X0209756Y0112999D01*
X0209772Y0112940D01*
X0209785Y0112881D01*
X0209794Y0112822D01*
X0209799Y0112761D01*
X0209801Y0112701D01*
X0209801Y0077299D01*
X0209799Y0077239D01*
X0209794Y0077178D01*
X0209785Y0077119D01*
X0209772Y0077060D01*
X0209756Y0077001D01*
X0209736Y0076944D01*
X0209713Y0076889D01*
X0209686Y0076834D01*
X0209657Y0076782D01*
X0209624Y0076731D01*
X0209588Y0076682D01*
X0209550Y0076636D01*
X0209508Y0076592D01*
X0209464Y0076550D01*
X0209418Y0076512D01*
X0209369Y0076476D01*
X0209318Y0076443D01*
X0209266Y0076414D01*
X0209211Y0076387D01*
X0209156Y0076364D01*
X0209099Y0076344D01*
X0209040Y0076328D01*
X0208981Y0076315D01*
X0208922Y0076306D01*
X0208861Y0076301D01*
X0208801Y0076299D01*
X0174368Y0076299D01*
X0174282Y0076301D01*
X0174196Y0076306D01*
X0174111Y0076316D01*
X0174026Y0076329D01*
X0173942Y0076346D01*
X0173858Y0076366D01*
X0173776Y0076390D01*
X0173695Y0076418D01*
X0173614Y0076449D01*
X0173536Y0076483D01*
X0173459Y0076521D01*
X0173384Y0076563D01*
X0173310Y0076607D01*
X0173239Y0076655D01*
X0173169Y0076706D01*
X0173102Y0076760D01*
X0173038Y0076816D01*
X0172976Y0076876D01*
X0172916Y0076938D01*
X0172860Y0077002D01*
X0172806Y0077069D01*
X0172755Y0077139D01*
X0172707Y0077210D01*
X0172663Y0077284D01*
X0172621Y0077359D01*
X0172583Y0077436D01*
X0172549Y0077514D01*
X0172518Y0077595D01*
X0172490Y0077676D01*
X0172466Y0077758D01*
X0172446Y0077842D01*
X0172429Y0077926D01*
X0172416Y0078011D01*
X0172406Y0078096D01*
X0172401Y0078182D01*
X0172399Y0078268D01*
X0172399Y0110748D01*
X0175352Y0113701D01*
X0264118Y0049882D02*
X0278882Y0049882D01*
X0278882Y0035118D01*
X0264118Y0035118D01*
X0264118Y0049882D01*
X0265102Y0047421D02*
X0265104Y0047465D01*
X0265110Y0047509D01*
X0265120Y0047552D01*
X0265133Y0047594D01*
X0265151Y0047634D01*
X0265172Y0047673D01*
X0265196Y0047710D01*
X0265223Y0047745D01*
X0265254Y0047777D01*
X0265287Y0047806D01*
X0265323Y0047832D01*
X0265361Y0047854D01*
X0265401Y0047873D01*
X0265442Y0047889D01*
X0265485Y0047901D01*
X0265528Y0047909D01*
X0265572Y0047913D01*
X0265616Y0047913D01*
X0265660Y0047909D01*
X0265703Y0047901D01*
X0265746Y0047889D01*
X0265787Y0047873D01*
X0265827Y0047854D01*
X0265865Y0047832D01*
X0265901Y0047806D01*
X0265934Y0047777D01*
X0265965Y0047745D01*
X0265992Y0047710D01*
X0266016Y0047673D01*
X0266037Y0047634D01*
X0266055Y0047594D01*
X0266068Y0047552D01*
X0266078Y0047509D01*
X0266084Y0047465D01*
X0266086Y0047421D01*
X0266084Y0047377D01*
X0266078Y0047333D01*
X0266068Y0047290D01*
X0266055Y0047248D01*
X0266037Y0047208D01*
X0266016Y0047169D01*
X0265992Y0047132D01*
X0265965Y0047097D01*
X0265934Y0047065D01*
X0265901Y0047036D01*
X0265865Y0047010D01*
X0265827Y0046988D01*
X0265787Y0046969D01*
X0265746Y0046953D01*
X0265703Y0046941D01*
X0265660Y0046933D01*
X0265616Y0046929D01*
X0265572Y0046929D01*
X0265528Y0046933D01*
X0265485Y0046941D01*
X0265442Y0046953D01*
X0265401Y0046969D01*
X0265361Y0046988D01*
X0265323Y0047010D01*
X0265287Y0047036D01*
X0265254Y0047065D01*
X0265223Y0047097D01*
X0265196Y0047132D01*
X0265172Y0047169D01*
X0265151Y0047208D01*
X0265133Y0047248D01*
X0265120Y0047290D01*
X0265110Y0047333D01*
X0265104Y0047377D01*
X0265102Y0047421D01*
X0263785Y0135620D02*
X0289415Y0135620D01*
X0289415Y0163298D02*
X0263785Y0163298D01*
X0263805Y0163180D02*
X0263805Y0159735D01*
X0264789Y0159735D01*
X0264789Y0139065D01*
X0263805Y0139065D01*
X0263805Y0135620D01*
X0289395Y0163180D02*
X0289395Y0159735D01*
X0288411Y0159735D01*
X0288411Y0139065D01*
X0289395Y0139065D01*
X0289395Y0135620D01*
X0281600Y0138900D02*
X0277100Y0138900D01*
X0275100Y0136900D01*
X0275600Y0138900D02*
X0271600Y0138900D01*
X0269529Y0149400D02*
X0269531Y0149574D01*
X0269538Y0149747D01*
X0269548Y0149920D01*
X0269563Y0150093D01*
X0269582Y0150266D01*
X0269606Y0150438D01*
X0269633Y0150609D01*
X0269665Y0150779D01*
X0269701Y0150949D01*
X0269741Y0151118D01*
X0269785Y0151286D01*
X0269833Y0151453D01*
X0269886Y0151618D01*
X0269942Y0151782D01*
X0270003Y0151945D01*
X0270067Y0152106D01*
X0270136Y0152265D01*
X0270208Y0152423D01*
X0270284Y0152579D01*
X0270364Y0152733D01*
X0270448Y0152885D01*
X0270535Y0153035D01*
X0270626Y0153183D01*
X0270721Y0153328D01*
X0270819Y0153472D01*
X0270921Y0153612D01*
X0271026Y0153750D01*
X0271134Y0153886D01*
X0271246Y0154019D01*
X0271361Y0154149D01*
X0271479Y0154276D01*
X0271600Y0154400D01*
X0271724Y0154521D01*
X0271851Y0154639D01*
X0271981Y0154754D01*
X0272114Y0154866D01*
X0272250Y0154974D01*
X0272388Y0155079D01*
X0272528Y0155181D01*
X0272672Y0155279D01*
X0272817Y0155374D01*
X0272965Y0155465D01*
X0273115Y0155552D01*
X0273267Y0155636D01*
X0273421Y0155716D01*
X0273577Y0155792D01*
X0273735Y0155864D01*
X0273894Y0155933D01*
X0274055Y0155997D01*
X0274218Y0156058D01*
X0274382Y0156114D01*
X0274547Y0156167D01*
X0274714Y0156215D01*
X0274882Y0156259D01*
X0275051Y0156299D01*
X0275221Y0156335D01*
X0275391Y0156367D01*
X0275562Y0156394D01*
X0275734Y0156418D01*
X0275907Y0156437D01*
X0276080Y0156452D01*
X0276253Y0156462D01*
X0276426Y0156469D01*
X0276600Y0156471D01*
X0276774Y0156469D01*
X0276947Y0156462D01*
X0277120Y0156452D01*
X0277293Y0156437D01*
X0277466Y0156418D01*
X0277638Y0156394D01*
X0277809Y0156367D01*
X0277979Y0156335D01*
X0278149Y0156299D01*
X0278318Y0156259D01*
X0278486Y0156215D01*
X0278653Y0156167D01*
X0278818Y0156114D01*
X0278982Y0156058D01*
X0279145Y0155997D01*
X0279306Y0155933D01*
X0279465Y0155864D01*
X0279623Y0155792D01*
X0279779Y0155716D01*
X0279933Y0155636D01*
X0280085Y0155552D01*
X0280235Y0155465D01*
X0280383Y0155374D01*
X0280528Y0155279D01*
X0280672Y0155181D01*
X0280812Y0155079D01*
X0280950Y0154974D01*
X0281086Y0154866D01*
X0281219Y0154754D01*
X0281349Y0154639D01*
X0281476Y0154521D01*
X0281600Y0154400D01*
X0281721Y0154276D01*
X0281839Y0154149D01*
X0281954Y0154019D01*
X0282066Y0153886D01*
X0282174Y0153750D01*
X0282279Y0153612D01*
X0282381Y0153472D01*
X0282479Y0153328D01*
X0282574Y0153183D01*
X0282665Y0153035D01*
X0282752Y0152885D01*
X0282836Y0152733D01*
X0282916Y0152579D01*
X0282992Y0152423D01*
X0283064Y0152265D01*
X0283133Y0152106D01*
X0283197Y0151945D01*
X0283258Y0151782D01*
X0283314Y0151618D01*
X0283367Y0151453D01*
X0283415Y0151286D01*
X0283459Y0151118D01*
X0283499Y0150949D01*
X0283535Y0150779D01*
X0283567Y0150609D01*
X0283594Y0150438D01*
X0283618Y0150266D01*
X0283637Y0150093D01*
X0283652Y0149920D01*
X0283662Y0149747D01*
X0283669Y0149574D01*
X0283671Y0149400D01*
X0283669Y0149226D01*
X0283662Y0149053D01*
X0283652Y0148880D01*
X0283637Y0148707D01*
X0283618Y0148534D01*
X0283594Y0148362D01*
X0283567Y0148191D01*
X0283535Y0148021D01*
X0283499Y0147851D01*
X0283459Y0147682D01*
X0283415Y0147514D01*
X0283367Y0147347D01*
X0283314Y0147182D01*
X0283258Y0147018D01*
X0283197Y0146855D01*
X0283133Y0146694D01*
X0283064Y0146535D01*
X0282992Y0146377D01*
X0282916Y0146221D01*
X0282836Y0146067D01*
X0282752Y0145915D01*
X0282665Y0145765D01*
X0282574Y0145617D01*
X0282479Y0145472D01*
X0282381Y0145328D01*
X0282279Y0145188D01*
X0282174Y0145050D01*
X0282066Y0144914D01*
X0281954Y0144781D01*
X0281839Y0144651D01*
X0281721Y0144524D01*
X0281600Y0144400D01*
X0281476Y0144279D01*
X0281349Y0144161D01*
X0281219Y0144046D01*
X0281086Y0143934D01*
X0280950Y0143826D01*
X0280812Y0143721D01*
X0280672Y0143619D01*
X0280528Y0143521D01*
X0280383Y0143426D01*
X0280235Y0143335D01*
X0280085Y0143248D01*
X0279933Y0143164D01*
X0279779Y0143084D01*
X0279623Y0143008D01*
X0279465Y0142936D01*
X0279306Y0142867D01*
X0279145Y0142803D01*
X0278982Y0142742D01*
X0278818Y0142686D01*
X0278653Y0142633D01*
X0278486Y0142585D01*
X0278318Y0142541D01*
X0278149Y0142501D01*
X0277979Y0142465D01*
X0277809Y0142433D01*
X0277638Y0142406D01*
X0277466Y0142382D01*
X0277293Y0142363D01*
X0277120Y0142348D01*
X0276947Y0142338D01*
X0276774Y0142331D01*
X0276600Y0142329D01*
X0276426Y0142331D01*
X0276253Y0142338D01*
X0276080Y0142348D01*
X0275907Y0142363D01*
X0275734Y0142382D01*
X0275562Y0142406D01*
X0275391Y0142433D01*
X0275221Y0142465D01*
X0275051Y0142501D01*
X0274882Y0142541D01*
X0274714Y0142585D01*
X0274547Y0142633D01*
X0274382Y0142686D01*
X0274218Y0142742D01*
X0274055Y0142803D01*
X0273894Y0142867D01*
X0273735Y0142936D01*
X0273577Y0143008D01*
X0273421Y0143084D01*
X0273267Y0143164D01*
X0273115Y0143248D01*
X0272965Y0143335D01*
X0272817Y0143426D01*
X0272672Y0143521D01*
X0272528Y0143619D01*
X0272388Y0143721D01*
X0272250Y0143826D01*
X0272114Y0143934D01*
X0271981Y0144046D01*
X0271851Y0144161D01*
X0271724Y0144279D01*
X0271600Y0144400D01*
X0271479Y0144524D01*
X0271361Y0144651D01*
X0271246Y0144781D01*
X0271134Y0144914D01*
X0271026Y0145050D01*
X0270921Y0145188D01*
X0270819Y0145328D01*
X0270721Y0145472D01*
X0270626Y0145617D01*
X0270535Y0145765D01*
X0270448Y0145915D01*
X0270364Y0146067D01*
X0270284Y0146221D01*
X0270208Y0146377D01*
X0270136Y0146535D01*
X0270067Y0146694D01*
X0270003Y0146855D01*
X0269942Y0147018D01*
X0269886Y0147182D01*
X0269833Y0147347D01*
X0269785Y0147514D01*
X0269741Y0147682D01*
X0269701Y0147851D01*
X0269665Y0148021D01*
X0269633Y0148191D01*
X0269606Y0148362D01*
X0269582Y0148534D01*
X0269563Y0148707D01*
X0269548Y0148880D01*
X0269538Y0149053D01*
X0269531Y0149226D01*
X0269529Y0149400D01*
X0249515Y0135120D02*
X0223885Y0135120D01*
X0223885Y0162798D02*
X0249515Y0162798D01*
X0223905Y0162680D02*
X0223905Y0159235D01*
X0224889Y0159235D01*
X0224889Y0138565D01*
X0223905Y0138565D01*
X0223905Y0135120D01*
X0249495Y0162680D02*
X0249495Y0159235D01*
X0248511Y0159235D01*
X0248511Y0138565D01*
X0249495Y0138565D01*
X0249495Y0135120D01*
X0241700Y0138400D02*
X0237200Y0138400D01*
X0235200Y0136400D01*
X0235700Y0138400D02*
X0231700Y0138400D01*
X0229629Y0148900D02*
X0229631Y0149074D01*
X0229638Y0149247D01*
X0229648Y0149420D01*
X0229663Y0149593D01*
X0229682Y0149766D01*
X0229706Y0149938D01*
X0229733Y0150109D01*
X0229765Y0150279D01*
X0229801Y0150449D01*
X0229841Y0150618D01*
X0229885Y0150786D01*
X0229933Y0150953D01*
X0229986Y0151118D01*
X0230042Y0151282D01*
X0230103Y0151445D01*
X0230167Y0151606D01*
X0230236Y0151765D01*
X0230308Y0151923D01*
X0230384Y0152079D01*
X0230464Y0152233D01*
X0230548Y0152385D01*
X0230635Y0152535D01*
X0230726Y0152683D01*
X0230821Y0152828D01*
X0230919Y0152972D01*
X0231021Y0153112D01*
X0231126Y0153250D01*
X0231234Y0153386D01*
X0231346Y0153519D01*
X0231461Y0153649D01*
X0231579Y0153776D01*
X0231700Y0153900D01*
X0231824Y0154021D01*
X0231951Y0154139D01*
X0232081Y0154254D01*
X0232214Y0154366D01*
X0232350Y0154474D01*
X0232488Y0154579D01*
X0232628Y0154681D01*
X0232772Y0154779D01*
X0232917Y0154874D01*
X0233065Y0154965D01*
X0233215Y0155052D01*
X0233367Y0155136D01*
X0233521Y0155216D01*
X0233677Y0155292D01*
X0233835Y0155364D01*
X0233994Y0155433D01*
X0234155Y0155497D01*
X0234318Y0155558D01*
X0234482Y0155614D01*
X0234647Y0155667D01*
X0234814Y0155715D01*
X0234982Y0155759D01*
X0235151Y0155799D01*
X0235321Y0155835D01*
X0235491Y0155867D01*
X0235662Y0155894D01*
X0235834Y0155918D01*
X0236007Y0155937D01*
X0236180Y0155952D01*
X0236353Y0155962D01*
X0236526Y0155969D01*
X0236700Y0155971D01*
X0236874Y0155969D01*
X0237047Y0155962D01*
X0237220Y0155952D01*
X0237393Y0155937D01*
X0237566Y0155918D01*
X0237738Y0155894D01*
X0237909Y0155867D01*
X0238079Y0155835D01*
X0238249Y0155799D01*
X0238418Y0155759D01*
X0238586Y0155715D01*
X0238753Y0155667D01*
X0238918Y0155614D01*
X0239082Y0155558D01*
X0239245Y0155497D01*
X0239406Y0155433D01*
X0239565Y0155364D01*
X0239723Y0155292D01*
X0239879Y0155216D01*
X0240033Y0155136D01*
X0240185Y0155052D01*
X0240335Y0154965D01*
X0240483Y0154874D01*
X0240628Y0154779D01*
X0240772Y0154681D01*
X0240912Y0154579D01*
X0241050Y0154474D01*
X0241186Y0154366D01*
X0241319Y0154254D01*
X0241449Y0154139D01*
X0241576Y0154021D01*
X0241700Y0153900D01*
X0241821Y0153776D01*
X0241939Y0153649D01*
X0242054Y0153519D01*
X0242166Y0153386D01*
X0242274Y0153250D01*
X0242379Y0153112D01*
X0242481Y0152972D01*
X0242579Y0152828D01*
X0242674Y0152683D01*
X0242765Y0152535D01*
X0242852Y0152385D01*
X0242936Y0152233D01*
X0243016Y0152079D01*
X0243092Y0151923D01*
X0243164Y0151765D01*
X0243233Y0151606D01*
X0243297Y0151445D01*
X0243358Y0151282D01*
X0243414Y0151118D01*
X0243467Y0150953D01*
X0243515Y0150786D01*
X0243559Y0150618D01*
X0243599Y0150449D01*
X0243635Y0150279D01*
X0243667Y0150109D01*
X0243694Y0149938D01*
X0243718Y0149766D01*
X0243737Y0149593D01*
X0243752Y0149420D01*
X0243762Y0149247D01*
X0243769Y0149074D01*
X0243771Y0148900D01*
X0243769Y0148726D01*
X0243762Y0148553D01*
X0243752Y0148380D01*
X0243737Y0148207D01*
X0243718Y0148034D01*
X0243694Y0147862D01*
X0243667Y0147691D01*
X0243635Y0147521D01*
X0243599Y0147351D01*
X0243559Y0147182D01*
X0243515Y0147014D01*
X0243467Y0146847D01*
X0243414Y0146682D01*
X0243358Y0146518D01*
X0243297Y0146355D01*
X0243233Y0146194D01*
X0243164Y0146035D01*
X0243092Y0145877D01*
X0243016Y0145721D01*
X0242936Y0145567D01*
X0242852Y0145415D01*
X0242765Y0145265D01*
X0242674Y0145117D01*
X0242579Y0144972D01*
X0242481Y0144828D01*
X0242379Y0144688D01*
X0242274Y0144550D01*
X0242166Y0144414D01*
X0242054Y0144281D01*
X0241939Y0144151D01*
X0241821Y0144024D01*
X0241700Y0143900D01*
X0241576Y0143779D01*
X0241449Y0143661D01*
X0241319Y0143546D01*
X0241186Y0143434D01*
X0241050Y0143326D01*
X0240912Y0143221D01*
X0240772Y0143119D01*
X0240628Y0143021D01*
X0240483Y0142926D01*
X0240335Y0142835D01*
X0240185Y0142748D01*
X0240033Y0142664D01*
X0239879Y0142584D01*
X0239723Y0142508D01*
X0239565Y0142436D01*
X0239406Y0142367D01*
X0239245Y0142303D01*
X0239082Y0142242D01*
X0238918Y0142186D01*
X0238753Y0142133D01*
X0238586Y0142085D01*
X0238418Y0142041D01*
X0238249Y0142001D01*
X0238079Y0141965D01*
X0237909Y0141933D01*
X0237738Y0141906D01*
X0237566Y0141882D01*
X0237393Y0141863D01*
X0237220Y0141848D01*
X0237047Y0141838D01*
X0236874Y0141831D01*
X0236700Y0141829D01*
X0236526Y0141831D01*
X0236353Y0141838D01*
X0236180Y0141848D01*
X0236007Y0141863D01*
X0235834Y0141882D01*
X0235662Y0141906D01*
X0235491Y0141933D01*
X0235321Y0141965D01*
X0235151Y0142001D01*
X0234982Y0142041D01*
X0234814Y0142085D01*
X0234647Y0142133D01*
X0234482Y0142186D01*
X0234318Y0142242D01*
X0234155Y0142303D01*
X0233994Y0142367D01*
X0233835Y0142436D01*
X0233677Y0142508D01*
X0233521Y0142584D01*
X0233367Y0142664D01*
X0233215Y0142748D01*
X0233065Y0142835D01*
X0232917Y0142926D01*
X0232772Y0143021D01*
X0232628Y0143119D01*
X0232488Y0143221D01*
X0232350Y0143326D01*
X0232214Y0143434D01*
X0232081Y0143546D01*
X0231951Y0143661D01*
X0231824Y0143779D01*
X0231700Y0143900D01*
X0231579Y0144024D01*
X0231461Y0144151D01*
X0231346Y0144281D01*
X0231234Y0144414D01*
X0231126Y0144550D01*
X0231021Y0144688D01*
X0230919Y0144828D01*
X0230821Y0144972D01*
X0230726Y0145117D01*
X0230635Y0145265D01*
X0230548Y0145415D01*
X0230464Y0145567D01*
X0230384Y0145721D01*
X0230308Y0145877D01*
X0230236Y0146035D01*
X0230167Y0146194D01*
X0230103Y0146355D01*
X0230042Y0146518D01*
X0229986Y0146682D01*
X0229933Y0146847D01*
X0229885Y0147014D01*
X0229841Y0147182D01*
X0229801Y0147351D01*
X0229765Y0147521D01*
X0229733Y0147691D01*
X0229706Y0147862D01*
X0229682Y0148034D01*
X0229663Y0148207D01*
X0229648Y0148380D01*
X0229638Y0148553D01*
X0229631Y0148726D01*
X0229629Y0148900D01*
X0073737Y0146737D02*
X0073737Y0139847D01*
X0073737Y0138863D01*
X0072753Y0138863D01*
X0065863Y0138863D01*
X0065863Y0146737D01*
X0073737Y0146737D01*
X0073737Y0139847D02*
X0072753Y0139847D01*
X0072753Y0138863D01*
X0097137Y0146937D02*
X0097137Y0140047D01*
X0097137Y0139063D01*
X0096153Y0139063D01*
X0089263Y0139063D01*
X0089263Y0146937D01*
X0097137Y0146937D01*
X0097137Y0140047D02*
X0096153Y0140047D01*
X0096153Y0139063D01*
X0120337Y0146037D02*
X0120337Y0139147D01*
X0120337Y0138163D01*
X0119353Y0138163D01*
X0112463Y0138163D01*
X0112463Y0146037D01*
X0120337Y0146037D01*
X0120337Y0139147D02*
X0119353Y0139147D01*
X0119353Y0138163D01*
X0268153Y0031612D02*
X0270318Y0029446D01*
X0270318Y0022754D01*
X0268153Y0020588D01*
X0262247Y0020588D02*
X0260082Y0022754D01*
X0260082Y0029446D01*
X0262247Y0031612D01*
X0281653Y0028612D02*
X0283818Y0026446D01*
X0283818Y0019754D01*
X0281653Y0017588D01*
X0275747Y0017588D02*
X0273582Y0019754D01*
X0273582Y0026446D01*
X0275747Y0028612D01*
X0195200Y0028400D02*
X0195200Y0061400D01*
X0215200Y0061400D01*
X0215200Y0028400D01*
X0195200Y0028400D01*
X0197200Y0033900D02*
X0197202Y0033944D01*
X0197208Y0033988D01*
X0197218Y0034031D01*
X0197231Y0034073D01*
X0197248Y0034114D01*
X0197269Y0034153D01*
X0197293Y0034190D01*
X0197320Y0034225D01*
X0197350Y0034257D01*
X0197383Y0034287D01*
X0197419Y0034313D01*
X0197456Y0034337D01*
X0197496Y0034356D01*
X0197537Y0034373D01*
X0197580Y0034385D01*
X0197623Y0034394D01*
X0197667Y0034399D01*
X0197711Y0034400D01*
X0197755Y0034397D01*
X0197799Y0034390D01*
X0197842Y0034379D01*
X0197884Y0034365D01*
X0197924Y0034347D01*
X0197963Y0034325D01*
X0197999Y0034301D01*
X0198033Y0034273D01*
X0198065Y0034242D01*
X0198094Y0034208D01*
X0198120Y0034172D01*
X0198142Y0034134D01*
X0198161Y0034094D01*
X0198176Y0034052D01*
X0198188Y0034010D01*
X0198196Y0033966D01*
X0198200Y0033922D01*
X0198200Y0033878D01*
X0198196Y0033834D01*
X0198188Y0033790D01*
X0198176Y0033748D01*
X0198161Y0033706D01*
X0198142Y0033666D01*
X0198120Y0033628D01*
X0198094Y0033592D01*
X0198065Y0033558D01*
X0198033Y0033527D01*
X0197999Y0033499D01*
X0197963Y0033475D01*
X0197924Y0033453D01*
X0197884Y0033435D01*
X0197842Y0033421D01*
X0197799Y0033410D01*
X0197755Y0033403D01*
X0197711Y0033400D01*
X0197667Y0033401D01*
X0197623Y0033406D01*
X0197580Y0033415D01*
X0197537Y0033427D01*
X0197496Y0033444D01*
X0197456Y0033463D01*
X0197419Y0033487D01*
X0197383Y0033513D01*
X0197350Y0033543D01*
X0197320Y0033575D01*
X0197293Y0033610D01*
X0197269Y0033647D01*
X0197248Y0033686D01*
X0197231Y0033727D01*
X0197218Y0033769D01*
X0197208Y0033812D01*
X0197202Y0033856D01*
X0197200Y0033900D01*
X0244479Y0103057D02*
X0243494Y0103057D01*
X0243494Y0122743D01*
X0244479Y0122743D01*
X0254321Y0122743D02*
X0255306Y0122743D01*
X0255306Y0103057D01*
X0254321Y0103057D01*
X0227437Y0110687D02*
X0227437Y0121513D01*
X0219563Y0121513D02*
X0219563Y0110687D01*
D12*
X0150300Y0021500D02*
X0152800Y0024000D01*
X0157800Y0024000D01*
X0160300Y0021500D01*
X0162800Y0024000D01*
X0167800Y0024000D01*
X0170300Y0021500D01*
X0172800Y0024000D01*
X0177800Y0024000D01*
X0180300Y0021500D01*
X0182800Y0024000D01*
X0187800Y0024000D01*
X0190300Y0021500D01*
X0192800Y0024000D01*
X0197800Y0024000D01*
X0200300Y0021500D01*
X0202800Y0024000D01*
X0207800Y0024000D01*
X0210300Y0021500D01*
X0210300Y0016500D01*
X0207800Y0014000D01*
X0202800Y0014000D01*
X0200300Y0016500D01*
X0197800Y0014000D01*
X0192800Y0014000D01*
X0190300Y0016500D01*
X0187800Y0014000D01*
X0182800Y0014000D01*
X0180300Y0016500D01*
X0177800Y0014000D01*
X0172800Y0014000D01*
X0170300Y0016500D01*
X0167800Y0014000D01*
X0162800Y0014000D01*
X0160300Y0016500D01*
X0157800Y0014000D01*
X0152800Y0014000D01*
X0150300Y0016500D01*
X0150300Y0021500D01*
X0160300Y0021500D02*
X0160300Y0016500D01*
X0170300Y0016500D02*
X0170300Y0021500D01*
X0180300Y0021500D02*
X0180300Y0016500D01*
X0190300Y0016500D02*
X0190300Y0021500D01*
X0200300Y0021500D02*
X0200300Y0016500D01*
D13*
X0253332Y0060730D02*
X0268868Y0060730D01*
X0253332Y0068470D02*
X0268868Y0068470D01*
X0268868Y0060730D01*
X0253332Y0060730D02*
X0253332Y0068470D01*
X0282201Y0065702D02*
X0293799Y0065702D01*
X0293799Y0061898D01*
X0282201Y0061898D01*
X0282201Y0065702D01*
X0259399Y0033198D02*
X0247801Y0033198D01*
X0247801Y0037002D01*
X0259399Y0037002D01*
X0259399Y0033198D01*
X0258968Y0024470D02*
X0243432Y0024470D01*
X0258968Y0016730D02*
X0243432Y0016730D01*
X0243432Y0024470D01*
X0258968Y0024470D02*
X0258968Y0016730D01*
X0299902Y0044699D02*
X0299902Y0033101D01*
X0296098Y0033101D01*
X0296098Y0044699D01*
X0299902Y0044699D01*
X0277101Y0055002D02*
X0288699Y0055002D01*
X0288699Y0051198D01*
X0277101Y0051198D01*
X0277101Y0055002D01*
X0237070Y0049632D02*
X0237070Y0065168D01*
X0229330Y0049632D02*
X0229330Y0065168D01*
X0237070Y0065168D01*
X0237070Y0049632D02*
X0229330Y0049632D01*
X0268199Y0055698D02*
X0256601Y0055698D01*
X0256601Y0059502D01*
X0268199Y0059502D01*
X0268199Y0055698D01*
X0268299Y0068798D02*
X0256701Y0068798D01*
X0256701Y0072602D01*
X0268299Y0072602D01*
X0268299Y0068798D01*
X0256701Y0077002D02*
X0268299Y0077002D01*
X0268299Y0073198D01*
X0256701Y0073198D01*
X0256701Y0077002D01*
X0259399Y0027498D02*
X0247801Y0027498D01*
X0247801Y0031302D01*
X0259399Y0031302D01*
X0259399Y0027498D01*
X0247801Y0042802D02*
X0259399Y0042802D01*
X0259399Y0038998D01*
X0247801Y0038998D01*
X0247801Y0042802D01*
X0293799Y0039498D02*
X0282201Y0039498D01*
X0282201Y0043302D01*
X0293799Y0043302D01*
X0293799Y0039498D01*
X0290700Y0043300D02*
X0290700Y0045502D01*
X0291801Y0045502D01*
X0292168Y0045135D01*
X0292168Y0044401D01*
X0291801Y0044034D01*
X0290700Y0044034D01*
X0291434Y0044034D02*
X0292168Y0043300D01*
X0292910Y0044768D02*
X0293644Y0045502D01*
X0293644Y0043300D01*
X0292910Y0043300D02*
X0294378Y0043300D01*
X0295120Y0045502D02*
X0296588Y0045502D01*
X0296588Y0045135D01*
X0295120Y0043667D01*
X0295120Y0043300D01*
X0293799Y0045598D02*
X0282201Y0045598D01*
X0282201Y0049402D01*
X0293799Y0049402D01*
X0293799Y0045598D01*
X0293699Y0034398D02*
X0282101Y0034398D01*
X0282101Y0038202D01*
X0293699Y0038202D01*
X0293699Y0034398D01*
X0293799Y0056198D02*
X0282201Y0056198D01*
X0282201Y0060002D01*
X0293799Y0060002D01*
X0293799Y0056198D01*
X0139202Y0089899D02*
X0139202Y0078301D01*
X0135398Y0078301D01*
X0135398Y0089899D01*
X0139202Y0089899D01*
X0133202Y0094999D02*
X0133202Y0083401D01*
X0129398Y0083401D01*
X0129398Y0094999D01*
X0133202Y0094999D01*
X0211402Y0146599D02*
X0211402Y0135001D01*
X0207598Y0135001D01*
X0207598Y0146599D01*
X0211402Y0146599D01*
X0129398Y0069701D02*
X0129398Y0081299D01*
X0133202Y0081299D01*
X0133202Y0069701D01*
X0129398Y0069701D01*
X0169598Y0058801D02*
X0169598Y0070399D01*
X0173402Y0070399D01*
X0173402Y0058801D01*
X0169598Y0058801D01*
X0189598Y0045701D02*
X0189598Y0057299D01*
X0193402Y0057299D01*
X0193402Y0045701D01*
X0189598Y0045701D01*
X0242599Y0089798D02*
X0231001Y0089798D01*
X0231001Y0093602D01*
X0242599Y0093602D01*
X0242599Y0089798D01*
X0179101Y0147802D02*
X0190699Y0147802D01*
X0190699Y0143998D01*
X0179101Y0143998D01*
X0179101Y0147802D01*
X0175932Y0142470D02*
X0191468Y0142470D01*
X0191468Y0134730D02*
X0175932Y0134730D01*
X0175932Y0142470D01*
X0191468Y0142470D02*
X0191468Y0134730D01*
X0177801Y0133902D02*
X0189399Y0133902D01*
X0189399Y0130098D01*
X0177801Y0130098D01*
X0177801Y0133902D01*
X0116202Y0034899D02*
X0116202Y0023301D01*
X0112398Y0023301D01*
X0112398Y0034899D01*
X0116202Y0034899D01*
X0111102Y0034899D02*
X0111102Y0023301D01*
X0107298Y0023301D01*
X0107298Y0034899D01*
X0111102Y0034899D01*
X0106102Y0034899D02*
X0106102Y0023301D01*
X0102298Y0023301D01*
X0102298Y0034899D01*
X0106102Y0034899D01*
X0100902Y0034899D02*
X0100902Y0023301D01*
X0097098Y0023301D01*
X0097098Y0034899D01*
X0100902Y0034899D01*
X0056802Y0144399D02*
X0056802Y0132801D01*
X0052998Y0132801D01*
X0052998Y0144399D01*
X0056802Y0144399D01*
X0047602Y0144399D02*
X0047602Y0132801D01*
X0043798Y0132801D01*
X0043798Y0144399D01*
X0047602Y0144399D01*
X0043070Y0145268D02*
X0043070Y0129732D01*
X0035330Y0129732D02*
X0035330Y0145268D01*
X0043070Y0145268D01*
X0043070Y0129732D02*
X0035330Y0129732D01*
X0083070Y0036768D02*
X0083070Y0021232D01*
X0075330Y0021232D02*
X0075330Y0036768D01*
X0083070Y0036768D01*
X0083070Y0021232D02*
X0075330Y0021232D01*
X0051001Y0027102D02*
X0062599Y0027102D01*
X0062599Y0023298D01*
X0051001Y0023298D01*
X0051001Y0027102D01*
X0258201Y0092302D02*
X0269799Y0092302D01*
X0269799Y0088498D01*
X0258201Y0088498D01*
X0258201Y0092302D01*
X0251498Y0151301D02*
X0251498Y0162899D01*
X0255302Y0162899D01*
X0255302Y0151301D01*
X0251498Y0151301D01*
X0251498Y0134901D02*
X0251498Y0146499D01*
X0255302Y0146499D01*
X0255302Y0134901D01*
X0251498Y0134901D01*
X0291398Y0152001D02*
X0291398Y0163599D01*
X0295202Y0163599D01*
X0295202Y0152001D01*
X0291398Y0152001D01*
X0291298Y0135401D02*
X0291298Y0146999D01*
X0295102Y0146999D01*
X0295102Y0135401D01*
X0291298Y0135401D01*
X0116702Y0159899D02*
X0116702Y0148301D01*
X0112898Y0148301D01*
X0112898Y0159899D01*
X0116702Y0159899D01*
X0122302Y0159999D02*
X0122302Y0148401D01*
X0118498Y0148401D01*
X0118498Y0159999D01*
X0122302Y0159999D01*
X0110902Y0159999D02*
X0110902Y0148401D01*
X0107098Y0148401D01*
X0107098Y0159999D01*
X0110902Y0159999D01*
X0093402Y0160099D02*
X0093402Y0148501D01*
X0089598Y0148501D01*
X0089598Y0160099D01*
X0093402Y0160099D01*
X0099202Y0159999D02*
X0099202Y0148401D01*
X0095398Y0148401D01*
X0095398Y0159999D01*
X0099202Y0159999D01*
X0087802Y0160199D02*
X0087802Y0148601D01*
X0083998Y0148601D01*
X0083998Y0160199D01*
X0087802Y0160199D01*
X0070002Y0160299D02*
X0070002Y0148701D01*
X0066198Y0148701D01*
X0066198Y0160299D01*
X0070002Y0160299D01*
X0075702Y0160199D02*
X0075702Y0148601D01*
X0071898Y0148601D01*
X0071898Y0160199D01*
X0075702Y0160199D01*
X0063902Y0160299D02*
X0063902Y0148701D01*
X0060098Y0148701D01*
X0060098Y0160299D01*
X0063902Y0160299D01*
X0264098Y0112101D02*
X0264098Y0123699D01*
X0267902Y0123699D01*
X0267902Y0112101D01*
X0264098Y0112101D01*
X0261802Y0113799D02*
X0261802Y0102201D01*
X0257998Y0102201D01*
X0257998Y0113799D01*
X0261802Y0113799D01*
X0212698Y0116001D02*
X0212698Y0127599D01*
X0216502Y0127599D01*
X0216502Y0116001D01*
X0212698Y0116001D01*
X0233802Y0116199D02*
X0233802Y0104601D01*
X0229998Y0104601D01*
X0229998Y0116199D01*
X0233802Y0116199D01*
X0238230Y0060264D02*
X0238230Y0079736D01*
X0245970Y0079736D01*
X0245970Y0060264D01*
X0238230Y0060264D01*
X0220330Y0039364D02*
X0220330Y0058836D01*
X0228070Y0058836D01*
X0228070Y0039364D01*
X0220330Y0039364D01*
X0284332Y0030570D02*
X0299868Y0030570D01*
X0299868Y0022830D02*
X0284332Y0022830D01*
X0284332Y0030570D01*
X0299868Y0030570D02*
X0299868Y0022830D01*
X0234930Y0024768D02*
X0234930Y0009232D01*
X0242670Y0024768D02*
X0242670Y0009232D01*
X0234930Y0009232D01*
X0234930Y0024768D02*
X0242670Y0024768D01*
X0235098Y0026401D02*
X0235098Y0037999D01*
X0238902Y0037999D01*
X0238902Y0026401D01*
X0235098Y0026401D01*
X0240798Y0026401D02*
X0240798Y0037999D01*
X0244602Y0037999D01*
X0244602Y0026401D01*
X0240798Y0026401D01*
M02*
