%
M48
M72
T01C0.0118
T02C0.0197
T03C0.0236
T04C0.0402
T05C0.0728
T06C0.1260
%
T01
X25240Y7520
X3390Y3850
X6390Y3900
X7910Y3900
X11900Y3830
X8870Y3890
X5490Y14650
X11920Y12070
X24460Y9310
X26650Y9990
X7430Y12190
X18230Y9400
X20160Y9390
X20950Y14890
X26000Y11530
X21940Y11850
X23180Y11850
X13130Y6770
X17150Y5690
X26860Y13020
X21270Y2610
X19150Y4340
X29430Y4750
X29600Y2070
X24720Y4090
X27030Y6060
X23290Y6630
X8430Y5630
X8430Y4790
X26350Y1320
X21910Y1320
X9920Y9810
X11290Y9810
X13630Y9980
X12390Y9980
X7990Y15720
X12600Y15676
X10250Y15676
X7930Y16340
X9580Y16340
X11480Y16330
X19010Y9460
X19010Y10100
X19150Y5970
X18150Y5970
X30430Y6940
X30050Y16540
X24210Y5750
X25370Y5760
X21080Y7250
X19800Y7790
T02
X17750Y14590
T03
X27150Y4250
X15540Y7810
X15580Y6310
X15640Y3300
X15580Y4810
X28830Y1760
X7910Y1970
X29560Y680
T04
X15530Y1950
X16530Y1850
X17530Y1950
X18530Y1850
X19530Y1950
X20530Y1850
T05
X16840Y3630
X16840Y13630
T06
X2000Y2000
X2000Y15500
M30
