G75*
%MOIN*%
%OFA0B0*%
%FSLAX25Y25*%
%IPPOS*%
%LPD*%
%AMOC8*
5,1,8,0,0,1.08239X$1,22.5*
%
%ADD10C,0.00000*%
D10*
X0003125Y0000000D02*
X0306775Y0000000D01*
X0306887Y0000002D01*
X0306998Y0000008D01*
X0307109Y0000018D01*
X0307220Y0000032D01*
X0307330Y0000050D01*
X0307439Y0000071D01*
X0307548Y0000097D01*
X0307655Y0000127D01*
X0307762Y0000160D01*
X0307867Y0000197D01*
X0307971Y0000238D01*
X0308073Y0000282D01*
X0308174Y0000331D01*
X0308273Y0000382D01*
X0308370Y0000437D01*
X0308465Y0000496D01*
X0308557Y0000558D01*
X0308648Y0000623D01*
X0308736Y0000692D01*
X0308821Y0000763D01*
X0308904Y0000838D01*
X0308985Y0000915D01*
X0309062Y0000996D01*
X0309137Y0001079D01*
X0309208Y0001164D01*
X0309277Y0001252D01*
X0309342Y0001343D01*
X0309404Y0001435D01*
X0309463Y0001530D01*
X0309518Y0001627D01*
X0309569Y0001726D01*
X0309618Y0001827D01*
X0309662Y0001929D01*
X0309703Y0002033D01*
X0309740Y0002138D01*
X0309773Y0002245D01*
X0309803Y0002352D01*
X0309829Y0002461D01*
X0309850Y0002570D01*
X0309868Y0002680D01*
X0309882Y0002791D01*
X0309892Y0002902D01*
X0309898Y0003013D01*
X0309900Y0003125D01*
X0309900Y0171875D01*
X0309898Y0171987D01*
X0309892Y0172098D01*
X0309882Y0172209D01*
X0309868Y0172320D01*
X0309850Y0172430D01*
X0309829Y0172539D01*
X0309803Y0172648D01*
X0309773Y0172755D01*
X0309740Y0172862D01*
X0309703Y0172967D01*
X0309662Y0173071D01*
X0309618Y0173173D01*
X0309569Y0173274D01*
X0309518Y0173373D01*
X0309463Y0173470D01*
X0309404Y0173565D01*
X0309342Y0173657D01*
X0309277Y0173748D01*
X0309208Y0173836D01*
X0309137Y0173921D01*
X0309062Y0174004D01*
X0308985Y0174085D01*
X0308904Y0174162D01*
X0308821Y0174237D01*
X0308736Y0174308D01*
X0308648Y0174377D01*
X0308557Y0174442D01*
X0308465Y0174504D01*
X0308370Y0174563D01*
X0308273Y0174618D01*
X0308174Y0174669D01*
X0308073Y0174718D01*
X0307971Y0174762D01*
X0307867Y0174803D01*
X0307762Y0174840D01*
X0307655Y0174873D01*
X0307548Y0174903D01*
X0307439Y0174929D01*
X0307330Y0174950D01*
X0307220Y0174968D01*
X0307109Y0174982D01*
X0306998Y0174992D01*
X0306887Y0174998D01*
X0306775Y0175000D01*
X0003125Y0175000D01*
X0003013Y0174998D01*
X0002902Y0174992D01*
X0002791Y0174982D01*
X0002680Y0174968D01*
X0002570Y0174950D01*
X0002461Y0174929D01*
X0002352Y0174903D01*
X0002245Y0174873D01*
X0002138Y0174840D01*
X0002033Y0174803D01*
X0001929Y0174762D01*
X0001827Y0174718D01*
X0001726Y0174669D01*
X0001627Y0174618D01*
X0001530Y0174563D01*
X0001435Y0174504D01*
X0001343Y0174442D01*
X0001252Y0174377D01*
X0001164Y0174308D01*
X0001079Y0174237D01*
X0000996Y0174162D01*
X0000915Y0174085D01*
X0000838Y0174004D01*
X0000763Y0173921D01*
X0000692Y0173836D01*
X0000623Y0173748D01*
X0000558Y0173657D01*
X0000496Y0173565D01*
X0000437Y0173470D01*
X0000382Y0173373D01*
X0000331Y0173274D01*
X0000282Y0173173D01*
X0000238Y0173071D01*
X0000197Y0172967D01*
X0000160Y0172862D01*
X0000127Y0172755D01*
X0000097Y0172648D01*
X0000071Y0172539D01*
X0000050Y0172430D01*
X0000032Y0172320D01*
X0000018Y0172209D01*
X0000008Y0172098D01*
X0000002Y0171987D01*
X0000000Y0171875D01*
X0000000Y0003125D01*
X0000002Y0003013D01*
X0000008Y0002902D01*
X0000018Y0002791D01*
X0000032Y0002680D01*
X0000050Y0002570D01*
X0000071Y0002461D01*
X0000097Y0002352D01*
X0000127Y0002245D01*
X0000160Y0002138D01*
X0000197Y0002033D01*
X0000238Y0001929D01*
X0000282Y0001827D01*
X0000331Y0001726D01*
X0000382Y0001627D01*
X0000437Y0001530D01*
X0000496Y0001435D01*
X0000558Y0001343D01*
X0000623Y0001252D01*
X0000692Y0001164D01*
X0000763Y0001079D01*
X0000838Y0000996D01*
X0000915Y0000915D01*
X0000996Y0000838D01*
X0001079Y0000763D01*
X0001164Y0000692D01*
X0001252Y0000623D01*
X0001343Y0000558D01*
X0001435Y0000496D01*
X0001530Y0000437D01*
X0001627Y0000382D01*
X0001726Y0000331D01*
X0001827Y0000282D01*
X0001929Y0000238D01*
X0002033Y0000197D01*
X0002138Y0000160D01*
X0002245Y0000127D01*
X0002352Y0000097D01*
X0002461Y0000071D01*
X0002570Y0000050D01*
X0002680Y0000032D01*
X0002791Y0000018D01*
X0002902Y0000008D01*
X0003013Y0000002D01*
X0003125Y0000000D01*
X0013701Y0020000D02*
X0013703Y0020158D01*
X0013709Y0020316D01*
X0013719Y0020474D01*
X0013733Y0020632D01*
X0013751Y0020789D01*
X0013772Y0020946D01*
X0013798Y0021102D01*
X0013828Y0021258D01*
X0013861Y0021413D01*
X0013899Y0021566D01*
X0013940Y0021719D01*
X0013985Y0021871D01*
X0014034Y0022022D01*
X0014087Y0022171D01*
X0014143Y0022319D01*
X0014203Y0022465D01*
X0014267Y0022610D01*
X0014335Y0022753D01*
X0014406Y0022895D01*
X0014480Y0023035D01*
X0014558Y0023172D01*
X0014640Y0023308D01*
X0014724Y0023442D01*
X0014813Y0023573D01*
X0014904Y0023702D01*
X0014999Y0023829D01*
X0015096Y0023954D01*
X0015197Y0024076D01*
X0015301Y0024195D01*
X0015408Y0024312D01*
X0015518Y0024426D01*
X0015631Y0024537D01*
X0015746Y0024646D01*
X0015864Y0024751D01*
X0015985Y0024853D01*
X0016108Y0024953D01*
X0016234Y0025049D01*
X0016362Y0025142D01*
X0016492Y0025232D01*
X0016625Y0025318D01*
X0016760Y0025402D01*
X0016896Y0025481D01*
X0017035Y0025558D01*
X0017176Y0025630D01*
X0017318Y0025700D01*
X0017462Y0025765D01*
X0017608Y0025827D01*
X0017755Y0025885D01*
X0017904Y0025940D01*
X0018054Y0025991D01*
X0018205Y0026038D01*
X0018357Y0026081D01*
X0018510Y0026120D01*
X0018665Y0026156D01*
X0018820Y0026187D01*
X0018976Y0026215D01*
X0019132Y0026239D01*
X0019289Y0026259D01*
X0019447Y0026275D01*
X0019604Y0026287D01*
X0019763Y0026295D01*
X0019921Y0026299D01*
X0020079Y0026299D01*
X0020237Y0026295D01*
X0020396Y0026287D01*
X0020553Y0026275D01*
X0020711Y0026259D01*
X0020868Y0026239D01*
X0021024Y0026215D01*
X0021180Y0026187D01*
X0021335Y0026156D01*
X0021490Y0026120D01*
X0021643Y0026081D01*
X0021795Y0026038D01*
X0021946Y0025991D01*
X0022096Y0025940D01*
X0022245Y0025885D01*
X0022392Y0025827D01*
X0022538Y0025765D01*
X0022682Y0025700D01*
X0022824Y0025630D01*
X0022965Y0025558D01*
X0023104Y0025481D01*
X0023240Y0025402D01*
X0023375Y0025318D01*
X0023508Y0025232D01*
X0023638Y0025142D01*
X0023766Y0025049D01*
X0023892Y0024953D01*
X0024015Y0024853D01*
X0024136Y0024751D01*
X0024254Y0024646D01*
X0024369Y0024537D01*
X0024482Y0024426D01*
X0024592Y0024312D01*
X0024699Y0024195D01*
X0024803Y0024076D01*
X0024904Y0023954D01*
X0025001Y0023829D01*
X0025096Y0023702D01*
X0025187Y0023573D01*
X0025276Y0023442D01*
X0025360Y0023308D01*
X0025442Y0023172D01*
X0025520Y0023035D01*
X0025594Y0022895D01*
X0025665Y0022753D01*
X0025733Y0022610D01*
X0025797Y0022465D01*
X0025857Y0022319D01*
X0025913Y0022171D01*
X0025966Y0022022D01*
X0026015Y0021871D01*
X0026060Y0021719D01*
X0026101Y0021566D01*
X0026139Y0021413D01*
X0026172Y0021258D01*
X0026202Y0021102D01*
X0026228Y0020946D01*
X0026249Y0020789D01*
X0026267Y0020632D01*
X0026281Y0020474D01*
X0026291Y0020316D01*
X0026297Y0020158D01*
X0026299Y0020000D01*
X0026297Y0019842D01*
X0026291Y0019684D01*
X0026281Y0019526D01*
X0026267Y0019368D01*
X0026249Y0019211D01*
X0026228Y0019054D01*
X0026202Y0018898D01*
X0026172Y0018742D01*
X0026139Y0018587D01*
X0026101Y0018434D01*
X0026060Y0018281D01*
X0026015Y0018129D01*
X0025966Y0017978D01*
X0025913Y0017829D01*
X0025857Y0017681D01*
X0025797Y0017535D01*
X0025733Y0017390D01*
X0025665Y0017247D01*
X0025594Y0017105D01*
X0025520Y0016965D01*
X0025442Y0016828D01*
X0025360Y0016692D01*
X0025276Y0016558D01*
X0025187Y0016427D01*
X0025096Y0016298D01*
X0025001Y0016171D01*
X0024904Y0016046D01*
X0024803Y0015924D01*
X0024699Y0015805D01*
X0024592Y0015688D01*
X0024482Y0015574D01*
X0024369Y0015463D01*
X0024254Y0015354D01*
X0024136Y0015249D01*
X0024015Y0015147D01*
X0023892Y0015047D01*
X0023766Y0014951D01*
X0023638Y0014858D01*
X0023508Y0014768D01*
X0023375Y0014682D01*
X0023240Y0014598D01*
X0023104Y0014519D01*
X0022965Y0014442D01*
X0022824Y0014370D01*
X0022682Y0014300D01*
X0022538Y0014235D01*
X0022392Y0014173D01*
X0022245Y0014115D01*
X0022096Y0014060D01*
X0021946Y0014009D01*
X0021795Y0013962D01*
X0021643Y0013919D01*
X0021490Y0013880D01*
X0021335Y0013844D01*
X0021180Y0013813D01*
X0021024Y0013785D01*
X0020868Y0013761D01*
X0020711Y0013741D01*
X0020553Y0013725D01*
X0020396Y0013713D01*
X0020237Y0013705D01*
X0020079Y0013701D01*
X0019921Y0013701D01*
X0019763Y0013705D01*
X0019604Y0013713D01*
X0019447Y0013725D01*
X0019289Y0013741D01*
X0019132Y0013761D01*
X0018976Y0013785D01*
X0018820Y0013813D01*
X0018665Y0013844D01*
X0018510Y0013880D01*
X0018357Y0013919D01*
X0018205Y0013962D01*
X0018054Y0014009D01*
X0017904Y0014060D01*
X0017755Y0014115D01*
X0017608Y0014173D01*
X0017462Y0014235D01*
X0017318Y0014300D01*
X0017176Y0014370D01*
X0017035Y0014442D01*
X0016896Y0014519D01*
X0016760Y0014598D01*
X0016625Y0014682D01*
X0016492Y0014768D01*
X0016362Y0014858D01*
X0016234Y0014951D01*
X0016108Y0015047D01*
X0015985Y0015147D01*
X0015864Y0015249D01*
X0015746Y0015354D01*
X0015631Y0015463D01*
X0015518Y0015574D01*
X0015408Y0015688D01*
X0015301Y0015805D01*
X0015197Y0015924D01*
X0015096Y0016046D01*
X0014999Y0016171D01*
X0014904Y0016298D01*
X0014813Y0016427D01*
X0014724Y0016558D01*
X0014640Y0016692D01*
X0014558Y0016828D01*
X0014480Y0016965D01*
X0014406Y0017105D01*
X0014335Y0017247D01*
X0014267Y0017390D01*
X0014203Y0017535D01*
X0014143Y0017681D01*
X0014087Y0017829D01*
X0014034Y0017978D01*
X0013985Y0018129D01*
X0013940Y0018281D01*
X0013899Y0018434D01*
X0013861Y0018587D01*
X0013828Y0018742D01*
X0013798Y0018898D01*
X0013772Y0019054D01*
X0013751Y0019211D01*
X0013733Y0019368D01*
X0013719Y0019526D01*
X0013709Y0019684D01*
X0013703Y0019842D01*
X0013701Y0020000D01*
X0013701Y0155000D02*
X0013703Y0155158D01*
X0013709Y0155316D01*
X0013719Y0155474D01*
X0013733Y0155632D01*
X0013751Y0155789D01*
X0013772Y0155946D01*
X0013798Y0156102D01*
X0013828Y0156258D01*
X0013861Y0156413D01*
X0013899Y0156566D01*
X0013940Y0156719D01*
X0013985Y0156871D01*
X0014034Y0157022D01*
X0014087Y0157171D01*
X0014143Y0157319D01*
X0014203Y0157465D01*
X0014267Y0157610D01*
X0014335Y0157753D01*
X0014406Y0157895D01*
X0014480Y0158035D01*
X0014558Y0158172D01*
X0014640Y0158308D01*
X0014724Y0158442D01*
X0014813Y0158573D01*
X0014904Y0158702D01*
X0014999Y0158829D01*
X0015096Y0158954D01*
X0015197Y0159076D01*
X0015301Y0159195D01*
X0015408Y0159312D01*
X0015518Y0159426D01*
X0015631Y0159537D01*
X0015746Y0159646D01*
X0015864Y0159751D01*
X0015985Y0159853D01*
X0016108Y0159953D01*
X0016234Y0160049D01*
X0016362Y0160142D01*
X0016492Y0160232D01*
X0016625Y0160318D01*
X0016760Y0160402D01*
X0016896Y0160481D01*
X0017035Y0160558D01*
X0017176Y0160630D01*
X0017318Y0160700D01*
X0017462Y0160765D01*
X0017608Y0160827D01*
X0017755Y0160885D01*
X0017904Y0160940D01*
X0018054Y0160991D01*
X0018205Y0161038D01*
X0018357Y0161081D01*
X0018510Y0161120D01*
X0018665Y0161156D01*
X0018820Y0161187D01*
X0018976Y0161215D01*
X0019132Y0161239D01*
X0019289Y0161259D01*
X0019447Y0161275D01*
X0019604Y0161287D01*
X0019763Y0161295D01*
X0019921Y0161299D01*
X0020079Y0161299D01*
X0020237Y0161295D01*
X0020396Y0161287D01*
X0020553Y0161275D01*
X0020711Y0161259D01*
X0020868Y0161239D01*
X0021024Y0161215D01*
X0021180Y0161187D01*
X0021335Y0161156D01*
X0021490Y0161120D01*
X0021643Y0161081D01*
X0021795Y0161038D01*
X0021946Y0160991D01*
X0022096Y0160940D01*
X0022245Y0160885D01*
X0022392Y0160827D01*
X0022538Y0160765D01*
X0022682Y0160700D01*
X0022824Y0160630D01*
X0022965Y0160558D01*
X0023104Y0160481D01*
X0023240Y0160402D01*
X0023375Y0160318D01*
X0023508Y0160232D01*
X0023638Y0160142D01*
X0023766Y0160049D01*
X0023892Y0159953D01*
X0024015Y0159853D01*
X0024136Y0159751D01*
X0024254Y0159646D01*
X0024369Y0159537D01*
X0024482Y0159426D01*
X0024592Y0159312D01*
X0024699Y0159195D01*
X0024803Y0159076D01*
X0024904Y0158954D01*
X0025001Y0158829D01*
X0025096Y0158702D01*
X0025187Y0158573D01*
X0025276Y0158442D01*
X0025360Y0158308D01*
X0025442Y0158172D01*
X0025520Y0158035D01*
X0025594Y0157895D01*
X0025665Y0157753D01*
X0025733Y0157610D01*
X0025797Y0157465D01*
X0025857Y0157319D01*
X0025913Y0157171D01*
X0025966Y0157022D01*
X0026015Y0156871D01*
X0026060Y0156719D01*
X0026101Y0156566D01*
X0026139Y0156413D01*
X0026172Y0156258D01*
X0026202Y0156102D01*
X0026228Y0155946D01*
X0026249Y0155789D01*
X0026267Y0155632D01*
X0026281Y0155474D01*
X0026291Y0155316D01*
X0026297Y0155158D01*
X0026299Y0155000D01*
X0026297Y0154842D01*
X0026291Y0154684D01*
X0026281Y0154526D01*
X0026267Y0154368D01*
X0026249Y0154211D01*
X0026228Y0154054D01*
X0026202Y0153898D01*
X0026172Y0153742D01*
X0026139Y0153587D01*
X0026101Y0153434D01*
X0026060Y0153281D01*
X0026015Y0153129D01*
X0025966Y0152978D01*
X0025913Y0152829D01*
X0025857Y0152681D01*
X0025797Y0152535D01*
X0025733Y0152390D01*
X0025665Y0152247D01*
X0025594Y0152105D01*
X0025520Y0151965D01*
X0025442Y0151828D01*
X0025360Y0151692D01*
X0025276Y0151558D01*
X0025187Y0151427D01*
X0025096Y0151298D01*
X0025001Y0151171D01*
X0024904Y0151046D01*
X0024803Y0150924D01*
X0024699Y0150805D01*
X0024592Y0150688D01*
X0024482Y0150574D01*
X0024369Y0150463D01*
X0024254Y0150354D01*
X0024136Y0150249D01*
X0024015Y0150147D01*
X0023892Y0150047D01*
X0023766Y0149951D01*
X0023638Y0149858D01*
X0023508Y0149768D01*
X0023375Y0149682D01*
X0023240Y0149598D01*
X0023104Y0149519D01*
X0022965Y0149442D01*
X0022824Y0149370D01*
X0022682Y0149300D01*
X0022538Y0149235D01*
X0022392Y0149173D01*
X0022245Y0149115D01*
X0022096Y0149060D01*
X0021946Y0149009D01*
X0021795Y0148962D01*
X0021643Y0148919D01*
X0021490Y0148880D01*
X0021335Y0148844D01*
X0021180Y0148813D01*
X0021024Y0148785D01*
X0020868Y0148761D01*
X0020711Y0148741D01*
X0020553Y0148725D01*
X0020396Y0148713D01*
X0020237Y0148705D01*
X0020079Y0148701D01*
X0019921Y0148701D01*
X0019763Y0148705D01*
X0019604Y0148713D01*
X0019447Y0148725D01*
X0019289Y0148741D01*
X0019132Y0148761D01*
X0018976Y0148785D01*
X0018820Y0148813D01*
X0018665Y0148844D01*
X0018510Y0148880D01*
X0018357Y0148919D01*
X0018205Y0148962D01*
X0018054Y0149009D01*
X0017904Y0149060D01*
X0017755Y0149115D01*
X0017608Y0149173D01*
X0017462Y0149235D01*
X0017318Y0149300D01*
X0017176Y0149370D01*
X0017035Y0149442D01*
X0016896Y0149519D01*
X0016760Y0149598D01*
X0016625Y0149682D01*
X0016492Y0149768D01*
X0016362Y0149858D01*
X0016234Y0149951D01*
X0016108Y0150047D01*
X0015985Y0150147D01*
X0015864Y0150249D01*
X0015746Y0150354D01*
X0015631Y0150463D01*
X0015518Y0150574D01*
X0015408Y0150688D01*
X0015301Y0150805D01*
X0015197Y0150924D01*
X0015096Y0151046D01*
X0014999Y0151171D01*
X0014904Y0151298D01*
X0014813Y0151427D01*
X0014724Y0151558D01*
X0014640Y0151692D01*
X0014558Y0151828D01*
X0014480Y0151965D01*
X0014406Y0152105D01*
X0014335Y0152247D01*
X0014267Y0152390D01*
X0014203Y0152535D01*
X0014143Y0152681D01*
X0014087Y0152829D01*
X0014034Y0152978D01*
X0013985Y0153129D01*
X0013940Y0153281D01*
X0013899Y0153434D01*
X0013861Y0153587D01*
X0013828Y0153742D01*
X0013798Y0153898D01*
X0013772Y0154054D01*
X0013751Y0154211D01*
X0013733Y0154368D01*
X0013719Y0154526D01*
X0013709Y0154684D01*
X0013703Y0154842D01*
X0013701Y0155000D01*
M02*
