G75*
%MOIN*%
%OFA0B0*%
%FSLAX25Y25*%
%IPPOS*%
%LPD*%
%AMOC8*
5,1,8,0,0,1.08239X$1,22.5*
%
%ADD10R,0.02559X0.03150*%
%ADD11R,0.05906X0.01181*%
%ADD12R,0.01181X0.05906*%
%ADD13R,0.02756X0.00787*%
%ADD14R,0.00787X0.02756*%
%ADD15R,0.06496X0.06496*%
%ADD16R,0.08661X0.09843*%
%ADD17R,0.07874X0.01969*%
%ADD18R,0.03937X0.07874*%
%ADD19R,0.01772X0.01772*%
%ADD20R,0.10950X0.10950*%
%ADD21C,0.06000*%
%ADD22R,0.05118X0.05906*%
%ADD23R,0.02756X0.03543*%
%ADD24R,0.03543X0.02756*%
%ADD25R,0.05906X0.05118*%
%ADD26R,0.04724X0.02559*%
%ADD27R,0.19000X0.20000*%
%ADD28R,0.01400X0.03000*%
%ADD29R,0.09055X0.06299*%
%ADD30R,0.08661X0.05118*%
%ADD31R,0.05000X0.02500*%
%ADD32R,0.07098X0.06299*%
%ADD33C,0.02800*%
%ADD34C,0.03962*%
%ADD35C,0.03569*%
D10*
X0119213Y0126339D03*
X0114213Y0126339D03*
X0109213Y0126339D03*
X0104213Y0126339D03*
X0099213Y0126339D03*
X0094213Y0126339D03*
X0089213Y0126339D03*
X0084213Y0126339D03*
X0079213Y0126339D03*
X0074213Y0126339D03*
X0069213Y0126339D03*
X0064213Y0126339D03*
X0059213Y0126339D03*
X0054213Y0126339D03*
X0049213Y0126339D03*
X0044213Y0126339D03*
X0039213Y0126339D03*
X0034213Y0126339D03*
X0034213Y0043661D03*
X0039213Y0043661D03*
X0044213Y0043661D03*
X0049213Y0043661D03*
X0054213Y0043661D03*
X0059213Y0043661D03*
X0064213Y0043661D03*
X0069213Y0043661D03*
X0074213Y0043661D03*
X0079213Y0043661D03*
X0084213Y0043661D03*
X0089213Y0043661D03*
X0094213Y0043661D03*
X0099213Y0043661D03*
X0104213Y0043661D03*
X0109213Y0043661D03*
X0114213Y0043661D03*
X0119213Y0043661D03*
D11*
X0168462Y0109764D03*
X0168462Y0107795D03*
X0168462Y0105827D03*
X0168462Y0103858D03*
X0168462Y0101890D03*
X0168462Y0099921D03*
X0168462Y0097953D03*
X0168462Y0095984D03*
X0168462Y0094016D03*
X0168462Y0092047D03*
X0168462Y0090079D03*
X0168462Y0088110D03*
X0168462Y0086142D03*
X0168462Y0084173D03*
X0168462Y0082205D03*
X0168462Y0080236D03*
X0213738Y0080236D03*
X0213738Y0082205D03*
X0213738Y0084173D03*
X0213738Y0086142D03*
X0213738Y0088110D03*
X0213738Y0090079D03*
X0213738Y0092047D03*
X0213738Y0094016D03*
X0213738Y0095984D03*
X0213738Y0097953D03*
X0213738Y0099921D03*
X0213738Y0101890D03*
X0213738Y0103858D03*
X0213738Y0105827D03*
X0213738Y0107795D03*
X0213738Y0109764D03*
D12*
X0176336Y0072362D03*
X0178305Y0072362D03*
X0180273Y0072362D03*
X0182242Y0072362D03*
X0184210Y0072362D03*
X0186179Y0072362D03*
X0188147Y0072362D03*
X0190116Y0072362D03*
X0192084Y0072362D03*
X0194053Y0072362D03*
X0196021Y0072362D03*
X0197990Y0072362D03*
X0199958Y0072362D03*
X0201927Y0072362D03*
X0203895Y0072362D03*
X0205864Y0072362D03*
X0205864Y0117638D03*
X0203895Y0117638D03*
X0201927Y0117638D03*
X0199958Y0117638D03*
X0197990Y0117638D03*
X0196021Y0117638D03*
X0194053Y0117638D03*
X0192084Y0117638D03*
X0190116Y0117638D03*
X0188147Y0117638D03*
X0186179Y0117638D03*
X0184210Y0117638D03*
X0182242Y0117638D03*
X0180273Y0117638D03*
X0178305Y0117638D03*
X0176336Y0117638D03*
D13*
X0265988Y0045650D03*
X0265988Y0044075D03*
X0265988Y0042500D03*
X0265988Y0040925D03*
X0265988Y0039350D03*
X0277012Y0039350D03*
X0277012Y0040925D03*
X0277012Y0042500D03*
X0277012Y0044075D03*
X0277012Y0045650D03*
D14*
X0268350Y0036988D03*
X0269925Y0036988D03*
X0271500Y0036988D03*
X0273075Y0036988D03*
X0274650Y0036988D03*
X0274650Y0048012D03*
X0273075Y0048012D03*
X0271500Y0048012D03*
X0269925Y0048012D03*
X0268350Y0048012D03*
D15*
X0271500Y0042500D03*
D16*
X0277326Y0080165D03*
X0277326Y0113235D03*
X0298192Y0080165D03*
X0298192Y0113235D03*
D17*
X0276342Y0090401D03*
X0276342Y0093550D03*
X0276342Y0096700D03*
X0276342Y0099850D03*
X0276342Y0102999D03*
D18*
X0268588Y0137589D03*
X0284612Y0137589D03*
X0268588Y0161211D03*
X0284612Y0161211D03*
X0228688Y0137089D03*
X0244712Y0137089D03*
X0228688Y0160711D03*
X0244712Y0160711D03*
D19*
X0071473Y0141127D03*
X0068127Y0141127D03*
X0068127Y0144473D03*
X0071473Y0144473D03*
X0094873Y0141327D03*
X0091527Y0141327D03*
X0091527Y0144673D03*
X0094873Y0144673D03*
X0118073Y0140427D03*
X0114727Y0140427D03*
X0114727Y0143773D03*
X0118073Y0143773D03*
D20*
X0168400Y0036300D03*
X0168400Y0136300D03*
D21*
X0155300Y0019500D03*
X0165300Y0018500D03*
X0175300Y0019500D03*
X0185300Y0018500D03*
X0195300Y0019500D03*
X0205300Y0018500D03*
D22*
X0264840Y0064600D03*
X0257360Y0064600D03*
X0247460Y0020600D03*
X0254940Y0020600D03*
X0179960Y0138600D03*
X0187440Y0138600D03*
X0288360Y0026700D03*
X0295840Y0026700D03*
D23*
X0285441Y0063800D03*
X0290559Y0063800D03*
X0256159Y0035100D03*
X0251041Y0035100D03*
X0280341Y0053100D03*
X0285459Y0053100D03*
X0264959Y0057600D03*
X0259841Y0057600D03*
X0265059Y0070700D03*
X0259941Y0070700D03*
X0259941Y0075100D03*
X0265059Y0075100D03*
X0256159Y0029400D03*
X0251041Y0029400D03*
X0251041Y0040900D03*
X0256159Y0040900D03*
X0290559Y0041400D03*
X0285441Y0041400D03*
X0290559Y0047500D03*
X0285441Y0047500D03*
X0290459Y0036300D03*
X0285341Y0036300D03*
X0290559Y0058100D03*
X0285441Y0058100D03*
X0239359Y0091700D03*
X0234241Y0091700D03*
X0182341Y0145900D03*
X0187459Y0145900D03*
X0181041Y0132000D03*
X0186159Y0132000D03*
X0054241Y0025200D03*
X0059359Y0025200D03*
X0261441Y0090400D03*
X0266559Y0090400D03*
D24*
X0298000Y0041459D03*
X0298000Y0036341D03*
X0137300Y0086659D03*
X0137300Y0081541D03*
X0131300Y0091759D03*
X0131300Y0086641D03*
X0209500Y0143359D03*
X0209500Y0138241D03*
X0131300Y0072941D03*
X0131300Y0078059D03*
X0171500Y0062041D03*
X0171500Y0067159D03*
X0191500Y0048941D03*
X0191500Y0054059D03*
X0114300Y0031659D03*
X0114300Y0026541D03*
X0109200Y0031659D03*
X0109200Y0026541D03*
X0104200Y0031659D03*
X0104200Y0026541D03*
X0099000Y0031659D03*
X0099000Y0026541D03*
X0054900Y0141159D03*
X0054900Y0136041D03*
X0045700Y0141159D03*
X0045700Y0136041D03*
X0253400Y0154541D03*
X0253400Y0159659D03*
X0253400Y0138141D03*
X0253400Y0143259D03*
X0293300Y0155241D03*
X0293300Y0160359D03*
X0293200Y0138641D03*
X0293200Y0143759D03*
X0114800Y0156659D03*
X0114800Y0151541D03*
X0120400Y0156759D03*
X0120400Y0151641D03*
X0109000Y0156759D03*
X0109000Y0151641D03*
X0091500Y0156859D03*
X0091500Y0151741D03*
X0097300Y0156759D03*
X0097300Y0151641D03*
X0085900Y0156959D03*
X0085900Y0151841D03*
X0068100Y0157059D03*
X0068100Y0151941D03*
X0073800Y0156959D03*
X0073800Y0151841D03*
X0062000Y0157059D03*
X0062000Y0151941D03*
X0266000Y0115341D03*
X0266000Y0120459D03*
X0259900Y0110559D03*
X0259900Y0105441D03*
X0214600Y0119241D03*
X0214600Y0124359D03*
X0231900Y0112959D03*
X0231900Y0107841D03*
X0237000Y0029641D03*
X0237000Y0034759D03*
X0242700Y0029641D03*
X0242700Y0034759D03*
D25*
X0233200Y0061140D03*
X0233200Y0053660D03*
X0039200Y0141240D03*
X0039200Y0133760D03*
X0079200Y0032740D03*
X0079200Y0025260D03*
X0238800Y0013260D03*
X0238800Y0020740D03*
D26*
X0265200Y0031513D03*
X0265200Y0020687D03*
X0278700Y0028513D03*
X0278700Y0017687D03*
D27*
X0205200Y0044900D03*
D28*
X0197700Y0029900D03*
X0202700Y0029900D03*
X0207700Y0029900D03*
X0212700Y0029900D03*
X0212700Y0059900D03*
X0207700Y0059900D03*
X0202700Y0059900D03*
X0197700Y0059900D03*
D29*
X0249400Y0105420D03*
X0249400Y0120380D03*
D30*
X0223500Y0124368D03*
X0223500Y0107832D03*
D31*
X0149600Y0088100D03*
X0149600Y0083100D03*
X0149600Y0078100D03*
X0149600Y0073100D03*
X0149600Y0068100D03*
X0149600Y0063100D03*
X0149600Y0058100D03*
X0149600Y0053100D03*
X0149600Y0048100D03*
X0149600Y0043100D03*
X0149600Y0038100D03*
X0149600Y0033100D03*
D32*
X0242100Y0075598D03*
X0242100Y0064402D03*
X0224200Y0054698D03*
X0224200Y0043502D03*
D33*
X0252400Y0075200D03*
X0033900Y0038500D03*
X0063900Y0039000D03*
X0079100Y0039000D03*
X0119000Y0038300D03*
X0088700Y0038900D03*
X0054900Y0146500D03*
X0119200Y0120700D03*
X0244600Y0093100D03*
X0266500Y0099900D03*
X0074300Y0121900D03*
X0182300Y0094000D03*
X0201600Y0093900D03*
X0209500Y0148900D03*
X0260000Y0115300D03*
X0219400Y0118500D03*
X0231800Y0118500D03*
X0131300Y0067700D03*
X0171500Y0056900D03*
X0268600Y0130200D03*
X0212700Y0026100D03*
X0191500Y0043400D03*
X0294300Y0047500D03*
X0296000Y0020700D03*
X0247200Y0040900D03*
X0270300Y0060600D03*
X0232900Y0066300D03*
X0084300Y0056300D03*
X0084300Y0047900D03*
X0263500Y0013200D03*
X0219100Y0013200D03*
X0099200Y0098100D03*
X0112900Y0098100D03*
X0136300Y0099800D03*
X0123900Y0099800D03*
X0079900Y0157200D03*
X0126000Y0156759D03*
X0102500Y0156759D03*
X0079300Y0163400D03*
X0095800Y0163400D03*
X0114800Y0163300D03*
X0190100Y0094600D03*
X0190100Y0101000D03*
X0191500Y0059700D03*
X0181500Y0059700D03*
X0304300Y0069400D03*
X0300500Y0165400D03*
X0242100Y0057500D03*
X0253700Y0057600D03*
X0210800Y0072500D03*
X0198000Y0077900D03*
D34*
X0271500Y0042500D03*
X0155400Y0078100D03*
X0155800Y0063100D03*
X0156400Y0033000D03*
X0155800Y0048100D03*
X0288300Y0017600D03*
X0079100Y0019700D03*
X0295600Y0006800D03*
D35*
X0177500Y0145900D03*
M02*
