G75*
G70*
%OFA0B0*%
%FSLAX24Y24*%
%IPPOS*%
%LPD*%
%AMOC8*
5,1,8,0,0,1.08239X$1,22.5*
%
%ADD10R,0.1600X0.1600*%
%ADD11R,0.1095X0.1095*%
%ADD12C,0.0600*%
%ADD13C,0.0100*%
%ADD14C,0.0280*%
%ADD15C,0.0357*%
%ADD16C,0.0240*%
D10*
X016840Y008630D03*
D11*
X016840Y003630D03*
X016840Y013630D03*
D12*
X015530Y001950D03*
X016530Y001850D03*
X017530Y001950D03*
X018530Y001850D03*
X019530Y001950D03*
X020530Y001850D03*
D13*
X021400Y004042D02*
X021400Y004158D01*
X021356Y004264D01*
X021274Y004346D01*
X021168Y004390D01*
X021052Y004390D01*
X020946Y004346D01*
X020864Y004264D01*
X020820Y004158D01*
X020820Y004042D01*
X020864Y003936D01*
X020910Y003890D01*
X020910Y002106D01*
X020785Y002231D01*
X020619Y002300D01*
X020440Y002300D01*
X020275Y002231D01*
X020149Y002105D01*
X020080Y001939D01*
X020080Y001760D01*
X020149Y001595D01*
X020275Y001469D01*
X020440Y001400D01*
X020619Y001400D01*
X020785Y001469D01*
X020910Y001594D01*
X020910Y001390D01*
X020864Y001344D01*
X020820Y001238D01*
X020820Y001122D01*
X020838Y001080D01*
X017220Y001080D01*
X017220Y002713D01*
X017103Y002830D01*
X017040Y002830D01*
X017040Y002932D01*
X017450Y002932D01*
X017537Y003020D01*
X017537Y004240D01*
X017450Y004327D01*
X016230Y004327D01*
X016142Y004240D01*
X016142Y003020D01*
X016230Y002932D01*
X016640Y002932D01*
X016640Y002713D01*
X016640Y002547D01*
X016757Y002430D01*
X016820Y002430D01*
X016820Y002196D01*
X016785Y002231D01*
X016619Y002300D01*
X016440Y002300D01*
X016275Y002231D01*
X016149Y002105D01*
X016080Y001939D01*
X016080Y001760D01*
X016149Y001595D01*
X016275Y001469D01*
X016440Y001400D01*
X016619Y001400D01*
X016785Y001469D01*
X016820Y001504D01*
X016820Y000963D01*
X016820Y000797D01*
X016917Y000700D01*
X013220Y000700D01*
X013296Y000776D01*
X013340Y000882D01*
X013340Y000998D01*
X013296Y001104D01*
X013250Y001150D01*
X013250Y001660D01*
X013296Y001706D01*
X013340Y001812D01*
X013340Y001928D01*
X013296Y002034D01*
X013214Y002116D01*
X013108Y002160D01*
X012992Y002160D01*
X012886Y002116D01*
X012804Y002034D01*
X012760Y001928D01*
X012760Y001812D01*
X012804Y001706D01*
X012850Y001660D01*
X012850Y001150D01*
X012804Y001104D01*
X012760Y000998D01*
X012760Y000882D01*
X012804Y000776D01*
X012880Y000700D01*
X008130Y000700D01*
X008130Y000743D01*
X008130Y001750D01*
X008176Y001796D01*
X008220Y001902D01*
X008220Y002018D01*
X008176Y002124D01*
X008094Y002206D01*
X007988Y002250D01*
X007872Y002250D01*
X007766Y002206D01*
X007684Y002124D01*
X007640Y002018D01*
X007640Y001902D01*
X007684Y001796D01*
X007730Y001750D01*
X007730Y000926D01*
X007648Y000960D01*
X007532Y000960D01*
X007426Y000916D01*
X007344Y000834D01*
X007300Y000728D01*
X007300Y000612D01*
X007344Y000506D01*
X007364Y000486D01*
X000500Y000500D01*
X000500Y005500D01*
X005000Y005500D01*
X005000Y016920D01*
X030542Y016920D01*
X030542Y012443D01*
X030478Y012470D01*
X030362Y012470D01*
X030256Y012426D01*
X030174Y012344D01*
X030130Y012238D01*
X030130Y012122D01*
X030150Y012074D01*
X030150Y006956D01*
X030130Y006908D01*
X030130Y006792D01*
X030174Y006686D01*
X030256Y006604D01*
X030362Y006560D01*
X030478Y006560D01*
X030542Y006587D01*
X030542Y000450D01*
X029590Y000450D01*
X029590Y000583D01*
X029590Y001030D01*
X029636Y001076D01*
X029680Y001182D01*
X029680Y001298D01*
X029636Y001404D01*
X029554Y001486D01*
X029448Y001530D01*
X029332Y001530D01*
X029226Y001486D01*
X029144Y001404D01*
X029100Y001298D01*
X029100Y001182D01*
X029144Y001076D01*
X029190Y001030D01*
X029190Y000700D01*
X027083Y000700D01*
X027180Y000797D01*
X027180Y001560D01*
X027226Y001606D01*
X027270Y001712D01*
X027270Y001828D01*
X027226Y001934D01*
X027144Y002016D01*
X027038Y002060D01*
X026922Y002060D01*
X026816Y002016D01*
X026734Y001934D01*
X026690Y001828D01*
X026690Y001712D01*
X026734Y001606D01*
X026780Y001560D01*
X026780Y001080D01*
X026650Y001080D01*
X026650Y002860D01*
X026696Y002906D01*
X026740Y003012D01*
X026740Y003128D01*
X026696Y003234D01*
X026614Y003316D01*
X026508Y003360D01*
X026392Y003360D01*
X026286Y003316D01*
X026204Y003234D01*
X026160Y003128D01*
X026160Y003012D01*
X026204Y002906D01*
X026250Y002860D01*
X026250Y001080D01*
X024200Y001080D01*
X024154Y001126D01*
X024048Y001170D01*
X023932Y001170D01*
X023826Y001126D01*
X023780Y001080D01*
X021382Y001080D01*
X021400Y001122D01*
X021400Y001238D01*
X021356Y001344D01*
X021310Y001390D01*
X021310Y003890D01*
X021356Y003936D01*
X021400Y004042D01*
X008094Y016586D02*
X007988Y016630D01*
X007872Y016630D01*
X007766Y016586D01*
X007684Y016504D01*
X007640Y016398D01*
X007640Y016282D01*
X007684Y016176D01*
X007766Y016094D01*
X007872Y016050D01*
X007988Y016050D01*
X008094Y016094D01*
X008140Y016140D01*
X009370Y016140D01*
X009416Y016094D01*
X009522Y016050D01*
X009638Y016050D01*
X009744Y016094D01*
X009780Y016130D01*
X011270Y016130D01*
X011316Y016084D01*
X011422Y016040D01*
X011538Y016040D01*
X011644Y016084D01*
X011726Y016166D01*
X011770Y016272D01*
X011770Y016388D01*
X011726Y016494D01*
X011644Y016576D01*
X011538Y016620D01*
X011422Y016620D01*
X011316Y016576D01*
X011270Y016530D01*
X009800Y016530D01*
X009744Y016586D01*
X009638Y016630D01*
X009522Y016630D01*
X009416Y016586D01*
X009370Y016540D01*
X008140Y016540D01*
X008094Y016586D01*
X012554Y010226D02*
X012448Y010270D01*
X012332Y010270D01*
X012226Y010226D01*
X012144Y010144D01*
X012100Y010038D01*
X012100Y009922D01*
X012144Y009816D01*
X012226Y009734D01*
X012332Y009690D01*
X012448Y009690D01*
X012554Y009734D01*
X012600Y009780D01*
X013420Y009780D01*
X013466Y009734D01*
X013572Y009690D01*
X013688Y009690D01*
X013794Y009734D01*
X013876Y009816D01*
X013920Y009922D01*
X013920Y010038D01*
X013876Y010144D01*
X013794Y010226D01*
X013688Y010270D01*
X013572Y010270D01*
X013466Y010226D01*
X013420Y010180D01*
X012600Y010180D01*
X012554Y010226D01*
X010084Y010056D02*
X009978Y010100D01*
X009862Y010100D01*
X009756Y010056D01*
X009674Y009974D01*
X009630Y009868D01*
X009630Y009752D01*
X009674Y009646D01*
X009756Y009564D01*
X009862Y009520D01*
X009978Y009520D01*
X010084Y009564D01*
X010130Y009610D01*
X011080Y009610D01*
X011126Y009564D01*
X011232Y009520D01*
X011348Y009520D01*
X011454Y009564D01*
X011536Y009646D01*
X011580Y009752D01*
X011580Y009868D01*
X011536Y009974D01*
X011454Y010056D01*
X011348Y010100D01*
X011232Y010100D01*
X011126Y010056D01*
X011080Y010010D01*
X010130Y010010D01*
X010084Y010056D01*
X008720Y005572D02*
X008720Y005688D01*
X008676Y005794D01*
X008594Y005876D01*
X008488Y005920D01*
X008372Y005920D01*
X008266Y005876D01*
X008184Y005794D01*
X008140Y005688D01*
X008140Y005572D01*
X008184Y005466D01*
X008230Y005420D01*
X008230Y005000D01*
X008184Y004954D01*
X008140Y004848D01*
X008140Y004732D01*
X008184Y004626D01*
X008266Y004544D01*
X008372Y004500D01*
X008488Y004500D01*
X008594Y004544D01*
X008676Y004626D01*
X008720Y004732D01*
X008720Y004848D01*
X008676Y004954D01*
X008630Y005000D01*
X008630Y005420D01*
X008676Y005466D01*
X008720Y005572D01*
X017450Y014327D02*
X016230Y014327D01*
X016142Y014240D01*
X016142Y013020D01*
X016230Y012932D01*
X017450Y012932D01*
X017537Y013020D01*
X017537Y014240D01*
X017450Y014327D01*
X015980Y001860D02*
X015980Y002039D01*
X015911Y002205D01*
X015785Y002331D01*
X015619Y002400D01*
X015440Y002400D01*
X015275Y002331D01*
X015149Y002205D01*
X015080Y002039D01*
X015080Y001860D01*
X015149Y001695D01*
X015275Y001569D01*
X015440Y001500D01*
X015619Y001500D01*
X015785Y001569D01*
X015911Y001695D01*
X015980Y001860D01*
X018980Y001760D02*
X018980Y001939D01*
X018911Y002105D01*
X018785Y002231D01*
X018619Y002300D01*
X018440Y002300D01*
X018275Y002231D01*
X018149Y002105D01*
X018080Y001939D01*
X018080Y001760D01*
X018149Y001595D01*
X018275Y001469D01*
X018440Y001400D01*
X018619Y001400D01*
X018785Y001469D01*
X018911Y001595D01*
X018980Y001760D01*
X019980Y001860D02*
X019980Y002039D01*
X019911Y002205D01*
X019785Y002331D01*
X019619Y002400D01*
X019440Y002400D01*
X019275Y002331D01*
X019149Y002205D01*
X019080Y002039D01*
X019080Y001860D01*
X019149Y001695D01*
X019275Y001569D01*
X019440Y001500D01*
X019619Y001500D01*
X019785Y001569D01*
X019911Y001695D01*
X019980Y001860D01*
X026320Y004512D02*
X026320Y004628D01*
X026276Y004734D01*
X026194Y004816D01*
X026088Y004860D01*
X025972Y004860D01*
X025866Y004816D01*
X025784Y004734D01*
X025740Y004628D01*
X025740Y004512D01*
X025784Y004406D01*
X025866Y004324D01*
X025972Y004280D01*
X026088Y004280D01*
X026194Y004324D01*
X026276Y004406D01*
X026320Y004512D01*
X008236Y015884D02*
X008154Y015966D01*
X008048Y016010D01*
X007932Y016010D01*
X007826Y015966D01*
X007744Y015884D01*
X007700Y015778D01*
X007700Y015662D01*
X007744Y015556D01*
X007826Y015474D01*
X007932Y015430D01*
X008048Y015430D01*
X008154Y015474D01*
X008156Y015476D01*
X010040Y015476D01*
X010086Y015430D01*
X010192Y015386D01*
X010308Y015386D01*
X010414Y015430D01*
X010460Y015476D01*
X012390Y015476D01*
X012436Y015430D01*
X012542Y015386D01*
X012658Y015386D01*
X012764Y015430D01*
X012846Y015512D01*
X012890Y015618D01*
X012890Y015734D01*
X012846Y015840D01*
X012764Y015922D01*
X012658Y015966D01*
X012542Y015966D01*
X012436Y015922D01*
X012390Y015876D01*
X010460Y015876D01*
X010414Y015922D01*
X010308Y015966D01*
X010192Y015966D01*
X010086Y015922D01*
X010040Y015876D01*
X008239Y015876D01*
X008236Y015884D01*
X019300Y009402D02*
X019300Y009518D01*
X019256Y009624D01*
X019210Y009670D01*
X019210Y009890D01*
X019256Y009936D01*
X019300Y010042D01*
X019300Y010158D01*
X019256Y010264D01*
X019174Y010346D01*
X019068Y010390D01*
X018952Y010390D01*
X018846Y010346D01*
X018764Y010264D01*
X018720Y010158D01*
X018720Y010042D01*
X018764Y009936D01*
X018810Y009890D01*
X018810Y009670D01*
X018764Y009624D01*
X018720Y009518D01*
X018720Y009402D01*
X018764Y009296D01*
X018846Y009214D01*
X018952Y009170D01*
X019068Y009170D01*
X019174Y009214D01*
X019256Y009296D01*
X019300Y009402D01*
X007357Y000493D02*
X004149Y000493D01*
X029590Y000493D02*
X030542Y000493D01*
X007309Y000591D02*
X000500Y000591D01*
X029590Y000591D02*
X030542Y000591D01*
X007300Y000690D02*
X000500Y000690D01*
X029590Y000690D02*
X030542Y000690D01*
X007325Y000788D02*
X000500Y000788D01*
X008130Y000788D02*
X012799Y000788D01*
X013301Y000788D02*
X016829Y000788D01*
X027171Y000788D02*
X029190Y000788D01*
X029590Y000788D02*
X030542Y000788D01*
X007397Y000887D02*
X000500Y000887D01*
X008130Y000887D02*
X012760Y000887D01*
X013340Y000887D02*
X016820Y000887D01*
X027180Y000887D02*
X029190Y000887D01*
X029590Y000887D02*
X030542Y000887D01*
X007730Y000985D02*
X000500Y000985D01*
X008130Y000985D02*
X012760Y000985D01*
X013340Y000985D02*
X016820Y000985D01*
X027180Y000985D02*
X029190Y000985D01*
X029590Y000985D02*
X030542Y000985D01*
X007730Y001084D02*
X000500Y001084D01*
X008130Y001084D02*
X012796Y001084D01*
X013304Y001084D02*
X016820Y001084D01*
X017220Y001084D02*
X020836Y001084D01*
X021384Y001084D02*
X023784Y001084D01*
X024196Y001084D02*
X026250Y001084D01*
X026650Y001084D02*
X026780Y001084D01*
X027180Y001084D02*
X029141Y001084D01*
X029639Y001084D02*
X030542Y001084D01*
X007730Y001183D02*
X000500Y001183D01*
X008130Y001183D02*
X012850Y001183D01*
X013250Y001183D02*
X016820Y001183D01*
X017220Y001183D02*
X020820Y001183D01*
X021400Y001183D02*
X026250Y001183D01*
X026650Y001183D02*
X026780Y001183D01*
X027180Y001183D02*
X029100Y001183D01*
X029680Y001183D02*
X030542Y001183D01*
X007730Y001281D02*
X000500Y001281D01*
X008130Y001281D02*
X012850Y001281D01*
X013250Y001281D02*
X016820Y001281D01*
X017220Y001281D02*
X020838Y001281D01*
X021382Y001281D02*
X026250Y001281D01*
X026650Y001281D02*
X026780Y001281D01*
X027180Y001281D02*
X029100Y001281D01*
X029680Y001281D02*
X030542Y001281D01*
X007730Y001380D02*
X000500Y001380D01*
X008130Y001380D02*
X012850Y001380D01*
X013250Y001380D02*
X016820Y001380D01*
X017220Y001380D02*
X020899Y001380D01*
X021320Y001380D02*
X026250Y001380D01*
X026650Y001380D02*
X026780Y001380D01*
X027180Y001380D02*
X029134Y001380D01*
X029646Y001380D02*
X030542Y001380D01*
X007730Y001478D02*
X000500Y001478D01*
X008130Y001478D02*
X012850Y001478D01*
X013250Y001478D02*
X016265Y001478D01*
X016794Y001478D02*
X016820Y001478D01*
X017220Y001478D02*
X018265Y001478D01*
X018795Y001478D02*
X020265Y001478D01*
X020794Y001478D02*
X020910Y001478D01*
X021310Y001478D02*
X026250Y001478D01*
X026650Y001478D02*
X026780Y001478D01*
X027180Y001478D02*
X029218Y001478D01*
X029562Y001478D02*
X030542Y001478D01*
X007730Y001577D02*
X000500Y001577D01*
X008130Y001577D02*
X012850Y001577D01*
X013250Y001577D02*
X015267Y001577D01*
X015793Y001577D02*
X016167Y001577D01*
X017220Y001577D02*
X018167Y001577D01*
X018893Y001577D02*
X019267Y001577D01*
X019793Y001577D02*
X020167Y001577D01*
X020893Y001577D02*
X020910Y001577D01*
X021310Y001577D02*
X026250Y001577D01*
X026650Y001577D02*
X026763Y001577D01*
X027197Y001577D02*
X030542Y001577D01*
X007730Y001675D02*
X000500Y001675D01*
X008130Y001675D02*
X012835Y001675D01*
X013265Y001675D02*
X015168Y001675D01*
X015892Y001675D02*
X016115Y001675D01*
X017220Y001675D02*
X018115Y001675D01*
X018945Y001675D02*
X019168Y001675D01*
X019892Y001675D02*
X020115Y001675D01*
X021310Y001675D02*
X026250Y001675D01*
X026650Y001675D02*
X026705Y001675D01*
X027255Y001675D02*
X030542Y001675D01*
X007706Y001774D02*
X000500Y001774D01*
X008154Y001774D02*
X012776Y001774D01*
X013324Y001774D02*
X015116Y001774D01*
X015944Y001774D02*
X016080Y001774D01*
X017220Y001774D02*
X018080Y001774D01*
X018980Y001774D02*
X019116Y001774D01*
X019944Y001774D02*
X020080Y001774D01*
X021310Y001774D02*
X026250Y001774D01*
X026650Y001774D02*
X026690Y001774D01*
X027270Y001774D02*
X030542Y001774D01*
X007652Y001872D02*
X000500Y001872D01*
X008208Y001872D02*
X012760Y001872D01*
X013340Y001872D02*
X015080Y001872D01*
X015980Y001872D02*
X016080Y001872D01*
X017220Y001872D02*
X018080Y001872D01*
X018980Y001872D02*
X019080Y001872D01*
X019980Y001872D02*
X020080Y001872D01*
X021310Y001872D02*
X026250Y001872D01*
X026650Y001872D02*
X026709Y001872D01*
X027251Y001872D02*
X030542Y001872D01*
X007640Y001971D02*
X000500Y001971D01*
X008220Y001971D02*
X012778Y001971D01*
X013322Y001971D02*
X015080Y001971D01*
X015980Y001971D02*
X016093Y001971D01*
X017220Y001971D02*
X018093Y001971D01*
X018967Y001971D02*
X019080Y001971D01*
X019980Y001971D02*
X020093Y001971D01*
X021310Y001971D02*
X026250Y001971D01*
X026650Y001971D02*
X026771Y001971D01*
X027189Y001971D02*
X030542Y001971D01*
X007661Y002069D02*
X000500Y002069D01*
X008199Y002069D02*
X012839Y002069D01*
X013261Y002069D02*
X015092Y002069D01*
X015968Y002069D02*
X016134Y002069D01*
X017220Y002069D02*
X018134Y002069D01*
X018926Y002069D02*
X019092Y002069D01*
X019968Y002069D02*
X020134Y002069D01*
X021310Y002069D02*
X026250Y002069D01*
X026650Y002069D02*
X030542Y002069D01*
X007728Y002168D02*
X000500Y002168D01*
X008132Y002168D02*
X015133Y002168D01*
X015927Y002168D02*
X016212Y002168D01*
X017220Y002168D02*
X018212Y002168D01*
X018848Y002168D02*
X019133Y002168D01*
X019927Y002168D02*
X020212Y002168D01*
X020848Y002168D02*
X020910Y002168D01*
X021310Y002168D02*
X026250Y002168D01*
X026650Y002168D02*
X030542Y002168D01*
X015210Y002266D02*
X000500Y002266D01*
X015850Y002266D02*
X016360Y002266D01*
X016700Y002266D02*
X016820Y002266D01*
X017220Y002266D02*
X018360Y002266D01*
X018700Y002266D02*
X019210Y002266D01*
X019850Y002266D02*
X020360Y002266D01*
X020700Y002266D02*
X020910Y002266D01*
X021310Y002266D02*
X026250Y002266D01*
X026650Y002266D02*
X030542Y002266D01*
X015356Y002365D02*
X000500Y002365D01*
X015704Y002365D02*
X016820Y002365D01*
X017220Y002365D02*
X019356Y002365D01*
X019704Y002365D02*
X020910Y002365D01*
X021310Y002365D02*
X026250Y002365D01*
X026650Y002365D02*
X030542Y002365D01*
X016724Y002464D02*
X000500Y002464D01*
X017220Y002464D02*
X020910Y002464D01*
X021310Y002464D02*
X026250Y002464D01*
X026650Y002464D02*
X030542Y002464D01*
X016640Y002562D02*
X000500Y002562D01*
X017220Y002562D02*
X020910Y002562D01*
X021310Y002562D02*
X026250Y002562D01*
X026650Y002562D02*
X030542Y002562D01*
X016640Y002661D02*
X000500Y002661D01*
X017220Y002661D02*
X020910Y002661D01*
X021310Y002661D02*
X026250Y002661D01*
X026650Y002661D02*
X030542Y002661D01*
X016640Y002759D02*
X000500Y002759D01*
X017174Y002759D02*
X020910Y002759D01*
X021310Y002759D02*
X026250Y002759D01*
X026650Y002759D02*
X030542Y002759D01*
X016640Y002858D02*
X000500Y002858D01*
X017040Y002858D02*
X020910Y002858D01*
X021310Y002858D02*
X026250Y002858D01*
X026650Y002858D02*
X030542Y002858D01*
X016206Y002956D02*
X000500Y002956D01*
X017473Y002956D02*
X020910Y002956D01*
X021310Y002956D02*
X026183Y002956D01*
X026717Y002956D02*
X030542Y002956D01*
X016142Y003055D02*
X000500Y003055D01*
X017537Y003055D02*
X020910Y003055D01*
X021310Y003055D02*
X026160Y003055D01*
X026740Y003055D02*
X030542Y003055D01*
X016142Y003153D02*
X000500Y003153D01*
X017537Y003153D02*
X020910Y003153D01*
X021310Y003153D02*
X026171Y003153D01*
X026729Y003153D02*
X030542Y003153D01*
X016142Y003252D02*
X000500Y003252D01*
X017537Y003252D02*
X020910Y003252D01*
X021310Y003252D02*
X026222Y003252D01*
X026678Y003252D02*
X030542Y003252D01*
X016142Y003350D02*
X000500Y003350D01*
X017537Y003350D02*
X020910Y003350D01*
X021310Y003350D02*
X026369Y003350D01*
X026531Y003350D02*
X030542Y003350D01*
X016142Y003449D02*
X000500Y003449D01*
X017537Y003449D02*
X020910Y003449D01*
X021310Y003449D02*
X030542Y003449D01*
X016142Y003548D02*
X000500Y003548D01*
X017537Y003548D02*
X020910Y003548D01*
X021310Y003548D02*
X030542Y003548D01*
X016142Y003646D02*
X000500Y003646D01*
X017537Y003646D02*
X020910Y003646D01*
X021310Y003646D02*
X030542Y003646D01*
X016142Y003745D02*
X000500Y003745D01*
X017537Y003745D02*
X020910Y003745D01*
X021310Y003745D02*
X030542Y003745D01*
X016142Y003843D02*
X000500Y003843D01*
X017537Y003843D02*
X020910Y003843D01*
X021310Y003843D02*
X030542Y003843D01*
X016142Y003942D02*
X000500Y003942D01*
X017537Y003942D02*
X020862Y003942D01*
X021358Y003942D02*
X030542Y003942D01*
X016142Y004040D02*
X000500Y004040D01*
X017537Y004040D02*
X020821Y004040D01*
X021399Y004040D02*
X030542Y004040D01*
X016142Y004139D02*
X000500Y004139D01*
X017537Y004139D02*
X020820Y004139D01*
X021400Y004139D02*
X030542Y004139D01*
X016142Y004237D02*
X000500Y004237D01*
X017537Y004237D02*
X020853Y004237D01*
X021367Y004237D02*
X030542Y004237D01*
X020936Y004336D02*
X000500Y004336D01*
X021284Y004336D02*
X025854Y004336D01*
X026206Y004336D02*
X030542Y004336D01*
X025772Y004434D02*
X000500Y004434D01*
X026288Y004434D02*
X030542Y004434D01*
X008293Y004533D02*
X000500Y004533D01*
X008567Y004533D02*
X025740Y004533D01*
X026320Y004533D02*
X030542Y004533D01*
X008182Y004632D02*
X000500Y004632D01*
X008678Y004632D02*
X025742Y004632D01*
X026318Y004632D02*
X030542Y004632D01*
X008141Y004730D02*
X000500Y004730D01*
X008719Y004730D02*
X025782Y004730D01*
X026278Y004730D02*
X030542Y004730D01*
X008140Y004829D02*
X000500Y004829D01*
X008720Y004829D02*
X025897Y004829D01*
X026163Y004829D02*
X030542Y004829D01*
X008173Y004927D02*
X000500Y004927D01*
X008687Y004927D02*
X030542Y004927D01*
X008230Y005026D02*
X000500Y005026D01*
X008630Y005026D02*
X030542Y005026D01*
X008230Y005124D02*
X000500Y005124D01*
X008630Y005124D02*
X030542Y005124D01*
X008230Y005223D02*
X000500Y005223D01*
X008630Y005223D02*
X030542Y005223D01*
X008230Y005321D02*
X000500Y005321D01*
X008630Y005321D02*
X030542Y005321D01*
X008230Y005420D02*
X000500Y005420D01*
X008630Y005420D02*
X030542Y005420D01*
X008162Y005518D02*
X005000Y005518D01*
X008698Y005518D02*
X030542Y005518D01*
X008140Y005617D02*
X005000Y005617D01*
X008720Y005617D02*
X030542Y005617D01*
X008152Y005716D02*
X005000Y005716D01*
X008708Y005716D02*
X030542Y005716D01*
X008204Y005814D02*
X005000Y005814D01*
X008656Y005814D02*
X030542Y005814D01*
X008355Y005913D02*
X005000Y005913D01*
X008505Y005913D02*
X030542Y005913D01*
X030542Y006011D02*
X005000Y006011D01*
X005000Y006110D02*
X030542Y006110D01*
X030542Y006208D02*
X005000Y006208D01*
X005000Y006307D02*
X030542Y006307D01*
X030542Y006405D02*
X005000Y006405D01*
X005000Y006504D02*
X030542Y006504D01*
X030260Y006602D02*
X005000Y006602D01*
X005000Y006701D02*
X030168Y006701D01*
X030130Y006799D02*
X005000Y006799D01*
X005000Y006898D02*
X030130Y006898D01*
X030150Y006997D02*
X005000Y006997D01*
X005000Y007095D02*
X030150Y007095D01*
X030150Y007194D02*
X005000Y007194D01*
X005000Y007292D02*
X030150Y007292D01*
X030150Y007391D02*
X005000Y007391D01*
X005000Y007489D02*
X030150Y007489D01*
X030150Y007588D02*
X005000Y007588D01*
X005000Y007686D02*
X030150Y007686D01*
X030150Y007785D02*
X005000Y007785D01*
X005000Y007883D02*
X030150Y007883D01*
X030150Y007982D02*
X005000Y007982D01*
X005000Y008081D02*
X030150Y008081D01*
X030150Y008179D02*
X005000Y008179D01*
X005000Y008278D02*
X030150Y008278D01*
X030150Y008376D02*
X005000Y008376D01*
X005000Y008475D02*
X030150Y008475D01*
X030150Y008573D02*
X005000Y008573D01*
X005000Y008672D02*
X030150Y008672D01*
X030150Y008770D02*
X005000Y008770D01*
X005000Y008869D02*
X030150Y008869D01*
X030150Y008967D02*
X005000Y008967D01*
X005000Y009066D02*
X030150Y009066D01*
X030150Y009165D02*
X005000Y009165D01*
X005000Y009263D02*
X018797Y009263D01*
X019223Y009263D02*
X030150Y009263D01*
X018737Y009362D02*
X005000Y009362D01*
X019283Y009362D02*
X030150Y009362D01*
X018720Y009460D02*
X005000Y009460D01*
X019300Y009460D02*
X030150Y009460D01*
X009769Y009559D02*
X005000Y009559D01*
X010071Y009559D02*
X011139Y009559D01*
X011441Y009559D02*
X018737Y009559D01*
X019283Y009559D02*
X030150Y009559D01*
X009669Y009657D02*
X005000Y009657D01*
X011541Y009657D02*
X018797Y009657D01*
X019223Y009657D02*
X030150Y009657D01*
X009630Y009756D02*
X005000Y009756D01*
X011580Y009756D02*
X012204Y009756D01*
X012576Y009756D02*
X013444Y009756D01*
X013816Y009756D02*
X018810Y009756D01*
X019210Y009756D02*
X030150Y009756D01*
X009630Y009854D02*
X005000Y009854D01*
X011580Y009854D02*
X012128Y009854D01*
X013892Y009854D02*
X018810Y009854D01*
X019210Y009854D02*
X030150Y009854D01*
X009665Y009953D02*
X005000Y009953D01*
X011545Y009953D02*
X012100Y009953D01*
X013920Y009953D02*
X018757Y009953D01*
X019263Y009953D02*
X030150Y009953D01*
X009751Y010051D02*
X005000Y010051D01*
X010089Y010051D02*
X011121Y010051D01*
X011459Y010051D02*
X012106Y010051D01*
X013914Y010051D02*
X018720Y010051D01*
X019300Y010051D02*
X030150Y010051D01*
X012150Y010150D02*
X005000Y010150D01*
X013870Y010150D02*
X018720Y010150D01*
X019300Y010150D02*
X030150Y010150D01*
X012280Y010249D02*
X005000Y010249D01*
X012500Y010249D02*
X013520Y010249D01*
X013740Y010249D02*
X018758Y010249D01*
X019262Y010249D02*
X030150Y010249D01*
X018849Y010347D02*
X005000Y010347D01*
X019171Y010347D02*
X030150Y010347D01*
X030150Y010446D02*
X005000Y010446D01*
X005000Y010544D02*
X030150Y010544D01*
X030150Y010643D02*
X005000Y010643D01*
X005000Y010741D02*
X030150Y010741D01*
X030150Y010840D02*
X005000Y010840D01*
X005000Y010938D02*
X030150Y010938D01*
X030150Y011037D02*
X005000Y011037D01*
X005000Y011135D02*
X030150Y011135D01*
X030150Y011234D02*
X005000Y011234D01*
X005000Y011332D02*
X030150Y011332D01*
X030150Y011431D02*
X005000Y011431D01*
X005000Y011530D02*
X030150Y011530D01*
X030150Y011628D02*
X005000Y011628D01*
X005000Y011727D02*
X030150Y011727D01*
X030150Y011825D02*
X005000Y011825D01*
X005000Y011924D02*
X030150Y011924D01*
X030150Y012022D02*
X005000Y012022D01*
X005000Y012121D02*
X030131Y012121D01*
X030130Y012219D02*
X005000Y012219D01*
X005000Y012318D02*
X030163Y012318D01*
X030246Y012416D02*
X005000Y012416D01*
X005000Y012515D02*
X030542Y012515D01*
X030542Y012614D02*
X005000Y012614D01*
X005000Y012712D02*
X030542Y012712D01*
X030542Y012811D02*
X005000Y012811D01*
X005000Y012909D02*
X030542Y012909D01*
X016155Y013008D02*
X005000Y013008D01*
X017525Y013008D02*
X030542Y013008D01*
X016142Y013106D02*
X005000Y013106D01*
X017537Y013106D02*
X030542Y013106D01*
X016142Y013205D02*
X005000Y013205D01*
X017537Y013205D02*
X030542Y013205D01*
X016142Y013303D02*
X005000Y013303D01*
X017537Y013303D02*
X030542Y013303D01*
X016142Y013402D02*
X005000Y013402D01*
X017537Y013402D02*
X030542Y013402D01*
X016142Y013500D02*
X005000Y013500D01*
X017537Y013500D02*
X030542Y013500D01*
X016142Y013599D02*
X005000Y013599D01*
X017537Y013599D02*
X030542Y013599D01*
X016142Y013698D02*
X005000Y013698D01*
X017537Y013698D02*
X030542Y013698D01*
X016142Y013796D02*
X005000Y013796D01*
X017537Y013796D02*
X030542Y013796D01*
X016142Y013895D02*
X005000Y013895D01*
X017537Y013895D02*
X030542Y013895D01*
X016142Y013993D02*
X005000Y013993D01*
X017537Y013993D02*
X030542Y013993D01*
X016142Y014092D02*
X005000Y014092D01*
X017537Y014092D02*
X030542Y014092D01*
X016142Y014190D02*
X005000Y014190D01*
X017537Y014190D02*
X030542Y014190D01*
X016192Y014289D02*
X005000Y014289D01*
X017488Y014289D02*
X030542Y014289D01*
X030542Y014387D02*
X005000Y014387D01*
X005000Y014486D02*
X030542Y014486D01*
X030542Y014584D02*
X005000Y014584D01*
X005000Y014683D02*
X030542Y014683D01*
X030542Y014781D02*
X005000Y014781D01*
X005000Y014880D02*
X030542Y014880D01*
X030542Y014979D02*
X005000Y014979D01*
X005000Y015077D02*
X030542Y015077D01*
X030542Y015176D02*
X005000Y015176D01*
X005000Y015274D02*
X030542Y015274D01*
X030542Y015373D02*
X005000Y015373D01*
X005000Y015471D02*
X007833Y015471D01*
X008147Y015471D02*
X010044Y015471D01*
X010456Y015471D02*
X012394Y015471D01*
X012806Y015471D02*
X030542Y015471D01*
X007738Y015570D02*
X005000Y015570D01*
X012870Y015570D02*
X030542Y015570D01*
X007700Y015668D02*
X005000Y015668D01*
X012890Y015668D02*
X030542Y015668D01*
X007700Y015767D02*
X005000Y015767D01*
X012876Y015767D02*
X030542Y015767D01*
X007736Y015865D02*
X005000Y015865D01*
X012821Y015865D02*
X030542Y015865D01*
X007824Y015964D02*
X005000Y015964D01*
X008156Y015964D02*
X010188Y015964D01*
X010312Y015964D02*
X012538Y015964D01*
X012662Y015964D02*
X030542Y015964D01*
X007842Y016063D02*
X005000Y016063D01*
X008018Y016063D02*
X009492Y016063D01*
X009668Y016063D02*
X011368Y016063D01*
X011592Y016063D02*
X030542Y016063D01*
X007699Y016161D02*
X005000Y016161D01*
X011721Y016161D02*
X030542Y016161D01*
X007649Y016260D02*
X005000Y016260D01*
X011765Y016260D02*
X030542Y016260D01*
X007640Y016358D02*
X005000Y016358D01*
X011770Y016358D02*
X030542Y016358D01*
X007664Y016457D02*
X005000Y016457D01*
X011741Y016457D02*
X030542Y016457D01*
X007735Y016555D02*
X005000Y016555D01*
X008125Y016555D02*
X009385Y016555D01*
X009775Y016555D02*
X011295Y016555D01*
X011665Y016555D02*
X030542Y016555D01*
X030542Y016654D02*
X005000Y016654D01*
X005000Y016752D02*
X030542Y016752D01*
X030542Y016851D02*
X005000Y016851D01*
X029390Y001240D02*
X029390Y000500D01*
X007930Y000500D01*
X007930Y001960D02*
X007930Y000660D01*
X007930Y000500D01*
X008430Y004790D02*
X008430Y005630D01*
X007590Y000670D02*
X007590Y000660D01*
X007930Y000660D01*
X016840Y003630D02*
X016840Y002630D01*
X017020Y002630D01*
X017020Y000880D01*
X026450Y000880D02*
X026980Y000880D01*
X026980Y001770D01*
X026450Y000880D02*
X026450Y003070D01*
X017020Y000880D02*
X023990Y000880D01*
X026450Y000880D01*
X011290Y009810D02*
X009920Y009810D01*
X012390Y009980D02*
X013630Y009980D01*
X007990Y015720D02*
X007990Y015676D01*
X010250Y015676D01*
X012600Y015676D01*
X009580Y016340D02*
X009580Y016330D01*
X011480Y016330D01*
X009580Y016340D02*
X007930Y016340D01*
X021110Y004100D02*
X021110Y001180D01*
X013050Y000940D02*
X013050Y001870D01*
X019010Y009460D02*
X019010Y010100D01*
D14*
X003390Y003850D03*
X006390Y003900D03*
X007910Y003900D03*
X011900Y003830D03*
X008870Y003890D03*
X027150Y004250D03*
X005490Y014650D03*
X011920Y012070D03*
X024460Y009310D03*
X026650Y009990D03*
X007430Y012190D03*
X018230Y009400D03*
X020160Y009390D03*
X023120Y001340D03*
X020950Y014890D03*
X026000Y011530D03*
X021940Y011850D03*
X023180Y011850D03*
X013130Y006770D03*
X019920Y004040D03*
X029340Y004260D03*
X026340Y004820D03*
X024610Y004090D03*
X025740Y002140D03*
X017150Y005690D03*
X025420Y006580D03*
X023880Y004360D03*
X026860Y013020D03*
X029390Y001240D03*
X007930Y001960D03*
X008430Y005630D03*
X008430Y004790D03*
X007590Y000670D03*
X026030Y004570D03*
X026980Y001770D03*
X026450Y003070D03*
X023990Y000880D03*
X009920Y009810D03*
X011290Y009810D03*
X013630Y009980D03*
X012390Y009980D03*
X007990Y015720D03*
X012600Y015676D03*
X010250Y015676D03*
X007930Y016340D03*
X009580Y016340D03*
X011480Y016330D03*
X030420Y006850D03*
X030420Y012180D03*
X021110Y004100D03*
X021110Y001180D03*
X013050Y001870D03*
X013050Y000940D03*
X019010Y009460D03*
X019010Y010100D03*
D15*
X015540Y007810D03*
X015580Y006310D03*
X015640Y003300D03*
X015580Y004810D03*
X017750Y014590D03*
D16*
X030420Y012180D02*
X030420Y006850D01*
M02*
