%
M48
M72
T01C0.0120
T02C0.0200
T03C0.0400
T04C0.0730
%
T01
X3390Y3850
X6390Y3900
X7910Y3900
X11900Y3830
X8870Y3890
X27150Y4250
X5490Y14650
X11920Y12070
X24460Y9310
X26650Y9990
X7430Y12190
X18230Y9400
X20160Y9390
X23120Y1340
X20950Y14890
X26000Y11530
X21940Y11850
X23180Y11850
X13130Y6770
X19920Y4040
X29340Y4260
X26340Y4820
X24610Y4090
X25740Y2140
X17150Y5690
X25420Y6580
X23880Y4360
X26860Y13020
X29390Y1240
X7930Y1960
X8430Y5630
X8430Y4790
X7590Y670
X26030Y4570
X26980Y1770
X26450Y3070
X23990Y880
X9920Y9810
X11290Y9810
X13630Y9980
X12390Y9980
X7990Y15720
X12600Y15676
X10250Y15676
X7930Y16340
X9580Y16340
X11480Y16330
X30420Y6850
X30420Y12180
X21110Y4100
X21110Y1180
X13050Y1870
X13050Y940
X19010Y9460
X19010Y10100
T02
X15540Y7810
X15580Y6310
X15640Y3300
X15580Y4810
X17750Y14590
T03
X15530Y1950
X16530Y1850
X17530Y1950
X18530Y1850
X19530Y1950
X20530Y1850
T04
X16840Y3630
X16840Y13630
M30
