G75*
G70*
%OFA0B0*%
%FSLAX24Y24*%
%IPPOS*%
%LPD*%
%AMOC8*
5,1,8,0,0,1.08239X$1,22.5*
%
%ADD10R,0.0256X0.0315*%
%ADD11R,0.0591X0.0118*%
%ADD12R,0.0118X0.0591*%
%ADD13R,0.0276X0.0079*%
%ADD14R,0.0079X0.0276*%
%ADD15R,0.0650X0.0650*%
%ADD16R,0.0866X0.0984*%
%ADD17R,0.0787X0.0197*%
%ADD18R,0.0394X0.0787*%
%ADD19R,0.0177X0.0177*%
%ADD20R,0.0276X0.0354*%
%ADD21R,0.0591X0.0512*%
%ADD22R,0.0512X0.0591*%
%ADD23R,0.0354X0.0276*%
%ADD24R,0.0472X0.0256*%
%ADD25R,0.1900X0.2000*%
%ADD26R,0.0140X0.0300*%
%ADD27R,0.0906X0.0630*%
%ADD28R,0.0866X0.0512*%
%ADD29R,0.0500X0.0250*%
%ADD30R,0.0866X0.0551*%
%ADD31R,0.0551X0.0866*%
%ADD32R,0.0710X0.0630*%
D10*
X011921Y012634D03*
X011421Y012634D03*
X010921Y012634D03*
X010421Y012634D03*
X009921Y012634D03*
X009421Y012634D03*
X008921Y012634D03*
X008421Y012634D03*
X007921Y012634D03*
X007421Y012634D03*
X006921Y012634D03*
X006421Y012634D03*
X005921Y012634D03*
X005421Y012634D03*
X004921Y012634D03*
X004421Y012634D03*
X003921Y012634D03*
X003421Y012634D03*
X003421Y004366D03*
X003921Y004366D03*
X004421Y004366D03*
X004921Y004366D03*
X005421Y004366D03*
X005921Y004366D03*
X006421Y004366D03*
X006921Y004366D03*
X007421Y004366D03*
X007921Y004366D03*
X008421Y004366D03*
X008921Y004366D03*
X009421Y004366D03*
X009921Y004366D03*
X010421Y004366D03*
X010921Y004366D03*
X011421Y004366D03*
X011921Y004366D03*
D11*
X016846Y010976D03*
X016846Y010780D03*
X016846Y010583D03*
X016846Y010386D03*
X016846Y010189D03*
X016846Y009992D03*
X016846Y009795D03*
X016846Y009598D03*
X016846Y009402D03*
X016846Y009205D03*
X016846Y009008D03*
X016846Y008811D03*
X016846Y008614D03*
X016846Y008417D03*
X016846Y008220D03*
X016846Y008024D03*
X021374Y008024D03*
X021374Y008220D03*
X021374Y008417D03*
X021374Y008614D03*
X021374Y008811D03*
X021374Y009008D03*
X021374Y009205D03*
X021374Y009402D03*
X021374Y009598D03*
X021374Y009795D03*
X021374Y009992D03*
X021374Y010189D03*
X021374Y010386D03*
X021374Y010583D03*
X021374Y010780D03*
X021374Y010976D03*
D12*
X017634Y007236D03*
X017830Y007236D03*
X018027Y007236D03*
X018224Y007236D03*
X018421Y007236D03*
X018618Y007236D03*
X018815Y007236D03*
X019012Y007236D03*
X019208Y007236D03*
X019405Y007236D03*
X019602Y007236D03*
X019799Y007236D03*
X019996Y007236D03*
X020193Y007236D03*
X020390Y007236D03*
X020586Y007236D03*
X020586Y011764D03*
X020390Y011764D03*
X020193Y011764D03*
X019996Y011764D03*
X019799Y011764D03*
X019602Y011764D03*
X019405Y011764D03*
X019208Y011764D03*
X019012Y011764D03*
X018815Y011764D03*
X018618Y011764D03*
X018421Y011764D03*
X018224Y011764D03*
X018027Y011764D03*
X017830Y011764D03*
X017634Y011764D03*
D13*
X026599Y004565D03*
X026599Y004407D03*
X026599Y004250D03*
X026599Y004093D03*
X026599Y003935D03*
X027701Y003935D03*
X027701Y004093D03*
X027701Y004250D03*
X027701Y004407D03*
X027701Y004565D03*
D14*
X026835Y003699D03*
X026993Y003699D03*
X027150Y003699D03*
X027307Y003699D03*
X027465Y003699D03*
X027465Y004801D03*
X027307Y004801D03*
X027150Y004801D03*
X026993Y004801D03*
X026835Y004801D03*
D15*
X027150Y004250D03*
D16*
X027733Y008016D03*
X027733Y011324D03*
X029819Y008016D03*
X029819Y011324D03*
D17*
X027634Y009040D03*
X027634Y009355D03*
X027634Y009670D03*
X027634Y009985D03*
X027634Y010300D03*
D18*
X026859Y013759D03*
X028461Y013759D03*
X026859Y016121D03*
X028461Y016121D03*
X022869Y013709D03*
X024471Y013709D03*
X022869Y016071D03*
X024471Y016071D03*
D19*
X007147Y014113D03*
X006813Y014113D03*
X006813Y014447D03*
X007147Y014447D03*
X009487Y014133D03*
X009153Y014133D03*
X009153Y014467D03*
X009487Y014467D03*
X011807Y014043D03*
X011473Y014043D03*
X011473Y014377D03*
X011807Y014377D03*
D20*
X024024Y005620D03*
X024536Y005620D03*
X028814Y005770D03*
X029326Y005770D03*
X025556Y003600D03*
X025044Y003600D03*
X029656Y003080D03*
X029144Y003080D03*
X028304Y004750D03*
X028816Y004750D03*
X026526Y005640D03*
X026014Y005640D03*
X025556Y003090D03*
X025044Y003090D03*
X025044Y004090D03*
X025556Y004090D03*
X028314Y003790D03*
X028826Y003790D03*
X028826Y004260D03*
X028314Y004260D03*
X028466Y003080D03*
X027954Y003080D03*
X029326Y005250D03*
X028814Y005250D03*
X023936Y009170D03*
X023424Y009170D03*
X018234Y014590D03*
X018746Y014590D03*
X018104Y013200D03*
X018616Y013200D03*
X005424Y002520D03*
X005936Y002520D03*
X026144Y009040D03*
X026656Y009040D03*
D21*
X025110Y002154D03*
X025110Y001406D03*
X003920Y014124D03*
X003920Y013376D03*
X007920Y003274D03*
X007920Y002526D03*
D22*
X024026Y004920D03*
X024774Y004920D03*
X017996Y013860D03*
X018744Y013860D03*
D23*
X027000Y006264D03*
X027000Y006776D03*
X026520Y006776D03*
X026520Y006264D03*
X026020Y006264D03*
X026020Y006776D03*
X013730Y008666D03*
X013730Y008154D03*
X013130Y009176D03*
X013130Y008664D03*
X020950Y014336D03*
X020950Y013824D03*
X013130Y007294D03*
X013130Y007806D03*
X017150Y006204D03*
X017150Y006716D03*
X020380Y004044D03*
X020380Y004556D03*
X011430Y003166D03*
X011430Y002654D03*
X010920Y003166D03*
X010920Y002654D03*
X010420Y003166D03*
X010420Y002654D03*
X009900Y003166D03*
X009900Y002654D03*
X005490Y014116D03*
X005490Y013604D03*
X004570Y014116D03*
X004570Y013604D03*
X025340Y015454D03*
X025340Y015966D03*
X025340Y013814D03*
X025340Y014326D03*
X029330Y015524D03*
X029330Y016036D03*
X029320Y013864D03*
X029320Y014376D03*
X011480Y015666D03*
X011480Y015154D03*
X012040Y015676D03*
X012040Y015164D03*
X010900Y015676D03*
X010900Y015164D03*
X009150Y015686D03*
X009150Y015174D03*
X009730Y015676D03*
X009730Y015164D03*
X008590Y015696D03*
X008590Y015184D03*
X006810Y015706D03*
X006810Y015194D03*
X007380Y015696D03*
X007380Y015184D03*
X006200Y015706D03*
X006200Y015194D03*
X026600Y011534D03*
X026600Y012046D03*
X025990Y011056D03*
X025990Y010544D03*
X021460Y011924D03*
X021460Y012436D03*
X023190Y011296D03*
X023190Y010784D03*
D24*
X026300Y002471D03*
X026300Y001389D03*
X027720Y002221D03*
X027720Y001139D03*
D25*
X022380Y003220D03*
D26*
X021630Y001720D03*
X022130Y001720D03*
X022630Y001720D03*
X023130Y001720D03*
X023130Y004720D03*
X022630Y004720D03*
X022130Y004720D03*
X021630Y004720D03*
D27*
X024940Y010542D03*
X024940Y012038D03*
D28*
X022350Y012437D03*
X022350Y010783D03*
D29*
X014960Y008810D03*
X014960Y008310D03*
X014960Y007810D03*
X014960Y007310D03*
X014960Y006810D03*
X014960Y006310D03*
X014960Y005810D03*
X014960Y005310D03*
X014960Y004810D03*
X014960Y004310D03*
X014960Y003810D03*
X014960Y003310D03*
D30*
X003410Y001430D03*
X004670Y001430D03*
D31*
X013710Y003310D03*
X013710Y002050D03*
D32*
X024700Y007950D03*
X024700Y006830D03*
X022990Y007870D03*
X022990Y006750D03*
M02*
