600 0 1 0           
37 SolidWorks(2001039)-Sat-Convertor-2.0 13 ACIS 6.0.2 NT 24 Sun Nov 01 11:17:04 2015 
1 9.9999999999999995e-007 1e-010 
-0 body $1 $2 $-1 $-1 #
-1 rgb_color-st-attrib $-1 $-1 $-1 $0 0.94117647058823528 0.67450980392156867 0.11764705882352941 #
-2 lump $-1 $-1 $3 $0 #
-3 shell $-1 $-1 $-1 $4 $-1 $2 #
-4 face $5 $6 $7 $3 $-1 $8 reversed single #
-5 rgb_color-st-attrib $-1 $-1 $-1 $4 0 0 0 #
-6 face $9 $10 $11 $3 $-1 $12 reversed single #
-7 loop $-1 $-1 $13 $4 #
-8 plane-surface $-1 2.5399999999999947 5.588000000000001 -50.799999999999997 0 -1 0 0 0 -1000 forward_v I I I I #
-9 rgb_color-st-attrib $-1 $-1 $-1 $6 0 0 0 #
-10 face $14 $15 $16 $3 $-1 $17 reversed single #
-11 loop $-1 $-1 $18 $6 #
-12 plane-surface $-1 81.279999999999987 5.5880000000000454 -43.179999999999993 0 0 -1 -1000 0 0 forward_v I I I I #
-13 coedge $-1 $19 $20 $21 $22 forward $7 $-1 #
-14 rgb_color-st-attrib $-1 $-1 $-1 $10 0 0 0 #
-15 face $23 $24 $25 $3 $-1 $26 reversed single #
-16 loop $-1 $-1 $27 $10 #
-17 cone-surface $-1 4.1274999999999951 5.588000000000001 -49.212499999999999 0 -1 0 0 0 -1.5874999999999986 1 I I 0 1 1000 forward I I I I #
-18 coedge $-1 $28 $29 $30 $31 forward $11 $-1 #
-19 coedge $-1 $32 $13 $33 $34 forward $7 $-1 #
-20 coedge $-1 $13 $35 $36 $37 forward $7 $-1 #
-21 coedge $-1 $38 $39 $13 $22 reversed $40 $-1 #
-22 edge $-1 $41 0.0015875000000000004 $42 0.077152499999999971 $13 $43 forward 7 unknown #
-23 rgb_color-st-attrib $-1 $-1 $-1 $15 0 0 0 #
-24 face $44 $45 $46 $3 $-1 $47 reversed single #
-25 loop $-1 $-1 $48 $15 #
-26 plane-surface $-1 81.279999999999987 5.588000000000001 -6.3500000000000334 1 0 3.1221119927591599e-016 3.1221119927591599e-013 0 -1000 forward_v I I I I #
-27 coedge $-1 $49 $50 $51 $52 reversed $16 $-1 #
-28 coedge $-1 $53 $18 $54 $55 reversed $11 $-1 #
-29 coedge $-1 $18 $56 $57 $58 forward $11 $-1 #
-30 coedge $-1 $59 $60 $18 $31 reversed $61 $-1 #
-31 edge $-1 $62 -0.0025400000000000062 $63 0 $18 $64 forward 7 unknown #
-32 coedge $-1 $65 $19 $66 $67 forward $7 $-1 #
-33 coedge $-1 $68 $69 $19 $34 reversed $70 $-1 #
-34 edge $-1 $42 -3.1415926535897931 $71 -1.5707963267948966 $19 $72 forward 7 unknown #
-35 coedge $-1 $20 $51 $73 $74 forward $7 $-1 #
-36 coedge $-1 $75 $76 $20 $37 reversed $77 $-1 #
-37 edge $-1 $78 1.5707963267948966 $41 3.1415926535897931 $20 $79 forward 7 unknown #
-38 coedge $-1 $80 $21 $76 $81 forward $40 $-1 #
-39 coedge $-1 $21 $80 $68 $82 forward $40 $-1 #
-40 loop $-1 $-1 $80 $83 #
-41 vertex $-1 $37 $84 #
-42 vertex $-1 $82 $85 #
-43 straight-curve $-1 2.54 5.588000000000001 -6.3500000000000334 1000 0 0 I I #
-44 rgb_color-st-attrib $-1 $-1 $-1 $24 0 0 0 #
-45 face $86 $83 $87 $3 $-1 $88 reversed single #
-46 loop $-1 $-1 $89 $24 #
-47 cone-surface $-1 45.212000000000003 -2.5399999999999987 -28.574999999999999 0 1 0 0 0 14.604999999999997 1 I I 0 1 1000 forward I I I I #
-48 coedge $-1 $90 $54 $60 $91 forward $25 $-1 #
-49 coedge $-1 $92 $27 $93 $94 reversed $16 $-1 #
-50 coedge $-1 $27 $92 $95 $96 reversed $16 $-1 #
-51 coedge $-1 $35 $97 $27 $52 forward $7 $-1 #
-52 edge $-1 $98 0 $99 1.5707963267948966 $51 $100 forward 7 unknown #
-53 coedge $-1 $101 $28 $102 $103 forward $11 $-1 #
-54 coedge $-1 $48 $104 $28 $55 forward $25 $-1 #
-55 edge $-1 $105 -4.4408920985006264e-017 $63 0.0057149999999999554 $54 $106 forward 7 unknown #
-56 coedge $-1 $29 $101 $107 $108 reversed $11 $-1 #
-57 coedge $-1 $109 $110 $29 $58 reversed $111 $-1 #
-58 edge $-1 $112 -0.0081280000000000449 $62 0.0057149999999999554 $29 $113 forward 7 unknown #
-59 coedge $-1 $114 $30 $110 $115 forward $61 $-1 #
-60 coedge $-1 $30 $116 $48 $91 reversed $61 $-1 #
-61 loop $-1 $-1 $117 $118 #
-62 vertex $-1 $31 $119 #
-63 vertex $-1 $31 $120 #
-64 straight-curve $-1 81.279999999999987 11.303000000000001 -43.179999999999993 -1000 0 0 I I #
-65 coedge $-1 $121 $32 $122 $123 reversed $7 $-1 #
-66 coedge $-1 $124 $125 $32 $67 reversed $87 $-1 #
-67 edge $-1 $71 0.0015874999999999995 $126 0.0076199999999999671 $32 $127 forward 7 unknown #
-68 coedge $-1 $128 $33 $39 $82 reversed $70 $-1 #
-69 coedge $-1 $33 $128 $124 $129 reversed $70 $-1 #
-70 loop $-1 $-1 $33 $130 #
-71 vertex $-1 $129 $131 #
-72 ellipse-curve $-1 79.692499999999981 5.588000000000001 -7.9375000000000329 0 1 0 0 0 -1.5875000000000004 1 I I #
-73 coedge $-1 $95 $132 $35 $74 reversed $133 $-1 #
-74 edge $-1 $99 -0.04286249999999997 $78 -0.0015874999999999995 $35 $134 forward 7 unknown #
-75 coedge $-1 $135 $36 $132 $136 reversed $77 $-1 #
-76 coedge $-1 $36 $135 $38 $81 reversed $77 $-1 #
-77 loop $-1 $-1 $36 $137 #
-78 vertex $-1 $37 $138 #
-79 ellipse-curve $-1 4.1275000000000004 5.588000000000001 -7.9375000000000329 0 1 0 0 0 -1.5875000000000004 1 I I #
-80 coedge $-1 $39 $38 $139 $140 forward $40 $-1 #
-81 edge $-1 $41 -0.0057149999999999996 $141 0 $38 $142 forward 7 unknown #
-82 edge $-1 $143 -0.0057149999999999996 $42 0 $39 $144 forward 7 unknown #
-83 face $145 $137 $40 $3 $-1 $146 reversed single #
-84 point $-1 4.1275000000000004 5.588000000000001 -6.3500000000000334 #
-85 point $-1 79.692499999999981 5.588000000000001 -6.3500000000000334 #
-86 rgb_color-st-attrib $-1 $-1 $-1 $45 0 0 0 #
-87 loop $-1 $-1 $66 $45 #
-88 plane-surface $-1 81.279999999999987 5.588000000000001 -6.3500000000000334 1 0 3.1221119927591599e-016 3.1221119927591599e-013 0 -1000 forward_v I I I I #
-89 coedge $-1 $147 $148 $121 $149 forward $46 $-1 #
-90 coedge $-1 $104 $48 $150 $151 forward $25 $-1 #
-91 edge $-1 $63 0.036829999999999953 $152 0.04286249999999997 $48 $153 forward 7 unknown #
-92 coedge $-1 $50 $49 $154 $155 reversed $16 $-1 #
-93 coedge $-1 $156 $157 $49 $94 forward $158 $-1 #
-94 edge $-1 $159 -0.0057149999999999996 $98 0 $93 $160 forward 7 unknown #
-95 coedge $-1 $161 $73 $50 $96 forward $133 $-1 #
-96 edge $-1 $99 -0.0057149999999999996 $162 0 $95 $163 forward 7 unknown #
-97 coedge $-1 $51 $164 $156 $165 forward $7 $-1 #
-98 vertex $-1 $94 $166 #
-99 vertex $-1 $74 $167 #
-100 ellipse-curve $-1 4.1274999999999951 5.588000000000001 -49.212499999999999 0 1 0 0 0 -1.5874999999999986 1 I I #
-101 coedge $-1 $56 $53 $148 $168 reversed $11 $-1 #
-102 coedge $-1 $169 $121 $53 $103 reversed $7 $-1 #
-103 edge $-1 $105 -0.036067999999999982 $170 0 $53 $171 forward 7 unknown #
-104 coedge $-1 $54 $90 $169 $172 reversed $25 $-1 #
-105 vertex $-1 $103 $173 #
-106 straight-curve $-1 81.279999999999987 5.5880000000000454 -43.179999999999993 0 1000 0 I I #
-107 coedge $-1 $174 $175 $56 $108 forward $176 $-1 #
-108 edge $-1 $112 -0.03860799999999999 $177 0 $107 $178 forward 7 unknown #
-109 coedge $-1 $179 $57 $175 $180 forward $111 $-1 #
-110 coedge $-1 $57 $179 $59 $115 reversed $111 $-1 #
-111 loop $-1 $-1 $109 $181 #
-112 vertex $-1 $180 $182 #
-113 straight-curve $-1 83.819999999999993 5.5880000000000454 -43.179999999999993 0 1000 0 I I #
-114 coedge $-1 $183 $59 $184 $185 forward $61 $-1 #
-115 edge $-1 $62 0.043179999999999989 $186 0.054610000000000006 $59 $187 forward 7 unknown #
-116 coedge $-1 $60 $188 $189 $190 forward $61 $-1 #
-117 coedge $-1 $191 $192 $193 $194 forward $61 $-1 #
-118 face $195 $196 $197 $3 $-1 $198 reversed single #
-119 point $-1 83.819999999999993 11.303000000000001 -43.179999999999993 #
-120 point $-1 81.279999999999987 11.303000000000001 -43.179999999999993 #
-121 coedge $-1 $102 $65 $89 $149 reversed $7 $-1 #
-122 coedge $-1 $199 $200 $65 $123 forward $201 $-1 #
-123 edge $-1 $202 0 $126 0.036067999999999982 $122 $203 forward 7 unknown #
-124 coedge $-1 $204 $66 $69 $129 forward $87 $-1 #
-125 coedge $-1 $66 $204 $199 $205 reversed $87 $-1 #
-126 vertex $-1 $67 $206 #
-127 straight-curve $-1 81.279999999999987 5.588000000000001 -6.3500000000000334 3.1221119927591599e-013 0 -1000 I I #
-128 coedge $-1 $69 $68 $207 $208 reversed $70 $-1 #
-129 edge $-1 $71 -0.0057149999999999996 $209 0 $124 $210 forward 7 unknown #
-130 face $211 $212 $70 $3 $-1 $213 reversed single #
-131 point $-1 81.279999999999987 5.588000000000001 -7.9375000000000329 #
-132 coedge $-1 $73 $161 $75 $136 forward $133 $-1 #
-133 loop $-1 $-1 $161 $212 #
-134 straight-curve $-1 2.54 5.588000000000001 -6.3500000000000334 1.2683579970584088e-013 0 1000 I I #
-135 coedge $-1 $76 $75 $214 $215 reversed $77 $-1 #
-136 edge $-1 $216 -0.0057149999999999996 $78 0 $132 $217 forward 7 unknown #
-137 face $218 $130 $77 $3 $-1 $219 reversed single #
-138 point $-1 2.54 5.588000000000001 -7.9375000000000329 #
-139 coedge $-1 $214 $207 $80 $140 reversed $61 $-1 #
-140 edge $-1 $141 0.0015875000000000004 $143 0.077152499999999971 $80 $220 forward 7 unknown #
-141 vertex $-1 $81 $221 #
-142 straight-curve $-1 4.1275000000000004 11.303000000000001 -6.3500000000000334 0 1000 0 I I #
-143 vertex $-1 $82 $222 #
-144 straight-curve $-1 79.692499999999981 5.588000000000001 -6.3500000000000334 0 -1000 0 I I #
-145 rgb_color-st-attrib $-1 $-1 $-1 $83 0 0 0 #
-146 plane-surface $-1 2.54 5.588000000000001 -6.3500000000000334 0 0 1 1000 0 0 forward_v I I I I #
-147 coedge $-1 $223 $89 $200 $224 reversed $46 $-1 #
-148 coedge $-1 $89 $223 $101 $168 forward $46 $-1 #
-149 edge $-1 $170 0 $202 3.1415926535897931 $89 $225 forward 7 unknown #
-150 coedge $-1 $189 $226 $90 $151 reversed $227 $-1 #
-151 edge $-1 $152 -0.0057149999999999996 $228 0 $90 $229 forward 7 unknown #
-152 vertex $-1 $91 $230 #
-153 straight-curve $-1 81.279999999999987 11.303000000000001 -6.3500000000000334 3.1221119927591599e-013 0 -1000 I I #
-154 coedge $-1 $188 $231 $92 $155 forward $61 $-1 #
-155 edge $-1 $162 -1.5707963267948966 $159 0 $154 $232 forward 7 unknown #
-156 coedge $-1 $233 $93 $97 $165 reversed $158 $-1 #
-157 coedge $-1 $93 $233 $188 $234 forward $158 $-1 #
-158 loop $-1 $-1 $157 $235 #
-159 vertex $-1 $94 $236 #
-160 straight-curve $-1 4.1274999999999951 5.588000000000001 -50.799999999999997 0 -1000 0 I I #
-161 coedge $-1 $132 $95 $231 $237 forward $133 $-1 #
-162 vertex $-1 $96 $238 #
-163 straight-curve $-1 2.5399999999999947 11.303000000000001 -49.212499999999999 0 1000 0 I I #
-164 coedge $-1 $97 $169 $226 $239 forward $7 $-1 #
-165 edge $-1 $240 -0.077152499999999999 $98 -0.0015875000000000004 $97 $241 forward 7 unknown #
-166 point $-1 4.1274999999999951 5.588000000000001 -50.799999999999997 #
-167 point $-1 2.5399999999999947 5.588000000000001 -49.212499999999999 #
-168 edge $-1 $177 0 $170 0.0081279999999999998 $148 $242 forward 7 unknown #
-169 coedge $-1 $164 $102 $104 $172 forward $7 $-1 #
-170 vertex $-1 $103 $243 #
-171 straight-curve $-1 45.212000000000003 5.588000000000001 -43.179999999999993 -1000 0 1.797268416884384e-013 I I #
-172 edge $-1 $105 0.036829999999999967 $228 0.04286249999999997 $169 $244 forward 7 unknown #
-173 point $-1 81.279999999999987 5.588000000000001 -43.18 #
-174 coedge $-1 $245 $107 $223 $246 forward $176 $-1 #
-175 coedge $-1 $107 $247 $109 $180 reversed $176 $-1 #
-176 loop $-1 $-1 $248 $249 #
-177 vertex $-1 $168 $250 #
-178 straight-curve $-1 45.212000000000003 -2.5399999999999987 -43.179999999999993 -1000 0 1.797268416884384e-013 I I #
-179 coedge $-1 $110 $109 $251 $252 forward $111 $-1 #
-180 edge $-1 $112 0.043180000000000003 $253 0.054610000000000006 $109 $254 forward 7 unknown #
-181 face $255 $118 $111 $3 $-1 $256 reversed single #
-182 point $-1 83.819999999999993 -2.5399999999999987 -43.18 #
-183 coedge $-1 $257 $114 $258 $259 forward $61 $-1 #
-184 coedge $-1 $251 $260 $114 $185 reversed $261 $-1 #
-185 edge $-1 $186 -1.5707963267948966 $262 0 $114 $263 forward 7 unknown #
-186 vertex $-1 $252 $264 #
-187 straight-curve $-1 83.819999999999993 11.303000000000001 0 0 0 -1000 I I #
-188 coedge $-1 $116 $154 $157 $234 reversed $61 $-1 #
-189 coedge $-1 $265 $150 $116 $190 reversed $227 $-1 #
-190 edge $-1 $266 0 $152 1.5707963267948966 $116 $267 forward 7 unknown #
-191 coedge $-1 $268 $117 $269 $270 forward $61 $-1 #
-192 coedge $-1 $117 $271 $272 $273 forward $61 $-1 #
-193 coedge $-1 $274 $275 $117 $194 reversed $276 $-1 #
-194 edge $-1 $277 0.0025399999999999997 $278 0.081279999999999991 $117 $279 forward 7 unknown #
-195 rgb_color-st-attrib $-1 $-1 $-1 $118 0 0 0 #
-196 face $280 $281 $282 $3 $-1 $283 reversed single #
-197 loop $-1 $284 $285 $118 #
-198 plane-surface $-1 0 11.303000000000001 -57.150000000000006 0 -1 0 0 0 -1000 forward_v I I I I #
-199 coedge $-1 $286 $122 $125 $205 forward $201 $-1 #
-200 coedge $-1 $122 $287 $147 $224 forward $201 $-1 #
-201 loop $-1 $-1 $286 $288 #
-202 vertex $-1 $224 $289 #
-203 straight-curve $-1 45.212000000000003 5.588000000000001 -13.970000000000001 1000 0 -1.347951312663288e-013 I I #
-204 coedge $-1 $125 $124 $290 $291 forward $87 $-1 #
-205 edge $-1 $126 0 $292 0.0057149999999999554 $199 $293 forward 7 unknown #
-206 point $-1 81.279999999999987 5.5880000000000454 -13.970000000000001 #
-207 coedge $-1 $139 $290 $128 $208 forward $61 $-1 #
-208 edge $-1 $209 1.5707963267948966 $143 3.1415926535897931 $207 $294 forward 7 unknown #
-209 vertex $-1 $291 $295 #
-210 straight-curve $-1 81.279999999999987 11.303000000000001 -7.9375000000000329 0 1000 0 I I #
-211 rgb_color-st-attrib $-1 $-1 $-1 $130 0 0 0 #
-212 face $296 $297 $133 $3 $-1 $298 reversed single #
-213 cone-surface $-1 79.692499999999981 5.588000000000001 -7.9375000000000329 0 -1 0 0 0 -1.5875000000000004 1 I I 0 1 1000 forward I I I I #
-214 coedge $-1 $231 $139 $135 $215 forward $61 $-1 #
-215 edge $-1 $141 -3.1415926535897931 $216 -1.5707963267948966 $214 $299 forward 7 unknown #
-216 vertex $-1 $136 $300 #
-217 straight-curve $-1 2.54 5.588000000000001 -7.9375000000000329 0 -1000 0 I I #
-218 rgb_color-st-attrib $-1 $-1 $-1 $137 0 0 0 #
-219 cone-surface $-1 4.1275000000000004 5.588000000000001 -7.9375000000000329 0 -1 0 0 0 -1.5875000000000004 1 I I 0 1 1000 forward I I I I #
-220 straight-curve $-1 2.54 11.303000000000001 -6.3500000000000334 1000 0 0 I I #
-221 point $-1 4.1275000000000004 11.303000000000001 -6.3500000000000334 #
-222 point $-1 79.692499999999981 11.303000000000001 -6.3500000000000334 #
-223 coedge $-1 $148 $147 $174 $246 reversed $46 $-1 #
-224 edge $-1 $301 0 $202 0.0081279999999999998 $200 $302 forward 7 unknown #
-225 ellipse-curve $-1 45.212000000000003 5.588000000000001 -28.574999999999999 0 1 0 0 0 -14.604999999999997 1 I I #
-226 coedge $-1 $150 $265 $164 $239 reversed $227 $-1 #
-227 loop $-1 $-1 $226 $297 #
-228 vertex $-1 $172 $303 #
-229 straight-curve $-1 81.280000000000001 5.588000000000001 -49.212500000000006 0 -1000 0 I I #
-230 point $-1 81.280000000000001 11.303000000000001 -49.212500000000006 #
-231 coedge $-1 $154 $214 $161 $237 reversed $61 $-1 #
-232 ellipse-curve $-1 4.1274999999999951 11.303000000000001 -49.212499999999999 0 -1 0 0 0 -1.5874999999999986 1 I I #
-233 coedge $-1 $157 $156 $265 $304 forward $158 $-1 #
-234 edge $-1 $266 -0.077152499999999999 $159 -0.0015875000000000004 $157 $305 forward 7 unknown #
-235 face $306 $288 $158 $3 $-1 $307 reversed single #
-236 point $-1 4.1274999999999951 11.303000000000001 -50.799999999999997 #
-237 edge $-1 $162 -0.04286249999999997 $216 -0.0015874999999999995 $161 $308 forward 7 unknown #
-238 point $-1 2.5399999999999947 11.303000000000001 -49.212499999999999 #
-239 edge $-1 $228 -1.5707963267948966 $240 0 $164 $309 forward 7 unknown #
-240 vertex $-1 $304 $310 #
-241 straight-curve $-1 2.5399999999999947 5.588000000000001 -50.799999999999997 -1000 0 8.8124128827879451e-014 I I #
-242 straight-curve $-1 45.212000000000003 -2.5399999999999987 -43.179999999999993 0 1000 0 I I #
-243 point $-1 45.212000000000003 5.588000000000001 -43.179999999999993 #
-244 straight-curve $-1 81.279999999999987 5.588000000000001 -6.3500000000000334 3.1221119927591599e-013 0 -1000 I I #
-245 coedge $-1 $248 $174 $287 $311 forward $176 $-1 #
-246 edge $-1 $177 0 $301 3.1415926535897931 $174 $312 forward 7 unknown #
-247 coedge $-1 $175 $313 $314 $315 forward $176 $-1 #
-248 coedge $-1 $316 $245 $317 $318 reversed $176 $-1 #
-249 face $319 $181 $320 $3 $-1 $321 forward single #
-250 point $-1 45.212000000000003 -2.5399999999999987 -43.179999999999993 #
-251 coedge $-1 $314 $184 $179 $252 reversed $261 $-1 #
-252 edge $-1 $253 -0.013842999999999999 $186 0 $179 $322 forward 7 unknown #
-253 vertex $-1 $180 $323 #
-254 straight-curve $-1 83.819999999999993 -2.5399999999999996 0 0 0 -1000 I I #
-255 rgb_color-st-attrib $-1 $-1 $-1 $181 0 0 0 #
-256 plane-surface $-1 83.819999999999993 11.303000000000001 0 -1 0 0 0 0 1000 forward_v I I I I #
-257 coedge $-1 $271 $183 $324 $325 forward $61 $-1 #
-258 coedge $-1 $326 $327 $183 $259 reversed $328 $-1 #
-259 edge $-1 $262 -0.081279999999999991 $329 -0.0025399999999999997 $183 $330 forward 7 unknown #
-260 coedge $-1 $184 $314 $326 $331 reversed $261 $-1 #
-261 loop $-1 $-1 $184 $332 #
-262 vertex $-1 $259 $333 #
-263 ellipse-curve $-1 81.279999999999987 11.303000000000001 -54.610000000000007 0 1 0 0 0 -2.5400000000000005 1 I I #
-264 point $-1 83.819999999999993 11.303000000000001 -54.610000000000007 #
-265 coedge $-1 $226 $189 $233 $304 reversed $227 $-1 #
-266 vertex $-1 $234 $334 #
-267 ellipse-curve $-1 79.692499999999995 11.303000000000001 -49.212500000000006 0 -1 0 0 0 -1.5874999999999986 1 I I #
-268 coedge $-1 $335 $191 $336 $337 forward $61 $-1 #
-269 coedge $-1 $338 $339 $191 $270 reversed $340 $-1 #
-270 edge $-1 $278 -3.1415926535897931 $341 -1.5707963267948966 $191 $342 forward 7 unknown #
-271 coedge $-1 $192 $257 $343 $344 forward $61 $-1 #
-272 coedge $-1 $345 $346 $192 $273 reversed $347 $-1 #
-273 edge $-1 $348 1.5707963267948966 $277 3.1415926535897931 $192 $349 forward 7 unknown #
-274 coedge $-1 $350 $193 $346 $351 forward $276 $-1 #
-275 coedge $-1 $193 $350 $338 $352 forward $276 $-1 #
-276 loop $-1 $-1 $350 $353 #
-277 vertex $-1 $194 $354 #
-278 vertex $-1 $352 $355 #
-279 straight-curve $-1 0 11.303000000000001 0 1000 0 0 I I #
-280 rgb_color-st-attrib $-1 $-1 $-1 $196 0 0 0 #
-281 face $356 $357 $358 $3 $-1 $359 reversed single #
-282 loop $-1 $-1 $336 $196 #
-283 plane-surface $-1 83.819999999999993 11.303000000000001 0 -1 0 0 0 0 1000 forward_v I I I I #
-284 loop $-1 $360 $361 $118 #
-285 coedge $-1 $362 $362 $363 $364 reversed $197 $-1 #
-286 coedge $-1 $365 $199 $335 $366 forward $201 $-1 #
-287 coedge $-1 $200 $365 $245 $311 reversed $201 $-1 #
-288 face $367 $249 $201 $3 $-1 $368 reversed single #
-289 point $-1 45.212000000000003 5.588000000000001 -13.970000000000001 #
-290 coedge $-1 $207 $335 $204 $291 reversed $61 $-1 #
-291 edge $-1 $209 0.0015874999999999995 $292 0.0076199999999999671 $204 $369 forward 7 unknown #
-292 vertex $-1 $291 $370 #
-293 straight-curve $-1 81.279999999999987 5.5880000000000454 -13.970000000000001 0 1000 0 I I #
-294 ellipse-curve $-1 79.692499999999981 11.303000000000001 -7.9375000000000329 0 -1 0 0 0 -1.5875000000000004 1 I I #
-295 point $-1 81.279999999999987 11.303000000000001 -7.9375000000000329 #
-296 rgb_color-st-attrib $-1 $-1 $-1 $212 0 0 0 #
-297 face $371 $235 $227 $3 $-1 $372 reversed single #
-298 plane-surface $-1 2.54 5.588000000000001 -6.3500000000000334 -1 0 1.2683579970584089e-016 1.2683579970584088e-013 0 1000 forward_v I I I I #
-299 ellipse-curve $-1 4.1275000000000004 11.303000000000001 -7.9375000000000329 0 -1 0 0 0 -1.5875000000000004 1 I I #
-300 point $-1 2.54 11.303000000000001 -7.9375000000000329 #
-301 vertex $-1 $224 $373 #
-302 straight-curve $-1 45.212000000000003 -2.5399999999999987 -13.970000000000001 0 1000 0 I I #
-303 point $-1 81.280000000000001 5.588000000000001 -49.212500000000006 #
-304 edge $-1 $240 -0.0057149999999999996 $266 0 $233 $374 forward 7 unknown #
-305 straight-curve $-1 2.5399999999999947 11.303000000000001 -50.799999999999997 -1000 0 8.8124128827879451e-014 I I #
-306 rgb_color-st-attrib $-1 $-1 $-1 $235 0 0 0 #
-307 plane-surface $-1 2.5399999999999947 5.588000000000001 -50.799999999999997 -8.8124128827879453e-017 0 -1 -1000 0 8.8124128827879451e-014 forward_v I I I I #
-308 straight-curve $-1 2.54 11.303000000000001 -6.3500000000000334 1.2683579970584088e-013 0 1000 I I #
-309 ellipse-curve $-1 79.692499999999995 5.588000000000001 -49.212500000000006 0 1 0 0 0 -1.5874999999999986 1 I I #
-310 point $-1 79.692499999999995 5.588000000000001 -50.800000000000004 #
-311 edge $-1 $301 0 $375 0.03860799999999999 $245 $376 forward 7 unknown #
-312 ellipse-curve $-1 45.212000000000003 -2.5399999999999987 -28.574999999999999 0 1 0 0 0 -14.604999999999997 1 I I #
-313 coedge $-1 $247 $377 $378 $379 reversed $176 $-1 #
-314 coedge $-1 $260 $251 $247 $315 reversed $261 $-1 #
-315 edge $-1 $380 0 $253 1.5707963267948966 $247 $381 forward 7 unknown #
-316 coedge $-1 $382 $248 $383 $384 forward $176 $-1 #
-317 coedge $-1 $385 $386 $248 $318 forward $282 $-1 #
-318 edge $-1 $387 0.0025399999999999997 $375 0.013970000000000007 $317 $388 forward 7 unknown #
-319 rgb_color-st-attrib $-1 $-1 $-1 $249 0 0 0 #
-320 loop $-1 $389 $390 $249 #
-321 plane-surface $-1 0 -2.5399999999999996 -57.150000000000006 0 -1 0 0 0 -1000 forward_v I I I I #
-322 straight-curve $-1 83.819999999999993 11.303000000000001 -54.610000000000007 0 1000 0 I I #
-323 point $-1 83.819999999999993 -2.5399999999999996 -54.610000000000007 #
-324 coedge $-1 $391 $392 $257 $325 reversed $393 $-1 #
-325 edge $-1 $329 0 $394 1.5707963267948966 $257 $395 forward 7 unknown #
-326 coedge $-1 $378 $258 $260 $331 forward $328 $-1 #
-327 coedge $-1 $258 $378 $391 $396 forward $328 $-1 #
-328 loop $-1 $-1 $258 $397 #
-329 vertex $-1 $259 $398 #
-330 straight-curve $-1 0 11.303000000000001 -57.150000000000006 -1000 0 0 I I #
-331 edge $-1 $262 0 $380 0.013842999999999999 $326 $399 forward 7 unknown #
-332 face $400 $401 $261 $3 $-1 $402 forward single #
-333 point $-1 81.279999999999987 11.303000000000001 -57.150000000000006 #
-334 point $-1 79.692499999999995 11.303000000000001 -50.800000000000004 #
-335 coedge $-1 $290 $268 $286 $366 reversed $61 $-1 #
-336 coedge $-1 $386 $385 $268 $337 reversed $282 $-1 #
-337 edge $-1 $341 0.0025399999999999997 $403 0.01397 $268 $404 forward 7 unknown #
-338 coedge $-1 $383 $269 $275 $352 reversed $340 $-1 #
-339 coedge $-1 $269 $383 $386 $405 reversed $340 $-1 #
-340 loop $-1 $-1 $269 $406 #
-341 vertex $-1 $405 $407 #
-342 ellipse-curve $-1 81.279999999999987 11.303000000000001 -2.5399999999999996 0 1 0 0 0 -2.5399999999999996 1 I I #
-343 coedge $-1 $408 $409 $271 $344 reversed $410 $-1 #
-344 edge $-1 $394 -0.054610000000000006 $348 -0.0025399999999999997 $271 $411 forward 7 unknown #
-345 coedge $-1 $412 $272 $409 $413 reversed $347 $-1 #
-346 coedge $-1 $272 $412 $274 $351 reversed $347 $-1 #
-347 loop $-1 $-1 $272 $414 #
-348 vertex $-1 $413 $415 #
-349 ellipse-curve $-1 2.5399999999999996 11.303000000000001 -2.5399999999999996 0 1 0 0 0 -2.5399999999999996 1 I I #
-350 coedge $-1 $275 $274 $382 $416 forward $276 $-1 #
-351 edge $-1 $277 0 $417 0.013842999999999999 $274 $418 forward 7 unknown #
-352 edge $-1 $419 -0.013842999999999999 $278 0 $275 $420 forward 7 unknown #
-353 face $421 $406 $276 $3 $-1 $422 reversed single #
-354 point $-1 2.5399999999999996 11.303000000000001 0 #
-355 point $-1 81.279999999999987 11.303000000000001 0 #
-356 rgb_color-st-attrib $-1 $-1 $-1 $281 0 0 0 #
-357 face $423 $424 $425 $3 $-1 $426 reversed single #
-358 loop $-1 $-1 $427 $281 #
-359 cone-surface $-1 77.469999999999999 0.50800000000000023 -50.799999999999997 0 -1 0 0 0 -4.4450000000000047 1 I I 0 1 1000 forward I I I I #
-360 loop $-1 $428 $429 $118 #
-361 coedge $-1 $430 $430 $431 $432 reversed $284 $-1 #
-362 coedge $-1 $285 $285 $433 $434 reversed $197 $-1 #
-363 coedge $-1 $435 $436 $285 $364 forward $437 $-1 #
-364 edge $-1 $438 0 $439 3.1415926535897931 $363 $440 forward 7 unknown #
-365 coedge $-1 $287 $286 $385 $441 reversed $201 $-1 #
-366 edge $-1 $292 0 $403 0.0025400000000000062 $286 $442 forward 7 unknown #
-367 rgb_color-st-attrib $-1 $-1 $-1 $288 0 0 0 #
-368 plane-surface $-1 81.279999999999987 5.5880000000000454 -13.970000000000001 0 0 1 1000 0 0 forward_v I I I I #
-369 straight-curve $-1 81.279999999999987 11.303000000000001 -6.3500000000000334 3.1221119927591599e-013 0 -1000 I I #
-370 point $-1 81.279999999999987 11.303000000000001 -13.970000000000001 #
-371 rgb_color-st-attrib $-1 $-1 $-1 $297 0 0 0 #
-372 cone-surface $-1 79.692499999999995 5.588000000000001 -49.212500000000006 0 -1 0 0 0 -1.5874999999999986 1 I I 0 1 1000 forward I I I I #
-373 point $-1 45.212000000000003 -2.5399999999999987 -13.970000000000001 #
-374 straight-curve $-1 79.692499999999995 11.303000000000001 -50.800000000000004 0 1000 0 I I #
-375 vertex $-1 $311 $443 #
-376 straight-curve $-1 45.212000000000003 -2.5399999999999987 -13.970000000000001 1000 0 -1.347951312663288e-013 I I #
-377 coedge $-1 $313 $444 $445 $446 forward $176 $-1 #
-378 coedge $-1 $327 $326 $313 $379 forward $328 $-1 #
-379 edge $-1 $380 -0.081279999999999991 $447 -0.0025399999999999997 $378 $448 forward 7 unknown #
-380 vertex $-1 $331 $449 #
-381 ellipse-curve $-1 81.279999999999987 -2.5400000000000005 -54.610000000000007 0 -1 0 0 0 -2.5400000000000005 1 I I #
-382 coedge $-1 $450 $316 $350 $416 reversed $176 $-1 #
-383 coedge $-1 $339 $338 $316 $384 reversed $340 $-1 #
-384 edge $-1 $387 1.5707963267948966 $419 3.1415926535897931 $316 $451 forward 7 unknown #
-385 coedge $-1 $336 $317 $365 $441 forward $282 $-1 #
-386 coedge $-1 $317 $336 $339 $405 forward $282 $-1 #
-387 vertex $-1 $405 $452 #
-388 straight-curve $-1 83.819999999999993 -2.5399999999999996 0 0 0 -1000 I I #
-389 loop $-1 $453 $454 $249 #
-390 coedge $-1 $455 $455 $456 $457 reversed $320 $-1 #
-391 coedge $-1 $445 $324 $327 $396 reversed $393 $-1 #
-392 coedge $-1 $324 $445 $408 $458 reversed $393 $-1 #
-393 loop $-1 $-1 $324 $459 #
-394 vertex $-1 $458 $460 #
-395 ellipse-curve $-1 2.5399999999999996 11.303000000000001 -54.610000000000007 0 1 0 0 0 -2.5400000000000005 1 I I #
-396 edge $-1 $447 -0.013842999999999999 $329 0 $327 $461 forward 7 unknown #
-397 face $462 $459 $328 $3 $-1 $463 reversed single #
-398 point $-1 2.5399999999999996 11.303000000000001 -57.150000000000006 #
-399 straight-curve $-1 81.279999999999987 11.303000000000001 -57.150000000000006 0 -1000 0 I I #
-400 rgb_color-st-attrib $-1 $-1 $-1 $332 0 0 0 #
-401 face $464 $465 $466 $3 $-1 $467 reversed single #
-402 cone-surface $-1 81.279999999999987 11.303000000000001 -54.610000000000007 0 -1 0 0 0 -2.5400000000000005 1 I I 0 1 1000 forward I I I I #
-403 vertex $-1 $337 $468 #
-404 straight-curve $-1 83.819999999999993 11.303000000000001 0 0 0 -1000 I I #
-405 edge $-1 $341 0 $387 0.013842999999999999 $386 $469 forward 7 unknown #
-406 face $470 $471 $340 $3 $-1 $472 forward single #
-407 point $-1 83.819999999999993 11.303000000000001 -2.5399999999999996 #
-408 coedge $-1 $473 $343 $392 $458 forward $410 $-1 #
-409 coedge $-1 $343 $473 $345 $413 forward $410 $-1 #
-410 loop $-1 $-1 $473 $465 #
-411 straight-curve $-1 0 11.303000000000001 0 0 0 1000 I I #
-412 coedge $-1 $346 $345 $450 $474 reversed $347 $-1 #
-413 edge $-1 $475 -0.013842999999999999 $348 0 $409 $476 forward 7 unknown #
-414 face $477 $397 $347 $3 $-1 $478 forward single #
-415 point $-1 0 11.303000000000001 -2.5399999999999996 #
-416 edge $-1 $417 0.0025399999999999997 $419 0.081279999999999991 $350 $479 forward 7 unknown #
-417 vertex $-1 $416 $480 #
-418 straight-curve $-1 2.5399999999999996 11.303000000000001 0 0 -1000 0 I I #
-419 vertex $-1 $352 $481 #
-420 straight-curve $-1 81.279999999999987 11.303000000000001 0 0 1000 0 I I #
-421 rgb_color-st-attrib $-1 $-1 $-1 $353 0 0 0 #
-422 plane-surface $-1 0 11.303000000000001 0 0 0 -1 -1000 0 0 forward_v I I I I #
-423 rgb_color-st-attrib $-1 $-1 $-1 $357 0 0 0 #
-424 face $482 $353 $483 $3 $-1 $484 reversed single #
-425 loop $-1 $-1 $485 $357 #
-426 cone-surface $-1 6.3499999999999837 0.50800000000000023 -6.3500000000000387 0 -1 0 0 0 -4.4449999999999985 1 I I 0 1 1000 forward I I I I #
-427 coedge $-1 $486 $487 $488 $489 reversed $358 $-1 #
-428 loop $-1 $61 $490 $118 #
-429 coedge $-1 $491 $491 $492 $493 reversed $360 $-1 #
-430 coedge $-1 $361 $361 $494 $495 reversed $284 $-1 #
-431 coedge $-1 $496 $497 $361 $432 forward $498 $-1 #
-432 edge $-1 $499 0 $500 3.1415926535897931 $431 $501 forward 7 unknown #
-433 coedge $-1 $502 $503 $362 $434 forward $504 $-1 #
-434 edge $-1 $439 -3.1415926535897931 $438 0 $433 $505 forward 7 unknown #
-435 coedge $-1 $506 $363 $503 $507 reversed $437 $-1 #
-436 coedge $-1 $363 $506 $502 $508 forward $437 $-1 #
-437 loop $-1 $-1 $435 $509 #
-438 vertex $-1 $508 $510 #
-439 vertex $-1 $434 $511 #
-440 ellipse-curve $-1 6.3499999999999837 11.303000000000001 -53.974999999999937 0 1 0 0 0 1.1429999999999982 1 I I #
-441 edge $-1 $375 -0.0081280000000000449 $403 0.0057149999999999554 $385 $512 forward 7 unknown #
-442 straight-curve $-1 81.279999999999987 11.303000000000001 -13.970000000000001 1000 0 0 I I #
-443 point $-1 83.819999999999993 -2.5399999999999987 -13.970000000000006 #
-444 coedge $-1 $377 $450 $473 $513 reversed $176 $-1 #
-445 coedge $-1 $392 $391 $377 $446 reversed $393 $-1 #
-446 edge $-1 $514 -1.5707963267948966 $447 0 $377 $515 forward 7 unknown #
-447 vertex $-1 $446 $516 #
-448 straight-curve $-1 0 -2.5399999999999996 -57.150000000000006 -1000 0 0 I I #
-449 point $-1 81.279999999999987 -2.5399999999999996 -57.150000000000006 #
-450 coedge $-1 $444 $382 $412 $474 forward $176 $-1 #
-451 ellipse-curve $-1 81.279999999999987 -2.5400000000000005 -2.5399999999999996 0 -1 0 0 0 -2.5399999999999996 1 I I #
-452 point $-1 83.819999999999993 -2.5399999999999996 -2.5399999999999996 #
-453 loop $-1 $517 $518 $249 #
-454 coedge $-1 $519 $519 $520 $521 reversed $389 $-1 #
-455 coedge $-1 $390 $390 $522 $523 reversed $320 $-1 #
-456 coedge $-1 $524 $525 $390 $457 forward $526 $-1 #
-457 edge $-1 $527 0 $528 3.1415926535897931 $456 $529 forward 7 unknown #
-458 edge $-1 $394 0 $514 0.013842999999999999 $408 $530 forward 7 unknown #
-459 face $531 $532 $393 $3 $-1 $533 forward single #
-460 point $-1 0 11.303000000000001 -54.610000000000007 #
-461 straight-curve $-1 2.5399999999999996 11.303000000000001 -57.150000000000006 0 1000 0 I I #
-462 rgb_color-st-attrib $-1 $-1 $-1 $397 0 0 0 #
-463 plane-surface $-1 0 11.303000000000001 -57.150000000000006 0 0 1 1000 0 0 forward_v I I I I #
-464 rgb_color-st-attrib $-1 $-1 $-1 $401 0 0 0 #
-465 face $534 $414 $410 $3 $-1 $535 reversed single #
-466 loop $-1 $-1 $536 $401 #
-467 cone-surface $-1 6.3499999999999996 0.50800000000000023 -50.799999999999997 0 -1 0 0 0 -4.4449999999999976 1 I I 0 1 1000 forward I I I I #
-468 point $-1 83.819999999999993 11.303000000000001 -13.970000000000001 #
-469 straight-curve $-1 83.819999999999993 11.303000000000001 -2.5399999999999996 0 -1000 0 I I #
-470 rgb_color-st-attrib $-1 $-1 $-1 $406 0 0 0 #
-471 face $537 $538 $539 $3 $-1 $540 reversed single #
-472 cone-surface $-1 81.279999999999987 11.303000000000001 -2.5399999999999996 0 -1 0 0 0 -2.5399999999999996 1 I I 0 1 1000 forward I I I I #
-473 coedge $-1 $409 $408 $444 $513 forward $410 $-1 #
-474 edge $-1 $417 -3.1415926535897931 $475 -1.5707963267948966 $450 $541 forward 7 unknown #
-475 vertex $-1 $413 $542 #
-476 straight-curve $-1 0 11.303000000000001 -2.5399999999999996 0 1000 0 I I #
-477 rgb_color-st-attrib $-1 $-1 $-1 $414 0 0 0 #
-478 cone-surface $-1 2.5399999999999996 11.303000000000001 -2.5399999999999996 0 -1 0 0 0 -2.5399999999999996 1 I I 0 1 1000 forward I I I I #
-479 straight-curve $-1 0 -2.5399999999999996 0 1000 0 0 I I #
-480 point $-1 2.5399999999999996 -2.5399999999999996 0 #
-481 point $-1 81.279999999999987 -2.5399999999999996 0 #
-482 rgb_color-st-attrib $-1 $-1 $-1 $424 0 0 0 #
-483 loop $-1 $-1 $543 $424 #
-484 cone-surface $-1 77.469999999999999 0.50800000000000023 -50.799999999999997 0 -1 0 0 0 -4.4450000000000047 1 I I 0 1 1000 forward I I I I #
-485 coedge $-1 $544 $545 $546 $547 reversed $425 $-1 #
-486 coedge $-1 $548 $427 $543 $549 forward $358 $-1 #
-487 coedge $-1 $427 $548 $550 $551 reversed $358 $-1 #
-488 coedge $-1 $552 $552 $427 $489 forward $553 $-1 #
-489 edge $-1 $554 -3.1415926535897931 $555 0 $488 $556 forward 7 unknown #
-490 coedge $-1 $557 $557 $558 $559 reversed $428 $-1 #
-491 coedge $-1 $429 $429 $560 $561 reversed $360 $-1 #
-492 coedge $-1 $562 $563 $429 $493 forward $564 $-1 #
-493 edge $-1 $565 0 $566 3.1415926535897931 $492 $567 forward 7 unknown #
-494 coedge $-1 $568 $569 $430 $495 forward $570 $-1 #
-495 edge $-1 $500 -3.1415926535897931 $499 0 $494 $571 forward 7 unknown #
-496 coedge $-1 $572 $431 $569 $573 reversed $498 $-1 #
-497 coedge $-1 $431 $572 $568 $574 forward $498 $-1 #
-498 loop $-1 $-1 $496 $575 #
-499 vertex $-1 $432 $576 #
-500 vertex $-1 $573 $577 #
-501 ellipse-curve $-1 77.469999999999999 11.303000000000001 -53.974999999999994 0 1 0 0 0 1.1430000000000051 1 I I #
-502 coedge $-1 $578 $433 $436 $508 reversed $504 $-1 #
-503 coedge $-1 $433 $578 $435 $507 forward $504 $-1 #
-504 loop $-1 $-1 $578 $579 #
-505 ellipse-curve $-1 6.3499999999999837 11.303000000000001 -53.974999999999937 0 1 0 0 0 1.1429999999999982 1 I I #
-506 coedge $-1 $436 $435 $580 $581 reversed $437 $-1 #
-507 edge $-1 $582 0.0005080000000000002 $439 0.011303000000000001 $503 $583 forward 7 unknown #
-508 edge $-1 $584 0.0005080000000000002 $438 0.011303000000000001 $436 $585 forward 7 unknown #
-509 face $586 $587 $437 $3 $-1 $588 reversed single #
-510 point $-1 6.3499999999999837 11.303000000000001 -52.831999999999944 #
-511 point $-1 6.3499999999999837 11.303000000000001 -55.117999999999938 #
-512 straight-curve $-1 83.819999999999993 5.5880000000000454 -13.970000000000001 0 1000 0 I I #
-513 edge $-1 $514 -0.054610000000000006 $475 -0.0025399999999999997 $473 $589 forward 7 unknown #
-514 vertex $-1 $446 $590 #
-515 ellipse-curve $-1 2.5399999999999996 -2.5400000000000005 -54.610000000000007 0 -1 0 0 0 -2.5400000000000005 1 I I #
-516 point $-1 2.5399999999999996 -2.5399999999999996 -57.150000000000006 #
-517 loop $-1 $176 $591 $249 #
-518 coedge $-1 $592 $592 $593 $594 reversed $453 $-1 #
-519 coedge $-1 $454 $454 $595 $596 reversed $389 $-1 #
-520 coedge $-1 $597 $598 $454 $521 forward $539 $-1 #
-521 edge $-1 $599 0 $600 3.1415926535897931 $520 $601 forward 7 unknown #
-522 coedge $-1 $545 $544 $455 $523 forward $425 $-1 #
-523 edge $-1 $528 -3.1415926535897931 $527 0 $522 $602 forward 7 unknown #
-524 coedge $-1 $603 $456 $544 $604 reversed $526 $-1 #
-525 coedge $-1 $456 $603 $545 $605 forward $526 $-1 #
-526 loop $-1 $-1 $524 $538 #
-527 vertex $-1 $457 $606 #
-528 vertex $-1 $457 $607 #
-529 ellipse-curve $-1 6.3499999999999837 -2.5399999999999996 -6.3500000000000387 0 -1 0 0 0 -4.4449999999999985 1 I I #
-530 straight-curve $-1 0 11.303000000000001 -54.610000000000007 0 -1000 0 I I #
-531 rgb_color-st-attrib $-1 $-1 $-1 $459 0 0 0 #
-532 face $608 $609 $564 $3 $-1 $610 reversed single #
-533 cone-surface $-1 2.5399999999999996 11.303000000000001 -54.610000000000007 0 -1 0 0 0 -2.5400000000000005 1 I I 0 1 1000 forward I I I I #
-534 rgb_color-st-attrib $-1 $-1 $-1 $465 0 0 0 #
-535 plane-surface $-1 0 11.303000000000001 0 1 0 0 0 0 -1000 forward_v I I I I #
-536 coedge $-1 $611 $612 $613 $614 reversed $466 $-1 #
-537 rgb_color-st-attrib $-1 $-1 $-1 $471 0 0 0 #
-538 face $615 $616 $526 $3 $-1 $617 reversed single #
-539 loop $-1 $-1 $597 $471 #
-540 cone-surface $-1 77.469999999999999 0.50800000000000023 -6.3499999999999996 0 -1 0 0 0 -4.4450000000000029 1 I I 0 1 1000 forward I I I I #
-541 ellipse-curve $-1 2.5399999999999996 -2.5400000000000005 -2.5399999999999996 0 -1 0 0 0 -2.5399999999999996 1 I I #
-542 point $-1 0 -2.5399999999999996 -2.5399999999999996 #
-543 coedge $-1 $618 $593 $486 $549 reversed $483 $-1 #
-544 coedge $-1 $522 $485 $524 $604 forward $425 $-1 #
-545 coedge $-1 $485 $522 $525 $605 reversed $425 $-1 #
-546 coedge $-1 $619 $619 $485 $547 forward $620 $-1 #
-547 edge $-1 $621 -3.1415926535897931 $622 0 $546 $623 forward 7 unknown #
-548 coedge $-1 $487 $486 $592 $624 forward $358 $-1 #
-549 edge $-1 $554 0 $625 0.0030479999999999999 $486 $626 forward 7 unknown #
-550 coedge $-1 $593 $618 $487 $551 forward $483 $-1 #
-551 edge $-1 $555 0 $627 0.0030479999999999999 $550 $628 forward 7 unknown #
-552 coedge $-1 $488 $488 $618 $629 forward $553 $-1 #
-553 loop $-1 $630 $552 $587 #
-554 vertex $-1 $629 $631 #
-555 vertex $-1 $629 $632 #
-556 ellipse-curve $-1 77.469999999999999 0.50800000000000023 -50.799999999999997 0 -1 0 0 0 -4.4450000000000047 1 I I #
-557 coedge $-1 $490 $490 $633 $634 reversed $428 $-1 #
-558 coedge $-1 $635 $636 $490 $559 forward $637 $-1 #
-559 edge $-1 $638 0 $639 3.1415926535897931 $558 $640 forward 7 unknown #
-560 coedge $-1 $641 $642 $491 $561 forward $643 $-1 #
-561 edge $-1 $566 -3.1415926535897931 $565 0 $560 $644 forward 7 unknown #
-562 coedge $-1 $645 $492 $642 $646 reversed $564 $-1 #
-563 coedge $-1 $492 $645 $641 $647 forward $564 $-1 #
-564 loop $-1 $-1 $562 $532 #
-565 vertex $-1 $647 $648 #
-566 vertex $-1 $646 $649 #
-567 ellipse-curve $-1 77.469999999999999 11.303000000000001 -3.1749999999999998 0 1 0 0 0 1.1430000000000042 1 I I #
-568 coedge $-1 $650 $494 $497 $574 reversed $570 $-1 #
-569 coedge $-1 $494 $650 $496 $573 forward $570 $-1 #
-570 loop $-1 $-1 $650 $651 #
-571 ellipse-curve $-1 77.469999999999999 11.303000000000001 -53.974999999999994 0 1 0 0 0 1.1430000000000051 1 I I #
-572 coedge $-1 $497 $496 $652 $653 reversed $498 $-1 #
-573 edge $-1 $654 0.0005080000000000002 $500 0.011303000000000001 $569 $655 forward 7 unknown #
-574 edge $-1 $656 0.0005080000000000002 $499 0.011303000000000001 $497 $657 forward 7 unknown #
-575 face $658 $659 $498 $3 $-1 $660 reversed single #
-576 point $-1 77.469999999999999 11.303000000000001 -52.831999999999994 #
-577 point $-1 77.469999999999999 11.303000000000001 -55.118000000000002 #
-578 coedge $-1 $503 $502 $661 $662 reversed $504 $-1 #
-579 face $663 $509 $504 $3 $-1 $664 reversed single #
-580 coedge $-1 $661 $661 $506 $581 forward $665 $-1 #
-581 edge $-1 $584 -3.1415926535897931 $582 0 $580 $666 forward 7 unknown #
-582 vertex $-1 $581 $667 #
-583 straight-curve $-1 6.3499999999999837 0 -55.117999999999938 0 1000 0 I I #
-584 vertex $-1 $581 $668 #
-585 straight-curve $-1 6.3499999999999837 0 -52.831999999999944 0 1000 0 I I #
-586 rgb_color-st-attrib $-1 $-1 $-1 $509 0 0 0 #
-587 face $669 $670 $553 $3 $-1 $671 forward single #
-588 cone-surface $-1 6.3499999999999837 0 -53.974999999999937 0 1 0 0 0 1.1429999999999982 1 I I 0 1 1000 forward I I I I #
-589 straight-curve $-1 0 -2.5399999999999996 0 0 0 1000 I I #
-590 point $-1 0 -2.5399999999999996 -54.610000000000007 #
-591 coedge $-1 $672 $672 $612 $673 reversed $517 $-1 #
-592 coedge $-1 $518 $518 $548 $624 reversed $453 $-1 #
-593 coedge $-1 $543 $550 $518 $594 forward $483 $-1 #
-594 edge $-1 $627 0 $625 3.1415926535897931 $593 $674 forward 7 unknown #
-595 coedge $-1 $675 $676 $519 $596 forward $677 $-1 #
-596 edge $-1 $600 -3.1415926535897931 $599 0 $595 $678 forward 7 unknown #
-597 coedge $-1 $679 $520 $676 $680 reversed $539 $-1 #
-598 coedge $-1 $520 $679 $675 $681 forward $539 $-1 #
-599 vertex $-1 $521 $682 #
-600 vertex $-1 $521 $683 #
-601 ellipse-curve $-1 77.469999999999999 -2.5399999999999996 -6.3499999999999996 0 -1 0 0 0 -4.4450000000000029 1 I I #
-602 ellipse-curve $-1 6.3499999999999837 -2.5399999999999996 -6.3500000000000387 0 -1 0 0 0 -4.4449999999999985 1 I I #
-603 coedge $-1 $525 $524 $619 $684 reversed $526 $-1 #
-604 edge $-1 $621 0 $528 0.0030479999999999999 $544 $685 forward 7 unknown #
-605 edge $-1 $622 0 $527 0.0030479999999999999 $525 $686 forward 7 unknown #
-606 point $-1 6.3499999999999837 -2.5399999999999996 -10.795000000000037 #
-607 point $-1 6.3499999999999845 -2.5399999999999996 -1.9050000000000404 #
-608 rgb_color-st-attrib $-1 $-1 $-1 $532 0 0 0 #
-609 face $687 $651 $688 $3 $-1 $689 reversed single #
-610 cone-surface $-1 77.469999999999999 0 -3.1749999999999998 0 1 0 0 0 1.1430000000000042 1 I I 0 1 1000 forward I I I I #
-611 coedge $-1 $690 $536 $691 $692 reversed $466 $-1 #
-612 coedge $-1 $536 $690 $591 $673 forward $466 $-1 #
-613 coedge $-1 $693 $694 $536 $614 forward $695 $-1 #
-614 edge $-1 $696 0 $697 0.0030479999999999999 $613 $698 forward 7 unknown #
-615 rgb_color-st-attrib $-1 $-1 $-1 $538 0 0 0 #
-616 face $699 $700 $695 $3 $-1 $701 reversed single #
-617 cone-surface $-1 6.3499999999999837 0.50800000000000023 -6.3500000000000387 0 -1 0 0 0 -4.4449999999999985 1 I I 0 1 1000 forward I I I I #
-618 coedge $-1 $550 $543 $552 $629 reversed $483 $-1 #
-619 coedge $-1 $546 $546 $603 $684 forward $620 $-1 #
-620 loop $-1 $702 $619 $670 #
-621 vertex $-1 $684 $703 #
-622 vertex $-1 $684 $704 #
-623 ellipse-curve $-1 6.3499999999999837 0.50800000000000023 -6.3500000000000387 0 -1 0 0 0 -4.4449999999999985 1 I I #
-624 edge $-1 $625 -3.1415926535897931 $627 0 $548 $705 forward 7 unknown #
-625 vertex $-1 $594 $706 #
-626 straight-curve $-1 77.469999999999999 0.50800000000000023 -46.354999999999997 0 -1000 0 I I #
-627 vertex $-1 $594 $707 #
-628 straight-curve $-1 77.469999999999999 0.50800000000000023 -55.245000000000005 0 -1000 0 I I #
-629 edge $-1 $555 0 $554 3.1415926535897931 $552 $708 forward 7 unknown #
-630 loop $-1 $-1 $652 $587 #
-631 point $-1 77.469999999999999 0.50800000000000023 -46.354999999999997 #
-632 point $-1 77.469999999999999 0.50800000000000023 -55.245000000000005 #
-633 coedge $-1 $709 $710 $557 $634 forward $688 $-1 #
-634 edge $-1 $639 -3.1415926535897931 $638 0 $633 $711 forward 7 unknown #
-635 coedge $-1 $712 $558 $710 $713 reversed $637 $-1 #
-636 coedge $-1 $558 $712 $709 $714 forward $637 $-1 #
-637 loop $-1 $-1 $635 $715 #
-638 vertex $-1 $559 $716 #
-639 vertex $-1 $559 $717 #
-640 ellipse-curve $-1 6.3499999999999996 11.303000000000001 -3.1749999999999998 0 1 0 0 0 1.143 1 I I #
-641 coedge $-1 $718 $560 $563 $647 reversed $643 $-1 #
-642 coedge $-1 $560 $718 $562 $646 forward $643 $-1 #
-643 loop $-1 $-1 $718 $659 #
-644 ellipse-curve $-1 77.469999999999999 11.303000000000001 -3.1749999999999998 0 1 0 0 0 1.1430000000000042 1 I I #
-645 coedge $-1 $563 $562 $719 $720 reversed $564 $-1 #
-646 edge $-1 $721 0.0005080000000000002 $566 0.011303000000000001 $642 $722 forward 7 unknown #
-647 edge $-1 $723 0.0005080000000000002 $565 0.011303000000000001 $563 $724 forward 7 unknown #
-648 point $-1 77.469999999999999 11.303000000000001 -2.0319999999999956 #
-649 point $-1 77.469999999999999 11.303000000000001 -4.3180000000000041 #
-650 coedge $-1 $569 $568 $725 $726 reversed $570 $-1 #
-651 face $727 $715 $570 $3 $-1 $728 reversed single #
-652 coedge $-1 $725 $725 $572 $653 forward $630 $-1 #
-653 edge $-1 $656 -3.1415926535897931 $654 0 $652 $729 forward 7 unknown #
-654 vertex $-1 $653 $730 #
-655 straight-curve $-1 77.469999999999999 0 -55.118000000000002 0 1000 0 I I #
-656 vertex $-1 $653 $731 #
-657 straight-curve $-1 77.469999999999999 0 -52.831999999999994 0 1000 0 I I #
-658 rgb_color-st-attrib $-1 $-1 $-1 $575 0 0 0 #
-659 face $732 $579 $643 $3 $-1 $733 reversed single #
-660 cone-surface $-1 77.469999999999999 0 -53.974999999999994 0 1 0 0 0 1.1430000000000051 1 I I 0 1 1000 forward I I I I #
-661 coedge $-1 $580 $580 $578 $662 forward $665 $-1 #
-662 edge $-1 $582 0 $584 3.1415926535897931 $661 $734 forward 7 unknown #
-663 rgb_color-st-attrib $-1 $-1 $-1 $579 0 0 0 #
-664 cone-surface $-1 6.3499999999999837 0 -53.974999999999937 0 1 0 0 0 1.1429999999999982 1 I I 0 1 1000 forward I I I I #
-665 loop $-1 $-1 $580 $735 #
-666 ellipse-curve $-1 6.3499999999999837 0.50800000000000023 -53.974999999999937 0 1 0 0 0 -1.1429999999999982 1 I I #
-667 point $-1 6.3499999999999837 0.50800000000000023 -55.117999999999938 #
-668 point $-1 6.3499999999999837 0.50800000000000023 -52.831999999999944 #
-669 rgb_color-st-attrib $-1 $-1 $-1 $587 0 0 0 #
-670 face $736 $737 $620 $3 $-1 $738 forward single #
-671 plane-surface $-1 77.469999999999999 0.50800000000000023 -50.799999999999997 0 -1 0 0 0 -1000 forward_v I I I I #
-672 coedge $-1 $591 $591 $693 $739 reversed $517 $-1 #
-673 edge $-1 $740 0 $697 3.1415926535897931 $612 $741 forward 7 unknown #
-674 ellipse-curve $-1 77.469999999999999 -2.5399999999999996 -50.799999999999997 0 -1 0 0 0 -4.4450000000000047 1 I I #
-675 coedge $-1 $742 $595 $598 $681 reversed $677 $-1 #
-676 coedge $-1 $595 $742 $597 $680 forward $677 $-1 #
-677 loop $-1 $-1 $742 $700 #
-678 ellipse-curve $-1 77.469999999999999 -2.5399999999999996 -6.3499999999999996 0 -1 0 0 0 -4.4450000000000029 1 I I #
-679 coedge $-1 $598 $597 $743 $744 reversed $539 $-1 #
-680 edge $-1 $745 0 $600 0.0030479999999999999 $676 $746 forward 7 unknown #
-681 edge $-1 $747 0 $599 0.0030479999999999999 $598 $748 forward 7 unknown #
-682 point $-1 77.469999999999999 -2.5399999999999996 -10.795000000000002 #
-683 point $-1 77.469999999999999 -2.5399999999999996 -1.9049999999999969 #
-684 edge $-1 $622 0 $621 3.1415926535897931 $619 $749 forward 7 unknown #
-685 straight-curve $-1 6.3499999999999845 0.50800000000000023 -1.9050000000000404 0 -1000 0 I I #
-686 straight-curve $-1 6.3499999999999837 0.50800000000000023 -10.795000000000037 0 -1000 0 I I #
-687 rgb_color-st-attrib $-1 $-1 $-1 $609 0 0 0 #
-688 loop $-1 $-1 $750 $609 #
-689 cone-surface $-1 6.3499999999999996 0 -3.1749999999999998 0 1 0 0 0 1.143 1 I I 0 1 1000 forward I I I I #
-690 coedge $-1 $612 $611 $751 $752 forward $466 $-1 #
-691 coedge $-1 $753 $753 $611 $692 forward $754 $-1 #
-692 edge $-1 $755 0 $696 3.1415926535897931 $691 $756 forward 7 unknown #
-693 coedge $-1 $751 $613 $672 $739 forward $695 $-1 #
-694 coedge $-1 $613 $751 $753 $757 reversed $695 $-1 #
-695 loop $-1 $-1 $694 $616 #
-696 vertex $-1 $614 $758 #
-697 vertex $-1 $614 $759 #
-698 straight-curve $-1 6.3500000000000005 0.50800000000000023 -46.354999999999997 0 -1000 0 I I #
-699 rgb_color-st-attrib $-1 $-1 $-1 $616 0 0 0 #
-700 face $760 $332 $677 $3 $-1 $761 reversed single #
-701 cone-surface $-1 6.3499999999999996 0.50800000000000023 -50.799999999999997 0 -1 0 0 0 -4.4449999999999976 1 I I 0 1 1000 forward I I I I #
-702 loop $-1 $-1 $762 $670 #
-703 point $-1 6.3499999999999845 0.50800000000000023 -1.9050000000000404 #
-704 point $-1 6.3499999999999837 0.50800000000000023 -10.795000000000037 #
-705 ellipse-curve $-1 77.469999999999999 -2.5399999999999996 -50.799999999999997 0 -1 0 0 0 -4.4450000000000047 1 I I #
-706 point $-1 77.469999999999999 -2.5399999999999996 -46.354999999999997 #
-707 point $-1 77.469999999999999 -2.5399999999999996 -55.245000000000005 #
-708 ellipse-curve $-1 77.469999999999999 0.50800000000000023 -50.799999999999997 0 -1 0 0 0 -4.4450000000000047 1 I I #
-709 coedge $-1 $750 $633 $636 $714 reversed $688 $-1 #
-710 coedge $-1 $633 $750 $635 $713 forward $688 $-1 #
-711 ellipse-curve $-1 6.3499999999999996 11.303000000000001 -3.1749999999999998 0 1 0 0 0 1.143 1 I I #
-712 coedge $-1 $636 $635 $762 $763 reversed $637 $-1 #
-713 edge $-1 $764 0.0005080000000000002 $639 0.011303000000000001 $710 $765 forward 7 unknown #
-714 edge $-1 $766 0.0005080000000000002 $638 0.011303000000000001 $636 $767 forward 7 unknown #
-715 face $768 $575 $637 $3 $-1 $769 reversed single #
-716 point $-1 6.3499999999999996 11.303000000000001 -2.032 #
-717 point $-1 6.3499999999999996 11.303000000000001 -4.3179999999999996 #
-718 coedge $-1 $642 $641 $770 $771 reversed $643 $-1 #
-719 coedge $-1 $770 $770 $645 $720 forward $772 $-1 #
-720 edge $-1 $723 -3.1415926535897931 $721 0 $719 $773 forward 7 unknown #
-721 vertex $-1 $646 $774 #
-722 straight-curve $-1 77.469999999999999 0 -4.3180000000000041 0 1000 0 I I #
-723 vertex $-1 $647 $775 #
-724 straight-curve $-1 77.469999999999999 0 -2.0319999999999956 0 1000 0 I I #
-725 coedge $-1 $652 $652 $650 $726 forward $630 $-1 #
-726 edge $-1 $654 0 $656 3.1415926535897931 $725 $776 forward 7 unknown #
-727 rgb_color-st-attrib $-1 $-1 $-1 $651 0 0 0 #
-728 cone-surface $-1 77.469999999999999 0 -53.974999999999994 0 1 0 0 0 1.1430000000000051 1 I I 0 1 1000 forward I I I I #
-729 ellipse-curve $-1 77.469999999999999 0.50800000000000023 -53.974999999999994 0 1 0 0 0 -1.1430000000000051 1 I I #
-730 point $-1 77.469999999999999 0.50800000000000023 -55.118000000000002 #
-731 point $-1 77.469999999999999 0.50800000000000023 -52.831999999999994 #
-732 rgb_color-st-attrib $-1 $-1 $-1 $659 0 0 0 #
-733 cone-surface $-1 77.469999999999999 0 -3.1749999999999998 0 1 0 0 0 1.1430000000000042 1 I I 0 1 1000 forward I I I I #
-734 ellipse-curve $-1 6.3499999999999837 0.50800000000000023 -53.974999999999937 0 1 0 0 0 -1.1429999999999982 1 I I #
-735 face $777 $-1 $754 $3 $-1 $778 forward single #
-736 rgb_color-st-attrib $-1 $-1 $-1 $670 0 0 0 #
-737 face $779 $735 $780 $3 $-1 $781 forward single #
-738 plane-surface $-1 6.3499999999999837 0.50800000000000023 -6.3500000000000387 0 -1 0 0 0 -1000 forward_v I I I I #
-739 edge $-1 $697 -3.1415926535897931 $740 0 $693 $782 forward 7 unknown #
-740 vertex $-1 $752 $783 #
-741 ellipse-curve $-1 6.3499999999999996 -2.5399999999999996 -50.799999999999997 0 -1 0 0 0 -4.4449999999999976 1 I I #
-742 coedge $-1 $676 $675 $784 $785 reversed $677 $-1 #
-743 coedge $-1 $784 $784 $679 $744 forward $780 $-1 #
-744 edge $-1 $747 0 $745 3.1415926535897931 $743 $786 forward 7 unknown #
-745 vertex $-1 $744 $787 #
-746 straight-curve $-1 77.469999999999999 0.50800000000000023 -1.9049999999999969 0 -1000 0 I I #
-747 vertex $-1 $744 $788 #
-748 straight-curve $-1 77.469999999999999 0.50800000000000023 -10.795000000000002 0 -1000 0 I I #
-749 ellipse-curve $-1 6.3499999999999837 0.50800000000000023 -6.3500000000000387 0 -1 0 0 0 -4.4449999999999985 1 I I #
-750 coedge $-1 $710 $709 $789 $790 reversed $688 $-1 #
-751 coedge $-1 $694 $693 $690 $752 reversed $695 $-1 #
-752 edge $-1 $755 0 $740 0.0030479999999999999 $690 $791 forward 7 unknown #
-753 coedge $-1 $691 $691 $694 $757 forward $754 $-1 #
-754 loop $-1 $665 $691 $735 #
-755 vertex $-1 $692 $792 #
-756 ellipse-curve $-1 6.3499999999999996 0.50800000000000023 -50.799999999999997 0 -1 0 0 0 -4.4449999999999976 1 I I #
-757 edge $-1 $696 -3.1415926535897931 $755 0 $753 $793 forward 7 unknown #
-758 point $-1 6.3500000000000005 0.50800000000000023 -46.354999999999997 #
-759 point $-1 6.3500000000000005 -2.5399999999999996 -46.354999999999997 #
-760 rgb_color-st-attrib $-1 $-1 $-1 $700 0 0 0 #
-761 cone-surface $-1 77.469999999999999 0.50800000000000023 -6.3499999999999996 0 -1 0 0 0 -4.4450000000000029 1 I I 0 1 1000 forward I I I I #
-762 coedge $-1 $789 $789 $712 $763 forward $702 $-1 #
-763 edge $-1 $766 -3.1415926535897931 $764 0 $762 $794 forward 7 unknown #
-764 vertex $-1 $763 $795 #
-765 straight-curve $-1 6.3499999999999996 0 -4.3179999999999996 0 1000 0 I I #
-766 vertex $-1 $763 $796 #
-767 straight-curve $-1 6.3499999999999996 0 -2.032 0 1000 0 I I #
-768 rgb_color-st-attrib $-1 $-1 $-1 $715 0 0 0 #
-769 cone-surface $-1 6.3499999999999996 0 -3.1749999999999998 0 1 0 0 0 1.143 1 I I 0 1 1000 forward I I I I #
-770 coedge $-1 $719 $719 $718 $771 forward $772 $-1 #
-771 edge $-1 $721 0 $723 3.1415926535897931 $770 $797 forward 7 unknown #
-772 loop $-1 $-1 $719 $737 #
-773 ellipse-curve $-1 77.469999999999999 0.50800000000000023 -3.1749999999999998 0 1 0 0 0 -1.1430000000000042 1 I I #
-774 point $-1 77.469999999999999 0.50800000000000023 -4.3180000000000041 #
-775 point $-1 77.469999999999999 0.50800000000000023 -2.0319999999999956 #
-776 ellipse-curve $-1 77.469999999999999 0.50800000000000023 -53.974999999999994 0 1 0 0 0 -1.1430000000000051 1 I I #
-777 rgb_color-st-attrib $-1 $-1 $-1 $735 0 0 0 #
-778 plane-surface $-1 6.3499999999999996 0.50800000000000023 -50.799999999999997 0 -1 0 0 0 -1000 forward_v I I I I #
-779 rgb_color-st-attrib $-1 $-1 $-1 $737 0 0 0 #
-780 loop $-1 $772 $743 $737 #
-781 plane-surface $-1 77.469999999999999 0.50800000000000023 -6.3499999999999996 0 -1 0 0 0 -1000 forward_v I I I I #
-782 ellipse-curve $-1 6.3499999999999996 -2.5399999999999996 -50.799999999999997 0 -1 0 0 0 -4.4449999999999976 1 I I #
-783 point $-1 6.3499999999999996 -2.5399999999999996 -55.244999999999997 #
-784 coedge $-1 $743 $743 $742 $785 forward $780 $-1 #
-785 edge $-1 $745 -3.1415926535897931 $747 0 $784 $798 forward 7 unknown #
-786 ellipse-curve $-1 77.469999999999999 0.50800000000000023 -6.3499999999999996 0 -1 0 0 0 -4.4450000000000029 1 I I #
-787 point $-1 77.469999999999999 0.50800000000000023 -1.9049999999999969 #
-788 point $-1 77.469999999999999 0.50800000000000023 -10.795000000000002 #
-789 coedge $-1 $762 $762 $750 $790 forward $702 $-1 #
-790 edge $-1 $764 0 $766 3.1415926535897931 $789 $799 forward 7 unknown #
-791 straight-curve $-1 6.3499999999999996 0.50800000000000023 -55.244999999999997 0 -1000 0 I I #
-792 point $-1 6.3499999999999996 0.50800000000000023 -55.244999999999997 #
-793 ellipse-curve $-1 6.3499999999999996 0.50800000000000023 -50.799999999999997 0 -1 0 0 0 -4.4449999999999976 1 I I #
-794 ellipse-curve $-1 6.3499999999999996 0.50800000000000023 -3.1749999999999998 0 1 0 0 0 -1.143 1 I I #
-795 point $-1 6.3499999999999996 0.50800000000000023 -4.3179999999999996 #
-796 point $-1 6.3499999999999996 0.50800000000000023 -2.032 #
-797 ellipse-curve $-1 77.469999999999999 0.50800000000000023 -3.1749999999999998 0 1 0 0 0 -1.1430000000000042 1 I I #
-798 ellipse-curve $-1 77.469999999999999 0.50800000000000023 -6.3499999999999996 0 -1 0 0 0 -4.4450000000000029 1 I I #
-799 ellipse-curve $-1 6.3499999999999996 0.50800000000000023 -3.1749999999999998 0 1 0 0 0 -1.143 1 I I #
End-of-ACIS-data 