G75*
G70*
%OFA0B0*%
%FSLAX24Y24*%
%IPPOS*%
%LPD*%
%AMOC8*
5,1,8,0,0,1.08239X$1,22.5*
%
%ADD10R,0.1600X0.1600*%
%ADD11C,0.0280*%
%ADD12C,0.0320*%
D10*
X016840Y008630D03*
D11*
X028580Y002880D03*
X003390Y003850D03*
X006390Y003900D03*
X007910Y003900D03*
X011900Y003830D03*
X008870Y003890D03*
X025550Y004790D03*
X025780Y006220D03*
X017600Y014430D03*
X026880Y013180D03*
X027150Y004250D03*
X024290Y003530D03*
X005490Y014650D03*
X011920Y012070D03*
X024460Y009310D03*
X026650Y009990D03*
X007430Y012190D03*
X018150Y009400D03*
X020160Y009390D03*
X023120Y001320D03*
X023500Y014250D03*
X020950Y014890D03*
X026000Y011530D03*
X021940Y011850D03*
X023180Y011850D03*
X013130Y006770D03*
X019190Y008150D03*
X026790Y001630D03*
X026790Y000970D03*
X009920Y009810D03*
X011290Y009810D03*
X013630Y009980D03*
X012390Y009980D03*
X007990Y015720D03*
X012600Y015676D03*
X010250Y015676D03*
X007930Y016340D03*
X009580Y016340D03*
X011480Y016330D03*
X030420Y006850D03*
X009130Y002230D03*
X009140Y001060D03*
X030420Y012180D03*
X021110Y003360D03*
X021110Y000950D03*
X013050Y001870D03*
X013050Y000940D03*
X025200Y008150D03*
X026080Y008150D03*
X019040Y000920D03*
X019040Y001580D03*
D12*
X015580Y007810D03*
X015580Y006310D03*
X015640Y003300D03*
X015580Y004810D03*
M02*
