%
M48
M72
T01C0.0120
T02C0.0160
T03C0.0400
T04C0.0730
%
T01
X28580Y2880
X3390Y3850
X6390Y3900
X7910Y3900
X11900Y3830
X8870Y3890
X25550Y4790
X25780Y6220
X17600Y14430
X26880Y13180
X27150Y4250
X24290Y3530
X5490Y14650
X11920Y12070
X24460Y9310
X26650Y9990
X7430Y12190
X18150Y9400
X20160Y9390
X23120Y1320
X23500Y14250
X20950Y14890
X26000Y11530
X21940Y11850
X23180Y11850
X13130Y6770
X19190Y8150
X26790Y1630
X26790Y970
X9920Y9810
X11290Y9810
X13630Y9980
X12390Y9980
X7990Y15720
X12600Y15676
X10250Y15676
X7930Y16340
X9580Y16340
X11480Y16330
X30420Y6850
X9130Y2230
X9140Y1060
X30420Y12180
X21110Y3360
X21110Y950
X13050Y1870
X13050Y940
X25200Y8150
X26080Y8150
X19040Y920
X19040Y1580
T02
X15580Y7810
X15580Y6310
X15640Y3300
X15580Y4810
T03
X15530Y1950
X16530Y1850
X17530Y1950
X18530Y1850
X19530Y1950
X20530Y1850
T04
X16840Y3630
X16840Y13630
M30
