G75*
G70*
%OFA0B0*%
%FSLAX24Y24*%
%IPPOS*%
%LPD*%
%AMOC8*
5,1,8,0,0,1.08239X$1,22.5*
%
%ADD10C,0.0050*%
%ADD11C,0.0040*%
%ADD12C,0.0020*%
%ADD13C,0.0080*%
D10*
X012061Y012634D02*
X012602Y012634D01*
X012602Y004366D01*
X012061Y004366D01*
X003252Y012634D02*
X000398Y012634D01*
X000398Y004366D01*
X003252Y004366D01*
X017535Y011370D02*
X020880Y011370D01*
X020897Y011368D01*
X020914Y011364D01*
X020930Y011357D01*
X020944Y011347D01*
X020957Y011334D01*
X020967Y011320D01*
X020974Y011304D01*
X020978Y011287D01*
X020980Y011270D01*
X020980Y007730D01*
X020978Y007713D01*
X020974Y007696D01*
X020967Y007680D01*
X020957Y007666D01*
X020944Y007653D01*
X020930Y007643D01*
X020914Y007636D01*
X020897Y007632D01*
X020880Y007630D01*
X017437Y007630D01*
X017411Y007632D01*
X017386Y007637D01*
X017362Y007645D01*
X017338Y007656D01*
X017317Y007671D01*
X017298Y007688D01*
X017281Y007707D01*
X017266Y007729D01*
X017255Y007752D01*
X017247Y007776D01*
X017242Y007801D01*
X017240Y007827D01*
X017240Y011075D01*
X017535Y011370D01*
X026379Y013562D02*
X028941Y013562D01*
X028941Y016330D02*
X026379Y016330D01*
X026953Y014940D02*
X026955Y014993D01*
X026961Y015045D01*
X026971Y015097D01*
X026984Y015148D01*
X027002Y015198D01*
X027023Y015247D01*
X027048Y015294D01*
X027076Y015338D01*
X027107Y015381D01*
X027142Y015421D01*
X027179Y015458D01*
X027219Y015493D01*
X027262Y015524D01*
X027307Y015552D01*
X027353Y015577D01*
X027402Y015598D01*
X027452Y015616D01*
X027503Y015629D01*
X027555Y015639D01*
X027607Y015645D01*
X027660Y015647D01*
X027713Y015645D01*
X027765Y015639D01*
X027817Y015629D01*
X027868Y015616D01*
X027918Y015598D01*
X027967Y015577D01*
X028014Y015552D01*
X028058Y015524D01*
X028101Y015493D01*
X028141Y015458D01*
X028178Y015421D01*
X028213Y015381D01*
X028244Y015338D01*
X028272Y015293D01*
X028297Y015247D01*
X028318Y015198D01*
X028336Y015148D01*
X028349Y015097D01*
X028359Y015045D01*
X028365Y014993D01*
X028367Y014940D01*
X028365Y014887D01*
X028359Y014835D01*
X028349Y014783D01*
X028336Y014732D01*
X028318Y014682D01*
X028297Y014633D01*
X028272Y014586D01*
X028244Y014542D01*
X028213Y014499D01*
X028178Y014459D01*
X028141Y014422D01*
X028101Y014387D01*
X028058Y014356D01*
X028013Y014328D01*
X027967Y014303D01*
X027918Y014282D01*
X027868Y014264D01*
X027817Y014251D01*
X027765Y014241D01*
X027713Y014235D01*
X027660Y014233D01*
X027607Y014235D01*
X027555Y014241D01*
X027503Y014251D01*
X027452Y014264D01*
X027402Y014282D01*
X027353Y014303D01*
X027306Y014328D01*
X027262Y014356D01*
X027219Y014387D01*
X027179Y014422D01*
X027142Y014459D01*
X027107Y014499D01*
X027076Y014542D01*
X027048Y014587D01*
X027023Y014633D01*
X027002Y014682D01*
X026984Y014732D01*
X026971Y014783D01*
X026961Y014835D01*
X026955Y014887D01*
X026953Y014940D01*
X026380Y016318D02*
X026380Y015973D01*
X026479Y015973D01*
X026479Y013907D01*
X026380Y013907D01*
X026380Y013562D01*
X028940Y016318D02*
X028940Y015973D01*
X028841Y015973D01*
X028841Y013907D01*
X028940Y013907D01*
X028940Y013562D01*
X024951Y013512D02*
X022389Y013512D01*
X022389Y016280D02*
X024951Y016280D01*
X022963Y014890D02*
X022965Y014943D01*
X022971Y014995D01*
X022981Y015047D01*
X022994Y015098D01*
X023012Y015148D01*
X023033Y015197D01*
X023058Y015244D01*
X023086Y015288D01*
X023117Y015331D01*
X023152Y015371D01*
X023189Y015408D01*
X023229Y015443D01*
X023272Y015474D01*
X023317Y015502D01*
X023363Y015527D01*
X023412Y015548D01*
X023462Y015566D01*
X023513Y015579D01*
X023565Y015589D01*
X023617Y015595D01*
X023670Y015597D01*
X023723Y015595D01*
X023775Y015589D01*
X023827Y015579D01*
X023878Y015566D01*
X023928Y015548D01*
X023977Y015527D01*
X024024Y015502D01*
X024068Y015474D01*
X024111Y015443D01*
X024151Y015408D01*
X024188Y015371D01*
X024223Y015331D01*
X024254Y015288D01*
X024282Y015243D01*
X024307Y015197D01*
X024328Y015148D01*
X024346Y015098D01*
X024359Y015047D01*
X024369Y014995D01*
X024375Y014943D01*
X024377Y014890D01*
X024375Y014837D01*
X024369Y014785D01*
X024359Y014733D01*
X024346Y014682D01*
X024328Y014632D01*
X024307Y014583D01*
X024282Y014536D01*
X024254Y014492D01*
X024223Y014449D01*
X024188Y014409D01*
X024151Y014372D01*
X024111Y014337D01*
X024068Y014306D01*
X024023Y014278D01*
X023977Y014253D01*
X023928Y014232D01*
X023878Y014214D01*
X023827Y014201D01*
X023775Y014191D01*
X023723Y014185D01*
X023670Y014183D01*
X023617Y014185D01*
X023565Y014191D01*
X023513Y014201D01*
X023462Y014214D01*
X023412Y014232D01*
X023363Y014253D01*
X023316Y014278D01*
X023272Y014306D01*
X023229Y014337D01*
X023189Y014372D01*
X023152Y014409D01*
X023117Y014449D01*
X023086Y014492D01*
X023058Y014537D01*
X023033Y014583D01*
X023012Y014632D01*
X022994Y014682D01*
X022981Y014733D01*
X022971Y014785D01*
X022965Y014837D01*
X022963Y014890D01*
X022390Y016268D02*
X022390Y015923D01*
X022489Y015923D01*
X022489Y013857D01*
X022390Y013857D01*
X022390Y013512D01*
X024950Y016268D02*
X024950Y015923D01*
X024851Y015923D01*
X024851Y013857D01*
X024950Y013857D01*
X024950Y013512D01*
X007374Y014674D02*
X007374Y013985D01*
X007374Y013886D01*
X007275Y013886D01*
X006586Y013886D01*
X006586Y014674D01*
X007374Y014674D01*
X007374Y013985D02*
X007275Y013985D01*
X007275Y013886D01*
X009714Y014694D02*
X009714Y014005D01*
X009714Y013906D01*
X009615Y013906D01*
X008926Y013906D01*
X008926Y014694D01*
X009714Y014694D01*
X009714Y014005D02*
X009615Y014005D01*
X009615Y013906D01*
X012034Y014604D02*
X012034Y013915D01*
X012034Y013816D01*
X011935Y013816D01*
X011246Y013816D01*
X011246Y014604D01*
X012034Y014604D01*
X012034Y013915D02*
X011935Y013915D01*
X011935Y013816D01*
X025655Y001729D02*
X025438Y001945D01*
X025438Y002615D01*
X025655Y002831D01*
X026245Y002831D02*
X026462Y002615D01*
X026462Y001945D01*
X026245Y001729D01*
X027605Y002831D02*
X027822Y002615D01*
X027822Y001945D01*
X027605Y001729D01*
X027015Y001729D02*
X026798Y001945D01*
X026798Y002615D01*
X027015Y002831D01*
X021380Y001570D02*
X021380Y004870D01*
X023380Y004870D01*
X023380Y001570D01*
X021380Y001570D01*
X021580Y002120D02*
X021582Y002133D01*
X021587Y002146D01*
X021596Y002157D01*
X021607Y002164D01*
X021620Y002169D01*
X021633Y002170D01*
X021647Y002167D01*
X021659Y002161D01*
X021669Y002152D01*
X021676Y002140D01*
X021680Y002127D01*
X021680Y002113D01*
X021676Y002100D01*
X021669Y002088D01*
X021659Y002079D01*
X021647Y002073D01*
X021633Y002070D01*
X021620Y002071D01*
X021607Y002076D01*
X021596Y002083D01*
X021587Y002094D01*
X021582Y002107D01*
X021580Y002120D01*
X024448Y010306D02*
X024349Y010306D01*
X024349Y012274D01*
X024448Y012274D01*
X025432Y012274D02*
X025531Y012274D01*
X025531Y010306D01*
X025432Y010306D01*
X022744Y011069D02*
X022744Y012151D01*
X021956Y012151D02*
X021956Y011069D01*
D11*
X007166Y007592D02*
X006706Y007592D01*
X006859Y007745D01*
X006706Y007898D01*
X007166Y007898D01*
X006706Y008282D02*
X006706Y008129D01*
X006782Y008052D01*
X007089Y008052D01*
X007166Y008129D01*
X007166Y008282D01*
X007089Y008359D01*
X006782Y008359D01*
X006706Y008282D01*
X006706Y008512D02*
X007166Y008512D01*
X007166Y008742D01*
X007089Y008819D01*
X006782Y008819D01*
X006706Y008742D01*
X006706Y008512D01*
X006859Y008973D02*
X006706Y009126D01*
X007166Y009126D01*
X007166Y008973D02*
X007166Y009279D01*
X020031Y012226D02*
X020184Y012226D01*
X020108Y012226D02*
X020108Y012686D01*
X020184Y012686D02*
X020031Y012686D01*
X020645Y012610D02*
X020568Y012686D01*
X020415Y012686D01*
X020338Y012610D01*
X020338Y012303D01*
X020415Y012226D01*
X020568Y012226D01*
X020645Y012303D01*
X021105Y012226D02*
X020798Y012226D01*
X021105Y012533D01*
X021105Y012610D01*
X021028Y012686D01*
X020875Y012686D01*
X020798Y012610D01*
X031020Y008172D02*
X027516Y008172D01*
X027516Y008668D01*
X027518Y008690D01*
X027523Y008712D01*
X027532Y008733D01*
X027543Y008752D01*
X027558Y008769D01*
X027575Y008784D01*
X027594Y008795D01*
X027615Y008804D01*
X027637Y008809D01*
X027659Y008811D01*
X027659Y008812D02*
X027869Y008812D01*
X027885Y010528D02*
X027654Y010528D01*
X027632Y010530D01*
X027611Y010535D01*
X027591Y010543D01*
X027573Y010554D01*
X027556Y010568D01*
X027542Y010585D01*
X027531Y010603D01*
X027523Y010623D01*
X027518Y010644D01*
X027516Y010666D01*
X027516Y011169D01*
X029596Y011169D01*
X031020Y011169D01*
X031020Y008172D01*
X027516Y011169D02*
X027516Y011538D01*
X027515Y011539D02*
X027516Y011552D01*
X027521Y011565D01*
X027528Y011577D01*
X027538Y011587D01*
X027550Y011594D01*
X027563Y011599D01*
X027576Y011600D01*
X027576Y011599D02*
X027576Y011599D01*
X027591Y011597D01*
X027605Y011592D01*
X027617Y011585D01*
X027628Y011574D01*
X027635Y011562D01*
X027640Y011548D01*
X027642Y011533D01*
X027643Y011533D02*
X027643Y011472D01*
X027645Y011455D01*
X027650Y011438D01*
X027658Y011423D01*
X027669Y011410D01*
X027682Y011399D01*
X027697Y011391D01*
X027714Y011386D01*
X027731Y011384D01*
X027742Y011384D01*
X027759Y011386D01*
X027776Y011391D01*
X027791Y011399D01*
X027804Y011410D01*
X027815Y011423D01*
X027823Y011438D01*
X027828Y011455D01*
X027830Y011472D01*
X027830Y011538D01*
X027832Y011552D01*
X027836Y011564D01*
X027843Y011576D01*
X027853Y011586D01*
X027865Y011593D01*
X027877Y011597D01*
X027891Y011599D01*
X027906Y011597D01*
X027920Y011592D01*
X027932Y011585D01*
X027943Y011574D01*
X027950Y011562D01*
X027955Y011548D01*
X027957Y011533D01*
X027957Y011191D01*
X029596Y011169D02*
X029596Y011538D01*
X029597Y011539D02*
X029598Y011552D01*
X029603Y011565D01*
X029610Y011576D01*
X029620Y011586D01*
X029631Y011593D01*
X029644Y011598D01*
X029657Y011599D01*
X029657Y011599D01*
X029672Y011597D01*
X029686Y011592D01*
X029698Y011585D01*
X029709Y011574D01*
X029716Y011562D01*
X029721Y011548D01*
X029723Y011533D01*
X029723Y011472D01*
X029724Y011472D02*
X029726Y011455D01*
X029731Y011438D01*
X029739Y011423D01*
X029750Y011410D01*
X029763Y011399D01*
X029778Y011391D01*
X029795Y011386D01*
X029812Y011384D01*
X029823Y011384D01*
X029840Y011386D01*
X029857Y011391D01*
X029872Y011399D01*
X029885Y011410D01*
X029896Y011423D01*
X029904Y011438D01*
X029909Y011455D01*
X029911Y011472D01*
X029911Y011538D01*
X029913Y011552D01*
X029917Y011564D01*
X029924Y011576D01*
X029934Y011586D01*
X029946Y011593D01*
X029958Y011597D01*
X029972Y011599D01*
X029987Y011597D01*
X030001Y011592D01*
X030013Y011585D01*
X030024Y011574D01*
X030031Y011562D01*
X030036Y011548D01*
X030038Y011533D01*
X030038Y011191D01*
X030038Y008172D02*
X030038Y007802D01*
X030037Y007802D02*
X030036Y007789D01*
X030031Y007776D01*
X030024Y007765D01*
X030014Y007755D01*
X030003Y007748D01*
X029990Y007743D01*
X029977Y007742D01*
X029977Y007741D02*
X029977Y007741D01*
X029962Y007743D01*
X029948Y007748D01*
X029936Y007755D01*
X029925Y007766D01*
X029918Y007778D01*
X029913Y007792D01*
X029911Y007807D01*
X029911Y007868D01*
X029909Y007885D01*
X029904Y007902D01*
X029896Y007917D01*
X029885Y007930D01*
X029872Y007941D01*
X029857Y007949D01*
X029840Y007954D01*
X029823Y007956D01*
X029812Y007956D01*
X029795Y007954D01*
X029778Y007949D01*
X029763Y007941D01*
X029750Y007930D01*
X029739Y007917D01*
X029731Y007902D01*
X029726Y007885D01*
X029724Y007868D01*
X029723Y007868D02*
X029723Y007802D01*
X029724Y007802D02*
X029722Y007788D01*
X029718Y007776D01*
X029711Y007764D01*
X029701Y007754D01*
X029689Y007747D01*
X029677Y007743D01*
X029663Y007741D01*
X029648Y007743D01*
X029634Y007748D01*
X029622Y007755D01*
X029611Y007766D01*
X029604Y007778D01*
X029599Y007792D01*
X029597Y007807D01*
X029596Y007807D02*
X029596Y008150D01*
X027957Y008172D02*
X027957Y007802D01*
X027958Y007802D02*
X027956Y007789D01*
X027952Y007776D01*
X027945Y007764D01*
X027935Y007754D01*
X027923Y007747D01*
X027910Y007742D01*
X027897Y007741D01*
X027896Y007741D02*
X027896Y007741D01*
X027881Y007743D01*
X027867Y007748D01*
X027855Y007755D01*
X027844Y007766D01*
X027837Y007778D01*
X027832Y007792D01*
X027830Y007807D01*
X027830Y007868D01*
X027828Y007885D01*
X027823Y007902D01*
X027815Y007917D01*
X027804Y007930D01*
X027791Y007941D01*
X027776Y007949D01*
X027759Y007954D01*
X027742Y007956D01*
X027731Y007956D01*
X027714Y007954D01*
X027697Y007949D01*
X027682Y007941D01*
X027669Y007930D01*
X027658Y007917D01*
X027650Y007902D01*
X027645Y007885D01*
X027643Y007868D01*
X027643Y007802D01*
X027641Y007788D01*
X027637Y007776D01*
X027630Y007764D01*
X027620Y007754D01*
X027608Y007747D01*
X027596Y007743D01*
X027582Y007741D01*
X027567Y007743D01*
X027553Y007748D01*
X027541Y007755D01*
X027530Y007766D01*
X027523Y007778D01*
X027518Y007792D01*
X027516Y007807D01*
X027516Y008177D01*
X030551Y008194D02*
X030551Y008801D01*
X030549Y008823D01*
X030544Y008844D01*
X030536Y008864D01*
X030525Y008882D01*
X030511Y008899D01*
X030494Y008913D01*
X030476Y008924D01*
X030456Y008932D01*
X030435Y008937D01*
X030413Y008939D01*
X030397Y008939D01*
X028951Y009005D01*
X028937Y009004D01*
X028923Y009000D01*
X028912Y008992D01*
X028902Y008982D01*
X028895Y008970D01*
X028891Y008957D01*
X028890Y008943D01*
X028893Y008929D01*
X028899Y008916D01*
X028907Y008906D01*
X028919Y008897D01*
X028931Y008891D01*
X028945Y008889D01*
X030281Y008801D01*
X030280Y008801D02*
X030299Y008798D01*
X030316Y008791D01*
X030332Y008782D01*
X030346Y008769D01*
X030357Y008754D01*
X030365Y008738D01*
X030370Y008720D01*
X030371Y008701D01*
X030369Y008683D01*
X030363Y008665D01*
X030354Y008649D01*
X030342Y008635D01*
X030327Y008623D01*
X030311Y008614D01*
X030293Y008609D01*
X030275Y008607D01*
X030275Y008608D02*
X028934Y008519D01*
X028922Y008517D01*
X028911Y008511D01*
X028902Y008503D01*
X028895Y008493D01*
X028891Y008482D01*
X028890Y008470D01*
X028890Y008194D01*
X028907Y009242D02*
X028886Y009244D01*
X028866Y009249D01*
X028847Y009257D01*
X028829Y009267D01*
X028813Y009281D01*
X028799Y009297D01*
X028789Y009315D01*
X028781Y009334D01*
X028776Y009354D01*
X028774Y009375D01*
X028906Y009242D02*
X030491Y009160D01*
X030490Y009159D02*
X030504Y009160D01*
X030517Y009165D01*
X030528Y009173D01*
X030537Y009183D01*
X030543Y009196D01*
X030546Y009209D01*
X030545Y009223D01*
X030540Y009236D01*
X030532Y009247D01*
X030522Y009256D01*
X030509Y009262D01*
X030496Y009265D01*
X030496Y009264D02*
X029271Y009331D01*
X029247Y009333D01*
X029223Y009338D01*
X029200Y009346D01*
X029179Y009358D01*
X029159Y009373D01*
X029142Y009390D01*
X029127Y009410D01*
X029115Y009431D01*
X029107Y009454D01*
X029102Y009478D01*
X029100Y009502D01*
X029100Y009849D01*
X029099Y009849D02*
X029101Y009873D01*
X029106Y009896D01*
X029114Y009918D01*
X029125Y009939D01*
X029140Y009958D01*
X029156Y009974D01*
X029175Y009989D01*
X029196Y010000D01*
X029218Y010008D01*
X029241Y010013D01*
X029265Y010015D01*
X029293Y010015D01*
X030491Y010070D01*
X030504Y010072D01*
X030517Y010078D01*
X030528Y010087D01*
X030536Y010098D01*
X030541Y010111D01*
X030543Y010125D01*
X030541Y010139D01*
X030536Y010152D01*
X030528Y010163D01*
X030517Y010172D01*
X030504Y010178D01*
X030491Y010180D01*
X030491Y010181D02*
X028918Y010098D01*
X028895Y010096D01*
X028874Y010091D01*
X028853Y010082D01*
X028833Y010070D01*
X028816Y010056D01*
X028802Y010039D01*
X028790Y010019D01*
X028781Y009998D01*
X028776Y009977D01*
X028774Y009954D01*
X028774Y009375D01*
X030551Y011147D02*
X030551Y010539D01*
X030549Y010517D01*
X030544Y010496D01*
X030536Y010476D01*
X030525Y010458D01*
X030511Y010441D01*
X030494Y010427D01*
X030476Y010416D01*
X030456Y010408D01*
X030435Y010403D01*
X030413Y010401D01*
X030397Y010401D01*
X028951Y010335D01*
X028937Y010336D01*
X028923Y010340D01*
X028912Y010348D01*
X028902Y010358D01*
X028895Y010370D01*
X028891Y010383D01*
X028890Y010397D01*
X028893Y010411D01*
X028899Y010424D01*
X028907Y010434D01*
X028919Y010443D01*
X028931Y010449D01*
X028945Y010451D01*
X030281Y010539D01*
X030280Y010539D02*
X030299Y010542D01*
X030316Y010549D01*
X030332Y010558D01*
X030346Y010571D01*
X030357Y010586D01*
X030365Y010602D01*
X030370Y010620D01*
X030371Y010639D01*
X030369Y010657D01*
X030363Y010675D01*
X030354Y010691D01*
X030342Y010705D01*
X030327Y010717D01*
X030311Y010726D01*
X030293Y010731D01*
X030275Y010733D01*
X028934Y010821D01*
X028922Y010823D01*
X028911Y010829D01*
X028902Y010837D01*
X028895Y010847D01*
X028891Y010858D01*
X028890Y010870D01*
X028890Y010871D02*
X028890Y011147D01*
X028657Y011350D02*
X028350Y011810D01*
X028657Y011810D02*
X028350Y011350D01*
X028810Y011657D02*
X028964Y011810D01*
X028964Y011350D01*
X029117Y011350D02*
X028810Y011350D01*
X027417Y016754D02*
X027340Y016830D01*
X027187Y016830D01*
X027110Y016754D01*
X027110Y016677D01*
X027187Y016600D01*
X027340Y016600D01*
X027417Y016523D01*
X027417Y016447D01*
X027340Y016370D01*
X027187Y016370D01*
X027110Y016447D01*
X027570Y016830D02*
X027570Y016370D01*
X027724Y016523D01*
X027877Y016370D01*
X027877Y016830D01*
X028031Y016447D02*
X028031Y016754D01*
X028107Y016830D01*
X028261Y016830D01*
X028338Y016754D01*
X028338Y016447D01*
X028261Y016370D01*
X028107Y016370D01*
X028031Y016447D01*
X028338Y016754D01*
X023397Y016774D02*
X023320Y016850D01*
X023167Y016850D01*
X023090Y016774D01*
X023090Y016697D01*
X023167Y016620D01*
X023320Y016620D01*
X023397Y016543D01*
X023397Y016467D01*
X023320Y016390D01*
X023167Y016390D01*
X023090Y016467D01*
X023550Y016850D02*
X023550Y016390D01*
X023704Y016543D01*
X023857Y016390D01*
X023857Y016850D01*
X024011Y016697D02*
X024164Y016850D01*
X024164Y016390D01*
X024011Y016390D02*
X024318Y016390D01*
X006507Y013752D02*
X006507Y013291D01*
X006814Y013291D01*
X007274Y013752D02*
X006967Y013752D01*
X006967Y013291D01*
X007274Y013291D01*
X007121Y013521D02*
X006967Y013521D01*
X007428Y013752D02*
X007428Y013291D01*
X007658Y013291D01*
X007735Y013368D01*
X007735Y013675D01*
X007658Y013752D01*
X007428Y013752D01*
X007888Y013368D02*
X007888Y013675D01*
X007965Y013752D01*
X008118Y013752D01*
X008195Y013675D01*
X008195Y013368D01*
X008118Y013291D01*
X007965Y013291D01*
X007888Y013368D01*
X008195Y013675D01*
X008807Y013772D02*
X008807Y013311D01*
X009114Y013311D01*
X009574Y013772D02*
X009267Y013772D01*
X009267Y013311D01*
X009574Y013311D01*
X009421Y013541D02*
X009267Y013541D01*
X009728Y013772D02*
X009728Y013311D01*
X009958Y013311D01*
X010035Y013388D01*
X010035Y013695D01*
X009958Y013772D01*
X009728Y013772D01*
X010188Y013618D02*
X010342Y013772D01*
X010342Y013311D01*
X010495Y013311D02*
X010188Y013311D01*
X010997Y013712D02*
X010997Y013251D01*
X011304Y013251D01*
X011764Y013712D02*
X011457Y013712D01*
X011457Y013251D01*
X011764Y013251D01*
X011611Y013481D02*
X011457Y013481D01*
X011918Y013712D02*
X011918Y013251D01*
X012148Y013251D01*
X012225Y013328D01*
X012225Y013635D01*
X012148Y013712D01*
X011918Y013712D01*
X012685Y013251D02*
X012378Y013251D01*
X012685Y013558D01*
X012685Y013635D01*
X012608Y013712D01*
X012455Y013712D01*
X012378Y013635D01*
X014930Y002617D02*
X015007Y002540D01*
X015083Y002540D01*
X015160Y002617D01*
X015160Y003000D01*
X015083Y003000D02*
X015237Y003000D01*
X015390Y002540D02*
X015390Y003000D01*
X015621Y003000D01*
X015697Y002924D01*
X015697Y002770D01*
X015621Y002693D01*
X015390Y002693D01*
X015851Y002847D02*
X016004Y003000D01*
X016004Y002540D01*
X015851Y002540D02*
X016158Y002540D01*
X013930Y008640D02*
X013930Y009100D01*
X014160Y009100D01*
X014237Y009024D01*
X014237Y008870D01*
X014160Y008793D01*
X013930Y008793D01*
X014083Y008793D02*
X014237Y008640D01*
X014697Y008640D02*
X014390Y008640D01*
X014697Y008947D01*
X014697Y009024D01*
X014621Y009100D01*
X014467Y009100D01*
X014390Y009024D01*
X014851Y008947D02*
X015004Y009100D01*
X015004Y008640D01*
X014851Y008640D02*
X015158Y008640D01*
X013350Y009250D02*
X013350Y009710D01*
X013580Y009710D01*
X013657Y009634D01*
X013657Y009480D01*
X013580Y009403D01*
X013350Y009403D01*
X013503Y009403D02*
X013657Y009250D01*
X014117Y009250D02*
X013810Y009250D01*
X014117Y009557D01*
X014117Y009634D01*
X014041Y009710D01*
X013887Y009710D01*
X013810Y009634D01*
X014578Y009250D02*
X014271Y009250D01*
X014578Y009557D01*
X014578Y009634D01*
X014501Y009710D01*
X014347Y009710D01*
X014271Y009634D01*
X020806Y014937D02*
X020730Y014860D01*
X020730Y014707D01*
X020806Y014630D01*
X021113Y014630D01*
X021190Y014707D01*
X021190Y014860D01*
X021113Y014937D01*
X021190Y015397D02*
X021190Y015090D01*
X020883Y015397D01*
X020806Y015397D01*
X020730Y015321D01*
X020730Y015167D01*
X020806Y015090D01*
X020883Y015551D02*
X020730Y015704D01*
X021190Y015704D01*
X021190Y015551D02*
X021190Y015858D01*
X013657Y007374D02*
X013580Y007450D01*
X013427Y007450D01*
X013350Y007374D01*
X013350Y007067D01*
X013427Y006990D01*
X013580Y006990D01*
X013657Y007067D01*
X014117Y006990D02*
X013810Y006990D01*
X014117Y007297D01*
X014117Y007374D01*
X014041Y007450D01*
X013887Y007450D01*
X013810Y007374D01*
X014578Y006990D02*
X014271Y006990D01*
X014578Y007297D01*
X014578Y007374D01*
X014501Y007450D01*
X014347Y007450D01*
X014271Y007374D01*
X018746Y004377D02*
X018670Y004300D01*
X018670Y004147D01*
X018746Y004070D01*
X019053Y004070D01*
X019130Y004147D01*
X019130Y004300D01*
X019053Y004377D01*
X019130Y004837D02*
X019130Y004530D01*
X018823Y004837D01*
X018746Y004837D01*
X018670Y004761D01*
X018670Y004607D01*
X018746Y004530D01*
X018746Y004991D02*
X018670Y005067D01*
X018670Y005221D01*
X018746Y005298D01*
X018823Y005298D01*
X018900Y005221D01*
X018900Y005144D01*
X018900Y005221D02*
X018977Y005298D01*
X019053Y005298D01*
X019130Y005221D01*
X019130Y005067D01*
X019053Y004991D01*
X020086Y005407D02*
X020010Y005330D01*
X020010Y005177D01*
X020086Y005100D01*
X020393Y005100D01*
X020470Y005177D01*
X020470Y005330D01*
X020393Y005407D01*
X020470Y005867D02*
X020470Y005560D01*
X020163Y005867D01*
X020086Y005867D01*
X020010Y005791D01*
X020010Y005637D01*
X020086Y005560D01*
X020470Y006251D02*
X020010Y006251D01*
X020240Y006021D01*
X020240Y006328D01*
X024456Y009424D02*
X024379Y009500D01*
X024226Y009500D01*
X024149Y009424D01*
X024149Y009117D01*
X024226Y009040D01*
X024379Y009040D01*
X024456Y009117D01*
X024916Y009040D02*
X024609Y009040D01*
X024916Y009347D01*
X024916Y009424D01*
X024839Y009500D01*
X024686Y009500D01*
X024609Y009424D01*
X025376Y009500D02*
X025070Y009500D01*
X025070Y009270D01*
X025223Y009347D01*
X025300Y009347D01*
X025376Y009270D01*
X025376Y009117D01*
X025300Y009040D01*
X025146Y009040D01*
X025070Y009117D01*
X019127Y014644D02*
X019050Y014720D01*
X018897Y014720D01*
X018820Y014644D01*
X018820Y014337D01*
X018897Y014260D01*
X019050Y014260D01*
X019127Y014337D01*
X019587Y014260D02*
X019280Y014260D01*
X019587Y014567D01*
X019587Y014644D01*
X019511Y014720D01*
X019357Y014720D01*
X019280Y014644D01*
X020048Y014720D02*
X019894Y014644D01*
X019741Y014490D01*
X019741Y014337D01*
X019817Y014260D01*
X019971Y014260D01*
X020048Y014337D01*
X020048Y014413D01*
X019971Y014490D01*
X019741Y014490D01*
X019157Y014024D02*
X019080Y014100D01*
X018927Y014100D01*
X018850Y014024D01*
X018850Y013717D01*
X018927Y013640D01*
X019080Y013640D01*
X019157Y013717D01*
X019617Y013640D02*
X019310Y013640D01*
X019617Y013947D01*
X019617Y014024D01*
X019541Y014100D01*
X019387Y014100D01*
X019310Y014024D01*
X019771Y014100D02*
X020078Y014100D01*
X020078Y014024D01*
X019771Y013717D01*
X019771Y013640D01*
X019157Y013394D02*
X019080Y013470D01*
X018927Y013470D01*
X018850Y013394D01*
X018850Y013087D01*
X018927Y013010D01*
X019080Y013010D01*
X019157Y013087D01*
X019617Y013010D02*
X019310Y013010D01*
X019617Y013317D01*
X019617Y013394D01*
X019541Y013470D01*
X019387Y013470D01*
X019310Y013394D01*
X019771Y013394D02*
X019847Y013470D01*
X020001Y013470D01*
X020078Y013394D01*
X020078Y013317D01*
X020001Y013240D01*
X020078Y013163D01*
X020078Y013087D01*
X020001Y013010D01*
X019847Y013010D01*
X019771Y013087D01*
X019771Y013163D01*
X019847Y013240D01*
X019771Y013317D01*
X019771Y013394D01*
X019847Y013240D02*
X020001Y013240D01*
X011800Y000979D02*
X011340Y000979D01*
X011340Y001209D01*
X011416Y001286D01*
X011570Y001286D01*
X011647Y001209D01*
X011647Y000979D01*
X011647Y001132D02*
X011800Y001286D01*
X011800Y001439D02*
X011340Y001439D01*
X011493Y001593D01*
X011340Y001746D01*
X011800Y001746D01*
X011416Y001900D02*
X011340Y001976D01*
X011340Y002130D01*
X011416Y002206D01*
X011493Y002206D01*
X011570Y002130D01*
X011570Y002053D01*
X011570Y002130D02*
X011647Y002206D01*
X011723Y002206D01*
X011800Y002130D01*
X011800Y001976D01*
X011723Y001900D01*
X011230Y000969D02*
X010770Y000969D01*
X010770Y001199D01*
X010846Y001276D01*
X011000Y001276D01*
X011077Y001199D01*
X011077Y000969D01*
X011077Y001122D02*
X011230Y001276D01*
X011230Y001429D02*
X010770Y001429D01*
X010923Y001583D01*
X010770Y001736D01*
X011230Y001736D01*
X011230Y002120D02*
X010770Y002120D01*
X011000Y001890D01*
X011000Y002196D01*
X010660Y000979D02*
X010200Y000979D01*
X010200Y001209D01*
X010276Y001286D01*
X010430Y001286D01*
X010507Y001209D01*
X010507Y000979D01*
X010507Y001132D02*
X010660Y001286D01*
X010660Y001439D02*
X010200Y001439D01*
X010353Y001593D01*
X010200Y001746D01*
X010660Y001746D01*
X010200Y002206D02*
X010200Y001900D01*
X010430Y001900D01*
X010353Y002053D01*
X010353Y002130D01*
X010430Y002206D01*
X010583Y002206D01*
X010660Y002130D01*
X010660Y001976D01*
X010583Y001900D01*
X010100Y000959D02*
X009640Y000959D01*
X009640Y001189D01*
X009716Y001266D01*
X009870Y001266D01*
X009947Y001189D01*
X009947Y000959D01*
X009947Y001112D02*
X010100Y001266D01*
X010100Y001419D02*
X009640Y001419D01*
X009793Y001573D01*
X009640Y001726D01*
X010100Y001726D01*
X009640Y002186D02*
X009716Y002033D01*
X009870Y001880D01*
X010023Y001880D01*
X010100Y001956D01*
X010100Y002110D01*
X010023Y002186D01*
X009947Y002186D01*
X009870Y002110D01*
X009870Y001880D01*
X005700Y014830D02*
X005240Y014830D01*
X005240Y015060D01*
X005316Y015137D01*
X005470Y015137D01*
X005547Y015060D01*
X005547Y014830D01*
X005547Y014983D02*
X005700Y015137D01*
X005700Y015290D02*
X005240Y015290D01*
X005393Y015444D01*
X005240Y015597D01*
X005700Y015597D01*
X005393Y015751D02*
X005240Y015904D01*
X005700Y015904D01*
X005700Y015751D02*
X005700Y016058D01*
X004740Y014540D02*
X004280Y014540D01*
X004280Y014770D01*
X004356Y014847D01*
X004510Y014847D01*
X004587Y014770D01*
X004587Y014540D01*
X004587Y014693D02*
X004740Y014847D01*
X004740Y015000D02*
X004280Y015000D01*
X004433Y015154D01*
X004280Y015307D01*
X004740Y015307D01*
X004740Y015768D02*
X004740Y015461D01*
X004433Y015768D01*
X004356Y015768D01*
X004280Y015691D01*
X004280Y015537D01*
X004356Y015461D01*
X003666Y014827D02*
X003590Y014750D01*
X003590Y014597D01*
X003666Y014520D01*
X003973Y014520D01*
X004050Y014597D01*
X004050Y014750D01*
X003973Y014827D01*
X004050Y014980D02*
X003590Y014980D01*
X003743Y015134D01*
X003590Y015287D01*
X004050Y015287D01*
X003743Y015441D02*
X003590Y015594D01*
X004050Y015594D01*
X004050Y015441D02*
X004050Y015748D01*
X007806Y001036D02*
X007730Y000959D01*
X007730Y000806D01*
X007806Y000729D01*
X008113Y000729D01*
X008190Y000806D01*
X008190Y000959D01*
X008113Y001036D01*
X008190Y001189D02*
X007730Y001189D01*
X007883Y001343D01*
X007730Y001496D01*
X008190Y001496D01*
X008190Y001956D02*
X008190Y001650D01*
X007883Y001956D01*
X007806Y001956D01*
X007730Y001880D01*
X007730Y001726D01*
X007806Y001650D01*
X005500Y002790D02*
X005500Y003250D01*
X005730Y003250D01*
X005807Y003174D01*
X005807Y003020D01*
X005730Y002943D01*
X005500Y002943D01*
X005653Y002943D02*
X005807Y002790D01*
X005960Y002790D02*
X005960Y003250D01*
X006114Y003097D01*
X006267Y003250D01*
X006267Y002790D01*
X006421Y003250D02*
X006728Y003250D01*
X006728Y003174D01*
X006421Y002867D01*
X006421Y002790D01*
X024430Y007450D02*
X024430Y007910D01*
X024660Y007910D01*
X024737Y007834D01*
X024737Y007680D01*
X024660Y007603D01*
X024430Y007603D01*
X024583Y007603D02*
X024737Y007450D01*
X025197Y007450D02*
X024890Y007450D01*
X025197Y007757D01*
X025197Y007834D01*
X025121Y007910D01*
X024967Y007910D01*
X024890Y007834D01*
X025351Y007527D02*
X025351Y007834D01*
X025427Y007910D01*
X025581Y007910D01*
X025658Y007834D01*
X025658Y007527D01*
X025581Y007450D01*
X025427Y007450D01*
X025351Y007527D01*
X025658Y007834D01*
X026118Y007910D02*
X025964Y007834D01*
X025811Y007680D01*
X025811Y007527D01*
X025888Y007450D01*
X026041Y007450D01*
X026118Y007527D01*
X026118Y007603D01*
X026041Y007680D01*
X025811Y007680D01*
X025130Y016310D02*
X025130Y016770D01*
X025360Y016770D01*
X025437Y016694D01*
X025437Y016540D01*
X025360Y016463D01*
X025130Y016463D01*
X025283Y016463D02*
X025437Y016310D01*
X025897Y016310D02*
X025590Y016310D01*
X025897Y016617D01*
X025897Y016694D01*
X025821Y016770D01*
X025667Y016770D01*
X025590Y016694D01*
X026051Y016387D02*
X026051Y016694D01*
X026127Y016770D01*
X026281Y016770D01*
X026358Y016694D01*
X026358Y016387D01*
X026281Y016310D01*
X026127Y016310D01*
X026051Y016387D01*
X026358Y016694D01*
X026741Y016310D02*
X026741Y016770D01*
X026511Y016540D01*
X026818Y016540D01*
X025140Y014620D02*
X025140Y015080D01*
X025370Y015080D01*
X025447Y015004D01*
X025447Y014850D01*
X025370Y014773D01*
X025140Y014773D01*
X025293Y014773D02*
X025447Y014620D01*
X025907Y014620D02*
X025600Y014620D01*
X025907Y014927D01*
X025907Y015004D01*
X025831Y015080D01*
X025677Y015080D01*
X025600Y015004D01*
X026061Y014697D02*
X026061Y015004D01*
X026137Y015080D01*
X026291Y015080D01*
X026368Y015004D01*
X026368Y014697D01*
X026291Y014620D01*
X026137Y014620D01*
X026061Y014697D01*
X026368Y015004D01*
X026828Y015080D02*
X026521Y015080D01*
X026521Y014850D01*
X026674Y014927D01*
X026751Y014927D01*
X026828Y014850D01*
X026828Y014697D01*
X026751Y014620D01*
X026598Y014620D01*
X026521Y014697D01*
X029130Y016360D02*
X029130Y016820D01*
X029360Y016820D01*
X029437Y016744D01*
X029437Y016590D01*
X029360Y016513D01*
X029130Y016513D01*
X029283Y016513D02*
X029437Y016360D01*
X029897Y016360D02*
X029590Y016360D01*
X029897Y016667D01*
X029897Y016744D01*
X029821Y016820D01*
X029667Y016820D01*
X029590Y016744D01*
X030051Y016437D02*
X030051Y016744D01*
X030127Y016820D01*
X030281Y016820D01*
X030358Y016744D01*
X030358Y016437D01*
X030281Y016360D01*
X030127Y016360D01*
X030051Y016437D01*
X030358Y016744D01*
X030818Y016360D02*
X030511Y016360D01*
X030818Y016667D01*
X030818Y016744D01*
X030741Y016820D01*
X030588Y016820D01*
X030511Y016744D01*
X029130Y014710D02*
X029130Y015170D01*
X029360Y015170D01*
X029437Y015094D01*
X029437Y014940D01*
X029360Y014863D01*
X029130Y014863D01*
X029283Y014863D02*
X029437Y014710D01*
X029897Y014710D02*
X029590Y014710D01*
X029897Y015017D01*
X029897Y015094D01*
X029821Y015170D01*
X029667Y015170D01*
X029590Y015094D01*
X030051Y014787D02*
X030051Y015094D01*
X030127Y015170D01*
X030281Y015170D01*
X030358Y015094D01*
X030358Y014787D01*
X030281Y014710D01*
X030127Y014710D01*
X030051Y014787D01*
X030358Y015094D01*
X030511Y015094D02*
X030588Y015170D01*
X030741Y015170D01*
X030818Y015094D01*
X030818Y015017D01*
X030741Y014940D01*
X030664Y014940D01*
X030741Y014940D02*
X030818Y014863D01*
X030818Y014787D01*
X030741Y014710D01*
X030588Y014710D01*
X030511Y014787D01*
X011720Y015820D02*
X011260Y015820D01*
X011260Y016050D01*
X011336Y016127D01*
X011490Y016127D01*
X011567Y016050D01*
X011567Y015820D01*
X011567Y015973D02*
X011720Y016127D01*
X011720Y016587D02*
X011720Y016280D01*
X011413Y016587D01*
X011336Y016587D01*
X011260Y016511D01*
X011260Y016357D01*
X011336Y016280D01*
X011643Y016741D02*
X011336Y016741D01*
X011260Y016817D01*
X011260Y016971D01*
X011336Y017048D01*
X011643Y017048D01*
X011720Y016971D01*
X011720Y016817D01*
X011643Y016741D01*
X011336Y017048D01*
X011413Y017201D02*
X011260Y017354D01*
X011720Y017354D01*
X011720Y017201D02*
X011720Y017508D01*
X012290Y015990D02*
X011830Y015990D01*
X011830Y016220D01*
X011906Y016297D01*
X012060Y016297D01*
X012137Y016220D01*
X012137Y015990D01*
X012137Y016143D02*
X012290Y016297D01*
X012290Y016757D02*
X012290Y016450D01*
X011983Y016757D01*
X011906Y016757D01*
X011830Y016681D01*
X011830Y016527D01*
X011906Y016450D01*
X012213Y016911D02*
X012290Y016987D01*
X012290Y017141D01*
X012213Y017218D01*
X011906Y017218D01*
X011830Y017141D01*
X011830Y016987D01*
X011906Y016911D01*
X011983Y016911D01*
X012060Y016987D01*
X012060Y017218D01*
X011100Y016070D02*
X010640Y016070D01*
X010640Y016300D01*
X010716Y016377D01*
X010870Y016377D01*
X010947Y016300D01*
X010947Y016070D01*
X010947Y016223D02*
X011100Y016377D01*
X011100Y016837D02*
X011100Y016530D01*
X010793Y016837D01*
X010716Y016837D01*
X010640Y016761D01*
X010640Y016607D01*
X010716Y016530D01*
X010716Y016991D02*
X010640Y017067D01*
X010640Y017221D01*
X010716Y017298D01*
X010793Y017298D01*
X010870Y017221D01*
X010947Y017298D01*
X011023Y017298D01*
X011100Y017221D01*
X011100Y017067D01*
X011023Y016991D01*
X010947Y016991D01*
X010870Y017067D01*
X010793Y016991D01*
X010716Y016991D01*
X010870Y017067D02*
X010870Y017221D01*
X009350Y015810D02*
X008890Y015810D01*
X008890Y016040D01*
X008966Y016117D01*
X009120Y016117D01*
X009197Y016040D01*
X009197Y015810D01*
X009197Y015963D02*
X009350Y016117D01*
X009350Y016577D02*
X009350Y016270D01*
X009043Y016577D01*
X008966Y016577D01*
X008890Y016501D01*
X008890Y016347D01*
X008966Y016270D01*
X009273Y016731D02*
X008966Y016731D01*
X008890Y016807D01*
X008890Y016961D01*
X008966Y017038D01*
X009273Y017038D01*
X009350Y016961D01*
X009350Y016807D01*
X009273Y016731D01*
X008966Y017038D01*
X008966Y017191D02*
X008890Y017268D01*
X008890Y017421D01*
X008966Y017498D01*
X009043Y017498D01*
X009120Y017421D01*
X009197Y017498D01*
X009273Y017498D01*
X009350Y017421D01*
X009350Y017268D01*
X009273Y017191D01*
X009197Y017191D01*
X009120Y017268D01*
X009043Y017191D01*
X008966Y017191D01*
X009120Y017268D02*
X009120Y017421D01*
X010230Y015840D02*
X009770Y015840D01*
X009770Y016070D01*
X009846Y016147D01*
X010000Y016147D01*
X010077Y016070D01*
X010077Y015840D01*
X010077Y015993D02*
X010230Y016147D01*
X010230Y016607D02*
X010230Y016300D01*
X009923Y016607D01*
X009846Y016607D01*
X009770Y016531D01*
X009770Y016377D01*
X009846Y016300D01*
X010153Y016761D02*
X009846Y016761D01*
X009770Y016837D01*
X009770Y016991D01*
X009846Y017068D01*
X010153Y017068D01*
X010230Y016991D01*
X010230Y016837D01*
X010153Y016761D01*
X009846Y017068D01*
X009770Y017221D02*
X009770Y017528D01*
X009846Y017528D01*
X010153Y017221D01*
X010230Y017221D01*
X008670Y016040D02*
X008210Y016040D01*
X008210Y016270D01*
X008286Y016347D01*
X008440Y016347D01*
X008517Y016270D01*
X008517Y016040D01*
X008517Y016193D02*
X008670Y016347D01*
X008670Y016807D02*
X008670Y016500D01*
X008363Y016807D01*
X008286Y016807D01*
X008210Y016731D01*
X008210Y016577D01*
X008286Y016500D01*
X008210Y017268D02*
X008286Y017114D01*
X008440Y016961D01*
X008593Y016961D01*
X008670Y017037D01*
X008670Y017191D01*
X008593Y017268D01*
X008517Y017268D01*
X008440Y017191D01*
X008440Y016961D01*
X007090Y016060D02*
X006630Y016060D01*
X006630Y016290D01*
X006706Y016367D01*
X006860Y016367D01*
X006937Y016290D01*
X006937Y016060D01*
X006937Y016213D02*
X007090Y016367D01*
X007090Y016827D02*
X007090Y016520D01*
X006783Y016827D01*
X006706Y016827D01*
X006630Y016751D01*
X006630Y016597D01*
X006706Y016520D01*
X006630Y017288D02*
X006630Y016981D01*
X006860Y016981D01*
X006783Y017134D01*
X006783Y017211D01*
X006860Y017288D01*
X007013Y017288D01*
X007090Y017211D01*
X007090Y017057D01*
X007013Y016981D01*
X007670Y016010D02*
X007210Y016010D01*
X007210Y016240D01*
X007286Y016317D01*
X007440Y016317D01*
X007517Y016240D01*
X007517Y016010D01*
X007517Y016163D02*
X007670Y016317D01*
X007670Y016777D02*
X007670Y016470D01*
X007363Y016777D01*
X007286Y016777D01*
X007210Y016701D01*
X007210Y016547D01*
X007286Y016470D01*
X007670Y017161D02*
X007210Y017161D01*
X007440Y016931D01*
X007440Y017238D01*
X006430Y016090D02*
X005970Y016090D01*
X005970Y016320D01*
X006046Y016397D01*
X006200Y016397D01*
X006277Y016320D01*
X006277Y016090D01*
X006277Y016243D02*
X006430Y016397D01*
X006430Y016857D02*
X006430Y016550D01*
X006123Y016857D01*
X006046Y016857D01*
X005970Y016781D01*
X005970Y016627D01*
X006046Y016550D01*
X006046Y017011D02*
X005970Y017087D01*
X005970Y017241D01*
X006046Y017318D01*
X006123Y017318D01*
X006200Y017241D01*
X006200Y017164D01*
X006200Y017241D02*
X006277Y017318D01*
X006353Y017318D01*
X006430Y017241D01*
X006430Y017087D01*
X006353Y017011D01*
X021370Y005150D02*
X021523Y005150D01*
X021447Y005150D02*
X021447Y005610D01*
X021523Y005610D02*
X021370Y005610D01*
X021984Y005534D02*
X021907Y005610D01*
X021754Y005610D01*
X021677Y005534D01*
X021677Y005227D01*
X021754Y005150D01*
X021907Y005150D01*
X021984Y005227D01*
X022137Y005534D02*
X022214Y005610D01*
X022367Y005610D01*
X022444Y005534D01*
X022444Y005457D01*
X022367Y005380D01*
X022291Y005380D01*
X022367Y005380D02*
X022444Y005303D01*
X022444Y005227D01*
X022367Y005150D01*
X022214Y005150D01*
X022137Y005227D01*
X026767Y012864D02*
X026690Y012940D01*
X026537Y012940D01*
X026460Y012864D01*
X026460Y012557D01*
X026537Y012480D01*
X026690Y012480D01*
X026767Y012557D01*
X027151Y012480D02*
X027151Y012940D01*
X026920Y012710D01*
X027227Y012710D01*
X025846Y011607D02*
X025770Y011530D01*
X025770Y011377D01*
X025846Y011300D01*
X026153Y011300D01*
X026230Y011377D01*
X026230Y011530D01*
X026153Y011607D01*
X025846Y011760D02*
X025770Y011837D01*
X025770Y011991D01*
X025846Y012067D01*
X025923Y012067D01*
X026000Y011991D01*
X026000Y011914D01*
X026000Y011991D02*
X026077Y012067D01*
X026153Y012067D01*
X026230Y011991D01*
X026230Y011837D01*
X026153Y011760D01*
X021557Y013274D02*
X021480Y013350D01*
X021327Y013350D01*
X021250Y013274D01*
X021250Y012967D01*
X021327Y012890D01*
X021480Y012890D01*
X021557Y012967D01*
X021710Y013197D02*
X021864Y013350D01*
X021864Y012890D01*
X022017Y012890D02*
X021710Y012890D01*
X023076Y011917D02*
X023000Y011840D01*
X023000Y011687D01*
X023076Y011610D01*
X023383Y011610D01*
X023460Y011687D01*
X023460Y011840D01*
X023383Y011917D01*
X023460Y012377D02*
X023460Y012070D01*
X023153Y012377D01*
X023076Y012377D01*
X023000Y012301D01*
X023000Y012147D01*
X023076Y012070D01*
D12*
X027713Y005077D02*
X027787Y005077D01*
X027750Y005077D02*
X027750Y005297D01*
X027713Y005297D02*
X027787Y005297D01*
X028007Y005260D02*
X027971Y005297D01*
X027897Y005297D01*
X027861Y005260D01*
X027861Y005113D01*
X027897Y005077D01*
X027971Y005077D01*
X028007Y005113D01*
X028082Y005223D02*
X028155Y005297D01*
X028155Y005077D01*
X028082Y005077D02*
X028228Y005077D01*
X024920Y005360D02*
X024920Y006520D01*
X025300Y006520D01*
X025300Y005360D01*
X024920Y005360D01*
X024977Y006793D02*
X024940Y006830D01*
X024867Y006830D01*
X024830Y006793D01*
X024830Y006647D01*
X024867Y006610D01*
X024940Y006610D01*
X024977Y006647D01*
X025051Y006757D02*
X025124Y006830D01*
X025124Y006610D01*
X025051Y006610D02*
X025198Y006610D01*
X025272Y006757D02*
X025345Y006830D01*
X025345Y006610D01*
X025272Y006610D02*
X025419Y006610D01*
X028420Y005240D02*
X028420Y006400D01*
X028800Y006400D01*
X028800Y005240D01*
X028420Y005240D01*
X028517Y006657D02*
X028480Y006620D01*
X028480Y006547D01*
X028517Y006510D01*
X028663Y006510D01*
X028700Y006547D01*
X028700Y006620D01*
X028663Y006657D01*
X028553Y006731D02*
X028480Y006804D01*
X028700Y006804D01*
X028700Y006731D02*
X028700Y006878D01*
X028700Y007099D02*
X028700Y006952D01*
X028553Y007099D01*
X028517Y007099D01*
X028480Y007062D01*
X028480Y006989D01*
X028517Y006952D01*
X026140Y004420D02*
X026140Y003260D01*
X025760Y003260D01*
X025760Y004420D01*
X026140Y004420D01*
X025897Y004637D02*
X025860Y004600D01*
X025860Y004527D01*
X025897Y004490D01*
X026043Y004490D01*
X026080Y004527D01*
X026080Y004600D01*
X026043Y004637D01*
X025933Y004711D02*
X025860Y004784D01*
X026080Y004784D01*
X026080Y004711D02*
X026080Y004858D01*
X025897Y004932D02*
X025860Y004969D01*
X025860Y005042D01*
X025897Y005079D01*
X025933Y005079D01*
X025970Y005042D01*
X025970Y005005D01*
X025970Y005042D02*
X026007Y005079D01*
X026043Y005079D01*
X026080Y005042D01*
X026080Y004969D01*
X026043Y004932D01*
X023970Y003260D02*
X025130Y003260D01*
X025130Y002880D01*
X023970Y002880D01*
X023970Y003260D01*
X025367Y003213D02*
X025330Y003250D01*
X025257Y003250D01*
X025220Y003213D01*
X025220Y003067D01*
X025257Y003030D01*
X025330Y003030D01*
X025367Y003067D01*
X025441Y003177D02*
X025514Y003250D01*
X025514Y003030D01*
X025441Y003030D02*
X025588Y003030D01*
X025772Y003030D02*
X025772Y003250D01*
X025662Y003140D01*
X025809Y003140D01*
X029140Y005260D02*
X029140Y006420D01*
X029520Y006420D01*
X029520Y005260D01*
X029140Y005260D01*
X029267Y006667D02*
X029230Y006630D01*
X029230Y006557D01*
X029267Y006520D01*
X029413Y006520D01*
X029450Y006557D01*
X029450Y006630D01*
X029413Y006667D01*
X029303Y006741D02*
X029230Y006814D01*
X029450Y006814D01*
X029450Y006741D02*
X029450Y006888D01*
X029230Y007109D02*
X029230Y006962D01*
X029340Y006962D01*
X029303Y007035D01*
X029303Y007072D01*
X029340Y007109D01*
X029413Y007109D01*
X029450Y007072D01*
X029450Y006999D01*
X029413Y006962D01*
X028490Y004600D02*
X029650Y004600D01*
X029650Y004220D01*
X028490Y004220D01*
X028490Y004600D01*
X029877Y004513D02*
X029840Y004550D01*
X029767Y004550D01*
X029730Y004513D01*
X029730Y004367D01*
X029767Y004330D01*
X029840Y004330D01*
X029877Y004367D01*
X029951Y004477D02*
X030024Y004550D01*
X030024Y004330D01*
X029951Y004330D02*
X030098Y004330D01*
X030319Y004550D02*
X030245Y004513D01*
X030172Y004440D01*
X030172Y004367D01*
X030209Y004330D01*
X030282Y004330D01*
X030319Y004367D01*
X030319Y004403D01*
X030282Y004440D01*
X030172Y004440D01*
X024620Y006010D02*
X024620Y004850D01*
X024240Y004850D01*
X024240Y006010D01*
X024620Y006010D01*
X024727Y005174D02*
X024690Y005137D01*
X024690Y005064D01*
X024727Y005027D01*
X024873Y005027D01*
X024910Y005064D01*
X024910Y005137D01*
X024873Y005174D01*
X024763Y005248D02*
X024690Y005321D01*
X024910Y005321D01*
X024910Y005248D02*
X024910Y005395D01*
X024690Y005469D02*
X024690Y005616D01*
X024727Y005616D01*
X024873Y005469D01*
X024910Y005469D01*
X026770Y005500D02*
X025610Y005500D01*
X025610Y005880D01*
X026770Y005880D01*
X026770Y005500D01*
X026177Y005200D02*
X026177Y005420D01*
X026287Y005420D01*
X026324Y005383D01*
X026324Y005310D01*
X026287Y005273D01*
X026177Y005273D01*
X026250Y005273D02*
X026324Y005200D01*
X026398Y005347D02*
X026471Y005420D01*
X026471Y005200D01*
X026398Y005200D02*
X026545Y005200D01*
X026619Y005347D02*
X026692Y005420D01*
X026692Y005200D01*
X026619Y005200D02*
X026766Y005200D01*
X027720Y005380D02*
X027720Y006540D01*
X028100Y006540D01*
X028100Y005380D01*
X027720Y005380D01*
X028000Y006630D02*
X027780Y006630D01*
X027780Y006740D01*
X027817Y006777D01*
X027890Y006777D01*
X027927Y006740D01*
X027927Y006630D01*
X027927Y006703D02*
X028000Y006777D01*
X027853Y006851D02*
X027780Y006924D01*
X028000Y006924D01*
X028000Y006851D02*
X028000Y006998D01*
X028000Y007219D02*
X028000Y007072D01*
X027853Y007219D01*
X027817Y007219D01*
X027780Y007182D01*
X027780Y007109D01*
X027817Y007072D01*
X027500Y006540D02*
X027500Y005380D01*
X027120Y005380D01*
X027120Y006540D01*
X027500Y006540D01*
X027410Y006610D02*
X027190Y006610D01*
X027190Y006720D01*
X027227Y006757D01*
X027300Y006757D01*
X027337Y006720D01*
X027337Y006610D01*
X027337Y006683D02*
X027410Y006757D01*
X027263Y006831D02*
X027190Y006904D01*
X027410Y006904D01*
X027410Y006831D02*
X027410Y006978D01*
X027227Y007052D02*
X027190Y007089D01*
X027190Y007162D01*
X027227Y007199D01*
X027263Y007199D01*
X027300Y007162D01*
X027300Y007125D01*
X027300Y007162D02*
X027337Y007199D01*
X027373Y007199D01*
X027410Y007162D01*
X027410Y007089D01*
X027373Y007052D01*
X025880Y006410D02*
X027040Y006410D01*
X027040Y006030D01*
X025880Y006030D01*
X025880Y006410D01*
X026460Y006520D02*
X026460Y006740D01*
X026570Y006740D01*
X026607Y006703D01*
X026607Y006630D01*
X026570Y006593D01*
X026460Y006593D01*
X026533Y006593D02*
X026607Y006520D01*
X026681Y006667D02*
X026754Y006740D01*
X026754Y006520D01*
X026681Y006520D02*
X026828Y006520D01*
X027012Y006520D02*
X027012Y006740D01*
X026902Y006630D01*
X027049Y006630D01*
X024480Y003770D02*
X025640Y003770D01*
X025640Y003390D01*
X024480Y003390D01*
X024480Y003770D01*
X025110Y003870D02*
X025110Y004090D01*
X025220Y004090D01*
X025257Y004053D01*
X025257Y003980D01*
X025220Y003943D01*
X025110Y003943D01*
X025183Y003943D02*
X025257Y003870D01*
X025331Y004017D02*
X025404Y004090D01*
X025404Y003870D01*
X025331Y003870D02*
X025478Y003870D01*
X025699Y004090D02*
X025552Y004090D01*
X025552Y003980D01*
X025625Y004017D01*
X025662Y004017D01*
X025699Y003980D01*
X025699Y003907D01*
X025662Y003870D01*
X025589Y003870D01*
X025552Y003907D01*
X023970Y004260D02*
X025130Y004260D01*
X025130Y003880D01*
X023970Y003880D01*
X023970Y004260D01*
X024310Y004330D02*
X024310Y004550D01*
X024420Y004550D01*
X024457Y004513D01*
X024457Y004440D01*
X024420Y004403D01*
X024310Y004403D01*
X024383Y004403D02*
X024457Y004330D01*
X024531Y004477D02*
X024604Y004550D01*
X024604Y004330D01*
X024531Y004330D02*
X024678Y004330D01*
X024899Y004550D02*
X024825Y004513D01*
X024752Y004440D01*
X024752Y004367D01*
X024789Y004330D01*
X024862Y004330D01*
X024899Y004367D01*
X024899Y004403D01*
X024862Y004440D01*
X024752Y004440D01*
X029430Y003590D02*
X028270Y003590D01*
X028270Y003970D01*
X029430Y003970D01*
X029430Y003590D01*
X029310Y003680D02*
X029310Y003900D01*
X029420Y003900D01*
X029457Y003863D01*
X029457Y003790D01*
X029420Y003753D01*
X029310Y003753D01*
X029383Y003753D02*
X029457Y003680D01*
X029531Y003827D02*
X029604Y003900D01*
X029604Y003680D01*
X029531Y003680D02*
X029678Y003680D01*
X029752Y003900D02*
X029899Y003900D01*
X029899Y003863D01*
X029752Y003717D01*
X029752Y003680D01*
X028270Y003500D02*
X029430Y003500D01*
X029430Y003120D01*
X028270Y003120D01*
X028270Y003500D01*
X029320Y003230D02*
X029320Y003450D01*
X029430Y003450D01*
X029467Y003413D01*
X029467Y003340D01*
X029430Y003303D01*
X029320Y003303D01*
X029393Y003303D02*
X029467Y003230D01*
X029541Y003377D02*
X029614Y003450D01*
X029614Y003230D01*
X029541Y003230D02*
X029688Y003230D01*
X029762Y003413D02*
X029799Y003450D01*
X029872Y003450D01*
X029909Y003413D01*
X029909Y003377D01*
X029872Y003340D01*
X029909Y003303D01*
X029909Y003267D01*
X029872Y003230D01*
X029799Y003230D01*
X029762Y003267D01*
X029762Y003303D01*
X029799Y003340D01*
X029762Y003377D01*
X029762Y003413D01*
X029799Y003340D02*
X029872Y003340D01*
X029660Y002280D02*
X028500Y002280D01*
X028500Y002660D01*
X029660Y002660D01*
X029660Y002280D01*
X029830Y002460D02*
X029830Y002680D01*
X029940Y002680D01*
X029977Y002643D01*
X029977Y002570D01*
X029940Y002533D01*
X029830Y002533D01*
X029903Y002533D02*
X029977Y002460D01*
X030051Y002607D02*
X030124Y002680D01*
X030124Y002460D01*
X030051Y002460D02*
X030198Y002460D01*
X030272Y002497D02*
X030309Y002460D01*
X030382Y002460D01*
X030419Y002497D01*
X030419Y002643D01*
X030382Y002680D01*
X030309Y002680D01*
X030272Y002643D01*
X030272Y002607D01*
X030309Y002570D01*
X030419Y002570D01*
X028490Y005080D02*
X029650Y005080D01*
X029650Y004700D01*
X028490Y004700D01*
X028490Y005080D01*
X029620Y004850D02*
X029620Y005070D01*
X029730Y005070D01*
X029767Y005033D01*
X029767Y004960D01*
X029730Y004923D01*
X029620Y004923D01*
X029693Y004923D02*
X029767Y004850D01*
X029988Y004850D02*
X029841Y004850D01*
X029988Y004997D01*
X029988Y005033D01*
X029951Y005070D01*
X029878Y005070D01*
X029841Y005033D01*
X030062Y004887D02*
X030062Y005033D01*
X030099Y005070D01*
X030172Y005070D01*
X030209Y005033D01*
X030209Y004887D01*
X030172Y004850D01*
X030099Y004850D01*
X030062Y004887D01*
X030209Y005033D01*
X025750Y002600D02*
X025750Y002380D01*
X025897Y002380D01*
X025971Y002527D02*
X026044Y002600D01*
X026044Y002380D01*
X025971Y002380D02*
X026118Y002380D01*
X026192Y002527D02*
X026265Y002600D01*
X026265Y002380D01*
X026192Y002380D02*
X026339Y002380D01*
X027060Y002570D02*
X027060Y002350D01*
X027207Y002350D01*
X027281Y002497D02*
X027354Y002570D01*
X027354Y002350D01*
X027281Y002350D02*
X027428Y002350D01*
X027649Y002350D02*
X027502Y002350D01*
X027649Y002497D01*
X027649Y002533D01*
X027612Y002570D01*
X027539Y002570D01*
X027502Y002533D01*
X013920Y008990D02*
X013920Y007830D01*
X013540Y007830D01*
X013540Y008990D01*
X013920Y008990D01*
X013320Y009500D02*
X013320Y008340D01*
X012940Y008340D01*
X012940Y009500D01*
X013320Y009500D01*
X021140Y014660D02*
X021140Y013500D01*
X020760Y013500D01*
X020760Y014660D01*
X021140Y014660D01*
X012940Y006970D02*
X012940Y008130D01*
X013320Y008130D01*
X013320Y006970D01*
X012940Y006970D01*
X019110Y003910D02*
X019110Y002750D01*
X018730Y002750D01*
X018730Y003910D01*
X019110Y003910D01*
X020190Y003720D02*
X020190Y004880D01*
X020570Y004880D01*
X020570Y003720D01*
X020190Y003720D01*
X024260Y008980D02*
X023100Y008980D01*
X023100Y009360D01*
X024260Y009360D01*
X024260Y008980D01*
X017780Y014610D02*
X018940Y014610D01*
X018940Y014230D01*
X017780Y014230D01*
X017780Y014610D01*
X017790Y014050D02*
X018950Y014050D01*
X018950Y013670D01*
X017790Y013670D01*
X017790Y014050D01*
X017780Y013390D02*
X018940Y013390D01*
X018940Y013010D01*
X017780Y013010D01*
X017780Y013390D01*
X011620Y003490D02*
X011620Y002330D01*
X011240Y002330D01*
X011240Y003490D01*
X011620Y003490D01*
X011110Y003490D02*
X011110Y002330D01*
X010730Y002330D01*
X010730Y003490D01*
X011110Y003490D01*
X010610Y003490D02*
X010610Y002330D01*
X010230Y002330D01*
X010230Y003490D01*
X010610Y003490D01*
X010090Y003490D02*
X010090Y002330D01*
X009710Y002330D01*
X009710Y003490D01*
X010090Y003490D01*
X005680Y014440D02*
X005680Y013280D01*
X005300Y013280D01*
X005300Y014440D01*
X005680Y014440D01*
X004610Y014440D02*
X004610Y013280D01*
X004230Y013280D01*
X004230Y014440D01*
X004610Y014440D01*
X004110Y014440D02*
X004110Y013280D01*
X003730Y013280D01*
X003730Y014440D01*
X004110Y014440D01*
X008307Y003677D02*
X008307Y002123D01*
X007533Y002123D02*
X007533Y003677D01*
X008307Y003677D01*
X008307Y002123D02*
X007533Y002123D01*
X005100Y002710D02*
X006260Y002710D01*
X006260Y002330D01*
X005100Y002330D01*
X005100Y002710D01*
X023210Y008000D02*
X024370Y008000D01*
X024370Y007620D01*
X023210Y007620D01*
X023210Y008000D01*
X025150Y015130D02*
X025150Y016290D01*
X025530Y016290D01*
X025530Y015130D01*
X025150Y015130D01*
X025150Y013490D02*
X025150Y014650D01*
X025530Y014650D01*
X025530Y013490D01*
X025150Y013490D01*
X029140Y015200D02*
X029140Y016360D01*
X029520Y016360D01*
X029520Y015200D01*
X029140Y015200D01*
X029130Y013540D02*
X029130Y014700D01*
X029510Y014700D01*
X029510Y013540D01*
X029130Y013540D01*
X011670Y015990D02*
X011670Y014830D01*
X011290Y014830D01*
X011290Y015990D01*
X011670Y015990D01*
X012230Y016000D02*
X012230Y014840D01*
X011850Y014840D01*
X011850Y016000D01*
X012230Y016000D01*
X011090Y016000D02*
X011090Y014840D01*
X010710Y014840D01*
X010710Y016000D01*
X011090Y016000D01*
X009340Y016010D02*
X009340Y014850D01*
X008960Y014850D01*
X008960Y016010D01*
X009340Y016010D01*
X009920Y016000D02*
X009920Y014840D01*
X009540Y014840D01*
X009540Y016000D01*
X009920Y016000D01*
X008780Y016020D02*
X008780Y014860D01*
X008400Y014860D01*
X008400Y016020D01*
X008780Y016020D01*
X007000Y016030D02*
X007000Y014870D01*
X006620Y014870D01*
X006620Y016030D01*
X007000Y016030D01*
X007570Y016020D02*
X007570Y014860D01*
X007190Y014860D01*
X007190Y016020D01*
X007570Y016020D01*
X006390Y016030D02*
X006390Y014870D01*
X006010Y014870D01*
X006010Y016030D01*
X006390Y016030D01*
X024610Y001580D02*
X024610Y002740D01*
X024990Y002740D01*
X024990Y001580D01*
X024610Y001580D01*
X024850Y000830D02*
X024630Y000830D01*
X024630Y000940D01*
X024667Y000977D01*
X024740Y000977D01*
X024777Y000940D01*
X024777Y000830D01*
X024777Y000903D02*
X024850Y000977D01*
X024703Y001051D02*
X024630Y001124D01*
X024850Y001124D01*
X024850Y001051D02*
X024850Y001198D01*
X024813Y001272D02*
X024667Y001272D01*
X024630Y001309D01*
X024630Y001382D01*
X024667Y001419D01*
X024813Y001419D01*
X024850Y001382D01*
X024850Y001309D01*
X024813Y001272D01*
X024667Y001419D01*
X024703Y001493D02*
X024630Y001566D01*
X024850Y001566D01*
X024850Y001493D02*
X024850Y001640D01*
X026410Y011210D02*
X026410Y012370D01*
X026790Y012370D01*
X026790Y011210D01*
X026410Y011210D01*
X026180Y011380D02*
X026180Y010220D01*
X025800Y010220D01*
X025800Y011380D01*
X026180Y011380D01*
X021270Y011600D02*
X021270Y012760D01*
X021650Y012760D01*
X021650Y011600D01*
X021270Y011600D01*
X023380Y011620D02*
X023380Y010460D01*
X023000Y010460D01*
X023000Y011620D01*
X023380Y011620D01*
D13*
X015030Y002150D02*
X015280Y002400D01*
X015780Y002400D01*
X016030Y002150D01*
X016280Y002400D01*
X016780Y002400D01*
X017030Y002150D01*
X017280Y002400D01*
X017780Y002400D01*
X018030Y002150D01*
X018280Y002400D01*
X018780Y002400D01*
X019030Y002150D01*
X019280Y002400D01*
X019780Y002400D01*
X020030Y002150D01*
X020280Y002400D01*
X020780Y002400D01*
X021030Y002150D01*
X021030Y001650D01*
X020780Y001400D01*
X020280Y001400D01*
X020030Y001650D01*
X019780Y001400D01*
X019280Y001400D01*
X019030Y001650D01*
X018780Y001400D01*
X018280Y001400D01*
X018030Y001650D01*
X017780Y001400D01*
X017280Y001400D01*
X017030Y001650D01*
X016780Y001400D01*
X016280Y001400D01*
X016030Y001650D01*
X015780Y001400D01*
X015280Y001400D01*
X015030Y001650D01*
X015030Y002150D01*
X016030Y002150D02*
X016030Y001650D01*
X017030Y001650D02*
X017030Y002150D01*
X018030Y002150D02*
X018030Y001650D01*
X019030Y001650D02*
X019030Y002150D01*
X020030Y002150D02*
X020030Y001650D01*
M02*
