G75*
%MOIN*%
%OFA0B0*%
%FSLAX25Y25*%
%IPPOS*%
%LPD*%
%AMOC8*
5,1,8,0,0,1.08239X$1,22.5*
%
%ADD10C,0.10950*%
%ADD11C,0.06000*%
%ADD12C,0.02800*%
%ADD13C,0.00700*%
%ADD14C,0.03962*%
D10*
X0168400Y0036300D03*
X0168400Y0136300D03*
D11*
X0155300Y0019500D03*
X0165300Y0018500D03*
X0175300Y0019500D03*
X0185300Y0018500D03*
X0195300Y0019500D03*
X0205300Y0018500D03*
D12*
X0033900Y0038500D03*
X0063900Y0039000D03*
X0079100Y0039000D03*
X0119000Y0038300D03*
X0088700Y0038900D03*
X0119200Y0120700D03*
X0244600Y0093100D03*
X0074300Y0121900D03*
X0182300Y0094000D03*
X0201600Y0093900D03*
X0260000Y0115300D03*
X0219400Y0118500D03*
X0231800Y0118500D03*
X0259800Y0039600D03*
X0256900Y0042400D03*
X0262700Y0042300D03*
X0257000Y0036700D03*
X0262700Y0036800D03*
X0266000Y0110100D03*
X0220400Y0146400D03*
X0260300Y0146800D03*
X0292900Y0146800D03*
X0182400Y0150800D03*
X0194400Y0079100D03*
X0291800Y0064000D03*
X0221600Y0025400D03*
X0221500Y0011000D03*
X0264400Y0013000D03*
X0146100Y0009900D03*
X0297600Y0015300D03*
X0215400Y0038200D03*
X0169500Y0072400D03*
X0189800Y0045100D03*
X0284700Y0031400D03*
X0051900Y0140200D03*
X0051900Y0120600D03*
X0230800Y0081400D03*
X0235900Y0068700D03*
X0275800Y0043800D03*
X0177400Y0107700D03*
X0295600Y0053100D03*
X0289000Y0053100D03*
X0130300Y0090200D03*
X0099200Y0090200D03*
X0079900Y0157200D03*
X0126000Y0156759D03*
X0102500Y0156759D03*
X0079300Y0163400D03*
X0095800Y0163400D03*
X0114800Y0163300D03*
X0196600Y0090100D03*
X0190100Y0107900D03*
X0189900Y0050100D03*
X0265300Y0025400D03*
X0243100Y0011100D03*
X0179500Y0088000D03*
X0079500Y0018900D03*
X0119200Y0018700D03*
X0109200Y0019600D03*
X0104300Y0019600D03*
X0099200Y0019600D03*
X0054500Y0018700D03*
X0084200Y0037800D03*
X0139800Y0010400D03*
X0275200Y0121800D03*
X0051800Y0167000D03*
X0181200Y0061100D03*
X0157000Y0108600D03*
X0233600Y0046300D03*
X0186179Y0065921D03*
X0217100Y0050600D03*
X0235100Y0078300D03*
X0250100Y0051000D03*
X0203700Y0160200D03*
X0281900Y0034800D03*
X0205100Y0155500D03*
X0279000Y0031200D03*
X0254800Y0027400D03*
X0198000Y0081200D03*
X0222100Y0073200D03*
X0272900Y0038616D03*
X0243500Y0056600D03*
X0173600Y0060000D03*
D13*
X0304047Y0004373D02*
X0303750Y0004350D01*
X0006250Y0004350D01*
X0005953Y0004373D01*
X0005387Y0004557D01*
X0005387Y0004557D01*
X0004906Y0004906D01*
X0004557Y0005387D01*
X0004373Y0005953D01*
X0004350Y0006250D01*
X0004350Y0055000D01*
X0050000Y0055000D01*
X0050000Y0165194D01*
X0050356Y0164838D01*
X0051293Y0164450D01*
X0052307Y0164450D01*
X0053244Y0164838D01*
X0053962Y0165556D01*
X0054350Y0166493D01*
X0054350Y0167507D01*
X0053962Y0168444D01*
X0053244Y0169162D01*
X0052790Y0169350D01*
X0303750Y0169350D01*
X0304047Y0169327D01*
X0304613Y0169143D01*
X0305094Y0168794D01*
X0305443Y0168313D01*
X0305627Y0167747D01*
X0305650Y0167450D01*
X0305650Y0006250D01*
X0305627Y0005953D01*
X0305443Y0005387D01*
X0305094Y0004906D01*
X0304613Y0004557D01*
X0304047Y0004373D01*
X0176150Y0059493D02*
X0176150Y0060507D01*
X0175762Y0061444D01*
X0175044Y0062162D01*
X0174107Y0062550D01*
X0173093Y0062550D01*
X0172156Y0062162D01*
X0171438Y0061444D01*
X0171050Y0060507D01*
X0171050Y0059493D01*
X0171438Y0058556D01*
X0172156Y0057838D01*
X0173093Y0057450D01*
X0174107Y0057450D01*
X0175044Y0057838D01*
X0175762Y0058556D01*
X0176150Y0059493D01*
X0246050Y0056093D02*
X0246050Y0057107D01*
X0245662Y0058044D01*
X0244944Y0058762D01*
X0244007Y0059150D01*
X0242993Y0059150D01*
X0242056Y0058762D01*
X0241338Y0058044D01*
X0240950Y0057107D01*
X0240950Y0056093D01*
X0241338Y0055156D01*
X0242056Y0054438D01*
X0242993Y0054050D01*
X0244007Y0054050D01*
X0244944Y0054438D01*
X0245662Y0055156D01*
X0246050Y0056093D01*
X0277750Y0121293D02*
X0277750Y0122307D01*
X0277362Y0123244D01*
X0276644Y0123962D01*
X0275707Y0124350D01*
X0274693Y0124350D01*
X0273756Y0123962D01*
X0273038Y0123244D01*
X0272650Y0122307D01*
X0272650Y0121293D01*
X0273038Y0120356D01*
X0273756Y0119638D01*
X0274693Y0119250D01*
X0275707Y0119250D01*
X0276644Y0119638D01*
X0277362Y0120356D01*
X0277750Y0121293D01*
X0142350Y0009893D02*
X0142350Y0010907D01*
X0141962Y0011844D01*
X0141244Y0012562D01*
X0140307Y0012950D01*
X0139293Y0012950D01*
X0138356Y0012562D01*
X0137638Y0011844D01*
X0137250Y0010907D01*
X0137250Y0009893D01*
X0137638Y0008956D01*
X0138356Y0008238D01*
X0139293Y0007850D01*
X0140307Y0007850D01*
X0141244Y0008238D01*
X0141962Y0008956D01*
X0142350Y0009893D01*
X0086750Y0037293D02*
X0086750Y0038307D01*
X0086362Y0039244D01*
X0085644Y0039962D01*
X0084707Y0040350D01*
X0083693Y0040350D01*
X0082756Y0039962D01*
X0082038Y0039244D01*
X0081650Y0038307D01*
X0081650Y0037293D01*
X0082038Y0036356D01*
X0082756Y0035638D01*
X0083693Y0035250D01*
X0084707Y0035250D01*
X0085644Y0035638D01*
X0086362Y0036356D01*
X0086750Y0037293D01*
X0057050Y0018193D02*
X0057050Y0019207D01*
X0056662Y0020144D01*
X0055944Y0020862D01*
X0055007Y0021250D01*
X0053993Y0021250D01*
X0053056Y0020862D01*
X0052338Y0020144D01*
X0051950Y0019207D01*
X0051950Y0018193D01*
X0052338Y0017256D01*
X0053056Y0016538D01*
X0053993Y0016150D01*
X0055007Y0016150D01*
X0055944Y0016538D01*
X0056662Y0017256D01*
X0057050Y0018193D01*
X0101750Y0019093D02*
X0101750Y0020107D01*
X0101362Y0021044D01*
X0100644Y0021762D01*
X0099707Y0022150D01*
X0098693Y0022150D01*
X0097756Y0021762D01*
X0097038Y0021044D01*
X0096650Y0020107D01*
X0096650Y0019093D01*
X0097038Y0018156D01*
X0097756Y0017438D01*
X0098693Y0017050D01*
X0099707Y0017050D01*
X0100644Y0017438D01*
X0101362Y0018156D01*
X0101750Y0019093D01*
X0175650Y0023849D02*
X0175650Y0019850D01*
X0174950Y0019850D01*
X0174950Y0023849D01*
X0174281Y0023743D01*
X0173630Y0023531D01*
X0173020Y0023220D01*
X0172466Y0022818D01*
X0171982Y0022334D01*
X0171580Y0021780D01*
X0171269Y0021170D01*
X0171057Y0020519D01*
X0170951Y0019850D01*
X0174950Y0019850D01*
X0174950Y0019150D01*
X0170951Y0019150D01*
X0171057Y0018481D01*
X0171269Y0017830D01*
X0171580Y0017220D01*
X0171982Y0016666D01*
X0172466Y0016182D01*
X0173020Y0015780D01*
X0173630Y0015469D01*
X0174281Y0015257D01*
X0174950Y0015151D01*
X0174950Y0019150D01*
X0175650Y0019150D01*
X0175650Y0015151D01*
X0176319Y0015257D01*
X0176970Y0015469D01*
X0177580Y0015780D01*
X0178134Y0016182D01*
X0178618Y0016666D01*
X0179020Y0017220D01*
X0179331Y0017830D01*
X0179543Y0018481D01*
X0179649Y0019150D01*
X0175650Y0019150D01*
X0175650Y0019850D01*
X0179649Y0019850D01*
X0179543Y0020519D01*
X0179331Y0021170D01*
X0179020Y0021780D01*
X0178618Y0022334D01*
X0178134Y0022818D01*
X0177580Y0023220D01*
X0176970Y0023531D01*
X0176319Y0023743D01*
X0175650Y0023849D01*
X0169350Y0017694D02*
X0169350Y0019306D01*
X0168733Y0020794D01*
X0167594Y0021933D01*
X0166106Y0022550D01*
X0164494Y0022550D01*
X0163006Y0021933D01*
X0161867Y0020794D01*
X0161250Y0019306D01*
X0161250Y0017694D01*
X0161867Y0016206D01*
X0163006Y0015067D01*
X0164494Y0014450D01*
X0166106Y0014450D01*
X0167594Y0015067D01*
X0168733Y0016206D01*
X0169350Y0017694D01*
X0159350Y0018694D02*
X0159350Y0020306D01*
X0158733Y0021794D01*
X0157594Y0022933D01*
X0156106Y0023550D01*
X0154494Y0023550D01*
X0153006Y0022933D01*
X0151867Y0021794D01*
X0151250Y0020306D01*
X0151250Y0018694D01*
X0151867Y0017206D01*
X0153006Y0016067D01*
X0154494Y0015450D01*
X0156106Y0015450D01*
X0157594Y0016067D01*
X0158733Y0017206D01*
X0159350Y0018694D01*
X0174925Y0135002D02*
X0174925Y0137598D01*
X0173932Y0139996D01*
X0172096Y0141832D01*
X0169698Y0142825D01*
X0167102Y0142825D01*
X0164704Y0141832D01*
X0162868Y0139996D01*
X0161875Y0137598D01*
X0161875Y0135002D01*
X0162868Y0132604D01*
X0164704Y0130768D01*
X0167102Y0129775D01*
X0169698Y0129775D01*
X0172096Y0130768D01*
X0173932Y0132604D01*
X0174925Y0135002D01*
X0174925Y0035002D02*
X0174925Y0037598D01*
X0173932Y0039996D01*
X0172096Y0041832D01*
X0169698Y0042825D01*
X0167102Y0042825D01*
X0164704Y0041832D01*
X0162868Y0039996D01*
X0161875Y0037598D01*
X0161875Y0035002D01*
X0162868Y0032604D01*
X0164704Y0030768D01*
X0167102Y0029775D01*
X0169698Y0029775D01*
X0172096Y0030768D01*
X0173932Y0032604D01*
X0174925Y0035002D01*
X0035649Y0023598D02*
X0035649Y0026402D01*
X0034923Y0029110D01*
X0033521Y0031539D01*
X0031539Y0033521D01*
X0029110Y0034923D01*
X0026402Y0035649D01*
X0023598Y0035649D01*
X0020890Y0034923D01*
X0018461Y0033521D01*
X0016479Y0031539D01*
X0015077Y0029110D01*
X0014351Y0026402D01*
X0014351Y0023598D01*
X0015077Y0020890D01*
X0016479Y0018461D01*
X0018461Y0016479D01*
X0020890Y0015077D01*
X0023598Y0014351D01*
X0026402Y0014351D01*
X0029110Y0015077D01*
X0031539Y0016479D01*
X0033521Y0018461D01*
X0034923Y0020890D01*
X0035649Y0023598D01*
X0189350Y0017694D02*
X0189350Y0019306D01*
X0188733Y0020794D01*
X0187594Y0021933D01*
X0186106Y0022550D01*
X0184494Y0022550D01*
X0183006Y0021933D01*
X0181867Y0020794D01*
X0181250Y0019306D01*
X0181250Y0017694D01*
X0181867Y0016206D01*
X0183006Y0015067D01*
X0184494Y0014450D01*
X0186106Y0014450D01*
X0187594Y0015067D01*
X0188733Y0016206D01*
X0189350Y0017694D01*
X0199350Y0018694D02*
X0199350Y0020306D01*
X0198733Y0021794D01*
X0197594Y0022933D01*
X0196106Y0023550D01*
X0194494Y0023550D01*
X0193006Y0022933D01*
X0191867Y0021794D01*
X0191250Y0020306D01*
X0191250Y0018694D01*
X0191867Y0017206D01*
X0193006Y0016067D01*
X0194494Y0015450D01*
X0196106Y0015450D01*
X0197594Y0016067D01*
X0198733Y0017206D01*
X0199350Y0018694D01*
X0209350Y0017694D02*
X0209350Y0019306D01*
X0208733Y0020794D01*
X0207594Y0021933D01*
X0206106Y0022550D01*
X0204494Y0022550D01*
X0203006Y0021933D01*
X0201867Y0020794D01*
X0201250Y0019306D01*
X0201250Y0017694D01*
X0201867Y0016206D01*
X0203006Y0015067D01*
X0204494Y0014450D01*
X0206106Y0014450D01*
X0207594Y0015067D01*
X0208733Y0016206D01*
X0209350Y0017694D01*
X0299022Y0122682D02*
X0299022Y0125118D01*
X0298090Y0127368D01*
X0296368Y0129090D01*
X0294118Y0130022D01*
X0291682Y0130022D01*
X0289432Y0129090D01*
X0287710Y0127368D01*
X0286778Y0125118D01*
X0286778Y0122682D01*
X0287710Y0120432D01*
X0289432Y0118710D01*
X0291682Y0117778D01*
X0294118Y0117778D01*
X0296368Y0118710D01*
X0298090Y0120432D01*
X0299022Y0122682D01*
X0272422Y0122682D02*
X0272422Y0125118D01*
X0271490Y0127368D01*
X0269768Y0129090D01*
X0267518Y0130022D01*
X0265082Y0130022D01*
X0262832Y0129090D01*
X0261110Y0127368D01*
X0260178Y0125118D01*
X0260178Y0122682D01*
X0261110Y0120432D01*
X0262832Y0118710D01*
X0265082Y0117778D01*
X0267518Y0117778D01*
X0269768Y0118710D01*
X0271490Y0120432D01*
X0272422Y0122682D01*
X0278350Y0043293D02*
X0278350Y0044307D01*
X0277962Y0045244D01*
X0277244Y0045962D01*
X0276307Y0046350D01*
X0275293Y0046350D01*
X0274356Y0045962D01*
X0273638Y0045244D01*
X0273250Y0044307D01*
X0273250Y0043293D01*
X0273638Y0042356D01*
X0274356Y0041638D01*
X0275293Y0041250D01*
X0276307Y0041250D01*
X0277244Y0041638D01*
X0277962Y0042356D01*
X0278350Y0043293D01*
X0179950Y0107193D02*
X0179950Y0108207D01*
X0179562Y0109144D01*
X0178844Y0109862D01*
X0177907Y0110250D01*
X0176893Y0110250D01*
X0175956Y0109862D01*
X0175238Y0109144D01*
X0174850Y0108207D01*
X0174850Y0107193D01*
X0175238Y0106256D01*
X0175956Y0105538D01*
X0176893Y0105150D01*
X0177907Y0105150D01*
X0178844Y0105538D01*
X0179562Y0106256D01*
X0179950Y0107193D01*
X0298150Y0052593D02*
X0298150Y0053607D01*
X0297762Y0054544D01*
X0297044Y0055262D01*
X0296107Y0055650D01*
X0295093Y0055650D01*
X0294156Y0055262D01*
X0293438Y0054544D01*
X0293050Y0053607D01*
X0293050Y0052593D01*
X0293438Y0051656D01*
X0294156Y0050938D01*
X0295093Y0050550D01*
X0296107Y0050550D01*
X0297044Y0050938D01*
X0297762Y0051656D01*
X0298150Y0052593D01*
X0291550Y0052593D02*
X0291550Y0053607D01*
X0291162Y0054544D01*
X0290444Y0055262D01*
X0289507Y0055650D01*
X0288493Y0055650D01*
X0287556Y0055262D01*
X0286838Y0054544D01*
X0286450Y0053607D01*
X0286450Y0052593D01*
X0286838Y0051656D01*
X0287556Y0050938D01*
X0288493Y0050550D01*
X0289507Y0050550D01*
X0290444Y0050938D01*
X0291162Y0051656D01*
X0291550Y0052593D01*
X0132850Y0089693D02*
X0132850Y0090707D01*
X0132462Y0091644D01*
X0131744Y0092362D01*
X0130807Y0092750D01*
X0129793Y0092750D01*
X0128856Y0092362D01*
X0128138Y0091644D01*
X0127750Y0090707D01*
X0127750Y0089693D01*
X0128138Y0088756D01*
X0128856Y0088038D01*
X0129793Y0087650D01*
X0130807Y0087650D01*
X0131744Y0088038D01*
X0132462Y0088756D01*
X0132850Y0089693D01*
X0101750Y0089693D02*
X0101750Y0090707D01*
X0101362Y0091644D01*
X0100644Y0092362D01*
X0099707Y0092750D01*
X0098693Y0092750D01*
X0097756Y0092362D01*
X0097038Y0091644D01*
X0096650Y0090707D01*
X0096650Y0089693D01*
X0097038Y0088756D01*
X0097756Y0088038D01*
X0098693Y0087650D01*
X0099707Y0087650D01*
X0100644Y0088038D01*
X0101362Y0088756D01*
X0101750Y0089693D01*
X0082450Y0156693D02*
X0082450Y0157707D01*
X0082062Y0158644D01*
X0081344Y0159362D01*
X0080407Y0159750D01*
X0079393Y0159750D01*
X0078456Y0159362D01*
X0077738Y0158644D01*
X0077350Y0157707D01*
X0077350Y0156693D01*
X0077738Y0155756D01*
X0078456Y0155038D01*
X0079393Y0154650D01*
X0080407Y0154650D01*
X0081344Y0155038D01*
X0082062Y0155756D01*
X0082450Y0156693D01*
X0128550Y0156252D02*
X0128550Y0157266D01*
X0128162Y0158204D01*
X0127444Y0158921D01*
X0126507Y0159309D01*
X0125493Y0159309D01*
X0124556Y0158921D01*
X0123838Y0158204D01*
X0123450Y0157266D01*
X0123450Y0156252D01*
X0123838Y0155315D01*
X0124556Y0154597D01*
X0125493Y0154209D01*
X0126507Y0154209D01*
X0127444Y0154597D01*
X0128162Y0155315D01*
X0128550Y0156252D01*
X0105050Y0156252D02*
X0105050Y0157266D01*
X0104662Y0158204D01*
X0103944Y0158921D01*
X0103007Y0159309D01*
X0101993Y0159309D01*
X0101056Y0158921D01*
X0100338Y0158204D01*
X0099950Y0157266D01*
X0099950Y0156252D01*
X0100338Y0155315D01*
X0101056Y0154597D01*
X0101993Y0154209D01*
X0103007Y0154209D01*
X0103944Y0154597D01*
X0104662Y0155315D01*
X0105050Y0156252D01*
X0081850Y0162893D02*
X0081850Y0163907D01*
X0081462Y0164844D01*
X0080744Y0165562D01*
X0079807Y0165950D01*
X0078793Y0165950D01*
X0077856Y0165562D01*
X0077138Y0164844D01*
X0076750Y0163907D01*
X0076750Y0162893D01*
X0077138Y0161956D01*
X0077856Y0161238D01*
X0078793Y0160850D01*
X0079807Y0160850D01*
X0080744Y0161238D01*
X0081462Y0161956D01*
X0081850Y0162893D01*
X0098350Y0162893D02*
X0098350Y0163907D01*
X0097962Y0164844D01*
X0097244Y0165562D01*
X0096307Y0165950D01*
X0095293Y0165950D01*
X0094356Y0165562D01*
X0093638Y0164844D01*
X0093250Y0163907D01*
X0093250Y0162893D01*
X0093638Y0161956D01*
X0094356Y0161238D01*
X0095293Y0160850D01*
X0096307Y0160850D01*
X0097244Y0161238D01*
X0097962Y0161956D01*
X0098350Y0162893D01*
X0117350Y0162793D02*
X0117350Y0163807D01*
X0116962Y0164744D01*
X0116244Y0165462D01*
X0115307Y0165850D01*
X0114293Y0165850D01*
X0113356Y0165462D01*
X0112638Y0164744D01*
X0112250Y0163807D01*
X0112250Y0162793D01*
X0112638Y0161856D01*
X0113356Y0161138D01*
X0114293Y0160750D01*
X0115307Y0160750D01*
X0116244Y0161138D01*
X0116962Y0161856D01*
X0117350Y0162793D01*
X0199150Y0089593D02*
X0199150Y0090607D01*
X0198762Y0091544D01*
X0198044Y0092262D01*
X0197107Y0092650D01*
X0196093Y0092650D01*
X0195156Y0092262D01*
X0194438Y0091544D01*
X0194050Y0090607D01*
X0194050Y0089593D01*
X0194438Y0088656D01*
X0195156Y0087938D01*
X0196093Y0087550D01*
X0197107Y0087550D01*
X0198044Y0087938D01*
X0198762Y0088656D01*
X0199150Y0089593D01*
X0192650Y0107393D02*
X0192650Y0108407D01*
X0192262Y0109344D01*
X0191544Y0110062D01*
X0190607Y0110450D01*
X0189593Y0110450D01*
X0188656Y0110062D01*
X0187938Y0109344D01*
X0187550Y0108407D01*
X0187550Y0107393D01*
X0187938Y0106456D01*
X0188656Y0105738D01*
X0189593Y0105350D01*
X0190607Y0105350D01*
X0191544Y0105738D01*
X0192262Y0106456D01*
X0192650Y0107393D01*
X0192450Y0049593D02*
X0192450Y0050607D01*
X0192062Y0051544D01*
X0191344Y0052262D01*
X0190407Y0052650D01*
X0189393Y0052650D01*
X0188456Y0052262D01*
X0187738Y0051544D01*
X0187350Y0050607D01*
X0187350Y0049593D01*
X0187738Y0048656D01*
X0188456Y0047938D01*
X0189393Y0047550D01*
X0190407Y0047550D01*
X0191344Y0047938D01*
X0192062Y0048656D01*
X0192450Y0049593D01*
X0267850Y0024893D02*
X0267850Y0025907D01*
X0267462Y0026844D01*
X0266744Y0027562D01*
X0265807Y0027950D01*
X0264793Y0027950D01*
X0263856Y0027562D01*
X0263138Y0026844D01*
X0262750Y0025907D01*
X0262750Y0024893D01*
X0263138Y0023956D01*
X0263856Y0023238D01*
X0264793Y0022850D01*
X0265807Y0022850D01*
X0266744Y0023238D01*
X0267462Y0023956D01*
X0267850Y0024893D01*
X0245650Y0010593D02*
X0245650Y0011607D01*
X0245262Y0012544D01*
X0244544Y0013262D01*
X0243607Y0013650D01*
X0242593Y0013650D01*
X0241656Y0013262D01*
X0240938Y0012544D01*
X0240550Y0011607D01*
X0240550Y0010593D01*
X0240938Y0009656D01*
X0241656Y0008938D01*
X0242593Y0008550D01*
X0243607Y0008550D01*
X0244544Y0008938D01*
X0245262Y0009656D01*
X0245650Y0010593D01*
X0182050Y0087493D02*
X0182050Y0088507D01*
X0181662Y0089444D01*
X0180944Y0090162D01*
X0180007Y0090550D01*
X0178993Y0090550D01*
X0178056Y0090162D01*
X0177338Y0089444D01*
X0176950Y0088507D01*
X0176950Y0087493D01*
X0177338Y0086556D01*
X0178056Y0085838D01*
X0178993Y0085450D01*
X0180007Y0085450D01*
X0180944Y0085838D01*
X0181662Y0086556D01*
X0182050Y0087493D01*
X0082050Y0018393D02*
X0082050Y0019407D01*
X0081662Y0020344D01*
X0080944Y0021062D01*
X0080007Y0021450D01*
X0078993Y0021450D01*
X0078056Y0021062D01*
X0077338Y0020344D01*
X0076950Y0019407D01*
X0076950Y0018393D01*
X0077338Y0017456D01*
X0078056Y0016738D01*
X0078993Y0016350D01*
X0080007Y0016350D01*
X0080944Y0016738D01*
X0081662Y0017456D01*
X0082050Y0018393D01*
X0121750Y0018193D02*
X0121750Y0019207D01*
X0121362Y0020144D01*
X0120644Y0020862D01*
X0119707Y0021250D01*
X0118693Y0021250D01*
X0117756Y0020862D01*
X0117038Y0020144D01*
X0116650Y0019207D01*
X0116650Y0018193D01*
X0117038Y0017256D01*
X0117756Y0016538D01*
X0118693Y0016150D01*
X0119707Y0016150D01*
X0120644Y0016538D01*
X0121362Y0017256D01*
X0121750Y0018193D01*
X0111750Y0019093D02*
X0111750Y0020107D01*
X0111362Y0021044D01*
X0110644Y0021762D01*
X0109707Y0022150D01*
X0108693Y0022150D01*
X0107756Y0021762D01*
X0107038Y0021044D01*
X0106750Y0020349D01*
X0106462Y0021044D01*
X0105744Y0021762D01*
X0104807Y0022150D01*
X0103793Y0022150D01*
X0102856Y0021762D01*
X0102138Y0021044D01*
X0101750Y0020107D01*
X0101750Y0019093D01*
X0102138Y0018156D01*
X0102856Y0017438D01*
X0103793Y0017050D01*
X0104807Y0017050D01*
X0105744Y0017438D01*
X0106462Y0018156D01*
X0106750Y0018851D01*
X0107038Y0018156D01*
X0107756Y0017438D01*
X0108693Y0017050D01*
X0109707Y0017050D01*
X0110644Y0017438D01*
X0111362Y0018156D01*
X0111750Y0019093D01*
X0183750Y0060593D02*
X0183750Y0061607D01*
X0183362Y0062544D01*
X0182644Y0063262D01*
X0181707Y0063650D01*
X0180693Y0063650D01*
X0179756Y0063262D01*
X0179038Y0062544D01*
X0178650Y0061607D01*
X0178650Y0060593D01*
X0179038Y0059656D01*
X0179756Y0058938D01*
X0180693Y0058550D01*
X0181707Y0058550D01*
X0182644Y0058938D01*
X0183362Y0059656D01*
X0183750Y0060593D01*
X0159550Y0108093D02*
X0159550Y0109107D01*
X0159162Y0110044D01*
X0158444Y0110762D01*
X0157507Y0111150D01*
X0156493Y0111150D01*
X0155556Y0110762D01*
X0154838Y0110044D01*
X0154450Y0109107D01*
X0154450Y0108093D01*
X0154838Y0107156D01*
X0155556Y0106438D01*
X0156493Y0106050D01*
X0157507Y0106050D01*
X0158444Y0106438D01*
X0159162Y0107156D01*
X0159550Y0108093D01*
X0150631Y0084377D02*
X0150631Y0085623D01*
X0150154Y0086774D01*
X0149428Y0087500D01*
X0150154Y0088226D01*
X0150631Y0089377D01*
X0150631Y0090623D01*
X0150154Y0091774D01*
X0149274Y0092654D01*
X0148123Y0093131D01*
X0146877Y0093131D01*
X0145726Y0092654D01*
X0144846Y0091774D01*
X0144369Y0090623D01*
X0144369Y0089377D01*
X0144846Y0088226D01*
X0145572Y0087500D01*
X0144846Y0086774D01*
X0144369Y0085623D01*
X0144369Y0084377D01*
X0144846Y0083226D01*
X0145726Y0082346D01*
X0146877Y0081869D01*
X0148123Y0081869D01*
X0149274Y0082346D01*
X0150154Y0083226D01*
X0150631Y0084377D01*
X0150631Y0069377D02*
X0150631Y0070623D01*
X0150154Y0071774D01*
X0149428Y0072500D01*
X0150154Y0073226D01*
X0150631Y0074377D01*
X0150631Y0075623D01*
X0150154Y0076774D01*
X0149274Y0077654D01*
X0148123Y0078131D01*
X0146877Y0078131D01*
X0145726Y0077654D01*
X0144846Y0076774D01*
X0144369Y0075623D01*
X0144369Y0074377D01*
X0144846Y0073226D01*
X0145572Y0072500D01*
X0144846Y0071774D01*
X0144369Y0070623D01*
X0144369Y0069377D01*
X0144846Y0068226D01*
X0145726Y0067346D01*
X0146877Y0066869D01*
X0148123Y0066869D01*
X0149274Y0067346D01*
X0150154Y0068226D01*
X0150631Y0069377D01*
X0150631Y0054377D02*
X0150631Y0055623D01*
X0150154Y0056774D01*
X0149428Y0057500D01*
X0150154Y0058226D01*
X0150631Y0059377D01*
X0150631Y0060623D01*
X0150154Y0061774D01*
X0149274Y0062654D01*
X0148123Y0063131D01*
X0146877Y0063131D01*
X0145726Y0062654D01*
X0144846Y0061774D01*
X0144369Y0060623D01*
X0144369Y0059377D01*
X0144846Y0058226D01*
X0145572Y0057500D01*
X0144846Y0056774D01*
X0144369Y0055623D01*
X0144369Y0054377D01*
X0144846Y0053226D01*
X0145726Y0052346D01*
X0146877Y0051869D01*
X0148123Y0051869D01*
X0149274Y0052346D01*
X0150154Y0053226D01*
X0150631Y0054377D01*
X0150631Y0039377D02*
X0150631Y0040623D01*
X0150154Y0041774D01*
X0149428Y0042500D01*
X0150154Y0043226D01*
X0150631Y0044377D01*
X0150631Y0045623D01*
X0150154Y0046774D01*
X0149274Y0047654D01*
X0148123Y0048131D01*
X0146877Y0048131D01*
X0145726Y0047654D01*
X0144846Y0046774D01*
X0144369Y0045623D01*
X0144369Y0044377D01*
X0144846Y0043226D01*
X0145572Y0042500D01*
X0144846Y0041774D01*
X0144369Y0040623D01*
X0144369Y0039377D01*
X0144846Y0038226D01*
X0145726Y0037346D01*
X0146877Y0036869D01*
X0148123Y0036869D01*
X0149274Y0037346D01*
X0150154Y0038226D01*
X0150631Y0039377D01*
X0236150Y0045793D02*
X0236150Y0046807D01*
X0235762Y0047744D01*
X0235044Y0048462D01*
X0234107Y0048850D01*
X0233093Y0048850D01*
X0232156Y0048462D01*
X0231438Y0047744D01*
X0231050Y0046807D01*
X0231050Y0045793D01*
X0231438Y0044856D01*
X0232156Y0044138D01*
X0233093Y0043750D01*
X0234107Y0043750D01*
X0235044Y0044138D01*
X0235762Y0044856D01*
X0236150Y0045793D01*
X0188729Y0065414D02*
X0188729Y0066428D01*
X0188341Y0067366D01*
X0187623Y0068083D01*
X0186686Y0068471D01*
X0185672Y0068471D01*
X0184734Y0068083D01*
X0184017Y0067366D01*
X0183629Y0066428D01*
X0183629Y0065414D01*
X0184017Y0064477D01*
X0184734Y0063759D01*
X0185672Y0063371D01*
X0186686Y0063371D01*
X0187623Y0063759D01*
X0188341Y0064477D01*
X0188729Y0065414D01*
X0219650Y0050093D02*
X0219650Y0051107D01*
X0219262Y0052044D01*
X0218544Y0052762D01*
X0217607Y0053150D01*
X0216593Y0053150D01*
X0215656Y0052762D01*
X0214938Y0052044D01*
X0214550Y0051107D01*
X0214550Y0050093D01*
X0214938Y0049156D01*
X0215656Y0048438D01*
X0216593Y0048050D01*
X0217607Y0048050D01*
X0218544Y0048438D01*
X0219262Y0049156D01*
X0219650Y0050093D01*
X0237650Y0077793D02*
X0237650Y0078807D01*
X0237262Y0079744D01*
X0236544Y0080462D01*
X0235607Y0080850D01*
X0234593Y0080850D01*
X0233656Y0080462D01*
X0232938Y0079744D01*
X0232550Y0078807D01*
X0232550Y0077793D01*
X0232938Y0076856D01*
X0233656Y0076138D01*
X0234593Y0075750D01*
X0235607Y0075750D01*
X0236544Y0076138D01*
X0237262Y0076856D01*
X0237650Y0077793D01*
X0252650Y0050493D02*
X0252650Y0051507D01*
X0252262Y0052444D01*
X0251544Y0053162D01*
X0250607Y0053550D01*
X0249593Y0053550D01*
X0248656Y0053162D01*
X0247938Y0052444D01*
X0247550Y0051507D01*
X0247550Y0050493D01*
X0247938Y0049556D01*
X0248656Y0048838D01*
X0249593Y0048450D01*
X0250607Y0048450D01*
X0251544Y0048838D01*
X0252262Y0049556D01*
X0252650Y0050493D01*
X0206250Y0159693D02*
X0206250Y0160707D01*
X0205862Y0161644D01*
X0205144Y0162362D01*
X0204207Y0162750D01*
X0203193Y0162750D01*
X0202256Y0162362D01*
X0201538Y0161644D01*
X0201150Y0160707D01*
X0201150Y0159693D01*
X0201538Y0158756D01*
X0202256Y0158038D01*
X0203193Y0157650D01*
X0203644Y0157650D01*
X0202938Y0156944D01*
X0202550Y0156007D01*
X0202550Y0154993D01*
X0202938Y0154056D01*
X0203656Y0153338D01*
X0204593Y0152950D01*
X0205607Y0152950D01*
X0206544Y0153338D01*
X0207262Y0154056D01*
X0207650Y0154993D01*
X0207650Y0156007D01*
X0207262Y0156944D01*
X0206544Y0157662D01*
X0205607Y0158050D01*
X0205156Y0158050D01*
X0205862Y0158756D01*
X0206250Y0159693D01*
X0284450Y0034293D02*
X0284450Y0035307D01*
X0284062Y0036244D01*
X0283344Y0036962D01*
X0282407Y0037350D01*
X0281393Y0037350D01*
X0280456Y0036962D01*
X0279738Y0036244D01*
X0279350Y0035307D01*
X0279350Y0034293D01*
X0279589Y0033716D01*
X0279507Y0033750D01*
X0278493Y0033750D01*
X0277556Y0033362D01*
X0276838Y0032644D01*
X0276450Y0031707D01*
X0276450Y0030693D01*
X0276838Y0029756D01*
X0277556Y0029038D01*
X0278493Y0028650D01*
X0279507Y0028650D01*
X0280444Y0029038D01*
X0281162Y0029756D01*
X0281550Y0030693D01*
X0281550Y0031707D01*
X0281311Y0032284D01*
X0281393Y0032250D01*
X0282407Y0032250D01*
X0283344Y0032638D01*
X0284062Y0033356D01*
X0284450Y0034293D01*
X0257350Y0026893D02*
X0257350Y0027907D01*
X0256962Y0028844D01*
X0256244Y0029562D01*
X0255307Y0029950D01*
X0254293Y0029950D01*
X0253356Y0029562D01*
X0252638Y0028844D01*
X0252250Y0027907D01*
X0252250Y0026893D01*
X0252638Y0025956D01*
X0253356Y0025238D01*
X0254293Y0024850D01*
X0255307Y0024850D01*
X0256244Y0025238D01*
X0256962Y0025956D01*
X0257350Y0026893D01*
X0200550Y0080693D02*
X0200550Y0081707D01*
X0200162Y0082644D01*
X0199444Y0083362D01*
X0198507Y0083750D01*
X0197493Y0083750D01*
X0196556Y0083362D01*
X0195838Y0082644D01*
X0195450Y0081707D01*
X0195450Y0080693D01*
X0195838Y0079756D01*
X0196556Y0079038D01*
X0197493Y0078650D01*
X0198507Y0078650D01*
X0199444Y0079038D01*
X0200162Y0079756D01*
X0200550Y0080693D01*
X0224650Y0072693D02*
X0224650Y0073707D01*
X0224262Y0074644D01*
X0223544Y0075362D01*
X0222607Y0075750D01*
X0221593Y0075750D01*
X0220656Y0075362D01*
X0219938Y0074644D01*
X0219550Y0073707D01*
X0219550Y0072693D01*
X0219938Y0071756D01*
X0220656Y0071038D01*
X0221593Y0070650D01*
X0222607Y0070650D01*
X0223544Y0071038D01*
X0224262Y0071756D01*
X0224650Y0072693D01*
X0275450Y0038109D02*
X0275450Y0039123D01*
X0275062Y0040060D01*
X0274344Y0040778D01*
X0273407Y0041166D01*
X0272393Y0041166D01*
X0271456Y0040778D01*
X0270738Y0040060D01*
X0270350Y0039123D01*
X0270350Y0038109D01*
X0270738Y0037171D01*
X0271456Y0036454D01*
X0272393Y0036066D01*
X0273407Y0036066D01*
X0274344Y0036454D01*
X0275062Y0037171D01*
X0275450Y0038109D01*
X0305070Y0004890D02*
X0004930Y0004890D01*
X0004492Y0005588D02*
X0305508Y0005588D01*
X0305650Y0006287D02*
X0004350Y0006287D01*
X0004350Y0006985D02*
X0305650Y0006985D01*
X0305650Y0007684D02*
X0004350Y0007684D01*
X0004350Y0008382D02*
X0138212Y0008382D01*
X0141388Y0008382D02*
X0305650Y0008382D01*
X0137586Y0009081D02*
X0004350Y0009081D01*
X0142014Y0009081D02*
X0241513Y0009081D01*
X0244687Y0009081D02*
X0305650Y0009081D01*
X0137297Y0009779D02*
X0004350Y0009779D01*
X0142303Y0009779D02*
X0240887Y0009779D01*
X0245313Y0009779D02*
X0305650Y0009779D01*
X0137250Y0010478D02*
X0004350Y0010478D01*
X0142350Y0010478D02*
X0240598Y0010478D01*
X0245602Y0010478D02*
X0305650Y0010478D01*
X0137361Y0011176D02*
X0004350Y0011176D01*
X0142239Y0011176D02*
X0240550Y0011176D01*
X0245650Y0011176D02*
X0305650Y0011176D01*
X0137668Y0011875D02*
X0004350Y0011875D01*
X0141932Y0011875D02*
X0240661Y0011875D01*
X0245539Y0011875D02*
X0305650Y0011875D01*
X0138383Y0012573D02*
X0004350Y0012573D01*
X0141217Y0012573D02*
X0240967Y0012573D01*
X0245233Y0012573D02*
X0305650Y0012573D01*
X0241680Y0013272D02*
X0004350Y0013272D01*
X0244520Y0013272D02*
X0305650Y0013272D01*
X0305650Y0013970D02*
X0004350Y0013970D01*
X0004350Y0014669D02*
X0022411Y0014669D01*
X0027589Y0014669D02*
X0163966Y0014669D01*
X0166634Y0014669D02*
X0183966Y0014669D01*
X0186634Y0014669D02*
X0203966Y0014669D01*
X0206634Y0014669D02*
X0305650Y0014669D01*
X0020386Y0015367D02*
X0004350Y0015367D01*
X0029614Y0015367D02*
X0162705Y0015367D01*
X0167895Y0015367D02*
X0173942Y0015367D01*
X0174950Y0015367D02*
X0175650Y0015367D01*
X0176658Y0015367D02*
X0182705Y0015367D01*
X0187895Y0015367D02*
X0202705Y0015367D01*
X0207895Y0015367D02*
X0305650Y0015367D01*
X0019176Y0016066D02*
X0004350Y0016066D01*
X0030824Y0016066D02*
X0153008Y0016066D01*
X0157592Y0016066D02*
X0162007Y0016066D01*
X0168593Y0016066D02*
X0172626Y0016066D01*
X0174950Y0016066D02*
X0175650Y0016066D01*
X0177974Y0016066D02*
X0182007Y0016066D01*
X0188593Y0016066D02*
X0193008Y0016066D01*
X0197592Y0016066D02*
X0202007Y0016066D01*
X0208593Y0016066D02*
X0305650Y0016066D01*
X0018175Y0016764D02*
X0004350Y0016764D01*
X0031825Y0016764D02*
X0052829Y0016764D01*
X0056171Y0016764D02*
X0078029Y0016764D01*
X0080971Y0016764D02*
X0117529Y0016764D01*
X0120871Y0016764D02*
X0152308Y0016764D01*
X0158292Y0016764D02*
X0161635Y0016764D01*
X0168965Y0016764D02*
X0171911Y0016764D01*
X0174950Y0016764D02*
X0175650Y0016764D01*
X0178689Y0016764D02*
X0181635Y0016764D01*
X0188965Y0016764D02*
X0192308Y0016764D01*
X0198292Y0016764D02*
X0201635Y0016764D01*
X0208965Y0016764D02*
X0305650Y0016764D01*
X0017477Y0017463D02*
X0004350Y0017463D01*
X0032523Y0017463D02*
X0052252Y0017463D01*
X0056748Y0017463D02*
X0077335Y0017463D01*
X0081665Y0017463D02*
X0097731Y0017463D01*
X0100669Y0017463D02*
X0102831Y0017463D01*
X0105769Y0017463D02*
X0107731Y0017463D01*
X0110669Y0017463D02*
X0116952Y0017463D01*
X0121448Y0017463D02*
X0151760Y0017463D01*
X0158840Y0017463D02*
X0161346Y0017463D01*
X0169254Y0017463D02*
X0171456Y0017463D01*
X0174950Y0017463D02*
X0175650Y0017463D01*
X0179144Y0017463D02*
X0181346Y0017463D01*
X0189254Y0017463D02*
X0191760Y0017463D01*
X0198840Y0017463D02*
X0201346Y0017463D01*
X0209254Y0017463D02*
X0305650Y0017463D01*
X0016778Y0018161D02*
X0004350Y0018161D01*
X0033222Y0018161D02*
X0051963Y0018161D01*
X0057037Y0018161D02*
X0077046Y0018161D01*
X0081954Y0018161D02*
X0097036Y0018161D01*
X0101364Y0018161D02*
X0102136Y0018161D01*
X0106464Y0018161D02*
X0107036Y0018161D01*
X0111364Y0018161D02*
X0116663Y0018161D01*
X0121737Y0018161D02*
X0151471Y0018161D01*
X0159129Y0018161D02*
X0161250Y0018161D01*
X0169350Y0018161D02*
X0171161Y0018161D01*
X0174950Y0018161D02*
X0175650Y0018161D01*
X0179439Y0018161D02*
X0181250Y0018161D01*
X0189350Y0018161D02*
X0191471Y0018161D01*
X0199129Y0018161D02*
X0201250Y0018161D01*
X0209350Y0018161D02*
X0305650Y0018161D01*
X0016248Y0018860D02*
X0004350Y0018860D01*
X0033752Y0018860D02*
X0051950Y0018860D01*
X0057050Y0018860D02*
X0076950Y0018860D01*
X0082050Y0018860D02*
X0096746Y0018860D01*
X0101653Y0018860D02*
X0101846Y0018860D01*
X0111653Y0018860D02*
X0116650Y0018860D01*
X0121750Y0018860D02*
X0151250Y0018860D01*
X0159350Y0018860D02*
X0161250Y0018860D01*
X0169350Y0018860D02*
X0170997Y0018860D01*
X0174950Y0018860D02*
X0175650Y0018860D01*
X0179603Y0018860D02*
X0181250Y0018860D01*
X0189350Y0018860D02*
X0191250Y0018860D01*
X0199350Y0018860D02*
X0201250Y0018860D01*
X0209350Y0018860D02*
X0305650Y0018860D01*
X0015845Y0019558D02*
X0004350Y0019558D01*
X0034155Y0019558D02*
X0052095Y0019558D01*
X0056905Y0019558D02*
X0077013Y0019558D01*
X0081987Y0019558D02*
X0096650Y0019558D01*
X0101750Y0019558D02*
X0101750Y0019558D01*
X0111750Y0019558D02*
X0116795Y0019558D01*
X0121605Y0019558D02*
X0151250Y0019558D01*
X0159350Y0019558D02*
X0161355Y0019558D01*
X0169245Y0019558D02*
X0174950Y0019558D01*
X0175650Y0019558D02*
X0181355Y0019558D01*
X0189245Y0019558D02*
X0191250Y0019558D01*
X0199350Y0019558D02*
X0201355Y0019558D01*
X0209245Y0019558D02*
X0305650Y0019558D01*
X0015442Y0020257D02*
X0004350Y0020257D01*
X0034558Y0020257D02*
X0052451Y0020257D01*
X0056549Y0020257D02*
X0077302Y0020257D01*
X0081698Y0020257D02*
X0096712Y0020257D01*
X0101688Y0020257D02*
X0101812Y0020257D01*
X0111688Y0020257D02*
X0117151Y0020257D01*
X0121249Y0020257D02*
X0151250Y0020257D01*
X0159350Y0020257D02*
X0161644Y0020257D01*
X0168956Y0020257D02*
X0171016Y0020257D01*
X0174950Y0020257D02*
X0175650Y0020257D01*
X0179584Y0020257D02*
X0181644Y0020257D01*
X0188956Y0020257D02*
X0191250Y0020257D01*
X0199350Y0020257D02*
X0201644Y0020257D01*
X0208956Y0020257D02*
X0305650Y0020257D01*
X0015059Y0020955D02*
X0004350Y0020955D01*
X0034941Y0020955D02*
X0053281Y0020955D01*
X0055719Y0020955D02*
X0077949Y0020955D01*
X0081051Y0020955D02*
X0097001Y0020955D01*
X0101399Y0020955D02*
X0102101Y0020955D01*
X0106499Y0020955D02*
X0107001Y0020955D01*
X0111399Y0020955D02*
X0117981Y0020955D01*
X0120419Y0020955D02*
X0151519Y0020955D01*
X0159081Y0020955D02*
X0162028Y0020955D01*
X0168572Y0020955D02*
X0171199Y0020955D01*
X0174950Y0020955D02*
X0175650Y0020955D01*
X0179401Y0020955D02*
X0182028Y0020955D01*
X0188572Y0020955D02*
X0191519Y0020955D01*
X0199081Y0020955D02*
X0202028Y0020955D01*
X0208572Y0020955D02*
X0305650Y0020955D01*
X0014872Y0021654D02*
X0004350Y0021654D01*
X0035128Y0021654D02*
X0097648Y0021654D01*
X0100752Y0021654D02*
X0102748Y0021654D01*
X0105852Y0021654D02*
X0107648Y0021654D01*
X0110752Y0021654D02*
X0151808Y0021654D01*
X0158792Y0021654D02*
X0162726Y0021654D01*
X0167874Y0021654D02*
X0171515Y0021654D01*
X0174950Y0021654D02*
X0175650Y0021654D01*
X0179085Y0021654D02*
X0182726Y0021654D01*
X0187874Y0021654D02*
X0191808Y0021654D01*
X0198792Y0021654D02*
X0202726Y0021654D01*
X0207874Y0021654D02*
X0305650Y0021654D01*
X0014685Y0022352D02*
X0004350Y0022352D01*
X0035315Y0022352D02*
X0152425Y0022352D01*
X0158175Y0022352D02*
X0164017Y0022352D01*
X0166583Y0022352D02*
X0172001Y0022352D01*
X0174950Y0022352D02*
X0175650Y0022352D01*
X0178599Y0022352D02*
X0184017Y0022352D01*
X0186583Y0022352D02*
X0192425Y0022352D01*
X0198175Y0022352D02*
X0204017Y0022352D01*
X0206583Y0022352D02*
X0305650Y0022352D01*
X0014497Y0023051D02*
X0004350Y0023051D01*
X0035503Y0023051D02*
X0153289Y0023051D01*
X0157311Y0023051D02*
X0172787Y0023051D01*
X0174950Y0023051D02*
X0175650Y0023051D01*
X0177813Y0023051D02*
X0193289Y0023051D01*
X0197311Y0023051D02*
X0264308Y0023051D01*
X0266292Y0023051D02*
X0305650Y0023051D01*
X0014351Y0023749D02*
X0004350Y0023749D01*
X0035649Y0023749D02*
X0174322Y0023749D01*
X0174950Y0023749D02*
X0175650Y0023749D01*
X0176278Y0023749D02*
X0263344Y0023749D01*
X0267256Y0023749D02*
X0305650Y0023749D01*
X0014351Y0024448D02*
X0004350Y0024448D01*
X0035649Y0024448D02*
X0262934Y0024448D01*
X0267666Y0024448D02*
X0305650Y0024448D01*
X0014351Y0025146D02*
X0004350Y0025146D01*
X0035649Y0025146D02*
X0253577Y0025146D01*
X0256023Y0025146D02*
X0262750Y0025146D01*
X0267850Y0025146D02*
X0305650Y0025146D01*
X0014351Y0025845D02*
X0004350Y0025845D01*
X0035649Y0025845D02*
X0252749Y0025845D01*
X0256851Y0025845D02*
X0262750Y0025845D01*
X0267850Y0025845D02*
X0305650Y0025845D01*
X0014389Y0026543D02*
X0004350Y0026543D01*
X0035611Y0026543D02*
X0252395Y0026543D01*
X0257205Y0026543D02*
X0263014Y0026543D01*
X0267586Y0026543D02*
X0305650Y0026543D01*
X0014576Y0027242D02*
X0004350Y0027242D01*
X0035424Y0027242D02*
X0252250Y0027242D01*
X0257350Y0027242D02*
X0263536Y0027242D01*
X0267064Y0027242D02*
X0305650Y0027242D01*
X0014763Y0027940D02*
X0004350Y0027940D01*
X0035237Y0027940D02*
X0252264Y0027940D01*
X0257336Y0027940D02*
X0264770Y0027940D01*
X0265830Y0027940D02*
X0305650Y0027940D01*
X0014950Y0028639D02*
X0004350Y0028639D01*
X0035050Y0028639D02*
X0252553Y0028639D01*
X0257047Y0028639D02*
X0305650Y0028639D01*
X0015208Y0029337D02*
X0004350Y0029337D01*
X0034792Y0029337D02*
X0253131Y0029337D01*
X0256469Y0029337D02*
X0277256Y0029337D01*
X0280744Y0029337D02*
X0305650Y0029337D01*
X0015611Y0030036D02*
X0004350Y0030036D01*
X0034389Y0030036D02*
X0166472Y0030036D01*
X0170328Y0030036D02*
X0276722Y0030036D01*
X0281278Y0030036D02*
X0305650Y0030036D01*
X0016014Y0030734D02*
X0004350Y0030734D01*
X0033986Y0030734D02*
X0164786Y0030734D01*
X0172014Y0030734D02*
X0276450Y0030734D01*
X0281550Y0030734D02*
X0305650Y0030734D01*
X0016417Y0031433D02*
X0004350Y0031433D01*
X0033583Y0031433D02*
X0164039Y0031433D01*
X0172761Y0031433D02*
X0276450Y0031433D01*
X0281550Y0031433D02*
X0305650Y0031433D01*
X0017071Y0032132D02*
X0004350Y0032132D01*
X0032929Y0032132D02*
X0163341Y0032132D01*
X0173459Y0032132D02*
X0276626Y0032132D01*
X0281374Y0032132D02*
X0305650Y0032132D01*
X0017770Y0032830D02*
X0004350Y0032830D01*
X0032230Y0032830D02*
X0162775Y0032830D01*
X0174025Y0032830D02*
X0277024Y0032830D01*
X0283536Y0032830D02*
X0305650Y0032830D01*
X0018473Y0033529D02*
X0004350Y0033529D01*
X0031527Y0033529D02*
X0162485Y0033529D01*
X0174315Y0033529D02*
X0277958Y0033529D01*
X0284133Y0033529D02*
X0305650Y0033529D01*
X0019683Y0034227D02*
X0004350Y0034227D01*
X0030317Y0034227D02*
X0162196Y0034227D01*
X0174604Y0034227D02*
X0279377Y0034227D01*
X0284423Y0034227D02*
X0305650Y0034227D01*
X0020897Y0034926D02*
X0004350Y0034926D01*
X0029103Y0034926D02*
X0161907Y0034926D01*
X0174893Y0034926D02*
X0279350Y0034926D01*
X0284450Y0034926D02*
X0305650Y0034926D01*
X0023504Y0035624D02*
X0004350Y0035624D01*
X0026496Y0035624D02*
X0082790Y0035624D01*
X0085610Y0035624D02*
X0161875Y0035624D01*
X0174925Y0035624D02*
X0279481Y0035624D01*
X0284319Y0035624D02*
X0305650Y0035624D01*
X0082071Y0036323D02*
X0004350Y0036323D01*
X0086329Y0036323D02*
X0161875Y0036323D01*
X0174925Y0036323D02*
X0271773Y0036323D01*
X0274027Y0036323D02*
X0279816Y0036323D01*
X0283984Y0036323D02*
X0305650Y0036323D01*
X0081763Y0037021D02*
X0004350Y0037021D01*
X0086637Y0037021D02*
X0146510Y0037021D01*
X0148490Y0037021D02*
X0161875Y0037021D01*
X0174925Y0037021D02*
X0270888Y0037021D01*
X0274912Y0037021D02*
X0280599Y0037021D01*
X0283201Y0037021D02*
X0305650Y0037021D01*
X0081650Y0037720D02*
X0004350Y0037720D01*
X0086750Y0037720D02*
X0145352Y0037720D01*
X0149648Y0037720D02*
X0161925Y0037720D01*
X0174875Y0037720D02*
X0270511Y0037720D01*
X0275289Y0037720D02*
X0305650Y0037720D01*
X0081696Y0038418D02*
X0004350Y0038418D01*
X0086704Y0038418D02*
X0144766Y0038418D01*
X0150234Y0038418D02*
X0162215Y0038418D01*
X0174585Y0038418D02*
X0270350Y0038418D01*
X0275450Y0038418D02*
X0305650Y0038418D01*
X0081985Y0039117D02*
X0004350Y0039117D01*
X0086415Y0039117D02*
X0144477Y0039117D01*
X0150523Y0039117D02*
X0162504Y0039117D01*
X0174296Y0039117D02*
X0270350Y0039117D01*
X0275450Y0039117D02*
X0305650Y0039117D01*
X0082609Y0039815D02*
X0004350Y0039815D01*
X0085791Y0039815D02*
X0144369Y0039815D01*
X0150631Y0039815D02*
X0162793Y0039815D01*
X0174007Y0039815D02*
X0270637Y0039815D01*
X0275163Y0039815D02*
X0305650Y0039815D01*
X0144369Y0040514D02*
X0004350Y0040514D01*
X0150631Y0040514D02*
X0163386Y0040514D01*
X0173414Y0040514D02*
X0271192Y0040514D01*
X0274608Y0040514D02*
X0305650Y0040514D01*
X0144613Y0041212D02*
X0004350Y0041212D01*
X0150387Y0041212D02*
X0164084Y0041212D01*
X0172716Y0041212D02*
X0305650Y0041212D01*
X0144983Y0041911D02*
X0004350Y0041911D01*
X0150017Y0041911D02*
X0164895Y0041911D01*
X0171905Y0041911D02*
X0274083Y0041911D01*
X0277517Y0041911D02*
X0305650Y0041911D01*
X0145463Y0042609D02*
X0004350Y0042609D01*
X0149537Y0042609D02*
X0166581Y0042609D01*
X0170219Y0042609D02*
X0273533Y0042609D01*
X0278067Y0042609D02*
X0305650Y0042609D01*
X0144812Y0043308D02*
X0004350Y0043308D01*
X0150188Y0043308D02*
X0273250Y0043308D01*
X0278350Y0043308D02*
X0305650Y0043308D01*
X0144523Y0044006D02*
X0004350Y0044006D01*
X0150477Y0044006D02*
X0232474Y0044006D01*
X0234726Y0044006D02*
X0273250Y0044006D01*
X0278350Y0044006D02*
X0305650Y0044006D01*
X0144369Y0044705D02*
X0004350Y0044705D01*
X0150631Y0044705D02*
X0231589Y0044705D01*
X0235611Y0044705D02*
X0273415Y0044705D01*
X0278185Y0044705D02*
X0305650Y0044705D01*
X0144369Y0045403D02*
X0004350Y0045403D01*
X0150631Y0045403D02*
X0231211Y0045403D01*
X0235989Y0045403D02*
X0273797Y0045403D01*
X0277803Y0045403D02*
X0305650Y0045403D01*
X0144567Y0046102D02*
X0004350Y0046102D01*
X0150433Y0046102D02*
X0231050Y0046102D01*
X0236150Y0046102D02*
X0274693Y0046102D01*
X0276907Y0046102D02*
X0305650Y0046102D01*
X0144872Y0046800D02*
X0004350Y0046800D01*
X0150128Y0046800D02*
X0231050Y0046800D01*
X0236150Y0046800D02*
X0305650Y0046800D01*
X0145571Y0047499D02*
X0004350Y0047499D01*
X0149429Y0047499D02*
X0231336Y0047499D01*
X0235864Y0047499D02*
X0305650Y0047499D01*
X0188196Y0048197D02*
X0004350Y0048197D01*
X0191604Y0048197D02*
X0216237Y0048197D01*
X0217963Y0048197D02*
X0231891Y0048197D01*
X0235309Y0048197D02*
X0305650Y0048197D01*
X0187639Y0048896D02*
X0004350Y0048896D01*
X0192161Y0048896D02*
X0215198Y0048896D01*
X0219002Y0048896D02*
X0248598Y0048896D01*
X0251602Y0048896D02*
X0305650Y0048896D01*
X0187350Y0049594D02*
X0004350Y0049594D01*
X0192450Y0049594D02*
X0214756Y0049594D01*
X0219444Y0049594D02*
X0247922Y0049594D01*
X0252278Y0049594D02*
X0305650Y0049594D01*
X0187350Y0050293D02*
X0004350Y0050293D01*
X0192450Y0050293D02*
X0214550Y0050293D01*
X0219650Y0050293D02*
X0247633Y0050293D01*
X0252567Y0050293D02*
X0305650Y0050293D01*
X0187509Y0050991D02*
X0004350Y0050991D01*
X0192291Y0050991D02*
X0214550Y0050991D01*
X0219650Y0050991D02*
X0247550Y0050991D01*
X0252650Y0050991D02*
X0287502Y0050991D01*
X0290498Y0050991D02*
X0294102Y0050991D01*
X0297098Y0050991D02*
X0305650Y0050991D01*
X0187884Y0051690D02*
X0004350Y0051690D01*
X0191916Y0051690D02*
X0214791Y0051690D01*
X0219409Y0051690D02*
X0247626Y0051690D01*
X0252574Y0051690D02*
X0286824Y0051690D01*
X0291176Y0051690D02*
X0293424Y0051690D01*
X0297776Y0051690D02*
X0305650Y0051690D01*
X0145684Y0052388D02*
X0004350Y0052388D01*
X0149316Y0052388D02*
X0188761Y0052388D01*
X0191039Y0052388D02*
X0215282Y0052388D01*
X0218918Y0052388D02*
X0247915Y0052388D01*
X0252285Y0052388D02*
X0286535Y0052388D01*
X0291465Y0052388D02*
X0293135Y0052388D01*
X0298065Y0052388D02*
X0305650Y0052388D01*
X0144985Y0053087D02*
X0004350Y0053087D01*
X0150015Y0053087D02*
X0216440Y0053087D01*
X0217760Y0053087D02*
X0248581Y0053087D01*
X0251619Y0053087D02*
X0286450Y0053087D01*
X0291550Y0053087D02*
X0293050Y0053087D01*
X0298150Y0053087D02*
X0305650Y0053087D01*
X0144614Y0053785D02*
X0004350Y0053785D01*
X0150386Y0053785D02*
X0286524Y0053785D01*
X0291476Y0053785D02*
X0293124Y0053785D01*
X0298076Y0053785D02*
X0305650Y0053785D01*
X0144369Y0054484D02*
X0004350Y0054484D01*
X0150631Y0054484D02*
X0242010Y0054484D01*
X0244990Y0054484D02*
X0286813Y0054484D01*
X0291187Y0054484D02*
X0293413Y0054484D01*
X0297787Y0054484D02*
X0305650Y0054484D01*
X0144369Y0055182D02*
X0050000Y0055182D01*
X0150631Y0055182D02*
X0241327Y0055182D01*
X0245673Y0055182D02*
X0287476Y0055182D01*
X0290524Y0055182D02*
X0294076Y0055182D01*
X0297124Y0055182D02*
X0305650Y0055182D01*
X0144476Y0055881D02*
X0050000Y0055881D01*
X0150524Y0055881D02*
X0241038Y0055881D01*
X0245962Y0055881D02*
X0305650Y0055881D01*
X0144765Y0056579D02*
X0050000Y0056579D01*
X0150235Y0056579D02*
X0240950Y0056579D01*
X0246050Y0056579D02*
X0305650Y0056579D01*
X0145350Y0057278D02*
X0050000Y0057278D01*
X0149650Y0057278D02*
X0241021Y0057278D01*
X0245979Y0057278D02*
X0305650Y0057278D01*
X0145096Y0057976D02*
X0050000Y0057976D01*
X0149904Y0057976D02*
X0172017Y0057976D01*
X0175183Y0057976D02*
X0241310Y0057976D01*
X0245690Y0057976D02*
X0305650Y0057976D01*
X0144660Y0058675D02*
X0050000Y0058675D01*
X0150340Y0058675D02*
X0171389Y0058675D01*
X0175811Y0058675D02*
X0180391Y0058675D01*
X0182009Y0058675D02*
X0241969Y0058675D01*
X0245031Y0058675D02*
X0305650Y0058675D01*
X0144370Y0059373D02*
X0050000Y0059373D01*
X0150630Y0059373D02*
X0171099Y0059373D01*
X0176101Y0059373D02*
X0179320Y0059373D01*
X0183080Y0059373D02*
X0305650Y0059373D01*
X0144369Y0060072D02*
X0050000Y0060072D01*
X0150631Y0060072D02*
X0171050Y0060072D01*
X0176150Y0060072D02*
X0178866Y0060072D01*
X0183534Y0060072D02*
X0305650Y0060072D01*
X0144430Y0060770D02*
X0050000Y0060770D01*
X0150570Y0060770D02*
X0171159Y0060770D01*
X0176041Y0060770D02*
X0178650Y0060770D01*
X0183750Y0060770D02*
X0305650Y0060770D01*
X0144719Y0061469D02*
X0050000Y0061469D01*
X0150281Y0061469D02*
X0171463Y0061469D01*
X0175737Y0061469D02*
X0178650Y0061469D01*
X0183750Y0061469D02*
X0305650Y0061469D01*
X0145239Y0062168D02*
X0050000Y0062168D01*
X0149761Y0062168D02*
X0172169Y0062168D01*
X0175031Y0062168D02*
X0178882Y0062168D01*
X0183518Y0062168D02*
X0305650Y0062168D01*
X0146237Y0062866D02*
X0050000Y0062866D01*
X0148763Y0062866D02*
X0179360Y0062866D01*
X0183040Y0062866D02*
X0305650Y0062866D01*
X0180486Y0063565D02*
X0050000Y0063565D01*
X0181914Y0063565D02*
X0185205Y0063565D01*
X0187153Y0063565D02*
X0305650Y0063565D01*
X0184231Y0064263D02*
X0050000Y0064263D01*
X0188127Y0064263D02*
X0305650Y0064263D01*
X0183816Y0064962D02*
X0050000Y0064962D01*
X0188541Y0064962D02*
X0305650Y0064962D01*
X0183629Y0065660D02*
X0050000Y0065660D01*
X0188729Y0065660D02*
X0305650Y0065660D01*
X0183629Y0066359D02*
X0050000Y0066359D01*
X0188729Y0066359D02*
X0305650Y0066359D01*
X0146423Y0067057D02*
X0050000Y0067057D01*
X0148577Y0067057D02*
X0183889Y0067057D01*
X0188468Y0067057D02*
X0305650Y0067057D01*
X0145316Y0067756D02*
X0050000Y0067756D01*
X0149684Y0067756D02*
X0184407Y0067756D01*
X0187951Y0067756D02*
X0305650Y0067756D01*
X0144751Y0068454D02*
X0050000Y0068454D01*
X0150249Y0068454D02*
X0185630Y0068454D01*
X0186727Y0068454D02*
X0305650Y0068454D01*
X0144462Y0069153D02*
X0050000Y0069153D01*
X0150538Y0069153D02*
X0305650Y0069153D01*
X0144369Y0069851D02*
X0050000Y0069851D01*
X0150631Y0069851D02*
X0305650Y0069851D01*
X0144369Y0070550D02*
X0050000Y0070550D01*
X0150631Y0070550D02*
X0305650Y0070550D01*
X0144628Y0071248D02*
X0050000Y0071248D01*
X0150372Y0071248D02*
X0220446Y0071248D01*
X0223754Y0071248D02*
X0305650Y0071248D01*
X0145019Y0071947D02*
X0050000Y0071947D01*
X0149981Y0071947D02*
X0219859Y0071947D01*
X0224341Y0071947D02*
X0305650Y0071947D01*
X0145427Y0072645D02*
X0050000Y0072645D01*
X0149573Y0072645D02*
X0219570Y0072645D01*
X0224630Y0072645D02*
X0305650Y0072645D01*
X0144797Y0073344D02*
X0050000Y0073344D01*
X0150203Y0073344D02*
X0219550Y0073344D01*
X0224650Y0073344D02*
X0305650Y0073344D01*
X0144508Y0074042D02*
X0050000Y0074042D01*
X0150492Y0074042D02*
X0219689Y0074042D01*
X0224511Y0074042D02*
X0305650Y0074042D01*
X0144369Y0074741D02*
X0050000Y0074741D01*
X0150631Y0074741D02*
X0220034Y0074741D01*
X0224166Y0074741D02*
X0305650Y0074741D01*
X0144369Y0075439D02*
X0050000Y0075439D01*
X0150631Y0075439D02*
X0220843Y0075439D01*
X0223357Y0075439D02*
X0305650Y0075439D01*
X0144582Y0076138D02*
X0050000Y0076138D01*
X0150418Y0076138D02*
X0233657Y0076138D01*
X0236543Y0076138D02*
X0305650Y0076138D01*
X0144908Y0076836D02*
X0050000Y0076836D01*
X0150092Y0076836D02*
X0232958Y0076836D01*
X0237242Y0076836D02*
X0305650Y0076836D01*
X0145607Y0077535D02*
X0050000Y0077535D01*
X0149393Y0077535D02*
X0232657Y0077535D01*
X0237543Y0077535D02*
X0305650Y0077535D01*
X0232550Y0078233D02*
X0050000Y0078233D01*
X0237650Y0078233D02*
X0305650Y0078233D01*
X0196812Y0078932D02*
X0050000Y0078932D01*
X0199187Y0078932D02*
X0232602Y0078932D01*
X0237598Y0078932D02*
X0305650Y0078932D01*
X0195963Y0079630D02*
X0050000Y0079630D01*
X0200037Y0079630D02*
X0232891Y0079630D01*
X0237309Y0079630D02*
X0305650Y0079630D01*
X0195601Y0080329D02*
X0050000Y0080329D01*
X0200399Y0080329D02*
X0233523Y0080329D01*
X0236677Y0080329D02*
X0305650Y0080329D01*
X0195450Y0081027D02*
X0050000Y0081027D01*
X0200550Y0081027D02*
X0305650Y0081027D01*
X0195458Y0081726D02*
X0050000Y0081726D01*
X0200542Y0081726D02*
X0305650Y0081726D01*
X0145648Y0082424D02*
X0050000Y0082424D01*
X0149352Y0082424D02*
X0195747Y0082424D01*
X0200253Y0082424D02*
X0305650Y0082424D01*
X0144949Y0083123D02*
X0050000Y0083123D01*
X0150051Y0083123D02*
X0196317Y0083123D01*
X0199683Y0083123D02*
X0305650Y0083123D01*
X0144599Y0083821D02*
X0050000Y0083821D01*
X0150401Y0083821D02*
X0305650Y0083821D01*
X0144369Y0084520D02*
X0050000Y0084520D01*
X0150631Y0084520D02*
X0305650Y0084520D01*
X0144369Y0085218D02*
X0050000Y0085218D01*
X0150631Y0085218D02*
X0305650Y0085218D01*
X0144491Y0085917D02*
X0050000Y0085917D01*
X0150509Y0085917D02*
X0177977Y0085917D01*
X0181023Y0085917D02*
X0305650Y0085917D01*
X0144780Y0086615D02*
X0050000Y0086615D01*
X0150220Y0086615D02*
X0177313Y0086615D01*
X0181687Y0086615D02*
X0305650Y0086615D01*
X0145386Y0087314D02*
X0050000Y0087314D01*
X0149614Y0087314D02*
X0177024Y0087314D01*
X0181976Y0087314D02*
X0305650Y0087314D01*
X0097818Y0088012D02*
X0050000Y0088012D01*
X0100582Y0088012D02*
X0128918Y0088012D01*
X0131682Y0088012D02*
X0145060Y0088012D01*
X0149940Y0088012D02*
X0176950Y0088012D01*
X0182050Y0088012D02*
X0195081Y0088012D01*
X0198119Y0088012D02*
X0305650Y0088012D01*
X0097083Y0088711D02*
X0050000Y0088711D01*
X0101317Y0088711D02*
X0128183Y0088711D01*
X0132417Y0088711D02*
X0144645Y0088711D01*
X0150355Y0088711D02*
X0177034Y0088711D01*
X0181966Y0088711D02*
X0194415Y0088711D01*
X0198785Y0088711D02*
X0305650Y0088711D01*
X0096767Y0089409D02*
X0050000Y0089409D01*
X0101633Y0089409D02*
X0127867Y0089409D01*
X0132733Y0089409D02*
X0144369Y0089409D01*
X0150631Y0089409D02*
X0177324Y0089409D01*
X0181676Y0089409D02*
X0194126Y0089409D01*
X0199074Y0089409D02*
X0305650Y0089409D01*
X0096650Y0090108D02*
X0050000Y0090108D01*
X0101750Y0090108D02*
X0127750Y0090108D01*
X0132850Y0090108D02*
X0144369Y0090108D01*
X0150631Y0090108D02*
X0178002Y0090108D01*
X0180998Y0090108D02*
X0194050Y0090108D01*
X0199150Y0090108D02*
X0305650Y0090108D01*
X0096691Y0090806D02*
X0050000Y0090806D01*
X0101709Y0090806D02*
X0127791Y0090806D01*
X0132809Y0090806D02*
X0144445Y0090806D01*
X0150555Y0090806D02*
X0194133Y0090806D01*
X0199067Y0090806D02*
X0305650Y0090806D01*
X0096980Y0091505D02*
X0050000Y0091505D01*
X0101420Y0091505D02*
X0128080Y0091505D01*
X0132520Y0091505D02*
X0144734Y0091505D01*
X0150266Y0091505D02*
X0194422Y0091505D01*
X0198778Y0091505D02*
X0305650Y0091505D01*
X0097597Y0092203D02*
X0050000Y0092203D01*
X0100803Y0092203D02*
X0128697Y0092203D01*
X0131903Y0092203D02*
X0145275Y0092203D01*
X0149725Y0092203D02*
X0195097Y0092203D01*
X0198103Y0092203D02*
X0305650Y0092203D01*
X0146324Y0092902D02*
X0050000Y0092902D01*
X0148676Y0092902D02*
X0305650Y0092902D01*
X0305650Y0093601D02*
X0050000Y0093601D01*
X0050000Y0094299D02*
X0305650Y0094299D01*
X0305650Y0094998D02*
X0050000Y0094998D01*
X0050000Y0095696D02*
X0305650Y0095696D01*
X0305650Y0096395D02*
X0050000Y0096395D01*
X0050000Y0097093D02*
X0305650Y0097093D01*
X0305650Y0097792D02*
X0050000Y0097792D01*
X0050000Y0098490D02*
X0305650Y0098490D01*
X0305650Y0099189D02*
X0050000Y0099189D01*
X0050000Y0099887D02*
X0305650Y0099887D01*
X0305650Y0100586D02*
X0050000Y0100586D01*
X0050000Y0101284D02*
X0305650Y0101284D01*
X0305650Y0101983D02*
X0050000Y0101983D01*
X0050000Y0102681D02*
X0305650Y0102681D01*
X0305650Y0103380D02*
X0050000Y0103380D01*
X0050000Y0104078D02*
X0305650Y0104078D01*
X0305650Y0104777D02*
X0050000Y0104777D01*
X0050000Y0105475D02*
X0176108Y0105475D01*
X0178692Y0105475D02*
X0189290Y0105475D01*
X0190909Y0105475D02*
X0305650Y0105475D01*
X0156194Y0106174D02*
X0050000Y0106174D01*
X0157806Y0106174D02*
X0175320Y0106174D01*
X0179480Y0106174D02*
X0188220Y0106174D01*
X0191980Y0106174D02*
X0305650Y0106174D01*
X0155122Y0106872D02*
X0050000Y0106872D01*
X0158878Y0106872D02*
X0174983Y0106872D01*
X0179817Y0106872D02*
X0187766Y0106872D01*
X0192434Y0106872D02*
X0305650Y0106872D01*
X0154666Y0107571D02*
X0050000Y0107571D01*
X0159334Y0107571D02*
X0174850Y0107571D01*
X0179950Y0107571D02*
X0187550Y0107571D01*
X0192650Y0107571D02*
X0305650Y0107571D01*
X0154450Y0108269D02*
X0050000Y0108269D01*
X0159550Y0108269D02*
X0174876Y0108269D01*
X0179924Y0108269D02*
X0187550Y0108269D01*
X0192650Y0108269D02*
X0305650Y0108269D01*
X0154450Y0108968D02*
X0050000Y0108968D01*
X0159550Y0108968D02*
X0175165Y0108968D01*
X0179635Y0108968D02*
X0187782Y0108968D01*
X0192418Y0108968D02*
X0305650Y0108968D01*
X0154682Y0109666D02*
X0050000Y0109666D01*
X0159318Y0109666D02*
X0175760Y0109666D01*
X0179040Y0109666D02*
X0188260Y0109666D01*
X0191940Y0109666D02*
X0305650Y0109666D01*
X0155159Y0110365D02*
X0050000Y0110365D01*
X0158841Y0110365D02*
X0189387Y0110365D01*
X0190813Y0110365D02*
X0305650Y0110365D01*
X0156283Y0111063D02*
X0050000Y0111063D01*
X0157717Y0111063D02*
X0305650Y0111063D01*
X0305650Y0111762D02*
X0050000Y0111762D01*
X0050000Y0112460D02*
X0305650Y0112460D01*
X0305650Y0113159D02*
X0050000Y0113159D01*
X0050000Y0113857D02*
X0305650Y0113857D01*
X0305650Y0114556D02*
X0050000Y0114556D01*
X0050000Y0115254D02*
X0305650Y0115254D01*
X0305650Y0115953D02*
X0050000Y0115953D01*
X0050000Y0116651D02*
X0305650Y0116651D01*
X0305650Y0117350D02*
X0050000Y0117350D01*
X0050000Y0118048D02*
X0264430Y0118048D01*
X0268170Y0118048D02*
X0291030Y0118048D01*
X0294770Y0118048D02*
X0305650Y0118048D01*
X0262796Y0118747D02*
X0050000Y0118747D01*
X0269804Y0118747D02*
X0289396Y0118747D01*
X0296404Y0118747D02*
X0305650Y0118747D01*
X0262097Y0119445D02*
X0050000Y0119445D01*
X0270503Y0119445D02*
X0274221Y0119445D01*
X0276179Y0119445D02*
X0288697Y0119445D01*
X0297103Y0119445D02*
X0305650Y0119445D01*
X0261399Y0120144D02*
X0050000Y0120144D01*
X0271201Y0120144D02*
X0273250Y0120144D01*
X0277150Y0120144D02*
X0287999Y0120144D01*
X0297801Y0120144D02*
X0305650Y0120144D01*
X0260940Y0120842D02*
X0050000Y0120842D01*
X0271660Y0120842D02*
X0272837Y0120842D01*
X0277563Y0120842D02*
X0287540Y0120842D01*
X0298260Y0120842D02*
X0305650Y0120842D01*
X0260651Y0121541D02*
X0050000Y0121541D01*
X0271949Y0121541D02*
X0272650Y0121541D01*
X0277750Y0121541D02*
X0287251Y0121541D01*
X0298549Y0121541D02*
X0305650Y0121541D01*
X0260362Y0122239D02*
X0050000Y0122239D01*
X0272238Y0122239D02*
X0272650Y0122239D01*
X0277750Y0122239D02*
X0286962Y0122239D01*
X0298838Y0122239D02*
X0305650Y0122239D01*
X0260178Y0122938D02*
X0050000Y0122938D01*
X0272422Y0122938D02*
X0272911Y0122938D01*
X0277489Y0122938D02*
X0286778Y0122938D01*
X0299022Y0122938D02*
X0305650Y0122938D01*
X0260178Y0123637D02*
X0050000Y0123637D01*
X0272422Y0123637D02*
X0273430Y0123637D01*
X0276970Y0123637D02*
X0286778Y0123637D01*
X0299022Y0123637D02*
X0305650Y0123637D01*
X0260178Y0124335D02*
X0050000Y0124335D01*
X0272422Y0124335D02*
X0274657Y0124335D01*
X0275743Y0124335D02*
X0286778Y0124335D01*
X0299022Y0124335D02*
X0305650Y0124335D01*
X0260178Y0125034D02*
X0050000Y0125034D01*
X0272422Y0125034D02*
X0286778Y0125034D01*
X0299022Y0125034D02*
X0305650Y0125034D01*
X0260433Y0125732D02*
X0050000Y0125732D01*
X0272167Y0125732D02*
X0287033Y0125732D01*
X0298767Y0125732D02*
X0305650Y0125732D01*
X0260722Y0126431D02*
X0050000Y0126431D01*
X0271878Y0126431D02*
X0287322Y0126431D01*
X0298478Y0126431D02*
X0305650Y0126431D01*
X0261011Y0127129D02*
X0050000Y0127129D01*
X0271589Y0127129D02*
X0287611Y0127129D01*
X0298189Y0127129D02*
X0305650Y0127129D01*
X0261570Y0127828D02*
X0050000Y0127828D01*
X0271030Y0127828D02*
X0288170Y0127828D01*
X0297630Y0127828D02*
X0305650Y0127828D01*
X0262269Y0128526D02*
X0050000Y0128526D01*
X0270331Y0128526D02*
X0288869Y0128526D01*
X0296931Y0128526D02*
X0305650Y0128526D01*
X0263158Y0129225D02*
X0050000Y0129225D01*
X0269442Y0129225D02*
X0289758Y0129225D01*
X0296042Y0129225D02*
X0305650Y0129225D01*
X0166745Y0129923D02*
X0050000Y0129923D01*
X0170055Y0129923D02*
X0264844Y0129923D01*
X0267756Y0129923D02*
X0291444Y0129923D01*
X0294356Y0129923D02*
X0305650Y0129923D01*
X0165058Y0130622D02*
X0050000Y0130622D01*
X0171742Y0130622D02*
X0305650Y0130622D01*
X0164152Y0131320D02*
X0050000Y0131320D01*
X0172648Y0131320D02*
X0305650Y0131320D01*
X0163454Y0132019D02*
X0050000Y0132019D01*
X0173346Y0132019D02*
X0305650Y0132019D01*
X0162821Y0132717D02*
X0050000Y0132717D01*
X0173979Y0132717D02*
X0305650Y0132717D01*
X0162532Y0133416D02*
X0050000Y0133416D01*
X0174268Y0133416D02*
X0305650Y0133416D01*
X0162243Y0134114D02*
X0050000Y0134114D01*
X0174557Y0134114D02*
X0305650Y0134114D01*
X0161953Y0134813D02*
X0050000Y0134813D01*
X0174847Y0134813D02*
X0305650Y0134813D01*
X0161875Y0135511D02*
X0050000Y0135511D01*
X0174925Y0135511D02*
X0305650Y0135511D01*
X0161875Y0136210D02*
X0050000Y0136210D01*
X0174925Y0136210D02*
X0305650Y0136210D01*
X0161875Y0136908D02*
X0050000Y0136908D01*
X0174925Y0136908D02*
X0305650Y0136908D01*
X0161879Y0137607D02*
X0050000Y0137607D01*
X0174921Y0137607D02*
X0305650Y0137607D01*
X0162168Y0138305D02*
X0050000Y0138305D01*
X0174632Y0138305D02*
X0305650Y0138305D01*
X0162457Y0139004D02*
X0050000Y0139004D01*
X0174343Y0139004D02*
X0305650Y0139004D01*
X0162747Y0139702D02*
X0050000Y0139702D01*
X0174053Y0139702D02*
X0305650Y0139702D01*
X0163273Y0140401D02*
X0050000Y0140401D01*
X0173527Y0140401D02*
X0305650Y0140401D01*
X0163972Y0141099D02*
X0050000Y0141099D01*
X0172828Y0141099D02*
X0305650Y0141099D01*
X0164670Y0141798D02*
X0050000Y0141798D01*
X0172130Y0141798D02*
X0305650Y0141798D01*
X0166309Y0142496D02*
X0050000Y0142496D01*
X0170491Y0142496D02*
X0305650Y0142496D01*
X0305650Y0143195D02*
X0050000Y0143195D01*
X0050000Y0143893D02*
X0305650Y0143893D01*
X0305650Y0144592D02*
X0050000Y0144592D01*
X0050000Y0145290D02*
X0305650Y0145290D01*
X0305650Y0145989D02*
X0050000Y0145989D01*
X0050000Y0146687D02*
X0305650Y0146687D01*
X0305650Y0147386D02*
X0050000Y0147386D01*
X0050000Y0148084D02*
X0305650Y0148084D01*
X0305650Y0148783D02*
X0050000Y0148783D01*
X0050000Y0149481D02*
X0305650Y0149481D01*
X0305650Y0150180D02*
X0050000Y0150180D01*
X0050000Y0150878D02*
X0305650Y0150878D01*
X0305650Y0151577D02*
X0050000Y0151577D01*
X0050000Y0152275D02*
X0305650Y0152275D01*
X0204535Y0152974D02*
X0050000Y0152974D01*
X0205665Y0152974D02*
X0305650Y0152974D01*
X0203321Y0153672D02*
X0050000Y0153672D01*
X0206879Y0153672D02*
X0305650Y0153672D01*
X0101602Y0154371D02*
X0050000Y0154371D01*
X0103398Y0154371D02*
X0125102Y0154371D01*
X0126898Y0154371D02*
X0202808Y0154371D01*
X0207392Y0154371D02*
X0305650Y0154371D01*
X0078424Y0155070D02*
X0050000Y0155070D01*
X0081376Y0155070D02*
X0100583Y0155070D01*
X0104417Y0155070D02*
X0124083Y0155070D01*
X0127917Y0155070D02*
X0202550Y0155070D01*
X0207650Y0155070D02*
X0305650Y0155070D01*
X0077733Y0155768D02*
X0050000Y0155768D01*
X0082067Y0155768D02*
X0100150Y0155768D01*
X0104850Y0155768D02*
X0123650Y0155768D01*
X0128350Y0155768D02*
X0202550Y0155768D01*
X0207650Y0155768D02*
X0305650Y0155768D01*
X0077444Y0156467D02*
X0050000Y0156467D01*
X0082356Y0156467D02*
X0099950Y0156467D01*
X0105050Y0156467D02*
X0123450Y0156467D01*
X0128550Y0156467D02*
X0202740Y0156467D01*
X0207460Y0156467D02*
X0305650Y0156467D01*
X0077350Y0157165D02*
X0050000Y0157165D01*
X0082450Y0157165D02*
X0099950Y0157165D01*
X0105050Y0157165D02*
X0123450Y0157165D01*
X0128550Y0157165D02*
X0203159Y0157165D01*
X0207041Y0157165D02*
X0305650Y0157165D01*
X0077415Y0157864D02*
X0050000Y0157864D01*
X0082385Y0157864D02*
X0100197Y0157864D01*
X0104803Y0157864D02*
X0123697Y0157864D01*
X0128303Y0157864D02*
X0202677Y0157864D01*
X0206057Y0157864D02*
X0305650Y0157864D01*
X0077704Y0158562D02*
X0050000Y0158562D01*
X0082096Y0158562D02*
X0100697Y0158562D01*
X0104303Y0158562D02*
X0124197Y0158562D01*
X0127803Y0158562D02*
X0201732Y0158562D01*
X0205668Y0158562D02*
X0305650Y0158562D01*
X0078354Y0159261D02*
X0050000Y0159261D01*
X0081446Y0159261D02*
X0101876Y0159261D01*
X0103124Y0159261D02*
X0125376Y0159261D01*
X0126624Y0159261D02*
X0201329Y0159261D01*
X0206071Y0159261D02*
X0305650Y0159261D01*
X0201150Y0159959D02*
X0050000Y0159959D01*
X0206250Y0159959D02*
X0305650Y0159959D01*
X0201150Y0160658D02*
X0050000Y0160658D01*
X0206250Y0160658D02*
X0305650Y0160658D01*
X0077738Y0161356D02*
X0050000Y0161356D01*
X0080862Y0161356D02*
X0094238Y0161356D01*
X0097362Y0161356D02*
X0113138Y0161356D01*
X0116462Y0161356D02*
X0201419Y0161356D01*
X0205981Y0161356D02*
X0305650Y0161356D01*
X0077097Y0162055D02*
X0050000Y0162055D01*
X0081503Y0162055D02*
X0093597Y0162055D01*
X0098003Y0162055D02*
X0112556Y0162055D01*
X0117044Y0162055D02*
X0201948Y0162055D01*
X0205452Y0162055D02*
X0305650Y0162055D01*
X0076808Y0162753D02*
X0050000Y0162753D01*
X0081792Y0162753D02*
X0093308Y0162753D01*
X0098292Y0162753D02*
X0112266Y0162753D01*
X0117334Y0162753D02*
X0305650Y0162753D01*
X0076750Y0163452D02*
X0050000Y0163452D01*
X0081850Y0163452D02*
X0093250Y0163452D01*
X0098350Y0163452D02*
X0112250Y0163452D01*
X0117350Y0163452D02*
X0305650Y0163452D01*
X0076851Y0164150D02*
X0050000Y0164150D01*
X0081749Y0164150D02*
X0093351Y0164150D01*
X0098249Y0164150D02*
X0112392Y0164150D01*
X0117208Y0164150D02*
X0305650Y0164150D01*
X0050345Y0164849D02*
X0050000Y0164849D01*
X0053255Y0164849D02*
X0077142Y0164849D01*
X0081458Y0164849D02*
X0093642Y0164849D01*
X0097958Y0164849D02*
X0112742Y0164849D01*
X0116858Y0164849D02*
X0305650Y0164849D01*
X0077841Y0165547D02*
X0053953Y0165547D01*
X0080759Y0165547D02*
X0094341Y0165547D01*
X0097259Y0165547D02*
X0113562Y0165547D01*
X0116038Y0165547D02*
X0305650Y0165547D01*
X0305650Y0166246D02*
X0054248Y0166246D01*
X0054350Y0166944D02*
X0305650Y0166944D01*
X0305635Y0167643D02*
X0054294Y0167643D01*
X0054005Y0168341D02*
X0305422Y0168341D01*
X0304755Y0169040D02*
X0053366Y0169040D01*
D14*
X0147500Y0080000D03*
X0147500Y0065000D03*
X0147500Y0050000D03*
X0147500Y0035000D03*
X0147500Y0085000D03*
X0147500Y0070000D03*
X0147500Y0055000D03*
X0147500Y0040000D03*
X0147500Y0090000D03*
X0147500Y0075000D03*
X0147500Y0060000D03*
X0147500Y0045000D03*
M02*
