%
M48
M72
T01C0.0120
T02C0.0240
T03C0.0350
T04C0.0400
T05C0.0730
T06C0.1260
%
T01
X3390Y3850
X6390Y3900
X7910Y3900
X11900Y3830
X8870Y3890
X11920Y12070
X24460Y9310
X7430Y12190
X18230Y9400
X20160Y9390
X26000Y11530
X21940Y11850
X23180Y11850
X25980Y3960
X25690Y4240
X26270Y4230
X25700Y3670
X26270Y3680
X26600Y11010
X22040Y14640
X26030Y14680
X29290Y14680
X18240Y15080
X19440Y7910
X29180Y6400
X22160Y2540
X22150Y1100
X26440Y1300
X14610Y990
X29760Y1530
X21540Y3820
X16950Y7240
X18980Y4510
X28470Y3140
X5190Y14020
X5190Y12060
X23080Y8140
X23590Y6870
X27580Y4380
X17740Y10770
X29560Y5310
X28900Y5310
X13030Y9020
X9920Y9020
X7990Y15720
X12600Y15676
X10250Y15676
X7930Y16340
X9580Y16340
X11480Y16330
X19660Y9010
X19010Y10790
X18990Y5010
X26530Y2540
X24310Y1110
X17950Y8800
X7950Y1890
X11920Y1870
X10920Y1960
X10430Y1960
X9920Y1960
X5450Y1870
X8420Y3780
X13980Y1040
X27520Y12180
X5180Y16700
X18120Y6110
X15700Y10860
X23360Y4630
X18618Y6592
X21710Y5060
X23510Y7830
X25010Y5100
X20370Y16020
X28190Y3480
X20510Y15550
X27900Y3120
X25480Y2740
X19800Y8120
X22210Y7320
X27290Y3862
X24350Y5660
X17360Y6000
T02
X14750Y8000
X14750Y6500
X14750Y5000
X14750Y3500
X14750Y8500
X14750Y7000
X14750Y5500
X14750Y4000
X14750Y9000
X14750Y7500
X14750Y6000
X14750Y4500
T03
X29290Y12390
X26630Y12390
T04
X15530Y1950
X16530Y1850
X17530Y1950
X18530Y1850
X19530Y1950
X20530Y1850
T05
X16840Y3630
X16840Y13630
T06
X2500Y15000
X2500Y2500
M30
