G75*
%MOIN*%
%OFA0B0*%
%FSLAX25Y25*%
%IPPOS*%
%LPD*%
%AMOC8*
5,1,8,0,0,1.08239X$1,22.5*
%
%ADD10R,0.02559X0.03150*%
%ADD11R,0.05906X0.01181*%
%ADD12R,0.01181X0.05906*%
%ADD13R,0.08661X0.09843*%
%ADD14R,0.07874X0.01969*%
%ADD15R,0.01772X0.01772*%
%ADD16R,0.10950X0.10950*%
%ADD17C,0.06000*%
%ADD18R,0.03543X0.02756*%
%ADD19R,0.02756X0.03543*%
%ADD20R,0.05118X0.05906*%
%ADD21R,0.05906X0.05118*%
%ADD22R,0.09055X0.06299*%
%ADD23R,0.08661X0.05118*%
%ADD24R,0.02756X0.00984*%
%ADD25R,0.00984X0.02756*%
%ADD26R,0.09646X0.09646*%
%ADD27R,0.03937X0.05512*%
%ADD28R,0.06102X0.05118*%
%ADD29R,0.01575X0.02362*%
%ADD30R,0.13386X0.15748*%
%ADD31R,0.08268X0.19291*%
%ADD32R,0.19291X0.08268*%
%ADD33R,0.05000X0.02500*%
%ADD34C,0.00800*%
%ADD35C,0.01000*%
%ADD36C,0.00700*%
%ADD37C,0.02800*%
%ADD38C,0.03962*%
%ADD39C,0.02400*%
D10*
X0119213Y0126339D03*
X0114213Y0126339D03*
X0109213Y0126339D03*
X0104213Y0126339D03*
X0099213Y0126339D03*
X0094213Y0126339D03*
X0089213Y0126339D03*
X0084213Y0126339D03*
X0079213Y0126339D03*
X0074213Y0126339D03*
X0069213Y0126339D03*
X0064213Y0126339D03*
X0059213Y0126339D03*
X0054213Y0126339D03*
X0049213Y0126339D03*
X0044213Y0126339D03*
X0039213Y0126339D03*
X0034213Y0126339D03*
X0034213Y0043661D03*
X0039213Y0043661D03*
X0044213Y0043661D03*
X0049213Y0043661D03*
X0054213Y0043661D03*
X0059213Y0043661D03*
X0064213Y0043661D03*
X0069213Y0043661D03*
X0074213Y0043661D03*
X0079213Y0043661D03*
X0084213Y0043661D03*
X0089213Y0043661D03*
X0094213Y0043661D03*
X0099213Y0043661D03*
X0104213Y0043661D03*
X0109213Y0043661D03*
X0114213Y0043661D03*
X0119213Y0043661D03*
D11*
X0168462Y0109764D03*
X0168462Y0107795D03*
X0168462Y0105827D03*
X0168462Y0103858D03*
X0168462Y0101890D03*
X0168462Y0099921D03*
X0168462Y0097953D03*
X0168462Y0095984D03*
X0168462Y0094016D03*
X0168462Y0092047D03*
X0168462Y0090079D03*
X0168462Y0088110D03*
X0168462Y0086142D03*
X0168462Y0084173D03*
X0168462Y0082205D03*
X0168462Y0080236D03*
X0213738Y0080236D03*
X0213738Y0082205D03*
X0213738Y0084173D03*
X0213738Y0086142D03*
X0213738Y0088110D03*
X0213738Y0090079D03*
X0213738Y0092047D03*
X0213738Y0094016D03*
X0213738Y0095984D03*
X0213738Y0097953D03*
X0213738Y0099921D03*
X0213738Y0101890D03*
X0213738Y0103858D03*
X0213738Y0105827D03*
X0213738Y0107795D03*
X0213738Y0109764D03*
D12*
X0176336Y0072362D03*
X0178305Y0072362D03*
X0180273Y0072362D03*
X0182242Y0072362D03*
X0184210Y0072362D03*
X0186179Y0072362D03*
X0188147Y0072362D03*
X0190116Y0072362D03*
X0192084Y0072362D03*
X0194053Y0072362D03*
X0196021Y0072362D03*
X0197990Y0072362D03*
X0199958Y0072362D03*
X0201927Y0072362D03*
X0203895Y0072362D03*
X0205864Y0072362D03*
X0205864Y0117638D03*
X0203895Y0117638D03*
X0201927Y0117638D03*
X0199958Y0117638D03*
X0197990Y0117638D03*
X0196021Y0117638D03*
X0194053Y0117638D03*
X0192084Y0117638D03*
X0190116Y0117638D03*
X0188147Y0117638D03*
X0186179Y0117638D03*
X0184210Y0117638D03*
X0182242Y0117638D03*
X0180273Y0117638D03*
X0178305Y0117638D03*
X0176336Y0117638D03*
D13*
X0277326Y0080165D03*
X0277326Y0113235D03*
X0298192Y0080165D03*
X0298192Y0113235D03*
D14*
X0276342Y0090401D03*
X0276342Y0093550D03*
X0276342Y0096700D03*
X0276342Y0099850D03*
X0276342Y0102999D03*
D15*
X0071473Y0141127D03*
X0068127Y0141127D03*
X0068127Y0144473D03*
X0071473Y0144473D03*
X0094873Y0141327D03*
X0091527Y0141327D03*
X0091527Y0144673D03*
X0094873Y0144673D03*
X0118073Y0140427D03*
X0114727Y0140427D03*
X0114727Y0143773D03*
X0118073Y0143773D03*
D16*
X0168400Y0036300D03*
X0168400Y0136300D03*
D17*
X0155300Y0019500D03*
X0165300Y0018500D03*
X0175300Y0019500D03*
X0185300Y0018500D03*
X0195300Y0019500D03*
X0205300Y0018500D03*
D18*
X0139800Y0019459D03*
X0139800Y0014341D03*
X0133800Y0024759D03*
X0133800Y0019641D03*
X0213100Y0148759D03*
X0213100Y0143641D03*
X0146200Y0014441D03*
X0146200Y0019559D03*
X0169500Y0068459D03*
X0169500Y0063341D03*
X0189800Y0062359D03*
X0189800Y0057241D03*
X0119200Y0030659D03*
X0119200Y0025541D03*
X0109200Y0030559D03*
X0109200Y0025441D03*
X0104200Y0030459D03*
X0104200Y0025341D03*
X0099200Y0030559D03*
X0099200Y0025441D03*
X0054400Y0030359D03*
X0054400Y0025241D03*
X0114800Y0156659D03*
X0114800Y0151541D03*
X0120400Y0156759D03*
X0120400Y0151641D03*
X0109000Y0156759D03*
X0109000Y0151641D03*
X0091500Y0156859D03*
X0091500Y0151741D03*
X0097300Y0156759D03*
X0097300Y0151641D03*
X0085900Y0156959D03*
X0085900Y0151841D03*
X0068100Y0157059D03*
X0068100Y0151941D03*
X0073800Y0156959D03*
X0073800Y0151841D03*
X0062000Y0157059D03*
X0062000Y0151941D03*
X0259900Y0110559D03*
X0259900Y0105441D03*
X0214600Y0119241D03*
X0214600Y0124359D03*
X0231900Y0112959D03*
X0231900Y0107841D03*
X0243300Y0046341D03*
X0243300Y0051459D03*
X0240500Y0035159D03*
X0240500Y0030041D03*
X0227500Y0046041D03*
X0227500Y0051159D03*
X0288900Y0033441D03*
X0288900Y0038559D03*
X0238600Y0051459D03*
X0238600Y0046341D03*
X0221400Y0035259D03*
X0221400Y0030141D03*
X0228400Y0024059D03*
X0228400Y0018941D03*
X0303400Y0043559D03*
X0303400Y0038441D03*
X0297600Y0038541D03*
X0297600Y0043659D03*
D19*
X0239359Y0091700D03*
X0234241Y0091700D03*
X0182341Y0145900D03*
X0187459Y0145900D03*
X0181041Y0132000D03*
X0186159Y0132000D03*
X0049841Y0161900D03*
X0054959Y0161900D03*
X0050059Y0145400D03*
X0044941Y0145400D03*
X0258241Y0090400D03*
X0263359Y0090400D03*
X0218259Y0132800D03*
X0213141Y0132800D03*
X0233559Y0132900D03*
X0228441Y0132900D03*
X0281559Y0127100D03*
X0276441Y0127100D03*
X0276441Y0132400D03*
X0281559Y0132400D03*
X0254459Y0127500D03*
X0249341Y0127500D03*
X0233559Y0035200D03*
X0228441Y0035200D03*
X0236041Y0024100D03*
X0241159Y0024100D03*
X0241159Y0019000D03*
X0236041Y0019000D03*
X0228441Y0030200D03*
X0233559Y0030200D03*
D20*
X0179960Y0138600D03*
X0187440Y0138600D03*
X0049940Y0153800D03*
X0042460Y0153800D03*
X0249340Y0079400D03*
X0241860Y0079400D03*
X0278160Y0063900D03*
X0285640Y0063900D03*
X0236240Y0011100D03*
X0228760Y0011100D03*
X0243440Y0062800D03*
X0235960Y0062800D03*
D21*
X0079200Y0032740D03*
X0079200Y0025260D03*
X0258800Y0020540D03*
X0258800Y0013060D03*
X0297600Y0028740D03*
X0297600Y0021260D03*
D22*
X0249400Y0105420D03*
X0249400Y0120380D03*
D23*
X0223500Y0124368D03*
X0223500Y0107832D03*
D24*
X0252320Y0044521D03*
X0252320Y0042553D03*
X0252320Y0040584D03*
X0252320Y0038616D03*
X0252320Y0036647D03*
X0252320Y0034679D03*
X0267280Y0034679D03*
X0267280Y0036647D03*
X0267280Y0038616D03*
X0267280Y0040584D03*
X0267280Y0042553D03*
X0267280Y0044521D03*
D25*
X0254879Y0032120D03*
X0256847Y0032120D03*
X0258816Y0032120D03*
X0260784Y0032120D03*
X0262753Y0032120D03*
X0264721Y0032120D03*
X0264721Y0047080D03*
X0262753Y0047080D03*
X0260784Y0047080D03*
X0258816Y0047080D03*
X0256847Y0047080D03*
X0254879Y0047080D03*
D26*
X0259800Y0039600D03*
D27*
X0284200Y0053131D03*
X0287940Y0044469D03*
X0280460Y0044469D03*
D28*
X0292840Y0141142D03*
X0292840Y0158858D03*
X0260360Y0141142D03*
X0260360Y0158858D03*
X0252740Y0141142D03*
X0252740Y0158858D03*
X0220260Y0141142D03*
X0220260Y0158858D03*
D29*
X0196100Y0038189D03*
X0201100Y0038189D03*
X0206100Y0038189D03*
X0211100Y0038189D03*
X0211100Y0061811D03*
X0206100Y0061811D03*
X0201100Y0061811D03*
X0196100Y0061811D03*
D30*
X0203600Y0050000D03*
D31*
X0253107Y0063800D03*
X0266493Y0063800D03*
D32*
X0280200Y0024093D03*
X0280200Y0010707D03*
D33*
X0140000Y0090000D03*
X0140000Y0085000D03*
X0140000Y0080000D03*
X0140000Y0075000D03*
X0140000Y0070000D03*
X0140000Y0065000D03*
X0140000Y0060000D03*
X0140000Y0055000D03*
X0140000Y0050000D03*
X0140000Y0045000D03*
X0140000Y0040000D03*
X0140000Y0035000D03*
D34*
X0079213Y0031559D02*
X0079200Y0032740D01*
X0079100Y0031559D01*
X0254459Y0127500D02*
X0260000Y0127500D01*
X0260000Y0115300D01*
X0182341Y0145900D02*
X0182400Y0145900D01*
X0182400Y0150800D01*
X0182341Y0145900D02*
X0182341Y0142700D01*
X0249400Y0120459D02*
X0249400Y0127500D01*
X0249341Y0127500D01*
D35*
X0034213Y0043661D02*
X0034213Y0038500D01*
X0033900Y0038500D01*
X0064213Y0043661D02*
X0064213Y0039000D01*
X0063900Y0039000D01*
X0079213Y0043661D02*
X0079213Y0039000D01*
X0079100Y0039000D01*
X0079100Y0031559D01*
X0119213Y0043661D02*
X0119213Y0038300D01*
X0119000Y0038300D01*
X0089213Y0043661D02*
X0089213Y0038900D01*
X0088700Y0038900D01*
X0179960Y0138600D02*
X0181041Y0138600D01*
X0119213Y0126339D02*
X0119213Y0120700D01*
X0119200Y0120700D01*
X0239359Y0091700D02*
X0244600Y0091700D01*
X0244600Y0093100D01*
X0074213Y0126339D02*
X0074300Y0126339D01*
X0074300Y0121900D01*
X0168462Y0094016D02*
X0178400Y0094016D01*
X0182300Y0094000D01*
X0213738Y0095984D02*
X0201600Y0095984D01*
X0201600Y0093900D01*
X0259900Y0110559D02*
X0260000Y0110559D01*
X0260000Y0115300D01*
X0214600Y0119241D02*
X0214600Y0118500D01*
X0219400Y0118500D01*
X0231900Y0112959D02*
X0231900Y0118500D01*
X0231800Y0118500D01*
X0034101Y0038500D02*
X0033900Y0038500D01*
X0182242Y0072362D02*
X0182300Y0072362D01*
X0182300Y0094000D01*
X0267280Y0042553D02*
X0259800Y0042553D01*
X0259800Y0039600D01*
X0276342Y0102999D02*
X0266000Y0102999D01*
X0266000Y0110100D01*
X0276342Y0102999D02*
X0276342Y0099850D01*
X0220260Y0141142D02*
X0220400Y0141142D01*
X0220400Y0146400D01*
X0252740Y0141142D02*
X0252740Y0146800D01*
X0260300Y0146800D01*
X0260300Y0141142D01*
X0260360Y0141142D01*
X0292840Y0141142D02*
X0292840Y0146800D01*
X0292900Y0146800D01*
X0192084Y0072362D02*
X0192084Y0079100D01*
X0194400Y0079100D01*
X0213100Y0148759D02*
X0220400Y0148759D01*
X0220400Y0146400D01*
X0285740Y0064000D02*
X0285723Y0063998D01*
X0285706Y0063994D01*
X0285690Y0063987D01*
X0285676Y0063977D01*
X0285663Y0063964D01*
X0285653Y0063950D01*
X0285646Y0063934D01*
X0285642Y0063917D01*
X0285640Y0063900D01*
X0285740Y0064000D02*
X0291800Y0064000D01*
X0221400Y0030141D02*
X0221600Y0030141D01*
X0221600Y0025400D01*
X0228760Y0011100D02*
X0221500Y0011100D01*
X0221500Y0011000D01*
X0258800Y0013060D02*
X0264400Y0013060D01*
X0264400Y0013000D01*
X0146200Y0014441D02*
X0146100Y0014441D01*
X0146100Y0009900D01*
X0147500Y0080000D02*
X0140000Y0080000D01*
X0140000Y0065000D02*
X0147500Y0065000D01*
X0147500Y0050000D02*
X0140000Y0050000D01*
X0140000Y0035000D02*
X0147500Y0035000D01*
X0297600Y0021260D02*
X0297600Y0015300D01*
X0303400Y0038441D02*
X0303400Y0021260D01*
X0297600Y0021260D01*
X0211100Y0038189D02*
X0215400Y0038189D01*
X0215400Y0038200D01*
X0169500Y0068459D02*
X0169500Y0072400D01*
X0203600Y0050000D02*
X0203600Y0045100D01*
X0189800Y0045100D01*
X0288900Y0033441D02*
X0284700Y0033441D01*
X0284700Y0031400D01*
X0049841Y0161900D02*
X0049940Y0161900D01*
X0049940Y0153800D01*
X0050059Y0153800D01*
X0050059Y0145400D01*
X0050059Y0140200D01*
X0051900Y0140200D01*
X0034213Y0126339D02*
X0034213Y0120600D01*
X0051900Y0120600D01*
X0241860Y0079400D02*
X0241860Y0081400D01*
X0230800Y0081400D01*
X0238600Y0051459D02*
X0238600Y0057100D01*
X0236000Y0057100D01*
X0235960Y0062800D02*
X0235960Y0068700D01*
X0235900Y0068700D01*
X0236000Y0057100D02*
X0236000Y0062800D01*
X0235960Y0062800D01*
X0168462Y0080236D02*
X0168400Y0080236D01*
X0297600Y0043659D02*
X0297600Y0053100D01*
X0295600Y0053100D01*
X0289000Y0053100D02*
X0285900Y0053131D01*
X0284200Y0053131D01*
X0297600Y0043659D02*
X0297600Y0043559D01*
X0303400Y0043559D01*
X0168462Y0080236D02*
X0166000Y0080236D01*
X0166000Y0048500D01*
X0168400Y0048500D01*
X0168400Y0036300D01*
X0264721Y0047080D02*
X0264721Y0050200D01*
X0271300Y0050200D01*
X0271300Y0053131D01*
X0284200Y0053131D01*
X0168462Y0097953D02*
X0125400Y0097953D01*
X0125400Y0024600D01*
X0133800Y0024600D01*
X0133800Y0024759D01*
X0187440Y0138600D02*
X0192084Y0138600D01*
X0192084Y0117638D01*
X0155300Y0019500D02*
X0146200Y0019500D01*
X0146200Y0019559D01*
X0139800Y0019559D01*
X0139800Y0019459D01*
X0133800Y0019459D01*
X0133800Y0019641D01*
X0185300Y0018500D02*
X0185300Y0027400D01*
X0178400Y0027400D01*
X0178400Y0072362D01*
X0178305Y0072362D01*
X0176336Y0072362D02*
X0176336Y0025000D01*
X0180000Y0025000D01*
X0180000Y0012200D01*
X0195300Y0012200D01*
X0195300Y0019500D01*
X0089213Y0126339D02*
X0089200Y0126339D01*
X0054959Y0169200D02*
X0208300Y0169200D01*
X0205864Y0117638D02*
X0205864Y0124400D01*
X0208300Y0124400D01*
X0208300Y0169200D01*
X0054959Y0169200D02*
X0054959Y0161900D01*
X0058000Y0161900D01*
X0058000Y0131000D01*
X0089213Y0131000D01*
X0089213Y0126339D01*
X0044941Y0145400D02*
X0044941Y0129300D01*
X0044200Y0129300D01*
X0044200Y0126339D01*
X0044213Y0126339D01*
X0176336Y0117638D02*
X0176336Y0121500D01*
X0123500Y0121500D01*
X0123500Y0116200D01*
X0050700Y0116200D01*
X0050700Y0054100D01*
X0039200Y0054100D01*
X0039200Y0043661D01*
X0039213Y0043661D01*
X0118073Y0140427D02*
X0130100Y0140427D01*
X0130100Y0128500D01*
X0188147Y0128500D01*
X0188147Y0117638D01*
X0094873Y0141327D02*
X0094873Y0136300D01*
X0126500Y0136300D01*
X0126500Y0126200D01*
X0186100Y0126200D01*
X0186100Y0117638D01*
X0186179Y0117638D01*
X0071473Y0141127D02*
X0071473Y0133100D01*
X0123400Y0133100D01*
X0123400Y0123800D01*
X0184200Y0123800D01*
X0184200Y0117638D01*
X0184210Y0117638D01*
X0168462Y0103858D02*
X0109213Y0103858D01*
X0109213Y0043661D01*
X0109200Y0030559D02*
X0109200Y0043661D01*
X0109213Y0043661D01*
X0168462Y0101890D02*
X0111700Y0101890D01*
X0111700Y0033800D01*
X0113000Y0033800D01*
X0113000Y0014300D01*
X0094700Y0014300D01*
X0094700Y0030559D01*
X0099200Y0030559D01*
X0099213Y0043661D02*
X0099213Y0030559D01*
X0099200Y0030559D01*
X0168462Y0099921D02*
X0114213Y0099921D01*
X0114213Y0043661D01*
X0114213Y0035400D01*
X0119200Y0035400D01*
X0119200Y0030659D01*
X0054213Y0043661D02*
X0054400Y0043661D01*
X0054400Y0030359D01*
X0168462Y0095984D02*
X0130300Y0095984D01*
X0130300Y0090200D01*
X0099200Y0090200D02*
X0054213Y0090200D01*
X0054213Y0043661D01*
X0104213Y0043661D02*
X0104213Y0112200D01*
X0187000Y0112400D01*
X0187000Y0097853D01*
X0213738Y0097953D01*
X0104213Y0043661D02*
X0104213Y0030459D01*
X0104200Y0030459D01*
X0213738Y0099921D02*
X0237700Y0099921D01*
X0237700Y0132400D01*
X0276441Y0132400D01*
X0276342Y0096700D02*
X0251700Y0096700D01*
X0251700Y0088100D01*
X0213738Y0088100D01*
X0213738Y0088110D01*
X0213738Y0086142D02*
X0254400Y0086142D01*
X0254400Y0093500D01*
X0276342Y0093500D01*
X0276342Y0093550D01*
X0260784Y0079384D02*
X0260784Y0047080D01*
X0263359Y0090400D02*
X0263359Y0090401D01*
X0276342Y0090401D01*
X0263359Y0090400D02*
X0263359Y0079384D01*
X0260784Y0079384D01*
X0260784Y0079400D01*
X0249340Y0079400D01*
X0227500Y0051159D02*
X0227500Y0075000D01*
X0249400Y0075000D01*
X0249400Y0079400D01*
X0249340Y0079400D01*
X0213743Y0082200D02*
X0213741Y0082201D01*
X0213739Y0082203D01*
X0213738Y0082205D01*
X0223700Y0082205D01*
X0223700Y0084100D01*
X0258241Y0084100D01*
X0258241Y0090400D01*
X0213738Y0080236D02*
X0223700Y0080236D01*
X0223700Y0082205D01*
X0260360Y0158858D02*
X0281500Y0158858D01*
X0281559Y0158858D02*
X0292840Y0158858D01*
X0281559Y0127100D02*
X0281559Y0132400D01*
X0281559Y0158858D01*
X0281500Y0158858D01*
X0220260Y0158858D02*
X0225800Y0158858D01*
X0252740Y0158858D01*
X0220059Y0132900D02*
X0218259Y0132800D01*
X0228441Y0132900D02*
X0225800Y0132900D01*
X0220059Y0132900D01*
X0225800Y0132900D02*
X0225800Y0158858D01*
X0213738Y0101890D02*
X0235700Y0101890D01*
X0235700Y0132900D01*
X0233559Y0132900D01*
X0068127Y0141127D02*
X0062000Y0141127D01*
X0062000Y0151941D01*
X0071473Y0144473D02*
X0073800Y0144473D01*
X0073800Y0151841D01*
X0068127Y0144473D02*
X0068100Y0144473D01*
X0068100Y0151941D01*
X0091527Y0141327D02*
X0085900Y0141327D01*
X0085900Y0151841D01*
X0094873Y0144673D02*
X0097300Y0144673D01*
X0097300Y0151641D01*
X0091500Y0151741D02*
X0091527Y0151741D01*
X0091527Y0144673D01*
X0114727Y0140427D02*
X0109000Y0140427D01*
X0109000Y0151641D01*
X0118073Y0143773D02*
X0120400Y0143773D01*
X0120400Y0151641D01*
X0114727Y0143773D02*
X0114800Y0143773D01*
X0114800Y0151541D01*
X0109000Y0156759D02*
X0109000Y0166800D01*
X0197990Y0117638D02*
X0198000Y0117638D01*
X0062000Y0157059D02*
X0062000Y0166700D01*
X0085900Y0166700D01*
X0109000Y0166800D01*
X0085900Y0166700D02*
X0085900Y0156959D01*
X0109000Y0166800D02*
X0197990Y0166800D01*
X0197990Y0117638D01*
X0126000Y0156759D02*
X0120400Y0156759D01*
X0073800Y0156959D02*
X0073800Y0157200D01*
X0079900Y0157200D01*
X0097300Y0156759D02*
X0102500Y0156759D01*
X0126000Y0156759D02*
X0194053Y0156759D01*
X0194053Y0117638D01*
X0114800Y0156659D02*
X0114800Y0163300D01*
X0068100Y0157059D02*
X0068100Y0163400D01*
X0079300Y0163400D01*
X0091500Y0156859D02*
X0091500Y0163400D01*
X0095800Y0163400D01*
X0114800Y0163300D02*
X0196021Y0163300D01*
X0196021Y0117638D01*
X0186159Y0132000D02*
X0190116Y0132000D01*
X0190116Y0117638D01*
X0213738Y0090000D02*
X0213738Y0090079D01*
X0229500Y0090079D01*
X0229500Y0091800D01*
X0234241Y0091800D01*
X0234241Y0091700D01*
X0210600Y0112700D02*
X0190100Y0112700D01*
X0190100Y0117638D01*
X0190116Y0117638D01*
X0207700Y0084173D02*
X0207700Y0090100D01*
X0213738Y0090100D01*
X0213738Y0090079D01*
X0213738Y0084173D02*
X0207700Y0084173D01*
X0207700Y0090100D02*
X0196600Y0090100D01*
X0190100Y0107900D02*
X0190100Y0112700D01*
X0079200Y0025260D02*
X0079200Y0025200D01*
X0260784Y0032120D02*
X0260784Y0025400D01*
X0265300Y0025400D01*
X0243100Y0011100D02*
X0236240Y0011100D01*
X0213100Y0143641D02*
X0213100Y0143700D01*
X0213141Y0132800D02*
X0213100Y0132800D01*
X0213100Y0143641D01*
X0210600Y0112700D02*
X0210600Y0132800D01*
X0213141Y0132800D01*
X0168462Y0092047D02*
X0179500Y0092047D01*
X0179500Y0088000D01*
X0228400Y0018941D02*
X0236041Y0018941D01*
X0236041Y0019000D01*
X0236240Y0019000D01*
X0236240Y0011100D01*
X0079200Y0025260D02*
X0079500Y0025260D01*
X0079500Y0018900D01*
X0119200Y0018700D02*
X0119200Y0025541D01*
X0109200Y0025441D02*
X0109200Y0019600D01*
X0104200Y0025341D02*
X0104200Y0019600D01*
X0104300Y0019600D01*
X0099200Y0019600D02*
X0099200Y0025441D01*
X0054400Y0025241D02*
X0054500Y0025241D01*
X0054500Y0018700D01*
X0084213Y0043661D02*
X0084200Y0043661D01*
X0084200Y0037800D01*
X0139800Y0014341D02*
X0139800Y0010400D01*
X0276441Y0127100D02*
X0276441Y0121800D01*
X0275200Y0121800D01*
X0042460Y0153800D02*
X0042460Y0167000D01*
X0051800Y0167000D01*
X0039213Y0126339D02*
X0039213Y0149200D01*
X0042300Y0149200D01*
X0042300Y0153800D01*
X0042460Y0153800D01*
X0206100Y0038189D02*
X0206100Y0034500D01*
X0181200Y0034500D01*
X0181200Y0061100D01*
X0168462Y0109764D02*
X0157000Y0109764D01*
X0157000Y0108600D01*
X0213738Y0092047D02*
X0222300Y0092047D01*
X0222300Y0095900D01*
X0249400Y0095900D01*
X0249400Y0105420D01*
X0259900Y0105420D01*
X0259900Y0105441D01*
X0249400Y0120380D02*
X0240000Y0120380D01*
X0240000Y0097900D01*
X0220000Y0097900D01*
X0220000Y0094000D01*
X0213738Y0094000D01*
X0213738Y0094016D01*
X0249400Y0120380D02*
X0249400Y0120459D01*
X0140000Y0085000D02*
X0147500Y0085000D01*
X0149300Y0085000D01*
X0154379Y0090079D01*
X0168462Y0090079D01*
X0140000Y0070000D02*
X0147500Y0070000D01*
X0150300Y0070000D01*
X0155600Y0075300D01*
X0155600Y0084500D01*
X0159300Y0088200D01*
X0168462Y0088110D02*
X0168462Y0088200D01*
X0159300Y0088200D01*
X0140000Y0055000D02*
X0147500Y0055000D01*
X0149900Y0055000D01*
X0158000Y0063100D01*
X0158000Y0082000D01*
X0162100Y0086100D01*
X0168420Y0086100D01*
X0168462Y0086142D01*
X0140000Y0040000D02*
X0147500Y0040000D01*
X0151000Y0040000D01*
X0160600Y0049600D01*
X0160600Y0080300D01*
X0164473Y0084173D01*
X0168462Y0084173D01*
X0213738Y0107795D02*
X0223500Y0107795D01*
X0223500Y0107832D01*
X0231900Y0107832D01*
X0231900Y0107841D01*
X0223500Y0124368D02*
X0214600Y0124368D01*
X0214600Y0124359D01*
X0223500Y0124368D02*
X0223500Y0112500D01*
X0213800Y0112500D01*
X0213800Y0109764D01*
X0213738Y0109764D01*
X0258816Y0032120D02*
X0258846Y0032120D01*
X0266493Y0063800D02*
X0266493Y0052300D01*
X0262700Y0052300D01*
X0262700Y0047080D01*
X0262753Y0047080D01*
X0266493Y0063800D02*
X0278160Y0063800D01*
X0278160Y0063900D01*
X0278160Y0058400D01*
X0258816Y0032120D02*
X0258800Y0032120D01*
X0258800Y0020540D01*
X0287940Y0044469D02*
X0292500Y0044469D01*
X0292500Y0017300D01*
X0264400Y0017300D01*
X0264400Y0020600D01*
X0258800Y0020600D01*
X0258800Y0020540D01*
X0278160Y0058400D02*
X0292500Y0058400D01*
X0292500Y0044469D01*
X0252320Y0042553D02*
X0243300Y0042553D01*
X0243300Y0046341D01*
X0186179Y0065921D02*
X0186179Y0072362D01*
X0233600Y0046300D02*
X0238600Y0046300D01*
X0238600Y0046341D01*
X0252320Y0040584D02*
X0227500Y0040584D01*
X0217100Y0040584D01*
X0217100Y0050600D01*
X0227500Y0046041D02*
X0227500Y0040584D01*
X0250100Y0051000D02*
X0250100Y0050100D01*
X0256900Y0050100D01*
X0256900Y0047080D01*
X0256847Y0047080D01*
X0201927Y0117638D02*
X0201927Y0160200D01*
X0203700Y0160200D01*
X0281900Y0034800D02*
X0270600Y0034800D01*
X0270600Y0036700D01*
X0267280Y0036700D01*
X0267280Y0036647D01*
X0203895Y0117638D02*
X0203895Y0155500D01*
X0205100Y0155500D01*
X0279000Y0031200D02*
X0270000Y0031200D01*
X0270100Y0031800D01*
X0267280Y0031800D01*
X0267280Y0034679D01*
X0256847Y0032120D02*
X0256847Y0027400D01*
X0254800Y0027400D01*
X0198000Y0081200D02*
X0198000Y0072362D01*
X0197990Y0072362D01*
X0267280Y0044521D02*
X0267280Y0048200D01*
X0280600Y0048200D01*
X0280600Y0044469D01*
X0280460Y0044469D01*
X0240500Y0030041D02*
X0233559Y0030041D01*
X0233559Y0030200D01*
X0228600Y0030200D02*
X0228441Y0030200D01*
X0236041Y0024100D02*
X0228400Y0024100D01*
X0228400Y0024059D01*
X0228441Y0024059D01*
X0228441Y0030200D01*
X0252320Y0038616D02*
X0228700Y0038616D01*
X0221400Y0038616D01*
X0221400Y0035259D01*
X0228441Y0035200D02*
X0228700Y0035200D01*
X0228700Y0038616D01*
X0252320Y0036647D02*
X0244500Y0036647D01*
X0244500Y0035200D01*
X0240500Y0035200D01*
X0240500Y0035159D01*
X0233559Y0035159D01*
X0233559Y0035200D01*
X0254879Y0032120D02*
X0251700Y0032120D01*
X0251700Y0007900D01*
X0268100Y0007900D01*
X0268100Y0010600D01*
X0280200Y0010600D01*
X0280200Y0010707D01*
X0262753Y0032120D02*
X0262753Y0028100D01*
X0268300Y0028100D01*
X0268300Y0024093D01*
X0280200Y0024093D01*
X0267280Y0038616D02*
X0272900Y0038616D01*
X0288900Y0038616D01*
X0288900Y0038559D01*
X0258816Y0047080D02*
X0258816Y0052300D01*
X0253100Y0052300D01*
X0253100Y0063800D01*
X0253107Y0063800D01*
X0297600Y0038541D02*
X0297600Y0028740D01*
X0241159Y0024100D02*
X0241159Y0019000D01*
X0147500Y0075000D02*
X0140000Y0075000D01*
X0140000Y0060000D02*
X0147500Y0060000D01*
X0147500Y0090000D02*
X0140000Y0090000D01*
X0243500Y0056600D02*
X0243500Y0062800D01*
X0243440Y0062800D01*
X0254879Y0047080D02*
X0254879Y0047000D01*
X0252320Y0044521D02*
X0247100Y0044521D01*
X0247100Y0047080D01*
X0247100Y0056600D01*
X0247100Y0047080D02*
X0254879Y0047080D01*
X0169500Y0063341D02*
X0174200Y0063341D01*
X0174200Y0077100D01*
X0180273Y0077100D01*
X0180273Y0072362D01*
X0173600Y0060000D02*
X0174200Y0060000D01*
X0174200Y0063341D01*
X0147500Y0045000D02*
X0140000Y0045000D01*
X0243500Y0056600D02*
X0247100Y0056600D01*
D36*
X0181041Y0132000D02*
X0181041Y0137519D01*
X0179960Y0138600D01*
X0181041Y0138600D02*
X0181200Y0138759D01*
X0181200Y0142700D01*
X0182341Y0142700D01*
X0264721Y0032120D02*
X0264721Y0034800D01*
X0262700Y0034800D01*
X0262700Y0036800D01*
X0192084Y0066900D02*
X0189800Y0066900D01*
X0189800Y0062359D01*
X0252320Y0034679D02*
X0257000Y0034679D01*
X0257000Y0036700D01*
X0192084Y0066900D02*
X0192084Y0072362D01*
X0238600Y0051459D02*
X0243300Y0051459D01*
X0267280Y0040584D02*
X0271000Y0040584D01*
X0271000Y0043700D01*
X0275800Y0043700D01*
X0275800Y0043800D01*
X0177400Y0107700D02*
X0177400Y0107795D01*
X0168462Y0107795D01*
X0187440Y0138600D02*
X0187440Y0145881D01*
X0187459Y0145900D01*
X0196100Y0038189D02*
X0196100Y0038600D01*
X0184400Y0038600D01*
X0184100Y0072362D02*
X0184210Y0072362D01*
X0184210Y0067800D01*
X0183100Y0067800D01*
X0183100Y0063000D01*
X0184400Y0063000D01*
X0184400Y0038600D01*
X0199958Y0072362D02*
X0199958Y0064100D01*
X0206200Y0064100D01*
X0206200Y0061811D01*
X0206100Y0061811D01*
X0203895Y0072362D02*
X0203895Y0065800D01*
X0208400Y0065800D01*
X0208400Y0059400D01*
X0214100Y0059400D01*
X0214100Y0040700D01*
X0201100Y0040700D01*
X0201100Y0038189D01*
X0205864Y0072362D02*
X0205864Y0067500D01*
X0211100Y0067500D01*
X0211100Y0061811D01*
X0194053Y0062800D02*
X0193500Y0062800D01*
X0193500Y0059400D01*
X0193500Y0050100D01*
X0189900Y0050100D01*
X0189900Y0057241D01*
X0189800Y0057241D01*
X0201100Y0061811D02*
X0201100Y0059400D01*
X0193500Y0059400D01*
X0194053Y0062800D02*
X0194053Y0072362D01*
X0196021Y0072362D02*
X0196021Y0061811D01*
X0196100Y0061811D01*
X0238600Y0046341D02*
X0243300Y0046341D01*
X0188147Y0072362D02*
X0188147Y0086900D01*
X0205700Y0086900D01*
X0205700Y0078300D01*
X0235100Y0078300D01*
X0228441Y0035200D02*
X0228441Y0030200D01*
X0190116Y0072362D02*
X0190116Y0084100D01*
X0203300Y0084100D01*
X0203300Y0076600D01*
X0217200Y0076600D01*
X0217200Y0073200D01*
X0222100Y0073200D01*
D37*
X0033900Y0038500D03*
X0063900Y0039000D03*
X0079100Y0039000D03*
X0119000Y0038300D03*
X0088700Y0038900D03*
X0119200Y0120700D03*
X0244600Y0093100D03*
X0074300Y0121900D03*
X0182300Y0094000D03*
X0201600Y0093900D03*
X0260000Y0115300D03*
X0219400Y0118500D03*
X0231800Y0118500D03*
X0259800Y0039600D03*
X0256900Y0042400D03*
X0262700Y0042300D03*
X0257000Y0036700D03*
X0262700Y0036800D03*
X0266000Y0110100D03*
X0220400Y0146400D03*
X0260300Y0146800D03*
X0292900Y0146800D03*
X0182400Y0150800D03*
X0194400Y0079100D03*
X0291800Y0064000D03*
X0221600Y0025400D03*
X0221500Y0011000D03*
X0264400Y0013000D03*
X0146100Y0009900D03*
X0297600Y0015300D03*
X0215400Y0038200D03*
X0169500Y0072400D03*
X0189800Y0045100D03*
X0284700Y0031400D03*
X0051900Y0140200D03*
X0051900Y0120600D03*
X0230800Y0081400D03*
X0235900Y0068700D03*
X0275800Y0043800D03*
X0177400Y0107700D03*
X0295600Y0053100D03*
X0289000Y0053100D03*
X0130300Y0090200D03*
X0099200Y0090200D03*
X0079900Y0157200D03*
X0126000Y0156759D03*
X0102500Y0156759D03*
X0079300Y0163400D03*
X0095800Y0163400D03*
X0114800Y0163300D03*
X0196600Y0090100D03*
X0190100Y0107900D03*
X0189900Y0050100D03*
X0265300Y0025400D03*
X0243100Y0011100D03*
X0179500Y0088000D03*
X0079500Y0018900D03*
X0119200Y0018700D03*
X0109200Y0019600D03*
X0104300Y0019600D03*
X0099200Y0019600D03*
X0054500Y0018700D03*
X0084200Y0037800D03*
X0139800Y0010400D03*
X0275200Y0121800D03*
X0051800Y0167000D03*
X0181200Y0061100D03*
X0157000Y0108600D03*
X0233600Y0046300D03*
X0186179Y0065921D03*
X0217100Y0050600D03*
X0235100Y0078300D03*
X0250100Y0051000D03*
X0203700Y0160200D03*
X0281900Y0034800D03*
X0205100Y0155500D03*
X0279000Y0031200D03*
X0254800Y0027400D03*
X0198000Y0081200D03*
X0222100Y0073200D03*
X0272900Y0038616D03*
X0243500Y0056600D03*
X0173600Y0060000D03*
D38*
X0147500Y0080000D03*
X0147500Y0065000D03*
X0147500Y0050000D03*
X0147500Y0035000D03*
X0147500Y0085000D03*
X0147500Y0070000D03*
X0147500Y0055000D03*
X0147500Y0040000D03*
X0147500Y0090000D03*
X0147500Y0075000D03*
X0147500Y0060000D03*
X0147500Y0045000D03*
D39*
X0140000Y0090000D02*
X0133900Y0090000D01*
X0133900Y0075000D01*
X0133900Y0060000D01*
X0133900Y0045200D01*
X0140000Y0045200D01*
X0140000Y0045000D01*
X0140000Y0075000D02*
X0133900Y0075000D01*
X0133900Y0060000D02*
X0140000Y0060000D01*
M02*
