G75*
%MOIN*%
%OFA0B0*%
%FSLAX25Y25*%
%IPPOS*%
%LPD*%
%AMOC8*
5,1,8,0,0,1.08239X$1,22.5*
%
%ADD10C,0.00000*%
%ADD11R,0.02559X0.03150*%
%ADD12R,0.05906X0.01181*%
%ADD13R,0.01181X0.05906*%
%ADD14R,0.08661X0.09843*%
%ADD15R,0.07874X0.01969*%
%ADD16R,0.01772X0.01772*%
%ADD17R,0.03543X0.02756*%
%ADD18R,0.02756X0.03543*%
%ADD19R,0.05118X0.05906*%
%ADD20R,0.05906X0.05118*%
%ADD21R,0.09055X0.06299*%
%ADD22R,0.08661X0.05118*%
%ADD23R,0.02756X0.00984*%
%ADD24R,0.00984X0.02756*%
%ADD25R,0.09646X0.09646*%
%ADD26R,0.03937X0.05512*%
%ADD27R,0.06102X0.05118*%
%ADD28R,0.01575X0.02362*%
%ADD29R,0.13386X0.15748*%
%ADD30R,0.08268X0.19291*%
%ADD31R,0.19291X0.08268*%
%ADD32R,0.05000X0.02500*%
D10*
X0000000Y0006250D02*
X0000000Y0167450D01*
X0000000Y0167460D01*
X0000002Y0167616D01*
X0000008Y0167771D01*
X0000018Y0167927D01*
X0000032Y0168082D01*
X0000050Y0168236D01*
X0000071Y0168390D01*
X0000097Y0168544D01*
X0000126Y0168697D01*
X0000159Y0168849D01*
X0000195Y0169000D01*
X0000236Y0169151D01*
X0000280Y0169300D01*
X0000328Y0169448D01*
X0000380Y0169595D01*
X0000435Y0169740D01*
X0000494Y0169885D01*
X0000556Y0170027D01*
X0000622Y0170168D01*
X0000691Y0170308D01*
X0000764Y0170445D01*
X0000841Y0170581D01*
X0000920Y0170715D01*
X0001003Y0170846D01*
X0001090Y0170976D01*
X0001179Y0171103D01*
X0001271Y0171228D01*
X0001367Y0171351D01*
X0001466Y0171472D01*
X0001567Y0171590D01*
X0001672Y0171705D01*
X0001779Y0171818D01*
X0001890Y0171928D01*
X0002002Y0172035D01*
X0002118Y0172139D01*
X0002236Y0172241D01*
X0002357Y0172339D01*
X0002480Y0172435D01*
X0002605Y0172527D01*
X0002732Y0172616D01*
X0002862Y0172702D01*
X0002994Y0172785D01*
X0003128Y0172864D01*
X0003264Y0172940D01*
X0003401Y0173013D01*
X0003541Y0173082D01*
X0003682Y0173148D01*
X0003825Y0173210D01*
X0003969Y0173269D01*
X0004114Y0173324D01*
X0004261Y0173375D01*
X0004410Y0173423D01*
X0004559Y0173467D01*
X0004709Y0173507D01*
X0004861Y0173544D01*
X0005013Y0173576D01*
X0005166Y0173605D01*
X0005319Y0173630D01*
X0005474Y0173652D01*
X0005628Y0173669D01*
X0005783Y0173683D01*
X0005939Y0173692D01*
X0006094Y0173698D01*
X0006250Y0173700D01*
X0303750Y0173700D01*
X0303906Y0173698D01*
X0304062Y0173692D01*
X0304217Y0173683D01*
X0304372Y0173669D01*
X0304527Y0173651D01*
X0304682Y0173630D01*
X0304835Y0173605D01*
X0304988Y0173576D01*
X0305141Y0173543D01*
X0305292Y0173507D01*
X0305443Y0173466D01*
X0305592Y0173422D01*
X0305741Y0173375D01*
X0305888Y0173323D01*
X0306033Y0173268D01*
X0306178Y0173209D01*
X0306321Y0173147D01*
X0306462Y0173081D01*
X0306601Y0173012D01*
X0306739Y0172939D01*
X0306875Y0172863D01*
X0307009Y0172783D01*
X0307141Y0172700D01*
X0307271Y0172614D01*
X0307398Y0172525D01*
X0307524Y0172432D01*
X0307647Y0172336D01*
X0307767Y0172238D01*
X0307886Y0172136D01*
X0308001Y0172032D01*
X0308114Y0171924D01*
X0308224Y0171814D01*
X0308332Y0171701D01*
X0308436Y0171586D01*
X0308538Y0171467D01*
X0308636Y0171347D01*
X0308732Y0171224D01*
X0308825Y0171098D01*
X0308914Y0170971D01*
X0309000Y0170841D01*
X0309083Y0170709D01*
X0309163Y0170575D01*
X0309239Y0170439D01*
X0309312Y0170301D01*
X0309381Y0170162D01*
X0309447Y0170021D01*
X0309509Y0169878D01*
X0309568Y0169733D01*
X0309623Y0169588D01*
X0309675Y0169441D01*
X0309722Y0169292D01*
X0309766Y0169143D01*
X0309807Y0168992D01*
X0309843Y0168841D01*
X0309876Y0168688D01*
X0309905Y0168535D01*
X0309930Y0168382D01*
X0309951Y0168227D01*
X0309969Y0168072D01*
X0309983Y0167917D01*
X0309992Y0167762D01*
X0309998Y0167606D01*
X0310000Y0167450D01*
X0310000Y0006250D01*
X0309998Y0006094D01*
X0309992Y0005938D01*
X0309983Y0005783D01*
X0309969Y0005628D01*
X0309951Y0005473D01*
X0309930Y0005318D01*
X0309905Y0005165D01*
X0309876Y0005012D01*
X0309843Y0004859D01*
X0309807Y0004708D01*
X0309766Y0004557D01*
X0309722Y0004408D01*
X0309675Y0004259D01*
X0309623Y0004112D01*
X0309568Y0003967D01*
X0309509Y0003822D01*
X0309447Y0003679D01*
X0309381Y0003538D01*
X0309312Y0003399D01*
X0309239Y0003261D01*
X0309163Y0003125D01*
X0309083Y0002991D01*
X0309000Y0002859D01*
X0308914Y0002729D01*
X0308825Y0002602D01*
X0308732Y0002476D01*
X0308636Y0002353D01*
X0308538Y0002233D01*
X0308436Y0002114D01*
X0308332Y0001999D01*
X0308224Y0001886D01*
X0308114Y0001776D01*
X0308001Y0001668D01*
X0307886Y0001564D01*
X0307767Y0001462D01*
X0307647Y0001364D01*
X0307524Y0001268D01*
X0307398Y0001175D01*
X0307271Y0001086D01*
X0307141Y0001000D01*
X0307009Y0000917D01*
X0306875Y0000837D01*
X0306739Y0000761D01*
X0306601Y0000688D01*
X0306462Y0000619D01*
X0306321Y0000553D01*
X0306178Y0000491D01*
X0306033Y0000432D01*
X0305888Y0000377D01*
X0305741Y0000325D01*
X0305592Y0000278D01*
X0305443Y0000234D01*
X0305292Y0000193D01*
X0305141Y0000157D01*
X0304988Y0000124D01*
X0304835Y0000095D01*
X0304682Y0000070D01*
X0304527Y0000049D01*
X0304372Y0000031D01*
X0304217Y0000017D01*
X0304062Y0000008D01*
X0303906Y0000002D01*
X0303750Y0000000D01*
X0006250Y0000000D01*
X0006094Y0000002D01*
X0005938Y0000008D01*
X0005783Y0000017D01*
X0005628Y0000031D01*
X0005473Y0000049D01*
X0005318Y0000070D01*
X0005165Y0000095D01*
X0005012Y0000124D01*
X0004859Y0000157D01*
X0004708Y0000193D01*
X0004557Y0000234D01*
X0004408Y0000278D01*
X0004259Y0000325D01*
X0004112Y0000377D01*
X0003967Y0000432D01*
X0003822Y0000491D01*
X0003679Y0000553D01*
X0003538Y0000619D01*
X0003399Y0000688D01*
X0003261Y0000761D01*
X0003125Y0000837D01*
X0002991Y0000917D01*
X0002859Y0001000D01*
X0002729Y0001086D01*
X0002602Y0001175D01*
X0002476Y0001268D01*
X0002353Y0001364D01*
X0002233Y0001462D01*
X0002114Y0001564D01*
X0001999Y0001668D01*
X0001886Y0001776D01*
X0001776Y0001886D01*
X0001668Y0001999D01*
X0001564Y0002114D01*
X0001462Y0002233D01*
X0001364Y0002353D01*
X0001268Y0002476D01*
X0001175Y0002602D01*
X0001086Y0002729D01*
X0001000Y0002859D01*
X0000917Y0002991D01*
X0000837Y0003125D01*
X0000761Y0003261D01*
X0000688Y0003399D01*
X0000619Y0003538D01*
X0000553Y0003679D01*
X0000491Y0003822D01*
X0000432Y0003967D01*
X0000377Y0004112D01*
X0000325Y0004259D01*
X0000278Y0004408D01*
X0000234Y0004557D01*
X0000193Y0004708D01*
X0000157Y0004859D01*
X0000124Y0005012D01*
X0000095Y0005165D01*
X0000070Y0005318D01*
X0000049Y0005473D01*
X0000031Y0005628D01*
X0000017Y0005783D01*
X0000008Y0005938D01*
X0000002Y0006094D01*
X0000000Y0006250D01*
X0000000Y0167450D02*
X0000000Y0167460D01*
X0018701Y0150000D02*
X0018703Y0150158D01*
X0018709Y0150316D01*
X0018719Y0150474D01*
X0018733Y0150632D01*
X0018751Y0150789D01*
X0018772Y0150946D01*
X0018798Y0151102D01*
X0018828Y0151258D01*
X0018861Y0151413D01*
X0018899Y0151566D01*
X0018940Y0151719D01*
X0018985Y0151871D01*
X0019034Y0152022D01*
X0019087Y0152171D01*
X0019143Y0152319D01*
X0019203Y0152465D01*
X0019267Y0152610D01*
X0019335Y0152753D01*
X0019406Y0152895D01*
X0019480Y0153035D01*
X0019558Y0153172D01*
X0019640Y0153308D01*
X0019724Y0153442D01*
X0019813Y0153573D01*
X0019904Y0153702D01*
X0019999Y0153829D01*
X0020096Y0153954D01*
X0020197Y0154076D01*
X0020301Y0154195D01*
X0020408Y0154312D01*
X0020518Y0154426D01*
X0020631Y0154537D01*
X0020746Y0154646D01*
X0020864Y0154751D01*
X0020985Y0154853D01*
X0021108Y0154953D01*
X0021234Y0155049D01*
X0021362Y0155142D01*
X0021492Y0155232D01*
X0021625Y0155318D01*
X0021760Y0155402D01*
X0021896Y0155481D01*
X0022035Y0155558D01*
X0022176Y0155630D01*
X0022318Y0155700D01*
X0022462Y0155765D01*
X0022608Y0155827D01*
X0022755Y0155885D01*
X0022904Y0155940D01*
X0023054Y0155991D01*
X0023205Y0156038D01*
X0023357Y0156081D01*
X0023510Y0156120D01*
X0023665Y0156156D01*
X0023820Y0156187D01*
X0023976Y0156215D01*
X0024132Y0156239D01*
X0024289Y0156259D01*
X0024447Y0156275D01*
X0024604Y0156287D01*
X0024763Y0156295D01*
X0024921Y0156299D01*
X0025079Y0156299D01*
X0025237Y0156295D01*
X0025396Y0156287D01*
X0025553Y0156275D01*
X0025711Y0156259D01*
X0025868Y0156239D01*
X0026024Y0156215D01*
X0026180Y0156187D01*
X0026335Y0156156D01*
X0026490Y0156120D01*
X0026643Y0156081D01*
X0026795Y0156038D01*
X0026946Y0155991D01*
X0027096Y0155940D01*
X0027245Y0155885D01*
X0027392Y0155827D01*
X0027538Y0155765D01*
X0027682Y0155700D01*
X0027824Y0155630D01*
X0027965Y0155558D01*
X0028104Y0155481D01*
X0028240Y0155402D01*
X0028375Y0155318D01*
X0028508Y0155232D01*
X0028638Y0155142D01*
X0028766Y0155049D01*
X0028892Y0154953D01*
X0029015Y0154853D01*
X0029136Y0154751D01*
X0029254Y0154646D01*
X0029369Y0154537D01*
X0029482Y0154426D01*
X0029592Y0154312D01*
X0029699Y0154195D01*
X0029803Y0154076D01*
X0029904Y0153954D01*
X0030001Y0153829D01*
X0030096Y0153702D01*
X0030187Y0153573D01*
X0030276Y0153442D01*
X0030360Y0153308D01*
X0030442Y0153172D01*
X0030520Y0153035D01*
X0030594Y0152895D01*
X0030665Y0152753D01*
X0030733Y0152610D01*
X0030797Y0152465D01*
X0030857Y0152319D01*
X0030913Y0152171D01*
X0030966Y0152022D01*
X0031015Y0151871D01*
X0031060Y0151719D01*
X0031101Y0151566D01*
X0031139Y0151413D01*
X0031172Y0151258D01*
X0031202Y0151102D01*
X0031228Y0150946D01*
X0031249Y0150789D01*
X0031267Y0150632D01*
X0031281Y0150474D01*
X0031291Y0150316D01*
X0031297Y0150158D01*
X0031299Y0150000D01*
X0031297Y0149842D01*
X0031291Y0149684D01*
X0031281Y0149526D01*
X0031267Y0149368D01*
X0031249Y0149211D01*
X0031228Y0149054D01*
X0031202Y0148898D01*
X0031172Y0148742D01*
X0031139Y0148587D01*
X0031101Y0148434D01*
X0031060Y0148281D01*
X0031015Y0148129D01*
X0030966Y0147978D01*
X0030913Y0147829D01*
X0030857Y0147681D01*
X0030797Y0147535D01*
X0030733Y0147390D01*
X0030665Y0147247D01*
X0030594Y0147105D01*
X0030520Y0146965D01*
X0030442Y0146828D01*
X0030360Y0146692D01*
X0030276Y0146558D01*
X0030187Y0146427D01*
X0030096Y0146298D01*
X0030001Y0146171D01*
X0029904Y0146046D01*
X0029803Y0145924D01*
X0029699Y0145805D01*
X0029592Y0145688D01*
X0029482Y0145574D01*
X0029369Y0145463D01*
X0029254Y0145354D01*
X0029136Y0145249D01*
X0029015Y0145147D01*
X0028892Y0145047D01*
X0028766Y0144951D01*
X0028638Y0144858D01*
X0028508Y0144768D01*
X0028375Y0144682D01*
X0028240Y0144598D01*
X0028104Y0144519D01*
X0027965Y0144442D01*
X0027824Y0144370D01*
X0027682Y0144300D01*
X0027538Y0144235D01*
X0027392Y0144173D01*
X0027245Y0144115D01*
X0027096Y0144060D01*
X0026946Y0144009D01*
X0026795Y0143962D01*
X0026643Y0143919D01*
X0026490Y0143880D01*
X0026335Y0143844D01*
X0026180Y0143813D01*
X0026024Y0143785D01*
X0025868Y0143761D01*
X0025711Y0143741D01*
X0025553Y0143725D01*
X0025396Y0143713D01*
X0025237Y0143705D01*
X0025079Y0143701D01*
X0024921Y0143701D01*
X0024763Y0143705D01*
X0024604Y0143713D01*
X0024447Y0143725D01*
X0024289Y0143741D01*
X0024132Y0143761D01*
X0023976Y0143785D01*
X0023820Y0143813D01*
X0023665Y0143844D01*
X0023510Y0143880D01*
X0023357Y0143919D01*
X0023205Y0143962D01*
X0023054Y0144009D01*
X0022904Y0144060D01*
X0022755Y0144115D01*
X0022608Y0144173D01*
X0022462Y0144235D01*
X0022318Y0144300D01*
X0022176Y0144370D01*
X0022035Y0144442D01*
X0021896Y0144519D01*
X0021760Y0144598D01*
X0021625Y0144682D01*
X0021492Y0144768D01*
X0021362Y0144858D01*
X0021234Y0144951D01*
X0021108Y0145047D01*
X0020985Y0145147D01*
X0020864Y0145249D01*
X0020746Y0145354D01*
X0020631Y0145463D01*
X0020518Y0145574D01*
X0020408Y0145688D01*
X0020301Y0145805D01*
X0020197Y0145924D01*
X0020096Y0146046D01*
X0019999Y0146171D01*
X0019904Y0146298D01*
X0019813Y0146427D01*
X0019724Y0146558D01*
X0019640Y0146692D01*
X0019558Y0146828D01*
X0019480Y0146965D01*
X0019406Y0147105D01*
X0019335Y0147247D01*
X0019267Y0147390D01*
X0019203Y0147535D01*
X0019143Y0147681D01*
X0019087Y0147829D01*
X0019034Y0147978D01*
X0018985Y0148129D01*
X0018940Y0148281D01*
X0018899Y0148434D01*
X0018861Y0148587D01*
X0018828Y0148742D01*
X0018798Y0148898D01*
X0018772Y0149054D01*
X0018751Y0149211D01*
X0018733Y0149368D01*
X0018719Y0149526D01*
X0018709Y0149684D01*
X0018703Y0149842D01*
X0018701Y0150000D01*
X0018701Y0025000D02*
X0018703Y0025158D01*
X0018709Y0025316D01*
X0018719Y0025474D01*
X0018733Y0025632D01*
X0018751Y0025789D01*
X0018772Y0025946D01*
X0018798Y0026102D01*
X0018828Y0026258D01*
X0018861Y0026413D01*
X0018899Y0026566D01*
X0018940Y0026719D01*
X0018985Y0026871D01*
X0019034Y0027022D01*
X0019087Y0027171D01*
X0019143Y0027319D01*
X0019203Y0027465D01*
X0019267Y0027610D01*
X0019335Y0027753D01*
X0019406Y0027895D01*
X0019480Y0028035D01*
X0019558Y0028172D01*
X0019640Y0028308D01*
X0019724Y0028442D01*
X0019813Y0028573D01*
X0019904Y0028702D01*
X0019999Y0028829D01*
X0020096Y0028954D01*
X0020197Y0029076D01*
X0020301Y0029195D01*
X0020408Y0029312D01*
X0020518Y0029426D01*
X0020631Y0029537D01*
X0020746Y0029646D01*
X0020864Y0029751D01*
X0020985Y0029853D01*
X0021108Y0029953D01*
X0021234Y0030049D01*
X0021362Y0030142D01*
X0021492Y0030232D01*
X0021625Y0030318D01*
X0021760Y0030402D01*
X0021896Y0030481D01*
X0022035Y0030558D01*
X0022176Y0030630D01*
X0022318Y0030700D01*
X0022462Y0030765D01*
X0022608Y0030827D01*
X0022755Y0030885D01*
X0022904Y0030940D01*
X0023054Y0030991D01*
X0023205Y0031038D01*
X0023357Y0031081D01*
X0023510Y0031120D01*
X0023665Y0031156D01*
X0023820Y0031187D01*
X0023976Y0031215D01*
X0024132Y0031239D01*
X0024289Y0031259D01*
X0024447Y0031275D01*
X0024604Y0031287D01*
X0024763Y0031295D01*
X0024921Y0031299D01*
X0025079Y0031299D01*
X0025237Y0031295D01*
X0025396Y0031287D01*
X0025553Y0031275D01*
X0025711Y0031259D01*
X0025868Y0031239D01*
X0026024Y0031215D01*
X0026180Y0031187D01*
X0026335Y0031156D01*
X0026490Y0031120D01*
X0026643Y0031081D01*
X0026795Y0031038D01*
X0026946Y0030991D01*
X0027096Y0030940D01*
X0027245Y0030885D01*
X0027392Y0030827D01*
X0027538Y0030765D01*
X0027682Y0030700D01*
X0027824Y0030630D01*
X0027965Y0030558D01*
X0028104Y0030481D01*
X0028240Y0030402D01*
X0028375Y0030318D01*
X0028508Y0030232D01*
X0028638Y0030142D01*
X0028766Y0030049D01*
X0028892Y0029953D01*
X0029015Y0029853D01*
X0029136Y0029751D01*
X0029254Y0029646D01*
X0029369Y0029537D01*
X0029482Y0029426D01*
X0029592Y0029312D01*
X0029699Y0029195D01*
X0029803Y0029076D01*
X0029904Y0028954D01*
X0030001Y0028829D01*
X0030096Y0028702D01*
X0030187Y0028573D01*
X0030276Y0028442D01*
X0030360Y0028308D01*
X0030442Y0028172D01*
X0030520Y0028035D01*
X0030594Y0027895D01*
X0030665Y0027753D01*
X0030733Y0027610D01*
X0030797Y0027465D01*
X0030857Y0027319D01*
X0030913Y0027171D01*
X0030966Y0027022D01*
X0031015Y0026871D01*
X0031060Y0026719D01*
X0031101Y0026566D01*
X0031139Y0026413D01*
X0031172Y0026258D01*
X0031202Y0026102D01*
X0031228Y0025946D01*
X0031249Y0025789D01*
X0031267Y0025632D01*
X0031281Y0025474D01*
X0031291Y0025316D01*
X0031297Y0025158D01*
X0031299Y0025000D01*
X0031297Y0024842D01*
X0031291Y0024684D01*
X0031281Y0024526D01*
X0031267Y0024368D01*
X0031249Y0024211D01*
X0031228Y0024054D01*
X0031202Y0023898D01*
X0031172Y0023742D01*
X0031139Y0023587D01*
X0031101Y0023434D01*
X0031060Y0023281D01*
X0031015Y0023129D01*
X0030966Y0022978D01*
X0030913Y0022829D01*
X0030857Y0022681D01*
X0030797Y0022535D01*
X0030733Y0022390D01*
X0030665Y0022247D01*
X0030594Y0022105D01*
X0030520Y0021965D01*
X0030442Y0021828D01*
X0030360Y0021692D01*
X0030276Y0021558D01*
X0030187Y0021427D01*
X0030096Y0021298D01*
X0030001Y0021171D01*
X0029904Y0021046D01*
X0029803Y0020924D01*
X0029699Y0020805D01*
X0029592Y0020688D01*
X0029482Y0020574D01*
X0029369Y0020463D01*
X0029254Y0020354D01*
X0029136Y0020249D01*
X0029015Y0020147D01*
X0028892Y0020047D01*
X0028766Y0019951D01*
X0028638Y0019858D01*
X0028508Y0019768D01*
X0028375Y0019682D01*
X0028240Y0019598D01*
X0028104Y0019519D01*
X0027965Y0019442D01*
X0027824Y0019370D01*
X0027682Y0019300D01*
X0027538Y0019235D01*
X0027392Y0019173D01*
X0027245Y0019115D01*
X0027096Y0019060D01*
X0026946Y0019009D01*
X0026795Y0018962D01*
X0026643Y0018919D01*
X0026490Y0018880D01*
X0026335Y0018844D01*
X0026180Y0018813D01*
X0026024Y0018785D01*
X0025868Y0018761D01*
X0025711Y0018741D01*
X0025553Y0018725D01*
X0025396Y0018713D01*
X0025237Y0018705D01*
X0025079Y0018701D01*
X0024921Y0018701D01*
X0024763Y0018705D01*
X0024604Y0018713D01*
X0024447Y0018725D01*
X0024289Y0018741D01*
X0024132Y0018761D01*
X0023976Y0018785D01*
X0023820Y0018813D01*
X0023665Y0018844D01*
X0023510Y0018880D01*
X0023357Y0018919D01*
X0023205Y0018962D01*
X0023054Y0019009D01*
X0022904Y0019060D01*
X0022755Y0019115D01*
X0022608Y0019173D01*
X0022462Y0019235D01*
X0022318Y0019300D01*
X0022176Y0019370D01*
X0022035Y0019442D01*
X0021896Y0019519D01*
X0021760Y0019598D01*
X0021625Y0019682D01*
X0021492Y0019768D01*
X0021362Y0019858D01*
X0021234Y0019951D01*
X0021108Y0020047D01*
X0020985Y0020147D01*
X0020864Y0020249D01*
X0020746Y0020354D01*
X0020631Y0020463D01*
X0020518Y0020574D01*
X0020408Y0020688D01*
X0020301Y0020805D01*
X0020197Y0020924D01*
X0020096Y0021046D01*
X0019999Y0021171D01*
X0019904Y0021298D01*
X0019813Y0021427D01*
X0019724Y0021558D01*
X0019640Y0021692D01*
X0019558Y0021828D01*
X0019480Y0021965D01*
X0019406Y0022105D01*
X0019335Y0022247D01*
X0019267Y0022390D01*
X0019203Y0022535D01*
X0019143Y0022681D01*
X0019087Y0022829D01*
X0019034Y0022978D01*
X0018985Y0023129D01*
X0018940Y0023281D01*
X0018899Y0023434D01*
X0018861Y0023587D01*
X0018828Y0023742D01*
X0018798Y0023898D01*
X0018772Y0024054D01*
X0018751Y0024211D01*
X0018733Y0024368D01*
X0018719Y0024526D01*
X0018709Y0024684D01*
X0018703Y0024842D01*
X0018701Y0025000D01*
X0291128Y0123900D02*
X0291130Y0123984D01*
X0291136Y0124067D01*
X0291146Y0124150D01*
X0291160Y0124233D01*
X0291177Y0124315D01*
X0291199Y0124396D01*
X0291224Y0124475D01*
X0291253Y0124554D01*
X0291286Y0124631D01*
X0291322Y0124706D01*
X0291362Y0124780D01*
X0291405Y0124852D01*
X0291452Y0124921D01*
X0291502Y0124988D01*
X0291555Y0125053D01*
X0291611Y0125115D01*
X0291669Y0125175D01*
X0291731Y0125232D01*
X0291795Y0125285D01*
X0291862Y0125336D01*
X0291931Y0125383D01*
X0292002Y0125428D01*
X0292075Y0125468D01*
X0292150Y0125505D01*
X0292227Y0125539D01*
X0292305Y0125569D01*
X0292384Y0125595D01*
X0292465Y0125618D01*
X0292547Y0125636D01*
X0292629Y0125651D01*
X0292712Y0125662D01*
X0292795Y0125669D01*
X0292879Y0125672D01*
X0292963Y0125671D01*
X0293046Y0125666D01*
X0293130Y0125657D01*
X0293212Y0125644D01*
X0293294Y0125628D01*
X0293375Y0125607D01*
X0293456Y0125583D01*
X0293534Y0125555D01*
X0293612Y0125523D01*
X0293688Y0125487D01*
X0293762Y0125448D01*
X0293834Y0125406D01*
X0293904Y0125360D01*
X0293972Y0125311D01*
X0294037Y0125259D01*
X0294100Y0125204D01*
X0294160Y0125146D01*
X0294218Y0125085D01*
X0294272Y0125021D01*
X0294324Y0124955D01*
X0294372Y0124887D01*
X0294417Y0124816D01*
X0294458Y0124743D01*
X0294497Y0124669D01*
X0294531Y0124593D01*
X0294562Y0124515D01*
X0294589Y0124436D01*
X0294613Y0124355D01*
X0294632Y0124274D01*
X0294648Y0124192D01*
X0294660Y0124109D01*
X0294668Y0124025D01*
X0294672Y0123942D01*
X0294672Y0123858D01*
X0294668Y0123775D01*
X0294660Y0123691D01*
X0294648Y0123608D01*
X0294632Y0123526D01*
X0294613Y0123445D01*
X0294589Y0123364D01*
X0294562Y0123285D01*
X0294531Y0123207D01*
X0294497Y0123131D01*
X0294458Y0123057D01*
X0294417Y0122984D01*
X0294372Y0122913D01*
X0294324Y0122845D01*
X0294272Y0122779D01*
X0294218Y0122715D01*
X0294160Y0122654D01*
X0294100Y0122596D01*
X0294037Y0122541D01*
X0293972Y0122489D01*
X0293904Y0122440D01*
X0293834Y0122394D01*
X0293762Y0122352D01*
X0293688Y0122313D01*
X0293612Y0122277D01*
X0293534Y0122245D01*
X0293456Y0122217D01*
X0293375Y0122193D01*
X0293294Y0122172D01*
X0293212Y0122156D01*
X0293130Y0122143D01*
X0293046Y0122134D01*
X0292963Y0122129D01*
X0292879Y0122128D01*
X0292795Y0122131D01*
X0292712Y0122138D01*
X0292629Y0122149D01*
X0292547Y0122164D01*
X0292465Y0122182D01*
X0292384Y0122205D01*
X0292305Y0122231D01*
X0292227Y0122261D01*
X0292150Y0122295D01*
X0292075Y0122332D01*
X0292002Y0122372D01*
X0291931Y0122417D01*
X0291862Y0122464D01*
X0291795Y0122515D01*
X0291731Y0122568D01*
X0291669Y0122625D01*
X0291611Y0122685D01*
X0291555Y0122747D01*
X0291502Y0122812D01*
X0291452Y0122879D01*
X0291405Y0122948D01*
X0291362Y0123020D01*
X0291322Y0123094D01*
X0291286Y0123169D01*
X0291253Y0123246D01*
X0291224Y0123325D01*
X0291199Y0123404D01*
X0291177Y0123485D01*
X0291160Y0123567D01*
X0291146Y0123650D01*
X0291136Y0123733D01*
X0291130Y0123816D01*
X0291128Y0123900D01*
X0264528Y0123900D02*
X0264530Y0123984D01*
X0264536Y0124067D01*
X0264546Y0124150D01*
X0264560Y0124233D01*
X0264577Y0124315D01*
X0264599Y0124396D01*
X0264624Y0124475D01*
X0264653Y0124554D01*
X0264686Y0124631D01*
X0264722Y0124706D01*
X0264762Y0124780D01*
X0264805Y0124852D01*
X0264852Y0124921D01*
X0264902Y0124988D01*
X0264955Y0125053D01*
X0265011Y0125115D01*
X0265069Y0125175D01*
X0265131Y0125232D01*
X0265195Y0125285D01*
X0265262Y0125336D01*
X0265331Y0125383D01*
X0265402Y0125428D01*
X0265475Y0125468D01*
X0265550Y0125505D01*
X0265627Y0125539D01*
X0265705Y0125569D01*
X0265784Y0125595D01*
X0265865Y0125618D01*
X0265947Y0125636D01*
X0266029Y0125651D01*
X0266112Y0125662D01*
X0266195Y0125669D01*
X0266279Y0125672D01*
X0266363Y0125671D01*
X0266446Y0125666D01*
X0266530Y0125657D01*
X0266612Y0125644D01*
X0266694Y0125628D01*
X0266775Y0125607D01*
X0266856Y0125583D01*
X0266934Y0125555D01*
X0267012Y0125523D01*
X0267088Y0125487D01*
X0267162Y0125448D01*
X0267234Y0125406D01*
X0267304Y0125360D01*
X0267372Y0125311D01*
X0267437Y0125259D01*
X0267500Y0125204D01*
X0267560Y0125146D01*
X0267618Y0125085D01*
X0267672Y0125021D01*
X0267724Y0124955D01*
X0267772Y0124887D01*
X0267817Y0124816D01*
X0267858Y0124743D01*
X0267897Y0124669D01*
X0267931Y0124593D01*
X0267962Y0124515D01*
X0267989Y0124436D01*
X0268013Y0124355D01*
X0268032Y0124274D01*
X0268048Y0124192D01*
X0268060Y0124109D01*
X0268068Y0124025D01*
X0268072Y0123942D01*
X0268072Y0123858D01*
X0268068Y0123775D01*
X0268060Y0123691D01*
X0268048Y0123608D01*
X0268032Y0123526D01*
X0268013Y0123445D01*
X0267989Y0123364D01*
X0267962Y0123285D01*
X0267931Y0123207D01*
X0267897Y0123131D01*
X0267858Y0123057D01*
X0267817Y0122984D01*
X0267772Y0122913D01*
X0267724Y0122845D01*
X0267672Y0122779D01*
X0267618Y0122715D01*
X0267560Y0122654D01*
X0267500Y0122596D01*
X0267437Y0122541D01*
X0267372Y0122489D01*
X0267304Y0122440D01*
X0267234Y0122394D01*
X0267162Y0122352D01*
X0267088Y0122313D01*
X0267012Y0122277D01*
X0266934Y0122245D01*
X0266856Y0122217D01*
X0266775Y0122193D01*
X0266694Y0122172D01*
X0266612Y0122156D01*
X0266530Y0122143D01*
X0266446Y0122134D01*
X0266363Y0122129D01*
X0266279Y0122128D01*
X0266195Y0122131D01*
X0266112Y0122138D01*
X0266029Y0122149D01*
X0265947Y0122164D01*
X0265865Y0122182D01*
X0265784Y0122205D01*
X0265705Y0122231D01*
X0265627Y0122261D01*
X0265550Y0122295D01*
X0265475Y0122332D01*
X0265402Y0122372D01*
X0265331Y0122417D01*
X0265262Y0122464D01*
X0265195Y0122515D01*
X0265131Y0122568D01*
X0265069Y0122625D01*
X0265011Y0122685D01*
X0264955Y0122747D01*
X0264902Y0122812D01*
X0264852Y0122879D01*
X0264805Y0122948D01*
X0264762Y0123020D01*
X0264722Y0123094D01*
X0264686Y0123169D01*
X0264653Y0123246D01*
X0264624Y0123325D01*
X0264599Y0123404D01*
X0264577Y0123485D01*
X0264560Y0123567D01*
X0264546Y0123650D01*
X0264536Y0123733D01*
X0264530Y0123816D01*
X0264528Y0123900D01*
D11*
X0119213Y0126339D03*
X0114213Y0126339D03*
X0109213Y0126339D03*
X0104213Y0126339D03*
X0099213Y0126339D03*
X0094213Y0126339D03*
X0089213Y0126339D03*
X0084213Y0126339D03*
X0079213Y0126339D03*
X0074213Y0126339D03*
X0069213Y0126339D03*
X0064213Y0126339D03*
X0059213Y0126339D03*
X0054213Y0126339D03*
X0049213Y0126339D03*
X0044213Y0126339D03*
X0039213Y0126339D03*
X0034213Y0126339D03*
X0034213Y0043661D03*
X0039213Y0043661D03*
X0044213Y0043661D03*
X0049213Y0043661D03*
X0054213Y0043661D03*
X0059213Y0043661D03*
X0064213Y0043661D03*
X0069213Y0043661D03*
X0074213Y0043661D03*
X0079213Y0043661D03*
X0084213Y0043661D03*
X0089213Y0043661D03*
X0094213Y0043661D03*
X0099213Y0043661D03*
X0104213Y0043661D03*
X0109213Y0043661D03*
X0114213Y0043661D03*
X0119213Y0043661D03*
D12*
X0168462Y0109764D03*
X0168462Y0107795D03*
X0168462Y0105827D03*
X0168462Y0103858D03*
X0168462Y0101890D03*
X0168462Y0099921D03*
X0168462Y0097953D03*
X0168462Y0095984D03*
X0168462Y0094016D03*
X0168462Y0092047D03*
X0168462Y0090079D03*
X0168462Y0088110D03*
X0168462Y0086142D03*
X0168462Y0084173D03*
X0168462Y0082205D03*
X0168462Y0080236D03*
X0213738Y0080236D03*
X0213738Y0082205D03*
X0213738Y0084173D03*
X0213738Y0086142D03*
X0213738Y0088110D03*
X0213738Y0090079D03*
X0213738Y0092047D03*
X0213738Y0094016D03*
X0213738Y0095984D03*
X0213738Y0097953D03*
X0213738Y0099921D03*
X0213738Y0101890D03*
X0213738Y0103858D03*
X0213738Y0105827D03*
X0213738Y0107795D03*
X0213738Y0109764D03*
D13*
X0176336Y0072362D03*
X0178305Y0072362D03*
X0180273Y0072362D03*
X0182242Y0072362D03*
X0184210Y0072362D03*
X0186179Y0072362D03*
X0188147Y0072362D03*
X0190116Y0072362D03*
X0192084Y0072362D03*
X0194053Y0072362D03*
X0196021Y0072362D03*
X0197990Y0072362D03*
X0199958Y0072362D03*
X0201927Y0072362D03*
X0203895Y0072362D03*
X0205864Y0072362D03*
X0205864Y0117638D03*
X0203895Y0117638D03*
X0201927Y0117638D03*
X0199958Y0117638D03*
X0197990Y0117638D03*
X0196021Y0117638D03*
X0194053Y0117638D03*
X0192084Y0117638D03*
X0190116Y0117638D03*
X0188147Y0117638D03*
X0186179Y0117638D03*
X0184210Y0117638D03*
X0182242Y0117638D03*
X0180273Y0117638D03*
X0178305Y0117638D03*
X0176336Y0117638D03*
D14*
X0277326Y0080165D03*
X0277326Y0113235D03*
X0298192Y0080165D03*
X0298192Y0113235D03*
D15*
X0276342Y0090401D03*
X0276342Y0093550D03*
X0276342Y0096700D03*
X0276342Y0099850D03*
X0276342Y0102999D03*
D16*
X0071473Y0141127D03*
X0068127Y0141127D03*
X0068127Y0144473D03*
X0071473Y0144473D03*
X0094873Y0141327D03*
X0091527Y0141327D03*
X0091527Y0144673D03*
X0094873Y0144673D03*
X0118073Y0140427D03*
X0114727Y0140427D03*
X0114727Y0143773D03*
X0118073Y0143773D03*
D17*
X0139800Y0019459D03*
X0139800Y0014341D03*
X0133800Y0024759D03*
X0133800Y0019641D03*
X0213100Y0148759D03*
X0213100Y0143641D03*
X0146200Y0014441D03*
X0146200Y0019559D03*
X0169500Y0068459D03*
X0169500Y0063341D03*
X0189800Y0062359D03*
X0189800Y0057241D03*
X0119200Y0030659D03*
X0119200Y0025541D03*
X0109200Y0030559D03*
X0109200Y0025441D03*
X0104200Y0030459D03*
X0104200Y0025341D03*
X0099200Y0030559D03*
X0099200Y0025441D03*
X0054400Y0030359D03*
X0054400Y0025241D03*
X0114800Y0156659D03*
X0114800Y0151541D03*
X0120400Y0156759D03*
X0120400Y0151641D03*
X0109000Y0156759D03*
X0109000Y0151641D03*
X0091500Y0156859D03*
X0091500Y0151741D03*
X0097300Y0156759D03*
X0097300Y0151641D03*
X0085900Y0156959D03*
X0085900Y0151841D03*
X0068100Y0157059D03*
X0068100Y0151941D03*
X0073800Y0156959D03*
X0073800Y0151841D03*
X0062000Y0157059D03*
X0062000Y0151941D03*
X0259900Y0110559D03*
X0259900Y0105441D03*
X0214600Y0119241D03*
X0214600Y0124359D03*
X0231900Y0112959D03*
X0231900Y0107841D03*
X0243300Y0046341D03*
X0243300Y0051459D03*
X0240500Y0035159D03*
X0240500Y0030041D03*
X0227500Y0046041D03*
X0227500Y0051159D03*
X0288900Y0033441D03*
X0288900Y0038559D03*
X0238600Y0051459D03*
X0238600Y0046341D03*
X0221400Y0035259D03*
X0221400Y0030141D03*
X0228400Y0024059D03*
X0228400Y0018941D03*
X0303400Y0043559D03*
X0303400Y0038441D03*
X0297600Y0038541D03*
X0297600Y0043659D03*
D18*
X0239359Y0091700D03*
X0234241Y0091700D03*
X0182341Y0145900D03*
X0187459Y0145900D03*
X0181041Y0132000D03*
X0186159Y0132000D03*
X0049841Y0161900D03*
X0054959Y0161900D03*
X0050059Y0145400D03*
X0044941Y0145400D03*
X0258241Y0090400D03*
X0263359Y0090400D03*
X0218259Y0132800D03*
X0213141Y0132800D03*
X0233559Y0132900D03*
X0228441Y0132900D03*
X0281559Y0127100D03*
X0276441Y0127100D03*
X0276441Y0132400D03*
X0281559Y0132400D03*
X0254459Y0127500D03*
X0249341Y0127500D03*
X0233559Y0035200D03*
X0228441Y0035200D03*
X0236041Y0024100D03*
X0241159Y0024100D03*
X0241159Y0019000D03*
X0236041Y0019000D03*
X0228441Y0030200D03*
X0233559Y0030200D03*
D19*
X0179960Y0138600D03*
X0187440Y0138600D03*
X0049940Y0153800D03*
X0042460Y0153800D03*
X0249340Y0079400D03*
X0241860Y0079400D03*
X0278160Y0063900D03*
X0285640Y0063900D03*
X0236240Y0011100D03*
X0228760Y0011100D03*
X0243440Y0062800D03*
X0235960Y0062800D03*
D20*
X0079200Y0032740D03*
X0079200Y0025260D03*
X0258800Y0020540D03*
X0258800Y0013060D03*
X0297600Y0028740D03*
X0297600Y0021260D03*
D21*
X0249400Y0105420D03*
X0249400Y0120380D03*
D22*
X0223500Y0124368D03*
X0223500Y0107832D03*
D23*
X0252320Y0044521D03*
X0252320Y0042553D03*
X0252320Y0040584D03*
X0252320Y0038616D03*
X0252320Y0036647D03*
X0252320Y0034679D03*
X0267280Y0034679D03*
X0267280Y0036647D03*
X0267280Y0038616D03*
X0267280Y0040584D03*
X0267280Y0042553D03*
X0267280Y0044521D03*
D24*
X0254879Y0032120D03*
X0256847Y0032120D03*
X0258816Y0032120D03*
X0260784Y0032120D03*
X0262753Y0032120D03*
X0264721Y0032120D03*
X0264721Y0047080D03*
X0262753Y0047080D03*
X0260784Y0047080D03*
X0258816Y0047080D03*
X0256847Y0047080D03*
X0254879Y0047080D03*
D25*
X0259800Y0039600D03*
D26*
X0284200Y0053131D03*
X0287940Y0044469D03*
X0280460Y0044469D03*
D27*
X0292840Y0141142D03*
X0292840Y0158858D03*
X0260360Y0141142D03*
X0260360Y0158858D03*
X0252740Y0141142D03*
X0252740Y0158858D03*
X0220260Y0141142D03*
X0220260Y0158858D03*
D28*
X0196100Y0038189D03*
X0201100Y0038189D03*
X0206100Y0038189D03*
X0211100Y0038189D03*
X0211100Y0061811D03*
X0206100Y0061811D03*
X0201100Y0061811D03*
X0196100Y0061811D03*
D29*
X0203600Y0050000D03*
D30*
X0253107Y0063800D03*
X0266493Y0063800D03*
D31*
X0280200Y0024093D03*
X0280200Y0010707D03*
D32*
X0140000Y0090000D03*
X0140000Y0085000D03*
X0140000Y0080000D03*
X0140000Y0075000D03*
X0140000Y0070000D03*
X0140000Y0065000D03*
X0140000Y0060000D03*
X0140000Y0055000D03*
X0140000Y0050000D03*
X0140000Y0045000D03*
X0140000Y0040000D03*
X0140000Y0035000D03*
M02*
