G75*
%MOIN*%
%OFA0B0*%
%FSLAX25Y25*%
%IPPOS*%
%LPD*%
%AMOC8*
5,1,8,0,0,1.08239X$1,22.5*
%
%ADD10R,0.02559X0.03150*%
%ADD11R,0.05906X0.01181*%
%ADD12R,0.01181X0.05906*%
%ADD13R,0.08661X0.09843*%
%ADD14R,0.07874X0.01969*%
%ADD15R,0.01772X0.01772*%
%ADD16R,0.10950X0.10950*%
%ADD17C,0.06000*%
%ADD18R,0.03543X0.02756*%
%ADD19R,0.02756X0.03543*%
%ADD20R,0.05118X0.05906*%
%ADD21R,0.05906X0.05118*%
%ADD22R,0.09055X0.06299*%
%ADD23R,0.08661X0.05118*%
%ADD24R,0.02756X0.00984*%
%ADD25R,0.00984X0.02756*%
%ADD26R,0.09646X0.09646*%
%ADD27R,0.03937X0.05512*%
%ADD28R,0.06102X0.05118*%
%ADD29R,0.01575X0.02362*%
%ADD30R,0.13386X0.15748*%
%ADD31R,0.08268X0.19291*%
%ADD32R,0.19291X0.08268*%
%ADD33R,0.05000X0.02500*%
%ADD34C,0.02800*%
%ADD35C,0.03962*%
D10*
X0119213Y0126339D03*
X0114213Y0126339D03*
X0109213Y0126339D03*
X0104213Y0126339D03*
X0099213Y0126339D03*
X0094213Y0126339D03*
X0089213Y0126339D03*
X0084213Y0126339D03*
X0079213Y0126339D03*
X0074213Y0126339D03*
X0069213Y0126339D03*
X0064213Y0126339D03*
X0059213Y0126339D03*
X0054213Y0126339D03*
X0049213Y0126339D03*
X0044213Y0126339D03*
X0039213Y0126339D03*
X0034213Y0126339D03*
X0034213Y0043661D03*
X0039213Y0043661D03*
X0044213Y0043661D03*
X0049213Y0043661D03*
X0054213Y0043661D03*
X0059213Y0043661D03*
X0064213Y0043661D03*
X0069213Y0043661D03*
X0074213Y0043661D03*
X0079213Y0043661D03*
X0084213Y0043661D03*
X0089213Y0043661D03*
X0094213Y0043661D03*
X0099213Y0043661D03*
X0104213Y0043661D03*
X0109213Y0043661D03*
X0114213Y0043661D03*
X0119213Y0043661D03*
D11*
X0168462Y0109764D03*
X0168462Y0107795D03*
X0168462Y0105827D03*
X0168462Y0103858D03*
X0168462Y0101890D03*
X0168462Y0099921D03*
X0168462Y0097953D03*
X0168462Y0095984D03*
X0168462Y0094016D03*
X0168462Y0092047D03*
X0168462Y0090079D03*
X0168462Y0088110D03*
X0168462Y0086142D03*
X0168462Y0084173D03*
X0168462Y0082205D03*
X0168462Y0080236D03*
X0213738Y0080236D03*
X0213738Y0082205D03*
X0213738Y0084173D03*
X0213738Y0086142D03*
X0213738Y0088110D03*
X0213738Y0090079D03*
X0213738Y0092047D03*
X0213738Y0094016D03*
X0213738Y0095984D03*
X0213738Y0097953D03*
X0213738Y0099921D03*
X0213738Y0101890D03*
X0213738Y0103858D03*
X0213738Y0105827D03*
X0213738Y0107795D03*
X0213738Y0109764D03*
D12*
X0176336Y0072362D03*
X0178305Y0072362D03*
X0180273Y0072362D03*
X0182242Y0072362D03*
X0184210Y0072362D03*
X0186179Y0072362D03*
X0188147Y0072362D03*
X0190116Y0072362D03*
X0192084Y0072362D03*
X0194053Y0072362D03*
X0196021Y0072362D03*
X0197990Y0072362D03*
X0199958Y0072362D03*
X0201927Y0072362D03*
X0203895Y0072362D03*
X0205864Y0072362D03*
X0205864Y0117638D03*
X0203895Y0117638D03*
X0201927Y0117638D03*
X0199958Y0117638D03*
X0197990Y0117638D03*
X0196021Y0117638D03*
X0194053Y0117638D03*
X0192084Y0117638D03*
X0190116Y0117638D03*
X0188147Y0117638D03*
X0186179Y0117638D03*
X0184210Y0117638D03*
X0182242Y0117638D03*
X0180273Y0117638D03*
X0178305Y0117638D03*
X0176336Y0117638D03*
D13*
X0277326Y0080165D03*
X0277326Y0113235D03*
X0298192Y0080165D03*
X0298192Y0113235D03*
D14*
X0276342Y0090401D03*
X0276342Y0093550D03*
X0276342Y0096700D03*
X0276342Y0099850D03*
X0276342Y0102999D03*
D15*
X0071473Y0141127D03*
X0068127Y0141127D03*
X0068127Y0144473D03*
X0071473Y0144473D03*
X0094873Y0141327D03*
X0091527Y0141327D03*
X0091527Y0144673D03*
X0094873Y0144673D03*
X0118073Y0140427D03*
X0114727Y0140427D03*
X0114727Y0143773D03*
X0118073Y0143773D03*
D16*
X0168400Y0036300D03*
X0168400Y0136300D03*
D17*
X0155300Y0019500D03*
X0165300Y0018500D03*
X0175300Y0019500D03*
X0185300Y0018500D03*
X0195300Y0019500D03*
X0205300Y0018500D03*
D18*
X0139800Y0019459D03*
X0139800Y0014341D03*
X0133800Y0024759D03*
X0133800Y0019641D03*
X0213100Y0148759D03*
X0213100Y0143641D03*
X0146200Y0014441D03*
X0146200Y0019559D03*
X0169500Y0068459D03*
X0169500Y0063341D03*
X0189800Y0062359D03*
X0189800Y0057241D03*
X0119200Y0030659D03*
X0119200Y0025541D03*
X0109200Y0030559D03*
X0109200Y0025441D03*
X0104200Y0030459D03*
X0104200Y0025341D03*
X0099200Y0030559D03*
X0099200Y0025441D03*
X0054400Y0030359D03*
X0054400Y0025241D03*
X0114800Y0156659D03*
X0114800Y0151541D03*
X0120400Y0156759D03*
X0120400Y0151641D03*
X0109000Y0156759D03*
X0109000Y0151641D03*
X0091500Y0156859D03*
X0091500Y0151741D03*
X0097300Y0156759D03*
X0097300Y0151641D03*
X0085900Y0156959D03*
X0085900Y0151841D03*
X0068100Y0157059D03*
X0068100Y0151941D03*
X0073800Y0156959D03*
X0073800Y0151841D03*
X0062000Y0157059D03*
X0062000Y0151941D03*
X0259900Y0110559D03*
X0259900Y0105441D03*
X0214600Y0119241D03*
X0214600Y0124359D03*
X0231900Y0112959D03*
X0231900Y0107841D03*
X0243300Y0046341D03*
X0243300Y0051459D03*
X0240500Y0035159D03*
X0240500Y0030041D03*
X0227500Y0046041D03*
X0227500Y0051159D03*
X0288900Y0033441D03*
X0288900Y0038559D03*
X0238600Y0051459D03*
X0238600Y0046341D03*
X0221400Y0035259D03*
X0221400Y0030141D03*
X0228400Y0024059D03*
X0228400Y0018941D03*
X0303400Y0043559D03*
X0303400Y0038441D03*
X0297600Y0038541D03*
X0297600Y0043659D03*
D19*
X0239359Y0091700D03*
X0234241Y0091700D03*
X0182341Y0145900D03*
X0187459Y0145900D03*
X0181041Y0132000D03*
X0186159Y0132000D03*
X0049841Y0161900D03*
X0054959Y0161900D03*
X0050059Y0145400D03*
X0044941Y0145400D03*
X0258241Y0090400D03*
X0263359Y0090400D03*
X0218259Y0132800D03*
X0213141Y0132800D03*
X0233559Y0132900D03*
X0228441Y0132900D03*
X0281559Y0127100D03*
X0276441Y0127100D03*
X0276441Y0132400D03*
X0281559Y0132400D03*
X0254459Y0127500D03*
X0249341Y0127500D03*
X0233559Y0035200D03*
X0228441Y0035200D03*
X0236041Y0024100D03*
X0241159Y0024100D03*
X0241159Y0019000D03*
X0236041Y0019000D03*
X0228441Y0030200D03*
X0233559Y0030200D03*
D20*
X0179960Y0138600D03*
X0187440Y0138600D03*
X0049940Y0153800D03*
X0042460Y0153800D03*
X0249340Y0079400D03*
X0241860Y0079400D03*
X0278160Y0063900D03*
X0285640Y0063900D03*
X0236240Y0011100D03*
X0228760Y0011100D03*
X0243440Y0062800D03*
X0235960Y0062800D03*
D21*
X0079200Y0032740D03*
X0079200Y0025260D03*
X0258800Y0020540D03*
X0258800Y0013060D03*
X0297600Y0028740D03*
X0297600Y0021260D03*
D22*
X0249400Y0105420D03*
X0249400Y0120380D03*
D23*
X0223500Y0124368D03*
X0223500Y0107832D03*
D24*
X0252320Y0044521D03*
X0252320Y0042553D03*
X0252320Y0040584D03*
X0252320Y0038616D03*
X0252320Y0036647D03*
X0252320Y0034679D03*
X0267280Y0034679D03*
X0267280Y0036647D03*
X0267280Y0038616D03*
X0267280Y0040584D03*
X0267280Y0042553D03*
X0267280Y0044521D03*
D25*
X0254879Y0032120D03*
X0256847Y0032120D03*
X0258816Y0032120D03*
X0260784Y0032120D03*
X0262753Y0032120D03*
X0264721Y0032120D03*
X0264721Y0047080D03*
X0262753Y0047080D03*
X0260784Y0047080D03*
X0258816Y0047080D03*
X0256847Y0047080D03*
X0254879Y0047080D03*
D26*
X0259800Y0039600D03*
D27*
X0284200Y0053131D03*
X0287940Y0044469D03*
X0280460Y0044469D03*
D28*
X0292840Y0141142D03*
X0292840Y0158858D03*
X0260360Y0141142D03*
X0260360Y0158858D03*
X0252740Y0141142D03*
X0252740Y0158858D03*
X0220260Y0141142D03*
X0220260Y0158858D03*
D29*
X0196100Y0038189D03*
X0201100Y0038189D03*
X0206100Y0038189D03*
X0211100Y0038189D03*
X0211100Y0061811D03*
X0206100Y0061811D03*
X0201100Y0061811D03*
X0196100Y0061811D03*
D30*
X0203600Y0050000D03*
D31*
X0253107Y0063800D03*
X0266493Y0063800D03*
D32*
X0280200Y0024093D03*
X0280200Y0010707D03*
D33*
X0140000Y0090000D03*
X0140000Y0085000D03*
X0140000Y0080000D03*
X0140000Y0075000D03*
X0140000Y0070000D03*
X0140000Y0065000D03*
X0140000Y0060000D03*
X0140000Y0055000D03*
X0140000Y0050000D03*
X0140000Y0045000D03*
X0140000Y0040000D03*
X0140000Y0035000D03*
D34*
X0033900Y0038500D03*
X0063900Y0039000D03*
X0079100Y0039000D03*
X0119000Y0038300D03*
X0088700Y0038900D03*
X0119200Y0120700D03*
X0244600Y0093100D03*
X0074300Y0121900D03*
X0182300Y0094000D03*
X0201600Y0093900D03*
X0260000Y0115300D03*
X0219400Y0118500D03*
X0231800Y0118500D03*
X0259800Y0039600D03*
X0256900Y0042400D03*
X0262700Y0042300D03*
X0257000Y0036700D03*
X0262700Y0036800D03*
X0266000Y0110100D03*
X0220400Y0146400D03*
X0260300Y0146800D03*
X0292900Y0146800D03*
X0182400Y0150800D03*
X0194400Y0079100D03*
X0291800Y0064000D03*
X0221600Y0025400D03*
X0221500Y0011000D03*
X0264400Y0013000D03*
X0146100Y0009900D03*
X0297600Y0015300D03*
X0215400Y0038200D03*
X0169500Y0072400D03*
X0189800Y0045100D03*
X0284700Y0031400D03*
X0051900Y0140200D03*
X0051900Y0120600D03*
X0230800Y0081400D03*
X0235900Y0068700D03*
X0275800Y0043800D03*
X0177400Y0107700D03*
X0295600Y0053100D03*
X0289000Y0053100D03*
X0130300Y0090200D03*
X0099200Y0090200D03*
X0079900Y0157200D03*
X0126000Y0156759D03*
X0102500Y0156759D03*
X0079300Y0163400D03*
X0095800Y0163400D03*
X0114800Y0163300D03*
X0196600Y0090100D03*
X0190100Y0107900D03*
X0189900Y0050100D03*
X0265300Y0025400D03*
X0243100Y0011100D03*
X0179500Y0088000D03*
X0079500Y0018900D03*
X0119200Y0018700D03*
X0109200Y0019600D03*
X0104300Y0019600D03*
X0099200Y0019600D03*
X0054500Y0018700D03*
X0084200Y0037800D03*
X0139800Y0010400D03*
X0275200Y0121800D03*
X0051800Y0167000D03*
X0181200Y0061100D03*
X0157000Y0108600D03*
X0233600Y0046300D03*
X0186179Y0065921D03*
X0217100Y0050600D03*
X0235100Y0078300D03*
X0250100Y0051000D03*
X0203700Y0160200D03*
X0281900Y0034800D03*
X0205100Y0155500D03*
X0279000Y0031200D03*
X0254800Y0027400D03*
X0198000Y0081200D03*
X0222100Y0073200D03*
X0272900Y0038616D03*
X0243500Y0056600D03*
X0173600Y0060000D03*
D35*
X0147500Y0080000D03*
X0147500Y0065000D03*
X0147500Y0050000D03*
X0147500Y0035000D03*
X0147500Y0085000D03*
X0147500Y0070000D03*
X0147500Y0055000D03*
X0147500Y0040000D03*
X0147500Y0090000D03*
X0147500Y0075000D03*
X0147500Y0060000D03*
X0147500Y0045000D03*
M02*
