G75*
%MOIN*%
%OFA0B0*%
%FSLAX25Y25*%
%IPPOS*%
%LPD*%
%AMOC8*
5,1,8,0,0,1.08239X$1,22.5*
%
%ADD10C,0.00400*%
%ADD11C,0.00500*%
%ADD12C,0.00800*%
%ADD13C,0.00200*%
D10*
X0131100Y0167904D02*
X0131100Y0163300D01*
X0132635Y0164835D01*
X0134169Y0163300D01*
X0134169Y0167904D01*
X0135704Y0166369D02*
X0136471Y0166369D01*
X0136471Y0163300D01*
X0135704Y0163300D02*
X0137239Y0163300D01*
X0136471Y0167904D02*
X0136471Y0168671D01*
X0138773Y0163300D02*
X0138773Y0167904D01*
X0141842Y0167904D01*
X0140308Y0165602D02*
X0138773Y0165602D01*
X0143377Y0166369D02*
X0144144Y0166369D01*
X0144144Y0163300D01*
X0143377Y0163300D02*
X0144912Y0163300D01*
X0144144Y0167904D02*
X0144144Y0168671D01*
X0154120Y0167137D02*
X0153352Y0167904D01*
X0151818Y0167904D01*
X0151050Y0167137D01*
X0151050Y0166369D01*
X0151818Y0165602D01*
X0153352Y0165602D01*
X0154120Y0164835D01*
X0154120Y0164067D01*
X0153352Y0163300D01*
X0151818Y0163300D01*
X0151050Y0164067D01*
X0157956Y0163300D02*
X0156422Y0163300D01*
X0155654Y0164067D01*
X0155654Y0165602D01*
X0156422Y0166369D01*
X0157956Y0166369D01*
X0158724Y0165602D01*
X0158724Y0164835D01*
X0155654Y0164835D01*
X0160258Y0163300D02*
X0160258Y0166369D01*
X0162560Y0166369D01*
X0163327Y0165602D01*
X0163327Y0163300D01*
X0164862Y0163300D02*
X0167164Y0163300D01*
X0167931Y0164067D01*
X0167164Y0164835D01*
X0165629Y0164835D01*
X0164862Y0165602D01*
X0165629Y0166369D01*
X0167931Y0166369D01*
X0170233Y0163300D02*
X0171768Y0163300D01*
X0172535Y0164067D01*
X0172535Y0165602D01*
X0171768Y0166369D01*
X0170233Y0166369D01*
X0169466Y0165602D01*
X0169466Y0164067D01*
X0170233Y0163300D01*
X0174070Y0163300D02*
X0174070Y0166369D01*
X0174070Y0164835D02*
X0175605Y0166369D01*
X0176372Y0166369D01*
X0182510Y0164067D02*
X0182510Y0167137D01*
X0183278Y0167904D01*
X0184812Y0167904D01*
X0185580Y0167137D01*
X0185580Y0164067D01*
X0184812Y0163300D01*
X0183278Y0163300D01*
X0182510Y0164067D01*
X0185580Y0167137D01*
X0187114Y0167137D02*
X0187882Y0167904D01*
X0189416Y0167904D01*
X0190184Y0167137D01*
X0190184Y0166369D01*
X0189416Y0165602D01*
X0190184Y0164835D01*
X0190184Y0164067D01*
X0189416Y0163300D01*
X0187882Y0163300D01*
X0187114Y0164067D01*
X0187114Y0164835D01*
X0187882Y0165602D01*
X0187114Y0166369D01*
X0187114Y0167137D01*
X0187882Y0165602D02*
X0189416Y0165602D01*
X0191718Y0163300D02*
X0194788Y0167904D01*
X0196322Y0166369D02*
X0197857Y0167904D01*
X0197857Y0163300D01*
X0196322Y0163300D02*
X0199392Y0163300D01*
X0203995Y0167904D02*
X0200926Y0167904D01*
X0200926Y0165602D01*
X0202461Y0166369D01*
X0203228Y0166369D01*
X0203995Y0165602D01*
X0203995Y0164067D01*
X0203228Y0163300D01*
X0201693Y0163300D01*
X0200926Y0164067D01*
X0206297Y0168671D02*
X0206297Y0167137D01*
X0205530Y0166369D01*
X0133202Y0155600D02*
X0131667Y0155600D01*
X0130900Y0156367D01*
X0130900Y0157902D01*
X0131667Y0158669D01*
X0133202Y0158669D01*
X0133969Y0157902D01*
X0133969Y0157135D01*
X0130900Y0157135D01*
X0135504Y0160204D02*
X0136271Y0160204D01*
X0136271Y0155600D01*
X0135504Y0155600D02*
X0137039Y0155600D01*
X0140875Y0155600D02*
X0139341Y0155600D01*
X0138573Y0156367D01*
X0138573Y0157902D01*
X0139341Y0158669D01*
X0140875Y0158669D01*
X0141642Y0157902D01*
X0141642Y0157135D01*
X0138573Y0157135D01*
X0146246Y0158669D02*
X0143944Y0158669D01*
X0143177Y0157902D01*
X0143177Y0156367D01*
X0143944Y0155600D01*
X0146246Y0155600D01*
X0147781Y0157902D02*
X0150850Y0157902D01*
X0152385Y0158669D02*
X0152385Y0155600D01*
X0152385Y0157135D02*
X0153920Y0158669D01*
X0154687Y0158669D01*
X0158524Y0155600D02*
X0156989Y0155600D01*
X0156222Y0156367D01*
X0156222Y0157902D01*
X0156989Y0158669D01*
X0158524Y0158669D01*
X0159291Y0157902D01*
X0159291Y0157135D01*
X0156222Y0157135D01*
X0161593Y0158669D02*
X0163127Y0158669D01*
X0163895Y0157902D01*
X0163895Y0155600D01*
X0161593Y0155600D01*
X0160826Y0156367D01*
X0161593Y0157135D01*
X0163895Y0157135D01*
X0165429Y0160204D02*
X0166197Y0160204D01*
X0166197Y0155600D01*
X0166964Y0155600D02*
X0165429Y0155600D01*
X0168499Y0155600D02*
X0168499Y0156367D01*
X0169266Y0156367D01*
X0169266Y0155600D01*
X0168499Y0155600D01*
X0173870Y0158669D02*
X0171568Y0158669D01*
X0170801Y0157902D01*
X0170801Y0156367D01*
X0171568Y0155600D01*
X0173870Y0155600D01*
X0176172Y0155600D02*
X0177707Y0155600D01*
X0178474Y0156367D01*
X0178474Y0157902D01*
X0177707Y0158669D01*
X0176172Y0158669D01*
X0175405Y0157902D01*
X0175405Y0156367D01*
X0176172Y0155600D01*
X0180009Y0155600D02*
X0180009Y0158669D01*
X0180776Y0158669D01*
X0181543Y0157902D01*
X0181543Y0155600D01*
X0181543Y0157902D02*
X0182310Y0158669D01*
X0183078Y0157902D01*
X0183078Y0155600D01*
X0071661Y0075915D02*
X0067057Y0075915D01*
X0068591Y0077450D01*
X0067057Y0078984D01*
X0071661Y0078984D01*
X0067057Y0082821D02*
X0067057Y0081286D01*
X0067824Y0080519D01*
X0070893Y0080519D01*
X0071661Y0081286D01*
X0071661Y0082821D01*
X0070893Y0083588D01*
X0067824Y0083588D01*
X0067057Y0082821D01*
X0067057Y0085123D02*
X0071661Y0085123D01*
X0071661Y0087425D01*
X0070893Y0088192D01*
X0067824Y0088192D01*
X0067057Y0087425D01*
X0067057Y0085123D01*
X0068591Y0089727D02*
X0067057Y0091261D01*
X0071661Y0091261D01*
X0071661Y0089727D02*
X0071661Y0092796D01*
X0191109Y0099359D02*
X0192644Y0099359D01*
X0191877Y0099359D02*
X0191877Y0103963D01*
X0192644Y0103963D02*
X0191109Y0103963D01*
X0197248Y0103196D02*
X0196481Y0103963D01*
X0194946Y0103963D01*
X0194179Y0103196D01*
X0194179Y0100126D01*
X0194946Y0099359D01*
X0196481Y0099359D01*
X0197248Y0100126D01*
X0201852Y0099359D02*
X0198783Y0099359D01*
X0201852Y0102428D01*
X0201852Y0103196D01*
X0201085Y0103963D01*
X0199550Y0103963D01*
X0198783Y0103196D01*
X0310204Y0081716D02*
X0275156Y0081716D01*
X0275156Y0086683D01*
X0275156Y0086684D02*
X0275158Y0086756D01*
X0275163Y0086829D01*
X0275172Y0086901D01*
X0275185Y0086973D01*
X0275202Y0087043D01*
X0275222Y0087113D01*
X0275245Y0087182D01*
X0275272Y0087250D01*
X0275303Y0087316D01*
X0275336Y0087380D01*
X0275373Y0087443D01*
X0275413Y0087504D01*
X0275456Y0087562D01*
X0275502Y0087619D01*
X0275551Y0087673D01*
X0275602Y0087724D01*
X0275656Y0087773D01*
X0275713Y0087819D01*
X0275771Y0087862D01*
X0275832Y0087902D01*
X0275895Y0087939D01*
X0275959Y0087972D01*
X0276025Y0088003D01*
X0276093Y0088030D01*
X0276162Y0088053D01*
X0276232Y0088073D01*
X0276302Y0088090D01*
X0276374Y0088103D01*
X0276446Y0088112D01*
X0276519Y0088117D01*
X0276591Y0088119D01*
X0278689Y0088119D01*
X0278854Y0105283D02*
X0276536Y0105283D01*
X0276464Y0105285D01*
X0276392Y0105291D01*
X0276320Y0105300D01*
X0276249Y0105313D01*
X0276179Y0105330D01*
X0276110Y0105350D01*
X0276042Y0105375D01*
X0275975Y0105402D01*
X0275910Y0105433D01*
X0275846Y0105468D01*
X0275784Y0105506D01*
X0275725Y0105547D01*
X0275668Y0105591D01*
X0275613Y0105637D01*
X0275560Y0105687D01*
X0275510Y0105740D01*
X0275464Y0105795D01*
X0275420Y0105852D01*
X0275379Y0105911D01*
X0275341Y0105973D01*
X0275306Y0106037D01*
X0275275Y0106102D01*
X0275248Y0106169D01*
X0275223Y0106237D01*
X0275203Y0106306D01*
X0275186Y0106376D01*
X0275173Y0106447D01*
X0275164Y0106519D01*
X0275158Y0106591D01*
X0275156Y0106663D01*
X0275156Y0111686D01*
X0295964Y0111686D01*
X0310204Y0111686D01*
X0310204Y0081716D01*
X0275156Y0111686D02*
X0275156Y0115384D01*
X0275158Y0115432D01*
X0275163Y0115479D01*
X0275172Y0115526D01*
X0275185Y0115572D01*
X0275202Y0115617D01*
X0275222Y0115660D01*
X0275245Y0115702D01*
X0275271Y0115741D01*
X0275301Y0115779D01*
X0275333Y0115814D01*
X0275368Y0115846D01*
X0275406Y0115876D01*
X0275446Y0115902D01*
X0275487Y0115926D01*
X0275531Y0115945D01*
X0275575Y0115962D01*
X0275621Y0115975D01*
X0275668Y0115984D01*
X0275716Y0115989D01*
X0275763Y0115991D01*
X0275764Y0115991D01*
X0275763Y0115991D02*
X0275812Y0115989D01*
X0275862Y0115984D01*
X0275910Y0115974D01*
X0275958Y0115962D01*
X0276005Y0115945D01*
X0276050Y0115925D01*
X0276094Y0115902D01*
X0276136Y0115876D01*
X0276176Y0115847D01*
X0276213Y0115814D01*
X0276248Y0115779D01*
X0276281Y0115742D01*
X0276310Y0115702D01*
X0276336Y0115660D01*
X0276359Y0115616D01*
X0276379Y0115571D01*
X0276396Y0115524D01*
X0276408Y0115476D01*
X0276418Y0115428D01*
X0276423Y0115378D01*
X0276425Y0115329D01*
X0276426Y0115329D02*
X0276426Y0114722D01*
X0276425Y0114721D02*
X0276427Y0114663D01*
X0276432Y0114606D01*
X0276442Y0114549D01*
X0276455Y0114492D01*
X0276472Y0114437D01*
X0276492Y0114383D01*
X0276516Y0114330D01*
X0276543Y0114279D01*
X0276573Y0114230D01*
X0276607Y0114183D01*
X0276644Y0114139D01*
X0276683Y0114096D01*
X0276726Y0114057D01*
X0276770Y0114020D01*
X0276817Y0113986D01*
X0276866Y0113956D01*
X0276917Y0113929D01*
X0276970Y0113905D01*
X0277024Y0113885D01*
X0277079Y0113868D01*
X0277136Y0113855D01*
X0277193Y0113845D01*
X0277250Y0113840D01*
X0277308Y0113838D01*
X0277309Y0113839D02*
X0277419Y0113839D01*
X0277477Y0113841D01*
X0277534Y0113847D01*
X0277591Y0113856D01*
X0277648Y0113869D01*
X0277703Y0113886D01*
X0277757Y0113906D01*
X0277810Y0113930D01*
X0277861Y0113957D01*
X0277910Y0113988D01*
X0277957Y0114021D01*
X0278001Y0114058D01*
X0278043Y0114098D01*
X0278083Y0114140D01*
X0278120Y0114184D01*
X0278153Y0114231D01*
X0278184Y0114281D01*
X0278211Y0114331D01*
X0278235Y0114384D01*
X0278255Y0114438D01*
X0278272Y0114493D01*
X0278285Y0114550D01*
X0278294Y0114607D01*
X0278300Y0114664D01*
X0278302Y0114722D01*
X0278302Y0115384D01*
X0278304Y0115432D01*
X0278309Y0115479D01*
X0278319Y0115526D01*
X0278332Y0115572D01*
X0278348Y0115616D01*
X0278368Y0115660D01*
X0278391Y0115701D01*
X0278418Y0115741D01*
X0278447Y0115778D01*
X0278480Y0115813D01*
X0278515Y0115846D01*
X0278552Y0115875D01*
X0278592Y0115902D01*
X0278633Y0115925D01*
X0278677Y0115945D01*
X0278721Y0115961D01*
X0278767Y0115974D01*
X0278814Y0115984D01*
X0278861Y0115989D01*
X0278909Y0115991D01*
X0278958Y0115989D01*
X0279008Y0115984D01*
X0279056Y0115974D01*
X0279104Y0115962D01*
X0279151Y0115945D01*
X0279196Y0115925D01*
X0279240Y0115902D01*
X0279282Y0115876D01*
X0279322Y0115847D01*
X0279359Y0115814D01*
X0279394Y0115779D01*
X0279427Y0115742D01*
X0279456Y0115702D01*
X0279482Y0115660D01*
X0279505Y0115616D01*
X0279525Y0115571D01*
X0279542Y0115524D01*
X0279554Y0115476D01*
X0279564Y0115428D01*
X0279569Y0115378D01*
X0279571Y0115329D01*
X0279572Y0115329D02*
X0279572Y0111907D01*
X0295964Y0111686D02*
X0295964Y0115384D01*
X0295966Y0115431D01*
X0295971Y0115479D01*
X0295980Y0115526D01*
X0295993Y0115572D01*
X0296010Y0115617D01*
X0296030Y0115660D01*
X0296053Y0115702D01*
X0296079Y0115741D01*
X0296109Y0115779D01*
X0296141Y0115814D01*
X0296176Y0115846D01*
X0296214Y0115876D01*
X0296254Y0115902D01*
X0296295Y0115926D01*
X0296339Y0115946D01*
X0296384Y0115962D01*
X0296430Y0115975D01*
X0296477Y0115984D01*
X0296524Y0115989D01*
X0296572Y0115991D01*
X0296571Y0115991D01*
X0296620Y0115989D01*
X0296670Y0115984D01*
X0296718Y0115974D01*
X0296766Y0115962D01*
X0296813Y0115945D01*
X0296858Y0115925D01*
X0296902Y0115902D01*
X0296944Y0115876D01*
X0296984Y0115847D01*
X0297021Y0115814D01*
X0297056Y0115779D01*
X0297089Y0115742D01*
X0297118Y0115702D01*
X0297144Y0115660D01*
X0297167Y0115616D01*
X0297187Y0115571D01*
X0297204Y0115524D01*
X0297216Y0115476D01*
X0297226Y0115428D01*
X0297231Y0115378D01*
X0297233Y0115329D01*
X0297233Y0114722D01*
X0297233Y0114721D02*
X0297235Y0114663D01*
X0297240Y0114606D01*
X0297250Y0114549D01*
X0297263Y0114492D01*
X0297280Y0114437D01*
X0297300Y0114383D01*
X0297324Y0114330D01*
X0297351Y0114279D01*
X0297381Y0114230D01*
X0297415Y0114183D01*
X0297452Y0114139D01*
X0297491Y0114096D01*
X0297534Y0114057D01*
X0297578Y0114020D01*
X0297625Y0113986D01*
X0297674Y0113956D01*
X0297725Y0113929D01*
X0297778Y0113905D01*
X0297832Y0113885D01*
X0297887Y0113868D01*
X0297944Y0113855D01*
X0298001Y0113845D01*
X0298058Y0113840D01*
X0298116Y0113838D01*
X0298117Y0113839D02*
X0298227Y0113839D01*
X0298228Y0113838D02*
X0298285Y0113840D01*
X0298343Y0113846D01*
X0298400Y0113855D01*
X0298456Y0113868D01*
X0298512Y0113885D01*
X0298566Y0113905D01*
X0298618Y0113929D01*
X0298669Y0113956D01*
X0298718Y0113987D01*
X0298765Y0114020D01*
X0298810Y0114057D01*
X0298852Y0114097D01*
X0298892Y0114139D01*
X0298929Y0114184D01*
X0298962Y0114231D01*
X0298993Y0114280D01*
X0299020Y0114331D01*
X0299044Y0114383D01*
X0299064Y0114437D01*
X0299081Y0114493D01*
X0299094Y0114549D01*
X0299103Y0114606D01*
X0299109Y0114664D01*
X0299111Y0114721D01*
X0299110Y0114722D02*
X0299110Y0115384D01*
X0299112Y0115432D01*
X0299117Y0115479D01*
X0299127Y0115526D01*
X0299140Y0115572D01*
X0299156Y0115616D01*
X0299176Y0115660D01*
X0299199Y0115701D01*
X0299226Y0115741D01*
X0299255Y0115778D01*
X0299288Y0115813D01*
X0299323Y0115846D01*
X0299360Y0115875D01*
X0299400Y0115902D01*
X0299441Y0115925D01*
X0299485Y0115945D01*
X0299529Y0115961D01*
X0299575Y0115974D01*
X0299622Y0115984D01*
X0299669Y0115989D01*
X0299717Y0115991D01*
X0299766Y0115989D01*
X0299816Y0115984D01*
X0299864Y0115974D01*
X0299912Y0115962D01*
X0299959Y0115945D01*
X0300004Y0115925D01*
X0300048Y0115902D01*
X0300090Y0115876D01*
X0300130Y0115847D01*
X0300167Y0115814D01*
X0300202Y0115779D01*
X0300235Y0115742D01*
X0300264Y0115702D01*
X0300290Y0115660D01*
X0300313Y0115616D01*
X0300333Y0115571D01*
X0300350Y0115524D01*
X0300362Y0115476D01*
X0300372Y0115428D01*
X0300377Y0115378D01*
X0300379Y0115329D01*
X0300380Y0115329D02*
X0300380Y0111907D01*
X0300379Y0081717D02*
X0300379Y0078019D01*
X0300379Y0078018D02*
X0300377Y0077971D01*
X0300372Y0077923D01*
X0300363Y0077876D01*
X0300350Y0077830D01*
X0300333Y0077785D01*
X0300313Y0077742D01*
X0300290Y0077700D01*
X0300264Y0077661D01*
X0300234Y0077623D01*
X0300202Y0077588D01*
X0300167Y0077556D01*
X0300129Y0077526D01*
X0300089Y0077500D01*
X0300048Y0077476D01*
X0300004Y0077456D01*
X0299959Y0077440D01*
X0299913Y0077427D01*
X0299866Y0077418D01*
X0299819Y0077413D01*
X0299771Y0077411D01*
X0299772Y0077411D02*
X0299772Y0077411D01*
X0299772Y0077412D02*
X0299723Y0077414D01*
X0299673Y0077419D01*
X0299625Y0077429D01*
X0299577Y0077441D01*
X0299530Y0077458D01*
X0299485Y0077478D01*
X0299441Y0077501D01*
X0299399Y0077527D01*
X0299359Y0077556D01*
X0299322Y0077589D01*
X0299287Y0077624D01*
X0299254Y0077661D01*
X0299225Y0077701D01*
X0299199Y0077743D01*
X0299176Y0077787D01*
X0299156Y0077832D01*
X0299139Y0077879D01*
X0299127Y0077927D01*
X0299117Y0077975D01*
X0299112Y0078025D01*
X0299110Y0078074D01*
X0299110Y0078681D01*
X0299110Y0078680D02*
X0299108Y0078738D01*
X0299103Y0078795D01*
X0299093Y0078852D01*
X0299080Y0078909D01*
X0299063Y0078964D01*
X0299043Y0079018D01*
X0299019Y0079071D01*
X0298992Y0079122D01*
X0298961Y0079171D01*
X0298928Y0079218D01*
X0298891Y0079262D01*
X0298852Y0079305D01*
X0298809Y0079344D01*
X0298765Y0079381D01*
X0298718Y0079414D01*
X0298669Y0079445D01*
X0298618Y0079472D01*
X0298565Y0079496D01*
X0298511Y0079516D01*
X0298456Y0079533D01*
X0298399Y0079546D01*
X0298342Y0079556D01*
X0298285Y0079561D01*
X0298227Y0079563D01*
X0298227Y0079564D02*
X0298116Y0079564D01*
X0298116Y0079563D02*
X0298058Y0079561D01*
X0298001Y0079556D01*
X0297944Y0079546D01*
X0297887Y0079533D01*
X0297832Y0079516D01*
X0297778Y0079496D01*
X0297725Y0079472D01*
X0297674Y0079445D01*
X0297625Y0079414D01*
X0297578Y0079381D01*
X0297534Y0079344D01*
X0297491Y0079305D01*
X0297452Y0079262D01*
X0297415Y0079218D01*
X0297382Y0079171D01*
X0297351Y0079122D01*
X0297324Y0079071D01*
X0297300Y0079018D01*
X0297280Y0078964D01*
X0297263Y0078909D01*
X0297250Y0078852D01*
X0297240Y0078795D01*
X0297235Y0078738D01*
X0297233Y0078680D01*
X0297233Y0078681D02*
X0297233Y0078019D01*
X0297231Y0077971D01*
X0297226Y0077924D01*
X0297216Y0077877D01*
X0297203Y0077831D01*
X0297187Y0077787D01*
X0297167Y0077743D01*
X0297144Y0077702D01*
X0297117Y0077662D01*
X0297088Y0077625D01*
X0297055Y0077590D01*
X0297020Y0077557D01*
X0296983Y0077528D01*
X0296943Y0077501D01*
X0296902Y0077478D01*
X0296858Y0077458D01*
X0296814Y0077442D01*
X0296768Y0077429D01*
X0296721Y0077419D01*
X0296674Y0077414D01*
X0296626Y0077412D01*
X0296577Y0077414D01*
X0296527Y0077419D01*
X0296479Y0077429D01*
X0296431Y0077441D01*
X0296384Y0077458D01*
X0296339Y0077478D01*
X0296295Y0077501D01*
X0296253Y0077527D01*
X0296213Y0077556D01*
X0296176Y0077589D01*
X0296141Y0077624D01*
X0296108Y0077661D01*
X0296079Y0077701D01*
X0296053Y0077743D01*
X0296030Y0077787D01*
X0296010Y0077832D01*
X0295993Y0077879D01*
X0295981Y0077927D01*
X0295971Y0077975D01*
X0295966Y0078025D01*
X0295964Y0078074D01*
X0295964Y0081496D01*
X0279571Y0081717D02*
X0279571Y0078019D01*
X0279572Y0078019D02*
X0279570Y0077971D01*
X0279565Y0077923D01*
X0279555Y0077877D01*
X0279543Y0077831D01*
X0279526Y0077786D01*
X0279506Y0077742D01*
X0279483Y0077701D01*
X0279456Y0077661D01*
X0279427Y0077623D01*
X0279394Y0077588D01*
X0279359Y0077556D01*
X0279322Y0077526D01*
X0279282Y0077500D01*
X0279240Y0077477D01*
X0279197Y0077457D01*
X0279152Y0077440D01*
X0279106Y0077427D01*
X0279059Y0077418D01*
X0279012Y0077413D01*
X0278964Y0077411D01*
X0278964Y0077411D01*
X0278964Y0077412D02*
X0278915Y0077414D01*
X0278865Y0077419D01*
X0278817Y0077429D01*
X0278769Y0077441D01*
X0278722Y0077458D01*
X0278677Y0077478D01*
X0278633Y0077501D01*
X0278591Y0077527D01*
X0278551Y0077556D01*
X0278514Y0077589D01*
X0278479Y0077624D01*
X0278446Y0077661D01*
X0278417Y0077701D01*
X0278391Y0077743D01*
X0278368Y0077787D01*
X0278348Y0077832D01*
X0278331Y0077879D01*
X0278319Y0077927D01*
X0278309Y0077975D01*
X0278304Y0078025D01*
X0278302Y0078074D01*
X0278302Y0078681D01*
X0278300Y0078739D01*
X0278294Y0078796D01*
X0278285Y0078853D01*
X0278272Y0078910D01*
X0278255Y0078965D01*
X0278235Y0079019D01*
X0278211Y0079072D01*
X0278184Y0079123D01*
X0278153Y0079172D01*
X0278120Y0079219D01*
X0278083Y0079263D01*
X0278043Y0079305D01*
X0278001Y0079345D01*
X0277957Y0079382D01*
X0277910Y0079415D01*
X0277861Y0079446D01*
X0277810Y0079473D01*
X0277757Y0079497D01*
X0277703Y0079517D01*
X0277648Y0079534D01*
X0277591Y0079547D01*
X0277534Y0079556D01*
X0277477Y0079562D01*
X0277419Y0079564D01*
X0277308Y0079564D01*
X0277251Y0079562D01*
X0277193Y0079556D01*
X0277136Y0079547D01*
X0277080Y0079534D01*
X0277024Y0079517D01*
X0276970Y0079497D01*
X0276918Y0079473D01*
X0276867Y0079446D01*
X0276818Y0079415D01*
X0276771Y0079382D01*
X0276726Y0079345D01*
X0276684Y0079305D01*
X0276644Y0079263D01*
X0276607Y0079218D01*
X0276574Y0079171D01*
X0276543Y0079122D01*
X0276516Y0079071D01*
X0276492Y0079019D01*
X0276472Y0078965D01*
X0276455Y0078909D01*
X0276442Y0078853D01*
X0276433Y0078796D01*
X0276427Y0078738D01*
X0276425Y0078681D01*
X0276425Y0078019D01*
X0276423Y0077971D01*
X0276418Y0077924D01*
X0276408Y0077877D01*
X0276395Y0077831D01*
X0276379Y0077787D01*
X0276359Y0077743D01*
X0276336Y0077702D01*
X0276309Y0077662D01*
X0276280Y0077625D01*
X0276247Y0077590D01*
X0276212Y0077557D01*
X0276175Y0077528D01*
X0276135Y0077501D01*
X0276094Y0077478D01*
X0276050Y0077458D01*
X0276006Y0077442D01*
X0275960Y0077429D01*
X0275913Y0077419D01*
X0275866Y0077414D01*
X0275818Y0077412D01*
X0275769Y0077414D01*
X0275719Y0077419D01*
X0275671Y0077429D01*
X0275623Y0077441D01*
X0275576Y0077458D01*
X0275531Y0077478D01*
X0275487Y0077501D01*
X0275445Y0077527D01*
X0275405Y0077556D01*
X0275368Y0077589D01*
X0275333Y0077624D01*
X0275300Y0077661D01*
X0275271Y0077701D01*
X0275245Y0077743D01*
X0275222Y0077787D01*
X0275202Y0077832D01*
X0275185Y0077879D01*
X0275173Y0077927D01*
X0275163Y0077975D01*
X0275158Y0078025D01*
X0275156Y0078074D01*
X0275156Y0081772D01*
X0305512Y0081937D02*
X0305512Y0088008D01*
X0305513Y0088009D02*
X0305511Y0088081D01*
X0305505Y0088153D01*
X0305496Y0088225D01*
X0305483Y0088296D01*
X0305466Y0088366D01*
X0305446Y0088435D01*
X0305421Y0088503D01*
X0305394Y0088570D01*
X0305363Y0088635D01*
X0305328Y0088699D01*
X0305290Y0088761D01*
X0305249Y0088820D01*
X0305205Y0088877D01*
X0305159Y0088932D01*
X0305109Y0088985D01*
X0305056Y0089035D01*
X0305001Y0089081D01*
X0304944Y0089125D01*
X0304885Y0089166D01*
X0304823Y0089204D01*
X0304759Y0089239D01*
X0304694Y0089270D01*
X0304627Y0089297D01*
X0304559Y0089322D01*
X0304490Y0089342D01*
X0304420Y0089359D01*
X0304349Y0089372D01*
X0304277Y0089381D01*
X0304205Y0089387D01*
X0304133Y0089389D01*
X0304132Y0089388D02*
X0303967Y0089388D01*
X0289506Y0090050D01*
X0289458Y0090051D01*
X0289411Y0090047D01*
X0289364Y0090039D01*
X0289317Y0090028D01*
X0289272Y0090012D01*
X0289228Y0089993D01*
X0289186Y0089971D01*
X0289145Y0089945D01*
X0289107Y0089915D01*
X0289072Y0089883D01*
X0289039Y0089848D01*
X0289010Y0089811D01*
X0288983Y0089771D01*
X0288960Y0089729D01*
X0288941Y0089685D01*
X0288925Y0089640D01*
X0288913Y0089593D01*
X0288905Y0089546D01*
X0288901Y0089499D01*
X0288900Y0089451D01*
X0288904Y0089403D01*
X0288912Y0089356D01*
X0288923Y0089309D01*
X0288938Y0089264D01*
X0288957Y0089220D01*
X0288980Y0089178D01*
X0289006Y0089137D01*
X0289035Y0089099D01*
X0289067Y0089064D01*
X0289102Y0089031D01*
X0289139Y0089001D01*
X0289179Y0088975D01*
X0289221Y0088952D01*
X0289265Y0088932D01*
X0289310Y0088916D01*
X0289356Y0088904D01*
X0289404Y0088896D01*
X0289451Y0088892D01*
X0289451Y0088891D02*
X0302808Y0088008D01*
X0302869Y0088002D01*
X0302930Y0087992D01*
X0302990Y0087978D01*
X0303050Y0087960D01*
X0303108Y0087939D01*
X0303164Y0087914D01*
X0303219Y0087885D01*
X0303272Y0087853D01*
X0303322Y0087818D01*
X0303371Y0087780D01*
X0303416Y0087738D01*
X0303459Y0087694D01*
X0303499Y0087647D01*
X0303536Y0087597D01*
X0303570Y0087546D01*
X0303601Y0087492D01*
X0303627Y0087436D01*
X0303651Y0087379D01*
X0303670Y0087320D01*
X0303686Y0087261D01*
X0303698Y0087200D01*
X0303706Y0087139D01*
X0303710Y0087077D01*
X0303711Y0087015D01*
X0303707Y0086954D01*
X0303699Y0086892D01*
X0303688Y0086832D01*
X0303672Y0086772D01*
X0303653Y0086713D01*
X0303630Y0086656D01*
X0303604Y0086600D01*
X0303574Y0086546D01*
X0303540Y0086494D01*
X0303504Y0086444D01*
X0303464Y0086397D01*
X0303421Y0086353D01*
X0303376Y0086311D01*
X0303328Y0086272D01*
X0303277Y0086236D01*
X0303225Y0086204D01*
X0303170Y0086175D01*
X0303114Y0086149D01*
X0303056Y0086128D01*
X0302997Y0086110D01*
X0302937Y0086095D01*
X0302876Y0086085D01*
X0302814Y0086079D01*
X0302753Y0086076D01*
X0289341Y0085193D01*
X0289300Y0085189D01*
X0289260Y0085181D01*
X0289221Y0085169D01*
X0289183Y0085155D01*
X0289146Y0085137D01*
X0289111Y0085116D01*
X0289078Y0085092D01*
X0289047Y0085065D01*
X0289019Y0085035D01*
X0288993Y0085004D01*
X0288970Y0084970D01*
X0288950Y0084934D01*
X0288933Y0084897D01*
X0288919Y0084859D01*
X0288909Y0084819D01*
X0288903Y0084779D01*
X0288899Y0084738D01*
X0288900Y0084697D01*
X0288899Y0084697D02*
X0288899Y0081937D01*
X0289065Y0092423D02*
X0288993Y0092425D01*
X0288922Y0092431D01*
X0288851Y0092441D01*
X0288780Y0092454D01*
X0288711Y0092471D01*
X0288642Y0092493D01*
X0288575Y0092517D01*
X0288509Y0092546D01*
X0288445Y0092578D01*
X0288382Y0092613D01*
X0288322Y0092652D01*
X0288263Y0092693D01*
X0288208Y0092738D01*
X0288154Y0092786D01*
X0288103Y0092837D01*
X0288055Y0092891D01*
X0288010Y0092946D01*
X0287969Y0093005D01*
X0287930Y0093065D01*
X0287895Y0093128D01*
X0287863Y0093192D01*
X0287834Y0093258D01*
X0287810Y0093325D01*
X0287788Y0093394D01*
X0287771Y0093463D01*
X0287758Y0093534D01*
X0287748Y0093605D01*
X0287742Y0093676D01*
X0287740Y0093748D01*
X0289065Y0092424D02*
X0304905Y0091596D01*
X0304950Y0091595D01*
X0304994Y0091599D01*
X0305038Y0091606D01*
X0305082Y0091616D01*
X0305124Y0091631D01*
X0305165Y0091649D01*
X0305204Y0091670D01*
X0305241Y0091695D01*
X0305276Y0091722D01*
X0305308Y0091753D01*
X0305338Y0091786D01*
X0305365Y0091822D01*
X0305389Y0091859D01*
X0305409Y0091899D01*
X0305426Y0091940D01*
X0305440Y0091983D01*
X0305450Y0092026D01*
X0305456Y0092070D01*
X0305458Y0092115D01*
X0305457Y0092159D01*
X0305451Y0092204D01*
X0305442Y0092247D01*
X0305430Y0092290D01*
X0305414Y0092331D01*
X0305394Y0092371D01*
X0305371Y0092410D01*
X0305345Y0092446D01*
X0305316Y0092479D01*
X0305284Y0092511D01*
X0305249Y0092539D01*
X0305213Y0092564D01*
X0305174Y0092586D01*
X0305134Y0092605D01*
X0305092Y0092620D01*
X0305049Y0092632D01*
X0305005Y0092640D01*
X0304961Y0092644D01*
X0304960Y0092644D02*
X0292707Y0093307D01*
X0292626Y0093309D01*
X0292544Y0093315D01*
X0292463Y0093324D01*
X0292383Y0093338D01*
X0292304Y0093355D01*
X0292225Y0093376D01*
X0292147Y0093401D01*
X0292071Y0093430D01*
X0291996Y0093462D01*
X0291923Y0093497D01*
X0291852Y0093536D01*
X0291782Y0093579D01*
X0291715Y0093624D01*
X0291649Y0093673D01*
X0291587Y0093725D01*
X0291526Y0093780D01*
X0291469Y0093837D01*
X0291414Y0093898D01*
X0291362Y0093960D01*
X0291313Y0094026D01*
X0291268Y0094093D01*
X0291225Y0094163D01*
X0291186Y0094234D01*
X0291151Y0094307D01*
X0291119Y0094382D01*
X0291090Y0094458D01*
X0291065Y0094536D01*
X0291044Y0094615D01*
X0291027Y0094694D01*
X0291013Y0094774D01*
X0291004Y0094855D01*
X0290998Y0094937D01*
X0290996Y0095018D01*
X0290996Y0098495D01*
X0290998Y0098574D01*
X0291003Y0098652D01*
X0291013Y0098731D01*
X0291026Y0098808D01*
X0291043Y0098885D01*
X0291063Y0098962D01*
X0291087Y0099037D01*
X0291115Y0099110D01*
X0291146Y0099183D01*
X0291180Y0099254D01*
X0291218Y0099323D01*
X0291259Y0099390D01*
X0291303Y0099456D01*
X0291350Y0099519D01*
X0291400Y0099579D01*
X0291453Y0099638D01*
X0291509Y0099694D01*
X0291568Y0099747D01*
X0291628Y0099797D01*
X0291691Y0099844D01*
X0291757Y0099888D01*
X0291824Y0099929D01*
X0291893Y0099967D01*
X0291964Y0100001D01*
X0292037Y0100032D01*
X0292110Y0100060D01*
X0292185Y0100084D01*
X0292262Y0100104D01*
X0292339Y0100121D01*
X0292416Y0100134D01*
X0292495Y0100144D01*
X0292573Y0100149D01*
X0292652Y0100151D01*
X0292928Y0100151D01*
X0304905Y0100703D01*
X0304906Y0100704D02*
X0304952Y0100708D01*
X0304998Y0100716D01*
X0305043Y0100728D01*
X0305087Y0100743D01*
X0305130Y0100763D01*
X0305171Y0100786D01*
X0305209Y0100812D01*
X0305246Y0100841D01*
X0305279Y0100874D01*
X0305310Y0100909D01*
X0305338Y0100947D01*
X0305362Y0100986D01*
X0305383Y0101028D01*
X0305401Y0101072D01*
X0305414Y0101116D01*
X0305424Y0101162D01*
X0305430Y0101208D01*
X0305432Y0101255D01*
X0305430Y0101302D01*
X0305424Y0101348D01*
X0305414Y0101394D01*
X0305401Y0101438D01*
X0305383Y0101482D01*
X0305362Y0101524D01*
X0305338Y0101563D01*
X0305310Y0101601D01*
X0305279Y0101636D01*
X0305246Y0101669D01*
X0305209Y0101698D01*
X0305171Y0101724D01*
X0305130Y0101747D01*
X0305087Y0101767D01*
X0305043Y0101782D01*
X0304998Y0101794D01*
X0304952Y0101802D01*
X0304906Y0101806D01*
X0304905Y0101806D02*
X0289175Y0100979D01*
X0289100Y0100977D01*
X0289025Y0100971D01*
X0288951Y0100961D01*
X0288877Y0100948D01*
X0288804Y0100930D01*
X0288732Y0100909D01*
X0288661Y0100884D01*
X0288591Y0100855D01*
X0288524Y0100823D01*
X0288458Y0100787D01*
X0288393Y0100747D01*
X0288332Y0100705D01*
X0288272Y0100659D01*
X0288215Y0100610D01*
X0288160Y0100559D01*
X0288109Y0100504D01*
X0288060Y0100447D01*
X0288014Y0100387D01*
X0287972Y0100326D01*
X0287932Y0100262D01*
X0287896Y0100195D01*
X0287864Y0100128D01*
X0287835Y0100058D01*
X0287810Y0099987D01*
X0287789Y0099915D01*
X0287771Y0099842D01*
X0287758Y0099768D01*
X0287748Y0099694D01*
X0287742Y0099619D01*
X0287740Y0099544D01*
X0287740Y0093748D01*
X0305512Y0105394D02*
X0305512Y0111465D01*
X0305511Y0105394D02*
X0305509Y0105321D01*
X0305503Y0105249D01*
X0305494Y0105178D01*
X0305481Y0105107D01*
X0305464Y0105037D01*
X0305443Y0104967D01*
X0305419Y0104899D01*
X0305392Y0104833D01*
X0305361Y0104767D01*
X0305326Y0104704D01*
X0305288Y0104642D01*
X0305247Y0104583D01*
X0305203Y0104525D01*
X0305157Y0104471D01*
X0305107Y0104418D01*
X0305054Y0104368D01*
X0305000Y0104322D01*
X0304942Y0104278D01*
X0304883Y0104237D01*
X0304821Y0104199D01*
X0304758Y0104164D01*
X0304692Y0104133D01*
X0304626Y0104106D01*
X0304558Y0104082D01*
X0304488Y0104061D01*
X0304418Y0104044D01*
X0304347Y0104031D01*
X0304276Y0104022D01*
X0304204Y0104016D01*
X0304131Y0104014D01*
X0304132Y0104014D02*
X0303967Y0104014D01*
X0289506Y0103352D01*
X0289506Y0103353D02*
X0289458Y0103352D01*
X0289411Y0103356D01*
X0289364Y0103364D01*
X0289317Y0103375D01*
X0289272Y0103391D01*
X0289228Y0103410D01*
X0289186Y0103432D01*
X0289145Y0103458D01*
X0289107Y0103488D01*
X0289072Y0103520D01*
X0289039Y0103555D01*
X0289010Y0103592D01*
X0288983Y0103632D01*
X0288960Y0103674D01*
X0288941Y0103718D01*
X0288925Y0103763D01*
X0288913Y0103810D01*
X0288905Y0103857D01*
X0288901Y0103904D01*
X0288900Y0103952D01*
X0288904Y0104000D01*
X0288912Y0104047D01*
X0288923Y0104094D01*
X0288938Y0104139D01*
X0288957Y0104183D01*
X0288980Y0104225D01*
X0289006Y0104266D01*
X0289035Y0104304D01*
X0289067Y0104339D01*
X0289102Y0104372D01*
X0289139Y0104402D01*
X0289179Y0104428D01*
X0289221Y0104451D01*
X0289265Y0104471D01*
X0289310Y0104487D01*
X0289356Y0104499D01*
X0289404Y0104507D01*
X0289451Y0104511D01*
X0302807Y0105394D01*
X0302808Y0105394D02*
X0302869Y0105400D01*
X0302930Y0105410D01*
X0302990Y0105424D01*
X0303050Y0105442D01*
X0303108Y0105463D01*
X0303164Y0105488D01*
X0303219Y0105517D01*
X0303272Y0105549D01*
X0303322Y0105584D01*
X0303371Y0105622D01*
X0303416Y0105664D01*
X0303459Y0105708D01*
X0303499Y0105755D01*
X0303536Y0105805D01*
X0303570Y0105856D01*
X0303601Y0105910D01*
X0303627Y0105966D01*
X0303651Y0106023D01*
X0303670Y0106082D01*
X0303686Y0106141D01*
X0303698Y0106202D01*
X0303706Y0106263D01*
X0303710Y0106325D01*
X0303711Y0106387D01*
X0303707Y0106448D01*
X0303699Y0106510D01*
X0303688Y0106570D01*
X0303672Y0106630D01*
X0303653Y0106689D01*
X0303630Y0106746D01*
X0303604Y0106802D01*
X0303574Y0106856D01*
X0303540Y0106908D01*
X0303504Y0106958D01*
X0303464Y0107005D01*
X0303421Y0107049D01*
X0303376Y0107091D01*
X0303328Y0107130D01*
X0303277Y0107166D01*
X0303225Y0107198D01*
X0303170Y0107227D01*
X0303114Y0107253D01*
X0303056Y0107274D01*
X0302997Y0107292D01*
X0302937Y0107307D01*
X0302876Y0107317D01*
X0302814Y0107323D01*
X0302753Y0107326D01*
X0302752Y0107326D02*
X0289341Y0108209D01*
X0289300Y0108213D01*
X0289260Y0108221D01*
X0289221Y0108233D01*
X0289183Y0108247D01*
X0289146Y0108265D01*
X0289111Y0108286D01*
X0289078Y0108310D01*
X0289047Y0108337D01*
X0289019Y0108367D01*
X0288993Y0108398D01*
X0288970Y0108432D01*
X0288950Y0108468D01*
X0288933Y0108505D01*
X0288919Y0108543D01*
X0288909Y0108583D01*
X0288903Y0108623D01*
X0288899Y0108664D01*
X0288900Y0108705D01*
X0288899Y0108706D02*
X0288899Y0111465D01*
X0285100Y0080504D02*
X0288169Y0075900D01*
X0285100Y0075900D02*
X0288169Y0080504D01*
X0289704Y0078969D02*
X0291239Y0080504D01*
X0291239Y0075900D01*
X0292773Y0075900D02*
X0289704Y0075900D01*
X0065071Y0137517D02*
X0065071Y0132913D01*
X0068140Y0132913D01*
X0072744Y0137517D02*
X0069675Y0137517D01*
X0069675Y0132913D01*
X0072744Y0132913D01*
X0071209Y0135215D02*
X0069675Y0135215D01*
X0074279Y0137517D02*
X0074279Y0132913D01*
X0076581Y0132913D01*
X0077348Y0133681D01*
X0077348Y0136750D01*
X0076581Y0137517D01*
X0074279Y0137517D01*
X0078883Y0133681D02*
X0078883Y0136750D01*
X0079650Y0137517D01*
X0081185Y0137517D01*
X0081952Y0136750D01*
X0081952Y0133681D01*
X0081185Y0132913D01*
X0079650Y0132913D01*
X0078883Y0133681D01*
X0081952Y0136750D01*
X0088071Y0137717D02*
X0088071Y0133113D01*
X0091140Y0133113D01*
X0095744Y0137717D02*
X0092675Y0137717D01*
X0092675Y0133113D01*
X0095744Y0133113D01*
X0094209Y0135415D02*
X0092675Y0135415D01*
X0097279Y0137717D02*
X0097279Y0133113D01*
X0099581Y0133113D01*
X0100348Y0133881D01*
X0100348Y0136950D01*
X0099581Y0137717D01*
X0097279Y0137717D01*
X0101883Y0136183D02*
X0103417Y0137717D01*
X0103417Y0133113D01*
X0101883Y0133113D02*
X0104952Y0133113D01*
X0109971Y0137117D02*
X0109971Y0132513D01*
X0113040Y0132513D01*
X0117644Y0137117D02*
X0114575Y0137117D01*
X0114575Y0132513D01*
X0117644Y0132513D01*
X0116109Y0134815D02*
X0114575Y0134815D01*
X0119179Y0137117D02*
X0119179Y0132513D01*
X0121481Y0132513D01*
X0122248Y0133281D01*
X0122248Y0136350D01*
X0121481Y0137117D01*
X0119179Y0137117D01*
X0126852Y0132513D02*
X0123783Y0132513D01*
X0126852Y0135583D01*
X0126852Y0136350D01*
X0126085Y0137117D01*
X0124550Y0137117D01*
X0123783Y0136350D01*
X0155300Y0025667D02*
X0156067Y0024900D01*
X0156835Y0024900D01*
X0157602Y0025667D01*
X0157602Y0029504D01*
X0156835Y0029504D02*
X0158369Y0029504D01*
X0159904Y0024900D02*
X0159904Y0029504D01*
X0162206Y0029504D01*
X0162973Y0028737D01*
X0162973Y0027202D01*
X0162206Y0026435D01*
X0159904Y0026435D01*
X0164508Y0027969D02*
X0166042Y0029504D01*
X0166042Y0024900D01*
X0164508Y0024900D02*
X0167577Y0024900D01*
X0137800Y0024000D02*
X0137800Y0028604D01*
X0140102Y0028604D01*
X0140869Y0027837D01*
X0140869Y0026302D01*
X0140102Y0025535D01*
X0137800Y0025535D01*
X0139335Y0025535D02*
X0140869Y0024000D01*
X0145473Y0024000D02*
X0142404Y0024000D01*
X0145473Y0027069D01*
X0145473Y0027837D01*
X0144706Y0028604D01*
X0143171Y0028604D01*
X0142404Y0027837D01*
X0147008Y0027069D02*
X0148542Y0028604D01*
X0148542Y0024000D01*
X0147008Y0024000D02*
X0150077Y0024000D01*
X0131100Y0029400D02*
X0131100Y0034004D01*
X0133402Y0034004D01*
X0134169Y0033237D01*
X0134169Y0031702D01*
X0133402Y0030935D01*
X0131100Y0030935D01*
X0132635Y0030935D02*
X0134169Y0029400D01*
X0138773Y0029400D02*
X0135704Y0029400D01*
X0138773Y0032469D01*
X0138773Y0033237D01*
X0138006Y0034004D01*
X0136471Y0034004D01*
X0135704Y0033237D01*
X0143377Y0029400D02*
X0140308Y0029400D01*
X0143377Y0032469D01*
X0143377Y0033237D01*
X0142610Y0034004D01*
X0141075Y0034004D01*
X0140308Y0033237D01*
X0211663Y0154769D02*
X0210896Y0154002D01*
X0210896Y0152467D01*
X0211663Y0151700D01*
X0214733Y0151700D01*
X0215500Y0152467D01*
X0215500Y0154002D01*
X0214733Y0154769D01*
X0215500Y0159373D02*
X0215500Y0156304D01*
X0212431Y0159373D01*
X0211663Y0159373D01*
X0210896Y0158606D01*
X0210896Y0157071D01*
X0211663Y0156304D01*
X0212431Y0160908D02*
X0210896Y0162442D01*
X0215500Y0162442D01*
X0215500Y0160908D02*
X0215500Y0163977D01*
X0152269Y0012637D02*
X0151502Y0013404D01*
X0149967Y0013404D01*
X0149200Y0012637D01*
X0149200Y0009567D01*
X0149967Y0008800D01*
X0151502Y0008800D01*
X0152269Y0009567D01*
X0156873Y0008800D02*
X0153804Y0008800D01*
X0156873Y0011869D01*
X0156873Y0012637D01*
X0156106Y0013404D01*
X0154571Y0013404D01*
X0153804Y0012637D01*
X0161477Y0008800D02*
X0158408Y0008800D01*
X0161477Y0011869D01*
X0161477Y0012637D01*
X0160710Y0013404D01*
X0159175Y0013404D01*
X0158408Y0012637D01*
X0175969Y0071937D02*
X0175202Y0072704D01*
X0173667Y0072704D01*
X0172900Y0071937D01*
X0172900Y0068867D01*
X0173667Y0068100D01*
X0175202Y0068100D01*
X0175969Y0068867D01*
X0180573Y0068100D02*
X0177504Y0068100D01*
X0180573Y0071169D01*
X0180573Y0071937D01*
X0179806Y0072704D01*
X0178271Y0072704D01*
X0177504Y0071937D01*
X0182108Y0071937D02*
X0182875Y0072704D01*
X0184410Y0072704D01*
X0185177Y0071937D01*
X0185177Y0071169D01*
X0184410Y0070402D01*
X0183642Y0070402D01*
X0184410Y0070402D02*
X0185177Y0069635D01*
X0185177Y0068867D01*
X0184410Y0068100D01*
X0182875Y0068100D01*
X0182108Y0068867D01*
X0195169Y0068437D02*
X0194402Y0069204D01*
X0192867Y0069204D01*
X0192100Y0068437D01*
X0192100Y0065367D01*
X0192867Y0064600D01*
X0194402Y0064600D01*
X0195169Y0065367D01*
X0199773Y0064600D02*
X0196704Y0064600D01*
X0199773Y0067669D01*
X0199773Y0068437D01*
X0199006Y0069204D01*
X0197471Y0069204D01*
X0196704Y0068437D01*
X0203610Y0064600D02*
X0203610Y0069204D01*
X0201308Y0066902D01*
X0204377Y0066902D01*
X0231957Y0098437D02*
X0231190Y0099204D01*
X0229656Y0099204D01*
X0228888Y0098437D01*
X0228888Y0095367D01*
X0229656Y0094600D01*
X0231190Y0094600D01*
X0231957Y0095367D01*
X0236561Y0094600D02*
X0233492Y0094600D01*
X0236561Y0097669D01*
X0236561Y0098437D01*
X0235794Y0099204D01*
X0234259Y0099204D01*
X0233492Y0098437D01*
X0241165Y0099204D02*
X0238096Y0099204D01*
X0238096Y0096902D01*
X0239631Y0097669D01*
X0240398Y0097669D01*
X0241165Y0096902D01*
X0241165Y0095367D01*
X0240398Y0094600D01*
X0238863Y0094600D01*
X0238096Y0095367D01*
X0196269Y0148137D02*
X0195502Y0148904D01*
X0193967Y0148904D01*
X0193200Y0148137D01*
X0193200Y0145067D01*
X0193967Y0144300D01*
X0195502Y0144300D01*
X0196269Y0145067D01*
X0200873Y0144300D02*
X0197804Y0144300D01*
X0200873Y0147369D01*
X0200873Y0148137D01*
X0200106Y0148904D01*
X0198571Y0148904D01*
X0197804Y0148137D01*
X0205477Y0148904D02*
X0203942Y0148137D01*
X0202408Y0146602D01*
X0202408Y0145067D01*
X0203175Y0144300D01*
X0204710Y0144300D01*
X0205477Y0145067D01*
X0205477Y0145835D01*
X0204710Y0146602D01*
X0202408Y0146602D01*
X0196269Y0140237D02*
X0195502Y0141004D01*
X0193967Y0141004D01*
X0193200Y0140237D01*
X0193200Y0137167D01*
X0193967Y0136400D01*
X0195502Y0136400D01*
X0196269Y0137167D01*
X0200873Y0136400D02*
X0197804Y0136400D01*
X0200873Y0139469D01*
X0200873Y0140237D01*
X0200106Y0141004D01*
X0198571Y0141004D01*
X0197804Y0140237D01*
X0202408Y0141004D02*
X0205477Y0141004D01*
X0205477Y0140237D01*
X0202408Y0137167D01*
X0202408Y0136400D01*
X0194169Y0133937D02*
X0193402Y0134704D01*
X0191867Y0134704D01*
X0191100Y0133937D01*
X0191100Y0130867D01*
X0191867Y0130100D01*
X0193402Y0130100D01*
X0194169Y0130867D01*
X0198773Y0130100D02*
X0195704Y0130100D01*
X0198773Y0133169D01*
X0198773Y0133937D01*
X0198006Y0134704D01*
X0196471Y0134704D01*
X0195704Y0133937D01*
X0200308Y0133937D02*
X0201075Y0134704D01*
X0202610Y0134704D01*
X0203377Y0133937D01*
X0203377Y0133169D01*
X0202610Y0132402D01*
X0203377Y0131635D01*
X0203377Y0130867D01*
X0202610Y0130100D01*
X0201075Y0130100D01*
X0200308Y0130867D01*
X0200308Y0131635D01*
X0201075Y0132402D01*
X0200308Y0133169D01*
X0200308Y0133937D01*
X0201075Y0132402D02*
X0202610Y0132402D01*
X0121800Y0002588D02*
X0117196Y0002588D01*
X0117196Y0004890D01*
X0117963Y0005657D01*
X0119498Y0005657D01*
X0120265Y0004890D01*
X0120265Y0002588D01*
X0120265Y0004123D02*
X0121800Y0005657D01*
X0121800Y0007192D02*
X0117196Y0007192D01*
X0118731Y0008727D01*
X0117196Y0010261D01*
X0121800Y0010261D01*
X0117963Y0011796D02*
X0117196Y0012563D01*
X0117196Y0014098D01*
X0117963Y0014865D01*
X0118731Y0014865D01*
X0119498Y0014098D01*
X0119498Y0013331D01*
X0119498Y0014098D02*
X0120265Y0014865D01*
X0121033Y0014865D01*
X0121800Y0014098D01*
X0121800Y0012563D01*
X0121033Y0011796D01*
X0112700Y0003588D02*
X0108096Y0003588D01*
X0108096Y0005890D01*
X0108863Y0006657D01*
X0110398Y0006657D01*
X0111165Y0005890D01*
X0111165Y0003588D01*
X0111165Y0005123D02*
X0112700Y0006657D01*
X0112700Y0008192D02*
X0108096Y0008192D01*
X0109631Y0009727D01*
X0108096Y0011261D01*
X0112700Y0011261D01*
X0112700Y0015098D02*
X0108096Y0015098D01*
X0110398Y0012796D01*
X0110398Y0015865D01*
X0106600Y0003288D02*
X0101996Y0003288D01*
X0101996Y0005590D01*
X0102763Y0006357D01*
X0104298Y0006357D01*
X0105065Y0005590D01*
X0105065Y0003288D01*
X0105065Y0004823D02*
X0106600Y0006357D01*
X0106600Y0007892D02*
X0101996Y0007892D01*
X0103531Y0009427D01*
X0101996Y0010961D01*
X0106600Y0010961D01*
X0101996Y0015565D02*
X0101996Y0012496D01*
X0104298Y0012496D01*
X0103531Y0014031D01*
X0103531Y0014798D01*
X0104298Y0015565D01*
X0105833Y0015565D01*
X0106600Y0014798D01*
X0106600Y0013263D01*
X0105833Y0012496D01*
X0100000Y0003388D02*
X0095396Y0003388D01*
X0095396Y0005690D01*
X0096163Y0006457D01*
X0097698Y0006457D01*
X0098465Y0005690D01*
X0098465Y0003388D01*
X0098465Y0004923D02*
X0100000Y0006457D01*
X0100000Y0007992D02*
X0095396Y0007992D01*
X0096931Y0009527D01*
X0095396Y0011061D01*
X0100000Y0011061D01*
X0095396Y0015665D02*
X0096163Y0014131D01*
X0097698Y0012596D01*
X0099233Y0012596D01*
X0100000Y0013363D01*
X0100000Y0014898D01*
X0099233Y0015665D01*
X0098465Y0015665D01*
X0097698Y0014898D01*
X0097698Y0012596D01*
X0030688Y0158700D02*
X0030688Y0163304D01*
X0032990Y0163304D01*
X0033757Y0162537D01*
X0033757Y0161002D01*
X0032990Y0160235D01*
X0030688Y0160235D01*
X0032223Y0160235D02*
X0033757Y0158700D01*
X0035292Y0158700D02*
X0035292Y0163304D01*
X0036827Y0161769D01*
X0038361Y0163304D01*
X0038361Y0158700D01*
X0039896Y0161769D02*
X0041431Y0163304D01*
X0041431Y0158700D01*
X0042965Y0158700D02*
X0039896Y0158700D01*
X0037300Y0137400D02*
X0037300Y0142004D01*
X0039602Y0142004D01*
X0040369Y0141237D01*
X0040369Y0139702D01*
X0039602Y0138935D01*
X0037300Y0138935D01*
X0038835Y0138935D02*
X0040369Y0137400D01*
X0041904Y0137400D02*
X0041904Y0142004D01*
X0043439Y0140469D01*
X0044973Y0142004D01*
X0044973Y0137400D01*
X0049577Y0137400D02*
X0046508Y0137400D01*
X0049577Y0140469D01*
X0049577Y0141237D01*
X0048810Y0142004D01*
X0047275Y0142004D01*
X0046508Y0141237D01*
X0054563Y0148557D02*
X0053796Y0147790D01*
X0053796Y0146256D01*
X0054563Y0145488D01*
X0057633Y0145488D01*
X0058400Y0146256D01*
X0058400Y0147790D01*
X0057633Y0148557D01*
X0058400Y0150092D02*
X0053796Y0150092D01*
X0055331Y0151627D01*
X0053796Y0153161D01*
X0058400Y0153161D01*
X0055331Y0154696D02*
X0053796Y0156231D01*
X0058400Y0156231D01*
X0058400Y0157765D02*
X0058400Y0154696D01*
X0086869Y0035137D02*
X0086102Y0035904D01*
X0084567Y0035904D01*
X0083800Y0035137D01*
X0083800Y0032067D01*
X0084567Y0031300D01*
X0086102Y0031300D01*
X0086869Y0032067D01*
X0088404Y0031300D02*
X0088404Y0035904D01*
X0089939Y0034369D01*
X0091473Y0035904D01*
X0091473Y0031300D01*
X0096077Y0031300D02*
X0093008Y0031300D01*
X0096077Y0034369D01*
X0096077Y0035137D01*
X0095310Y0035904D01*
X0093775Y0035904D01*
X0093008Y0035137D01*
X0049500Y0034300D02*
X0049500Y0038904D01*
X0051802Y0038904D01*
X0052569Y0038137D01*
X0052569Y0036602D01*
X0051802Y0035835D01*
X0049500Y0035835D01*
X0051035Y0035835D02*
X0052569Y0034300D01*
X0054104Y0034300D02*
X0054104Y0038904D01*
X0055639Y0037369D01*
X0057173Y0038904D01*
X0057173Y0034300D01*
X0058708Y0038904D02*
X0061777Y0038904D01*
X0061777Y0038137D01*
X0058708Y0035067D01*
X0058708Y0034300D01*
X0255900Y0094000D02*
X0255900Y0098604D01*
X0258202Y0098604D01*
X0258969Y0097837D01*
X0258969Y0096302D01*
X0258202Y0095535D01*
X0255900Y0095535D01*
X0257435Y0095535D02*
X0258969Y0094000D01*
X0263573Y0094000D02*
X0260504Y0094000D01*
X0263573Y0097069D01*
X0263573Y0097837D01*
X0262806Y0098604D01*
X0261271Y0098604D01*
X0260504Y0097837D01*
X0265108Y0094767D02*
X0265108Y0097837D01*
X0265875Y0098604D01*
X0267410Y0098604D01*
X0268177Y0097837D01*
X0268177Y0094767D01*
X0267410Y0094000D01*
X0265875Y0094000D01*
X0265108Y0094767D01*
X0268177Y0097837D01*
X0272781Y0098604D02*
X0271246Y0097837D01*
X0269712Y0096302D01*
X0269712Y0094767D01*
X0270479Y0094000D01*
X0272014Y0094000D01*
X0272781Y0094767D01*
X0272781Y0095535D01*
X0272014Y0096302D01*
X0269712Y0096302D01*
X0220900Y0126500D02*
X0220900Y0131104D01*
X0223202Y0131104D01*
X0223969Y0130337D01*
X0223969Y0128802D01*
X0223202Y0128035D01*
X0220900Y0128035D01*
X0222435Y0128035D02*
X0223969Y0126500D01*
X0228573Y0126500D02*
X0225504Y0126500D01*
X0228573Y0129569D01*
X0228573Y0130337D01*
X0227806Y0131104D01*
X0226271Y0131104D01*
X0225504Y0130337D01*
X0230108Y0127267D02*
X0230108Y0130337D01*
X0230875Y0131104D01*
X0232410Y0131104D01*
X0233177Y0130337D01*
X0233177Y0127267D01*
X0232410Y0126500D01*
X0230875Y0126500D01*
X0230108Y0127267D01*
X0233177Y0130337D01*
X0237014Y0126500D02*
X0237014Y0131104D01*
X0234712Y0128802D01*
X0237781Y0128802D01*
X0228300Y0136600D02*
X0228300Y0141204D01*
X0230602Y0141204D01*
X0231369Y0140437D01*
X0231369Y0138902D01*
X0230602Y0138135D01*
X0228300Y0138135D01*
X0229835Y0138135D02*
X0231369Y0136600D01*
X0235973Y0136600D02*
X0232904Y0136600D01*
X0235973Y0139669D01*
X0235973Y0140437D01*
X0235206Y0141204D01*
X0233671Y0141204D01*
X0232904Y0140437D01*
X0237508Y0137367D02*
X0237508Y0140437D01*
X0238275Y0141204D01*
X0239810Y0141204D01*
X0240577Y0140437D01*
X0240577Y0137367D01*
X0239810Y0136600D01*
X0238275Y0136600D01*
X0237508Y0137367D01*
X0240577Y0140437D01*
X0245181Y0141204D02*
X0242112Y0141204D01*
X0242112Y0138902D01*
X0243646Y0139669D01*
X0244414Y0139669D01*
X0245181Y0138902D01*
X0245181Y0137367D01*
X0244414Y0136600D01*
X0242879Y0136600D01*
X0242112Y0137367D01*
X0276800Y0118900D02*
X0276800Y0123504D01*
X0279102Y0123504D01*
X0279869Y0122737D01*
X0279869Y0121202D01*
X0279102Y0120435D01*
X0276800Y0120435D01*
X0278335Y0120435D02*
X0279869Y0118900D01*
X0284473Y0118900D02*
X0281404Y0118900D01*
X0284473Y0121969D01*
X0284473Y0122737D01*
X0283706Y0123504D01*
X0282171Y0123504D01*
X0281404Y0122737D01*
X0286008Y0119667D02*
X0286008Y0122737D01*
X0286775Y0123504D01*
X0288310Y0123504D01*
X0289077Y0122737D01*
X0289077Y0119667D01*
X0288310Y0118900D01*
X0286775Y0118900D01*
X0286008Y0119667D01*
X0289077Y0122737D01*
X0293681Y0118900D02*
X0290612Y0118900D01*
X0293681Y0121969D01*
X0293681Y0122737D01*
X0292914Y0123504D01*
X0291379Y0123504D01*
X0290612Y0122737D01*
X0286100Y0130100D02*
X0286100Y0134704D01*
X0288402Y0134704D01*
X0289169Y0133937D01*
X0289169Y0132402D01*
X0288402Y0131635D01*
X0286100Y0131635D01*
X0287635Y0131635D02*
X0289169Y0130100D01*
X0293773Y0130100D02*
X0290704Y0130100D01*
X0293773Y0133169D01*
X0293773Y0133937D01*
X0293006Y0134704D01*
X0291471Y0134704D01*
X0290704Y0133937D01*
X0295308Y0130867D02*
X0295308Y0133937D01*
X0296075Y0134704D01*
X0297610Y0134704D01*
X0298377Y0133937D01*
X0298377Y0130867D01*
X0297610Y0130100D01*
X0296075Y0130100D01*
X0295308Y0130867D01*
X0298377Y0133937D01*
X0299912Y0133937D02*
X0300679Y0134704D01*
X0302214Y0134704D01*
X0302981Y0133937D01*
X0302981Y0133169D01*
X0302214Y0132402D01*
X0301446Y0132402D01*
X0302214Y0132402D02*
X0302981Y0131635D01*
X0302981Y0130867D01*
X0302214Y0130100D01*
X0300679Y0130100D01*
X0299912Y0130867D01*
X0114354Y0157812D02*
X0111098Y0161068D01*
X0112726Y0162695D01*
X0113811Y0162695D01*
X0114896Y0161610D01*
X0114896Y0160525D01*
X0113268Y0158897D01*
X0114354Y0159982D02*
X0116524Y0159982D01*
X0119779Y0163238D02*
X0117609Y0161068D01*
X0117609Y0165408D01*
X0117066Y0165951D01*
X0115981Y0165951D01*
X0114896Y0164866D01*
X0114896Y0163780D01*
X0120322Y0164866D02*
X0118152Y0167036D01*
X0118152Y0168121D01*
X0119237Y0169206D01*
X0120322Y0169206D01*
X0122492Y0167036D01*
X0122492Y0165951D01*
X0121407Y0164866D01*
X0120322Y0164866D01*
X0120322Y0169206D01*
X0121950Y0169749D02*
X0121950Y0171919D01*
X0125205Y0168664D01*
X0124120Y0167579D02*
X0126290Y0169749D01*
X0122924Y0159441D02*
X0119669Y0162697D01*
X0121297Y0164325D01*
X0122382Y0164325D01*
X0123467Y0163239D01*
X0123467Y0162154D01*
X0121839Y0160527D01*
X0122924Y0161612D02*
X0125095Y0161612D01*
X0128350Y0164867D02*
X0126180Y0162697D01*
X0126180Y0167037D01*
X0125637Y0167580D01*
X0124552Y0167580D01*
X0123467Y0166495D01*
X0123467Y0165410D01*
X0128893Y0166495D02*
X0129978Y0166495D01*
X0131063Y0167580D01*
X0131063Y0168665D01*
X0128893Y0170836D01*
X0127807Y0170836D01*
X0126722Y0169750D01*
X0126722Y0168665D01*
X0127265Y0168123D01*
X0128350Y0168123D01*
X0129978Y0169750D01*
X0108829Y0159654D02*
X0105574Y0162909D01*
X0107202Y0164537D01*
X0108287Y0164537D01*
X0109372Y0163452D01*
X0109372Y0162366D01*
X0107744Y0160739D01*
X0108829Y0161824D02*
X0111000Y0161824D01*
X0114255Y0165079D02*
X0112085Y0162909D01*
X0112085Y0167250D01*
X0111542Y0167792D01*
X0110457Y0167792D01*
X0109372Y0166707D01*
X0109372Y0165622D01*
X0112627Y0168877D02*
X0112627Y0169963D01*
X0113712Y0171048D01*
X0114798Y0171048D01*
X0115340Y0170505D01*
X0115340Y0169420D01*
X0116425Y0169420D01*
X0116968Y0168877D01*
X0116968Y0167792D01*
X0115883Y0166707D01*
X0114798Y0166707D01*
X0114255Y0167250D01*
X0114255Y0168335D01*
X0113170Y0168335D01*
X0112627Y0168877D01*
X0114255Y0168335D02*
X0115340Y0169420D01*
X0089439Y0158495D02*
X0086184Y0161750D01*
X0087812Y0163378D01*
X0088897Y0163378D01*
X0089982Y0162293D01*
X0089982Y0161208D01*
X0088354Y0159580D01*
X0089439Y0160665D02*
X0091610Y0160665D01*
X0094865Y0163921D02*
X0092695Y0161750D01*
X0092695Y0166091D01*
X0092152Y0166634D01*
X0091067Y0166634D01*
X0089982Y0165548D01*
X0089982Y0164463D01*
X0095408Y0165548D02*
X0093237Y0167719D01*
X0093237Y0168804D01*
X0094323Y0169889D01*
X0095408Y0169889D01*
X0097578Y0167719D01*
X0097578Y0166634D01*
X0096493Y0165548D01*
X0095408Y0165548D01*
X0095408Y0169889D01*
X0096493Y0170974D02*
X0096493Y0172059D01*
X0097578Y0173145D01*
X0098663Y0173145D01*
X0099206Y0172602D01*
X0099206Y0171517D01*
X0100291Y0171517D01*
X0100833Y0170974D01*
X0100833Y0169889D01*
X0099748Y0168804D01*
X0098663Y0168804D01*
X0098121Y0169346D01*
X0098121Y0170432D01*
X0097035Y0170432D01*
X0096493Y0170974D01*
X0098121Y0170432D02*
X0099206Y0171517D01*
X0098059Y0156876D02*
X0094803Y0160131D01*
X0096431Y0161759D01*
X0097516Y0161759D01*
X0098601Y0160674D01*
X0098601Y0159589D01*
X0096973Y0157961D01*
X0098059Y0159046D02*
X0100229Y0159046D01*
X0103484Y0162301D02*
X0101314Y0160131D01*
X0101314Y0164472D01*
X0100771Y0165014D01*
X0099686Y0165014D01*
X0098601Y0163929D01*
X0098601Y0162844D01*
X0104027Y0163929D02*
X0101857Y0166100D01*
X0101857Y0167185D01*
X0102942Y0168270D01*
X0104027Y0168270D01*
X0106197Y0166100D01*
X0106197Y0165014D01*
X0105112Y0163929D01*
X0104027Y0163929D01*
X0104027Y0168270D01*
X0104569Y0169898D02*
X0106740Y0172068D01*
X0107282Y0171525D01*
X0107282Y0167185D01*
X0107825Y0166642D01*
X0083046Y0159005D02*
X0079791Y0162260D01*
X0081419Y0163888D01*
X0082504Y0163888D01*
X0083589Y0162803D01*
X0083589Y0161718D01*
X0081961Y0160090D01*
X0083046Y0161175D02*
X0085217Y0161175D01*
X0088472Y0164431D02*
X0086302Y0162260D01*
X0086302Y0166601D01*
X0085759Y0167144D01*
X0084674Y0167144D01*
X0083589Y0166059D01*
X0083589Y0164973D01*
X0088472Y0170942D02*
X0087930Y0169314D01*
X0087930Y0167144D01*
X0089015Y0166059D01*
X0090100Y0166059D01*
X0091185Y0167144D01*
X0091185Y0168229D01*
X0090643Y0168771D01*
X0089557Y0168771D01*
X0087930Y0167144D01*
X0065341Y0158100D02*
X0062086Y0161355D01*
X0063714Y0162983D01*
X0064799Y0162983D01*
X0065884Y0161898D01*
X0065884Y0160813D01*
X0064256Y0159185D01*
X0065341Y0160270D02*
X0067512Y0160270D01*
X0070767Y0163526D02*
X0068597Y0161355D01*
X0068597Y0165696D01*
X0068054Y0166239D01*
X0066969Y0166239D01*
X0065884Y0165153D01*
X0065884Y0164068D01*
X0070767Y0170037D02*
X0068597Y0167866D01*
X0070225Y0166239D01*
X0070767Y0167866D01*
X0071310Y0168409D01*
X0072395Y0168409D01*
X0073480Y0167324D01*
X0073480Y0166239D01*
X0072395Y0165153D01*
X0071310Y0165153D01*
X0072929Y0157719D02*
X0069674Y0160975D01*
X0071302Y0162602D01*
X0072387Y0162602D01*
X0073472Y0161517D01*
X0073472Y0160432D01*
X0071844Y0158804D01*
X0072929Y0159890D02*
X0075100Y0159890D01*
X0078355Y0163145D02*
X0076185Y0160975D01*
X0076185Y0165315D01*
X0075642Y0165858D01*
X0074557Y0165858D01*
X0073472Y0164773D01*
X0073472Y0163688D01*
X0081068Y0165858D02*
X0077812Y0169113D01*
X0077812Y0165858D01*
X0079983Y0168028D01*
X0059341Y0158941D02*
X0056086Y0162197D01*
X0057714Y0163825D01*
X0058799Y0163825D01*
X0059884Y0162739D01*
X0059884Y0161654D01*
X0058256Y0160027D01*
X0059341Y0161112D02*
X0061512Y0161112D01*
X0064767Y0164367D02*
X0062597Y0162197D01*
X0062597Y0166537D01*
X0062054Y0167080D01*
X0060969Y0167080D01*
X0059884Y0165995D01*
X0059884Y0164910D01*
X0063139Y0168165D02*
X0063139Y0169250D01*
X0064225Y0170336D01*
X0065310Y0170336D01*
X0065852Y0169793D01*
X0065852Y0168708D01*
X0065310Y0168165D01*
X0065852Y0168708D02*
X0066937Y0168708D01*
X0067480Y0168165D01*
X0067480Y0167080D01*
X0066395Y0165995D01*
X0065310Y0165995D01*
X0248069Y0134237D02*
X0247302Y0135004D01*
X0245767Y0135004D01*
X0245000Y0134237D01*
X0245000Y0131167D01*
X0245767Y0130400D01*
X0247302Y0130400D01*
X0248069Y0131167D01*
X0249604Y0129633D02*
X0252673Y0129633D01*
X0257277Y0130400D02*
X0254208Y0130400D01*
X0257277Y0133469D01*
X0257277Y0134237D01*
X0256510Y0135004D01*
X0254975Y0135004D01*
X0254208Y0134237D01*
X0261114Y0130400D02*
X0261114Y0135004D01*
X0258812Y0132702D01*
X0261881Y0132702D01*
X0265063Y0103154D02*
X0264296Y0102386D01*
X0264296Y0100852D01*
X0265063Y0100084D01*
X0268133Y0100084D01*
X0268900Y0100852D01*
X0268900Y0102386D01*
X0268133Y0103154D01*
X0269667Y0104688D02*
X0269667Y0107757D01*
X0268900Y0112361D02*
X0268900Y0109292D01*
X0265831Y0112361D01*
X0265063Y0112361D01*
X0264296Y0111594D01*
X0264296Y0110059D01*
X0265063Y0109292D01*
X0265063Y0113896D02*
X0264296Y0114663D01*
X0264296Y0116198D01*
X0265063Y0116965D01*
X0265831Y0116965D01*
X0266598Y0116198D01*
X0266598Y0115431D01*
X0266598Y0116198D02*
X0267365Y0116965D01*
X0268133Y0116965D01*
X0268900Y0116198D01*
X0268900Y0114663D01*
X0268133Y0113896D01*
X0215569Y0115937D02*
X0214802Y0116704D01*
X0213267Y0116704D01*
X0212500Y0115937D01*
X0212500Y0112867D01*
X0213267Y0112100D01*
X0214802Y0112100D01*
X0215569Y0112867D01*
X0217104Y0111333D02*
X0220173Y0111333D01*
X0224777Y0112100D02*
X0221708Y0112100D01*
X0224777Y0115169D01*
X0224777Y0115937D01*
X0224010Y0116704D01*
X0222475Y0116704D01*
X0221708Y0115937D01*
X0226312Y0115169D02*
X0227846Y0116704D01*
X0227846Y0112100D01*
X0226312Y0112100D02*
X0229381Y0112100D01*
X0237669Y0115637D02*
X0236902Y0116404D01*
X0235367Y0116404D01*
X0234600Y0115637D01*
X0234600Y0112567D01*
X0235367Y0111800D01*
X0236902Y0111800D01*
X0237669Y0112567D01*
X0239204Y0111033D02*
X0242273Y0111033D01*
X0246877Y0111800D02*
X0243808Y0111800D01*
X0246877Y0114869D01*
X0246877Y0115637D01*
X0246110Y0116404D01*
X0244575Y0116404D01*
X0243808Y0115637D01*
X0251481Y0111800D02*
X0248412Y0111800D01*
X0251481Y0114869D01*
X0251481Y0115637D01*
X0250714Y0116404D01*
X0249179Y0116404D01*
X0248412Y0115637D01*
X0249500Y0052300D02*
X0251035Y0052300D01*
X0250267Y0052300D02*
X0250267Y0056904D01*
X0249500Y0056904D02*
X0251035Y0056904D01*
X0255639Y0056137D02*
X0254871Y0056904D01*
X0253337Y0056904D01*
X0252569Y0056137D01*
X0252569Y0053067D01*
X0253337Y0052300D01*
X0254871Y0052300D01*
X0255639Y0053067D01*
X0257173Y0055369D02*
X0258708Y0056904D01*
X0258708Y0052300D01*
X0260242Y0052300D02*
X0257173Y0052300D01*
X0249561Y0087137D02*
X0248794Y0087904D01*
X0247259Y0087904D01*
X0246492Y0087137D01*
X0246492Y0084067D01*
X0247259Y0083300D01*
X0248794Y0083300D01*
X0249561Y0084067D01*
X0251096Y0086369D02*
X0252631Y0087904D01*
X0252631Y0083300D01*
X0254165Y0083300D02*
X0251096Y0083300D01*
X0280169Y0072937D02*
X0279402Y0073704D01*
X0277867Y0073704D01*
X0277100Y0072937D01*
X0277100Y0069867D01*
X0277867Y0069100D01*
X0279402Y0069100D01*
X0280169Y0069867D01*
X0284773Y0069100D02*
X0281704Y0069100D01*
X0284773Y0072169D01*
X0284773Y0072937D01*
X0284006Y0073704D01*
X0282471Y0073704D01*
X0281704Y0072937D01*
X0241561Y0012137D02*
X0240794Y0012904D01*
X0239259Y0012904D01*
X0238492Y0012137D01*
X0238492Y0009067D01*
X0239259Y0008300D01*
X0240794Y0008300D01*
X0241561Y0009067D01*
X0243096Y0012137D02*
X0243863Y0012904D01*
X0245398Y0012904D01*
X0246165Y0012137D01*
X0246165Y0011369D01*
X0245398Y0010602D01*
X0244631Y0010602D01*
X0245398Y0010602D02*
X0246165Y0009835D01*
X0246165Y0009067D01*
X0245398Y0008300D01*
X0243863Y0008300D01*
X0243096Y0009067D01*
X0246563Y0044561D02*
X0245796Y0043794D01*
X0245796Y0042259D01*
X0246563Y0041492D01*
X0249633Y0041492D01*
X0250400Y0042259D01*
X0250400Y0043794D01*
X0249633Y0044561D01*
X0249633Y0046096D02*
X0250400Y0046863D01*
X0250400Y0048398D01*
X0249633Y0049165D01*
X0246563Y0049165D01*
X0245796Y0048398D01*
X0245796Y0046863D01*
X0246563Y0046096D01*
X0247331Y0046096D01*
X0248098Y0046863D01*
X0248098Y0049165D01*
X0225657Y0041837D02*
X0224890Y0042604D01*
X0223356Y0042604D01*
X0222588Y0041837D01*
X0222588Y0038767D01*
X0223356Y0038000D01*
X0224890Y0038000D01*
X0225657Y0038767D01*
X0227192Y0041069D02*
X0228727Y0042604D01*
X0228727Y0038000D01*
X0230261Y0038000D02*
X0227192Y0038000D01*
X0231796Y0038767D02*
X0231796Y0041837D01*
X0232563Y0042604D01*
X0234098Y0042604D01*
X0234865Y0041837D01*
X0234865Y0038767D01*
X0234098Y0038000D01*
X0232563Y0038000D01*
X0231796Y0038767D01*
X0234865Y0041837D01*
X0246369Y0025037D02*
X0245602Y0025804D01*
X0244067Y0025804D01*
X0243300Y0025037D01*
X0243300Y0021967D01*
X0244067Y0021200D01*
X0245602Y0021200D01*
X0246369Y0021967D01*
X0247904Y0024269D02*
X0249439Y0025804D01*
X0249439Y0021200D01*
X0250973Y0021200D02*
X0247904Y0021200D01*
X0255577Y0021200D02*
X0252508Y0021200D01*
X0255577Y0024269D01*
X0255577Y0025037D01*
X0254810Y0025804D01*
X0253275Y0025804D01*
X0252508Y0025037D01*
X0244563Y0030569D02*
X0243796Y0029802D01*
X0243796Y0028267D01*
X0244563Y0027500D01*
X0247633Y0027500D01*
X0248400Y0028267D01*
X0248400Y0029802D01*
X0247633Y0030569D01*
X0245331Y0032104D02*
X0243796Y0033639D01*
X0248400Y0033639D01*
X0248400Y0035173D02*
X0248400Y0032104D01*
X0244563Y0036708D02*
X0243796Y0037475D01*
X0243796Y0039010D01*
X0244563Y0039777D01*
X0245331Y0039777D01*
X0246098Y0039010D01*
X0246098Y0038242D01*
X0246098Y0039010D02*
X0246865Y0039777D01*
X0247633Y0039777D01*
X0248400Y0039010D01*
X0248400Y0037475D01*
X0247633Y0036708D01*
X0223300Y0056500D02*
X0223300Y0061104D01*
X0225602Y0061104D01*
X0226369Y0060337D01*
X0226369Y0058802D01*
X0225602Y0058035D01*
X0223300Y0058035D01*
X0224835Y0058035D02*
X0226369Y0056500D01*
X0227904Y0059569D02*
X0229439Y0061104D01*
X0229439Y0056500D01*
X0230973Y0056500D02*
X0227904Y0056500D01*
X0296000Y0032492D02*
X0291396Y0032492D01*
X0291396Y0034794D01*
X0292163Y0035561D01*
X0293698Y0035561D01*
X0294465Y0034794D01*
X0294465Y0032492D01*
X0294465Y0034027D02*
X0296000Y0035561D01*
X0292163Y0037096D02*
X0291396Y0037863D01*
X0291396Y0039398D01*
X0292163Y0040165D01*
X0292931Y0040165D01*
X0293698Y0039398D01*
X0293698Y0038631D01*
X0293698Y0039398D02*
X0294465Y0040165D01*
X0295233Y0040165D01*
X0296000Y0039398D01*
X0296000Y0037863D01*
X0295233Y0037096D01*
X0231600Y0054300D02*
X0231600Y0058904D01*
X0233902Y0058904D01*
X0234669Y0058137D01*
X0234669Y0056602D01*
X0233902Y0055835D01*
X0231600Y0055835D01*
X0233135Y0055835D02*
X0234669Y0054300D01*
X0238506Y0054300D02*
X0238506Y0058904D01*
X0236204Y0056602D01*
X0239273Y0056602D01*
X0243592Y0014600D02*
X0243592Y0019204D01*
X0245894Y0019204D01*
X0246661Y0018437D01*
X0246661Y0016902D01*
X0245894Y0016135D01*
X0243592Y0016135D01*
X0245127Y0016135D02*
X0246661Y0014600D01*
X0251265Y0019204D02*
X0248196Y0019204D01*
X0248196Y0016902D01*
X0249731Y0017669D01*
X0250498Y0017669D01*
X0251265Y0016902D01*
X0251265Y0015367D01*
X0250498Y0014600D01*
X0248963Y0014600D01*
X0248196Y0015367D01*
X0214164Y0021071D02*
X0210908Y0024326D01*
X0212536Y0025954D01*
X0213621Y0025954D01*
X0214706Y0024869D01*
X0214706Y0023784D01*
X0213078Y0022156D01*
X0214164Y0023241D02*
X0216334Y0023241D01*
X0216334Y0029752D02*
X0215791Y0028124D01*
X0215791Y0025954D01*
X0216876Y0024869D01*
X0217962Y0024869D01*
X0219047Y0025954D01*
X0219047Y0027039D01*
X0218504Y0027582D01*
X0217419Y0027582D01*
X0215791Y0025954D01*
X0217100Y0039800D02*
X0217100Y0044404D01*
X0219402Y0044404D01*
X0220169Y0043637D01*
X0220169Y0042102D01*
X0219402Y0041335D01*
X0217100Y0041335D01*
X0218635Y0041335D02*
X0220169Y0039800D01*
X0221704Y0044404D02*
X0224773Y0044404D01*
X0224773Y0043637D01*
X0221704Y0040567D01*
X0221704Y0039800D01*
X0218300Y0016700D02*
X0218300Y0021304D01*
X0220602Y0021304D01*
X0221369Y0020537D01*
X0221369Y0019002D01*
X0220602Y0018235D01*
X0218300Y0018235D01*
X0219835Y0018235D02*
X0221369Y0016700D01*
X0222904Y0020537D02*
X0223671Y0021304D01*
X0225206Y0021304D01*
X0225973Y0020537D01*
X0225973Y0019769D01*
X0225206Y0019002D01*
X0225973Y0018235D01*
X0225973Y0017467D01*
X0225206Y0016700D01*
X0223671Y0016700D01*
X0222904Y0017467D01*
X0222904Y0018235D01*
X0223671Y0019002D01*
X0222904Y0019769D01*
X0222904Y0020537D01*
X0223671Y0019002D02*
X0225206Y0019002D01*
X0273600Y0050367D02*
X0273600Y0053437D01*
X0274367Y0054204D01*
X0275902Y0054204D01*
X0276669Y0053437D01*
X0276669Y0050367D01*
X0275902Y0049600D01*
X0274367Y0049600D01*
X0273600Y0050367D01*
X0275135Y0051135D02*
X0276669Y0049600D01*
X0278204Y0052669D02*
X0279739Y0054204D01*
X0279739Y0049600D01*
X0281273Y0049600D02*
X0278204Y0049600D01*
X0264763Y0015861D02*
X0263996Y0015094D01*
X0263996Y0013559D01*
X0264763Y0012792D01*
X0267833Y0012792D01*
X0268600Y0013559D01*
X0268600Y0015094D01*
X0267833Y0015861D01*
X0268600Y0019698D02*
X0263996Y0019698D01*
X0266298Y0017396D01*
X0266298Y0020465D01*
X0302469Y0053637D02*
X0301702Y0054404D01*
X0300167Y0054404D01*
X0299400Y0053637D01*
X0299400Y0050567D01*
X0300167Y0049800D01*
X0301702Y0049800D01*
X0302469Y0050567D01*
X0307073Y0054404D02*
X0304004Y0054404D01*
X0304004Y0052102D01*
X0305539Y0052869D01*
X0306306Y0052869D01*
X0307073Y0052102D01*
X0307073Y0050567D01*
X0306306Y0049800D01*
X0304771Y0049800D01*
X0304004Y0050567D01*
X0304769Y0030437D02*
X0304002Y0031204D01*
X0302467Y0031204D01*
X0301700Y0030437D01*
X0301700Y0027367D01*
X0302467Y0026600D01*
X0304002Y0026600D01*
X0304769Y0027367D01*
X0309373Y0031204D02*
X0307839Y0030437D01*
X0306304Y0028902D01*
X0306304Y0027367D01*
X0307071Y0026600D01*
X0308606Y0026600D01*
X0309373Y0027367D01*
X0309373Y0028135D01*
X0308606Y0028902D01*
X0306304Y0028902D01*
X0297700Y0056200D02*
X0297700Y0060804D01*
X0300002Y0060804D01*
X0300769Y0060037D01*
X0300769Y0058502D01*
X0300002Y0057735D01*
X0297700Y0057735D01*
X0299235Y0057735D02*
X0300769Y0056200D01*
X0302304Y0056967D02*
X0303071Y0056200D01*
X0304606Y0056200D01*
X0305373Y0056967D01*
X0305373Y0060037D01*
X0304606Y0060804D01*
X0303071Y0060804D01*
X0302304Y0060037D01*
X0302304Y0059269D01*
X0303071Y0058502D01*
X0305373Y0058502D01*
X0241661Y0071437D02*
X0240894Y0072204D01*
X0239359Y0072204D01*
X0238592Y0071437D01*
X0238592Y0068367D01*
X0239359Y0067600D01*
X0240894Y0067600D01*
X0241661Y0068367D01*
X0243196Y0072204D02*
X0246265Y0072204D01*
X0246265Y0071437D01*
X0243196Y0068367D01*
X0243196Y0067600D01*
X0257293Y0058465D02*
X0261897Y0058465D01*
X0261897Y0061535D01*
X0258828Y0063069D02*
X0257293Y0064604D01*
X0261897Y0064604D01*
X0261897Y0063069D02*
X0261897Y0066139D01*
X0258828Y0067673D02*
X0257293Y0069208D01*
X0261897Y0069208D01*
X0261897Y0070742D02*
X0261897Y0067673D01*
X0272623Y0019601D02*
X0272623Y0014997D01*
X0275692Y0014997D01*
X0277227Y0018066D02*
X0278761Y0019601D01*
X0278761Y0014997D01*
X0277227Y0014997D02*
X0280296Y0014997D01*
X0284900Y0014997D02*
X0281831Y0014997D01*
X0284900Y0018066D01*
X0284900Y0018833D01*
X0284133Y0019601D01*
X0282598Y0019601D01*
X0281831Y0018833D01*
D11*
X0120610Y0126339D02*
X0126024Y0126339D01*
X0126024Y0043661D01*
X0120610Y0043661D01*
X0032520Y0126339D02*
X0003976Y0126339D01*
X0003976Y0043661D01*
X0032520Y0043661D01*
X0175352Y0113701D02*
X0208801Y0113701D01*
X0208861Y0113699D01*
X0208922Y0113694D01*
X0208981Y0113685D01*
X0209040Y0113672D01*
X0209099Y0113656D01*
X0209156Y0113636D01*
X0209211Y0113613D01*
X0209266Y0113586D01*
X0209318Y0113557D01*
X0209369Y0113524D01*
X0209418Y0113488D01*
X0209464Y0113450D01*
X0209508Y0113408D01*
X0209550Y0113364D01*
X0209588Y0113318D01*
X0209624Y0113269D01*
X0209657Y0113218D01*
X0209686Y0113166D01*
X0209713Y0113111D01*
X0209736Y0113056D01*
X0209756Y0112999D01*
X0209772Y0112940D01*
X0209785Y0112881D01*
X0209794Y0112822D01*
X0209799Y0112761D01*
X0209801Y0112701D01*
X0209801Y0077299D01*
X0209799Y0077239D01*
X0209794Y0077178D01*
X0209785Y0077119D01*
X0209772Y0077060D01*
X0209756Y0077001D01*
X0209736Y0076944D01*
X0209713Y0076889D01*
X0209686Y0076834D01*
X0209657Y0076782D01*
X0209624Y0076731D01*
X0209588Y0076682D01*
X0209550Y0076636D01*
X0209508Y0076592D01*
X0209464Y0076550D01*
X0209418Y0076512D01*
X0209369Y0076476D01*
X0209318Y0076443D01*
X0209266Y0076414D01*
X0209211Y0076387D01*
X0209156Y0076364D01*
X0209099Y0076344D01*
X0209040Y0076328D01*
X0208981Y0076315D01*
X0208922Y0076306D01*
X0208861Y0076301D01*
X0208801Y0076299D01*
X0174368Y0076299D01*
X0174282Y0076301D01*
X0174196Y0076306D01*
X0174111Y0076316D01*
X0174026Y0076329D01*
X0173942Y0076346D01*
X0173858Y0076366D01*
X0173776Y0076390D01*
X0173695Y0076418D01*
X0173614Y0076449D01*
X0173536Y0076483D01*
X0173459Y0076521D01*
X0173384Y0076563D01*
X0173310Y0076607D01*
X0173239Y0076655D01*
X0173169Y0076706D01*
X0173102Y0076760D01*
X0173038Y0076816D01*
X0172976Y0076876D01*
X0172916Y0076938D01*
X0172860Y0077002D01*
X0172806Y0077069D01*
X0172755Y0077139D01*
X0172707Y0077210D01*
X0172663Y0077284D01*
X0172621Y0077359D01*
X0172583Y0077436D01*
X0172549Y0077514D01*
X0172518Y0077595D01*
X0172490Y0077676D01*
X0172466Y0077758D01*
X0172446Y0077842D01*
X0172429Y0077926D01*
X0172416Y0078011D01*
X0172406Y0078096D01*
X0172401Y0078182D01*
X0172399Y0078268D01*
X0172399Y0110748D01*
X0175352Y0113701D01*
X0073737Y0146737D02*
X0073737Y0139847D01*
X0073737Y0138863D01*
X0072753Y0138863D01*
X0065863Y0138863D01*
X0065863Y0146737D01*
X0073737Y0146737D01*
X0073737Y0139847D02*
X0072753Y0139847D01*
X0072753Y0138863D01*
X0097137Y0146937D02*
X0097137Y0140047D01*
X0097137Y0139063D01*
X0096153Y0139063D01*
X0089263Y0139063D01*
X0089263Y0146937D01*
X0097137Y0146937D01*
X0097137Y0140047D02*
X0096153Y0140047D01*
X0096153Y0139063D01*
X0120337Y0146037D02*
X0120337Y0139147D01*
X0120337Y0138163D01*
X0119353Y0138163D01*
X0112463Y0138163D01*
X0112463Y0146037D01*
X0120337Y0146037D01*
X0120337Y0139147D02*
X0119353Y0139147D01*
X0119353Y0138163D01*
X0244479Y0103057D02*
X0243494Y0103057D01*
X0243494Y0122743D01*
X0244479Y0122743D01*
X0254321Y0122743D02*
X0255306Y0122743D01*
X0255306Y0103057D01*
X0254321Y0103057D01*
X0227437Y0110687D02*
X0227437Y0121513D01*
X0219563Y0121513D02*
X0219563Y0110687D01*
X0249800Y0049600D02*
X0269800Y0049600D01*
X0269800Y0029600D01*
X0249800Y0029600D01*
X0249800Y0049600D01*
X0251593Y0047100D02*
X0251595Y0047153D01*
X0251601Y0047205D01*
X0251611Y0047257D01*
X0251624Y0047308D01*
X0251642Y0047358D01*
X0251663Y0047407D01*
X0251688Y0047454D01*
X0251716Y0047498D01*
X0251747Y0047541D01*
X0251782Y0047581D01*
X0251819Y0047618D01*
X0251859Y0047653D01*
X0251902Y0047684D01*
X0251947Y0047712D01*
X0251993Y0047737D01*
X0252042Y0047758D01*
X0252092Y0047776D01*
X0252143Y0047789D01*
X0252195Y0047799D01*
X0252247Y0047805D01*
X0252300Y0047807D01*
X0252353Y0047805D01*
X0252405Y0047799D01*
X0252457Y0047789D01*
X0252508Y0047776D01*
X0252558Y0047758D01*
X0252607Y0047737D01*
X0252654Y0047712D01*
X0252698Y0047684D01*
X0252741Y0047653D01*
X0252781Y0047618D01*
X0252818Y0047581D01*
X0252853Y0047541D01*
X0252884Y0047498D01*
X0252912Y0047453D01*
X0252937Y0047407D01*
X0252958Y0047358D01*
X0252976Y0047308D01*
X0252989Y0047257D01*
X0252999Y0047205D01*
X0253005Y0047153D01*
X0253007Y0047100D01*
X0253005Y0047047D01*
X0252999Y0046995D01*
X0252989Y0046943D01*
X0252976Y0046892D01*
X0252958Y0046842D01*
X0252937Y0046793D01*
X0252912Y0046746D01*
X0252884Y0046702D01*
X0252853Y0046659D01*
X0252818Y0046619D01*
X0252781Y0046582D01*
X0252741Y0046547D01*
X0252698Y0046516D01*
X0252653Y0046488D01*
X0252607Y0046463D01*
X0252558Y0046442D01*
X0252508Y0046424D01*
X0252457Y0046411D01*
X0252405Y0046401D01*
X0252353Y0046395D01*
X0252300Y0046393D01*
X0252247Y0046395D01*
X0252195Y0046401D01*
X0252143Y0046411D01*
X0252092Y0046424D01*
X0252042Y0046442D01*
X0251993Y0046463D01*
X0251946Y0046488D01*
X0251902Y0046516D01*
X0251859Y0046547D01*
X0251819Y0046582D01*
X0251782Y0046619D01*
X0251747Y0046659D01*
X0251716Y0046702D01*
X0251688Y0046747D01*
X0251663Y0046793D01*
X0251642Y0046842D01*
X0251624Y0046892D01*
X0251611Y0046943D01*
X0251601Y0046995D01*
X0251595Y0047047D01*
X0251593Y0047100D01*
X0278787Y0050769D02*
X0290106Y0050769D01*
X0290106Y0046339D01*
X0278787Y0046339D01*
X0278787Y0050769D01*
X0296443Y0136142D02*
X0296443Y0163858D01*
X0256757Y0163858D01*
X0256757Y0136142D01*
X0296443Y0136142D01*
X0276600Y0143602D02*
X0276600Y0148524D01*
X0279553Y0151476D01*
X0276600Y0151476D02*
X0276600Y0156398D01*
X0268665Y0150000D02*
X0268667Y0150195D01*
X0268675Y0150389D01*
X0268687Y0150584D01*
X0268703Y0150778D01*
X0268725Y0150971D01*
X0268751Y0151164D01*
X0268782Y0151357D01*
X0268817Y0151548D01*
X0268858Y0151739D01*
X0268903Y0151928D01*
X0268952Y0152116D01*
X0269007Y0152303D01*
X0269065Y0152489D01*
X0269129Y0152673D01*
X0269197Y0152856D01*
X0269269Y0153037D01*
X0269346Y0153216D01*
X0269427Y0153393D01*
X0269512Y0153568D01*
X0269602Y0153741D01*
X0269696Y0153911D01*
X0269794Y0154079D01*
X0269896Y0154245D01*
X0270002Y0154408D01*
X0270112Y0154569D01*
X0270227Y0154727D01*
X0270344Y0154882D01*
X0270466Y0155034D01*
X0270592Y0155183D01*
X0270721Y0155329D01*
X0270853Y0155472D01*
X0270989Y0155611D01*
X0271128Y0155747D01*
X0271271Y0155879D01*
X0271417Y0156008D01*
X0271566Y0156134D01*
X0271718Y0156256D01*
X0271873Y0156373D01*
X0272031Y0156488D01*
X0272192Y0156598D01*
X0272355Y0156704D01*
X0272521Y0156806D01*
X0272689Y0156904D01*
X0272859Y0156998D01*
X0273032Y0157088D01*
X0273207Y0157173D01*
X0273384Y0157254D01*
X0273563Y0157331D01*
X0273744Y0157403D01*
X0273927Y0157471D01*
X0274111Y0157535D01*
X0274297Y0157593D01*
X0274484Y0157648D01*
X0274672Y0157697D01*
X0274861Y0157742D01*
X0275052Y0157783D01*
X0275243Y0157818D01*
X0275436Y0157849D01*
X0275629Y0157875D01*
X0275822Y0157897D01*
X0276016Y0157913D01*
X0276211Y0157925D01*
X0276405Y0157933D01*
X0276600Y0157935D01*
X0276795Y0157933D01*
X0276989Y0157925D01*
X0277184Y0157913D01*
X0277378Y0157897D01*
X0277571Y0157875D01*
X0277764Y0157849D01*
X0277957Y0157818D01*
X0278148Y0157783D01*
X0278339Y0157742D01*
X0278528Y0157697D01*
X0278716Y0157648D01*
X0278903Y0157593D01*
X0279089Y0157535D01*
X0279273Y0157471D01*
X0279456Y0157403D01*
X0279637Y0157331D01*
X0279816Y0157254D01*
X0279993Y0157173D01*
X0280168Y0157088D01*
X0280341Y0156998D01*
X0280511Y0156904D01*
X0280679Y0156806D01*
X0280845Y0156704D01*
X0281008Y0156598D01*
X0281169Y0156488D01*
X0281327Y0156373D01*
X0281482Y0156256D01*
X0281634Y0156134D01*
X0281783Y0156008D01*
X0281929Y0155879D01*
X0282072Y0155747D01*
X0282211Y0155611D01*
X0282347Y0155472D01*
X0282479Y0155329D01*
X0282608Y0155183D01*
X0282734Y0155034D01*
X0282856Y0154882D01*
X0282973Y0154727D01*
X0283088Y0154569D01*
X0283198Y0154408D01*
X0283304Y0154245D01*
X0283406Y0154079D01*
X0283504Y0153911D01*
X0283598Y0153741D01*
X0283688Y0153568D01*
X0283773Y0153393D01*
X0283854Y0153216D01*
X0283931Y0153037D01*
X0284003Y0152856D01*
X0284071Y0152673D01*
X0284135Y0152489D01*
X0284193Y0152303D01*
X0284248Y0152116D01*
X0284297Y0151928D01*
X0284342Y0151739D01*
X0284383Y0151548D01*
X0284418Y0151357D01*
X0284449Y0151164D01*
X0284475Y0150971D01*
X0284497Y0150778D01*
X0284513Y0150584D01*
X0284525Y0150389D01*
X0284533Y0150195D01*
X0284535Y0150000D01*
X0284533Y0149805D01*
X0284525Y0149611D01*
X0284513Y0149416D01*
X0284497Y0149222D01*
X0284475Y0149029D01*
X0284449Y0148836D01*
X0284418Y0148643D01*
X0284383Y0148452D01*
X0284342Y0148261D01*
X0284297Y0148072D01*
X0284248Y0147884D01*
X0284193Y0147697D01*
X0284135Y0147511D01*
X0284071Y0147327D01*
X0284003Y0147144D01*
X0283931Y0146963D01*
X0283854Y0146784D01*
X0283773Y0146607D01*
X0283688Y0146432D01*
X0283598Y0146259D01*
X0283504Y0146089D01*
X0283406Y0145921D01*
X0283304Y0145755D01*
X0283198Y0145592D01*
X0283088Y0145431D01*
X0282973Y0145273D01*
X0282856Y0145118D01*
X0282734Y0144966D01*
X0282608Y0144817D01*
X0282479Y0144671D01*
X0282347Y0144528D01*
X0282211Y0144389D01*
X0282072Y0144253D01*
X0281929Y0144121D01*
X0281783Y0143992D01*
X0281634Y0143866D01*
X0281482Y0143744D01*
X0281327Y0143627D01*
X0281169Y0143512D01*
X0281008Y0143402D01*
X0280845Y0143296D01*
X0280679Y0143194D01*
X0280511Y0143096D01*
X0280341Y0143002D01*
X0280168Y0142912D01*
X0279993Y0142827D01*
X0279816Y0142746D01*
X0279637Y0142669D01*
X0279456Y0142597D01*
X0279273Y0142529D01*
X0279089Y0142465D01*
X0278903Y0142407D01*
X0278716Y0142352D01*
X0278528Y0142303D01*
X0278339Y0142258D01*
X0278148Y0142217D01*
X0277957Y0142182D01*
X0277764Y0142151D01*
X0277571Y0142125D01*
X0277378Y0142103D01*
X0277184Y0142087D01*
X0276989Y0142075D01*
X0276795Y0142067D01*
X0276600Y0142065D01*
X0276405Y0142067D01*
X0276211Y0142075D01*
X0276016Y0142087D01*
X0275822Y0142103D01*
X0275629Y0142125D01*
X0275436Y0142151D01*
X0275243Y0142182D01*
X0275052Y0142217D01*
X0274861Y0142258D01*
X0274672Y0142303D01*
X0274484Y0142352D01*
X0274297Y0142407D01*
X0274111Y0142465D01*
X0273927Y0142529D01*
X0273744Y0142597D01*
X0273563Y0142669D01*
X0273384Y0142746D01*
X0273207Y0142827D01*
X0273032Y0142912D01*
X0272859Y0143002D01*
X0272689Y0143096D01*
X0272521Y0143194D01*
X0272355Y0143296D01*
X0272192Y0143402D01*
X0272031Y0143512D01*
X0271873Y0143627D01*
X0271718Y0143744D01*
X0271566Y0143866D01*
X0271417Y0143992D01*
X0271271Y0144121D01*
X0271128Y0144253D01*
X0270989Y0144389D01*
X0270853Y0144528D01*
X0270721Y0144671D01*
X0270592Y0144817D01*
X0270466Y0144966D01*
X0270344Y0145118D01*
X0270227Y0145273D01*
X0270112Y0145431D01*
X0270002Y0145592D01*
X0269896Y0145755D01*
X0269794Y0145921D01*
X0269696Y0146089D01*
X0269602Y0146259D01*
X0269512Y0146432D01*
X0269427Y0146607D01*
X0269346Y0146784D01*
X0269269Y0146963D01*
X0269197Y0147144D01*
X0269129Y0147327D01*
X0269065Y0147511D01*
X0269007Y0147697D01*
X0268952Y0147884D01*
X0268903Y0148072D01*
X0268858Y0148261D01*
X0268817Y0148452D01*
X0268782Y0148643D01*
X0268751Y0148836D01*
X0268725Y0149029D01*
X0268703Y0149222D01*
X0268687Y0149416D01*
X0268675Y0149611D01*
X0268667Y0149805D01*
X0268665Y0150000D01*
X0256343Y0136142D02*
X0256343Y0163858D01*
X0216657Y0163858D01*
X0216657Y0136142D01*
X0256343Y0136142D01*
X0236500Y0143602D02*
X0236500Y0148524D01*
X0239453Y0151476D01*
X0236500Y0151476D02*
X0236500Y0156398D01*
X0228565Y0150000D02*
X0228567Y0150195D01*
X0228575Y0150389D01*
X0228587Y0150584D01*
X0228603Y0150778D01*
X0228625Y0150971D01*
X0228651Y0151164D01*
X0228682Y0151357D01*
X0228717Y0151548D01*
X0228758Y0151739D01*
X0228803Y0151928D01*
X0228852Y0152116D01*
X0228907Y0152303D01*
X0228965Y0152489D01*
X0229029Y0152673D01*
X0229097Y0152856D01*
X0229169Y0153037D01*
X0229246Y0153216D01*
X0229327Y0153393D01*
X0229412Y0153568D01*
X0229502Y0153741D01*
X0229596Y0153911D01*
X0229694Y0154079D01*
X0229796Y0154245D01*
X0229902Y0154408D01*
X0230012Y0154569D01*
X0230127Y0154727D01*
X0230244Y0154882D01*
X0230366Y0155034D01*
X0230492Y0155183D01*
X0230621Y0155329D01*
X0230753Y0155472D01*
X0230889Y0155611D01*
X0231028Y0155747D01*
X0231171Y0155879D01*
X0231317Y0156008D01*
X0231466Y0156134D01*
X0231618Y0156256D01*
X0231773Y0156373D01*
X0231931Y0156488D01*
X0232092Y0156598D01*
X0232255Y0156704D01*
X0232421Y0156806D01*
X0232589Y0156904D01*
X0232759Y0156998D01*
X0232932Y0157088D01*
X0233107Y0157173D01*
X0233284Y0157254D01*
X0233463Y0157331D01*
X0233644Y0157403D01*
X0233827Y0157471D01*
X0234011Y0157535D01*
X0234197Y0157593D01*
X0234384Y0157648D01*
X0234572Y0157697D01*
X0234761Y0157742D01*
X0234952Y0157783D01*
X0235143Y0157818D01*
X0235336Y0157849D01*
X0235529Y0157875D01*
X0235722Y0157897D01*
X0235916Y0157913D01*
X0236111Y0157925D01*
X0236305Y0157933D01*
X0236500Y0157935D01*
X0236695Y0157933D01*
X0236889Y0157925D01*
X0237084Y0157913D01*
X0237278Y0157897D01*
X0237471Y0157875D01*
X0237664Y0157849D01*
X0237857Y0157818D01*
X0238048Y0157783D01*
X0238239Y0157742D01*
X0238428Y0157697D01*
X0238616Y0157648D01*
X0238803Y0157593D01*
X0238989Y0157535D01*
X0239173Y0157471D01*
X0239356Y0157403D01*
X0239537Y0157331D01*
X0239716Y0157254D01*
X0239893Y0157173D01*
X0240068Y0157088D01*
X0240241Y0156998D01*
X0240411Y0156904D01*
X0240579Y0156806D01*
X0240745Y0156704D01*
X0240908Y0156598D01*
X0241069Y0156488D01*
X0241227Y0156373D01*
X0241382Y0156256D01*
X0241534Y0156134D01*
X0241683Y0156008D01*
X0241829Y0155879D01*
X0241972Y0155747D01*
X0242111Y0155611D01*
X0242247Y0155472D01*
X0242379Y0155329D01*
X0242508Y0155183D01*
X0242634Y0155034D01*
X0242756Y0154882D01*
X0242873Y0154727D01*
X0242988Y0154569D01*
X0243098Y0154408D01*
X0243204Y0154245D01*
X0243306Y0154079D01*
X0243404Y0153911D01*
X0243498Y0153741D01*
X0243588Y0153568D01*
X0243673Y0153393D01*
X0243754Y0153216D01*
X0243831Y0153037D01*
X0243903Y0152856D01*
X0243971Y0152673D01*
X0244035Y0152489D01*
X0244093Y0152303D01*
X0244148Y0152116D01*
X0244197Y0151928D01*
X0244242Y0151739D01*
X0244283Y0151548D01*
X0244318Y0151357D01*
X0244349Y0151164D01*
X0244375Y0150971D01*
X0244397Y0150778D01*
X0244413Y0150584D01*
X0244425Y0150389D01*
X0244433Y0150195D01*
X0244435Y0150000D01*
X0244433Y0149805D01*
X0244425Y0149611D01*
X0244413Y0149416D01*
X0244397Y0149222D01*
X0244375Y0149029D01*
X0244349Y0148836D01*
X0244318Y0148643D01*
X0244283Y0148452D01*
X0244242Y0148261D01*
X0244197Y0148072D01*
X0244148Y0147884D01*
X0244093Y0147697D01*
X0244035Y0147511D01*
X0243971Y0147327D01*
X0243903Y0147144D01*
X0243831Y0146963D01*
X0243754Y0146784D01*
X0243673Y0146607D01*
X0243588Y0146432D01*
X0243498Y0146259D01*
X0243404Y0146089D01*
X0243306Y0145921D01*
X0243204Y0145755D01*
X0243098Y0145592D01*
X0242988Y0145431D01*
X0242873Y0145273D01*
X0242756Y0145118D01*
X0242634Y0144966D01*
X0242508Y0144817D01*
X0242379Y0144671D01*
X0242247Y0144528D01*
X0242111Y0144389D01*
X0241972Y0144253D01*
X0241829Y0144121D01*
X0241683Y0143992D01*
X0241534Y0143866D01*
X0241382Y0143744D01*
X0241227Y0143627D01*
X0241069Y0143512D01*
X0240908Y0143402D01*
X0240745Y0143296D01*
X0240579Y0143194D01*
X0240411Y0143096D01*
X0240241Y0143002D01*
X0240068Y0142912D01*
X0239893Y0142827D01*
X0239716Y0142746D01*
X0239537Y0142669D01*
X0239356Y0142597D01*
X0239173Y0142529D01*
X0238989Y0142465D01*
X0238803Y0142407D01*
X0238616Y0142352D01*
X0238428Y0142303D01*
X0238239Y0142258D01*
X0238048Y0142217D01*
X0237857Y0142182D01*
X0237664Y0142151D01*
X0237471Y0142125D01*
X0237278Y0142103D01*
X0237084Y0142087D01*
X0236889Y0142075D01*
X0236695Y0142067D01*
X0236500Y0142065D01*
X0236305Y0142067D01*
X0236111Y0142075D01*
X0235916Y0142087D01*
X0235722Y0142103D01*
X0235529Y0142125D01*
X0235336Y0142151D01*
X0235143Y0142182D01*
X0234952Y0142217D01*
X0234761Y0142258D01*
X0234572Y0142303D01*
X0234384Y0142352D01*
X0234197Y0142407D01*
X0234011Y0142465D01*
X0233827Y0142529D01*
X0233644Y0142597D01*
X0233463Y0142669D01*
X0233284Y0142746D01*
X0233107Y0142827D01*
X0232932Y0142912D01*
X0232759Y0143002D01*
X0232589Y0143096D01*
X0232421Y0143194D01*
X0232255Y0143296D01*
X0232092Y0143402D01*
X0231931Y0143512D01*
X0231773Y0143627D01*
X0231618Y0143744D01*
X0231466Y0143866D01*
X0231317Y0143992D01*
X0231171Y0144121D01*
X0231028Y0144253D01*
X0230889Y0144389D01*
X0230753Y0144528D01*
X0230621Y0144671D01*
X0230492Y0144817D01*
X0230366Y0144966D01*
X0230244Y0145118D01*
X0230127Y0145273D01*
X0230012Y0145431D01*
X0229902Y0145592D01*
X0229796Y0145755D01*
X0229694Y0145921D01*
X0229596Y0146089D01*
X0229502Y0146259D01*
X0229412Y0146432D01*
X0229327Y0146607D01*
X0229246Y0146784D01*
X0229169Y0146963D01*
X0229097Y0147144D01*
X0229029Y0147327D01*
X0228965Y0147511D01*
X0228907Y0147697D01*
X0228852Y0147884D01*
X0228803Y0148072D01*
X0228758Y0148261D01*
X0228717Y0148452D01*
X0228682Y0148643D01*
X0228651Y0148836D01*
X0228625Y0149029D01*
X0228603Y0149222D01*
X0228587Y0149416D01*
X0228575Y0149611D01*
X0228567Y0149805D01*
X0228565Y0150000D01*
X0193757Y0038189D02*
X0193757Y0061811D01*
X0194939Y0061811D01*
X0212261Y0061811D02*
X0213443Y0061811D01*
X0213443Y0038189D01*
X0212261Y0038189D01*
X0194939Y0038189D02*
X0193757Y0038189D01*
X0194846Y0040945D02*
X0194848Y0041004D01*
X0194854Y0041062D01*
X0194864Y0041120D01*
X0194877Y0041177D01*
X0194895Y0041234D01*
X0194916Y0041289D01*
X0194941Y0041342D01*
X0194969Y0041393D01*
X0195000Y0041443D01*
X0195035Y0041490D01*
X0195073Y0041535D01*
X0195114Y0041578D01*
X0195158Y0041617D01*
X0195204Y0041653D01*
X0195252Y0041687D01*
X0195303Y0041717D01*
X0195356Y0041743D01*
X0195410Y0041766D01*
X0195465Y0041785D01*
X0195522Y0041801D01*
X0195580Y0041813D01*
X0195638Y0041821D01*
X0195697Y0041825D01*
X0195755Y0041825D01*
X0195814Y0041821D01*
X0195872Y0041813D01*
X0195930Y0041801D01*
X0195987Y0041785D01*
X0196042Y0041766D01*
X0196096Y0041743D01*
X0196149Y0041717D01*
X0196200Y0041687D01*
X0196248Y0041653D01*
X0196294Y0041617D01*
X0196338Y0041578D01*
X0196379Y0041535D01*
X0196417Y0041490D01*
X0196452Y0041443D01*
X0196483Y0041393D01*
X0196511Y0041342D01*
X0196536Y0041289D01*
X0196557Y0041234D01*
X0196575Y0041177D01*
X0196588Y0041120D01*
X0196598Y0041062D01*
X0196604Y0041004D01*
X0196606Y0040945D01*
X0196604Y0040886D01*
X0196598Y0040828D01*
X0196588Y0040770D01*
X0196575Y0040713D01*
X0196557Y0040656D01*
X0196536Y0040601D01*
X0196511Y0040548D01*
X0196483Y0040497D01*
X0196452Y0040447D01*
X0196417Y0040400D01*
X0196379Y0040355D01*
X0196338Y0040312D01*
X0196294Y0040273D01*
X0196248Y0040237D01*
X0196200Y0040203D01*
X0196149Y0040173D01*
X0196096Y0040147D01*
X0196042Y0040124D01*
X0195987Y0040105D01*
X0195930Y0040089D01*
X0195872Y0040077D01*
X0195814Y0040069D01*
X0195755Y0040065D01*
X0195697Y0040065D01*
X0195638Y0040069D01*
X0195580Y0040077D01*
X0195522Y0040089D01*
X0195465Y0040105D01*
X0195410Y0040124D01*
X0195356Y0040147D01*
X0195303Y0040173D01*
X0195252Y0040203D01*
X0195204Y0040237D01*
X0195158Y0040273D01*
X0195114Y0040312D01*
X0195073Y0040355D01*
X0195035Y0040400D01*
X0195000Y0040447D01*
X0194969Y0040497D01*
X0194941Y0040548D01*
X0194916Y0040601D01*
X0194895Y0040656D01*
X0194877Y0040713D01*
X0194864Y0040770D01*
X0194854Y0040828D01*
X0194848Y0040886D01*
X0194846Y0040945D01*
X0269643Y0073643D02*
X0269643Y0074135D01*
X0249957Y0074135D01*
X0249957Y0073643D01*
X0249957Y0053957D02*
X0249957Y0053465D01*
X0269643Y0053465D01*
X0269643Y0053957D01*
X0290043Y0007557D02*
X0290535Y0007557D01*
X0290535Y0027243D01*
X0290043Y0027243D01*
X0270357Y0027243D02*
X0269865Y0027243D01*
X0269865Y0007557D01*
X0270357Y0007557D01*
D12*
X0150300Y0021500D02*
X0152800Y0024000D01*
X0157800Y0024000D01*
X0160300Y0021500D01*
X0162800Y0024000D01*
X0167800Y0024000D01*
X0170300Y0021500D01*
X0172800Y0024000D01*
X0177800Y0024000D01*
X0180300Y0021500D01*
X0182800Y0024000D01*
X0187800Y0024000D01*
X0190300Y0021500D01*
X0192800Y0024000D01*
X0197800Y0024000D01*
X0200300Y0021500D01*
X0202800Y0024000D01*
X0207800Y0024000D01*
X0210300Y0021500D01*
X0210300Y0016500D01*
X0207800Y0014000D01*
X0202800Y0014000D01*
X0200300Y0016500D01*
X0197800Y0014000D01*
X0192800Y0014000D01*
X0190300Y0016500D01*
X0187800Y0014000D01*
X0182800Y0014000D01*
X0180300Y0016500D01*
X0177800Y0014000D01*
X0172800Y0014000D01*
X0170300Y0016500D01*
X0167800Y0014000D01*
X0162800Y0014000D01*
X0160300Y0016500D01*
X0157800Y0014000D01*
X0152800Y0014000D01*
X0150300Y0016500D01*
X0150300Y0021500D01*
X0160300Y0021500D02*
X0160300Y0016500D01*
X0170300Y0016500D02*
X0170300Y0021500D01*
X0180300Y0021500D02*
X0180300Y0016500D01*
X0190300Y0016500D02*
X0190300Y0021500D01*
X0200300Y0021500D02*
X0200300Y0016500D01*
D13*
X0141702Y0022699D02*
X0141702Y0011101D01*
X0137898Y0011101D01*
X0137898Y0022699D01*
X0141702Y0022699D01*
X0135702Y0027999D02*
X0135702Y0016401D01*
X0131898Y0016401D01*
X0131898Y0027999D01*
X0135702Y0027999D01*
X0215002Y0151999D02*
X0215002Y0140401D01*
X0211198Y0140401D01*
X0211198Y0151999D01*
X0215002Y0151999D01*
X0144298Y0011201D02*
X0144298Y0022799D01*
X0148102Y0022799D01*
X0148102Y0011201D01*
X0144298Y0011201D01*
X0171402Y0071699D02*
X0171402Y0060101D01*
X0167598Y0060101D01*
X0167598Y0071699D01*
X0171402Y0071699D01*
X0191702Y0065599D02*
X0191702Y0054001D01*
X0187898Y0054001D01*
X0187898Y0065599D01*
X0191702Y0065599D01*
X0242599Y0089798D02*
X0231001Y0089798D01*
X0231001Y0093602D01*
X0242599Y0093602D01*
X0242599Y0089798D01*
X0179101Y0147802D02*
X0190699Y0147802D01*
X0190699Y0143998D01*
X0179101Y0143998D01*
X0179101Y0147802D01*
X0175932Y0142470D02*
X0191468Y0142470D01*
X0191468Y0134730D02*
X0175932Y0134730D01*
X0175932Y0142470D01*
X0191468Y0142470D02*
X0191468Y0134730D01*
X0177801Y0133902D02*
X0189399Y0133902D01*
X0189399Y0130098D01*
X0177801Y0130098D01*
X0177801Y0133902D01*
X0121102Y0033899D02*
X0121102Y0022301D01*
X0117298Y0022301D01*
X0117298Y0033899D01*
X0121102Y0033899D01*
X0111102Y0033799D02*
X0111102Y0022201D01*
X0107298Y0022201D01*
X0107298Y0033799D01*
X0111102Y0033799D01*
X0106102Y0033699D02*
X0106102Y0022101D01*
X0102298Y0022101D01*
X0102298Y0033699D01*
X0106102Y0033699D01*
X0101102Y0033799D02*
X0101102Y0022201D01*
X0097298Y0022201D01*
X0097298Y0033799D01*
X0101102Y0033799D01*
X0046601Y0163802D02*
X0058199Y0163802D01*
X0058199Y0159998D01*
X0046601Y0159998D01*
X0046601Y0163802D01*
X0053299Y0143498D02*
X0041701Y0143498D01*
X0041701Y0147302D01*
X0053299Y0147302D01*
X0053299Y0143498D01*
X0053968Y0149930D02*
X0038432Y0149930D01*
X0038432Y0157670D02*
X0053968Y0157670D01*
X0053968Y0149930D01*
X0038432Y0149930D02*
X0038432Y0157670D01*
X0083070Y0036768D02*
X0083070Y0021232D01*
X0075330Y0021232D02*
X0075330Y0036768D01*
X0083070Y0036768D01*
X0083070Y0021232D02*
X0075330Y0021232D01*
X0056302Y0033599D02*
X0056302Y0022001D01*
X0052498Y0022001D01*
X0052498Y0033599D01*
X0056302Y0033599D01*
X0255001Y0092302D02*
X0266599Y0092302D01*
X0266599Y0088498D01*
X0255001Y0088498D01*
X0255001Y0092302D01*
X0221499Y0130898D02*
X0209901Y0130898D01*
X0209901Y0134702D01*
X0221499Y0134702D01*
X0221499Y0130898D01*
X0236799Y0130998D02*
X0225201Y0130998D01*
X0225201Y0134802D01*
X0236799Y0134802D01*
X0236799Y0130998D01*
X0284799Y0125198D02*
X0273201Y0125198D01*
X0273201Y0129002D01*
X0284799Y0129002D01*
X0284799Y0125198D01*
X0273201Y0134302D02*
X0284799Y0134302D01*
X0284799Y0130498D01*
X0273201Y0130498D01*
X0273201Y0134302D01*
X0116702Y0159899D02*
X0116702Y0148301D01*
X0112898Y0148301D01*
X0112898Y0159899D01*
X0116702Y0159899D01*
X0122302Y0159999D02*
X0122302Y0148401D01*
X0118498Y0148401D01*
X0118498Y0159999D01*
X0122302Y0159999D01*
X0110902Y0159999D02*
X0110902Y0148401D01*
X0107098Y0148401D01*
X0107098Y0159999D01*
X0110902Y0159999D01*
X0093402Y0160099D02*
X0093402Y0148501D01*
X0089598Y0148501D01*
X0089598Y0160099D01*
X0093402Y0160099D01*
X0099202Y0159999D02*
X0099202Y0148401D01*
X0095398Y0148401D01*
X0095398Y0159999D01*
X0099202Y0159999D01*
X0087802Y0160199D02*
X0087802Y0148601D01*
X0083998Y0148601D01*
X0083998Y0160199D01*
X0087802Y0160199D01*
X0070002Y0160299D02*
X0070002Y0148701D01*
X0066198Y0148701D01*
X0066198Y0160299D01*
X0070002Y0160299D01*
X0075702Y0160199D02*
X0075702Y0148601D01*
X0071898Y0148601D01*
X0071898Y0160199D01*
X0075702Y0160199D01*
X0063902Y0160299D02*
X0063902Y0148701D01*
X0060098Y0148701D01*
X0060098Y0160299D01*
X0063902Y0160299D01*
X0257699Y0125598D02*
X0246101Y0125598D01*
X0246101Y0129402D01*
X0257699Y0129402D01*
X0257699Y0125598D01*
X0261802Y0113799D02*
X0261802Y0102201D01*
X0257998Y0102201D01*
X0257998Y0113799D01*
X0261802Y0113799D01*
X0212698Y0116001D02*
X0212698Y0127599D01*
X0216502Y0127599D01*
X0216502Y0116001D01*
X0212698Y0116001D01*
X0233802Y0116199D02*
X0233802Y0104601D01*
X0229998Y0104601D01*
X0229998Y0116199D01*
X0233802Y0116199D01*
X0237832Y0075530D02*
X0253368Y0075530D01*
X0237832Y0083270D02*
X0253368Y0083270D01*
X0253368Y0075530D01*
X0237832Y0075530D02*
X0237832Y0083270D01*
X0274132Y0067770D02*
X0289668Y0067770D01*
X0289668Y0060030D02*
X0274132Y0060030D01*
X0274132Y0067770D01*
X0289668Y0067770D02*
X0289668Y0060030D01*
X0240268Y0007230D02*
X0224732Y0007230D01*
X0224732Y0014970D02*
X0240268Y0014970D01*
X0240268Y0007230D01*
X0224732Y0007230D02*
X0224732Y0014970D01*
X0241398Y0043101D02*
X0241398Y0054699D01*
X0245202Y0054699D01*
X0245202Y0043101D01*
X0241398Y0043101D01*
X0236799Y0033298D02*
X0225201Y0033298D01*
X0225201Y0037102D01*
X0236799Y0037102D01*
X0236799Y0033298D01*
X0232801Y0026002D02*
X0244399Y0026002D01*
X0244399Y0022198D01*
X0232801Y0022198D01*
X0232801Y0026002D01*
X0242402Y0038399D02*
X0242402Y0026801D01*
X0238598Y0026801D01*
X0238598Y0038399D01*
X0242402Y0038399D01*
X0225598Y0042801D02*
X0225598Y0054399D01*
X0229402Y0054399D01*
X0229402Y0042801D01*
X0225598Y0042801D01*
X0286998Y0030201D02*
X0286998Y0041799D01*
X0290802Y0041799D01*
X0290802Y0030201D01*
X0286998Y0030201D01*
X0240502Y0054699D02*
X0240502Y0043101D01*
X0236698Y0043101D01*
X0236698Y0054699D01*
X0240502Y0054699D01*
X0244399Y0017098D02*
X0232801Y0017098D01*
X0232801Y0020902D01*
X0244399Y0020902D01*
X0244399Y0017098D01*
X0225201Y0032102D02*
X0236799Y0032102D01*
X0236799Y0028298D01*
X0225201Y0028298D01*
X0225201Y0032102D01*
X0223302Y0038499D02*
X0223302Y0026901D01*
X0219498Y0026901D01*
X0219498Y0038499D01*
X0223302Y0038499D01*
X0230302Y0027299D02*
X0230302Y0015701D01*
X0226498Y0015701D01*
X0226498Y0027299D01*
X0230302Y0027299D01*
X0262670Y0024568D02*
X0262670Y0009032D01*
X0254930Y0009032D02*
X0254930Y0024568D01*
X0262670Y0024568D01*
X0262670Y0009032D02*
X0254930Y0009032D01*
X0305302Y0046799D02*
X0305302Y0035201D01*
X0301498Y0035201D01*
X0301498Y0046799D01*
X0305302Y0046799D01*
X0301470Y0032768D02*
X0301470Y0017232D01*
X0293730Y0017232D02*
X0293730Y0032768D01*
X0301470Y0032768D01*
X0301470Y0017232D02*
X0293730Y0017232D01*
X0295698Y0035301D02*
X0295698Y0046899D01*
X0299502Y0046899D01*
X0299502Y0035301D01*
X0295698Y0035301D01*
X0247468Y0058930D02*
X0231932Y0058930D01*
X0231932Y0066670D02*
X0247468Y0066670D01*
X0247468Y0058930D01*
X0231932Y0058930D02*
X0231932Y0066670D01*
M02*
